%TF.GenerationSoftware,KiCad,Pcbnew,7.0.11+dfsg-1build4*%
%TF.CreationDate,2026-10-07T10:07:03+09:00*%
%TF.ProjectId,t1s_hat,7431735f-6861-4742-9e6b-696361645f70,rev?*%
%TF.SameCoordinates,Original*%
%TF.FileFunction,Copper,L4,Bot*%
%TF.FilePolarity,Positive*%
%FSLAX46Y46*%
G04 Gerber Fmt 4.6, Leading zero omitted, Abs format (unit mm)*
G04 Created by KiCad (PCBNEW 7.0.11+dfsg-1build4) date 2026-10-07 10:07:03*
%MOMM*%
%LPD*%
G01*
G04 APERTURE LIST*
%TA.AperFunction,ComponentPad*%
%ADD10C,2.100000*%
%TD*%
%TA.AperFunction,ComponentPad*%
%ADD11R,2.100000X2.100000*%
%TD*%
%TA.AperFunction,ComponentPad*%
%ADD12R,1.700000X1.700000*%
%TD*%
%TA.AperFunction,ComponentPad*%
%ADD13O,1.700000X1.700000*%
%TD*%
%TA.AperFunction,HeatsinkPad*%
%ADD14C,0.500000*%
%TD*%
%TA.AperFunction,HeatsinkPad*%
%ADD15R,3.400000X3.400000*%
%TD*%
%TA.AperFunction,ViaPad*%
%ADD16C,0.450000*%
%TD*%
%TA.AperFunction,ViaPad*%
%ADD17C,0.600000*%
%TD*%
%TA.AperFunction,Conductor*%
%ADD18C,0.250000*%
%TD*%
%TA.AperFunction,Conductor*%
%ADD19C,0.200000*%
%TD*%
%TA.AperFunction,Conductor*%
%ADD20C,0.350000*%
%TD*%
G04 APERTURE END LIST*
D10*
%TO.P,CN1,1*%
%TO.N,BUS_P*%
X30270000Y41600000D03*
D11*
X30270000Y46680000D03*
D10*
%TO.P,CN1,2*%
%TO.N,BUS_N*%
X27730000Y41600000D03*
X27730000Y46680000D03*
%TO.P,CN1,3*%
X25190000Y41600000D03*
X25190000Y46680000D03*
%TO.P,CN1,4*%
%TO.N,BUS_P*%
X22650000Y41600000D03*
X22650000Y46680000D03*
%TD*%
D12*
%TO.P,J1,1*%
%TO.N,+3V3*%
X56456000Y5900000D03*
D13*
%TO.P,J1,2*%
%TO.N,N/C*%
X56456000Y3360000D03*
%TO.P,J1,3*%
X53916000Y5900000D03*
%TO.P,J1,4*%
X53916000Y3360000D03*
%TO.P,J1,5*%
X51376000Y5900000D03*
%TO.P,J1,6*%
%TO.N,GND*%
X51376000Y3360000D03*
%TO.P,J1,7*%
%TO.N,N/C*%
X48836000Y5900000D03*
%TO.P,J1,8*%
X48836000Y3360000D03*
%TO.P,J1,9*%
%TO.N,GND*%
X46296000Y5900000D03*
%TO.P,J1,10*%
%TO.N,N/C*%
X46296000Y3360000D03*
%TO.P,J1,11*%
X43756000Y5900000D03*
%TO.P,J1,12*%
X43756000Y3360000D03*
%TO.P,J1,13*%
%TO.N,PPS*%
X41216000Y5900000D03*
%TO.P,J1,14*%
%TO.N,GND*%
X41216000Y3360000D03*
%TO.P,J1,15*%
%TO.N,RESET_N*%
X38676000Y5900000D03*
%TO.P,J1,16*%
%TO.N,IRQ_N*%
X38676000Y3360000D03*
%TO.P,J1,17*%
%TO.N,+3V3*%
X36136000Y5900000D03*
%TO.P,J1,18*%
%TO.N,N/C*%
X36136000Y3360000D03*
%TO.P,J1,19*%
%TO.N,SPI_MOSI*%
X33596000Y5900000D03*
%TO.P,J1,20*%
%TO.N,GND*%
X33596000Y3360000D03*
%TO.P,J1,21*%
%TO.N,SPI_MISO*%
X31056000Y5900000D03*
%TO.P,J1,22*%
%TO.N,N/C*%
X31056000Y3360000D03*
%TO.P,J1,23*%
%TO.N,SPI_SCLK*%
X28516000Y5900000D03*
%TO.P,J1,24*%
%TO.N,N/C*%
X28516000Y3360000D03*
%TO.P,J1,25*%
%TO.N,GND*%
X25976000Y5900000D03*
%TO.P,J1,26*%
%TO.N,N/C*%
X25976000Y3360000D03*
%TO.P,J1,27*%
%TO.N,SPI_CS_N*%
X23436000Y5900000D03*
%TO.P,J1,28*%
%TO.N,N/C*%
X23436000Y3360000D03*
%TO.P,J1,29*%
X20896000Y5900000D03*
%TO.P,J1,30*%
%TO.N,GND*%
X20896000Y3360000D03*
%TO.P,J1,31*%
%TO.N,N/C*%
X18356000Y5900000D03*
%TO.P,J1,32*%
X18356000Y3360000D03*
%TO.P,J1,33*%
X15816000Y5900000D03*
%TO.P,J1,34*%
%TO.N,GND*%
X15816000Y3360000D03*
%TO.P,J1,35*%
%TO.N,N/C*%
X13276000Y5900000D03*
%TO.P,J1,36*%
X13276000Y3360000D03*
%TO.P,J1,37*%
X10736000Y5900000D03*
%TO.P,J1,38*%
X10736000Y3360000D03*
%TO.P,J1,39*%
%TO.N,GND*%
X8196000Y5900000D03*
%TO.P,J1,40*%
%TO.N,N/C*%
X8196000Y3360000D03*
%TD*%
D14*
%TO.P,U1,33*%
%TO.N,GND*%
X28550000Y21450000D03*
X28550000Y20000000D03*
X28550000Y18550000D03*
X30000000Y21450000D03*
X30000000Y20000000D03*
D15*
X30000000Y20000000D03*
D14*
X30000000Y18550000D03*
X31450000Y21450000D03*
X31450000Y20000000D03*
X31450000Y18550000D03*
%TD*%
D16*
%TO.N,+3V3*%
X36300000Y14100000D03*
X24975000Y13200000D03*
X23450000Y25450000D03*
X39700000Y21900000D03*
X22075000Y15200000D03*
X24700000Y8800000D03*
X19800000Y18725000D03*
X15050000Y19300000D03*
%TO.N,GND*%
X31750000Y16700000D03*
X23800000Y21250000D03*
X23500000Y22450000D03*
D17*
X40100000Y37000000D03*
X17900000Y18000000D03*
X25150000Y35600000D03*
D16*
X32720000Y26200000D03*
X36350000Y15700000D03*
D17*
X31812000Y35600000D03*
X38250000Y20000000D03*
D16*
X23500000Y23950000D03*
D17*
X18500000Y37000000D03*
D16*
X36350000Y17300000D03*
X35329999Y29050000D03*
D17*
X27600000Y23200000D03*
D16*
X36350000Y22800000D03*
X25400000Y21250000D03*
X36350000Y23940000D03*
X37850000Y24975000D03*
X31750000Y30600000D03*
X34850000Y18700000D03*
%TO.N,PPS*%
X40000000Y12000000D03*
X33100000Y21250000D03*
%TO.N,RESET_N*%
X24000000Y16900000D03*
%TO.N,IRQ_N*%
X27246000Y15500000D03*
%TO.N,SPI_MISO*%
X28350000Y15500000D03*
%TO.N,VDDA*%
X26750000Y23950000D03*
X29750000Y23400000D03*
%TD*%
D18*
%TO.N,PPS*%
X40000000Y12000000D02*
X41216000Y10500000D01*
X41216000Y10500000D02*
X41216000Y5900000D01*
X33100000Y21250000D02*
X33100000Y12000000D01*
X33100000Y12000000D02*
X40000000Y12000000D01*
D19*
%TO.N,RESET_N*%
X39946000Y1200000D02*
X39946000Y4630000D01*
X24000000Y16900000D02*
X24000000Y8000000D01*
X24706000Y7300000D02*
X24706000Y1200000D01*
X24706000Y1200000D02*
X39946000Y1200000D01*
X24000000Y8000000D02*
X24706000Y7300000D01*
X39946000Y4630000D02*
X38676000Y5900000D01*
%TO.N,IRQ_N*%
X27246000Y15500000D02*
X27246000Y1900000D01*
X27246000Y1900000D02*
X38676000Y1900000D01*
X38676000Y1900000D02*
X38676000Y3360000D01*
%TO.N,SPI_MISO*%
X28350000Y8300000D02*
X31056000Y7000000D01*
X28350000Y15500000D02*
X28350000Y8300000D01*
X31056000Y7000000D02*
X31056000Y5900000D01*
D18*
%TO.N,VDDA*%
X29750000Y23400000D02*
X29199999Y23950000D01*
X29199999Y23950000D02*
X26750000Y23950000D01*
D20*
%TO.N,BUS_P*%
X30270000Y41600000D02*
X30270000Y46680000D01*
X22650000Y41600000D02*
X22650000Y46680000D01*
%TO.N,BUS_N*%
X27730000Y41600000D02*
X27730000Y46680000D01*
X25190000Y41600000D02*
X25190000Y46680000D01*
%TD*%
%TA.AperFunction,Conductor*%
%TO.N,GND*%
G36*
X63222231Y48689366D02*
G01*
X63516821Y48671546D01*
X63525673Y48670472D01*
X63813784Y48617673D01*
X63822435Y48615540D01*
X64102062Y48528405D01*
X64110401Y48525243D01*
X64377497Y48405033D01*
X64385409Y48400880D01*
X64636046Y48249364D01*
X64643400Y48244288D01*
X64873951Y48063664D01*
X64880640Y48057738D01*
X65087737Y47850641D01*
X65093663Y47843952D01*
X65274287Y47613401D01*
X65279363Y47606047D01*
X65430879Y47355410D01*
X65435032Y47347498D01*
X65555239Y47080410D01*
X65558407Y47072054D01*
X65645536Y46792448D01*
X65647675Y46783772D01*
X65700469Y46495683D01*
X65701546Y46486812D01*
X65719365Y46192232D01*
X65719500Y46187764D01*
X65719500Y44074000D01*
X65702187Y44026434D01*
X65658350Y44001124D01*
X65645500Y44000000D01*
X58000000Y44000000D01*
X58000000Y22000000D01*
X65645500Y22000000D01*
X65693066Y21982687D01*
X65718376Y21938850D01*
X65719500Y21926000D01*
X65719500Y3002237D01*
X65719365Y2997769D01*
X65701546Y2703189D01*
X65700469Y2694318D01*
X65647675Y2406229D01*
X65645536Y2397553D01*
X65558407Y2117947D01*
X65555239Y2109591D01*
X65435032Y1842503D01*
X65430879Y1834591D01*
X65279363Y1583954D01*
X65274287Y1576600D01*
X65093663Y1346049D01*
X65087737Y1339360D01*
X64880640Y1132263D01*
X64873951Y1126337D01*
X64643400Y945713D01*
X64636046Y940637D01*
X64385409Y789121D01*
X64377497Y784968D01*
X64110409Y664761D01*
X64102053Y661593D01*
X63822447Y574464D01*
X63813771Y572325D01*
X63525682Y519531D01*
X63516811Y518454D01*
X63222232Y500635D01*
X63217764Y500500D01*
X3002236Y500500D01*
X2997768Y500635D01*
X2703188Y518454D01*
X2694317Y519531D01*
X2406228Y572325D01*
X2397552Y574464D01*
X2117946Y661593D01*
X2109590Y664761D01*
X1842502Y784968D01*
X1834590Y789121D01*
X1583953Y940637D01*
X1576599Y945713D01*
X1346048Y1126337D01*
X1339359Y1132263D01*
X1132262Y1339360D01*
X1126336Y1346049D01*
X945712Y1576600D01*
X940636Y1583954D01*
X789120Y1834591D01*
X784967Y1842503D01*
X777955Y1858083D01*
X664757Y2109599D01*
X661595Y2117938D01*
X574460Y2397565D01*
X572327Y2406216D01*
X519528Y2694327D01*
X518454Y2703179D01*
X500635Y2997769D01*
X500500Y3002237D01*
X500500Y4630000D01*
X1699474Y4630000D01*
X1719548Y4374929D01*
X1779276Y4126145D01*
X1779277Y4126141D01*
X1779278Y4126140D01*
X1787450Y4106410D01*
X1877192Y3889755D01*
X1877196Y3889748D01*
X1947711Y3774678D01*
X2010877Y3671601D01*
X2177044Y3477044D01*
X2371601Y3310877D01*
X2589757Y3177191D01*
X2826140Y3079278D01*
X3074930Y3019548D01*
X3266137Y3004500D01*
X3393863Y3004500D01*
X3585070Y3019548D01*
X3833860Y3079278D01*
X4070243Y3177191D01*
X4288399Y3310877D01*
X4345915Y3360000D01*
X7140417Y3360000D01*
X7160700Y3154066D01*
X7220768Y2956046D01*
X7318315Y2773550D01*
X7449590Y2613590D01*
X7609550Y2482315D01*
X7792046Y2384768D01*
X7990066Y2324700D01*
X8196000Y2304417D01*
X8401934Y2324700D01*
X8599954Y2384768D01*
X8782450Y2482315D01*
X8942410Y2613590D01*
X9073685Y2773550D01*
X9171232Y2956046D01*
X9231300Y3154066D01*
X9251583Y3360000D01*
X9680417Y3360000D01*
X9700700Y3154066D01*
X9760768Y2956046D01*
X9858315Y2773550D01*
X9989590Y2613590D01*
X10149550Y2482315D01*
X10332046Y2384768D01*
X10530066Y2324700D01*
X10736000Y2304417D01*
X10941934Y2324700D01*
X11139954Y2384768D01*
X11322450Y2482315D01*
X11482410Y2613590D01*
X11613685Y2773550D01*
X11711232Y2956046D01*
X11771300Y3154066D01*
X11791583Y3360000D01*
X12220417Y3360000D01*
X12240700Y3154066D01*
X12300768Y2956046D01*
X12398315Y2773550D01*
X12529590Y2613590D01*
X12689550Y2482315D01*
X12872046Y2384768D01*
X13070066Y2324700D01*
X13276000Y2304417D01*
X13481934Y2324700D01*
X13679954Y2384768D01*
X13862450Y2482315D01*
X14022410Y2613590D01*
X14153685Y2773550D01*
X14251232Y2956046D01*
X14311300Y3154066D01*
X14331583Y3360000D01*
X17300417Y3360000D01*
X17320700Y3154066D01*
X17380768Y2956046D01*
X17478315Y2773550D01*
X17609590Y2613590D01*
X17769550Y2482315D01*
X17952046Y2384768D01*
X18150066Y2324700D01*
X18356000Y2304417D01*
X18561934Y2324700D01*
X18759954Y2384768D01*
X18942450Y2482315D01*
X19102410Y2613590D01*
X19233685Y2773550D01*
X19331232Y2956046D01*
X19391300Y3154066D01*
X19411583Y3360000D01*
X22380417Y3360000D01*
X22400700Y3154066D01*
X22460768Y2956046D01*
X22558315Y2773550D01*
X22689590Y2613590D01*
X22849550Y2482315D01*
X23032046Y2384768D01*
X23230066Y2324700D01*
X23436000Y2304417D01*
X23641934Y2324700D01*
X23839954Y2384768D01*
X24022450Y2482315D01*
X24182410Y2613590D01*
X24274298Y2725557D01*
X24317855Y2751342D01*
X24367798Y2743097D01*
X24400757Y2704678D01*
X24405500Y2678611D01*
X24405500Y1252241D01*
X24402675Y1231990D01*
X24401598Y1228208D01*
X24405184Y1189519D01*
X24405500Y1182691D01*
X24405500Y1172153D01*
X24407436Y1161793D01*
X24408378Y1155033D01*
X24411963Y1116344D01*
X24411965Y1116338D01*
X24413722Y1112809D01*
X24420215Y1093438D01*
X24420938Y1089569D01*
X24420939Y1089567D01*
X24436019Y1065211D01*
X24441393Y1056532D01*
X24444718Y1050562D01*
X24462040Y1015774D01*
X24462041Y1015773D01*
X24464946Y1013125D01*
X24478009Y997394D01*
X24480081Y994048D01*
X24511095Y970628D01*
X24516344Y966269D01*
X24545067Y940084D01*
X24548732Y938664D01*
X24566600Y928712D01*
X24569736Y926344D01*
X24607114Y915710D01*
X24613581Y913542D01*
X24649827Y899500D01*
X24653760Y899500D01*
X24674010Y896676D01*
X24677793Y895599D01*
X24677793Y895600D01*
X24677794Y895599D01*
X24716482Y899184D01*
X24723310Y899500D01*
X39893760Y899500D01*
X39914010Y896676D01*
X39917793Y895599D01*
X39917793Y895600D01*
X39917794Y895599D01*
X39956482Y899184D01*
X39963310Y899500D01*
X39973839Y899500D01*
X39973844Y899500D01*
X39984214Y901439D01*
X39990945Y902378D01*
X40029660Y905965D01*
X40031805Y907034D01*
X40033183Y907719D01*
X40052571Y914217D01*
X40053893Y914465D01*
X40056433Y914939D01*
X40089471Y935397D01*
X40095439Y938720D01*
X40130227Y956041D01*
X40130228Y956042D01*
X40132872Y958943D01*
X40148613Y972014D01*
X40151952Y974081D01*
X40175375Y1005100D01*
X40179715Y1010329D01*
X40205916Y1039067D01*
X40207336Y1042734D01*
X40217294Y1060609D01*
X40219655Y1063735D01*
X40219656Y1063736D01*
X40230292Y1101124D01*
X40232456Y1107579D01*
X40246500Y1143827D01*
X40246500Y1147760D01*
X40249326Y1168014D01*
X40250401Y1171793D01*
X40246816Y1210483D01*
X40246500Y1217311D01*
X40246500Y3360000D01*
X42700417Y3360000D01*
X42720700Y3154066D01*
X42780768Y2956046D01*
X42878315Y2773550D01*
X43009590Y2613590D01*
X43169550Y2482315D01*
X43352046Y2384768D01*
X43550066Y2324700D01*
X43756000Y2304417D01*
X43961934Y2324700D01*
X44159954Y2384768D01*
X44342450Y2482315D01*
X44502410Y2613590D01*
X44633685Y2773550D01*
X44731232Y2956046D01*
X44791300Y3154066D01*
X44811583Y3360000D01*
X45240417Y3360000D01*
X45260700Y3154066D01*
X45320768Y2956046D01*
X45418315Y2773550D01*
X45549590Y2613590D01*
X45709550Y2482315D01*
X45892046Y2384768D01*
X46090066Y2324700D01*
X46296000Y2304417D01*
X46501934Y2324700D01*
X46699954Y2384768D01*
X46882450Y2482315D01*
X47042410Y2613590D01*
X47173685Y2773550D01*
X47271232Y2956046D01*
X47331300Y3154066D01*
X47351583Y3360000D01*
X47780417Y3360000D01*
X47800700Y3154066D01*
X47860768Y2956046D01*
X47958315Y2773550D01*
X48089590Y2613590D01*
X48249550Y2482315D01*
X48432046Y2384768D01*
X48630066Y2324700D01*
X48836000Y2304417D01*
X49041934Y2324700D01*
X49239954Y2384768D01*
X49422450Y2482315D01*
X49582410Y2613590D01*
X49713685Y2773550D01*
X49811232Y2956046D01*
X49871300Y3154066D01*
X49891583Y3360000D01*
X52860417Y3360000D01*
X52880700Y3154066D01*
X52940768Y2956046D01*
X53038315Y2773550D01*
X53169590Y2613590D01*
X53329550Y2482315D01*
X53512046Y2384768D01*
X53710066Y2324700D01*
X53916000Y2304417D01*
X54121934Y2324700D01*
X54319954Y2384768D01*
X54502450Y2482315D01*
X54662410Y2613590D01*
X54793685Y2773550D01*
X54891232Y2956046D01*
X54951300Y3154066D01*
X54971583Y3360000D01*
X55400417Y3360000D01*
X55420700Y3154066D01*
X55480768Y2956046D01*
X55578315Y2773550D01*
X55709590Y2613590D01*
X55869550Y2482315D01*
X56052046Y2384768D01*
X56250066Y2324700D01*
X56456000Y2304417D01*
X56661934Y2324700D01*
X56859954Y2384768D01*
X57042450Y2482315D01*
X57202410Y2613590D01*
X57333685Y2773550D01*
X57431232Y2956046D01*
X57491300Y3154066D01*
X57511583Y3360000D01*
X57491300Y3565934D01*
X57431232Y3763954D01*
X57333685Y3946450D01*
X57202410Y4106410D01*
X57042450Y4237685D01*
X56859954Y4335232D01*
X56729086Y4374930D01*
X56661935Y4395300D01*
X56456000Y4415583D01*
X56250064Y4395300D01*
X56052043Y4335231D01*
X55869549Y4237685D01*
X55709590Y4106411D01*
X55709589Y4106410D01*
X55578315Y3946451D01*
X55480769Y3763957D01*
X55420700Y3565936D01*
X55420700Y3565934D01*
X55400417Y3360000D01*
X54971583Y3360000D01*
X54951300Y3565934D01*
X54891232Y3763954D01*
X54793685Y3946450D01*
X54662410Y4106410D01*
X54502450Y4237685D01*
X54319954Y4335232D01*
X54189086Y4374930D01*
X54121935Y4395300D01*
X53916000Y4415583D01*
X53710064Y4395300D01*
X53512043Y4335231D01*
X53329549Y4237685D01*
X53169590Y4106411D01*
X53169589Y4106410D01*
X53038315Y3946451D01*
X52940769Y3763957D01*
X52880700Y3565936D01*
X52880700Y3565934D01*
X52860417Y3360000D01*
X49891583Y3360000D01*
X49871300Y3565934D01*
X49811232Y3763954D01*
X49713685Y3946450D01*
X49582410Y4106410D01*
X49422450Y4237685D01*
X49239954Y4335232D01*
X49109086Y4374930D01*
X49041935Y4395300D01*
X48836000Y4415583D01*
X48630064Y4395300D01*
X48432043Y4335231D01*
X48249549Y4237685D01*
X48089590Y4106411D01*
X48089589Y4106410D01*
X47958315Y3946451D01*
X47860769Y3763957D01*
X47800700Y3565936D01*
X47800700Y3565934D01*
X47780417Y3360000D01*
X47351583Y3360000D01*
X47331300Y3565934D01*
X47271232Y3763954D01*
X47173685Y3946450D01*
X47042410Y4106410D01*
X46882450Y4237685D01*
X46699954Y4335232D01*
X46569086Y4374930D01*
X46501935Y4395300D01*
X46296000Y4415583D01*
X46090064Y4395300D01*
X45892043Y4335231D01*
X45709549Y4237685D01*
X45549590Y4106411D01*
X45549589Y4106410D01*
X45418315Y3946451D01*
X45320769Y3763957D01*
X45260700Y3565936D01*
X45260700Y3565934D01*
X45240417Y3360000D01*
X44811583Y3360000D01*
X44791300Y3565934D01*
X44731232Y3763954D01*
X44633685Y3946450D01*
X44502410Y4106410D01*
X44342450Y4237685D01*
X44159954Y4335232D01*
X44029086Y4374930D01*
X43961935Y4395300D01*
X43756000Y4415583D01*
X43550064Y4395300D01*
X43352043Y4335231D01*
X43169549Y4237685D01*
X43009590Y4106411D01*
X43009589Y4106410D01*
X42878315Y3946451D01*
X42780769Y3763957D01*
X42720700Y3565936D01*
X42720700Y3565934D01*
X42700417Y3360000D01*
X40246500Y3360000D01*
X40246500Y4568911D01*
X40248454Y4580885D01*
X40247826Y4580972D01*
X40248773Y4587763D01*
X40246821Y4630000D01*
X59699473Y4630000D01*
X59719547Y4374929D01*
X59779275Y4126145D01*
X59779276Y4126141D01*
X59779277Y4126140D01*
X59787449Y4106410D01*
X59877191Y3889755D01*
X59877195Y3889748D01*
X59947710Y3774678D01*
X60010876Y3671601D01*
X60177043Y3477044D01*
X60371600Y3310877D01*
X60589756Y3177191D01*
X60826139Y3079278D01*
X61074929Y3019548D01*
X61266136Y3004500D01*
X61393862Y3004500D01*
X61585069Y3019548D01*
X61833859Y3079278D01*
X62070242Y3177191D01*
X62288398Y3310877D01*
X62482955Y3477044D01*
X62649122Y3671601D01*
X62782808Y3889757D01*
X62880721Y4126140D01*
X62940451Y4374930D01*
X62960525Y4630000D01*
X62940451Y4885070D01*
X62880721Y5133860D01*
X62782808Y5370243D01*
X62649122Y5588399D01*
X62482955Y5782956D01*
X62482952Y5782959D01*
X62408627Y5846438D01*
X62288398Y5949123D01*
X62288395Y5949125D01*
X62070251Y6082804D01*
X62070244Y6082808D01*
X61833854Y6180724D01*
X61585070Y6240452D01*
X61393862Y6255500D01*
X61266136Y6255500D01*
X61074927Y6240452D01*
X60826143Y6180724D01*
X60589753Y6082808D01*
X60589746Y6082804D01*
X60371602Y5949125D01*
X60371601Y5949124D01*
X60177045Y5782959D01*
X60177040Y5782954D01*
X60010875Y5588398D01*
X60010874Y5588397D01*
X59877195Y5370253D01*
X59877191Y5370246D01*
X59779275Y5133856D01*
X59719547Y4885072D01*
X59699473Y4630000D01*
X40246821Y4630000D01*
X40246579Y4635226D01*
X40246500Y4638644D01*
X40246500Y4657841D01*
X40246500Y4657844D01*
X40246158Y4659668D01*
X40244977Y4669855D01*
X40243585Y4699990D01*
X40243585Y4699991D01*
X40243585Y4699992D01*
X40238441Y4711640D01*
X40233398Y4727930D01*
X40231061Y4740433D01*
X40215178Y4766086D01*
X40210400Y4775150D01*
X40198206Y4802765D01*
X40189207Y4811764D01*
X40178615Y4825137D01*
X40171920Y4835951D01*
X40171917Y4835954D01*
X40147837Y4854138D01*
X40140106Y4860865D01*
X39639076Y5361895D01*
X39617684Y5407771D01*
X39626140Y5449104D01*
X39651232Y5496046D01*
X39711300Y5694066D01*
X39731583Y5900000D01*
X39711300Y6105934D01*
X39651232Y6303954D01*
X39553685Y6486450D01*
X39422410Y6646410D01*
X39262450Y6777685D01*
X39079954Y6875232D01*
X38953882Y6913475D01*
X38881935Y6935300D01*
X38676000Y6955583D01*
X38470064Y6935300D01*
X38297984Y6883100D01*
X38272050Y6875233D01*
X38272043Y6875231D01*
X38089549Y6777685D01*
X37929590Y6646411D01*
X37929589Y6646410D01*
X37798315Y6486451D01*
X37700769Y6303957D01*
X37640700Y6105936D01*
X37640700Y6105934D01*
X37620417Y5900000D01*
X37640700Y5694066D01*
X37700768Y5496046D01*
X37798315Y5313550D01*
X37929590Y5153590D01*
X38089550Y5022315D01*
X38272046Y4924768D01*
X38470066Y4864700D01*
X38676000Y4844417D01*
X38881934Y4864700D01*
X39079954Y4924768D01*
X39126895Y4949860D01*
X39177005Y4957015D01*
X39214105Y4936924D01*
X39623826Y4527203D01*
X39645218Y4481327D01*
X39645500Y4474877D01*
X39645500Y4041390D01*
X39628187Y3993824D01*
X39584350Y3968514D01*
X39534500Y3977304D01*
X39514297Y3994445D01*
X39422410Y4106410D01*
X39422409Y4106411D01*
X39262450Y4237685D01*
X39079956Y4335231D01*
X39079955Y4335232D01*
X39079954Y4335232D01*
X38949086Y4374930D01*
X38881935Y4395300D01*
X38676000Y4415583D01*
X38470064Y4395300D01*
X38272043Y4335231D01*
X38089549Y4237685D01*
X37929590Y4106411D01*
X37929589Y4106410D01*
X37798315Y3946451D01*
X37700769Y3763957D01*
X37640700Y3565936D01*
X37640700Y3565934D01*
X37620417Y3360000D01*
X37640700Y3154066D01*
X37700768Y2956046D01*
X37798315Y2773550D01*
X37929590Y2613590D01*
X38089550Y2482315D01*
X38272046Y2384768D01*
X38322982Y2369317D01*
X38363473Y2338943D01*
X38375500Y2298504D01*
X38375500Y2274500D01*
X38358187Y2226934D01*
X38314350Y2201624D01*
X38301500Y2200500D01*
X36431370Y2200500D01*
X36383804Y2217813D01*
X36358494Y2261650D01*
X36367284Y2311500D01*
X36406061Y2344037D01*
X36409878Y2345311D01*
X36539954Y2384768D01*
X36722450Y2482315D01*
X36882410Y2613590D01*
X37013685Y2773550D01*
X37111232Y2956046D01*
X37171300Y3154066D01*
X37191583Y3360000D01*
X37171300Y3565934D01*
X37111232Y3763954D01*
X37013685Y3946450D01*
X36882410Y4106410D01*
X36722450Y4237685D01*
X36539954Y4335232D01*
X36409086Y4374930D01*
X36341935Y4395300D01*
X36136000Y4415583D01*
X35930064Y4395300D01*
X35732043Y4335231D01*
X35549549Y4237685D01*
X35389590Y4106411D01*
X35389589Y4106410D01*
X35258315Y3946451D01*
X35160769Y3763957D01*
X35100700Y3565936D01*
X35100700Y3565934D01*
X35080417Y3360000D01*
X35100700Y3154066D01*
X35160768Y2956046D01*
X35258315Y2773550D01*
X35389590Y2613590D01*
X35549550Y2482315D01*
X35732046Y2384768D01*
X35862111Y2345314D01*
X35902604Y2314939D01*
X35914098Y2265642D01*
X35891216Y2220490D01*
X35844664Y2200610D01*
X35840630Y2200500D01*
X31351370Y2200500D01*
X31303804Y2217813D01*
X31278494Y2261650D01*
X31287284Y2311500D01*
X31326061Y2344037D01*
X31329878Y2345311D01*
X31459954Y2384768D01*
X31642450Y2482315D01*
X31802410Y2613590D01*
X31933685Y2773550D01*
X32031232Y2956046D01*
X32091300Y3154066D01*
X32111583Y3360000D01*
X32091300Y3565934D01*
X32031232Y3763954D01*
X31933685Y3946450D01*
X31802410Y4106410D01*
X31642450Y4237685D01*
X31459954Y4335232D01*
X31329086Y4374930D01*
X31261935Y4395300D01*
X31056000Y4415583D01*
X30850064Y4395300D01*
X30652043Y4335231D01*
X30469549Y4237685D01*
X30309590Y4106411D01*
X30309589Y4106410D01*
X30178315Y3946451D01*
X30080769Y3763957D01*
X30020700Y3565936D01*
X30020700Y3565934D01*
X30000417Y3360000D01*
X30020700Y3154066D01*
X30080768Y2956046D01*
X30178315Y2773550D01*
X30309590Y2613590D01*
X30469550Y2482315D01*
X30652046Y2384768D01*
X30782111Y2345314D01*
X30822604Y2314939D01*
X30834098Y2265642D01*
X30811216Y2220490D01*
X30764664Y2200610D01*
X30760630Y2200500D01*
X28811370Y2200500D01*
X28763804Y2217813D01*
X28738494Y2261650D01*
X28747284Y2311500D01*
X28786061Y2344037D01*
X28789878Y2345311D01*
X28919954Y2384768D01*
X29102450Y2482315D01*
X29262410Y2613590D01*
X29393685Y2773550D01*
X29491232Y2956046D01*
X29551300Y3154066D01*
X29571583Y3360000D01*
X29551300Y3565934D01*
X29491232Y3763954D01*
X29393685Y3946450D01*
X29262410Y4106410D01*
X29102450Y4237685D01*
X28919954Y4335232D01*
X28789086Y4374930D01*
X28721935Y4395300D01*
X28516000Y4415583D01*
X28310064Y4395300D01*
X28112043Y4335231D01*
X27929549Y4237685D01*
X27769590Y4106411D01*
X27769589Y4106410D01*
X27677703Y3994445D01*
X27634144Y3968659D01*
X27584201Y3976904D01*
X27551243Y4015323D01*
X27546500Y4041390D01*
X27546500Y5218611D01*
X27563813Y5266177D01*
X27607650Y5291487D01*
X27657500Y5282697D01*
X27677701Y5265558D01*
X27769590Y5153590D01*
X27929550Y5022315D01*
X28112046Y4924768D01*
X28310066Y4864700D01*
X28516000Y4844417D01*
X28721934Y4864700D01*
X28919954Y4924768D01*
X29102450Y5022315D01*
X29262410Y5153590D01*
X29393685Y5313550D01*
X29491232Y5496046D01*
X29551300Y5694066D01*
X29571583Y5900000D01*
X29551300Y6105934D01*
X29491232Y6303954D01*
X29393685Y6486450D01*
X29262410Y6646410D01*
X29102450Y6777685D01*
X28919954Y6875232D01*
X28793882Y6913475D01*
X28721935Y6935300D01*
X28516000Y6955583D01*
X28310064Y6935300D01*
X28137984Y6883100D01*
X28112050Y6875233D01*
X28112043Y6875231D01*
X27929549Y6777685D01*
X27769590Y6646411D01*
X27769589Y6646410D01*
X27677703Y6534445D01*
X27634144Y6508659D01*
X27584201Y6516904D01*
X27551243Y6555323D01*
X27546500Y6581390D01*
X27546500Y15168100D01*
X27563813Y15215666D01*
X27568174Y15220426D01*
X27594528Y15246780D01*
X27655719Y15366874D01*
X27676804Y15500000D01*
X27919196Y15500000D01*
X27940280Y15366874D01*
X28001471Y15246781D01*
X28027826Y15220426D01*
X28049218Y15174550D01*
X28049500Y15168100D01*
X28049500Y8362681D01*
X28048713Y8353490D01*
X28049493Y8298402D01*
X28049500Y8297355D01*
X28049500Y8272146D01*
X28049662Y8270394D01*
X28049970Y8264626D01*
X28050324Y8239582D01*
X28057362Y8222152D01*
X28061483Y8208050D01*
X28064939Y8189567D01*
X28077646Y8169044D01*
X28083347Y8157794D01*
X28092385Y8135409D01*
X28092386Y8135406D01*
X28105247Y8121693D01*
X28114184Y8110031D01*
X28118221Y8103512D01*
X28124081Y8094048D01*
X28143349Y8079498D01*
X28152724Y8071071D01*
X28169240Y8053461D01*
X28178518Y8049004D01*
X28186186Y8045320D01*
X28198738Y8037670D01*
X28208195Y8030529D01*
X28213736Y8026344D01*
X28236953Y8019739D01*
X28248744Y8015266D01*
X30506196Y6930755D01*
X30541574Y6894552D01*
X30545404Y6844078D01*
X30515894Y6802951D01*
X30509036Y6798792D01*
X30469551Y6777686D01*
X30309590Y6646411D01*
X30309589Y6646410D01*
X30178315Y6486451D01*
X30080769Y6303957D01*
X30020700Y6105936D01*
X30020700Y6105934D01*
X30000417Y5900000D01*
X30020700Y5694066D01*
X30080768Y5496046D01*
X30178315Y5313550D01*
X30309590Y5153590D01*
X30469550Y5022315D01*
X30652046Y4924768D01*
X30850066Y4864700D01*
X31056000Y4844417D01*
X31261934Y4864700D01*
X31459954Y4924768D01*
X31642450Y5022315D01*
X31802410Y5153590D01*
X31933685Y5313550D01*
X32031232Y5496046D01*
X32091300Y5694066D01*
X32111583Y5900000D01*
X32540417Y5900000D01*
X32560700Y5694066D01*
X32620768Y5496046D01*
X32718315Y5313550D01*
X32849590Y5153590D01*
X33009550Y5022315D01*
X33192046Y4924768D01*
X33390066Y4864700D01*
X33596000Y4844417D01*
X33801934Y4864700D01*
X33999954Y4924768D01*
X34182450Y5022315D01*
X34342410Y5153590D01*
X34473685Y5313550D01*
X34571232Y5496046D01*
X34631300Y5694066D01*
X34651583Y5900000D01*
X35080417Y5900000D01*
X35100700Y5694066D01*
X35160768Y5496046D01*
X35258315Y5313550D01*
X35389590Y5153590D01*
X35549550Y5022315D01*
X35732046Y4924768D01*
X35930066Y4864700D01*
X36136000Y4844417D01*
X36341934Y4864700D01*
X36539954Y4924768D01*
X36722450Y5022315D01*
X36882410Y5153590D01*
X37013685Y5313550D01*
X37111232Y5496046D01*
X37171300Y5694066D01*
X37191583Y5900000D01*
X37171300Y6105934D01*
X37111232Y6303954D01*
X37013685Y6486450D01*
X36882410Y6646410D01*
X36722450Y6777685D01*
X36539954Y6875232D01*
X36413882Y6913475D01*
X36341935Y6935300D01*
X36136000Y6955583D01*
X35930064Y6935300D01*
X35757984Y6883100D01*
X35732050Y6875233D01*
X35732043Y6875231D01*
X35549549Y6777685D01*
X35389590Y6646411D01*
X35389589Y6646410D01*
X35258315Y6486451D01*
X35160769Y6303957D01*
X35100700Y6105936D01*
X35100700Y6105934D01*
X35080417Y5900000D01*
X34651583Y5900000D01*
X34631300Y6105934D01*
X34571232Y6303954D01*
X34473685Y6486450D01*
X34342410Y6646410D01*
X34182450Y6777685D01*
X33999954Y6875232D01*
X33873882Y6913475D01*
X33801935Y6935300D01*
X33596000Y6955583D01*
X33390064Y6935300D01*
X33217984Y6883100D01*
X33192050Y6875233D01*
X33192043Y6875231D01*
X33009549Y6777685D01*
X32849590Y6646411D01*
X32849589Y6646410D01*
X32718315Y6486451D01*
X32620769Y6303957D01*
X32560700Y6105936D01*
X32560700Y6105934D01*
X32540417Y5900000D01*
X32111583Y5900000D01*
X32091300Y6105934D01*
X32031232Y6303954D01*
X31933685Y6486450D01*
X31802410Y6646410D01*
X31642450Y6777685D01*
X31595181Y6802951D01*
X31459961Y6875229D01*
X31459956Y6875231D01*
X31459954Y6875232D01*
X31459950Y6875234D01*
X31459948Y6875234D01*
X31409602Y6890507D01*
X31369110Y6920882D01*
X31357091Y6960273D01*
X31356507Y7001601D01*
X31356500Y7002647D01*
X31356500Y7027846D01*
X31356339Y7029578D01*
X31356028Y7035382D01*
X31355675Y7060417D01*
X31348637Y7077847D01*
X31344515Y7091956D01*
X31341061Y7110434D01*
X31328353Y7130957D01*
X31322654Y7142202D01*
X31313614Y7164593D01*
X31300752Y7178308D01*
X31291816Y7189968D01*
X31281919Y7205952D01*
X31281918Y7205953D01*
X31281917Y7205954D01*
X31262655Y7220500D01*
X31253274Y7228931D01*
X31236760Y7246539D01*
X31219813Y7254681D01*
X31207265Y7262328D01*
X31192263Y7273657D01*
X31192264Y7273657D01*
X31169042Y7280265D01*
X31157252Y7284737D01*
X28692455Y8468860D01*
X28657077Y8505063D01*
X28650500Y8535562D01*
X28650500Y15168100D01*
X28667813Y15215666D01*
X28672174Y15220426D01*
X28698528Y15246780D01*
X28759719Y15366874D01*
X28780804Y15500000D01*
X28759719Y15633126D01*
X28759719Y15633127D01*
X28698528Y15753220D01*
X28603219Y15848529D01*
X28483126Y15909719D01*
X28483126Y15909720D01*
X28350000Y15930804D01*
X28216873Y15909720D01*
X28216873Y15909719D01*
X28096780Y15848529D01*
X28001471Y15753220D01*
X27940281Y15633127D01*
X27940280Y15633127D01*
X27919196Y15500000D01*
X27676804Y15500000D01*
X27655719Y15633126D01*
X27655719Y15633127D01*
X27594528Y15753220D01*
X27499219Y15848529D01*
X27379126Y15909719D01*
X27379126Y15909720D01*
X27246000Y15930804D01*
X27112873Y15909720D01*
X27112873Y15909719D01*
X26992780Y15848529D01*
X26897471Y15753220D01*
X26836281Y15633127D01*
X26836280Y15633127D01*
X26815196Y15500000D01*
X26836280Y15366874D01*
X26897471Y15246781D01*
X26923826Y15220426D01*
X26945218Y15174550D01*
X26945500Y15168100D01*
X26945500Y4041390D01*
X26928187Y3993824D01*
X26884350Y3968514D01*
X26834500Y3977304D01*
X26814297Y3994445D01*
X26722410Y4106410D01*
X26722409Y4106411D01*
X26562450Y4237685D01*
X26379956Y4335231D01*
X26379955Y4335232D01*
X26379954Y4335232D01*
X26249086Y4374930D01*
X26181935Y4395300D01*
X25976000Y4415583D01*
X25770064Y4395300D01*
X25572043Y4335231D01*
X25389549Y4237685D01*
X25229590Y4106411D01*
X25229589Y4106410D01*
X25137703Y3994445D01*
X25094144Y3968659D01*
X25044201Y3976904D01*
X25011243Y4015323D01*
X25006500Y4041390D01*
X25006500Y7239729D01*
X25008507Y7252196D01*
X25008033Y7252260D01*
X25008951Y7259054D01*
X25006594Y7305725D01*
X25006500Y7309458D01*
X25006500Y7327843D01*
X25006500Y7327844D01*
X25006012Y7330451D01*
X25004847Y7340307D01*
X25003284Y7371261D01*
X24998421Y7382147D01*
X24993250Y7398722D01*
X24991061Y7410433D01*
X24974753Y7436771D01*
X24970104Y7445544D01*
X24957466Y7473840D01*
X24949004Y7482231D01*
X24938194Y7495818D01*
X24931918Y7505953D01*
X24907195Y7524623D01*
X24899688Y7531127D01*
X24322398Y8103512D01*
X24300810Y8149297D01*
X24300500Y8156061D01*
X24300500Y8419100D01*
X24317813Y8466666D01*
X24361650Y8491976D01*
X24411500Y8483186D01*
X24426826Y8471426D01*
X24446780Y8451472D01*
X24566873Y8390282D01*
X24566873Y8390281D01*
X24585075Y8387399D01*
X24700000Y8369196D01*
X24833126Y8390281D01*
X24953220Y8451472D01*
X25048528Y8546780D01*
X25109719Y8666874D01*
X25130804Y8800000D01*
X25109719Y8933126D01*
X25109719Y8933127D01*
X25048528Y9053220D01*
X24953219Y9148529D01*
X24833126Y9209719D01*
X24833126Y9209720D01*
X24700000Y9230804D01*
X24566873Y9209720D01*
X24566873Y9209719D01*
X24446780Y9148529D01*
X24446779Y9148528D01*
X24426826Y9128574D01*
X24380950Y9107182D01*
X24332055Y9120283D01*
X24303021Y9161747D01*
X24300500Y9180900D01*
X24300500Y13200000D01*
X24544196Y13200000D01*
X24565280Y13066874D01*
X24626471Y12946781D01*
X24626472Y12946780D01*
X24721780Y12851472D01*
X24841873Y12790282D01*
X24841873Y12790281D01*
X24860075Y12787399D01*
X24975000Y12769196D01*
X25108126Y12790281D01*
X25228220Y12851472D01*
X25323528Y12946780D01*
X25384719Y13066874D01*
X25405804Y13200000D01*
X25384719Y13333126D01*
X25384719Y13333127D01*
X25323528Y13453220D01*
X25228219Y13548529D01*
X25108126Y13609719D01*
X25108126Y13609720D01*
X24975000Y13630804D01*
X24841873Y13609720D01*
X24841873Y13609719D01*
X24721780Y13548529D01*
X24626471Y13453220D01*
X24565281Y13333127D01*
X24565280Y13333127D01*
X24544196Y13200000D01*
X24300500Y13200000D01*
X24300500Y16568100D01*
X24317813Y16615666D01*
X24322174Y16620426D01*
X24348528Y16646780D01*
X24409719Y16766874D01*
X24430804Y16900000D01*
X24409719Y17033126D01*
X24409719Y17033127D01*
X24348528Y17153220D01*
X24253219Y17248529D01*
X24133126Y17309719D01*
X24133126Y17309720D01*
X24000000Y17330804D01*
X23866873Y17309720D01*
X23866873Y17309719D01*
X23746780Y17248529D01*
X23651471Y17153220D01*
X23590281Y17033127D01*
X23590280Y17033127D01*
X23569196Y16900000D01*
X23590280Y16766874D01*
X23651471Y16646781D01*
X23677826Y16620426D01*
X23699218Y16574550D01*
X23699500Y16568100D01*
X23699500Y8060270D01*
X23697494Y8047799D01*
X23697967Y8047735D01*
X23697048Y8040943D01*
X23699406Y7994277D01*
X23699500Y7990544D01*
X23699500Y7972158D01*
X23699988Y7969544D01*
X23701151Y7959697D01*
X23702715Y7928739D01*
X23707577Y7917854D01*
X23712748Y7901280D01*
X23714937Y7889569D01*
X23731248Y7863226D01*
X23735897Y7854451D01*
X23748532Y7826164D01*
X23748535Y7826159D01*
X23756995Y7817771D01*
X23767807Y7804181D01*
X23774081Y7794048D01*
X23798802Y7775380D01*
X23806310Y7768875D01*
X24355538Y7224314D01*
X24383602Y7196489D01*
X24405190Y7150704D01*
X24405500Y7143940D01*
X24405500Y6581390D01*
X24388187Y6533824D01*
X24344350Y6508514D01*
X24294500Y6517304D01*
X24274297Y6534445D01*
X24182410Y6646410D01*
X24182409Y6646411D01*
X24022450Y6777685D01*
X23839956Y6875231D01*
X23839955Y6875232D01*
X23839954Y6875232D01*
X23713882Y6913475D01*
X23641935Y6935300D01*
X23436000Y6955583D01*
X23230064Y6935300D01*
X23057984Y6883100D01*
X23032050Y6875233D01*
X23032043Y6875231D01*
X22849549Y6777685D01*
X22689590Y6646411D01*
X22689589Y6646410D01*
X22558315Y6486451D01*
X22460769Y6303957D01*
X22400700Y6105936D01*
X22400700Y6105934D01*
X22380417Y5900000D01*
X22400700Y5694066D01*
X22460768Y5496046D01*
X22558315Y5313550D01*
X22689590Y5153590D01*
X22849550Y5022315D01*
X23032046Y4924768D01*
X23230066Y4864700D01*
X23436000Y4844417D01*
X23641934Y4864700D01*
X23839954Y4924768D01*
X24022450Y5022315D01*
X24182410Y5153590D01*
X24274298Y5265557D01*
X24317855Y5291342D01*
X24367798Y5283097D01*
X24400757Y5244678D01*
X24405500Y5218611D01*
X24405500Y4041390D01*
X24388187Y3993824D01*
X24344350Y3968514D01*
X24294500Y3977304D01*
X24274297Y3994445D01*
X24182410Y4106410D01*
X24182409Y4106411D01*
X24022450Y4237685D01*
X23839956Y4335231D01*
X23839955Y4335232D01*
X23839954Y4335232D01*
X23709086Y4374930D01*
X23641935Y4395300D01*
X23436000Y4415583D01*
X23230064Y4395300D01*
X23032043Y4335231D01*
X22849549Y4237685D01*
X22689590Y4106411D01*
X22689589Y4106410D01*
X22558315Y3946451D01*
X22460769Y3763957D01*
X22400700Y3565936D01*
X22400700Y3565934D01*
X22380417Y3360000D01*
X19411583Y3360000D01*
X19391300Y3565934D01*
X19331232Y3763954D01*
X19233685Y3946450D01*
X19102410Y4106410D01*
X18942450Y4237685D01*
X18759954Y4335232D01*
X18629086Y4374930D01*
X18561935Y4395300D01*
X18356000Y4415583D01*
X18150064Y4395300D01*
X17952043Y4335231D01*
X17769549Y4237685D01*
X17609590Y4106411D01*
X17609589Y4106410D01*
X17478315Y3946451D01*
X17380769Y3763957D01*
X17320700Y3565936D01*
X17320700Y3565934D01*
X17300417Y3360000D01*
X14331583Y3360000D01*
X14311300Y3565934D01*
X14251232Y3763954D01*
X14153685Y3946450D01*
X14022410Y4106410D01*
X13862450Y4237685D01*
X13679954Y4335232D01*
X13549086Y4374930D01*
X13481935Y4395300D01*
X13276000Y4415583D01*
X13070064Y4395300D01*
X12872043Y4335231D01*
X12689549Y4237685D01*
X12529590Y4106411D01*
X12529589Y4106410D01*
X12398315Y3946451D01*
X12300769Y3763957D01*
X12240700Y3565936D01*
X12240700Y3565934D01*
X12220417Y3360000D01*
X11791583Y3360000D01*
X11771300Y3565934D01*
X11711232Y3763954D01*
X11613685Y3946450D01*
X11482410Y4106410D01*
X11322450Y4237685D01*
X11139954Y4335232D01*
X11009086Y4374930D01*
X10941935Y4395300D01*
X10736000Y4415583D01*
X10530064Y4395300D01*
X10332043Y4335231D01*
X10149549Y4237685D01*
X9989590Y4106411D01*
X9989589Y4106410D01*
X9858315Y3946451D01*
X9760769Y3763957D01*
X9700700Y3565936D01*
X9700700Y3565934D01*
X9680417Y3360000D01*
X9251583Y3360000D01*
X9231300Y3565934D01*
X9171232Y3763954D01*
X9073685Y3946450D01*
X8942410Y4106410D01*
X8782450Y4237685D01*
X8599954Y4335232D01*
X8469086Y4374930D01*
X8401935Y4395300D01*
X8196000Y4415583D01*
X7990064Y4395300D01*
X7792043Y4335231D01*
X7609549Y4237685D01*
X7449590Y4106411D01*
X7449589Y4106410D01*
X7318315Y3946451D01*
X7220769Y3763957D01*
X7160700Y3565936D01*
X7160700Y3565934D01*
X7140417Y3360000D01*
X4345915Y3360000D01*
X4482956Y3477044D01*
X4649123Y3671601D01*
X4782809Y3889757D01*
X4880722Y4126140D01*
X4940452Y4374930D01*
X4960526Y4630000D01*
X4940452Y4885070D01*
X4880722Y5133860D01*
X4782809Y5370243D01*
X4649123Y5588399D01*
X4482956Y5782956D01*
X4482953Y5782959D01*
X4408628Y5846438D01*
X4345915Y5900000D01*
X9680417Y5900000D01*
X9700700Y5694066D01*
X9760768Y5496046D01*
X9858315Y5313550D01*
X9989590Y5153590D01*
X10149550Y5022315D01*
X10332046Y4924768D01*
X10530066Y4864700D01*
X10736000Y4844417D01*
X10941934Y4864700D01*
X11139954Y4924768D01*
X11322450Y5022315D01*
X11482410Y5153590D01*
X11613685Y5313550D01*
X11711232Y5496046D01*
X11771300Y5694066D01*
X11791583Y5900000D01*
X12220417Y5900000D01*
X12240700Y5694066D01*
X12300768Y5496046D01*
X12398315Y5313550D01*
X12529590Y5153590D01*
X12689550Y5022315D01*
X12872046Y4924768D01*
X13070066Y4864700D01*
X13276000Y4844417D01*
X13481934Y4864700D01*
X13679954Y4924768D01*
X13862450Y5022315D01*
X14022410Y5153590D01*
X14153685Y5313550D01*
X14251232Y5496046D01*
X14311300Y5694066D01*
X14331583Y5900000D01*
X14760417Y5900000D01*
X14780700Y5694066D01*
X14840768Y5496046D01*
X14938315Y5313550D01*
X15069590Y5153590D01*
X15229550Y5022315D01*
X15412046Y4924768D01*
X15610066Y4864700D01*
X15816000Y4844417D01*
X16021934Y4864700D01*
X16219954Y4924768D01*
X16402450Y5022315D01*
X16562410Y5153590D01*
X16693685Y5313550D01*
X16791232Y5496046D01*
X16851300Y5694066D01*
X16871583Y5900000D01*
X17300417Y5900000D01*
X17320700Y5694066D01*
X17380768Y5496046D01*
X17478315Y5313550D01*
X17609590Y5153590D01*
X17769550Y5022315D01*
X17952046Y4924768D01*
X18150066Y4864700D01*
X18356000Y4844417D01*
X18561934Y4864700D01*
X18759954Y4924768D01*
X18942450Y5022315D01*
X19102410Y5153590D01*
X19233685Y5313550D01*
X19331232Y5496046D01*
X19391300Y5694066D01*
X19411583Y5900000D01*
X19840417Y5900000D01*
X19860700Y5694066D01*
X19920768Y5496046D01*
X20018315Y5313550D01*
X20149590Y5153590D01*
X20309550Y5022315D01*
X20492046Y4924768D01*
X20690066Y4864700D01*
X20896000Y4844417D01*
X21101934Y4864700D01*
X21299954Y4924768D01*
X21482450Y5022315D01*
X21642410Y5153590D01*
X21773685Y5313550D01*
X21871232Y5496046D01*
X21931300Y5694066D01*
X21951583Y5900000D01*
X21931300Y6105934D01*
X21871232Y6303954D01*
X21773685Y6486450D01*
X21642410Y6646410D01*
X21482450Y6777685D01*
X21299954Y6875232D01*
X21173882Y6913475D01*
X21101935Y6935300D01*
X20896000Y6955583D01*
X20690064Y6935300D01*
X20517984Y6883100D01*
X20492050Y6875233D01*
X20492043Y6875231D01*
X20309549Y6777685D01*
X20149590Y6646411D01*
X20149589Y6646410D01*
X20018315Y6486451D01*
X19920769Y6303957D01*
X19860700Y6105936D01*
X19860700Y6105934D01*
X19840417Y5900000D01*
X19411583Y5900000D01*
X19391300Y6105934D01*
X19331232Y6303954D01*
X19233685Y6486450D01*
X19102410Y6646410D01*
X18942450Y6777685D01*
X18759954Y6875232D01*
X18633882Y6913475D01*
X18561935Y6935300D01*
X18356000Y6955583D01*
X18150064Y6935300D01*
X17977984Y6883100D01*
X17952050Y6875233D01*
X17952043Y6875231D01*
X17769549Y6777685D01*
X17609590Y6646411D01*
X17609589Y6646410D01*
X17478315Y6486451D01*
X17380769Y6303957D01*
X17320700Y6105936D01*
X17320700Y6105934D01*
X17300417Y5900000D01*
X16871583Y5900000D01*
X16851300Y6105934D01*
X16791232Y6303954D01*
X16693685Y6486450D01*
X16562410Y6646410D01*
X16402450Y6777685D01*
X16219954Y6875232D01*
X16093882Y6913475D01*
X16021935Y6935300D01*
X15816000Y6955583D01*
X15610064Y6935300D01*
X15437984Y6883100D01*
X15412050Y6875233D01*
X15412043Y6875231D01*
X15229549Y6777685D01*
X15069590Y6646411D01*
X15069589Y6646410D01*
X14938315Y6486451D01*
X14840769Y6303957D01*
X14780700Y6105936D01*
X14780700Y6105934D01*
X14760417Y5900000D01*
X14331583Y5900000D01*
X14311300Y6105934D01*
X14251232Y6303954D01*
X14153685Y6486450D01*
X14022410Y6646410D01*
X13862450Y6777685D01*
X13679954Y6875232D01*
X13553882Y6913475D01*
X13481935Y6935300D01*
X13276000Y6955583D01*
X13070064Y6935300D01*
X12897984Y6883100D01*
X12872050Y6875233D01*
X12872043Y6875231D01*
X12689549Y6777685D01*
X12529590Y6646411D01*
X12529589Y6646410D01*
X12398315Y6486451D01*
X12300769Y6303957D01*
X12240700Y6105936D01*
X12240700Y6105934D01*
X12220417Y5900000D01*
X11791583Y5900000D01*
X11771300Y6105934D01*
X11711232Y6303954D01*
X11613685Y6486450D01*
X11482410Y6646410D01*
X11322450Y6777685D01*
X11139954Y6875232D01*
X11013882Y6913475D01*
X10941935Y6935300D01*
X10736000Y6955583D01*
X10530064Y6935300D01*
X10357984Y6883100D01*
X10332050Y6875233D01*
X10332043Y6875231D01*
X10149549Y6777685D01*
X9989590Y6646411D01*
X9989589Y6646410D01*
X9858315Y6486451D01*
X9760769Y6303957D01*
X9700700Y6105936D01*
X9700700Y6105934D01*
X9680417Y5900000D01*
X4345915Y5900000D01*
X4288399Y5949123D01*
X4288396Y5949125D01*
X4070252Y6082804D01*
X4070245Y6082808D01*
X3833855Y6180724D01*
X3585071Y6240452D01*
X3393863Y6255500D01*
X3266137Y6255500D01*
X3074928Y6240452D01*
X2826144Y6180724D01*
X2589754Y6082808D01*
X2589747Y6082804D01*
X2371603Y5949125D01*
X2371602Y5949124D01*
X2177046Y5782959D01*
X2177041Y5782954D01*
X2010876Y5588398D01*
X2010875Y5588397D01*
X1877196Y5370253D01*
X1877192Y5370246D01*
X1779276Y5133856D01*
X1719548Y4885072D01*
X1699474Y4630000D01*
X500500Y4630000D01*
X500500Y15200000D01*
X21644196Y15200000D01*
X21665280Y15066874D01*
X21726471Y14946781D01*
X21726472Y14946780D01*
X21821780Y14851472D01*
X21941873Y14790282D01*
X21941873Y14790281D01*
X21960075Y14787399D01*
X22075000Y14769196D01*
X22208126Y14790281D01*
X22328220Y14851472D01*
X22423528Y14946780D01*
X22484719Y15066874D01*
X22505804Y15200000D01*
X22484719Y15333126D01*
X22484719Y15333127D01*
X22423528Y15453220D01*
X22328219Y15548529D01*
X22208126Y15609719D01*
X22208126Y15609720D01*
X22075000Y15630804D01*
X21941873Y15609720D01*
X21941873Y15609719D01*
X21821780Y15548529D01*
X21726471Y15453220D01*
X21665281Y15333127D01*
X21665280Y15333127D01*
X21644196Y15200000D01*
X500500Y15200000D01*
X500500Y18725000D01*
X19369196Y18725000D01*
X19390280Y18591874D01*
X19451471Y18471781D01*
X19451472Y18471780D01*
X19546780Y18376472D01*
X19666873Y18315282D01*
X19666873Y18315281D01*
X19685075Y18312399D01*
X19800000Y18294196D01*
X19933126Y18315281D01*
X20053220Y18376472D01*
X20148528Y18471780D01*
X20209719Y18591874D01*
X20230804Y18725000D01*
X20209719Y18858126D01*
X20209719Y18858127D01*
X20148528Y18978220D01*
X20053219Y19073529D01*
X19933126Y19134719D01*
X19933126Y19134720D01*
X19800000Y19155804D01*
X19666873Y19134720D01*
X19666873Y19134719D01*
X19546780Y19073529D01*
X19451471Y18978220D01*
X19390281Y18858127D01*
X19390280Y18858127D01*
X19369196Y18725000D01*
X500500Y18725000D01*
X500500Y19300000D01*
X14619196Y19300000D01*
X14640280Y19166874D01*
X14687843Y19073528D01*
X14701472Y19046780D01*
X14796780Y18951472D01*
X14916873Y18890282D01*
X14916873Y18890281D01*
X14935075Y18887399D01*
X15050000Y18869196D01*
X15183126Y18890281D01*
X15303220Y18951472D01*
X15398528Y19046780D01*
X15459719Y19166874D01*
X15480804Y19300000D01*
X15459719Y19433126D01*
X15459719Y19433127D01*
X15398528Y19553220D01*
X15303219Y19648529D01*
X15183126Y19709719D01*
X15183126Y19709720D01*
X15050000Y19730804D01*
X14916873Y19709720D01*
X14916873Y19709719D01*
X14796780Y19648529D01*
X14701471Y19553220D01*
X14640281Y19433127D01*
X14640280Y19433127D01*
X14619196Y19300000D01*
X500500Y19300000D01*
X500500Y21250000D01*
X32669196Y21250000D01*
X32690280Y21116874D01*
X32751471Y20996781D01*
X32752826Y20995426D01*
X32753489Y20994003D01*
X32754898Y20992064D01*
X32754521Y20991791D01*
X32774218Y20949550D01*
X32774500Y20943100D01*
X32774500Y11942605D01*
X32782177Y11921511D01*
X32785514Y11909056D01*
X32789411Y11886957D01*
X32800631Y11867523D01*
X32806080Y11855836D01*
X32813758Y11834741D01*
X32813759Y11834740D01*
X32828183Y11817551D01*
X32835579Y11806990D01*
X32846806Y11787545D01*
X32846807Y11787544D01*
X32846808Y11787543D01*
X32864001Y11773115D01*
X32873120Y11763996D01*
X32887541Y11746809D01*
X32887543Y11746808D01*
X32887545Y11746806D01*
X32906985Y11735583D01*
X32917539Y11728193D01*
X32934739Y11713760D01*
X32955835Y11706082D01*
X32967523Y11700631D01*
X32986951Y11689414D01*
X32986952Y11689414D01*
X32986955Y11689412D01*
X33009049Y11685517D01*
X33021513Y11682178D01*
X33042606Y11674500D01*
X33071525Y11674500D01*
X39693100Y11674500D01*
X39740666Y11657187D01*
X39745426Y11652826D01*
X39746780Y11651472D01*
X39866874Y11590281D01*
X39891903Y11586317D01*
X39936175Y11561777D01*
X39937811Y11559828D01*
X40873984Y10405011D01*
X40890500Y10358412D01*
X40890500Y6953913D01*
X40873187Y6906347D01*
X40837982Y6883100D01*
X40812047Y6875233D01*
X40629549Y6777685D01*
X40469590Y6646411D01*
X40469589Y6646410D01*
X40338315Y6486451D01*
X40240769Y6303957D01*
X40180700Y6105936D01*
X40180700Y6105934D01*
X40160417Y5900000D01*
X40180700Y5694066D01*
X40240768Y5496046D01*
X40338315Y5313550D01*
X40469590Y5153590D01*
X40629550Y5022315D01*
X40812046Y4924768D01*
X41010066Y4864700D01*
X41216000Y4844417D01*
X41421934Y4864700D01*
X41619954Y4924768D01*
X41802450Y5022315D01*
X41962410Y5153590D01*
X42093685Y5313550D01*
X42191232Y5496046D01*
X42251300Y5694066D01*
X42271583Y5900000D01*
X42700417Y5900000D01*
X42720700Y5694066D01*
X42780768Y5496046D01*
X42878315Y5313550D01*
X43009590Y5153590D01*
X43169550Y5022315D01*
X43352046Y4924768D01*
X43550066Y4864700D01*
X43756000Y4844417D01*
X43961934Y4864700D01*
X44159954Y4924768D01*
X44342450Y5022315D01*
X44502410Y5153590D01*
X44633685Y5313550D01*
X44731232Y5496046D01*
X44791300Y5694066D01*
X44811583Y5900000D01*
X47780417Y5900000D01*
X47800700Y5694066D01*
X47860768Y5496046D01*
X47958315Y5313550D01*
X48089590Y5153590D01*
X48249550Y5022315D01*
X48432046Y4924768D01*
X48630066Y4864700D01*
X48836000Y4844417D01*
X49041934Y4864700D01*
X49239954Y4924768D01*
X49422450Y5022315D01*
X49582410Y5153590D01*
X49713685Y5313550D01*
X49811232Y5496046D01*
X49871300Y5694066D01*
X49891583Y5900000D01*
X50320417Y5900000D01*
X50340700Y5694066D01*
X50400768Y5496046D01*
X50498315Y5313550D01*
X50629590Y5153590D01*
X50789550Y5022315D01*
X50972046Y4924768D01*
X51170066Y4864700D01*
X51376000Y4844417D01*
X51581934Y4864700D01*
X51779954Y4924768D01*
X51962450Y5022315D01*
X52122410Y5153590D01*
X52253685Y5313550D01*
X52351232Y5496046D01*
X52411300Y5694066D01*
X52431583Y5900000D01*
X52860417Y5900000D01*
X52880700Y5694066D01*
X52940768Y5496046D01*
X53038315Y5313550D01*
X53169590Y5153590D01*
X53329550Y5022315D01*
X53512046Y4924768D01*
X53710066Y4864700D01*
X53916000Y4844417D01*
X54121934Y4864700D01*
X54319954Y4924768D01*
X54502450Y5022315D01*
X54512124Y5030254D01*
X55405500Y5030254D01*
X55417133Y4971768D01*
X55426991Y4957015D01*
X55461448Y4905448D01*
X55505560Y4875973D01*
X55527767Y4861134D01*
X55527768Y4861134D01*
X55527769Y4861133D01*
X55586252Y4849500D01*
X55586254Y4849500D01*
X57325746Y4849500D01*
X57325748Y4849500D01*
X57384231Y4861133D01*
X57450552Y4905448D01*
X57494867Y4971769D01*
X57506500Y5030252D01*
X57506500Y6769748D01*
X57494867Y6828231D01*
X57450552Y6894552D01*
X57411147Y6920882D01*
X57384232Y6938867D01*
X57384233Y6938867D01*
X57348250Y6946024D01*
X57325748Y6950500D01*
X55586252Y6950500D01*
X55563750Y6946024D01*
X55527767Y6938867D01*
X55461449Y6894553D01*
X55461447Y6894551D01*
X55417133Y6828233D01*
X55405500Y6769747D01*
X55405500Y5030254D01*
X54512124Y5030254D01*
X54662410Y5153590D01*
X54793685Y5313550D01*
X54891232Y5496046D01*
X54951300Y5694066D01*
X54971583Y5900000D01*
X54951300Y6105934D01*
X54891232Y6303954D01*
X54793685Y6486450D01*
X54662410Y6646410D01*
X54502450Y6777685D01*
X54319954Y6875232D01*
X54193882Y6913475D01*
X54121935Y6935300D01*
X53916000Y6955583D01*
X53710064Y6935300D01*
X53537984Y6883100D01*
X53512050Y6875233D01*
X53512043Y6875231D01*
X53329549Y6777685D01*
X53169590Y6646411D01*
X53169589Y6646410D01*
X53038315Y6486451D01*
X52940769Y6303957D01*
X52880700Y6105936D01*
X52880700Y6105934D01*
X52860417Y5900000D01*
X52431583Y5900000D01*
X52411300Y6105934D01*
X52351232Y6303954D01*
X52253685Y6486450D01*
X52122410Y6646410D01*
X51962450Y6777685D01*
X51779954Y6875232D01*
X51653882Y6913475D01*
X51581935Y6935300D01*
X51376000Y6955583D01*
X51170064Y6935300D01*
X50997984Y6883100D01*
X50972050Y6875233D01*
X50972043Y6875231D01*
X50789549Y6777685D01*
X50629590Y6646411D01*
X50629589Y6646410D01*
X50498315Y6486451D01*
X50400769Y6303957D01*
X50340700Y6105936D01*
X50340700Y6105934D01*
X50320417Y5900000D01*
X49891583Y5900000D01*
X49871300Y6105934D01*
X49811232Y6303954D01*
X49713685Y6486450D01*
X49582410Y6646410D01*
X49422450Y6777685D01*
X49239954Y6875232D01*
X49113882Y6913475D01*
X49041935Y6935300D01*
X48836000Y6955583D01*
X48630064Y6935300D01*
X48457984Y6883100D01*
X48432050Y6875233D01*
X48432043Y6875231D01*
X48249549Y6777685D01*
X48089590Y6646411D01*
X48089589Y6646410D01*
X47958315Y6486451D01*
X47860769Y6303957D01*
X47800700Y6105936D01*
X47800700Y6105934D01*
X47780417Y5900000D01*
X44811583Y5900000D01*
X44791300Y6105934D01*
X44731232Y6303954D01*
X44633685Y6486450D01*
X44502410Y6646410D01*
X44342450Y6777685D01*
X44159954Y6875232D01*
X44033882Y6913475D01*
X43961935Y6935300D01*
X43756000Y6955583D01*
X43550064Y6935300D01*
X43377984Y6883100D01*
X43352050Y6875233D01*
X43352043Y6875231D01*
X43169549Y6777685D01*
X43009590Y6646411D01*
X43009589Y6646410D01*
X42878315Y6486451D01*
X42780769Y6303957D01*
X42720700Y6105936D01*
X42720700Y6105934D01*
X42700417Y5900000D01*
X42271583Y5900000D01*
X42251300Y6105934D01*
X42191232Y6303954D01*
X42093685Y6486450D01*
X41962410Y6646410D01*
X41802450Y6777685D01*
X41619954Y6875232D01*
X41619953Y6875233D01*
X41594018Y6883100D01*
X41553526Y6913475D01*
X41541500Y6953913D01*
X41541500Y10461641D01*
X41542852Y10475723D01*
X41546474Y10494408D01*
X41542417Y10519935D01*
X41541995Y10525279D01*
X41541781Y10525260D01*
X41541499Y10528482D01*
X41537144Y10553173D01*
X41536936Y10554413D01*
X41528456Y10607771D01*
X41528456Y10607773D01*
X41528454Y10607777D01*
X41528443Y10607810D01*
X41528321Y10608282D01*
X41527766Y10609807D01*
X41527344Y10610997D01*
X41526803Y10612565D01*
X41526602Y10613007D01*
X41526590Y10613040D01*
X41526588Y10613043D01*
X41526588Y10613045D01*
X41499523Y10659922D01*
X41499009Y10660830D01*
X41486784Y10682859D01*
X41486782Y10682862D01*
X41484973Y10685540D01*
X41485153Y10685662D01*
X41482117Y10690070D01*
X41469194Y10712455D01*
X41462575Y10718009D01*
X41454611Y10724692D01*
X41444694Y10734779D01*
X40774274Y11561777D01*
X40446163Y11966519D01*
X40430560Y12001538D01*
X40409719Y12133126D01*
X40348528Y12253220D01*
X40253220Y12348528D01*
X40253219Y12348529D01*
X40133126Y12409719D01*
X40133126Y12409720D01*
X40000000Y12430804D01*
X39866873Y12409720D01*
X39866873Y12409719D01*
X39746780Y12348529D01*
X39746779Y12348528D01*
X39745426Y12347174D01*
X39744002Y12346511D01*
X39742064Y12345102D01*
X39741790Y12345479D01*
X39699550Y12325782D01*
X39693100Y12325500D01*
X33499500Y12325500D01*
X33451934Y12342813D01*
X33426624Y12386650D01*
X33425500Y12399500D01*
X33425500Y14100000D01*
X35869196Y14100000D01*
X35890280Y13966874D01*
X35951471Y13846781D01*
X35951472Y13846780D01*
X36046780Y13751472D01*
X36166873Y13690282D01*
X36166873Y13690281D01*
X36185075Y13687399D01*
X36300000Y13669196D01*
X36433126Y13690281D01*
X36553220Y13751472D01*
X36648528Y13846780D01*
X36709719Y13966874D01*
X36730804Y14100000D01*
X36709719Y14233126D01*
X36709719Y14233127D01*
X36648528Y14353220D01*
X36553219Y14448529D01*
X36433126Y14509719D01*
X36433126Y14509720D01*
X36300000Y14530804D01*
X36166873Y14509720D01*
X36166873Y14509719D01*
X36046780Y14448529D01*
X35951471Y14353220D01*
X35890281Y14233127D01*
X35890280Y14233127D01*
X35869196Y14100000D01*
X33425500Y14100000D01*
X33425500Y20943100D01*
X33442813Y20990666D01*
X33447174Y20995426D01*
X33448528Y20996780D01*
X33509719Y21116874D01*
X33530804Y21250000D01*
X33509719Y21383126D01*
X33509719Y21383127D01*
X33448528Y21503220D01*
X33353219Y21598529D01*
X33233126Y21659719D01*
X33233126Y21659720D01*
X33100000Y21680804D01*
X32966873Y21659720D01*
X32966873Y21659719D01*
X32846780Y21598529D01*
X32751471Y21503220D01*
X32690281Y21383127D01*
X32690280Y21383127D01*
X32669196Y21250000D01*
X500500Y21250000D01*
X500500Y21900000D01*
X39269196Y21900000D01*
X39290280Y21766874D01*
X39344879Y21659719D01*
X39351472Y21646780D01*
X39446780Y21551472D01*
X39566873Y21490282D01*
X39566873Y21490281D01*
X39585075Y21487399D01*
X39700000Y21469196D01*
X39833126Y21490281D01*
X39953220Y21551472D01*
X40048528Y21646780D01*
X40109719Y21766874D01*
X40130804Y21900000D01*
X40109719Y22033126D01*
X40109719Y22033127D01*
X40048528Y22153220D01*
X39953219Y22248529D01*
X39833126Y22309719D01*
X39833126Y22309720D01*
X39700000Y22330804D01*
X39566873Y22309720D01*
X39566873Y22309719D01*
X39446780Y22248529D01*
X39351471Y22153220D01*
X39290281Y22033127D01*
X39290280Y22033127D01*
X39269196Y21900000D01*
X500500Y21900000D01*
X500500Y23950000D01*
X26319196Y23950000D01*
X26340280Y23816874D01*
X26401471Y23696781D01*
X26401472Y23696780D01*
X26496780Y23601472D01*
X26616873Y23540282D01*
X26616873Y23540281D01*
X26635075Y23537399D01*
X26750000Y23519196D01*
X26883126Y23540281D01*
X27003220Y23601472D01*
X27004574Y23602826D01*
X27005997Y23603490D01*
X27007936Y23604898D01*
X27008209Y23604522D01*
X27050450Y23624218D01*
X27056900Y23624500D01*
X29034520Y23624500D01*
X29082086Y23607187D01*
X29086846Y23602826D01*
X29307749Y23381924D01*
X29328512Y23341175D01*
X29340281Y23266874D01*
X29401472Y23146780D01*
X29496780Y23051472D01*
X29616873Y22990282D01*
X29616873Y22990281D01*
X29635075Y22987399D01*
X29750000Y22969196D01*
X29883126Y22990281D01*
X30003220Y23051472D01*
X30098528Y23146780D01*
X30159719Y23266874D01*
X30180804Y23400000D01*
X30159719Y23533126D01*
X30159719Y23533127D01*
X30098528Y23653220D01*
X30003219Y23748529D01*
X29883128Y23809718D01*
X29883127Y23809719D01*
X29883126Y23809719D01*
X29883124Y23809720D01*
X29883122Y23809720D01*
X29808825Y23821488D01*
X29768076Y23842251D01*
X29442498Y24167827D01*
X29438137Y24172586D01*
X29436359Y24174704D01*
X29412454Y24203194D01*
X29377854Y24223171D01*
X29372413Y24226638D01*
X29339684Y24249554D01*
X29339681Y24249555D01*
X29335046Y24250797D01*
X29317199Y24258189D01*
X29310747Y24261914D01*
X29278210Y24300690D01*
X29278210Y24351309D01*
X29310747Y24390086D01*
X29347747Y24400000D01*
X30100000Y24400000D01*
X30100000Y28800000D01*
X26900000Y28800000D01*
X26900000Y24443690D01*
X26882687Y24396124D01*
X26838850Y24370814D01*
X26814425Y24370601D01*
X26750001Y24380804D01*
X26750000Y24380804D01*
X26616873Y24359720D01*
X26616873Y24359719D01*
X26496780Y24298529D01*
X26401471Y24203220D01*
X26340281Y24083127D01*
X26340280Y24083127D01*
X26319196Y23950000D01*
X500500Y23950000D01*
X500500Y25450000D01*
X23019196Y25450000D01*
X23040280Y25316874D01*
X23101471Y25196781D01*
X23101472Y25196780D01*
X23196780Y25101472D01*
X23316873Y25040282D01*
X23316873Y25040281D01*
X23335075Y25037399D01*
X23450000Y25019196D01*
X23583126Y25040281D01*
X23703220Y25101472D01*
X23798528Y25196780D01*
X23859719Y25316874D01*
X23880804Y25450000D01*
X23859719Y25583126D01*
X23859719Y25583127D01*
X23798528Y25703220D01*
X23703219Y25798529D01*
X23583126Y25859719D01*
X23583126Y25859720D01*
X23450000Y25880804D01*
X23316873Y25859720D01*
X23316873Y25859719D01*
X23196780Y25798529D01*
X23101471Y25703220D01*
X23040281Y25583127D01*
X23040280Y25583127D01*
X23019196Y25450000D01*
X500500Y25450000D01*
X500500Y41599997D01*
X21144357Y41599997D01*
X21164890Y41352186D01*
X21225939Y41111113D01*
X21325827Y40883393D01*
X21461836Y40675215D01*
X21630256Y40492262D01*
X21826491Y40339526D01*
X22045190Y40221172D01*
X22280386Y40140429D01*
X22525665Y40099500D01*
X22774335Y40099500D01*
X23019614Y40140429D01*
X23254810Y40221172D01*
X23473509Y40339526D01*
X23669744Y40492262D01*
X23838164Y40675215D01*
X23858051Y40705655D01*
X23898559Y40736006D01*
X23949101Y40733218D01*
X23981948Y40705655D01*
X24001836Y40675215D01*
X24170256Y40492262D01*
X24366491Y40339526D01*
X24585190Y40221172D01*
X24820386Y40140429D01*
X25065665Y40099500D01*
X25314335Y40099500D01*
X25559614Y40140429D01*
X25794810Y40221172D01*
X26013509Y40339526D01*
X26209744Y40492262D01*
X26378164Y40675215D01*
X26398051Y40705655D01*
X26438559Y40736006D01*
X26489101Y40733218D01*
X26521948Y40705655D01*
X26541836Y40675215D01*
X26710256Y40492262D01*
X26906491Y40339526D01*
X27125190Y40221172D01*
X27360386Y40140429D01*
X27605665Y40099500D01*
X27854335Y40099500D01*
X28099614Y40140429D01*
X28334810Y40221172D01*
X28553509Y40339526D01*
X28749744Y40492262D01*
X28918164Y40675215D01*
X28938051Y40705655D01*
X28978559Y40736006D01*
X29029101Y40733218D01*
X29061948Y40705655D01*
X29081836Y40675215D01*
X29250256Y40492262D01*
X29446491Y40339526D01*
X29665190Y40221172D01*
X29900386Y40140429D01*
X30145665Y40099500D01*
X30394335Y40099500D01*
X30639614Y40140429D01*
X30874810Y40221172D01*
X31093509Y40339526D01*
X31289744Y40492262D01*
X31458164Y40675215D01*
X31594173Y40883393D01*
X31694063Y41111119D01*
X31755108Y41352179D01*
X31775643Y41600000D01*
X31775643Y41600004D01*
X31755109Y41847815D01*
X31755108Y41847818D01*
X31755108Y41847821D01*
X31694063Y42088881D01*
X31594173Y42316607D01*
X31458164Y42524785D01*
X31289744Y42707738D01*
X31257161Y42733098D01*
X31093513Y42860472D01*
X30934279Y42946646D01*
X30900686Y42984512D01*
X30895500Y43011727D01*
X30895500Y45105500D01*
X30912813Y45153066D01*
X30956650Y45178376D01*
X30969500Y45179500D01*
X31374258Y45179500D01*
X31374266Y45179500D01*
X31404699Y45182354D01*
X31532882Y45227207D01*
X31642150Y45307850D01*
X31722793Y45417118D01*
X31767646Y45545301D01*
X31770500Y45575734D01*
X31770500Y46200000D01*
X61599474Y46200000D01*
X61619548Y45944929D01*
X61679276Y45696145D01*
X61679277Y45696141D01*
X61679278Y45696140D01*
X61767520Y45483104D01*
X61777192Y45459755D01*
X61777196Y45459748D01*
X61870281Y45307847D01*
X61910877Y45241601D01*
X61923170Y45227208D01*
X62051421Y45077044D01*
X62077044Y45047044D01*
X62271601Y44880877D01*
X62489757Y44747191D01*
X62726140Y44649278D01*
X62974930Y44589548D01*
X63166137Y44574500D01*
X63293863Y44574500D01*
X63485070Y44589548D01*
X63733860Y44649278D01*
X63970243Y44747191D01*
X64188399Y44880877D01*
X64382956Y45047044D01*
X64549123Y45241601D01*
X64682809Y45459757D01*
X64780722Y45696140D01*
X64840452Y45944930D01*
X64860526Y46200000D01*
X64840452Y46455070D01*
X64780722Y46703860D01*
X64682809Y46940243D01*
X64549123Y47158399D01*
X64382956Y47352956D01*
X64382953Y47352959D01*
X64234761Y47479526D01*
X64188399Y47519123D01*
X64143259Y47546785D01*
X63970252Y47652804D01*
X63970245Y47652808D01*
X63897828Y47682804D01*
X63733860Y47750722D01*
X63733859Y47750723D01*
X63733855Y47750724D01*
X63485071Y47810452D01*
X63293863Y47825500D01*
X63166137Y47825500D01*
X62974928Y47810452D01*
X62726144Y47750724D01*
X62489754Y47652808D01*
X62489747Y47652804D01*
X62271603Y47519125D01*
X62271602Y47519124D01*
X62077046Y47352959D01*
X62077041Y47352954D01*
X61910876Y47158398D01*
X61910875Y47158397D01*
X61777196Y46940253D01*
X61777192Y46940246D01*
X61679276Y46703856D01*
X61619548Y46455072D01*
X61599474Y46200000D01*
X31770500Y46200000D01*
X31770500Y47784266D01*
X31767646Y47814699D01*
X31722793Y47942882D01*
X31686700Y47991787D01*
X31642153Y48052147D01*
X31642146Y48052154D01*
X31532883Y48132793D01*
X31532881Y48132794D01*
X31404704Y48177645D01*
X31404705Y48177645D01*
X31404700Y48177646D01*
X31404699Y48177646D01*
X31374266Y48180500D01*
X29165734Y48180500D01*
X29135301Y48177646D01*
X29135299Y48177646D01*
X29135295Y48177645D01*
X29007118Y48132794D01*
X29007116Y48132793D01*
X28897853Y48052154D01*
X28897846Y48052147D01*
X28817207Y47942884D01*
X28817206Y47942882D01*
X28794117Y47876898D01*
X28762065Y47837719D01*
X28712329Y47828309D01*
X28678819Y47842942D01*
X28598347Y47905575D01*
X28553509Y47940474D01*
X28458691Y47991787D01*
X28334811Y48058828D01*
X28222118Y48097516D01*
X28099614Y48139571D01*
X28099611Y48139572D01*
X28099610Y48139572D01*
X27854337Y48180500D01*
X27854335Y48180500D01*
X27605665Y48180500D01*
X27605662Y48180500D01*
X27360389Y48139572D01*
X27125188Y48058828D01*
X26906498Y47940478D01*
X26906486Y47940471D01*
X26710254Y47787737D01*
X26541835Y47604784D01*
X26521950Y47574347D01*
X26481439Y47543996D01*
X26430897Y47546785D01*
X26398050Y47574347D01*
X26378164Y47604785D01*
X26209744Y47787738D01*
X26013509Y47940474D01*
X25918691Y47991787D01*
X25794811Y48058828D01*
X25682118Y48097516D01*
X25559614Y48139571D01*
X25559611Y48139572D01*
X25559610Y48139572D01*
X25314337Y48180500D01*
X25314335Y48180500D01*
X25065665Y48180500D01*
X25065662Y48180500D01*
X24820389Y48139572D01*
X24585188Y48058828D01*
X24366498Y47940478D01*
X24366486Y47940471D01*
X24170254Y47787737D01*
X24001835Y47604784D01*
X23981950Y47574347D01*
X23941439Y47543996D01*
X23890897Y47546785D01*
X23858050Y47574347D01*
X23838164Y47604785D01*
X23669744Y47787738D01*
X23473509Y47940474D01*
X23378691Y47991787D01*
X23254811Y48058828D01*
X23142118Y48097516D01*
X23019614Y48139571D01*
X23019611Y48139572D01*
X23019610Y48139572D01*
X22774337Y48180500D01*
X22774335Y48180500D01*
X22525665Y48180500D01*
X22525662Y48180500D01*
X22280389Y48139572D01*
X22045188Y48058828D01*
X21826498Y47940478D01*
X21826486Y47940471D01*
X21630254Y47787737D01*
X21461836Y47604786D01*
X21325827Y47396608D01*
X21225939Y47168888D01*
X21225937Y47168883D01*
X21225937Y47168881D01*
X21223282Y47158397D01*
X21164890Y46927815D01*
X21144357Y46680004D01*
X21144357Y46679997D01*
X21164890Y46432186D01*
X21164892Y46432179D01*
X21225655Y46192232D01*
X21225939Y46191113D01*
X21320766Y45974930D01*
X21325827Y45963393D01*
X21461836Y45755215D01*
X21630256Y45572262D01*
X21826491Y45419526D01*
X21985720Y45333356D01*
X22019313Y45295491D01*
X22024500Y45268275D01*
X22024500Y43011727D01*
X22007187Y42964161D01*
X21985721Y42946646D01*
X21826486Y42860472D01*
X21630254Y42707737D01*
X21461836Y42524786D01*
X21325827Y42316608D01*
X21225939Y42088888D01*
X21164890Y41847815D01*
X21144357Y41600004D01*
X21144357Y41599997D01*
X500500Y41599997D01*
X500500Y46187764D01*
X500635Y46192232D01*
X502665Y46225799D01*
X502919Y46230000D01*
X1349474Y46230000D01*
X1369548Y45974929D01*
X1429276Y45726145D01*
X1429277Y45726141D01*
X1429278Y45726140D01*
X1517329Y45513565D01*
X1527192Y45489755D01*
X1527196Y45489748D01*
X1638665Y45307847D01*
X1660877Y45271601D01*
X1754325Y45162187D01*
X1827041Y45077047D01*
X1827046Y45077042D01*
X1862172Y45047042D01*
X2021601Y44910877D01*
X2239757Y44777191D01*
X2476140Y44679278D01*
X2724930Y44619548D01*
X2916137Y44604500D01*
X3043863Y44604500D01*
X3235070Y44619548D01*
X3483860Y44679278D01*
X3720243Y44777191D01*
X3938399Y44910877D01*
X4132956Y45077044D01*
X4299123Y45271601D01*
X4432809Y45489757D01*
X4530722Y45726140D01*
X4590452Y45974930D01*
X4610526Y46230000D01*
X4590452Y46485070D01*
X4530722Y46733860D01*
X4432809Y46970243D01*
X4299123Y47188399D01*
X4158576Y47352959D01*
X4132958Y47382954D01*
X4132953Y47382959D01*
X4019887Y47479526D01*
X3938399Y47549123D01*
X3897237Y47574347D01*
X3720252Y47682804D01*
X3720245Y47682808D01*
X3556281Y47750724D01*
X3483860Y47780722D01*
X3483859Y47780723D01*
X3483855Y47780724D01*
X3235071Y47840452D01*
X3043863Y47855500D01*
X2916137Y47855500D01*
X2724928Y47840452D01*
X2476144Y47780724D01*
X2239754Y47682808D01*
X2239747Y47682804D01*
X2021603Y47549125D01*
X2021602Y47549124D01*
X1827046Y47382959D01*
X1827041Y47382954D01*
X1660876Y47188398D01*
X1660875Y47188397D01*
X1527196Y46970253D01*
X1527192Y46970246D01*
X1429276Y46733856D01*
X1369548Y46485072D01*
X1349474Y46230000D01*
X502919Y46230000D01*
X518454Y46486824D01*
X519528Y46495672D01*
X572328Y46783789D01*
X574458Y46792432D01*
X661597Y47072069D01*
X664754Y47080396D01*
X784971Y47347507D01*
X789115Y47355401D01*
X940636Y47606048D01*
X945712Y47613401D01*
X976586Y47652809D01*
X1126343Y47843961D01*
X1132254Y47850633D01*
X1339367Y48057746D01*
X1346039Y48063657D01*
X1576599Y48244289D01*
X1583953Y48249364D01*
X1630926Y48277760D01*
X1834599Y48400885D01*
X1842493Y48405029D01*
X2109604Y48525246D01*
X2117931Y48528403D01*
X2397568Y48615542D01*
X2406211Y48617672D01*
X2694328Y48670472D01*
X2703176Y48671546D01*
X2997768Y48689366D01*
X3002236Y48689500D01*
X3065892Y48689500D01*
X63154108Y48689500D01*
X63217764Y48689500D01*
X63222231Y48689366D01*
G37*
%TD.AperFunction*%
%TD*%
M02*
