%TF.GenerationSoftware,KiCad,Pcbnew,7.0.11+dfsg-1build4*%
%TF.CreationDate,2026-09-28T13:56:04+09:00*%
%TF.ProjectId,t1s_hat,7431735f-6861-4742-9e6b-696361645f70,rev?*%
%TF.SameCoordinates,Original*%
%TF.FileFunction,Copper,L1,Top*%
%TF.FilePolarity,Positive*%
%FSLAX46Y46*%
G04 Gerber Fmt 4.6, Leading zero omitted, Abs format (unit mm)*
G04 Created by KiCad (PCBNEW 7.0.11+dfsg-1build4) date 2026-09-28 13:56:04*
%MOMM*%
%LPD*%
G01*
G04 APERTURE LIST*
G04 Aperture macros list*
%AMRoundRect*
0 Rectangle with rounded corners*
0 $1 Rounding radius*
0 $2 $3 $4 $5 $6 $7 $8 $9 X,Y pos of 4 corners*
0 Add a 4 corners polygon primitive as box body*
4,1,4,$2,$3,$4,$5,$6,$7,$8,$9,$2,$3,0*
0 Add four circle primitives for the rounded corners*
1,1,$1+$1,$2,$3*
1,1,$1+$1,$4,$5*
1,1,$1+$1,$6,$7*
1,1,$1+$1,$8,$9*
0 Add four rect primitives between the rounded corners*
20,1,$1+$1,$2,$3,$4,$5,0*
20,1,$1+$1,$4,$5,$6,$7,0*
20,1,$1+$1,$6,$7,$8,$9,0*
20,1,$1+$1,$8,$9,$2,$3,0*%
%AMFreePoly0*
4,1,14,0.340806,0.106694,0.394194,0.053306,0.412500,0.009112,0.412500,-0.062500,0.394194,-0.106694,0.350000,-0.125000,-0.350000,-0.125000,-0.394194,-0.106694,-0.412500,-0.062500,-0.412500,0.062500,-0.394194,0.106694,-0.350000,0.125000,0.296612,0.125000,0.340806,0.106694,0.340806,0.106694,$1*%
%AMFreePoly1*
4,1,14,0.394194,0.106694,0.412500,0.062500,0.412500,-0.009112,0.394194,-0.053306,0.340806,-0.106694,0.296612,-0.125000,-0.350000,-0.125000,-0.394194,-0.106694,-0.412500,-0.062500,-0.412500,0.062500,-0.394194,0.106694,-0.350000,0.125000,0.350000,0.125000,0.394194,0.106694,0.394194,0.106694,$1*%
%AMFreePoly2*
4,1,14,0.106694,0.394194,0.125000,0.350000,0.125000,-0.350000,0.106694,-0.394194,0.062500,-0.412500,-0.062500,-0.412500,-0.106694,-0.394194,-0.125000,-0.350000,-0.125000,0.296612,-0.106694,0.340806,-0.053306,0.394194,-0.009112,0.412500,0.062500,0.412500,0.106694,0.394194,0.106694,0.394194,$1*%
%AMFreePoly3*
4,1,14,0.053306,0.394194,0.106694,0.340806,0.125000,0.296612,0.125000,-0.350000,0.106694,-0.394194,0.062500,-0.412500,-0.062500,-0.412500,-0.106694,-0.394194,-0.125000,-0.350000,-0.125000,0.350000,-0.106694,0.394194,-0.062500,0.412500,0.009112,0.412500,0.053306,0.394194,0.053306,0.394194,$1*%
%AMFreePoly4*
4,1,14,0.394194,0.106694,0.412500,0.062500,0.412500,-0.062500,0.394194,-0.106694,0.350000,-0.125000,-0.296612,-0.125000,-0.340806,-0.106694,-0.394194,-0.053306,-0.412500,-0.009112,-0.412500,0.062500,-0.394194,0.106694,-0.350000,0.125000,0.350000,0.125000,0.394194,0.106694,0.394194,0.106694,$1*%
%AMFreePoly5*
4,1,14,0.394194,0.106694,0.412500,0.062500,0.412500,-0.062500,0.394194,-0.106694,0.350000,-0.125000,-0.350000,-0.125000,-0.394194,-0.106694,-0.412500,-0.062500,-0.412500,0.009112,-0.394194,0.053306,-0.340806,0.106694,-0.296612,0.125000,0.350000,0.125000,0.394194,0.106694,0.394194,0.106694,$1*%
%AMFreePoly6*
4,1,14,0.106694,0.394194,0.125000,0.350000,0.125000,-0.296612,0.106694,-0.340806,0.053306,-0.394194,0.009112,-0.412500,-0.062500,-0.412500,-0.106694,-0.394194,-0.125000,-0.350000,-0.125000,0.350000,-0.106694,0.394194,-0.062500,0.412500,0.062500,0.412500,0.106694,0.394194,0.106694,0.394194,$1*%
%AMFreePoly7*
4,1,14,0.106694,0.394194,0.125000,0.350000,0.125000,-0.350000,0.106694,-0.394194,0.062500,-0.412500,-0.009112,-0.412500,-0.053306,-0.394194,-0.106694,-0.340806,-0.125000,-0.296612,-0.125000,0.350000,-0.106694,0.394194,-0.062500,0.412500,0.062500,0.412500,0.106694,0.394194,0.106694,0.394194,$1*%
G04 Aperture macros list end*
%TA.AperFunction,SMDPad,CuDef*%
%ADD10RoundRect,0.225000X0.250000X-0.225000X0.250000X0.225000X-0.250000X0.225000X-0.250000X-0.225000X0*%
%TD*%
%TA.AperFunction,SMDPad,CuDef*%
%ADD11RoundRect,0.200000X0.200000X0.275000X-0.200000X0.275000X-0.200000X-0.275000X0.200000X-0.275000X0*%
%TD*%
%TA.AperFunction,SMDPad,CuDef*%
%ADD12RoundRect,0.250000X0.475000X-0.250000X0.475000X0.250000X-0.475000X0.250000X-0.475000X-0.250000X0*%
%TD*%
%TA.AperFunction,SMDPad,CuDef*%
%ADD13RoundRect,0.250000X-0.312500X-0.625000X0.312500X-0.625000X0.312500X0.625000X-0.312500X0.625000X0*%
%TD*%
%TA.AperFunction,SMDPad,CuDef*%
%ADD14RoundRect,0.120000X0.180000X-0.405000X0.180000X0.405000X-0.180000X0.405000X-0.180000X-0.405000X0*%
%TD*%
%TA.AperFunction,SMDPad,CuDef*%
%ADD15RoundRect,0.218750X-0.218750X-0.256250X0.218750X-0.256250X0.218750X0.256250X-0.218750X0.256250X0*%
%TD*%
%TA.AperFunction,SMDPad,CuDef*%
%ADD16RoundRect,0.080000X-0.120000X-0.170000X0.120000X-0.170000X0.120000X0.170000X-0.120000X0.170000X0*%
%TD*%
%TA.AperFunction,SMDPad,CuDef*%
%ADD17FreePoly0,0.000000*%
%TD*%
%TA.AperFunction,SMDPad,CuDef*%
%ADD18RoundRect,0.062500X-0.350000X-0.062500X0.350000X-0.062500X0.350000X0.062500X-0.350000X0.062500X0*%
%TD*%
%TA.AperFunction,SMDPad,CuDef*%
%ADD19FreePoly1,0.000000*%
%TD*%
%TA.AperFunction,SMDPad,CuDef*%
%ADD20FreePoly2,0.000000*%
%TD*%
%TA.AperFunction,SMDPad,CuDef*%
%ADD21RoundRect,0.062500X-0.062500X-0.350000X0.062500X-0.350000X0.062500X0.350000X-0.062500X0.350000X0*%
%TD*%
%TA.AperFunction,SMDPad,CuDef*%
%ADD22FreePoly3,0.000000*%
%TD*%
%TA.AperFunction,SMDPad,CuDef*%
%ADD23FreePoly4,0.000000*%
%TD*%
%TA.AperFunction,SMDPad,CuDef*%
%ADD24FreePoly5,0.000000*%
%TD*%
%TA.AperFunction,SMDPad,CuDef*%
%ADD25FreePoly6,0.000000*%
%TD*%
%TA.AperFunction,SMDPad,CuDef*%
%ADD26FreePoly7,0.000000*%
%TD*%
%TA.AperFunction,HeatsinkPad*%
%ADD27C,0.500000*%
%TD*%
%TA.AperFunction,HeatsinkPad*%
%ADD28R,3.400000X3.400000*%
%TD*%
%TA.AperFunction,SMDPad,CuDef*%
%ADD29RoundRect,0.200000X-0.200000X-0.275000X0.200000X-0.275000X0.200000X0.275000X-0.200000X0.275000X0*%
%TD*%
%TA.AperFunction,SMDPad,CuDef*%
%ADD30RoundRect,0.250000X-0.250000X-0.475000X0.250000X-0.475000X0.250000X0.475000X-0.250000X0.475000X0*%
%TD*%
%TA.AperFunction,SMDPad,CuDef*%
%ADD31RoundRect,0.218750X-0.256250X0.218750X-0.256250X-0.218750X0.256250X-0.218750X0.256250X0.218750X0*%
%TD*%
%TA.AperFunction,SMDPad,CuDef*%
%ADD32R,1.400000X1.200000*%
%TD*%
%TA.AperFunction,SMDPad,CuDef*%
%ADD33RoundRect,0.250000X0.312500X0.625000X-0.312500X0.625000X-0.312500X-0.625000X0.312500X-0.625000X0*%
%TD*%
%TA.AperFunction,SMDPad,CuDef*%
%ADD34RoundRect,0.225000X-0.225000X-0.250000X0.225000X-0.250000X0.225000X0.250000X-0.225000X0.250000X0*%
%TD*%
%TA.AperFunction,ComponentPad*%
%ADD35R,1.700000X1.700000*%
%TD*%
%TA.AperFunction,ComponentPad*%
%ADD36O,1.700000X1.700000*%
%TD*%
%TA.AperFunction,SMDPad,CuDef*%
%ADD37RoundRect,0.225000X0.225000X0.250000X-0.225000X0.250000X-0.225000X-0.250000X0.225000X-0.250000X0*%
%TD*%
%TA.AperFunction,SMDPad,CuDef*%
%ADD38RoundRect,0.250000X-0.262500X-0.450000X0.262500X-0.450000X0.262500X0.450000X-0.262500X0.450000X0*%
%TD*%
%TA.AperFunction,SMDPad,CuDef*%
%ADD39RoundRect,0.218750X0.218750X0.256250X-0.218750X0.256250X-0.218750X-0.256250X0.218750X-0.256250X0*%
%TD*%
%TA.AperFunction,SMDPad,CuDef*%
%ADD40RoundRect,0.080000X0.120000X0.170000X-0.120000X0.170000X-0.120000X-0.170000X0.120000X-0.170000X0*%
%TD*%
%TA.AperFunction,ComponentPad*%
%ADD41RoundRect,0.250000X0.650000X1.550000X-0.650000X1.550000X-0.650000X-1.550000X0.650000X-1.550000X0*%
%TD*%
%TA.AperFunction,ComponentPad*%
%ADD42O,1.800000X3.600000*%
%TD*%
%TA.AperFunction,SMDPad,CuDef*%
%ADD43RoundRect,0.250000X0.250000X0.475000X-0.250000X0.475000X-0.250000X-0.475000X0.250000X-0.475000X0*%
%TD*%
%TA.AperFunction,SMDPad,CuDef*%
%ADD44RoundRect,0.200000X0.275000X-0.200000X0.275000X0.200000X-0.275000X0.200000X-0.275000X-0.200000X0*%
%TD*%
%TA.AperFunction,ViaPad*%
%ADD45C,0.450000*%
%TD*%
%TA.AperFunction,ViaPad*%
%ADD46C,0.600000*%
%TD*%
%TA.AperFunction,Conductor*%
%ADD47C,0.300000*%
%TD*%
%TA.AperFunction,Conductor*%
%ADD48C,0.250000*%
%TD*%
%TA.AperFunction,Conductor*%
%ADD49C,0.150000*%
%TD*%
%TA.AperFunction,Conductor*%
%ADD50C,0.200000*%
%TD*%
%TA.AperFunction,Conductor*%
%ADD51C,0.450000*%
%TD*%
%TA.AperFunction,Conductor*%
%ADD52C,0.350000*%
%TD*%
G04 APERTURE END LIST*
D10*
%TO.P,C16,1*%
%TO.N,XTI*%
X38150000Y28625000D03*
%TO.P,C16,2*%
%TO.N,GND*%
X38150000Y30175000D03*
%TD*%
D11*
%TO.P,R9,1*%
%TO.N,+3V3*%
X48325000Y21500000D03*
%TO.P,R9,2*%
%TO.N,LED1_A*%
X46675000Y21500000D03*
%TD*%
D12*
%TO.P,C1,1*%
%TO.N,CMC_P*%
X29500000Y29850000D03*
%TO.P,C1,2*%
%TO.N,BUS_P*%
X29500000Y31750000D03*
%TD*%
D11*
%TO.P,R8,1*%
%TO.N,+3V3*%
X48325000Y19000000D03*
%TO.P,R8,2*%
%TO.N,LED0_A*%
X46675000Y19000000D03*
%TD*%
D13*
%TO.P,R2,1*%
%TO.N,BUS_N*%
X23537500Y34200000D03*
%TO.P,R2,2*%
%TO.N,BUS_CT*%
X26462500Y34200000D03*
%TD*%
D14*
%TO.P,L1,1*%
%TO.N,TRXP*%
X29000000Y25075000D03*
%TO.P,L1,2*%
%TO.N,TRXN*%
X28000000Y25075000D03*
%TO.P,L1,3*%
%TO.N,CMC_N*%
X28000000Y28125000D03*
%TO.P,L1,4*%
%TO.N,CMC_P*%
X29000000Y28125000D03*
%TD*%
D15*
%TO.P,FB3,1*%
%TO.N,+3V3*%
X20712500Y18725000D03*
%TO.P,FB3,2*%
%TO.N,VDDP*%
X22287500Y18725000D03*
%TD*%
D16*
%TO.P,MOV1,1*%
%TO.N,BUS_P*%
X37100000Y37000000D03*
%TO.P,MOV1,2*%
%TO.N,GND*%
X37900000Y37000000D03*
%TD*%
D17*
%TO.P,U1,1*%
%TO.N,N/C*%
X27562500Y21750000D03*
D18*
%TO.P,U1,2*%
%TO.N,GND*%
X27562500Y21250000D03*
%TO.P,U1,3*%
X27562500Y20750000D03*
%TO.P,U1,4*%
%TO.N,VDDP*%
X27562500Y20250000D03*
%TO.P,U1,5*%
%TO.N,GND*%
X27562500Y19750000D03*
%TO.P,U1,6*%
%TO.N,N/C*%
X27562500Y19250000D03*
%TO.P,U1,7*%
%TO.N,VDDP*%
X27562500Y18750000D03*
D19*
%TO.P,U1,8*%
%TO.N,RESET_N*%
X27562500Y18250000D03*
D20*
%TO.P,U1,9*%
%TO.N,IRQ_N*%
X28250000Y17562500D03*
D21*
%TO.P,U1,10*%
%TO.N,SPI_MISO*%
X28750000Y17562500D03*
%TO.P,U1,11*%
%TO.N,SPI_CS_N*%
X29250000Y17562500D03*
%TO.P,U1,12*%
%TO.N,SPI_SCLK*%
X29750000Y17562500D03*
%TO.P,U1,13*%
%TO.N,SPI_MOSI*%
X30250000Y17562500D03*
%TO.P,U1,14*%
%TO.N,GND*%
X30750000Y17562500D03*
%TO.P,U1,15*%
%TO.N,N/C*%
X31250000Y17562500D03*
D22*
%TO.P,U1,16*%
%TO.N,GND*%
X31750000Y17562500D03*
D23*
%TO.P,U1,17*%
%TO.N,VDDP_17*%
X32437500Y18250000D03*
D18*
%TO.P,U1,18*%
%TO.N,LED0_K*%
X32437500Y18750000D03*
%TO.P,U1,19*%
%TO.N,LED1_K*%
X32437500Y19250000D03*
%TO.P,U1,20*%
%TO.N,GND*%
X32437500Y19750000D03*
%TO.P,U1,21*%
%TO.N,CCOMP*%
X32437500Y20250000D03*
%TO.P,U1,22*%
%TO.N,GND*%
X32437500Y20750000D03*
%TO.P,U1,23*%
X32437500Y21250000D03*
D24*
%TO.P,U1,24*%
%TO.N,N/C*%
X32437500Y21750000D03*
D25*
%TO.P,U1,25*%
%TO.N,VDDAU*%
X31750000Y22437500D03*
D21*
%TO.P,U1,26*%
%TO.N,RBIAS*%
X31250000Y22437500D03*
%TO.P,U1,27*%
%TO.N,XTI*%
X30750000Y22437500D03*
%TO.P,U1,28*%
%TO.N,XTO*%
X30250000Y22437500D03*
%TO.P,U1,29*%
%TO.N,VDDA*%
X29750000Y22437500D03*
%TO.P,U1,30*%
%TO.N,TRXP*%
X29250000Y22437500D03*
%TO.P,U1,31*%
%TO.N,TRXN*%
X28750000Y22437500D03*
D26*
%TO.P,U1,32*%
%TO.N,GND*%
X28250000Y22437500D03*
D27*
%TO.P,U1,33*%
X28550000Y21450000D03*
X28550000Y20000000D03*
X28550000Y18550000D03*
X30000000Y21450000D03*
X30000000Y20000000D03*
D28*
X30000000Y20000000D03*
D27*
X30000000Y18550000D03*
X31450000Y21450000D03*
X31450000Y20000000D03*
X31450000Y18550000D03*
%TD*%
D15*
%TO.P,D2,1*%
%TO.N,LED1_K*%
X43212500Y21500000D03*
%TO.P,D2,2*%
%TO.N,LED1_A*%
X44787500Y21500000D03*
%TD*%
%TO.P,D1,1*%
%TO.N,LED0_K*%
X43212500Y19000000D03*
%TO.P,D1,2*%
%TO.N,LED0_A*%
X44787500Y19000000D03*
%TD*%
D29*
%TO.P,R5,1*%
%TO.N,+3V3*%
X25595000Y8800000D03*
%TO.P,R5,2*%
%TO.N,SPI_CS_N*%
X27245000Y8800000D03*
%TD*%
D10*
%TO.P,C7,1*%
%TO.N,VDDP*%
X23800000Y18725000D03*
%TO.P,C7,2*%
%TO.N,GND*%
X23800000Y20275000D03*
%TD*%
D30*
%TO.P,C4,1*%
%TO.N,CCOMP*%
X38550000Y20550000D03*
%TO.P,C4,2*%
%TO.N,GND*%
X40450000Y20550000D03*
%TD*%
D31*
%TO.P,FB2,1*%
%TO.N,+3V3*%
X44000000Y30287500D03*
%TO.P,FB2,2*%
%TO.N,VDDAU*%
X44000000Y28712500D03*
%TD*%
D32*
%TO.P,Y1,1*%
%TO.N,XTO*%
X35800000Y25350000D03*
%TO.P,Y1,2*%
%TO.N,GND*%
X38000000Y25350000D03*
%TO.P,Y1,3*%
%TO.N,XTI*%
X38000000Y27050000D03*
%TO.P,Y1,4*%
%TO.N,GND*%
X35800000Y27050000D03*
%TD*%
D12*
%TO.P,C2,1*%
%TO.N,CMC_N*%
X27500000Y29850000D03*
%TO.P,C2,2*%
%TO.N,BUS_N*%
X27500000Y31750000D03*
%TD*%
D33*
%TO.P,R1,1*%
%TO.N,BUS_P*%
X33462500Y34200000D03*
%TO.P,R1,2*%
%TO.N,BUS_CT*%
X30537500Y34200000D03*
%TD*%
D34*
%TO.P,C9,1*%
%TO.N,VDDP_17*%
X33825000Y15700000D03*
%TO.P,C9,2*%
%TO.N,GND*%
X35375000Y15700000D03*
%TD*%
D31*
%TO.P,FB1,1*%
%TO.N,+3V3*%
X33000000Y31187500D03*
%TO.P,FB1,2*%
%TO.N,VDDA*%
X33000000Y29612500D03*
%TD*%
D10*
%TO.P,C8,1*%
%TO.N,VDDP*%
X25400000Y18725000D03*
%TO.P,C8,2*%
%TO.N,GND*%
X25400000Y20275000D03*
%TD*%
D35*
%TO.P,J1,1*%
%TO.N,+3V3*%
X56456000Y5900000D03*
D36*
%TO.P,J1,2*%
%TO.N,N/C*%
X56456000Y3360000D03*
%TO.P,J1,3*%
X53916000Y5900000D03*
%TO.P,J1,4*%
X53916000Y3360000D03*
%TO.P,J1,5*%
X51376000Y5900000D03*
%TO.P,J1,6*%
%TO.N,GND*%
X51376000Y3360000D03*
%TO.P,J1,7*%
%TO.N,N/C*%
X48836000Y5900000D03*
%TO.P,J1,8*%
X48836000Y3360000D03*
%TO.P,J1,9*%
%TO.N,GND*%
X46296000Y5900000D03*
%TO.P,J1,10*%
%TO.N,N/C*%
X46296000Y3360000D03*
%TO.P,J1,11*%
X43756000Y5900000D03*
%TO.P,J1,12*%
X43756000Y3360000D03*
%TO.P,J1,13*%
X41216000Y5900000D03*
%TO.P,J1,14*%
%TO.N,GND*%
X41216000Y3360000D03*
%TO.P,J1,15*%
%TO.N,RESET_N*%
X38676000Y5900000D03*
%TO.P,J1,16*%
%TO.N,IRQ_N*%
X38676000Y3360000D03*
%TO.P,J1,17*%
%TO.N,+3V3*%
X36136000Y5900000D03*
%TO.P,J1,18*%
%TO.N,N/C*%
X36136000Y3360000D03*
%TO.P,J1,19*%
%TO.N,SPI_MOSI*%
X33596000Y5900000D03*
%TO.P,J1,20*%
%TO.N,GND*%
X33596000Y3360000D03*
%TO.P,J1,21*%
%TO.N,SPI_MISO*%
X31056000Y5900000D03*
%TO.P,J1,22*%
%TO.N,N/C*%
X31056000Y3360000D03*
%TO.P,J1,23*%
%TO.N,SPI_SCLK*%
X28516000Y5900000D03*
%TO.P,J1,24*%
%TO.N,SPI_CS_N*%
X28516000Y3360000D03*
%TO.P,J1,25*%
%TO.N,GND*%
X25976000Y5900000D03*
%TO.P,J1,26*%
%TO.N,N/C*%
X25976000Y3360000D03*
%TO.P,J1,27*%
X23436000Y5900000D03*
%TO.P,J1,28*%
X23436000Y3360000D03*
%TO.P,J1,29*%
X20896000Y5900000D03*
%TO.P,J1,30*%
%TO.N,GND*%
X20896000Y3360000D03*
%TO.P,J1,31*%
%TO.N,N/C*%
X18356000Y5900000D03*
%TO.P,J1,32*%
X18356000Y3360000D03*
%TO.P,J1,33*%
X15816000Y5900000D03*
%TO.P,J1,34*%
%TO.N,GND*%
X15816000Y3360000D03*
%TO.P,J1,35*%
%TO.N,N/C*%
X13276000Y5900000D03*
%TO.P,J1,36*%
X13276000Y3360000D03*
%TO.P,J1,37*%
X10736000Y5900000D03*
%TO.P,J1,38*%
X10736000Y3360000D03*
%TO.P,J1,39*%
%TO.N,GND*%
X8196000Y5900000D03*
%TO.P,J1,40*%
%TO.N,N/C*%
X8196000Y3360000D03*
%TD*%
D37*
%TO.P,C12,1*%
%TO.N,VDDA*%
X33175000Y26400000D03*
%TO.P,C12,2*%
%TO.N,GND*%
X31625000Y26400000D03*
%TD*%
%TO.P,C11,1*%
%TO.N,VDDA*%
X33175000Y28000000D03*
%TO.P,C11,2*%
%TO.N,GND*%
X31625000Y28000000D03*
%TD*%
D34*
%TO.P,C13,1*%
%TO.N,VDDAU*%
X46725000Y27600000D03*
%TO.P,C13,2*%
%TO.N,GND*%
X48275000Y27600000D03*
%TD*%
%TO.P,C14,1*%
%TO.N,VDDAU*%
X46725000Y26000000D03*
%TO.P,C14,2*%
%TO.N,GND*%
X48275000Y26000000D03*
%TD*%
D30*
%TO.P,C6,1*%
%TO.N,+3V3*%
X15050000Y18000000D03*
%TO.P,C6,2*%
%TO.N,GND*%
X16950000Y18000000D03*
%TD*%
D29*
%TO.P,R6,1*%
%TO.N,+3V3*%
X24975000Y14200000D03*
%TO.P,R6,2*%
%TO.N,IRQ_N*%
X26625000Y14200000D03*
%TD*%
D38*
%TO.P,R3,1*%
%TO.N,BUS_CT*%
X29987500Y37000000D03*
%TO.P,R3,2*%
%TO.N,GND*%
X31812500Y37000000D03*
%TD*%
D29*
%TO.P,R4,1*%
%TO.N,+3V3*%
X22075000Y16200000D03*
%TO.P,R4,2*%
%TO.N,RESET_N*%
X23725000Y16200000D03*
%TD*%
D39*
%TO.P,FB4,1*%
%TO.N,+3V3*%
X35387500Y14100000D03*
%TO.P,FB4,2*%
%TO.N,VDDP_17*%
X33812500Y14100000D03*
%TD*%
D40*
%TO.P,MOV2,1*%
%TO.N,BUS_N*%
X21400000Y37000000D03*
%TO.P,MOV2,2*%
%TO.N,GND*%
X20600000Y37000000D03*
%TD*%
D34*
%TO.P,C5,1*%
%TO.N,CCOMP*%
X34625000Y21000000D03*
%TO.P,C5,2*%
%TO.N,GND*%
X36175000Y21000000D03*
%TD*%
D10*
%TO.P,C15,1*%
%TO.N,XTO*%
X35650000Y28625000D03*
%TO.P,C15,2*%
%TO.N,GND*%
X35650000Y30175000D03*
%TD*%
D41*
%TO.P,CN1,1*%
%TO.N,BUS_P*%
X30405000Y40650000D03*
D42*
%TO.P,CN1,2*%
%TO.N,BUS_N*%
X26595000Y40650000D03*
%TO.P,CN1,3*%
X22785000Y40650000D03*
%TO.P,CN1,4*%
%TO.N,BUS_P*%
X18975000Y40650000D03*
%TD*%
D34*
%TO.P,C10,1*%
%TO.N,VDDP_17*%
X33825000Y17300000D03*
%TO.P,C10,2*%
%TO.N,GND*%
X35375000Y17300000D03*
%TD*%
D43*
%TO.P,C3,1*%
%TO.N,BUS_CT*%
X27050000Y37000000D03*
%TO.P,C3,2*%
%TO.N,GND*%
X25150000Y37000000D03*
%TD*%
D44*
%TO.P,R7,1*%
%TO.N,RBIAS*%
X41000000Y25975000D03*
%TO.P,R7,2*%
%TO.N,GND*%
X41000000Y27625000D03*
%TD*%
D45*
%TO.N,+3V3*%
X19800000Y18725000D03*
X36300000Y14100000D03*
X49400000Y19000000D03*
X44000000Y31150000D03*
X15050000Y19300000D03*
X33000000Y32050000D03*
X25595000Y7600000D03*
X24975000Y13200000D03*
X22075000Y15200000D03*
X49400000Y21500000D03*
%TO.N,GND*%
X39150000Y25350000D03*
D46*
X49100000Y27600000D03*
X25150000Y35600000D03*
X27600000Y23200000D03*
X17900000Y18000000D03*
D45*
X36350000Y15700000D03*
D46*
X30699999Y26400000D03*
X38150000Y30900000D03*
D45*
X36350000Y17300000D03*
D46*
X18500000Y37000000D03*
X36900000Y20200000D03*
D45*
X31750000Y16700000D03*
D46*
X41000000Y28700000D03*
X30699999Y28000000D03*
D45*
X25400000Y21250000D03*
X23800000Y21250000D03*
D46*
X49100000Y26000000D03*
X35650000Y30900000D03*
D45*
X33300000Y21750000D03*
X41400000Y20550000D03*
D46*
X40100000Y37000000D03*
X31812000Y35600000D03*
D45*
X33300000Y20750000D03*
%TO.N,RESET_N*%
X24000000Y16900000D03*
%TO.N,IRQ_N*%
X27246000Y15500000D03*
%TO.N,SPI_MISO*%
X28350000Y15500000D03*
%TD*%
D47*
%TO.N,+3V3*%
X15050000Y18000000D02*
X15050000Y19300000D01*
D48*
X24975000Y14200000D02*
X24975000Y13200000D01*
D47*
X20712500Y18725000D02*
X19800000Y18725000D01*
D48*
X25595000Y8800000D02*
X25595000Y7600000D01*
D47*
X33000000Y31187500D02*
X33000000Y32050000D01*
X48325000Y21500000D02*
X49400000Y21500000D01*
X48325000Y19000000D02*
X49400000Y19000000D01*
X44000000Y30287500D02*
X44000000Y31150000D01*
D48*
X22075000Y16200000D02*
X22075000Y15200000D01*
D47*
X35387500Y14100000D02*
X36300000Y14100000D01*
%TO.N,GND*%
X37900000Y37000000D02*
X40100000Y37000000D01*
X31812500Y37000000D02*
X31812000Y35600000D01*
X48275000Y26000000D02*
X49100000Y26000000D01*
X40450000Y20550000D02*
X41400000Y20550000D01*
X25400000Y20275000D02*
X25400000Y21250000D01*
D49*
X27562500Y21250000D02*
X28449999Y21250000D01*
X33300000Y21250000D02*
X33300000Y21750000D01*
D47*
X35800000Y27050000D02*
X38000000Y25350000D01*
X28000000Y23200000D02*
X27600000Y23200000D01*
X38150000Y30175000D02*
X38150000Y30900000D01*
D49*
X27562500Y19750000D02*
X28449999Y19750000D01*
D47*
X36175000Y21000000D02*
X36900000Y20200000D01*
X28250000Y22437500D02*
X27600000Y23200000D01*
X35650000Y30175000D02*
X35650000Y30900000D01*
D49*
X32437500Y21250000D02*
X33300000Y21250000D01*
D47*
X35375000Y17300000D02*
X36350000Y17300000D01*
D49*
X32437500Y20750000D02*
X33300000Y20750000D01*
D47*
X20600000Y37000000D02*
X18500000Y37000000D01*
D49*
X27562500Y20750000D02*
X28449999Y20750000D01*
D47*
X31625000Y26400000D02*
X30699999Y26400000D01*
D49*
X36900000Y19750000D02*
X36900000Y20200000D01*
D47*
X16950000Y18000000D02*
X17900000Y18000000D01*
X23800000Y20275000D02*
X23800000Y21250000D01*
X25150000Y37000000D02*
X25150000Y35600000D01*
X38000000Y25350000D02*
X39150000Y25350000D01*
D49*
X32437500Y19750000D02*
X36900000Y19750000D01*
D47*
X31625000Y28000000D02*
X30699999Y28000000D01*
X35375000Y15700000D02*
X36350000Y15700000D01*
D50*
X31750000Y17562500D02*
X31750000Y16700000D01*
D47*
X41000000Y27625000D02*
X41000000Y28700000D01*
X48275000Y27600000D02*
X49100000Y27600000D01*
X28250000Y22437500D02*
X28000000Y23200000D01*
D48*
%TO.N,RESET_N*%
X24000000Y16900000D02*
X23725000Y16200000D01*
X27000000Y17690000D02*
X24600000Y17690000D01*
X27562500Y18250000D02*
X27000000Y17690000D01*
X24600000Y17690000D02*
X24000000Y16900000D01*
%TO.N,IRQ_N*%
X27246000Y15500000D02*
X26625000Y14200000D01*
D49*
X28250000Y17562500D02*
X27900000Y17200000D01*
X27900000Y17200000D02*
X27246000Y15500000D01*
%TO.N,SPI_MOSI*%
X33596000Y7000000D02*
X33596000Y5900000D01*
X30250000Y9000000D02*
X33596000Y7000000D01*
X30250000Y17562500D02*
X30250000Y9000000D01*
%TO.N,SPI_MISO*%
X28750000Y17562500D02*
X28750000Y16900000D01*
X28750000Y16900000D02*
X28350000Y15500000D01*
%TO.N,SPI_SCLK*%
X29750000Y17562500D02*
X29750000Y8000000D01*
X29750000Y8000000D02*
X28515999Y7000000D01*
X28515999Y7000000D02*
X28515999Y5900000D01*
D48*
%TO.N,SPI_CS_N*%
X27246000Y4630000D02*
X28515999Y3360000D01*
D49*
X29250000Y17562500D02*
X29250000Y12000000D01*
X29250000Y12000000D02*
X27246000Y10000000D01*
X27246000Y10000000D02*
X27245000Y8800000D01*
D48*
X27245000Y8800000D02*
X27246000Y4630000D01*
D49*
%TO.N,VDDP*%
X27562500Y20250000D02*
X26700000Y20250000D01*
D47*
X25400000Y18725000D02*
X23800000Y18725000D01*
X23800000Y18725000D02*
X22287500Y18725000D01*
X26700000Y18750000D02*
X25400000Y18725000D01*
X27562500Y18750000D02*
X26700000Y18750000D01*
D49*
X26700000Y20250000D02*
X26700000Y18750000D01*
D47*
%TO.N,VDDP_17*%
X32437500Y18250000D02*
X33824999Y17300000D01*
X33824999Y17300000D02*
X33824999Y15700000D01*
X33824999Y15700000D02*
X33812500Y14100000D01*
D48*
%TO.N,LED0_K*%
X32437500Y18750000D02*
X43213000Y18750000D01*
X43213000Y18750000D02*
X43212500Y19000000D01*
%TO.N,LED1_K*%
X42000000Y21500000D02*
X43212500Y21500000D01*
X32437500Y19250000D02*
X42000000Y19250000D01*
X42000000Y19250000D02*
X42000000Y21500000D01*
D49*
%TO.N,CCOMP*%
X34625000Y21000000D02*
X34625000Y22400000D01*
X34625000Y22400000D02*
X38550000Y22400000D01*
X32437500Y20250000D02*
X34625000Y20250000D01*
X38550000Y22400000D02*
X38550000Y20550000D01*
X34625000Y20250000D02*
X34625000Y21000000D01*
D51*
%TO.N,VDDAU*%
X44000000Y22900000D02*
X44000000Y28712500D01*
D47*
X44000000Y27600000D02*
X46725000Y27600000D01*
D49*
X31750000Y22437500D02*
X31750000Y22900000D01*
D47*
X44000000Y26000000D02*
X46725000Y26000000D01*
D49*
X31750000Y22900000D02*
X44000000Y22900000D01*
%TO.N,RBIAS*%
X31250000Y23400000D02*
X41000000Y23400000D01*
D48*
X41000000Y23400000D02*
X41000000Y25975000D01*
D49*
X31250000Y22437500D02*
X31250000Y23400000D01*
%TO.N,XTI*%
X30750000Y23900000D02*
X39900000Y23900000D01*
D48*
X39900000Y23900000D02*
X39900000Y27050000D01*
X39900000Y27050000D02*
X38000000Y27050000D01*
D49*
X30750000Y22437500D02*
X30750000Y23900000D01*
D48*
X38000000Y27050000D02*
X38150000Y28625000D01*
%TO.N,XTO*%
X34400000Y28625000D02*
X35650000Y28625000D01*
X34400000Y25350000D02*
X34400000Y28625000D01*
X35650000Y24400000D02*
X35800000Y25350000D01*
X35800000Y25350000D02*
X34400000Y25350000D01*
D49*
X30250000Y24400000D02*
X35650000Y24400000D01*
X30250000Y22437500D02*
X30250000Y24400000D01*
D47*
%TO.N,VDDA*%
X33000000Y26400000D02*
X33175000Y26400000D01*
D49*
X29750000Y24900000D02*
X33000000Y24900000D01*
X29750000Y22437500D02*
X29750000Y24900000D01*
D51*
X33000000Y24900000D02*
X33000000Y29612500D01*
D47*
X33000000Y28000000D02*
X33175000Y28000000D01*
D49*
%TO.N,TRXP*%
X29250000Y22437500D02*
X29250000Y24750000D01*
D52*
X29000000Y25000000D02*
X29000000Y25075000D01*
D49*
X29250000Y24750000D02*
X29000000Y25000000D01*
D52*
%TO.N,TRXN*%
X28000000Y24750000D02*
X28000000Y25075000D01*
D49*
X28750000Y22437500D02*
X28750000Y24000000D01*
X28750000Y24000000D02*
X28000000Y24750000D01*
D52*
%TO.N,CMC_N*%
X28000000Y29100000D02*
X27500000Y29600000D01*
X28000000Y28125000D02*
X28000000Y29100000D01*
X27500000Y29600000D02*
X27500000Y29850000D01*
%TO.N,CMC_P*%
X29500000Y29600000D02*
X29500000Y29850000D01*
X29000000Y28125000D02*
X29000000Y29100000D01*
X29000000Y29100000D02*
X29500000Y29600000D01*
%TO.N,BUS_P*%
X33460000Y32800000D02*
X33460000Y38400000D01*
X29500000Y32800000D02*
X33460000Y32800000D01*
X33460000Y38400000D02*
X30405000Y38400000D01*
X33460000Y37000000D02*
X37100000Y37000000D01*
X30405000Y38400000D02*
X30405000Y40650000D01*
X30405000Y44000000D02*
X18975000Y44000000D01*
X29500000Y31750000D02*
X29500000Y32800000D01*
X18975000Y44000000D02*
X18975000Y40650000D01*
X30405000Y40650000D02*
X30405000Y44000000D01*
%TO.N,BUS_N*%
X26595000Y40650000D02*
X22785000Y40650000D01*
X23539999Y38400000D02*
X26595000Y38400000D01*
X23539999Y37000000D02*
X21400000Y37000000D01*
X26595000Y38400000D02*
X26595000Y40650000D01*
X27500000Y32800000D02*
X23539999Y32800000D01*
X27500000Y31750000D02*
X27500000Y32800000D01*
X23539999Y32800000D02*
X23539999Y38400000D01*
D48*
%TO.N,BUS_CT*%
X27050000Y37000000D02*
X28500000Y37000000D01*
X28500000Y34200000D02*
X28500000Y37000000D01*
X28500000Y37000000D02*
X29987500Y37000000D01*
X26462500Y34200000D02*
X30537500Y34200000D01*
%TO.N,LED0_A*%
X44787500Y19000000D02*
X46675000Y19000000D01*
%TO.N,LED1_A*%
X44787500Y21500000D02*
X46675000Y21500000D01*
%TD*%
%TA.AperFunction,Conductor*%
%TO.N,GND*%
G36*
X63222065Y48889385D02*
G01*
X63518112Y48872759D01*
X63526346Y48871830D01*
X63816603Y48822514D01*
X63824671Y48820673D01*
X64107605Y48739161D01*
X64115418Y48736427D01*
X64387428Y48623756D01*
X64394904Y48620156D01*
X64652594Y48477737D01*
X64659608Y48473329D01*
X64899716Y48302963D01*
X64906203Y48297791D01*
X65125741Y48101600D01*
X65131604Y48095737D01*
X65327789Y47876205D01*
X65332962Y47869717D01*
X65503324Y47629615D01*
X65507740Y47622588D01*
X65650155Y47364905D01*
X65653755Y47357429D01*
X65766422Y47085429D01*
X65769163Y47077596D01*
X65850669Y46794683D01*
X65852515Y46786592D01*
X65901828Y46496353D01*
X65902758Y46488107D01*
X65919384Y46192066D01*
X65919500Y46187917D01*
X65919500Y44074000D01*
X65902187Y44026434D01*
X65858350Y44001124D01*
X65845500Y44000000D01*
X58000000Y44000000D01*
X58000000Y22000000D01*
X65845500Y22000000D01*
X65893066Y21982687D01*
X65918376Y21938850D01*
X65919500Y21926000D01*
X65919500Y3002084D01*
X65919384Y2997935D01*
X65902758Y2701894D01*
X65901828Y2693648D01*
X65852515Y2403409D01*
X65850669Y2395318D01*
X65769163Y2112405D01*
X65766422Y2104572D01*
X65653755Y1832572D01*
X65650155Y1825096D01*
X65507740Y1567413D01*
X65503324Y1560386D01*
X65332962Y1320284D01*
X65327789Y1313796D01*
X65131604Y1094264D01*
X65125736Y1088396D01*
X64906204Y892211D01*
X64899716Y887038D01*
X64659614Y716676D01*
X64652587Y712260D01*
X64394904Y569845D01*
X64387428Y566245D01*
X64115428Y453578D01*
X64107595Y450837D01*
X63824682Y369331D01*
X63816591Y367485D01*
X63526352Y318172D01*
X63518106Y317242D01*
X63222066Y300616D01*
X63217917Y300500D01*
X3002083Y300500D01*
X2997934Y300616D01*
X2701893Y317242D01*
X2693647Y318172D01*
X2403408Y367485D01*
X2395317Y369331D01*
X2112404Y450837D01*
X2104571Y453578D01*
X1832571Y566245D01*
X1825095Y569845D01*
X1567412Y712260D01*
X1560385Y716676D01*
X1320283Y887038D01*
X1313795Y892211D01*
X1282612Y920078D01*
X1094258Y1088401D01*
X1088400Y1094259D01*
X892209Y1313797D01*
X887037Y1320284D01*
X716675Y1560386D01*
X712263Y1567406D01*
X569844Y1825096D01*
X566244Y1832572D01*
X453573Y2104582D01*
X450839Y2112395D01*
X369327Y2395329D01*
X367486Y2403397D01*
X318170Y2693654D01*
X317241Y2701894D01*
X300616Y2997935D01*
X300500Y3002084D01*
X300500Y4566355D01*
X1750657Y4566355D01*
X1781316Y4313843D01*
X1781320Y4313826D01*
X1852087Y4069509D01*
X1852090Y4069500D01*
X1961135Y3839694D01*
X1961137Y3839691D01*
X1961138Y3839689D01*
X1961139Y3839688D01*
X2105640Y3630341D01*
X2281852Y3446885D01*
X2485210Y3294071D01*
X2710448Y3175857D01*
X2951732Y3095305D01*
X3202813Y3054500D01*
X3202816Y3054500D01*
X3393483Y3054500D01*
X3583550Y3069844D01*
X3830533Y3130720D01*
X4064553Y3230426D01*
X4269457Y3360000D01*
X7140417Y3360000D01*
X7158553Y3175859D01*
X7160700Y3154066D01*
X7220768Y2956046D01*
X7318315Y2773550D01*
X7449590Y2613590D01*
X7609550Y2482315D01*
X7792046Y2384768D01*
X7990066Y2324700D01*
X8196000Y2304417D01*
X8401934Y2324700D01*
X8599954Y2384768D01*
X8782450Y2482315D01*
X8942410Y2613590D01*
X9073685Y2773550D01*
X9171232Y2956046D01*
X9231300Y3154066D01*
X9251583Y3360000D01*
X9680417Y3360000D01*
X9698553Y3175859D01*
X9700700Y3154066D01*
X9760768Y2956046D01*
X9858315Y2773550D01*
X9989590Y2613590D01*
X10149550Y2482315D01*
X10332046Y2384768D01*
X10530066Y2324700D01*
X10736000Y2304417D01*
X10941934Y2324700D01*
X11139954Y2384768D01*
X11322450Y2482315D01*
X11482410Y2613590D01*
X11613685Y2773550D01*
X11711232Y2956046D01*
X11771300Y3154066D01*
X11791583Y3360000D01*
X12220417Y3360000D01*
X12238553Y3175859D01*
X12240700Y3154066D01*
X12300768Y2956046D01*
X12398315Y2773550D01*
X12529590Y2613590D01*
X12689550Y2482315D01*
X12872046Y2384768D01*
X13070066Y2324700D01*
X13276000Y2304417D01*
X13481934Y2324700D01*
X13679954Y2384768D01*
X13862450Y2482315D01*
X14022410Y2613590D01*
X14153685Y2773550D01*
X14251232Y2956046D01*
X14311300Y3154066D01*
X14331583Y3360000D01*
X17300417Y3360000D01*
X17318553Y3175859D01*
X17320700Y3154066D01*
X17380768Y2956046D01*
X17478315Y2773550D01*
X17609590Y2613590D01*
X17769550Y2482315D01*
X17952046Y2384768D01*
X18150066Y2324700D01*
X18356000Y2304417D01*
X18561934Y2324700D01*
X18759954Y2384768D01*
X18942450Y2482315D01*
X19102410Y2613590D01*
X19233685Y2773550D01*
X19331232Y2956046D01*
X19391300Y3154066D01*
X19411583Y3360000D01*
X22380417Y3360000D01*
X22398553Y3175859D01*
X22400700Y3154066D01*
X22460768Y2956046D01*
X22558315Y2773550D01*
X22689590Y2613590D01*
X22849550Y2482315D01*
X23032046Y2384768D01*
X23230066Y2324700D01*
X23436000Y2304417D01*
X23641934Y2324700D01*
X23839954Y2384768D01*
X24022450Y2482315D01*
X24182410Y2613590D01*
X24313685Y2773550D01*
X24411232Y2956046D01*
X24471300Y3154066D01*
X24491583Y3360000D01*
X24920417Y3360000D01*
X24938553Y3175859D01*
X24940700Y3154066D01*
X25000768Y2956046D01*
X25098315Y2773550D01*
X25229590Y2613590D01*
X25389550Y2482315D01*
X25572046Y2384768D01*
X25770066Y2324700D01*
X25976000Y2304417D01*
X26181934Y2324700D01*
X26379954Y2384768D01*
X26562450Y2482315D01*
X26722410Y2613590D01*
X26853685Y2773550D01*
X26951232Y2956046D01*
X27011300Y3154066D01*
X27031583Y3360000D01*
X27011300Y3565934D01*
X26951232Y3763954D01*
X26853685Y3946450D01*
X26722410Y4106410D01*
X26562450Y4237685D01*
X26452257Y4296585D01*
X26379956Y4335231D01*
X26379955Y4335232D01*
X26379954Y4335232D01*
X26268158Y4369145D01*
X26181935Y4395300D01*
X25976000Y4415583D01*
X25770064Y4395300D01*
X25572043Y4335231D01*
X25389549Y4237685D01*
X25229590Y4106411D01*
X25229589Y4106410D01*
X25098315Y3946451D01*
X25000769Y3763957D01*
X24940700Y3565936D01*
X24920417Y3360000D01*
X24491583Y3360000D01*
X24471300Y3565934D01*
X24411232Y3763954D01*
X24313685Y3946450D01*
X24182410Y4106410D01*
X24022450Y4237685D01*
X23912257Y4296585D01*
X23839956Y4335231D01*
X23839955Y4335232D01*
X23839954Y4335232D01*
X23728158Y4369145D01*
X23641935Y4395300D01*
X23436000Y4415583D01*
X23230064Y4395300D01*
X23032043Y4335231D01*
X22849549Y4237685D01*
X22689590Y4106411D01*
X22689589Y4106410D01*
X22558315Y3946451D01*
X22460769Y3763957D01*
X22400700Y3565936D01*
X22380417Y3360000D01*
X19411583Y3360000D01*
X19391300Y3565934D01*
X19331232Y3763954D01*
X19233685Y3946450D01*
X19102410Y4106410D01*
X18942450Y4237685D01*
X18832257Y4296585D01*
X18759956Y4335231D01*
X18759955Y4335232D01*
X18759954Y4335232D01*
X18648158Y4369145D01*
X18561935Y4395300D01*
X18356000Y4415583D01*
X18150064Y4395300D01*
X17952043Y4335231D01*
X17769549Y4237685D01*
X17609590Y4106411D01*
X17609589Y4106410D01*
X17478315Y3946451D01*
X17380769Y3763957D01*
X17320700Y3565936D01*
X17300417Y3360000D01*
X14331583Y3360000D01*
X14311300Y3565934D01*
X14251232Y3763954D01*
X14153685Y3946450D01*
X14022410Y4106410D01*
X13862450Y4237685D01*
X13752257Y4296585D01*
X13679956Y4335231D01*
X13679955Y4335232D01*
X13679954Y4335232D01*
X13568158Y4369145D01*
X13481935Y4395300D01*
X13276000Y4415583D01*
X13070064Y4395300D01*
X12872043Y4335231D01*
X12689549Y4237685D01*
X12529590Y4106411D01*
X12529589Y4106410D01*
X12398315Y3946451D01*
X12300769Y3763957D01*
X12240700Y3565936D01*
X12220417Y3360000D01*
X11791583Y3360000D01*
X11771300Y3565934D01*
X11711232Y3763954D01*
X11613685Y3946450D01*
X11482410Y4106410D01*
X11322450Y4237685D01*
X11212257Y4296585D01*
X11139956Y4335231D01*
X11139955Y4335232D01*
X11139954Y4335232D01*
X11028158Y4369145D01*
X10941935Y4395300D01*
X10736000Y4415583D01*
X10530064Y4395300D01*
X10332043Y4335231D01*
X10149549Y4237685D01*
X9989590Y4106411D01*
X9989589Y4106410D01*
X9858315Y3946451D01*
X9760769Y3763957D01*
X9700700Y3565936D01*
X9680417Y3360000D01*
X9251583Y3360000D01*
X9231300Y3565934D01*
X9171232Y3763954D01*
X9073685Y3946450D01*
X8942410Y4106410D01*
X8782450Y4237685D01*
X8672257Y4296585D01*
X8599956Y4335231D01*
X8599955Y4335232D01*
X8599954Y4335232D01*
X8488158Y4369145D01*
X8401935Y4395300D01*
X8196000Y4415583D01*
X7990064Y4395300D01*
X7792043Y4335231D01*
X7609549Y4237685D01*
X7449590Y4106411D01*
X7449589Y4106410D01*
X7318315Y3946451D01*
X7220769Y3763957D01*
X7160700Y3565936D01*
X7140417Y3360000D01*
X4269457Y3360000D01*
X4279548Y3366381D01*
X4469951Y3535063D01*
X4630829Y3732103D01*
X4758016Y3952398D01*
X4848219Y4190243D01*
X4899100Y4439477D01*
X4909343Y4693645D01*
X4878682Y4946166D01*
X4842881Y5069763D01*
X4807912Y5190492D01*
X4807909Y5190501D01*
X4698864Y5420307D01*
X4698862Y5420310D01*
X4624601Y5527896D01*
X4554360Y5629659D01*
X4378148Y5813115D01*
X4262525Y5900000D01*
X9680417Y5900000D01*
X9688974Y5813115D01*
X9700700Y5694066D01*
X9760768Y5496046D01*
X9858315Y5313550D01*
X9989590Y5153590D01*
X10149550Y5022315D01*
X10332046Y4924768D01*
X10530066Y4864700D01*
X10736000Y4844417D01*
X10941934Y4864700D01*
X11139954Y4924768D01*
X11322450Y5022315D01*
X11482410Y5153590D01*
X11613685Y5313550D01*
X11711232Y5496046D01*
X11771300Y5694066D01*
X11791583Y5900000D01*
X12220417Y5900000D01*
X12228974Y5813115D01*
X12240700Y5694066D01*
X12300768Y5496046D01*
X12398315Y5313550D01*
X12529590Y5153590D01*
X12689550Y5022315D01*
X12872046Y4924768D01*
X13070066Y4864700D01*
X13276000Y4844417D01*
X13481934Y4864700D01*
X13679954Y4924768D01*
X13862450Y5022315D01*
X14022410Y5153590D01*
X14153685Y5313550D01*
X14251232Y5496046D01*
X14311300Y5694066D01*
X14331583Y5900000D01*
X14760417Y5900000D01*
X14768974Y5813115D01*
X14780700Y5694066D01*
X14840768Y5496046D01*
X14938315Y5313550D01*
X15069590Y5153590D01*
X15229550Y5022315D01*
X15412046Y4924768D01*
X15610066Y4864700D01*
X15816000Y4844417D01*
X16021934Y4864700D01*
X16219954Y4924768D01*
X16402450Y5022315D01*
X16562410Y5153590D01*
X16693685Y5313550D01*
X16791232Y5496046D01*
X16851300Y5694066D01*
X16871583Y5900000D01*
X17300417Y5900000D01*
X17308974Y5813115D01*
X17320700Y5694066D01*
X17380768Y5496046D01*
X17478315Y5313550D01*
X17609590Y5153590D01*
X17769550Y5022315D01*
X17952046Y4924768D01*
X18150066Y4864700D01*
X18356000Y4844417D01*
X18561934Y4864700D01*
X18759954Y4924768D01*
X18942450Y5022315D01*
X19102410Y5153590D01*
X19233685Y5313550D01*
X19331232Y5496046D01*
X19391300Y5694066D01*
X19411583Y5900000D01*
X19840417Y5900000D01*
X19848974Y5813115D01*
X19860700Y5694066D01*
X19920768Y5496046D01*
X20018315Y5313550D01*
X20149590Y5153590D01*
X20309550Y5022315D01*
X20492046Y4924768D01*
X20690066Y4864700D01*
X20896000Y4844417D01*
X21101934Y4864700D01*
X21299954Y4924768D01*
X21482450Y5022315D01*
X21642410Y5153590D01*
X21773685Y5313550D01*
X21871232Y5496046D01*
X21931300Y5694066D01*
X21951583Y5900000D01*
X22380417Y5900000D01*
X22388974Y5813115D01*
X22400700Y5694066D01*
X22460768Y5496046D01*
X22558315Y5313550D01*
X22689590Y5153590D01*
X22849550Y5022315D01*
X23032046Y4924768D01*
X23230066Y4864700D01*
X23436000Y4844417D01*
X23641934Y4864700D01*
X23839954Y4924768D01*
X24022450Y5022315D01*
X24182410Y5153590D01*
X24313685Y5313550D01*
X24411232Y5496046D01*
X24471300Y5694066D01*
X24491583Y5900000D01*
X24471300Y6105934D01*
X24411232Y6303954D01*
X24313685Y6486450D01*
X24182410Y6646410D01*
X24022450Y6777685D01*
X23839954Y6875232D01*
X23687378Y6921515D01*
X23641935Y6935300D01*
X23436000Y6955583D01*
X23230064Y6935300D01*
X23095736Y6894552D01*
X23032050Y6875233D01*
X23032043Y6875231D01*
X22849549Y6777685D01*
X22689590Y6646411D01*
X22689589Y6646410D01*
X22558315Y6486451D01*
X22460769Y6303957D01*
X22400700Y6105936D01*
X22380417Y5900000D01*
X21951583Y5900000D01*
X21931300Y6105934D01*
X21871232Y6303954D01*
X21773685Y6486450D01*
X21642410Y6646410D01*
X21482450Y6777685D01*
X21299954Y6875232D01*
X21147378Y6921515D01*
X21101935Y6935300D01*
X20896000Y6955583D01*
X20690064Y6935300D01*
X20555736Y6894552D01*
X20492050Y6875233D01*
X20492043Y6875231D01*
X20309549Y6777685D01*
X20149590Y6646411D01*
X20149589Y6646410D01*
X20018315Y6486451D01*
X19920769Y6303957D01*
X19860700Y6105936D01*
X19840417Y5900000D01*
X19411583Y5900000D01*
X19391300Y6105934D01*
X19331232Y6303954D01*
X19233685Y6486450D01*
X19102410Y6646410D01*
X18942450Y6777685D01*
X18759954Y6875232D01*
X18607378Y6921515D01*
X18561935Y6935300D01*
X18356000Y6955583D01*
X18150064Y6935300D01*
X18015736Y6894552D01*
X17952050Y6875233D01*
X17952043Y6875231D01*
X17769549Y6777685D01*
X17609590Y6646411D01*
X17609589Y6646410D01*
X17478315Y6486451D01*
X17380769Y6303957D01*
X17320700Y6105936D01*
X17300417Y5900000D01*
X16871583Y5900000D01*
X16851300Y6105934D01*
X16791232Y6303954D01*
X16693685Y6486450D01*
X16562410Y6646410D01*
X16402450Y6777685D01*
X16219954Y6875232D01*
X16067378Y6921515D01*
X16021935Y6935300D01*
X15816000Y6955583D01*
X15610064Y6935300D01*
X15475736Y6894552D01*
X15412050Y6875233D01*
X15412043Y6875231D01*
X15229549Y6777685D01*
X15069590Y6646411D01*
X15069589Y6646410D01*
X14938315Y6486451D01*
X14840769Y6303957D01*
X14780700Y6105936D01*
X14760417Y5900000D01*
X14331583Y5900000D01*
X14311300Y6105934D01*
X14251232Y6303954D01*
X14153685Y6486450D01*
X14022410Y6646410D01*
X13862450Y6777685D01*
X13679954Y6875232D01*
X13527378Y6921515D01*
X13481935Y6935300D01*
X13276000Y6955583D01*
X13070064Y6935300D01*
X12935736Y6894552D01*
X12872050Y6875233D01*
X12872043Y6875231D01*
X12689549Y6777685D01*
X12529590Y6646411D01*
X12529589Y6646410D01*
X12398315Y6486451D01*
X12300769Y6303957D01*
X12240700Y6105936D01*
X12220417Y5900000D01*
X11791583Y5900000D01*
X11771300Y6105934D01*
X11711232Y6303954D01*
X11613685Y6486450D01*
X11482410Y6646410D01*
X11322450Y6777685D01*
X11139954Y6875232D01*
X10987378Y6921515D01*
X10941935Y6935300D01*
X10736000Y6955583D01*
X10530064Y6935300D01*
X10395736Y6894552D01*
X10332050Y6875233D01*
X10332043Y6875231D01*
X10149549Y6777685D01*
X9989590Y6646411D01*
X9989589Y6646410D01*
X9858315Y6486451D01*
X9760769Y6303957D01*
X9700700Y6105936D01*
X9680417Y5900000D01*
X4262525Y5900000D01*
X4174790Y5965929D01*
X3949552Y6084143D01*
X3708268Y6164695D01*
X3457187Y6205500D01*
X3266517Y6205500D01*
X3076452Y6190157D01*
X2829469Y6129281D01*
X2595448Y6029575D01*
X2380451Y5893619D01*
X2190046Y5724935D01*
X2029169Y5527896D01*
X1901984Y5307604D01*
X1901980Y5307595D01*
X1811782Y5069763D01*
X1811782Y5069761D01*
X1811781Y5069759D01*
X1811781Y5069757D01*
X1803716Y5030252D01*
X1760899Y4820520D01*
X1750657Y4566355D01*
X300500Y4566355D01*
X300500Y8493481D01*
X24994500Y8493481D01*
X25009353Y8399696D01*
X25009354Y8399694D01*
X25066950Y8286658D01*
X25156658Y8196950D01*
X25229097Y8160040D01*
X25263617Y8123022D01*
X25269500Y8094108D01*
X25269500Y7906900D01*
X25252187Y7859334D01*
X25247826Y7854574D01*
X25246472Y7853221D01*
X25246471Y7853220D01*
X25185281Y7733127D01*
X25185280Y7733127D01*
X25164196Y7600000D01*
X25185280Y7466874D01*
X25246471Y7346781D01*
X25246472Y7346780D01*
X25341780Y7251472D01*
X25461873Y7190282D01*
X25461873Y7190281D01*
X25469444Y7189082D01*
X25595000Y7169196D01*
X25728126Y7190281D01*
X25848220Y7251472D01*
X25943528Y7346780D01*
X26004719Y7466874D01*
X26025804Y7600000D01*
X26004719Y7733126D01*
X26004719Y7733127D01*
X25943528Y7853220D01*
X25942174Y7854574D01*
X25941510Y7855998D01*
X25940102Y7857936D01*
X25940478Y7858210D01*
X25920782Y7900450D01*
X25920500Y7906900D01*
X25920500Y8094108D01*
X25937813Y8141674D01*
X25960899Y8160039D01*
X26033342Y8196950D01*
X26123050Y8286658D01*
X26180646Y8399696D01*
X26195500Y8493481D01*
X26195499Y9106518D01*
X26191027Y9134753D01*
X26180646Y9200305D01*
X26180645Y9200307D01*
X26123049Y9313343D01*
X26033343Y9403049D01*
X26033342Y9403050D01*
X25920304Y9460646D01*
X25920302Y9460647D01*
X25920301Y9460647D01*
X25826519Y9475500D01*
X25363480Y9475500D01*
X25269695Y9460647D01*
X25269693Y9460646D01*
X25156657Y9403050D01*
X25066951Y9313344D01*
X25009353Y9200302D01*
X24994500Y9106520D01*
X24994500Y8493481D01*
X300500Y8493481D01*
X300500Y13893481D01*
X24374500Y13893481D01*
X24389353Y13799696D01*
X24389354Y13799694D01*
X24427537Y13724758D01*
X24446950Y13686658D01*
X24536658Y13596950D01*
X24601221Y13564054D01*
X24635741Y13527035D01*
X24638391Y13476486D01*
X24627502Y13454639D01*
X24626473Y13453223D01*
X24565281Y13333127D01*
X24565280Y13333127D01*
X24544196Y13200000D01*
X24565280Y13066874D01*
X24626471Y12946781D01*
X24626472Y12946780D01*
X24721780Y12851472D01*
X24841873Y12790282D01*
X24841873Y12790281D01*
X24860075Y12787399D01*
X24975000Y12769196D01*
X25108126Y12790281D01*
X25228220Y12851472D01*
X25323528Y12946780D01*
X25384719Y13066874D01*
X25405804Y13200000D01*
X25384719Y13333126D01*
X25384719Y13333127D01*
X25323527Y13453222D01*
X25322502Y13454633D01*
X25322108Y13456006D01*
X25320884Y13458409D01*
X25321351Y13458648D01*
X25308556Y13503293D01*
X25329151Y13549533D01*
X25348771Y13564050D01*
X25413342Y13596950D01*
X25503050Y13686658D01*
X25560646Y13799696D01*
X25575500Y13893481D01*
X25575499Y14506518D01*
X25560646Y14600304D01*
X25560646Y14600305D01*
X25560645Y14600307D01*
X25503049Y14713343D01*
X25413343Y14803049D01*
X25413342Y14803050D01*
X25300304Y14860646D01*
X25300302Y14860647D01*
X25300301Y14860647D01*
X25206519Y14875500D01*
X24743480Y14875500D01*
X24649695Y14860647D01*
X24649693Y14860646D01*
X24536657Y14803050D01*
X24446951Y14713344D01*
X24389353Y14600302D01*
X24374500Y14506520D01*
X24374500Y13893481D01*
X300500Y13893481D01*
X300500Y15893481D01*
X21474500Y15893481D01*
X21489353Y15799696D01*
X21489354Y15799694D01*
X21532878Y15714275D01*
X21546950Y15686658D01*
X21636658Y15596950D01*
X21701221Y15564054D01*
X21735741Y15527035D01*
X21738391Y15476486D01*
X21727502Y15454639D01*
X21726473Y15453223D01*
X21665281Y15333127D01*
X21665280Y15333127D01*
X21644196Y15200000D01*
X21665280Y15066874D01*
X21702774Y14993289D01*
X21726472Y14946780D01*
X21821780Y14851472D01*
X21941873Y14790282D01*
X21941873Y14790281D01*
X21960075Y14787399D01*
X22075000Y14769196D01*
X22208126Y14790281D01*
X22328220Y14851472D01*
X22423528Y14946780D01*
X22484719Y15066874D01*
X22505804Y15200000D01*
X22484719Y15333126D01*
X22484719Y15333127D01*
X22423527Y15453222D01*
X22422502Y15454633D01*
X22422108Y15456006D01*
X22420884Y15458409D01*
X22421351Y15458648D01*
X22408556Y15503293D01*
X22429151Y15549533D01*
X22448771Y15564050D01*
X22513342Y15596950D01*
X22603050Y15686658D01*
X22660646Y15799696D01*
X22675500Y15893481D01*
X22675499Y16506518D01*
X22660646Y16600304D01*
X22660646Y16600305D01*
X22660645Y16600307D01*
X22603049Y16713343D01*
X22513343Y16803049D01*
X22513342Y16803050D01*
X22400304Y16860646D01*
X22400302Y16860647D01*
X22400301Y16860647D01*
X22306519Y16875500D01*
X21843480Y16875500D01*
X21749695Y16860647D01*
X21749693Y16860646D01*
X21636657Y16803050D01*
X21546951Y16713344D01*
X21489353Y16600302D01*
X21474500Y16506520D01*
X21474500Y15893481D01*
X300500Y15893481D01*
X300500Y17470734D01*
X14349500Y17470734D01*
X14352354Y17440301D01*
X14352354Y17440299D01*
X14352355Y17440296D01*
X14397206Y17312119D01*
X14397207Y17312117D01*
X14477846Y17202854D01*
X14477853Y17202847D01*
X14587116Y17122208D01*
X14587118Y17122207D01*
X14715295Y17077356D01*
X14715301Y17077354D01*
X14745734Y17074500D01*
X14745741Y17074500D01*
X15354258Y17074500D01*
X15354266Y17074500D01*
X15384699Y17077354D01*
X15512882Y17122207D01*
X15622150Y17202850D01*
X15702793Y17312118D01*
X15747646Y17440301D01*
X15750500Y17470734D01*
X15750500Y18529266D01*
X15747646Y18559699D01*
X15738834Y18584881D01*
X15702793Y18687882D01*
X15702792Y18687884D01*
X15675399Y18725000D01*
X19369196Y18725000D01*
X19390280Y18591874D01*
X19451471Y18471781D01*
X19451472Y18471780D01*
X19546780Y18376472D01*
X19666873Y18315282D01*
X19666873Y18315281D01*
X19684395Y18312506D01*
X19800000Y18294196D01*
X19933126Y18315281D01*
X20000791Y18349759D01*
X20051032Y18355928D01*
X20093485Y18328359D01*
X20100320Y18317420D01*
X20150341Y18219250D01*
X20244250Y18125341D01*
X20287069Y18103524D01*
X20362579Y18065050D01*
X20362579Y18065049D01*
X20460753Y18049500D01*
X20460754Y18049500D01*
X20964247Y18049500D01*
X21062420Y18065049D01*
X21180751Y18125342D01*
X21274658Y18219249D01*
X21334951Y18337580D01*
X21350500Y18435754D01*
X21649500Y18435754D01*
X21665049Y18337580D01*
X21725340Y18219251D01*
X21819250Y18125341D01*
X21862069Y18103524D01*
X21937579Y18065050D01*
X21937579Y18065049D01*
X22035753Y18049500D01*
X22035754Y18049500D01*
X22539247Y18049500D01*
X22637420Y18065049D01*
X22755751Y18125342D01*
X22849658Y18219249D01*
X22908176Y18334096D01*
X22945196Y18368617D01*
X22974110Y18374500D01*
X23091049Y18374500D01*
X23138615Y18357187D01*
X23156980Y18334100D01*
X23201472Y18246780D01*
X23296780Y18151472D01*
X23416874Y18090281D01*
X23516511Y18074500D01*
X23516512Y18074500D01*
X24083489Y18074500D01*
X24133307Y18082391D01*
X24183126Y18090281D01*
X24303220Y18151472D01*
X24398528Y18246780D01*
X24443018Y18334098D01*
X24480037Y18368617D01*
X24508951Y18374500D01*
X24691049Y18374500D01*
X24738615Y18357187D01*
X24756980Y18334100D01*
X24801472Y18246780D01*
X24896780Y18151472D01*
X24896782Y18151471D01*
X24899673Y18149371D01*
X24927982Y18107408D01*
X24922696Y18057066D01*
X24886286Y18021900D01*
X24856182Y18015500D01*
X24660479Y18015500D01*
X24647984Y18017392D01*
X24647946Y18017090D01*
X24641523Y18017903D01*
X24641520Y18017903D01*
X24597605Y18015768D01*
X24593882Y18015587D01*
X24590289Y18015500D01*
X24571521Y18015500D01*
X24568280Y18014929D01*
X24559041Y18013894D01*
X24526865Y18012329D01*
X24526864Y18012329D01*
X24515203Y18007431D01*
X24499404Y18002784D01*
X24486957Y18000589D01*
X24486954Y18000588D01*
X24459057Y17984483D01*
X24450719Y17980346D01*
X24421034Y17967877D01*
X24421033Y17967876D01*
X24411751Y17959287D01*
X24398497Y17949518D01*
X24387545Y17943195D01*
X24387543Y17943193D01*
X24366842Y17918522D01*
X24360420Y17911780D01*
X24358007Y17909547D01*
X24358003Y17909544D01*
X24346651Y17894598D01*
X24344414Y17891796D01*
X24313761Y17855264D01*
X24310523Y17849654D01*
X24310259Y17849806D01*
X24304208Y17838714D01*
X23925291Y17339804D01*
X23882735Y17312395D01*
X23877940Y17311472D01*
X23866876Y17309720D01*
X23866871Y17309718D01*
X23746780Y17248529D01*
X23651471Y17153220D01*
X23590281Y17033127D01*
X23590280Y17033126D01*
X23575202Y16937924D01*
X23550661Y16893651D01*
X23503404Y16875511D01*
X23502119Y16875500D01*
X23493480Y16875500D01*
X23399695Y16860647D01*
X23399693Y16860646D01*
X23286657Y16803050D01*
X23196951Y16713344D01*
X23139353Y16600302D01*
X23124500Y16506520D01*
X23124500Y15893481D01*
X23139353Y15799696D01*
X23139354Y15799694D01*
X23182878Y15714275D01*
X23196950Y15686658D01*
X23286658Y15596950D01*
X23399696Y15539354D01*
X23493481Y15524500D01*
X23956518Y15524501D01*
X23956519Y15524501D01*
X24050304Y15539354D01*
X24050306Y15539355D01*
X24070281Y15549533D01*
X24163342Y15596950D01*
X24253050Y15686658D01*
X24310646Y15799696D01*
X24325500Y15893481D01*
X24325499Y16506518D01*
X24315368Y16570486D01*
X24325027Y16620172D01*
X24336127Y16634381D01*
X24348528Y16646780D01*
X24409719Y16766874D01*
X24430804Y16900000D01*
X24430804Y16900001D01*
X24430804Y16904142D01*
X24445873Y16948898D01*
X24739311Y17335258D01*
X24781867Y17362666D01*
X24798241Y17364500D01*
X26982112Y17364500D01*
X26988725Y17364205D01*
X26997978Y17363374D01*
X27028071Y17360673D01*
X27028071Y17360674D01*
X27028073Y17360673D01*
X27067137Y17371048D01*
X27073249Y17372396D01*
X27107369Y17378412D01*
X27113040Y17379411D01*
X27113040Y17379412D01*
X27113045Y17379412D01*
X27116805Y17381583D01*
X27134818Y17389022D01*
X27139016Y17390136D01*
X27167649Y17410091D01*
X27172151Y17413228D01*
X27177461Y17416603D01*
X27182667Y17419610D01*
X27212455Y17436806D01*
X27237867Y17467094D01*
X27242331Y17471952D01*
X27367373Y17596437D01*
X27629687Y17857584D01*
X27671302Y17899014D01*
X27717226Y17920305D01*
X27723511Y17920572D01*
X27825932Y17920572D01*
X27840362Y17919152D01*
X27857586Y17915726D01*
X27900859Y17889469D01*
X27915727Y17857584D01*
X27919150Y17840374D01*
X27920572Y17825938D01*
X27920572Y17647837D01*
X27903259Y17600271D01*
X27899808Y17596437D01*
X27724744Y17415122D01*
X27714177Y17406062D01*
X27696386Y17393507D01*
X27696384Y17393505D01*
X27667888Y17348415D01*
X27667575Y17347924D01*
X27638639Y17302929D01*
X27638638Y17302926D01*
X27634766Y17281501D01*
X27631011Y17268094D01*
X27117543Y15933391D01*
X27084306Y15895213D01*
X27082074Y15894027D01*
X26992780Y15848529D01*
X26897471Y15753220D01*
X26836281Y15633127D01*
X26836280Y15633127D01*
X26815196Y15500000D01*
X26829045Y15412556D01*
X26822729Y15369083D01*
X26607061Y14917603D01*
X26570936Y14882145D01*
X26540288Y14875500D01*
X26393480Y14875500D01*
X26299695Y14860647D01*
X26299693Y14860646D01*
X26186657Y14803050D01*
X26096951Y14713344D01*
X26039353Y14600302D01*
X26024500Y14506520D01*
X26024500Y13893481D01*
X26039353Y13799696D01*
X26039354Y13799694D01*
X26077537Y13724758D01*
X26096950Y13686658D01*
X26186658Y13596950D01*
X26299696Y13539354D01*
X26393481Y13524500D01*
X26856518Y13524501D01*
X26856519Y13524501D01*
X26950304Y13539354D01*
X26950306Y13539355D01*
X26970281Y13549533D01*
X27063342Y13596950D01*
X27153050Y13686658D01*
X27210646Y13799696D01*
X27225500Y13893481D01*
X27225499Y14506518D01*
X27210646Y14600304D01*
X27209834Y14601897D01*
X27209656Y14603350D01*
X27208847Y14605840D01*
X27209331Y14605998D01*
X27203667Y14652136D01*
X27208997Y14667386D01*
X27230950Y14713342D01*
X27410453Y15089114D01*
X27443628Y15123148D01*
X27499220Y15151472D01*
X27594528Y15246780D01*
X27655719Y15366874D01*
X27676804Y15500000D01*
X27655719Y15633126D01*
X27634609Y15674556D01*
X27628442Y15724794D01*
X27631477Y15734711D01*
X28079497Y16899290D01*
X28112733Y16937466D01*
X28162734Y16945348D01*
X28162953Y16945305D01*
X28187501Y16940422D01*
X28206242Y16944151D01*
X28220679Y16945572D01*
X28279321Y16945572D01*
X28293757Y16944151D01*
X28312499Y16940422D01*
X28365927Y16951050D01*
X28415954Y16943350D01*
X28449330Y16905293D01*
X28451515Y16858143D01*
X28183196Y15919030D01*
X28153482Y15878050D01*
X28145640Y15873426D01*
X28096782Y15848530D01*
X28096780Y15848529D01*
X28001471Y15753220D01*
X27940281Y15633127D01*
X27940280Y15633127D01*
X27919196Y15500000D01*
X27940280Y15366874D01*
X27965757Y15316874D01*
X28001472Y15246780D01*
X28096780Y15151472D01*
X28216873Y15090282D01*
X28216873Y15090281D01*
X28224261Y15089111D01*
X28350000Y15069196D01*
X28483126Y15090281D01*
X28603220Y15151472D01*
X28698528Y15246780D01*
X28759719Y15366874D01*
X28780804Y15500000D01*
X28759719Y15633126D01*
X28718370Y15714277D01*
X28712201Y15764517D01*
X28713146Y15768179D01*
X28829347Y16174881D01*
X28859061Y16215860D01*
X28908165Y16228153D01*
X28953682Y16206006D01*
X28974315Y16159783D01*
X28974500Y16154551D01*
X28974500Y12144973D01*
X28957187Y12097407D01*
X28952774Y12092595D01*
X27075724Y10219294D01*
X27064516Y10210113D01*
X27047545Y10198792D01*
X27047539Y10198787D01*
X27019413Y10156770D01*
X27019408Y10156762D01*
X26986580Y10107737D01*
X26976669Y10058130D01*
X26976667Y10058120D01*
X26965103Y10000283D01*
X26969064Y9980258D01*
X26970470Y9965837D01*
X26970108Y9530729D01*
X26952756Y9483178D01*
X26924467Y9464113D01*
X26924886Y9463291D01*
X26806657Y9403050D01*
X26716951Y9313344D01*
X26659353Y9200302D01*
X26644500Y9106520D01*
X26644500Y8493481D01*
X26659353Y8399696D01*
X26659354Y8399694D01*
X26716950Y8286658D01*
X26806659Y8196949D01*
X26879263Y8159955D01*
X26913785Y8122935D01*
X26919668Y8094039D01*
X26920495Y4647411D01*
X26920213Y4640944D01*
X26916735Y4601196D01*
X26916735Y4601195D01*
X26927092Y4562541D01*
X26928482Y4556272D01*
X26935439Y4516881D01*
X26937817Y4512764D01*
X26945215Y4494909D01*
X26946445Y4490318D01*
X26946446Y4490316D01*
X26969387Y4457553D01*
X26972847Y4452123D01*
X26992857Y4417484D01*
X27019308Y4395300D01*
X27023438Y4391836D01*
X27028210Y4387464D01*
X27540607Y3875066D01*
X27561999Y3829189D01*
X27553544Y3787859D01*
X27540770Y3763960D01*
X27480700Y3565936D01*
X27460417Y3360000D01*
X27478553Y3175859D01*
X27480700Y3154066D01*
X27540768Y2956046D01*
X27638315Y2773550D01*
X27769590Y2613590D01*
X27929550Y2482315D01*
X28112046Y2384768D01*
X28310066Y2324700D01*
X28516000Y2304417D01*
X28721934Y2324700D01*
X28919954Y2384768D01*
X29102450Y2482315D01*
X29262410Y2613590D01*
X29393685Y2773550D01*
X29491232Y2956046D01*
X29551300Y3154066D01*
X29571583Y3360000D01*
X30000417Y3360000D01*
X30018553Y3175859D01*
X30020700Y3154066D01*
X30080768Y2956046D01*
X30178315Y2773550D01*
X30309590Y2613590D01*
X30469550Y2482315D01*
X30652046Y2384768D01*
X30850066Y2324700D01*
X31056000Y2304417D01*
X31261934Y2324700D01*
X31459954Y2384768D01*
X31642450Y2482315D01*
X31802410Y2613590D01*
X31933685Y2773550D01*
X32031232Y2956046D01*
X32091300Y3154066D01*
X32111583Y3360000D01*
X35080417Y3360000D01*
X35098553Y3175859D01*
X35100700Y3154066D01*
X35160768Y2956046D01*
X35258315Y2773550D01*
X35389590Y2613590D01*
X35549550Y2482315D01*
X35732046Y2384768D01*
X35930066Y2324700D01*
X36136000Y2304417D01*
X36341934Y2324700D01*
X36539954Y2384768D01*
X36722450Y2482315D01*
X36882410Y2613590D01*
X37013685Y2773550D01*
X37111232Y2956046D01*
X37171300Y3154066D01*
X37191583Y3360000D01*
X37620417Y3360000D01*
X37638553Y3175859D01*
X37640700Y3154066D01*
X37700768Y2956046D01*
X37798315Y2773550D01*
X37929590Y2613590D01*
X38089550Y2482315D01*
X38272046Y2384768D01*
X38470066Y2324700D01*
X38676000Y2304417D01*
X38881934Y2324700D01*
X39079954Y2384768D01*
X39262450Y2482315D01*
X39422410Y2613590D01*
X39553685Y2773550D01*
X39651232Y2956046D01*
X39711300Y3154066D01*
X39731583Y3360000D01*
X42700417Y3360000D01*
X42718553Y3175859D01*
X42720700Y3154066D01*
X42780768Y2956046D01*
X42878315Y2773550D01*
X43009590Y2613590D01*
X43169550Y2482315D01*
X43352046Y2384768D01*
X43550066Y2324700D01*
X43756000Y2304417D01*
X43961934Y2324700D01*
X44159954Y2384768D01*
X44342450Y2482315D01*
X44502410Y2613590D01*
X44633685Y2773550D01*
X44731232Y2956046D01*
X44791300Y3154066D01*
X44811583Y3360000D01*
X45240417Y3360000D01*
X45258553Y3175859D01*
X45260700Y3154066D01*
X45320768Y2956046D01*
X45418315Y2773550D01*
X45549590Y2613590D01*
X45709550Y2482315D01*
X45892046Y2384768D01*
X46090066Y2324700D01*
X46296000Y2304417D01*
X46501934Y2324700D01*
X46699954Y2384768D01*
X46882450Y2482315D01*
X47042410Y2613590D01*
X47173685Y2773550D01*
X47271232Y2956046D01*
X47331300Y3154066D01*
X47351583Y3360000D01*
X47780417Y3360000D01*
X47798553Y3175859D01*
X47800700Y3154066D01*
X47860768Y2956046D01*
X47958315Y2773550D01*
X48089590Y2613590D01*
X48249550Y2482315D01*
X48432046Y2384768D01*
X48630066Y2324700D01*
X48836000Y2304417D01*
X49041934Y2324700D01*
X49239954Y2384768D01*
X49422450Y2482315D01*
X49582410Y2613590D01*
X49713685Y2773550D01*
X49811232Y2956046D01*
X49871300Y3154066D01*
X49891583Y3360000D01*
X52860417Y3360000D01*
X52878553Y3175859D01*
X52880700Y3154066D01*
X52940768Y2956046D01*
X53038315Y2773550D01*
X53169590Y2613590D01*
X53329550Y2482315D01*
X53512046Y2384768D01*
X53710066Y2324700D01*
X53916000Y2304417D01*
X54121934Y2324700D01*
X54319954Y2384768D01*
X54502450Y2482315D01*
X54662410Y2613590D01*
X54793685Y2773550D01*
X54891232Y2956046D01*
X54951300Y3154066D01*
X54971583Y3360000D01*
X55400417Y3360000D01*
X55418553Y3175859D01*
X55420700Y3154066D01*
X55480768Y2956046D01*
X55578315Y2773550D01*
X55709590Y2613590D01*
X55869550Y2482315D01*
X56052046Y2384768D01*
X56250066Y2324700D01*
X56456000Y2304417D01*
X56661934Y2324700D01*
X56859954Y2384768D01*
X57042450Y2482315D01*
X57202410Y2613590D01*
X57333685Y2773550D01*
X57431232Y2956046D01*
X57491300Y3154066D01*
X57511583Y3360000D01*
X57491300Y3565934D01*
X57431232Y3763954D01*
X57333685Y3946450D01*
X57202410Y4106410D01*
X57042450Y4237685D01*
X56932257Y4296585D01*
X56859956Y4335231D01*
X56859955Y4335232D01*
X56859954Y4335232D01*
X56748158Y4369145D01*
X56661935Y4395300D01*
X56456000Y4415583D01*
X56250064Y4395300D01*
X56052043Y4335231D01*
X55869549Y4237685D01*
X55709590Y4106411D01*
X55709589Y4106410D01*
X55578315Y3946451D01*
X55480769Y3763957D01*
X55420700Y3565936D01*
X55400417Y3360000D01*
X54971583Y3360000D01*
X54951300Y3565934D01*
X54891232Y3763954D01*
X54793685Y3946450D01*
X54662410Y4106410D01*
X54502450Y4237685D01*
X54392257Y4296585D01*
X54319956Y4335231D01*
X54319955Y4335232D01*
X54319954Y4335232D01*
X54208158Y4369145D01*
X54121935Y4395300D01*
X53916000Y4415583D01*
X53710064Y4395300D01*
X53512043Y4335231D01*
X53329549Y4237685D01*
X53169590Y4106411D01*
X53169589Y4106410D01*
X53038315Y3946451D01*
X52940769Y3763957D01*
X52880700Y3565936D01*
X52860417Y3360000D01*
X49891583Y3360000D01*
X49871300Y3565934D01*
X49811232Y3763954D01*
X49713685Y3946450D01*
X49582410Y4106410D01*
X49422450Y4237685D01*
X49312257Y4296585D01*
X49239956Y4335231D01*
X49239955Y4335232D01*
X49239954Y4335232D01*
X49128158Y4369145D01*
X49041935Y4395300D01*
X48836000Y4415583D01*
X48630064Y4395300D01*
X48432043Y4335231D01*
X48249549Y4237685D01*
X48089590Y4106411D01*
X48089589Y4106410D01*
X47958315Y3946451D01*
X47860769Y3763957D01*
X47800700Y3565936D01*
X47780417Y3360000D01*
X47351583Y3360000D01*
X47331300Y3565934D01*
X47271232Y3763954D01*
X47173685Y3946450D01*
X47042410Y4106410D01*
X46882450Y4237685D01*
X46772257Y4296585D01*
X46699956Y4335231D01*
X46699955Y4335232D01*
X46699954Y4335232D01*
X46588158Y4369145D01*
X46501935Y4395300D01*
X46296000Y4415583D01*
X46090064Y4395300D01*
X45892043Y4335231D01*
X45709549Y4237685D01*
X45549590Y4106411D01*
X45549589Y4106410D01*
X45418315Y3946451D01*
X45320769Y3763957D01*
X45260700Y3565936D01*
X45240417Y3360000D01*
X44811583Y3360000D01*
X44791300Y3565934D01*
X44731232Y3763954D01*
X44633685Y3946450D01*
X44502410Y4106410D01*
X44342450Y4237685D01*
X44232257Y4296585D01*
X44159956Y4335231D01*
X44159955Y4335232D01*
X44159954Y4335232D01*
X44048158Y4369145D01*
X43961935Y4395300D01*
X43756000Y4415583D01*
X43550064Y4395300D01*
X43352043Y4335231D01*
X43169549Y4237685D01*
X43009590Y4106411D01*
X43009589Y4106410D01*
X42878315Y3946451D01*
X42780769Y3763957D01*
X42720700Y3565936D01*
X42700417Y3360000D01*
X39731583Y3360000D01*
X39711300Y3565934D01*
X39651232Y3763954D01*
X39553685Y3946450D01*
X39422410Y4106410D01*
X39262450Y4237685D01*
X39152257Y4296585D01*
X39079956Y4335231D01*
X39079955Y4335232D01*
X39079954Y4335232D01*
X38968158Y4369145D01*
X38881935Y4395300D01*
X38676000Y4415583D01*
X38470064Y4395300D01*
X38272043Y4335231D01*
X38089549Y4237685D01*
X37929590Y4106411D01*
X37929589Y4106410D01*
X37798315Y3946451D01*
X37700769Y3763957D01*
X37640700Y3565936D01*
X37620417Y3360000D01*
X37191583Y3360000D01*
X37171300Y3565934D01*
X37111232Y3763954D01*
X37013685Y3946450D01*
X36882410Y4106410D01*
X36722450Y4237685D01*
X36612257Y4296585D01*
X36539956Y4335231D01*
X36539955Y4335232D01*
X36539954Y4335232D01*
X36428158Y4369145D01*
X36341935Y4395300D01*
X36136000Y4415583D01*
X35930064Y4395300D01*
X35732043Y4335231D01*
X35549549Y4237685D01*
X35389590Y4106411D01*
X35389589Y4106410D01*
X35258315Y3946451D01*
X35160769Y3763957D01*
X35100700Y3565936D01*
X35080417Y3360000D01*
X32111583Y3360000D01*
X32091300Y3565934D01*
X32031232Y3763954D01*
X31933685Y3946450D01*
X31802410Y4106410D01*
X31642450Y4237685D01*
X31532257Y4296585D01*
X31459956Y4335231D01*
X31459955Y4335232D01*
X31459954Y4335232D01*
X31348158Y4369145D01*
X31261935Y4395300D01*
X31056000Y4415583D01*
X30850064Y4395300D01*
X30652043Y4335231D01*
X30469549Y4237685D01*
X30309590Y4106411D01*
X30309589Y4106410D01*
X30178315Y3946451D01*
X30080769Y3763957D01*
X30020700Y3565936D01*
X30000417Y3360000D01*
X29571583Y3360000D01*
X29551300Y3565934D01*
X29491232Y3763954D01*
X29393685Y3946450D01*
X29262410Y4106410D01*
X29102450Y4237685D01*
X28992257Y4296585D01*
X28919956Y4335231D01*
X28919955Y4335232D01*
X28919954Y4335232D01*
X28808158Y4369145D01*
X28721935Y4395300D01*
X28516000Y4415583D01*
X28310064Y4395300D01*
X28112042Y4335231D01*
X28088139Y4322455D01*
X28038028Y4315303D01*
X28000933Y4335393D01*
X27769971Y4566355D01*
X59750656Y4566355D01*
X59781315Y4313843D01*
X59781319Y4313826D01*
X59852086Y4069509D01*
X59852089Y4069500D01*
X59961134Y3839694D01*
X59961136Y3839691D01*
X59961137Y3839689D01*
X59961138Y3839688D01*
X60105639Y3630341D01*
X60281851Y3446885D01*
X60485209Y3294071D01*
X60710447Y3175857D01*
X60951731Y3095305D01*
X61202812Y3054500D01*
X61202815Y3054500D01*
X61393482Y3054500D01*
X61583549Y3069844D01*
X61830532Y3130720D01*
X62064552Y3230426D01*
X62279547Y3366381D01*
X62469950Y3535063D01*
X62630828Y3732103D01*
X62758015Y3952398D01*
X62848218Y4190243D01*
X62899099Y4439477D01*
X62909342Y4693645D01*
X62878681Y4946166D01*
X62842880Y5069763D01*
X62807911Y5190492D01*
X62807908Y5190501D01*
X62698863Y5420307D01*
X62698861Y5420310D01*
X62624600Y5527896D01*
X62554359Y5629659D01*
X62378147Y5813115D01*
X62174789Y5965929D01*
X61949551Y6084143D01*
X61708267Y6164695D01*
X61457186Y6205500D01*
X61266516Y6205500D01*
X61076451Y6190157D01*
X60829468Y6129281D01*
X60595447Y6029575D01*
X60380450Y5893619D01*
X60190045Y5724935D01*
X60029168Y5527896D01*
X59901983Y5307604D01*
X59901979Y5307595D01*
X59811781Y5069763D01*
X59811781Y5069761D01*
X59811780Y5069759D01*
X59811780Y5069757D01*
X59803715Y5030252D01*
X59760898Y4820520D01*
X59750656Y4566355D01*
X27769971Y4566355D01*
X27593133Y4743193D01*
X27571741Y4789069D01*
X27571459Y4795486D01*
X27571365Y5188296D01*
X27588666Y5235864D01*
X27632498Y5261184D01*
X27682350Y5252406D01*
X27702568Y5235256D01*
X27739298Y5190501D01*
X27769590Y5153590D01*
X27929550Y5022315D01*
X28112046Y4924768D01*
X28310066Y4864700D01*
X28516000Y4844417D01*
X28721934Y4864700D01*
X28919954Y4924768D01*
X29102450Y5022315D01*
X29262410Y5153590D01*
X29393685Y5313550D01*
X29491232Y5496046D01*
X29551300Y5694066D01*
X29571583Y5900000D01*
X30000417Y5900000D01*
X30008974Y5813115D01*
X30020700Y5694066D01*
X30080768Y5496046D01*
X30178315Y5313550D01*
X30309590Y5153590D01*
X30469550Y5022315D01*
X30652046Y4924768D01*
X30850066Y4864700D01*
X31056000Y4844417D01*
X31261934Y4864700D01*
X31459954Y4924768D01*
X31642450Y5022315D01*
X31802410Y5153590D01*
X31933685Y5313550D01*
X32031232Y5496046D01*
X32091300Y5694066D01*
X32111583Y5900000D01*
X32091300Y6105934D01*
X32031232Y6303954D01*
X31933685Y6486450D01*
X31802410Y6646410D01*
X31642450Y6777685D01*
X31459954Y6875232D01*
X31307378Y6921515D01*
X31261935Y6935300D01*
X31056000Y6955583D01*
X30850064Y6935300D01*
X30715736Y6894552D01*
X30652050Y6875233D01*
X30652043Y6875231D01*
X30469549Y6777685D01*
X30309590Y6646411D01*
X30309589Y6646410D01*
X30178315Y6486451D01*
X30080769Y6303957D01*
X30020700Y6105936D01*
X30000417Y5900000D01*
X29571583Y5900000D01*
X29551300Y6105934D01*
X29491232Y6303954D01*
X29393685Y6486450D01*
X29262410Y6646410D01*
X29102450Y6777685D01*
X28945770Y6861433D01*
X28911983Y6899123D01*
X28910327Y6949715D01*
X28934063Y6984185D01*
X29910980Y7775851D01*
X29916419Y7779859D01*
X29948624Y7801376D01*
X29968935Y7831776D01*
X29973528Y7837930D01*
X29996905Y7866055D01*
X29998108Y7869937D01*
X30007259Y7889129D01*
X30009515Y7892505D01*
X30016650Y7928379D01*
X30018535Y7935809D01*
X30029368Y7970737D01*
X30025813Y8009278D01*
X30025500Y8016076D01*
X30025500Y8680222D01*
X30042813Y8727788D01*
X30086650Y8753098D01*
X30136500Y8744308D01*
X30140607Y8741753D01*
X30142505Y8740485D01*
X30142507Y8740484D01*
X30149240Y8737695D01*
X30148943Y8736979D01*
X30160518Y8732522D01*
X30800814Y8349799D01*
X33119735Y6963713D01*
X33151681Y6924449D01*
X33150914Y6873836D01*
X33117793Y6835557D01*
X33116652Y6834934D01*
X33009549Y6777685D01*
X32849590Y6646411D01*
X32849589Y6646410D01*
X32718315Y6486451D01*
X32620769Y6303957D01*
X32560700Y6105936D01*
X32540417Y5900000D01*
X32548974Y5813115D01*
X32560700Y5694066D01*
X32620768Y5496046D01*
X32718315Y5313550D01*
X32849590Y5153590D01*
X33009550Y5022315D01*
X33192046Y4924768D01*
X33390066Y4864700D01*
X33596000Y4844417D01*
X33801934Y4864700D01*
X33999954Y4924768D01*
X34182450Y5022315D01*
X34342410Y5153590D01*
X34473685Y5313550D01*
X34571232Y5496046D01*
X34631300Y5694066D01*
X34651583Y5900000D01*
X35080417Y5900000D01*
X35088974Y5813115D01*
X35100700Y5694066D01*
X35160768Y5496046D01*
X35258315Y5313550D01*
X35389590Y5153590D01*
X35549550Y5022315D01*
X35732046Y4924768D01*
X35930066Y4864700D01*
X36136000Y4844417D01*
X36341934Y4864700D01*
X36539954Y4924768D01*
X36722450Y5022315D01*
X36882410Y5153590D01*
X37013685Y5313550D01*
X37111232Y5496046D01*
X37171300Y5694066D01*
X37191583Y5900000D01*
X37620417Y5900000D01*
X37628974Y5813115D01*
X37640700Y5694066D01*
X37700768Y5496046D01*
X37798315Y5313550D01*
X37929590Y5153590D01*
X38089550Y5022315D01*
X38272046Y4924768D01*
X38470066Y4864700D01*
X38676000Y4844417D01*
X38881934Y4864700D01*
X39079954Y4924768D01*
X39262450Y5022315D01*
X39422410Y5153590D01*
X39553685Y5313550D01*
X39651232Y5496046D01*
X39711300Y5694066D01*
X39731583Y5900000D01*
X40160417Y5900000D01*
X40168974Y5813115D01*
X40180700Y5694066D01*
X40240768Y5496046D01*
X40338315Y5313550D01*
X40469590Y5153590D01*
X40629550Y5022315D01*
X40812046Y4924768D01*
X41010066Y4864700D01*
X41216000Y4844417D01*
X41421934Y4864700D01*
X41619954Y4924768D01*
X41802450Y5022315D01*
X41962410Y5153590D01*
X42093685Y5313550D01*
X42191232Y5496046D01*
X42251300Y5694066D01*
X42271583Y5900000D01*
X42700417Y5900000D01*
X42708974Y5813115D01*
X42720700Y5694066D01*
X42780768Y5496046D01*
X42878315Y5313550D01*
X43009590Y5153590D01*
X43169550Y5022315D01*
X43352046Y4924768D01*
X43550066Y4864700D01*
X43756000Y4844417D01*
X43961934Y4864700D01*
X44159954Y4924768D01*
X44342450Y5022315D01*
X44502410Y5153590D01*
X44633685Y5313550D01*
X44731232Y5496046D01*
X44791300Y5694066D01*
X44811583Y5900000D01*
X47780417Y5900000D01*
X47788974Y5813115D01*
X47800700Y5694066D01*
X47860768Y5496046D01*
X47958315Y5313550D01*
X48089590Y5153590D01*
X48249550Y5022315D01*
X48432046Y4924768D01*
X48630066Y4864700D01*
X48836000Y4844417D01*
X49041934Y4864700D01*
X49239954Y4924768D01*
X49422450Y5022315D01*
X49582410Y5153590D01*
X49713685Y5313550D01*
X49811232Y5496046D01*
X49871300Y5694066D01*
X49891583Y5900000D01*
X50320417Y5900000D01*
X50328974Y5813115D01*
X50340700Y5694066D01*
X50400768Y5496046D01*
X50498315Y5313550D01*
X50629590Y5153590D01*
X50789550Y5022315D01*
X50972046Y4924768D01*
X51170066Y4864700D01*
X51376000Y4844417D01*
X51581934Y4864700D01*
X51779954Y4924768D01*
X51962450Y5022315D01*
X52122410Y5153590D01*
X52253685Y5313550D01*
X52351232Y5496046D01*
X52411300Y5694066D01*
X52431583Y5900000D01*
X52860417Y5900000D01*
X52868974Y5813115D01*
X52880700Y5694066D01*
X52940768Y5496046D01*
X53038315Y5313550D01*
X53169590Y5153590D01*
X53329550Y5022315D01*
X53512046Y4924768D01*
X53710066Y4864700D01*
X53916000Y4844417D01*
X54121934Y4864700D01*
X54319954Y4924768D01*
X54502450Y5022315D01*
X54512124Y5030254D01*
X55405500Y5030254D01*
X55417133Y4971768D01*
X55434246Y4946158D01*
X55461448Y4905448D01*
X55505560Y4875973D01*
X55527767Y4861134D01*
X55527768Y4861134D01*
X55527769Y4861133D01*
X55586252Y4849500D01*
X55586254Y4849500D01*
X57325746Y4849500D01*
X57325748Y4849500D01*
X57384231Y4861133D01*
X57450552Y4905448D01*
X57494867Y4971769D01*
X57506500Y5030252D01*
X57506500Y6769748D01*
X57494867Y6828231D01*
X57450552Y6894552D01*
X57405809Y6924449D01*
X57384232Y6938867D01*
X57384233Y6938867D01*
X57354989Y6944684D01*
X57325748Y6950500D01*
X55586252Y6950500D01*
X55557010Y6944684D01*
X55527767Y6938867D01*
X55461449Y6894553D01*
X55461447Y6894551D01*
X55417133Y6828233D01*
X55405500Y6769747D01*
X55405500Y5030254D01*
X54512124Y5030254D01*
X54662410Y5153590D01*
X54793685Y5313550D01*
X54891232Y5496046D01*
X54951300Y5694066D01*
X54971583Y5900000D01*
X54951300Y6105934D01*
X54891232Y6303954D01*
X54793685Y6486450D01*
X54662410Y6646410D01*
X54502450Y6777685D01*
X54319954Y6875232D01*
X54167378Y6921515D01*
X54121935Y6935300D01*
X53916000Y6955583D01*
X53710064Y6935300D01*
X53575736Y6894552D01*
X53512050Y6875233D01*
X53512043Y6875231D01*
X53329549Y6777685D01*
X53169590Y6646411D01*
X53169589Y6646410D01*
X53038315Y6486451D01*
X52940769Y6303957D01*
X52880700Y6105936D01*
X52860417Y5900000D01*
X52431583Y5900000D01*
X52411300Y6105934D01*
X52351232Y6303954D01*
X52253685Y6486450D01*
X52122410Y6646410D01*
X51962450Y6777685D01*
X51779954Y6875232D01*
X51627378Y6921515D01*
X51581935Y6935300D01*
X51376000Y6955583D01*
X51170064Y6935300D01*
X51035736Y6894552D01*
X50972050Y6875233D01*
X50972043Y6875231D01*
X50789549Y6777685D01*
X50629590Y6646411D01*
X50629589Y6646410D01*
X50498315Y6486451D01*
X50400769Y6303957D01*
X50340700Y6105936D01*
X50320417Y5900000D01*
X49891583Y5900000D01*
X49871300Y6105934D01*
X49811232Y6303954D01*
X49713685Y6486450D01*
X49582410Y6646410D01*
X49422450Y6777685D01*
X49239954Y6875232D01*
X49087378Y6921515D01*
X49041935Y6935300D01*
X48836000Y6955583D01*
X48630064Y6935300D01*
X48495736Y6894552D01*
X48432050Y6875233D01*
X48432043Y6875231D01*
X48249549Y6777685D01*
X48089590Y6646411D01*
X48089589Y6646410D01*
X47958315Y6486451D01*
X47860769Y6303957D01*
X47800700Y6105936D01*
X47780417Y5900000D01*
X44811583Y5900000D01*
X44791300Y6105934D01*
X44731232Y6303954D01*
X44633685Y6486450D01*
X44502410Y6646410D01*
X44342450Y6777685D01*
X44159954Y6875232D01*
X44007378Y6921515D01*
X43961935Y6935300D01*
X43756000Y6955583D01*
X43550064Y6935300D01*
X43415736Y6894552D01*
X43352050Y6875233D01*
X43352043Y6875231D01*
X43169549Y6777685D01*
X43009590Y6646411D01*
X43009589Y6646410D01*
X42878315Y6486451D01*
X42780769Y6303957D01*
X42720700Y6105936D01*
X42700417Y5900000D01*
X42271583Y5900000D01*
X42251300Y6105934D01*
X42191232Y6303954D01*
X42093685Y6486450D01*
X41962410Y6646410D01*
X41802450Y6777685D01*
X41619954Y6875232D01*
X41467378Y6921515D01*
X41421935Y6935300D01*
X41216000Y6955583D01*
X41010064Y6935300D01*
X40875736Y6894552D01*
X40812050Y6875233D01*
X40812043Y6875231D01*
X40629549Y6777685D01*
X40469590Y6646411D01*
X40469589Y6646410D01*
X40338315Y6486451D01*
X40240769Y6303957D01*
X40180700Y6105936D01*
X40160417Y5900000D01*
X39731583Y5900000D01*
X39711300Y6105934D01*
X39651232Y6303954D01*
X39553685Y6486450D01*
X39422410Y6646410D01*
X39262450Y6777685D01*
X39079954Y6875232D01*
X38927378Y6921515D01*
X38881935Y6935300D01*
X38676000Y6955583D01*
X38470064Y6935300D01*
X38335736Y6894552D01*
X38272050Y6875233D01*
X38272043Y6875231D01*
X38089549Y6777685D01*
X37929590Y6646411D01*
X37929589Y6646410D01*
X37798315Y6486451D01*
X37700769Y6303957D01*
X37640700Y6105936D01*
X37620417Y5900000D01*
X37191583Y5900000D01*
X37171300Y6105934D01*
X37111232Y6303954D01*
X37013685Y6486450D01*
X36882410Y6646410D01*
X36722450Y6777685D01*
X36539954Y6875232D01*
X36387378Y6921515D01*
X36341935Y6935300D01*
X36136000Y6955583D01*
X35930064Y6935300D01*
X35795736Y6894552D01*
X35732050Y6875233D01*
X35732043Y6875231D01*
X35549549Y6777685D01*
X35389590Y6646411D01*
X35389589Y6646410D01*
X35258315Y6486451D01*
X35160769Y6303957D01*
X35100700Y6105936D01*
X35080417Y5900000D01*
X34651583Y5900000D01*
X34631300Y6105934D01*
X34571232Y6303954D01*
X34473685Y6486450D01*
X34342410Y6646410D01*
X34182450Y6777685D01*
X33999954Y6875232D01*
X33999953Y6875233D01*
X33999952Y6875233D01*
X33999951Y6875234D01*
X33926048Y6897652D01*
X33885555Y6928027D01*
X33873623Y6964744D01*
X33871594Y7005045D01*
X33871500Y7008766D01*
X33871500Y7027132D01*
X33871499Y7027139D01*
X33871194Y7028672D01*
X33869864Y7039386D01*
X33868395Y7068583D01*
X33863475Y7078953D01*
X33857755Y7096231D01*
X33855515Y7107495D01*
X33855513Y7107498D01*
X33855513Y7107499D01*
X33855513Y7107500D01*
X33839272Y7131804D01*
X33833945Y7141193D01*
X33821415Y7167604D01*
X33819653Y7169197D01*
X33812899Y7175304D01*
X33801000Y7189082D01*
X33794625Y7198623D01*
X33794623Y7198625D01*
X33770317Y7214866D01*
X33761800Y7221505D01*
X33760639Y7222555D01*
X33760638Y7222556D01*
X33749834Y7229013D01*
X33744880Y7231974D01*
X33741754Y7233951D01*
X33715532Y7251472D01*
X33703496Y7259515D01*
X33696764Y7262303D01*
X33697060Y7263019D01*
X33685484Y7267477D01*
X33552808Y7346781D01*
X33129173Y7600000D01*
X30561533Y9134753D01*
X30529587Y9174018D01*
X30525500Y9198271D01*
X30525500Y17035444D01*
X30537972Y17076557D01*
X30538506Y17077356D01*
X30560240Y17109883D01*
X30575500Y17186599D01*
X30575500Y17186601D01*
X30924500Y17186601D01*
X30939760Y17109883D01*
X30991046Y17033127D01*
X30997888Y17022888D01*
X31084883Y16964760D01*
X31161599Y16949500D01*
X31338400Y16949501D01*
X31415117Y16964760D01*
X31502112Y17022888D01*
X31560240Y17109883D01*
X31575500Y17186599D01*
X31575499Y17938400D01*
X31560240Y18015117D01*
X31502112Y18102112D01*
X31491399Y18109270D01*
X31415117Y18160240D01*
X31402986Y18162653D01*
X31338401Y18175500D01*
X31338399Y18175500D01*
X31161600Y18175500D01*
X31084882Y18160240D01*
X30997888Y18102113D01*
X30997887Y18102112D01*
X30939760Y18015118D01*
X30932434Y17978285D01*
X30925454Y17943194D01*
X30924500Y17938400D01*
X30924500Y17186601D01*
X30575500Y17186601D01*
X30575499Y17938400D01*
X30560240Y18015117D01*
X30502112Y18102112D01*
X30491399Y18109270D01*
X30415117Y18160240D01*
X30402986Y18162653D01*
X30338401Y18175500D01*
X30338399Y18175500D01*
X30161600Y18175500D01*
X30084882Y18160240D01*
X30084879Y18160239D01*
X30041111Y18130994D01*
X29991943Y18118963D01*
X29958889Y18130994D01*
X29915118Y18160240D01*
X29889545Y18165327D01*
X29838401Y18175500D01*
X29838399Y18175500D01*
X29661600Y18175500D01*
X29584882Y18160240D01*
X29584879Y18160239D01*
X29541111Y18130994D01*
X29491943Y18118963D01*
X29458889Y18130994D01*
X29415118Y18160240D01*
X29389545Y18165327D01*
X29338401Y18175500D01*
X29338399Y18175500D01*
X29161600Y18175500D01*
X29084882Y18160240D01*
X29084879Y18160239D01*
X29041111Y18130994D01*
X28991943Y18118963D01*
X28958889Y18130994D01*
X28915118Y18160240D01*
X28889545Y18165327D01*
X28838401Y18175500D01*
X28838399Y18175500D01*
X28661600Y18175500D01*
X28584882Y18160240D01*
X28544575Y18133309D01*
X28495406Y18121279D01*
X28462355Y18133309D01*
X28444846Y18145007D01*
X28438566Y18149203D01*
X28438564Y18149204D01*
X28390734Y18169016D01*
X28390723Y18169019D01*
X28312500Y18184578D01*
X28312499Y18184578D01*
X28293757Y18180850D01*
X28279321Y18179428D01*
X28274068Y18179428D01*
X28259632Y18180850D01*
X28242412Y18184276D01*
X28199139Y18210536D01*
X28184274Y18242417D01*
X28180850Y18259632D01*
X28179428Y18274068D01*
X28179428Y18279320D01*
X28180850Y18293757D01*
X28184578Y18312500D01*
X28173762Y18366874D01*
X28169017Y18390730D01*
X28150208Y18436140D01*
X28149619Y18437717D01*
X28149203Y18438566D01*
X28149202Y18438569D01*
X28133309Y18462354D01*
X28121277Y18511522D01*
X28133309Y18544579D01*
X28160240Y18584883D01*
X28175500Y18661599D01*
X28175499Y18838400D01*
X28160240Y18915117D01*
X28130992Y18958889D01*
X28118962Y19008056D01*
X28130993Y19041112D01*
X28137367Y19050651D01*
X28160240Y19084883D01*
X28175500Y19161599D01*
X28175499Y19338400D01*
X28160240Y19415117D01*
X28102112Y19502112D01*
X28096667Y19505750D01*
X28015117Y19560240D01*
X27938401Y19575500D01*
X27938399Y19575500D01*
X27186600Y19575500D01*
X27109882Y19560240D01*
X27109879Y19560239D01*
X27090611Y19547364D01*
X27041443Y19535333D01*
X26996044Y19557722D01*
X26975658Y19604054D01*
X26975500Y19608893D01*
X26975500Y19891108D01*
X26992813Y19938674D01*
X27036650Y19963984D01*
X27086500Y19955194D01*
X27090609Y19952639D01*
X27109883Y19939760D01*
X27186599Y19924500D01*
X27938400Y19924501D01*
X28015117Y19939760D01*
X28102112Y19997888D01*
X28160240Y20084883D01*
X28175500Y20161599D01*
X28175499Y20338400D01*
X28160240Y20415117D01*
X28102112Y20502112D01*
X28067109Y20525500D01*
X28015117Y20560240D01*
X27938401Y20575500D01*
X27938399Y20575500D01*
X27186600Y20575500D01*
X27109882Y20560240D01*
X27076555Y20537971D01*
X27035443Y20525500D01*
X26734420Y20525500D01*
X26719984Y20526922D01*
X26700000Y20530897D01*
X26699999Y20530897D01*
X26672866Y20525501D01*
X26672867Y20525500D01*
X26592504Y20509515D01*
X26501377Y20448625D01*
X26501375Y20448623D01*
X26440485Y20357496D01*
X26419103Y20250000D01*
X26423078Y20230017D01*
X26424500Y20215580D01*
X26424500Y19167858D01*
X26407187Y19120292D01*
X26363350Y19094982D01*
X26351923Y19093872D01*
X26103455Y19089094D01*
X26055564Y19105489D01*
X26036098Y19129485D01*
X25998528Y19203220D01*
X25903219Y19298529D01*
X25783126Y19359719D01*
X25783125Y19359720D01*
X25683489Y19375500D01*
X25683488Y19375500D01*
X25116512Y19375500D01*
X25116511Y19375500D01*
X25016874Y19359720D01*
X25016873Y19359719D01*
X24896780Y19298529D01*
X24801474Y19203223D01*
X24801472Y19203221D01*
X24801472Y19203220D01*
X24756981Y19115903D01*
X24719963Y19081383D01*
X24691049Y19075500D01*
X24508951Y19075500D01*
X24461385Y19092813D01*
X24443019Y19115901D01*
X24398528Y19203220D01*
X24303220Y19298528D01*
X24303219Y19298529D01*
X24183126Y19359719D01*
X24183125Y19359720D01*
X24083489Y19375500D01*
X24083488Y19375500D01*
X23516512Y19375500D01*
X23516511Y19375500D01*
X23416874Y19359720D01*
X23416873Y19359719D01*
X23296780Y19298529D01*
X23201474Y19203223D01*
X23201472Y19203221D01*
X23201472Y19203220D01*
X23156981Y19115903D01*
X23119963Y19081383D01*
X23091049Y19075500D01*
X22974110Y19075500D01*
X22926544Y19092813D01*
X22908176Y19115904D01*
X22881704Y19167858D01*
X22849658Y19230751D01*
X22755751Y19324658D01*
X22755749Y19324660D01*
X22637420Y19384951D01*
X22637420Y19384952D01*
X22539247Y19400500D01*
X22539246Y19400500D01*
X22035754Y19400500D01*
X22035753Y19400500D01*
X21937579Y19384952D01*
X21937579Y19384951D01*
X21819250Y19324660D01*
X21725340Y19230750D01*
X21665049Y19112421D01*
X21665048Y19112421D01*
X21649500Y19014247D01*
X21649500Y18435754D01*
X21350500Y18435754D01*
X21350500Y19014246D01*
X21334951Y19112420D01*
X21288686Y19203220D01*
X21274659Y19230750D01*
X21180749Y19324660D01*
X21062420Y19384951D01*
X21062420Y19384952D01*
X20964247Y19400500D01*
X20964246Y19400500D01*
X20460754Y19400500D01*
X20460753Y19400500D01*
X20362579Y19384952D01*
X20362579Y19384951D01*
X20244250Y19324660D01*
X20150341Y19230751D01*
X20100320Y19132581D01*
X20063299Y19098059D01*
X20012749Y19095411D01*
X20000791Y19100243D01*
X19933130Y19134718D01*
X19933126Y19134719D01*
X19800000Y19155804D01*
X19666873Y19134720D01*
X19666873Y19134719D01*
X19546780Y19073529D01*
X19451471Y18978220D01*
X19390281Y18858127D01*
X19390280Y18858127D01*
X19369196Y18725000D01*
X15675399Y18725000D01*
X15622153Y18797147D01*
X15622146Y18797154D01*
X15512883Y18877793D01*
X15512881Y18877794D01*
X15450059Y18899777D01*
X15410880Y18931829D01*
X15400500Y18969624D01*
X15400500Y19032887D01*
X15408565Y19066480D01*
X15459719Y19166874D01*
X15480804Y19300000D01*
X15460087Y19430804D01*
X15459719Y19433127D01*
X15398528Y19553220D01*
X15303219Y19648529D01*
X15183126Y19709719D01*
X15183126Y19709720D01*
X15050000Y19730804D01*
X14916873Y19709720D01*
X14916873Y19709719D01*
X14796780Y19648529D01*
X14701471Y19553220D01*
X14640281Y19433127D01*
X14640280Y19433127D01*
X14619196Y19300000D01*
X14640280Y19166876D01*
X14640280Y19166875D01*
X14640281Y19166874D01*
X14691434Y19066480D01*
X14699500Y19032887D01*
X14699500Y18969624D01*
X14682187Y18922058D01*
X14649941Y18899777D01*
X14587118Y18877794D01*
X14587116Y18877793D01*
X14477853Y18797154D01*
X14477846Y18797147D01*
X14397207Y18687884D01*
X14397206Y18687882D01*
X14352355Y18559705D01*
X14352354Y18559701D01*
X14352354Y18559699D01*
X14349500Y18529266D01*
X14349500Y17470734D01*
X300500Y17470734D01*
X300500Y21687499D01*
X26940422Y21687499D01*
X26955983Y21609269D01*
X26955985Y21609263D01*
X26961131Y21596840D01*
X26961132Y21596839D01*
X26975794Y21561438D01*
X27020110Y21495113D01*
X27020112Y21495111D01*
X27086434Y21450797D01*
X27134270Y21430983D01*
X27172845Y21423310D01*
X27212500Y21415422D01*
X27212500Y21415423D01*
X27212501Y21415422D01*
X27231242Y21419151D01*
X27245679Y21420572D01*
X27879321Y21420572D01*
X27893757Y21419151D01*
X27912499Y21415422D01*
X27990730Y21430983D01*
X28036157Y21449800D01*
X28037723Y21450384D01*
X28038558Y21450795D01*
X28038566Y21450797D01*
X28038569Y21450798D01*
X28104890Y21495113D01*
X28149204Y21561435D01*
X28163868Y21596838D01*
X28163867Y21596839D01*
X28169016Y21609268D01*
X28184578Y21687495D01*
X28181471Y21703113D01*
X28180849Y21706246D01*
X28179428Y21720679D01*
X28179428Y21725933D01*
X28180850Y21740372D01*
X28184578Y21759110D01*
X28169018Y21837341D01*
X28169015Y21837347D01*
X28169014Y21837352D01*
X28153860Y21873937D01*
X28153838Y21873987D01*
X28149239Y21885093D01*
X28149239Y21885092D01*
X28149208Y21885167D01*
X28149198Y21885191D01*
X28113528Y21938568D01*
X28104881Y21951508D01*
X28104879Y21951510D01*
X28088992Y21962124D01*
X28077775Y21971329D01*
X28071317Y21977787D01*
X28062116Y21988999D01*
X28051492Y22004898D01*
X28007182Y22034501D01*
X27985167Y22049208D01*
X27977036Y22052576D01*
X27977029Y22052579D01*
X27937347Y22069016D01*
X27937335Y22069020D01*
X27859111Y22084578D01*
X27840369Y22080850D01*
X27825933Y22079428D01*
X27245679Y22079428D01*
X27231242Y22080850D01*
X27212501Y22084578D01*
X27212500Y22084578D01*
X27134276Y22069019D01*
X27134265Y22069016D01*
X27086447Y22049209D01*
X27086435Y22049204D01*
X27086434Y22049203D01*
X27086432Y22049202D01*
X27069741Y22038050D01*
X27020111Y22004889D01*
X27020110Y22004888D01*
X26975796Y21938566D01*
X26955983Y21890733D01*
X26955982Y21890727D01*
X26940422Y21812506D01*
X26940422Y21812505D01*
X26944150Y21793762D01*
X26945572Y21779326D01*
X26945572Y21720679D01*
X26944150Y21706243D01*
X26940422Y21687500D01*
X26940422Y21687499D01*
X300500Y21687499D01*
X300500Y39697576D01*
X17874500Y39697576D01*
X17889472Y39540780D01*
X17948683Y39339127D01*
X17948685Y39339123D01*
X18044986Y39152322D01*
X18044988Y39152319D01*
X18044989Y39152318D01*
X18174908Y38987114D01*
X18333740Y38849484D01*
X18333741Y38849484D01*
X18333744Y38849481D01*
X18515756Y38744396D01*
X18714367Y38675656D01*
X18922398Y38645746D01*
X19132330Y38655746D01*
X19336576Y38705296D01*
X19527753Y38792604D01*
X19698952Y38914514D01*
X19843986Y39066622D01*
X19957613Y39243428D01*
X20035725Y39438543D01*
X20075500Y39644915D01*
X20075500Y41602425D01*
X20060528Y41759218D01*
X20001316Y41960875D01*
X19905011Y42147682D01*
X19775092Y42312886D01*
X19691308Y42385486D01*
X19616259Y42450517D01*
X19616256Y42450519D01*
X19434244Y42555604D01*
X19400296Y42567354D01*
X19361009Y42599273D01*
X19350500Y42637284D01*
X19350500Y43550500D01*
X19367813Y43598066D01*
X19411650Y43623376D01*
X19424500Y43624500D01*
X29955500Y43624500D01*
X30003066Y43607187D01*
X30028376Y43563350D01*
X30029500Y43550500D01*
X30029500Y42724500D01*
X30012187Y42676934D01*
X29968350Y42651624D01*
X29955500Y42650500D01*
X29700734Y42650500D01*
X29670301Y42647646D01*
X29670299Y42647646D01*
X29670295Y42647645D01*
X29542118Y42602794D01*
X29542116Y42602793D01*
X29432853Y42522154D01*
X29432846Y42522147D01*
X29352207Y42412884D01*
X29352206Y42412882D01*
X29307355Y42284705D01*
X29307354Y42284701D01*
X29307354Y42284699D01*
X29304500Y42254266D01*
X29304500Y42254260D01*
X29304500Y39874000D01*
X29287187Y39826434D01*
X29243350Y39801124D01*
X29230500Y39800000D01*
X27769500Y39800000D01*
X27721934Y39817313D01*
X27696624Y39861150D01*
X27695500Y39874000D01*
X27695500Y41602418D01*
X27695500Y41602425D01*
X27680528Y41759218D01*
X27621316Y41960875D01*
X27525011Y42147682D01*
X27395092Y42312886D01*
X27311308Y42385486D01*
X27236259Y42450517D01*
X27236256Y42450519D01*
X27054244Y42555604D01*
X27054240Y42555606D01*
X27054239Y42555606D01*
X26855636Y42624343D01*
X26855633Y42624344D01*
X26647602Y42654254D01*
X26647598Y42654254D01*
X26647596Y42654254D01*
X26437668Y42644254D01*
X26233427Y42594705D01*
X26233425Y42594705D01*
X26233424Y42594704D01*
X26074554Y42522150D01*
X26042245Y42507395D01*
X25871047Y42385486D01*
X25726014Y42233380D01*
X25612385Y42056569D01*
X25534274Y41861456D01*
X25494500Y41655084D01*
X25494500Y41099500D01*
X25477187Y41051934D01*
X25433350Y41026624D01*
X25420500Y41025500D01*
X23959500Y41025500D01*
X23911934Y41042813D01*
X23886624Y41086650D01*
X23885500Y41099500D01*
X23885500Y41602418D01*
X23885500Y41602425D01*
X23870528Y41759218D01*
X23811316Y41960875D01*
X23715011Y42147682D01*
X23585092Y42312886D01*
X23501308Y42385486D01*
X23426259Y42450517D01*
X23426256Y42450519D01*
X23244244Y42555604D01*
X23244240Y42555606D01*
X23244239Y42555606D01*
X23045636Y42624343D01*
X23045633Y42624344D01*
X22837602Y42654254D01*
X22837598Y42654254D01*
X22837596Y42654254D01*
X22627668Y42644254D01*
X22423427Y42594705D01*
X22423425Y42594705D01*
X22423424Y42594704D01*
X22264554Y42522150D01*
X22232245Y42507395D01*
X22061047Y42385486D01*
X21916014Y42233380D01*
X21802385Y42056569D01*
X21724274Y41861456D01*
X21684500Y41655084D01*
X21684500Y39874000D01*
X21667187Y39826434D01*
X21623350Y39801124D01*
X21610500Y39800000D01*
X21000000Y39800000D01*
X21000000Y37220467D01*
X20999508Y37211954D01*
X20999500Y37211880D01*
X20999500Y37211876D01*
X20999500Y36788121D01*
X20999507Y36788060D01*
X21000000Y36779533D01*
X21000000Y23400000D01*
X28400500Y23400000D01*
X28448066Y23382687D01*
X28473376Y23338850D01*
X28474500Y23326000D01*
X28474500Y22964558D01*
X28462029Y22923447D01*
X28439760Y22890119D01*
X28424500Y22813400D01*
X28424500Y22061601D01*
X28439760Y21984883D01*
X28496275Y21900301D01*
X28497888Y21897888D01*
X28584883Y21839760D01*
X28661599Y21824500D01*
X28838400Y21824501D01*
X28915117Y21839760D01*
X28958888Y21869008D01*
X29008056Y21881038D01*
X29041111Y21869008D01*
X29084883Y21839760D01*
X29161599Y21824500D01*
X29338400Y21824501D01*
X29415117Y21839760D01*
X29458888Y21869008D01*
X29508056Y21881038D01*
X29541111Y21869008D01*
X29584883Y21839760D01*
X29661599Y21824500D01*
X29838400Y21824501D01*
X29915117Y21839760D01*
X29958888Y21869008D01*
X30008056Y21881038D01*
X30041111Y21869008D01*
X30084883Y21839760D01*
X30161599Y21824500D01*
X30338400Y21824501D01*
X30415117Y21839760D01*
X30458888Y21869008D01*
X30508056Y21881038D01*
X30541111Y21869008D01*
X30584883Y21839760D01*
X30661599Y21824500D01*
X30838400Y21824501D01*
X30915117Y21839760D01*
X30958888Y21869008D01*
X31008056Y21881038D01*
X31041111Y21869008D01*
X31084883Y21839760D01*
X31161599Y21824500D01*
X31338400Y21824501D01*
X31415117Y21839760D01*
X31455423Y21866693D01*
X31504587Y21878723D01*
X31537644Y21866693D01*
X31561434Y21850797D01*
X31609270Y21830983D01*
X31647845Y21823310D01*
X31687500Y21815422D01*
X31687500Y21815423D01*
X31687501Y21815422D01*
X31706242Y21819151D01*
X31720679Y21820572D01*
X31725932Y21820572D01*
X31740368Y21819150D01*
X31747040Y21817823D01*
X31757583Y21815726D01*
X31800858Y21789467D01*
X31815724Y21757589D01*
X31819150Y21740372D01*
X31820572Y21725933D01*
X31820572Y21720679D01*
X31819150Y21706243D01*
X31815422Y21687500D01*
X31815422Y21687499D01*
X31830983Y21609269D01*
X31830985Y21609263D01*
X31836131Y21596840D01*
X31836132Y21596839D01*
X31850794Y21561438D01*
X31895110Y21495113D01*
X31895112Y21495111D01*
X31961434Y21450797D01*
X32009270Y21430983D01*
X32047845Y21423310D01*
X32087500Y21415422D01*
X32087500Y21415423D01*
X32087501Y21415422D01*
X32106242Y21419151D01*
X32120679Y21420572D01*
X32754321Y21420572D01*
X32768757Y21419151D01*
X32787499Y21415422D01*
X32865730Y21430983D01*
X32911157Y21449800D01*
X32912723Y21450384D01*
X32913558Y21450795D01*
X32913566Y21450797D01*
X32913569Y21450798D01*
X32979890Y21495113D01*
X33024204Y21561435D01*
X33038868Y21596838D01*
X33038867Y21596839D01*
X33044016Y21609268D01*
X33059578Y21687495D01*
X33056471Y21703113D01*
X33055849Y21706246D01*
X33054428Y21720679D01*
X33054428Y21779320D01*
X33055850Y21793757D01*
X33058388Y21806518D01*
X33059578Y21812499D01*
X33056215Y21829404D01*
X33045138Y21885093D01*
X33044017Y21890730D01*
X33024203Y21938566D01*
X33024202Y21938568D01*
X32979888Y22004889D01*
X32978600Y22005750D01*
X32913565Y22049204D01*
X32865734Y22069016D01*
X32865723Y22069019D01*
X32787500Y22084578D01*
X32787499Y22084578D01*
X32768757Y22080850D01*
X32754321Y22079428D01*
X32174068Y22079428D01*
X32159631Y22080850D01*
X32142412Y22084276D01*
X32099139Y22110536D01*
X32084272Y22142421D01*
X32080849Y22159635D01*
X32079428Y22174067D01*
X32079428Y22550500D01*
X32096741Y22598066D01*
X32140578Y22623376D01*
X32153428Y22624500D01*
X34305221Y22624500D01*
X34352787Y22607187D01*
X34378097Y22563350D01*
X34369307Y22513500D01*
X34366750Y22509388D01*
X34365485Y22507496D01*
X34344103Y22400000D01*
X34348078Y22380017D01*
X34349500Y22365580D01*
X34349500Y21736008D01*
X34332187Y21688442D01*
X34288350Y21663132D01*
X34287077Y21662919D01*
X34266877Y21659720D01*
X34266871Y21659718D01*
X34146780Y21598529D01*
X34051471Y21503220D01*
X33990281Y21383127D01*
X33990280Y21383126D01*
X33974500Y21283489D01*
X33974500Y20716512D01*
X33991192Y20611122D01*
X33988071Y20610628D01*
X33986759Y20571852D01*
X33952928Y20534199D01*
X33918118Y20525500D01*
X32964557Y20525500D01*
X32923445Y20537971D01*
X32890117Y20560240D01*
X32813401Y20575500D01*
X32813399Y20575500D01*
X32061600Y20575500D01*
X31984882Y20560240D01*
X31897888Y20502113D01*
X31897887Y20502112D01*
X31839760Y20415118D01*
X31824500Y20338400D01*
X31824500Y20161601D01*
X31839760Y20084883D01*
X31862148Y20051376D01*
X31897888Y19997888D01*
X31984883Y19939760D01*
X32061599Y19924500D01*
X32813400Y19924501D01*
X32890117Y19939760D01*
X32923445Y19962029D01*
X32964557Y19974500D01*
X34590580Y19974500D01*
X34605015Y19973079D01*
X34625000Y19969103D01*
X34732495Y19990485D01*
X34823624Y20051376D01*
X34884515Y20142505D01*
X34900500Y20222867D01*
X34900500Y20222868D01*
X34905897Y20250000D01*
X34905861Y20250181D01*
X34905897Y20250413D01*
X34905897Y20257288D01*
X34906955Y20257288D01*
X34913560Y20300209D01*
X34951617Y20333585D01*
X34966864Y20337706D01*
X34983126Y20340281D01*
X35103220Y20401472D01*
X35198528Y20496780D01*
X35259719Y20616874D01*
X35275500Y20716512D01*
X35275500Y21283488D01*
X35265417Y21347147D01*
X35259719Y21383126D01*
X35259718Y21383127D01*
X35241363Y21419150D01*
X35198528Y21503220D01*
X35103220Y21598528D01*
X35103219Y21598529D01*
X34983128Y21659718D01*
X34983127Y21659719D01*
X34983126Y21659719D01*
X34983124Y21659720D01*
X34983122Y21659720D01*
X34962923Y21662919D01*
X34918651Y21687460D01*
X34900511Y21734717D01*
X34900500Y21736008D01*
X34900500Y22050500D01*
X34917813Y22098066D01*
X34961650Y22123376D01*
X34974500Y22124500D01*
X38200500Y22124500D01*
X38248066Y22107187D01*
X38273376Y22063350D01*
X38274500Y22050500D01*
X38274500Y21545158D01*
X38257187Y21497592D01*
X38219348Y21474714D01*
X38219551Y21474134D01*
X38216796Y21473171D01*
X38216287Y21472862D01*
X38215299Y21472647D01*
X38087118Y21427794D01*
X38087116Y21427793D01*
X37977853Y21347154D01*
X37977846Y21347147D01*
X37897207Y21237884D01*
X37897206Y21237882D01*
X37852355Y21109705D01*
X37852354Y21109701D01*
X37852354Y21109699D01*
X37849500Y21079266D01*
X37849500Y20020734D01*
X37852354Y19990301D01*
X37852354Y19990299D01*
X37852355Y19990296D01*
X37897206Y19862119D01*
X37897207Y19862117D01*
X37977846Y19752854D01*
X37977853Y19752847D01*
X38037210Y19709040D01*
X38065202Y19666865D01*
X38059534Y19616564D01*
X38022860Y19581675D01*
X37993268Y19575500D01*
X32061600Y19575500D01*
X31984882Y19560240D01*
X31897888Y19502113D01*
X31897887Y19502112D01*
X31839760Y19415118D01*
X31833148Y19381878D01*
X31826515Y19348528D01*
X31824500Y19338400D01*
X31824500Y19161601D01*
X31839760Y19084883D01*
X31839761Y19084880D01*
X31869006Y19041111D01*
X31881037Y18991943D01*
X31869006Y18958889D01*
X31839760Y18915119D01*
X31824500Y18838400D01*
X31824500Y18661601D01*
X31839760Y18584883D01*
X31839761Y18584880D01*
X31866690Y18544577D01*
X31878721Y18495409D01*
X31866692Y18462357D01*
X31850796Y18438566D01*
X31830983Y18390733D01*
X31830982Y18390727D01*
X31819717Y18334096D01*
X31815422Y18312505D01*
X31819063Y18294196D01*
X31819150Y18293762D01*
X31820572Y18279326D01*
X31820572Y18274064D01*
X31819150Y18259628D01*
X31816595Y18246780D01*
X31815422Y18240884D01*
X31829719Y18169016D01*
X31830986Y18162650D01*
X31838434Y18144669D01*
X31838435Y18144668D01*
X31846440Y18125341D01*
X31850316Y18115985D01*
X31850704Y18115001D01*
X31850800Y18114813D01*
X31850802Y18114809D01*
X31876303Y18076650D01*
X31895120Y18048491D01*
X31911008Y18037876D01*
X31922225Y18028671D01*
X31928682Y18022214D01*
X31937878Y18011009D01*
X31948509Y17995102D01*
X32014833Y17950792D01*
X32022419Y17947651D01*
X32022432Y17947645D01*
X32027253Y17945648D01*
X32027256Y17945646D01*
X32062659Y17930982D01*
X32140889Y17915422D01*
X32159630Y17919151D01*
X32174067Y17920572D01*
X32275325Y17920572D01*
X32317130Y17907632D01*
X33134598Y17347924D01*
X33142306Y17342647D01*
X33171774Y17301490D01*
X33174500Y17281588D01*
X33174500Y17016512D01*
X33190280Y16916875D01*
X33190281Y16916874D01*
X33248277Y16803049D01*
X33251472Y16796780D01*
X33346780Y16701472D01*
X33434095Y16656983D01*
X33468616Y16619963D01*
X33474499Y16591049D01*
X33474499Y16408952D01*
X33457186Y16361386D01*
X33434095Y16343018D01*
X33346778Y16298527D01*
X33251471Y16203220D01*
X33190281Y16083127D01*
X33190280Y16083126D01*
X33174500Y15983489D01*
X33174500Y15416512D01*
X33190280Y15316875D01*
X33190281Y15316874D01*
X33225995Y15246780D01*
X33251472Y15196780D01*
X33346780Y15101472D01*
X33428564Y15059801D01*
X33463086Y15022781D01*
X33468966Y14993289D01*
X33467513Y14807235D01*
X33449829Y14759805D01*
X33427111Y14741879D01*
X33344248Y14699658D01*
X33250340Y14605750D01*
X33190049Y14487421D01*
X33190048Y14487421D01*
X33174500Y14389247D01*
X33174500Y13810754D01*
X33190049Y13712580D01*
X33250340Y13594251D01*
X33344250Y13500341D01*
X33391069Y13476486D01*
X33462579Y13440050D01*
X33462579Y13440049D01*
X33560753Y13424500D01*
X33560754Y13424500D01*
X34064247Y13424500D01*
X34162420Y13440049D01*
X34280751Y13500342D01*
X34374658Y13594249D01*
X34434951Y13712580D01*
X34450500Y13810754D01*
X34749500Y13810754D01*
X34765049Y13712580D01*
X34825340Y13594251D01*
X34919250Y13500341D01*
X34966069Y13476486D01*
X35037579Y13440050D01*
X35037579Y13440049D01*
X35135753Y13424500D01*
X35135754Y13424500D01*
X35639247Y13424500D01*
X35737420Y13440049D01*
X35855751Y13500342D01*
X35949658Y13594249D01*
X35995478Y13684176D01*
X35999679Y13692420D01*
X36036699Y13726941D01*
X36087249Y13729590D01*
X36099208Y13724759D01*
X36166874Y13690281D01*
X36300000Y13669196D01*
X36433126Y13690281D01*
X36553220Y13751472D01*
X36648528Y13846780D01*
X36709719Y13966874D01*
X36730804Y14100000D01*
X36709719Y14233126D01*
X36709719Y14233127D01*
X36648528Y14353220D01*
X36553219Y14448529D01*
X36433126Y14509719D01*
X36433126Y14509720D01*
X36300000Y14530804D01*
X36166873Y14509719D01*
X36099208Y14475242D01*
X36048966Y14469074D01*
X36006514Y14496643D01*
X35999679Y14507581D01*
X35952433Y14600304D01*
X35949658Y14605751D01*
X35855751Y14699658D01*
X35855749Y14699660D01*
X35737420Y14759951D01*
X35737420Y14759952D01*
X35639247Y14775500D01*
X35639246Y14775500D01*
X35135754Y14775500D01*
X35135753Y14775500D01*
X35037579Y14759952D01*
X35037579Y14759951D01*
X34919250Y14699660D01*
X34825340Y14605750D01*
X34765049Y14487421D01*
X34765048Y14487421D01*
X34749500Y14389247D01*
X34749500Y13810754D01*
X34450500Y13810754D01*
X34450500Y14389246D01*
X34434951Y14487420D01*
X34404804Y14546586D01*
X34374659Y14605750D01*
X34280749Y14699660D01*
X34208903Y14736267D01*
X34174381Y14773287D01*
X34168500Y14802779D01*
X34169120Y14882145D01*
X34169952Y14988802D01*
X34187636Y15036228D01*
X34210355Y15054155D01*
X34221436Y15059801D01*
X34303220Y15101472D01*
X34398528Y15196780D01*
X34459719Y15316874D01*
X34475500Y15416512D01*
X34475500Y15983488D01*
X34459719Y16083126D01*
X34398528Y16203220D01*
X34303220Y16298528D01*
X34303219Y16298529D01*
X34215904Y16343018D01*
X34181382Y16380038D01*
X34175499Y16408952D01*
X34175499Y16591048D01*
X34192812Y16638614D01*
X34215904Y16656982D01*
X34266798Y16682914D01*
X34303220Y16701472D01*
X34398528Y16796780D01*
X34459719Y16916874D01*
X34475500Y17016512D01*
X34475500Y17583488D01*
X34459719Y17683126D01*
X34398528Y17803220D01*
X34303220Y17898528D01*
X34303219Y17898529D01*
X34183126Y17959719D01*
X34183125Y17959720D01*
X34083489Y17975500D01*
X34083488Y17975500D01*
X33566512Y17975500D01*
X33566510Y17975500D01*
X33508136Y17966255D01*
X33458448Y17975914D01*
X33454755Y17978285D01*
X33088736Y18228893D01*
X33059268Y18270051D01*
X33057965Y18304392D01*
X33059578Y18312499D01*
X33059578Y18312501D01*
X33054891Y18336064D01*
X33062591Y18386094D01*
X33100649Y18419469D01*
X33127469Y18424500D01*
X42689439Y18424500D01*
X42737005Y18407187D01*
X42741765Y18402826D01*
X42744250Y18400341D01*
X42772212Y18386094D01*
X42862579Y18340050D01*
X42862579Y18340049D01*
X42960753Y18324500D01*
X42960754Y18324500D01*
X43464247Y18324500D01*
X43562420Y18340049D01*
X43680751Y18400342D01*
X43774658Y18494249D01*
X43834951Y18612580D01*
X43850500Y18710754D01*
X44149500Y18710754D01*
X44165049Y18612580D01*
X44225340Y18494251D01*
X44319250Y18400341D01*
X44347212Y18386094D01*
X44437579Y18340050D01*
X44437579Y18340049D01*
X44535753Y18324500D01*
X44535754Y18324500D01*
X45039247Y18324500D01*
X45137420Y18340049D01*
X45255751Y18400342D01*
X45349658Y18494249D01*
X45409951Y18612580D01*
X45409951Y18612586D01*
X45411752Y18618122D01*
X45412999Y18617717D01*
X45434410Y18656347D01*
X45481666Y18674489D01*
X45482960Y18674500D01*
X46014304Y18674500D01*
X46061870Y18657187D01*
X46087180Y18613350D01*
X46087393Y18612077D01*
X46089354Y18599695D01*
X46089354Y18599694D01*
X46125240Y18529266D01*
X46146950Y18486658D01*
X46236658Y18396950D01*
X46349696Y18339354D01*
X46443481Y18324500D01*
X46906518Y18324501D01*
X46906519Y18324501D01*
X47000304Y18339354D01*
X47000306Y18339355D01*
X47002419Y18340432D01*
X47113342Y18396950D01*
X47203050Y18486658D01*
X47260646Y18599696D01*
X47275500Y18693481D01*
X47724500Y18693481D01*
X47739353Y18599696D01*
X47739354Y18599694D01*
X47775240Y18529266D01*
X47796950Y18486658D01*
X47886658Y18396950D01*
X47999696Y18339354D01*
X48093481Y18324500D01*
X48556518Y18324501D01*
X48556519Y18324501D01*
X48650304Y18339354D01*
X48650306Y18339355D01*
X48652419Y18340432D01*
X48763342Y18396950D01*
X48853050Y18486658D01*
X48910646Y18599696D01*
X48910646Y18599699D01*
X48913289Y18604885D01*
X48914731Y18604151D01*
X48941379Y18638256D01*
X48980592Y18649500D01*
X49132883Y18649500D01*
X49166478Y18641435D01*
X49199727Y18624494D01*
X49266874Y18590281D01*
X49400000Y18569196D01*
X49533126Y18590281D01*
X49653220Y18651472D01*
X49748528Y18746780D01*
X49809719Y18866874D01*
X49830804Y19000000D01*
X49809719Y19133126D01*
X49809719Y19133127D01*
X49748528Y19253220D01*
X49653219Y19348529D01*
X49533126Y19409719D01*
X49533126Y19409720D01*
X49400000Y19430804D01*
X49266873Y19409719D01*
X49166478Y19358565D01*
X49132883Y19350500D01*
X48980592Y19350500D01*
X48933026Y19367813D01*
X48914271Y19395616D01*
X48913289Y19395115D01*
X48910646Y19400302D01*
X48910646Y19400304D01*
X48853050Y19513342D01*
X48763342Y19603050D01*
X48650304Y19660646D01*
X48650302Y19660647D01*
X48650301Y19660647D01*
X48556519Y19675500D01*
X48093480Y19675500D01*
X47999695Y19660647D01*
X47999693Y19660646D01*
X47886657Y19603050D01*
X47796951Y19513344D01*
X47739353Y19400302D01*
X47724500Y19306520D01*
X47724500Y18693481D01*
X47275500Y18693481D01*
X47275499Y19306518D01*
X47275360Y19307394D01*
X47260646Y19400305D01*
X47260645Y19400307D01*
X47206918Y19505750D01*
X47203050Y19513342D01*
X47113342Y19603050D01*
X47000304Y19660646D01*
X47000302Y19660647D01*
X47000301Y19660647D01*
X46906519Y19675500D01*
X46443480Y19675500D01*
X46349695Y19660647D01*
X46349693Y19660646D01*
X46236657Y19603050D01*
X46146951Y19513344D01*
X46089353Y19400302D01*
X46089353Y19400301D01*
X46087393Y19387924D01*
X46062852Y19343651D01*
X46015595Y19325511D01*
X46014304Y19325500D01*
X45482960Y19325500D01*
X45435394Y19342813D01*
X45412667Y19382176D01*
X45411752Y19381878D01*
X45410352Y19386186D01*
X45410084Y19386650D01*
X45409960Y19387392D01*
X45409951Y19387417D01*
X45409951Y19387420D01*
X45379804Y19446586D01*
X45349659Y19505750D01*
X45255749Y19599660D01*
X45137420Y19659951D01*
X45137420Y19659952D01*
X45039247Y19675500D01*
X45039246Y19675500D01*
X44535754Y19675500D01*
X44535753Y19675500D01*
X44437579Y19659952D01*
X44437579Y19659951D01*
X44319250Y19599660D01*
X44225340Y19505750D01*
X44165049Y19387421D01*
X44165048Y19387421D01*
X44149500Y19289247D01*
X44149500Y18710754D01*
X43850500Y18710754D01*
X43850500Y19289246D01*
X43834951Y19387420D01*
X43804804Y19446586D01*
X43774659Y19505750D01*
X43680749Y19599660D01*
X43562420Y19659951D01*
X43562420Y19659952D01*
X43464247Y19675500D01*
X43464246Y19675500D01*
X42960754Y19675500D01*
X42960753Y19675500D01*
X42862579Y19659952D01*
X42862579Y19659951D01*
X42744250Y19599660D01*
X42650340Y19505750D01*
X42590049Y19387421D01*
X42590048Y19387421D01*
X42574500Y19289247D01*
X42574500Y19149500D01*
X42557187Y19101934D01*
X42513350Y19076624D01*
X42500500Y19075500D01*
X42388559Y19075500D01*
X42340993Y19092813D01*
X42315683Y19136650D01*
X42319023Y19174812D01*
X42325500Y19192606D01*
X42325500Y21100500D01*
X42342813Y21148066D01*
X42386650Y21173376D01*
X42399500Y21174500D01*
X42517040Y21174500D01*
X42564606Y21157187D01*
X42587332Y21117825D01*
X42588248Y21118122D01*
X42589647Y21113815D01*
X42589916Y21113350D01*
X42590039Y21112609D01*
X42590049Y21112580D01*
X42650340Y20994251D01*
X42744250Y20900341D01*
X42803414Y20870196D01*
X42862579Y20840050D01*
X42862579Y20840049D01*
X42960753Y20824500D01*
X42960754Y20824500D01*
X43464247Y20824500D01*
X43562420Y20840049D01*
X43680751Y20900342D01*
X43774658Y20994249D01*
X43834951Y21112580D01*
X43850500Y21210754D01*
X44149500Y21210754D01*
X44165049Y21112580D01*
X44225340Y20994251D01*
X44319250Y20900341D01*
X44378414Y20870196D01*
X44437579Y20840050D01*
X44437579Y20840049D01*
X44535753Y20824500D01*
X44535754Y20824500D01*
X45039247Y20824500D01*
X45137420Y20840049D01*
X45255751Y20900342D01*
X45349658Y20994249D01*
X45409951Y21112580D01*
X45409951Y21112586D01*
X45411752Y21118122D01*
X45412999Y21117717D01*
X45434410Y21156347D01*
X45481666Y21174489D01*
X45482960Y21174500D01*
X46014304Y21174500D01*
X46061870Y21157187D01*
X46087180Y21113350D01*
X46087393Y21112077D01*
X46089354Y21099695D01*
X46089354Y21099694D01*
X46143081Y20994251D01*
X46146950Y20986658D01*
X46236658Y20896950D01*
X46349696Y20839354D01*
X46443481Y20824500D01*
X46906518Y20824501D01*
X46906519Y20824501D01*
X47000304Y20839354D01*
X47000306Y20839355D01*
X47002419Y20840432D01*
X47113342Y20896950D01*
X47203050Y20986658D01*
X47260646Y21099696D01*
X47275500Y21193481D01*
X47724500Y21193481D01*
X47739353Y21099696D01*
X47739354Y21099694D01*
X47793081Y20994251D01*
X47796950Y20986658D01*
X47886658Y20896950D01*
X47999696Y20839354D01*
X48093481Y20824500D01*
X48556518Y20824501D01*
X48556519Y20824501D01*
X48650304Y20839354D01*
X48650306Y20839355D01*
X48652419Y20840432D01*
X48763342Y20896950D01*
X48853050Y20986658D01*
X48910646Y21099696D01*
X48910646Y21099699D01*
X48913289Y21104885D01*
X48914731Y21104151D01*
X48941379Y21138256D01*
X48980592Y21149500D01*
X49132883Y21149500D01*
X49166478Y21141435D01*
X49199727Y21124494D01*
X49266874Y21090281D01*
X49400000Y21069196D01*
X49533126Y21090281D01*
X49653220Y21151472D01*
X49748528Y21246780D01*
X49809719Y21366874D01*
X49830804Y21500000D01*
X49809719Y21633126D01*
X49809719Y21633127D01*
X49748528Y21753220D01*
X49653219Y21848529D01*
X49533126Y21909719D01*
X49533126Y21909720D01*
X49400000Y21930804D01*
X49266873Y21909719D01*
X49166478Y21858565D01*
X49132883Y21850500D01*
X48980592Y21850500D01*
X48933026Y21867813D01*
X48914271Y21895616D01*
X48913289Y21895115D01*
X48910646Y21900302D01*
X48910646Y21900304D01*
X48853050Y22013342D01*
X48763342Y22103050D01*
X48650304Y22160646D01*
X48650302Y22160647D01*
X48650301Y22160647D01*
X48556519Y22175500D01*
X48093480Y22175500D01*
X47999695Y22160647D01*
X47999693Y22160646D01*
X47886657Y22103050D01*
X47796951Y22013344D01*
X47739353Y21900302D01*
X47724500Y21806520D01*
X47724500Y21193481D01*
X47275500Y21193481D01*
X47275499Y21806518D01*
X47274854Y21810588D01*
X47260646Y21900305D01*
X47260645Y21900307D01*
X47221166Y21977787D01*
X47203050Y22013342D01*
X47113342Y22103050D01*
X47000304Y22160646D01*
X47000302Y22160647D01*
X47000301Y22160647D01*
X46906519Y22175500D01*
X46443480Y22175500D01*
X46349695Y22160647D01*
X46349693Y22160646D01*
X46236657Y22103050D01*
X46146951Y22013344D01*
X46089353Y21900302D01*
X46089353Y21900301D01*
X46087393Y21887924D01*
X46062852Y21843651D01*
X46015595Y21825511D01*
X46014304Y21825500D01*
X45482960Y21825500D01*
X45435394Y21842813D01*
X45412667Y21882176D01*
X45411752Y21881878D01*
X45410352Y21886186D01*
X45410084Y21886650D01*
X45409960Y21887392D01*
X45409951Y21887417D01*
X45409951Y21887420D01*
X45367197Y21971329D01*
X45349659Y22005750D01*
X45255749Y22099660D01*
X45137420Y22159951D01*
X45137420Y22159952D01*
X45039247Y22175500D01*
X45039246Y22175500D01*
X44535754Y22175500D01*
X44535753Y22175500D01*
X44437579Y22159952D01*
X44437579Y22159951D01*
X44319250Y22099660D01*
X44225340Y22005750D01*
X44165049Y21887421D01*
X44165048Y21887421D01*
X44149500Y21789247D01*
X44149500Y21210754D01*
X43850500Y21210754D01*
X43850500Y21789246D01*
X43834951Y21887420D01*
X43792197Y21971329D01*
X43774659Y22005750D01*
X43680749Y22099660D01*
X43562420Y22159951D01*
X43562420Y22159952D01*
X43464247Y22175500D01*
X43464246Y22175500D01*
X42960754Y22175500D01*
X42960753Y22175500D01*
X42862579Y22159952D01*
X42862579Y22159951D01*
X42744250Y22099660D01*
X42650340Y22005750D01*
X42590049Y21887421D01*
X42588248Y21881878D01*
X42587000Y21882284D01*
X42565590Y21843653D01*
X42518334Y21825511D01*
X42517040Y21825500D01*
X41942603Y21825500D01*
X41921507Y21817823D01*
X41909058Y21814487D01*
X41886958Y21810589D01*
X41886952Y21810587D01*
X41867517Y21799367D01*
X41855835Y21793919D01*
X41844813Y21789907D01*
X41834740Y21786240D01*
X41834738Y21786239D01*
X41834735Y21786237D01*
X41817546Y21771814D01*
X41806984Y21764418D01*
X41787545Y21753195D01*
X41787541Y21753192D01*
X41773113Y21735998D01*
X41763999Y21726884D01*
X41746809Y21712459D01*
X41746802Y21712450D01*
X41735582Y21693018D01*
X41728188Y21682458D01*
X41713763Y21665266D01*
X41713758Y21665259D01*
X41706081Y21644166D01*
X41700632Y21632480D01*
X41689410Y21613043D01*
X41685513Y21590941D01*
X41682176Y21578485D01*
X41674500Y21557395D01*
X41674500Y19649500D01*
X41657187Y19601934D01*
X41613350Y19576624D01*
X41600500Y19575500D01*
X39106732Y19575500D01*
X39059166Y19592813D01*
X39033856Y19636650D01*
X39042646Y19686500D01*
X39062790Y19709040D01*
X39122146Y19752847D01*
X39122146Y19752848D01*
X39122150Y19752850D01*
X39202793Y19862118D01*
X39247646Y19990301D01*
X39250500Y20020734D01*
X39250500Y21079266D01*
X39247646Y21109699D01*
X39246368Y21113350D01*
X39202793Y21237882D01*
X39202792Y21237884D01*
X39122153Y21347147D01*
X39122146Y21347154D01*
X39012883Y21427793D01*
X39012881Y21427794D01*
X38884700Y21472647D01*
X38883713Y21472862D01*
X38883253Y21473153D01*
X38880449Y21474134D01*
X38880676Y21474784D01*
X38840935Y21499924D01*
X38825500Y21545158D01*
X38825500Y22365580D01*
X38826922Y22380017D01*
X38830897Y22400000D01*
X38817133Y22469196D01*
X38809515Y22507495D01*
X38808249Y22509389D01*
X38807555Y22512227D01*
X38806726Y22514229D01*
X38807034Y22514357D01*
X38796219Y22558556D01*
X38818607Y22603955D01*
X38864939Y22624342D01*
X38869779Y22624500D01*
X43643100Y22624500D01*
X43690666Y22607187D01*
X43695426Y22602826D01*
X43746780Y22551472D01*
X43866873Y22490282D01*
X43866873Y22490281D01*
X43885075Y22487399D01*
X44000000Y22469196D01*
X44133126Y22490281D01*
X44253220Y22551472D01*
X44348528Y22646780D01*
X44409719Y22766874D01*
X44425500Y22866512D01*
X44425500Y25575500D01*
X44442813Y25623066D01*
X44486650Y25648376D01*
X44499500Y25649500D01*
X46028310Y25649500D01*
X46075876Y25632187D01*
X46094244Y25609096D01*
X46151472Y25496780D01*
X46246780Y25401472D01*
X46366874Y25340281D01*
X46466511Y25324500D01*
X46466512Y25324500D01*
X46983489Y25324500D01*
X47033307Y25332391D01*
X47083126Y25340281D01*
X47203220Y25401472D01*
X47298528Y25496780D01*
X47359719Y25616874D01*
X47375500Y25716512D01*
X47375500Y26283488D01*
X47372836Y26300305D01*
X47359719Y26383126D01*
X47359718Y26383127D01*
X47355755Y26390904D01*
X47298528Y26503220D01*
X47203220Y26598528D01*
X47203219Y26598529D01*
X47083126Y26659719D01*
X47083125Y26659720D01*
X46983489Y26675500D01*
X46983488Y26675500D01*
X46466512Y26675500D01*
X46466511Y26675500D01*
X46366874Y26659720D01*
X46366873Y26659719D01*
X46246780Y26598529D01*
X46151473Y26503222D01*
X46094244Y26390904D01*
X46057224Y26356382D01*
X46028310Y26350500D01*
X44499500Y26350500D01*
X44451934Y26367813D01*
X44426624Y26411650D01*
X44425500Y26424500D01*
X44425500Y27175500D01*
X44442813Y27223066D01*
X44486650Y27248376D01*
X44499500Y27249500D01*
X46028310Y27249500D01*
X46075876Y27232187D01*
X46094244Y27209096D01*
X46151472Y27096780D01*
X46246780Y27001472D01*
X46366874Y26940281D01*
X46466511Y26924500D01*
X46466512Y26924500D01*
X46983489Y26924500D01*
X47033307Y26932391D01*
X47083126Y26940281D01*
X47203220Y27001472D01*
X47298528Y27096780D01*
X47359719Y27216874D01*
X47375500Y27316512D01*
X47375500Y27883488D01*
X47359719Y27983126D01*
X47298528Y28103220D01*
X47203220Y28198528D01*
X47203219Y28198529D01*
X47083126Y28259719D01*
X47083125Y28259720D01*
X46983489Y28275500D01*
X46983488Y28275500D01*
X46466512Y28275500D01*
X46466511Y28275500D01*
X46366874Y28259720D01*
X46366873Y28259719D01*
X46246780Y28198529D01*
X46151473Y28103222D01*
X46094244Y27990904D01*
X46057224Y27956382D01*
X46028310Y27950500D01*
X44499500Y27950500D01*
X44451934Y27967813D01*
X44426624Y28011650D01*
X44425500Y28024500D01*
X44425500Y28064106D01*
X44442813Y28111672D01*
X44465899Y28130037D01*
X44505751Y28150342D01*
X44599658Y28244249D01*
X44659951Y28362580D01*
X44675500Y28460754D01*
X44675500Y28964246D01*
X44659951Y29062420D01*
X44599658Y29180751D01*
X44505751Y29274658D01*
X44505749Y29274660D01*
X44387420Y29334951D01*
X44387420Y29334952D01*
X44289247Y29350500D01*
X44289246Y29350500D01*
X43710754Y29350500D01*
X43710753Y29350500D01*
X43612579Y29334952D01*
X43612579Y29334951D01*
X43494250Y29274660D01*
X43400340Y29180750D01*
X43340049Y29062421D01*
X43340048Y29062421D01*
X43324500Y28964247D01*
X43324500Y28460754D01*
X43340049Y28362580D01*
X43400340Y28244251D01*
X43400342Y28244249D01*
X43494249Y28150342D01*
X43534097Y28130038D01*
X43568617Y28093021D01*
X43574500Y28064106D01*
X43574500Y23249500D01*
X43557187Y23201934D01*
X43513350Y23176624D01*
X43500500Y23175500D01*
X41374411Y23175500D01*
X41326845Y23192813D01*
X41301535Y23236650D01*
X41309275Y23280547D01*
X41308375Y23280874D01*
X41310232Y23285979D01*
X41310325Y23286500D01*
X41310326Y23286501D01*
X41310369Y23286577D01*
X41310588Y23286955D01*
X41325500Y23371525D01*
X41325500Y25314305D01*
X41342813Y25361871D01*
X41386650Y25387181D01*
X41387904Y25387391D01*
X41400304Y25389354D01*
X41513342Y25446950D01*
X41603050Y25536658D01*
X41660646Y25649696D01*
X41675500Y25743481D01*
X41675499Y26206518D01*
X41660646Y26300304D01*
X41660646Y26300305D01*
X41660645Y26300307D01*
X41618445Y26383127D01*
X41603050Y26413342D01*
X41513342Y26503050D01*
X41400304Y26560646D01*
X41400302Y26560647D01*
X41400301Y26560647D01*
X41306519Y26575500D01*
X40693480Y26575500D01*
X40599689Y26560646D01*
X40596860Y26559726D01*
X40594424Y26559812D01*
X40593943Y26559735D01*
X40593928Y26559829D01*
X40546272Y26561497D01*
X40508658Y26595372D01*
X40500000Y26630106D01*
X40500000Y30035754D01*
X43324500Y30035754D01*
X43340049Y29937580D01*
X43400340Y29819251D01*
X43494250Y29725341D01*
X43553414Y29695196D01*
X43612579Y29665050D01*
X43612579Y29665049D01*
X43710753Y29649500D01*
X43710754Y29649500D01*
X44289247Y29649500D01*
X44387420Y29665049D01*
X44505751Y29725342D01*
X44599658Y29819249D01*
X44659951Y29937580D01*
X44675500Y30035754D01*
X44675500Y30539246D01*
X44659951Y30637420D01*
X44599658Y30755751D01*
X44505751Y30849658D01*
X44505749Y30849660D01*
X44427805Y30889374D01*
X44393283Y30926394D01*
X44390633Y30976944D01*
X44395458Y30988887D01*
X44409719Y31016874D01*
X44430804Y31150000D01*
X44409719Y31283126D01*
X44409719Y31283127D01*
X44348528Y31403220D01*
X44253219Y31498529D01*
X44133126Y31559719D01*
X44133126Y31559720D01*
X44000000Y31580804D01*
X43866873Y31559720D01*
X43866873Y31559719D01*
X43746780Y31498529D01*
X43651471Y31403220D01*
X43590281Y31283127D01*
X43590280Y31283127D01*
X43569196Y31150000D01*
X43590281Y31016874D01*
X43590281Y31016872D01*
X43604532Y30988904D01*
X43610701Y30938662D01*
X43583133Y30896209D01*
X43572194Y30889374D01*
X43494248Y30849658D01*
X43400340Y30755750D01*
X43340049Y30637421D01*
X43340048Y30637421D01*
X43324500Y30539247D01*
X43324500Y30035754D01*
X40500000Y30035754D01*
X40500000Y39800000D01*
X31579500Y39800000D01*
X31531934Y39817313D01*
X31506624Y39861150D01*
X31505500Y39874000D01*
X31505500Y42254260D01*
X31505500Y42254266D01*
X31502646Y42284699D01*
X31457793Y42412882D01*
X31457792Y42412884D01*
X31377153Y42522147D01*
X31377146Y42522154D01*
X31267883Y42602793D01*
X31267881Y42602794D01*
X31139704Y42647645D01*
X31139705Y42647645D01*
X31139700Y42647646D01*
X31139699Y42647646D01*
X31109266Y42650500D01*
X31109260Y42650500D01*
X30854500Y42650500D01*
X30806934Y42667813D01*
X30781624Y42711650D01*
X30780500Y42724500D01*
X30780500Y43981411D01*
X30780753Y43987523D01*
X30783328Y44018591D01*
X30784392Y44031437D01*
X30773567Y44074181D01*
X30772319Y44080132D01*
X30765065Y44123610D01*
X30761911Y44129439D01*
X30755256Y44146495D01*
X30753629Y44152919D01*
X30753628Y44152921D01*
X30753628Y44152922D01*
X30729513Y44189832D01*
X30726387Y44195079D01*
X30722564Y44202143D01*
X30705419Y44233826D01*
X30700539Y44238319D01*
X30688709Y44252287D01*
X30685084Y44257836D01*
X30650293Y44284915D01*
X30645639Y44288858D01*
X30613221Y44318702D01*
X30613217Y44318704D01*
X30607146Y44321367D01*
X30591420Y44330738D01*
X30586190Y44334809D01*
X30559596Y44343938D01*
X30544499Y44349121D01*
X30538810Y44351341D01*
X30498454Y44369043D01*
X30491840Y44369592D01*
X30473935Y44373346D01*
X30467660Y44375500D01*
X30423589Y44375500D01*
X30417478Y44375753D01*
X30415006Y44375958D01*
X30373565Y44379393D01*
X30368938Y44378221D01*
X30367133Y44377764D01*
X30348969Y44375500D01*
X18993589Y44375500D01*
X18987478Y44375753D01*
X18984623Y44375990D01*
X18943563Y44379393D01*
X18900839Y44368574D01*
X18894857Y44367320D01*
X18851391Y44360066D01*
X18851386Y44360064D01*
X18845554Y44356908D01*
X18828514Y44350259D01*
X18822079Y44348629D01*
X18822076Y44348628D01*
X18785177Y44324521D01*
X18779926Y44321392D01*
X18741171Y44300418D01*
X18741170Y44300417D01*
X18736681Y44295540D01*
X18722717Y44283713D01*
X18717168Y44280088D01*
X18717159Y44280080D01*
X18690090Y44245302D01*
X18686139Y44240637D01*
X18656296Y44208219D01*
X18653631Y44202143D01*
X18644265Y44186425D01*
X18640191Y44181191D01*
X18625882Y44139508D01*
X18623658Y44133810D01*
X18605958Y44093460D01*
X18605957Y44093454D01*
X18605409Y44086842D01*
X18601654Y44068936D01*
X18599500Y44062662D01*
X18599500Y44018591D01*
X18599247Y44012479D01*
X18595607Y43968566D01*
X18597236Y43962135D01*
X18599500Y43943969D01*
X18599500Y42635903D01*
X18582187Y42588337D01*
X18556241Y42568591D01*
X18422251Y42507399D01*
X18422247Y42507396D01*
X18251047Y42385486D01*
X18106014Y42233380D01*
X17992385Y42056569D01*
X17914274Y41861456D01*
X17874500Y41655084D01*
X17874500Y39697576D01*
X300500Y39697576D01*
X300500Y46166355D01*
X1400657Y46166355D01*
X1431316Y45913843D01*
X1431320Y45913826D01*
X1502087Y45669509D01*
X1502090Y45669500D01*
X1611135Y45439694D01*
X1611137Y45439691D01*
X1611138Y45439689D01*
X1611139Y45439688D01*
X1755640Y45230341D01*
X1931852Y45046885D01*
X2135210Y44894071D01*
X2360448Y44775857D01*
X2601732Y44695305D01*
X2852813Y44654500D01*
X2852816Y44654500D01*
X3043483Y44654500D01*
X3233550Y44669844D01*
X3480533Y44730720D01*
X3714553Y44830426D01*
X3929548Y44966381D01*
X4119951Y45135063D01*
X4280829Y45332103D01*
X4408016Y45552398D01*
X4498219Y45790243D01*
X4549100Y46039477D01*
X4553004Y46136355D01*
X61650657Y46136355D01*
X61681316Y45883843D01*
X61681320Y45883826D01*
X61752087Y45639509D01*
X61752090Y45639500D01*
X61861135Y45409694D01*
X61861137Y45409691D01*
X61861138Y45409689D01*
X61861139Y45409688D01*
X62005640Y45200341D01*
X62181852Y45016885D01*
X62385210Y44864071D01*
X62610448Y44745857D01*
X62851732Y44665305D01*
X63102813Y44624500D01*
X63102816Y44624500D01*
X63293483Y44624500D01*
X63483550Y44639844D01*
X63730533Y44700720D01*
X63964553Y44800426D01*
X64179548Y44936381D01*
X64369951Y45105063D01*
X64530829Y45302103D01*
X64658016Y45522398D01*
X64748219Y45760243D01*
X64799100Y46009477D01*
X64809343Y46263645D01*
X64778682Y46516166D01*
X64742881Y46639763D01*
X64707912Y46760492D01*
X64707909Y46760501D01*
X64598864Y46990307D01*
X64598862Y46990310D01*
X64578153Y47020312D01*
X64454360Y47199659D01*
X64278148Y47383115D01*
X64074790Y47535929D01*
X63849552Y47654143D01*
X63608268Y47734695D01*
X63357187Y47775500D01*
X63166517Y47775500D01*
X62976452Y47760157D01*
X62729469Y47699281D01*
X62495448Y47599575D01*
X62280451Y47463619D01*
X62090046Y47294935D01*
X61929169Y47097896D01*
X61801984Y46877604D01*
X61801980Y46877595D01*
X61711782Y46639763D01*
X61711782Y46639761D01*
X61660899Y46390520D01*
X61650657Y46136355D01*
X4553004Y46136355D01*
X4559343Y46293645D01*
X4528682Y46546166D01*
X4482090Y46707020D01*
X4457912Y46790492D01*
X4457909Y46790501D01*
X4348864Y47020307D01*
X4348862Y47020310D01*
X4274601Y47127896D01*
X4204360Y47229659D01*
X4028148Y47413115D01*
X3824790Y47565929D01*
X3599552Y47684143D01*
X3358268Y47764695D01*
X3107187Y47805500D01*
X2916517Y47805500D01*
X2726452Y47790157D01*
X2479469Y47729281D01*
X2245448Y47629575D01*
X2030451Y47493619D01*
X1840046Y47324935D01*
X1679169Y47127896D01*
X1551984Y46907604D01*
X1551980Y46907595D01*
X1461782Y46669763D01*
X1461782Y46669761D01*
X1410899Y46420520D01*
X1400657Y46166355D01*
X300500Y46166355D01*
X300500Y46187917D01*
X300616Y46192066D01*
X304636Y46263651D01*
X317241Y46488115D01*
X318171Y46496353D01*
X321536Y46516158D01*
X367487Y46786608D01*
X369326Y46794668D01*
X450841Y47077611D01*
X453571Y47085414D01*
X566246Y47357436D01*
X569840Y47364898D01*
X712268Y47622603D01*
X716665Y47629601D01*
X887044Y47869727D01*
X892202Y47876196D01*
X1088408Y48095751D01*
X1094249Y48101592D01*
X1313804Y48297798D01*
X1320273Y48302956D01*
X1560399Y48473335D01*
X1567397Y48477732D01*
X1825102Y48620160D01*
X1832564Y48623754D01*
X2104586Y48736429D01*
X2112389Y48739159D01*
X2395332Y48820674D01*
X2403392Y48822513D01*
X2693655Y48871830D01*
X2701885Y48872759D01*
X2997934Y48889385D01*
X3002083Y48889500D01*
X3047595Y48889500D01*
X63172405Y48889500D01*
X63217917Y48889500D01*
X63222065Y48889385D01*
G37*
%TD.AperFunction*%
%TD*%
M02*
