%TF.GenerationSoftware,KiCad,Pcbnew,7.0.11+dfsg-1build4*%
%TF.CreationDate,2026-10-01T15:55:43+09:00*%
%TF.ProjectId,t1s_hat,7431735f-6861-4742-9e6b-696361645f70,rev?*%
%TF.SameCoordinates,Original*%
%TF.FileFunction,Copper,L4,Bot*%
%TF.FilePolarity,Positive*%
%FSLAX46Y46*%
G04 Gerber Fmt 4.6, Leading zero omitted, Abs format (unit mm)*
G04 Created by KiCad (PCBNEW 7.0.11+dfsg-1build4) date 2026-10-01 15:55:43*
%MOMM*%
%LPD*%
G01*
G04 APERTURE LIST*
G04 Aperture macros list*
%AMRoundRect*
0 Rectangle with rounded corners*
0 $1 Rounding radius*
0 $2 $3 $4 $5 $6 $7 $8 $9 X,Y pos of 4 corners*
0 Add a 4 corners polygon primitive as box body*
4,1,4,$2,$3,$4,$5,$6,$7,$8,$9,$2,$3,0*
0 Add four circle primitives for the rounded corners*
1,1,$1+$1,$2,$3*
1,1,$1+$1,$4,$5*
1,1,$1+$1,$6,$7*
1,1,$1+$1,$8,$9*
0 Add four rect primitives between the rounded corners*
20,1,$1+$1,$2,$3,$4,$5,0*
20,1,$1+$1,$4,$5,$6,$7,0*
20,1,$1+$1,$6,$7,$8,$9,0*
20,1,$1+$1,$8,$9,$2,$3,0*%
G04 Aperture macros list end*
%TA.AperFunction,ComponentPad*%
%ADD10R,1.700000X1.700000*%
%TD*%
%TA.AperFunction,ComponentPad*%
%ADD11O,1.700000X1.700000*%
%TD*%
%TA.AperFunction,ComponentPad*%
%ADD12RoundRect,0.250000X0.650000X1.550000X-0.650000X1.550000X-0.650000X-1.550000X0.650000X-1.550000X0*%
%TD*%
%TA.AperFunction,ComponentPad*%
%ADD13O,1.800000X3.600000*%
%TD*%
%TA.AperFunction,HeatsinkPad*%
%ADD14C,0.500000*%
%TD*%
%TA.AperFunction,HeatsinkPad*%
%ADD15R,3.400000X3.400000*%
%TD*%
%TA.AperFunction,ViaPad*%
%ADD16C,0.450000*%
%TD*%
%TA.AperFunction,ViaPad*%
%ADD17C,0.600000*%
%TD*%
%TA.AperFunction,Conductor*%
%ADD18C,0.200000*%
%TD*%
%TA.AperFunction,Conductor*%
%ADD19C,0.250000*%
%TD*%
G04 APERTURE END LIST*
D10*
%TO.P,J1,1*%
%TO.N,+3V3*%
X56456000Y5900000D03*
D11*
%TO.P,J1,2*%
%TO.N,N/C*%
X56456000Y3360000D03*
%TO.P,J1,3*%
X53916000Y5900000D03*
%TO.P,J1,4*%
X53916000Y3360000D03*
%TO.P,J1,5*%
X51376000Y5900000D03*
%TO.P,J1,6*%
%TO.N,GND*%
X51376000Y3360000D03*
%TO.P,J1,7*%
%TO.N,N/C*%
X48836000Y5900000D03*
%TO.P,J1,8*%
X48836000Y3360000D03*
%TO.P,J1,9*%
%TO.N,GND*%
X46296000Y5900000D03*
%TO.P,J1,10*%
%TO.N,N/C*%
X46296000Y3360000D03*
%TO.P,J1,11*%
X43756000Y5900000D03*
%TO.P,J1,12*%
X43756000Y3360000D03*
%TO.P,J1,13*%
X41216000Y5900000D03*
%TO.P,J1,14*%
%TO.N,GND*%
X41216000Y3360000D03*
%TO.P,J1,15*%
%TO.N,RESET_N*%
X38676000Y5900000D03*
%TO.P,J1,16*%
%TO.N,IRQ_N*%
X38676000Y3360000D03*
%TO.P,J1,17*%
%TO.N,+3V3*%
X36136000Y5900000D03*
%TO.P,J1,18*%
%TO.N,N/C*%
X36136000Y3360000D03*
%TO.P,J1,19*%
%TO.N,SPI_MOSI*%
X33596000Y5900000D03*
%TO.P,J1,20*%
%TO.N,GND*%
X33596000Y3360000D03*
%TO.P,J1,21*%
%TO.N,SPI_MISO*%
X31056000Y5900000D03*
%TO.P,J1,22*%
%TO.N,N/C*%
X31056000Y3360000D03*
%TO.P,J1,23*%
%TO.N,SPI_SCLK*%
X28516000Y5900000D03*
%TO.P,J1,24*%
%TO.N,SPI_CS_N*%
X28516000Y3360000D03*
%TO.P,J1,25*%
%TO.N,GND*%
X25976000Y5900000D03*
%TO.P,J1,26*%
%TO.N,N/C*%
X25976000Y3360000D03*
%TO.P,J1,27*%
X23436000Y5900000D03*
%TO.P,J1,28*%
X23436000Y3360000D03*
%TO.P,J1,29*%
X20896000Y5900000D03*
%TO.P,J1,30*%
%TO.N,GND*%
X20896000Y3360000D03*
%TO.P,J1,31*%
%TO.N,N/C*%
X18356000Y5900000D03*
%TO.P,J1,32*%
X18356000Y3360000D03*
%TO.P,J1,33*%
X15816000Y5900000D03*
%TO.P,J1,34*%
%TO.N,GND*%
X15816000Y3360000D03*
%TO.P,J1,35*%
%TO.N,N/C*%
X13276000Y5900000D03*
%TO.P,J1,36*%
X13276000Y3360000D03*
%TO.P,J1,37*%
X10736000Y5900000D03*
%TO.P,J1,38*%
X10736000Y3360000D03*
%TO.P,J1,39*%
%TO.N,GND*%
X8196000Y5900000D03*
%TO.P,J1,40*%
%TO.N,N/C*%
X8196000Y3360000D03*
%TD*%
D12*
%TO.P,CN1,1*%
%TO.N,BUS_P*%
X30405000Y40650000D03*
D13*
%TO.P,CN1,2*%
%TO.N,BUS_N*%
X26595000Y40650000D03*
%TO.P,CN1,3*%
X22785000Y40650000D03*
%TO.P,CN1,4*%
%TO.N,BUS_P*%
X18975000Y40650000D03*
%TD*%
D14*
%TO.P,U1,33*%
%TO.N,GND*%
X28550000Y21450000D03*
X28550000Y20000000D03*
X28550000Y18550000D03*
X30000000Y21450000D03*
X30000000Y20000000D03*
D15*
X30000000Y20000000D03*
D14*
X30000000Y18550000D03*
X31450000Y21450000D03*
X31450000Y20000000D03*
X31450000Y18550000D03*
%TD*%
D16*
%TO.N,+3V3*%
X33000000Y32050000D03*
X36300000Y14100000D03*
X22075000Y15200000D03*
X24975000Y13200000D03*
X15050000Y19300000D03*
X44000000Y31150000D03*
X25595000Y7600000D03*
X19800000Y18725000D03*
%TO.N,GND*%
X41400000Y20550000D03*
D17*
X25150000Y35600000D03*
D16*
X33300000Y21750000D03*
D17*
X18500000Y37000000D03*
D16*
X25400000Y21250000D03*
D17*
X41000000Y28700000D03*
X27600000Y23200000D03*
D16*
X23800000Y21250000D03*
X36350000Y15700000D03*
D17*
X17900000Y18000000D03*
X35650000Y30900000D03*
X30699999Y26400000D03*
D16*
X33300000Y20750000D03*
D17*
X30699999Y28000000D03*
X38150000Y30900000D03*
X49100000Y26000000D03*
X40100000Y37000000D03*
X36900000Y20200000D03*
X31812000Y35600000D03*
D16*
X36350000Y17300000D03*
X31750000Y16700000D03*
X39150000Y25350000D03*
D17*
X49100000Y27600000D03*
D16*
%TO.N,RESET_N*%
X24000000Y16900000D03*
%TO.N,IRQ_N*%
X27246000Y15500000D03*
%TO.N,SPI_MISO*%
X28350000Y15500000D03*
%TO.N,VDDA*%
X33000000Y24900000D03*
X29750000Y23400000D03*
%TD*%
D18*
%TO.N,RESET_N*%
X24706000Y1200000D02*
X39946000Y1200000D01*
X39946000Y1200000D02*
X39946000Y4630000D01*
X39946000Y4630000D02*
X38676000Y5900000D01*
X24000000Y8000000D02*
X24706000Y7300000D01*
X24706000Y7300000D02*
X24706000Y1200000D01*
X24000000Y16900000D02*
X24000000Y8000000D01*
%TO.N,IRQ_N*%
X38676000Y1900000D02*
X38676000Y3360000D01*
X27246000Y1900000D02*
X38676000Y1900000D01*
X27246000Y15500000D02*
X27246000Y1900000D01*
%TO.N,SPI_MISO*%
X28350000Y15500000D02*
X28350000Y8300000D01*
X28350000Y8300000D02*
X31056000Y7000000D01*
X31056000Y7000000D02*
X31056000Y5900000D01*
D19*
%TO.N,VDDA*%
X29750000Y23400000D02*
X32500000Y23400000D01*
X32500000Y23400000D02*
X33000000Y23900000D01*
X33000000Y23900000D02*
X33000000Y24900000D01*
%TD*%
%TA.AperFunction,Conductor*%
%TO.N,GND*%
G36*
X63222065Y48889385D02*
G01*
X63518112Y48872759D01*
X63526346Y48871830D01*
X63816603Y48822514D01*
X63824671Y48820673D01*
X64107605Y48739161D01*
X64115418Y48736427D01*
X64387428Y48623756D01*
X64394904Y48620156D01*
X64652594Y48477737D01*
X64659608Y48473329D01*
X64899716Y48302963D01*
X64906203Y48297791D01*
X65125741Y48101600D01*
X65131604Y48095737D01*
X65327789Y47876205D01*
X65332962Y47869717D01*
X65503324Y47629615D01*
X65507740Y47622588D01*
X65650155Y47364905D01*
X65653755Y47357429D01*
X65766422Y47085429D01*
X65769163Y47077596D01*
X65850669Y46794683D01*
X65852515Y46786592D01*
X65901828Y46496353D01*
X65902758Y46488107D01*
X65919384Y46192066D01*
X65919500Y46187917D01*
X65919500Y44074000D01*
X65902187Y44026434D01*
X65858350Y44001124D01*
X65845500Y44000000D01*
X58000000Y44000000D01*
X58000000Y22000000D01*
X65845500Y22000000D01*
X65893066Y21982687D01*
X65918376Y21938850D01*
X65919500Y21926000D01*
X65919500Y3002084D01*
X65919384Y2997935D01*
X65902758Y2701894D01*
X65901828Y2693648D01*
X65852515Y2403409D01*
X65850669Y2395318D01*
X65769163Y2112405D01*
X65766422Y2104572D01*
X65653755Y1832572D01*
X65650155Y1825096D01*
X65507740Y1567413D01*
X65503324Y1560386D01*
X65332962Y1320284D01*
X65327789Y1313796D01*
X65131604Y1094264D01*
X65125736Y1088396D01*
X64906204Y892211D01*
X64899716Y887038D01*
X64659614Y716676D01*
X64652587Y712260D01*
X64394904Y569845D01*
X64387428Y566245D01*
X64115428Y453578D01*
X64107595Y450837D01*
X63824682Y369331D01*
X63816591Y367485D01*
X63526352Y318172D01*
X63518106Y317242D01*
X63222066Y300616D01*
X63217917Y300500D01*
X3002083Y300500D01*
X2997934Y300616D01*
X2701893Y317242D01*
X2693647Y318172D01*
X2403408Y367485D01*
X2395317Y369331D01*
X2112404Y450837D01*
X2104571Y453578D01*
X1832571Y566245D01*
X1825095Y569845D01*
X1567412Y712260D01*
X1560385Y716676D01*
X1320283Y887038D01*
X1313795Y892211D01*
X1187483Y1005090D01*
X1094258Y1088401D01*
X1088400Y1094259D01*
X892209Y1313797D01*
X887037Y1320284D01*
X752919Y1509305D01*
X716671Y1560392D01*
X712263Y1567406D01*
X569844Y1825096D01*
X566244Y1832572D01*
X531144Y1917311D01*
X453573Y2104582D01*
X450839Y2112395D01*
X369327Y2395329D01*
X367486Y2403397D01*
X318170Y2693654D01*
X317241Y2701894D01*
X315912Y2725556D01*
X300616Y2997935D01*
X300500Y3002084D01*
X300500Y4566355D01*
X1750657Y4566355D01*
X1781316Y4313843D01*
X1781320Y4313826D01*
X1852087Y4069509D01*
X1852090Y4069500D01*
X1961135Y3839694D01*
X1961137Y3839691D01*
X1961138Y3839689D01*
X1961139Y3839688D01*
X2105640Y3630341D01*
X2281852Y3446885D01*
X2485210Y3294071D01*
X2710448Y3175857D01*
X2951732Y3095305D01*
X3202813Y3054500D01*
X3202816Y3054500D01*
X3393483Y3054500D01*
X3583550Y3069844D01*
X3830533Y3130720D01*
X4064553Y3230426D01*
X4269457Y3360000D01*
X7140417Y3360000D01*
X7158553Y3175859D01*
X7160700Y3154066D01*
X7220768Y2956046D01*
X7318315Y2773550D01*
X7449590Y2613590D01*
X7609550Y2482315D01*
X7792046Y2384768D01*
X7990066Y2324700D01*
X8196000Y2304417D01*
X8401934Y2324700D01*
X8599954Y2384768D01*
X8782450Y2482315D01*
X8942410Y2613590D01*
X9073685Y2773550D01*
X9171232Y2956046D01*
X9231300Y3154066D01*
X9251583Y3360000D01*
X9680417Y3360000D01*
X9698553Y3175859D01*
X9700700Y3154066D01*
X9760768Y2956046D01*
X9858315Y2773550D01*
X9989590Y2613590D01*
X10149550Y2482315D01*
X10332046Y2384768D01*
X10530066Y2324700D01*
X10736000Y2304417D01*
X10941934Y2324700D01*
X11139954Y2384768D01*
X11322450Y2482315D01*
X11482410Y2613590D01*
X11613685Y2773550D01*
X11711232Y2956046D01*
X11771300Y3154066D01*
X11791583Y3360000D01*
X12220417Y3360000D01*
X12238553Y3175859D01*
X12240700Y3154066D01*
X12300768Y2956046D01*
X12398315Y2773550D01*
X12529590Y2613590D01*
X12689550Y2482315D01*
X12872046Y2384768D01*
X13070066Y2324700D01*
X13276000Y2304417D01*
X13481934Y2324700D01*
X13679954Y2384768D01*
X13862450Y2482315D01*
X14022410Y2613590D01*
X14153685Y2773550D01*
X14251232Y2956046D01*
X14311300Y3154066D01*
X14331583Y3360000D01*
X17300417Y3360000D01*
X17318553Y3175859D01*
X17320700Y3154066D01*
X17380768Y2956046D01*
X17478315Y2773550D01*
X17609590Y2613590D01*
X17769550Y2482315D01*
X17952046Y2384768D01*
X18150066Y2324700D01*
X18356000Y2304417D01*
X18561934Y2324700D01*
X18759954Y2384768D01*
X18942450Y2482315D01*
X19102410Y2613590D01*
X19233685Y2773550D01*
X19331232Y2956046D01*
X19391300Y3154066D01*
X19411583Y3360000D01*
X22380417Y3360000D01*
X22398553Y3175859D01*
X22400700Y3154066D01*
X22460768Y2956046D01*
X22558315Y2773550D01*
X22689590Y2613590D01*
X22849550Y2482315D01*
X23032046Y2384768D01*
X23230066Y2324700D01*
X23436000Y2304417D01*
X23641934Y2324700D01*
X23839954Y2384768D01*
X24022450Y2482315D01*
X24182410Y2613590D01*
X24274298Y2725557D01*
X24317855Y2751342D01*
X24367798Y2743097D01*
X24400757Y2704678D01*
X24405500Y2678611D01*
X24405500Y1252241D01*
X24402675Y1231990D01*
X24401598Y1228208D01*
X24405184Y1189519D01*
X24405500Y1182691D01*
X24405500Y1172153D01*
X24407436Y1161793D01*
X24408378Y1155033D01*
X24411963Y1116344D01*
X24411965Y1116338D01*
X24413722Y1112809D01*
X24420215Y1093438D01*
X24420938Y1089569D01*
X24420939Y1089567D01*
X24436019Y1065211D01*
X24441393Y1056532D01*
X24444718Y1050562D01*
X24462040Y1015774D01*
X24462041Y1015773D01*
X24464946Y1013125D01*
X24478009Y997394D01*
X24480081Y994048D01*
X24511095Y970628D01*
X24516344Y966269D01*
X24545067Y940084D01*
X24548732Y938664D01*
X24566600Y928712D01*
X24569736Y926344D01*
X24607114Y915710D01*
X24613581Y913542D01*
X24649827Y899500D01*
X24653760Y899500D01*
X24674010Y896676D01*
X24677793Y895599D01*
X24677793Y895600D01*
X24677794Y895599D01*
X24716482Y899184D01*
X24723310Y899500D01*
X39893760Y899500D01*
X39914010Y896676D01*
X39917793Y895599D01*
X39917793Y895600D01*
X39917794Y895599D01*
X39956482Y899184D01*
X39963310Y899500D01*
X39973839Y899500D01*
X39973844Y899500D01*
X39984214Y901439D01*
X39990945Y902378D01*
X40029660Y905965D01*
X40031805Y907034D01*
X40033183Y907719D01*
X40052571Y914217D01*
X40053893Y914465D01*
X40056433Y914939D01*
X40089471Y935397D01*
X40095439Y938720D01*
X40130227Y956041D01*
X40130228Y956042D01*
X40132872Y958943D01*
X40148613Y972014D01*
X40151952Y974081D01*
X40175375Y1005100D01*
X40179715Y1010329D01*
X40205916Y1039067D01*
X40207336Y1042734D01*
X40217294Y1060609D01*
X40219655Y1063735D01*
X40219656Y1063736D01*
X40230292Y1101124D01*
X40232456Y1107579D01*
X40246500Y1143827D01*
X40246500Y1147760D01*
X40249326Y1168014D01*
X40250401Y1171793D01*
X40246816Y1210483D01*
X40246500Y1217311D01*
X40246500Y3360000D01*
X42700417Y3360000D01*
X42718553Y3175859D01*
X42720700Y3154066D01*
X42780768Y2956046D01*
X42878315Y2773550D01*
X43009590Y2613590D01*
X43169550Y2482315D01*
X43352046Y2384768D01*
X43550066Y2324700D01*
X43756000Y2304417D01*
X43961934Y2324700D01*
X44159954Y2384768D01*
X44342450Y2482315D01*
X44502410Y2613590D01*
X44633685Y2773550D01*
X44731232Y2956046D01*
X44791300Y3154066D01*
X44811583Y3360000D01*
X45240417Y3360000D01*
X45258553Y3175859D01*
X45260700Y3154066D01*
X45320768Y2956046D01*
X45418315Y2773550D01*
X45549590Y2613590D01*
X45709550Y2482315D01*
X45892046Y2384768D01*
X46090066Y2324700D01*
X46296000Y2304417D01*
X46501934Y2324700D01*
X46699954Y2384768D01*
X46882450Y2482315D01*
X47042410Y2613590D01*
X47173685Y2773550D01*
X47271232Y2956046D01*
X47331300Y3154066D01*
X47351583Y3360000D01*
X47780417Y3360000D01*
X47798553Y3175859D01*
X47800700Y3154066D01*
X47860768Y2956046D01*
X47958315Y2773550D01*
X48089590Y2613590D01*
X48249550Y2482315D01*
X48432046Y2384768D01*
X48630066Y2324700D01*
X48836000Y2304417D01*
X49041934Y2324700D01*
X49239954Y2384768D01*
X49422450Y2482315D01*
X49582410Y2613590D01*
X49713685Y2773550D01*
X49811232Y2956046D01*
X49871300Y3154066D01*
X49891583Y3360000D01*
X52860417Y3360000D01*
X52878553Y3175859D01*
X52880700Y3154066D01*
X52940768Y2956046D01*
X53038315Y2773550D01*
X53169590Y2613590D01*
X53329550Y2482315D01*
X53512046Y2384768D01*
X53710066Y2324700D01*
X53916000Y2304417D01*
X54121934Y2324700D01*
X54319954Y2384768D01*
X54502450Y2482315D01*
X54662410Y2613590D01*
X54793685Y2773550D01*
X54891232Y2956046D01*
X54951300Y3154066D01*
X54971583Y3360000D01*
X55400417Y3360000D01*
X55418553Y3175859D01*
X55420700Y3154066D01*
X55480768Y2956046D01*
X55578315Y2773550D01*
X55709590Y2613590D01*
X55869550Y2482315D01*
X56052046Y2384768D01*
X56250066Y2324700D01*
X56456000Y2304417D01*
X56661934Y2324700D01*
X56859954Y2384768D01*
X57042450Y2482315D01*
X57202410Y2613590D01*
X57333685Y2773550D01*
X57431232Y2956046D01*
X57491300Y3154066D01*
X57511583Y3360000D01*
X57491300Y3565934D01*
X57431232Y3763954D01*
X57333685Y3946450D01*
X57202410Y4106410D01*
X57042450Y4237685D01*
X56859956Y4335231D01*
X56859955Y4335232D01*
X56859954Y4335232D01*
X56748158Y4369145D01*
X56661935Y4395300D01*
X56456000Y4415583D01*
X56250064Y4395300D01*
X56052043Y4335231D01*
X55869549Y4237685D01*
X55709590Y4106411D01*
X55709589Y4106410D01*
X55578315Y3946451D01*
X55480769Y3763957D01*
X55420700Y3565936D01*
X55400417Y3360000D01*
X54971583Y3360000D01*
X54951300Y3565934D01*
X54891232Y3763954D01*
X54793685Y3946450D01*
X54662410Y4106410D01*
X54502450Y4237685D01*
X54319956Y4335231D01*
X54319955Y4335232D01*
X54319954Y4335232D01*
X54208158Y4369145D01*
X54121935Y4395300D01*
X53916000Y4415583D01*
X53710064Y4395300D01*
X53512043Y4335231D01*
X53329549Y4237685D01*
X53169590Y4106411D01*
X53169589Y4106410D01*
X53038315Y3946451D01*
X52940769Y3763957D01*
X52880700Y3565936D01*
X52860417Y3360000D01*
X49891583Y3360000D01*
X49871300Y3565934D01*
X49811232Y3763954D01*
X49713685Y3946450D01*
X49582410Y4106410D01*
X49422450Y4237685D01*
X49239956Y4335231D01*
X49239955Y4335232D01*
X49239954Y4335232D01*
X49128158Y4369145D01*
X49041935Y4395300D01*
X48836000Y4415583D01*
X48630064Y4395300D01*
X48432043Y4335231D01*
X48249549Y4237685D01*
X48089590Y4106411D01*
X48089589Y4106410D01*
X47958315Y3946451D01*
X47860769Y3763957D01*
X47800700Y3565936D01*
X47780417Y3360000D01*
X47351583Y3360000D01*
X47331300Y3565934D01*
X47271232Y3763954D01*
X47173685Y3946450D01*
X47042410Y4106410D01*
X46882450Y4237685D01*
X46699956Y4335231D01*
X46699955Y4335232D01*
X46699954Y4335232D01*
X46588158Y4369145D01*
X46501935Y4395300D01*
X46296000Y4415583D01*
X46090064Y4395300D01*
X45892043Y4335231D01*
X45709549Y4237685D01*
X45549590Y4106411D01*
X45549589Y4106410D01*
X45418315Y3946451D01*
X45320769Y3763957D01*
X45260700Y3565936D01*
X45240417Y3360000D01*
X44811583Y3360000D01*
X44791300Y3565934D01*
X44731232Y3763954D01*
X44633685Y3946450D01*
X44502410Y4106410D01*
X44342450Y4237685D01*
X44159956Y4335231D01*
X44159955Y4335232D01*
X44159954Y4335232D01*
X44048158Y4369145D01*
X43961935Y4395300D01*
X43756000Y4415583D01*
X43550064Y4395300D01*
X43352043Y4335231D01*
X43169549Y4237685D01*
X43009590Y4106411D01*
X43009589Y4106410D01*
X42878315Y3946451D01*
X42780769Y3763957D01*
X42720700Y3565936D01*
X42700417Y3360000D01*
X40246500Y3360000D01*
X40246500Y4566355D01*
X59750656Y4566355D01*
X59781315Y4313843D01*
X59781319Y4313826D01*
X59852086Y4069509D01*
X59852089Y4069500D01*
X59961134Y3839694D01*
X59961136Y3839691D01*
X59961137Y3839689D01*
X59961138Y3839688D01*
X60105639Y3630341D01*
X60281851Y3446885D01*
X60485209Y3294071D01*
X60710447Y3175857D01*
X60951731Y3095305D01*
X61202812Y3054500D01*
X61202815Y3054500D01*
X61393482Y3054500D01*
X61583549Y3069844D01*
X61830532Y3130720D01*
X62064552Y3230426D01*
X62279547Y3366381D01*
X62469950Y3535063D01*
X62630828Y3732103D01*
X62758015Y3952398D01*
X62848218Y4190243D01*
X62899099Y4439477D01*
X62909342Y4693645D01*
X62878681Y4946166D01*
X62842880Y5069763D01*
X62807911Y5190492D01*
X62807908Y5190501D01*
X62698863Y5420307D01*
X62698861Y5420310D01*
X62624600Y5527896D01*
X62554359Y5629659D01*
X62378147Y5813115D01*
X62174789Y5965929D01*
X61949551Y6084143D01*
X61708267Y6164695D01*
X61457186Y6205500D01*
X61266516Y6205500D01*
X61076451Y6190157D01*
X60829468Y6129281D01*
X60595447Y6029575D01*
X60380450Y5893619D01*
X60190045Y5724935D01*
X60029168Y5527896D01*
X59901983Y5307604D01*
X59901979Y5307595D01*
X59811781Y5069763D01*
X59811781Y5069761D01*
X59811780Y5069759D01*
X59811780Y5069757D01*
X59803715Y5030252D01*
X59760898Y4820520D01*
X59750656Y4566355D01*
X40246500Y4566355D01*
X40246500Y4568911D01*
X40248454Y4580885D01*
X40247826Y4580972D01*
X40248773Y4587763D01*
X40246579Y4635226D01*
X40246500Y4638644D01*
X40246500Y4657841D01*
X40246500Y4657844D01*
X40246158Y4659668D01*
X40244977Y4669855D01*
X40243585Y4699990D01*
X40243585Y4699991D01*
X40243585Y4699992D01*
X40238441Y4711640D01*
X40233398Y4727930D01*
X40231061Y4740433D01*
X40215178Y4766086D01*
X40210400Y4775150D01*
X40198206Y4802765D01*
X40189207Y4811764D01*
X40178615Y4825137D01*
X40171920Y4835951D01*
X40171917Y4835954D01*
X40147837Y4854138D01*
X40140106Y4860865D01*
X39639076Y5361895D01*
X39617684Y5407771D01*
X39626140Y5449104D01*
X39651232Y5496046D01*
X39711300Y5694066D01*
X39731583Y5900000D01*
X40160417Y5900000D01*
X40168974Y5813115D01*
X40180700Y5694066D01*
X40240768Y5496046D01*
X40338315Y5313550D01*
X40469590Y5153590D01*
X40629550Y5022315D01*
X40812046Y4924768D01*
X41010066Y4864700D01*
X41216000Y4844417D01*
X41421934Y4864700D01*
X41619954Y4924768D01*
X41802450Y5022315D01*
X41962410Y5153590D01*
X42093685Y5313550D01*
X42191232Y5496046D01*
X42251300Y5694066D01*
X42271583Y5900000D01*
X42700417Y5900000D01*
X42708974Y5813115D01*
X42720700Y5694066D01*
X42780768Y5496046D01*
X42878315Y5313550D01*
X43009590Y5153590D01*
X43169550Y5022315D01*
X43352046Y4924768D01*
X43550066Y4864700D01*
X43756000Y4844417D01*
X43961934Y4864700D01*
X44159954Y4924768D01*
X44342450Y5022315D01*
X44502410Y5153590D01*
X44633685Y5313550D01*
X44731232Y5496046D01*
X44791300Y5694066D01*
X44811583Y5900000D01*
X47780417Y5900000D01*
X47788974Y5813115D01*
X47800700Y5694066D01*
X47860768Y5496046D01*
X47958315Y5313550D01*
X48089590Y5153590D01*
X48249550Y5022315D01*
X48432046Y4924768D01*
X48630066Y4864700D01*
X48836000Y4844417D01*
X49041934Y4864700D01*
X49239954Y4924768D01*
X49422450Y5022315D01*
X49582410Y5153590D01*
X49713685Y5313550D01*
X49811232Y5496046D01*
X49871300Y5694066D01*
X49891583Y5900000D01*
X50320417Y5900000D01*
X50328974Y5813115D01*
X50340700Y5694066D01*
X50400768Y5496046D01*
X50498315Y5313550D01*
X50629590Y5153590D01*
X50789550Y5022315D01*
X50972046Y4924768D01*
X51170066Y4864700D01*
X51376000Y4844417D01*
X51581934Y4864700D01*
X51779954Y4924768D01*
X51962450Y5022315D01*
X52122410Y5153590D01*
X52253685Y5313550D01*
X52351232Y5496046D01*
X52411300Y5694066D01*
X52431583Y5900000D01*
X52860417Y5900000D01*
X52868974Y5813115D01*
X52880700Y5694066D01*
X52940768Y5496046D01*
X53038315Y5313550D01*
X53169590Y5153590D01*
X53329550Y5022315D01*
X53512046Y4924768D01*
X53710066Y4864700D01*
X53916000Y4844417D01*
X54121934Y4864700D01*
X54319954Y4924768D01*
X54502450Y5022315D01*
X54512124Y5030254D01*
X55405500Y5030254D01*
X55417133Y4971768D01*
X55434246Y4946158D01*
X55461448Y4905448D01*
X55505560Y4875973D01*
X55527767Y4861134D01*
X55527768Y4861134D01*
X55527769Y4861133D01*
X55586252Y4849500D01*
X55586254Y4849500D01*
X57325746Y4849500D01*
X57325748Y4849500D01*
X57384231Y4861133D01*
X57450552Y4905448D01*
X57494867Y4971769D01*
X57506500Y5030252D01*
X57506500Y6769748D01*
X57494867Y6828231D01*
X57450552Y6894552D01*
X57411147Y6920882D01*
X57384232Y6938867D01*
X57384233Y6938867D01*
X57348250Y6946024D01*
X57325748Y6950500D01*
X55586252Y6950500D01*
X55563750Y6946024D01*
X55527767Y6938867D01*
X55461449Y6894553D01*
X55461447Y6894551D01*
X55417133Y6828233D01*
X55405500Y6769747D01*
X55405500Y5030254D01*
X54512124Y5030254D01*
X54662410Y5153590D01*
X54793685Y5313550D01*
X54891232Y5496046D01*
X54951300Y5694066D01*
X54971583Y5900000D01*
X54951300Y6105934D01*
X54891232Y6303954D01*
X54793685Y6486450D01*
X54662410Y6646410D01*
X54502450Y6777685D01*
X54319954Y6875232D01*
X54208158Y6909145D01*
X54121935Y6935300D01*
X53916000Y6955583D01*
X53710064Y6935300D01*
X53512043Y6875231D01*
X53329549Y6777685D01*
X53169590Y6646411D01*
X53169589Y6646410D01*
X53038315Y6486451D01*
X52940769Y6303957D01*
X52880700Y6105936D01*
X52860417Y5900000D01*
X52431583Y5900000D01*
X52411300Y6105934D01*
X52351232Y6303954D01*
X52253685Y6486450D01*
X52122410Y6646410D01*
X51962450Y6777685D01*
X51779954Y6875232D01*
X51668158Y6909145D01*
X51581935Y6935300D01*
X51376000Y6955583D01*
X51170064Y6935300D01*
X50972043Y6875231D01*
X50789549Y6777685D01*
X50629590Y6646411D01*
X50629589Y6646410D01*
X50498315Y6486451D01*
X50400769Y6303957D01*
X50340700Y6105936D01*
X50320417Y5900000D01*
X49891583Y5900000D01*
X49871300Y6105934D01*
X49811232Y6303954D01*
X49713685Y6486450D01*
X49582410Y6646410D01*
X49422450Y6777685D01*
X49239954Y6875232D01*
X49128158Y6909145D01*
X49041935Y6935300D01*
X48836000Y6955583D01*
X48630064Y6935300D01*
X48432043Y6875231D01*
X48249549Y6777685D01*
X48089590Y6646411D01*
X48089589Y6646410D01*
X47958315Y6486451D01*
X47860769Y6303957D01*
X47800700Y6105936D01*
X47780417Y5900000D01*
X44811583Y5900000D01*
X44791300Y6105934D01*
X44731232Y6303954D01*
X44633685Y6486450D01*
X44502410Y6646410D01*
X44342450Y6777685D01*
X44159954Y6875232D01*
X44048158Y6909145D01*
X43961935Y6935300D01*
X43756000Y6955583D01*
X43550064Y6935300D01*
X43352043Y6875231D01*
X43169549Y6777685D01*
X43009590Y6646411D01*
X43009589Y6646410D01*
X42878315Y6486451D01*
X42780769Y6303957D01*
X42720700Y6105936D01*
X42700417Y5900000D01*
X42271583Y5900000D01*
X42251300Y6105934D01*
X42191232Y6303954D01*
X42093685Y6486450D01*
X41962410Y6646410D01*
X41802450Y6777685D01*
X41619954Y6875232D01*
X41508158Y6909145D01*
X41421935Y6935300D01*
X41216000Y6955583D01*
X41010064Y6935300D01*
X40812043Y6875231D01*
X40629549Y6777685D01*
X40469590Y6646411D01*
X40469589Y6646410D01*
X40338315Y6486451D01*
X40240769Y6303957D01*
X40180700Y6105936D01*
X40160417Y5900000D01*
X39731583Y5900000D01*
X39711300Y6105934D01*
X39651232Y6303954D01*
X39553685Y6486450D01*
X39422410Y6646410D01*
X39262450Y6777685D01*
X39079954Y6875232D01*
X38968158Y6909145D01*
X38881935Y6935300D01*
X38676000Y6955583D01*
X38470064Y6935300D01*
X38272043Y6875231D01*
X38089549Y6777685D01*
X37929590Y6646411D01*
X37929589Y6646410D01*
X37798315Y6486451D01*
X37700769Y6303957D01*
X37640700Y6105936D01*
X37620417Y5900000D01*
X37628974Y5813115D01*
X37640700Y5694066D01*
X37700768Y5496046D01*
X37798315Y5313550D01*
X37929590Y5153590D01*
X38089550Y5022315D01*
X38272046Y4924768D01*
X38470066Y4864700D01*
X38676000Y4844417D01*
X38881934Y4864700D01*
X39079954Y4924768D01*
X39126895Y4949860D01*
X39177005Y4957015D01*
X39214105Y4936924D01*
X39623826Y4527203D01*
X39645218Y4481327D01*
X39645500Y4474877D01*
X39645500Y4041390D01*
X39628187Y3993824D01*
X39584350Y3968514D01*
X39534500Y3977304D01*
X39514297Y3994445D01*
X39422410Y4106410D01*
X39422409Y4106411D01*
X39262450Y4237685D01*
X39079956Y4335231D01*
X39079955Y4335232D01*
X39079954Y4335232D01*
X38968158Y4369145D01*
X38881935Y4395300D01*
X38676000Y4415583D01*
X38470064Y4395300D01*
X38272043Y4335231D01*
X38089549Y4237685D01*
X37929590Y4106411D01*
X37929589Y4106410D01*
X37798315Y3946451D01*
X37700769Y3763957D01*
X37640700Y3565936D01*
X37620417Y3360000D01*
X37638553Y3175859D01*
X37640700Y3154066D01*
X37700768Y2956046D01*
X37798315Y2773550D01*
X37929590Y2613590D01*
X38089550Y2482315D01*
X38272046Y2384768D01*
X38322982Y2369317D01*
X38363473Y2338943D01*
X38375500Y2298504D01*
X38375500Y2274500D01*
X38358187Y2226934D01*
X38314350Y2201624D01*
X38301500Y2200500D01*
X36431370Y2200500D01*
X36383804Y2217813D01*
X36358494Y2261650D01*
X36367284Y2311500D01*
X36406061Y2344037D01*
X36409878Y2345311D01*
X36539954Y2384768D01*
X36722450Y2482315D01*
X36882410Y2613590D01*
X37013685Y2773550D01*
X37111232Y2956046D01*
X37171300Y3154066D01*
X37191583Y3360000D01*
X37171300Y3565934D01*
X37111232Y3763954D01*
X37013685Y3946450D01*
X36882410Y4106410D01*
X36722450Y4237685D01*
X36539956Y4335231D01*
X36539955Y4335232D01*
X36539954Y4335232D01*
X36428158Y4369145D01*
X36341935Y4395300D01*
X36136000Y4415583D01*
X35930064Y4395300D01*
X35732043Y4335231D01*
X35549549Y4237685D01*
X35389590Y4106411D01*
X35389589Y4106410D01*
X35258315Y3946451D01*
X35160769Y3763957D01*
X35100700Y3565936D01*
X35080417Y3360000D01*
X35098553Y3175859D01*
X35100700Y3154066D01*
X35160768Y2956046D01*
X35258315Y2773550D01*
X35389590Y2613590D01*
X35549550Y2482315D01*
X35732046Y2384768D01*
X35862111Y2345314D01*
X35902604Y2314939D01*
X35914098Y2265642D01*
X35891216Y2220490D01*
X35844664Y2200610D01*
X35840630Y2200500D01*
X31351370Y2200500D01*
X31303804Y2217813D01*
X31278494Y2261650D01*
X31287284Y2311500D01*
X31326061Y2344037D01*
X31329878Y2345311D01*
X31459954Y2384768D01*
X31642450Y2482315D01*
X31802410Y2613590D01*
X31933685Y2773550D01*
X32031232Y2956046D01*
X32091300Y3154066D01*
X32111583Y3360000D01*
X32091300Y3565934D01*
X32031232Y3763954D01*
X31933685Y3946450D01*
X31802410Y4106410D01*
X31642450Y4237685D01*
X31459956Y4335231D01*
X31459955Y4335232D01*
X31459954Y4335232D01*
X31348158Y4369145D01*
X31261935Y4395300D01*
X31056000Y4415583D01*
X30850064Y4395300D01*
X30652043Y4335231D01*
X30469549Y4237685D01*
X30309590Y4106411D01*
X30309589Y4106410D01*
X30178315Y3946451D01*
X30080769Y3763957D01*
X30020700Y3565936D01*
X30000417Y3360000D01*
X30018553Y3175859D01*
X30020700Y3154066D01*
X30080768Y2956046D01*
X30178315Y2773550D01*
X30309590Y2613590D01*
X30469550Y2482315D01*
X30652046Y2384768D01*
X30782111Y2345314D01*
X30822604Y2314939D01*
X30834098Y2265642D01*
X30811216Y2220490D01*
X30764664Y2200610D01*
X30760630Y2200500D01*
X28811370Y2200500D01*
X28763804Y2217813D01*
X28738494Y2261650D01*
X28747284Y2311500D01*
X28786061Y2344037D01*
X28789878Y2345311D01*
X28919954Y2384768D01*
X29102450Y2482315D01*
X29262410Y2613590D01*
X29393685Y2773550D01*
X29491232Y2956046D01*
X29551300Y3154066D01*
X29571583Y3360000D01*
X29551300Y3565934D01*
X29491232Y3763954D01*
X29393685Y3946450D01*
X29262410Y4106410D01*
X29102450Y4237685D01*
X28919956Y4335231D01*
X28919955Y4335232D01*
X28919954Y4335232D01*
X28808158Y4369145D01*
X28721935Y4395300D01*
X28516000Y4415583D01*
X28310064Y4395300D01*
X28112043Y4335231D01*
X27929549Y4237685D01*
X27769590Y4106411D01*
X27769589Y4106410D01*
X27677703Y3994445D01*
X27634144Y3968659D01*
X27584201Y3976904D01*
X27551243Y4015323D01*
X27546500Y4041390D01*
X27546500Y5218611D01*
X27563813Y5266177D01*
X27607650Y5291487D01*
X27657500Y5282697D01*
X27677701Y5265558D01*
X27769590Y5153590D01*
X27929550Y5022315D01*
X28112046Y4924768D01*
X28310066Y4864700D01*
X28516000Y4844417D01*
X28721934Y4864700D01*
X28919954Y4924768D01*
X29102450Y5022315D01*
X29262410Y5153590D01*
X29393685Y5313550D01*
X29491232Y5496046D01*
X29551300Y5694066D01*
X29571583Y5900000D01*
X29551300Y6105934D01*
X29491232Y6303954D01*
X29393685Y6486450D01*
X29262410Y6646410D01*
X29102450Y6777685D01*
X28919954Y6875232D01*
X28808158Y6909145D01*
X28721935Y6935300D01*
X28516000Y6955583D01*
X28310064Y6935300D01*
X28112043Y6875231D01*
X27929549Y6777685D01*
X27769590Y6646411D01*
X27769589Y6646410D01*
X27677703Y6534445D01*
X27634144Y6508659D01*
X27584201Y6516904D01*
X27551243Y6555323D01*
X27546500Y6581390D01*
X27546500Y15168100D01*
X27563813Y15215666D01*
X27568174Y15220426D01*
X27594528Y15246780D01*
X27655719Y15366874D01*
X27676804Y15500000D01*
X27919196Y15500000D01*
X27940280Y15366874D01*
X28001471Y15246781D01*
X28027826Y15220426D01*
X28049218Y15174550D01*
X28049500Y15168100D01*
X28049500Y8362681D01*
X28048713Y8353490D01*
X28049493Y8298402D01*
X28049500Y8297355D01*
X28049500Y8272146D01*
X28049662Y8270394D01*
X28049970Y8264626D01*
X28050324Y8239582D01*
X28057362Y8222152D01*
X28061483Y8208050D01*
X28064939Y8189567D01*
X28077646Y8169044D01*
X28083347Y8157794D01*
X28092385Y8135409D01*
X28092386Y8135406D01*
X28105247Y8121693D01*
X28114184Y8110031D01*
X28118221Y8103512D01*
X28124081Y8094048D01*
X28143349Y8079498D01*
X28152724Y8071071D01*
X28169240Y8053461D01*
X28178518Y8049004D01*
X28186186Y8045320D01*
X28198738Y8037670D01*
X28207830Y8030804D01*
X28213736Y8026344D01*
X28236953Y8019739D01*
X28248744Y8015266D01*
X30506196Y6930755D01*
X30541574Y6894552D01*
X30545404Y6844078D01*
X30515894Y6802951D01*
X30509036Y6798792D01*
X30469551Y6777686D01*
X30309590Y6646411D01*
X30309589Y6646410D01*
X30178315Y6486451D01*
X30080769Y6303957D01*
X30020700Y6105936D01*
X30000417Y5900000D01*
X30008974Y5813115D01*
X30020700Y5694066D01*
X30080768Y5496046D01*
X30178315Y5313550D01*
X30309590Y5153590D01*
X30469550Y5022315D01*
X30652046Y4924768D01*
X30850066Y4864700D01*
X31056000Y4844417D01*
X31261934Y4864700D01*
X31459954Y4924768D01*
X31642450Y5022315D01*
X31802410Y5153590D01*
X31933685Y5313550D01*
X32031232Y5496046D01*
X32091300Y5694066D01*
X32111583Y5900000D01*
X32540417Y5900000D01*
X32548974Y5813115D01*
X32560700Y5694066D01*
X32620768Y5496046D01*
X32718315Y5313550D01*
X32849590Y5153590D01*
X33009550Y5022315D01*
X33192046Y4924768D01*
X33390066Y4864700D01*
X33596000Y4844417D01*
X33801934Y4864700D01*
X33999954Y4924768D01*
X34182450Y5022315D01*
X34342410Y5153590D01*
X34473685Y5313550D01*
X34571232Y5496046D01*
X34631300Y5694066D01*
X34651583Y5900000D01*
X35080417Y5900000D01*
X35088974Y5813115D01*
X35100700Y5694066D01*
X35160768Y5496046D01*
X35258315Y5313550D01*
X35389590Y5153590D01*
X35549550Y5022315D01*
X35732046Y4924768D01*
X35930066Y4864700D01*
X36136000Y4844417D01*
X36341934Y4864700D01*
X36539954Y4924768D01*
X36722450Y5022315D01*
X36882410Y5153590D01*
X37013685Y5313550D01*
X37111232Y5496046D01*
X37171300Y5694066D01*
X37191583Y5900000D01*
X37171300Y6105934D01*
X37111232Y6303954D01*
X37013685Y6486450D01*
X36882410Y6646410D01*
X36722450Y6777685D01*
X36539954Y6875232D01*
X36428158Y6909145D01*
X36341935Y6935300D01*
X36136000Y6955583D01*
X35930064Y6935300D01*
X35732043Y6875231D01*
X35549549Y6777685D01*
X35389590Y6646411D01*
X35389589Y6646410D01*
X35258315Y6486451D01*
X35160769Y6303957D01*
X35100700Y6105936D01*
X35080417Y5900000D01*
X34651583Y5900000D01*
X34631300Y6105934D01*
X34571232Y6303954D01*
X34473685Y6486450D01*
X34342410Y6646410D01*
X34182450Y6777685D01*
X33999954Y6875232D01*
X33888158Y6909145D01*
X33801935Y6935300D01*
X33596000Y6955583D01*
X33390064Y6935300D01*
X33192043Y6875231D01*
X33009549Y6777685D01*
X32849590Y6646411D01*
X32849589Y6646410D01*
X32718315Y6486451D01*
X32620769Y6303957D01*
X32560700Y6105936D01*
X32540417Y5900000D01*
X32111583Y5900000D01*
X32091300Y6105934D01*
X32031232Y6303954D01*
X31933685Y6486450D01*
X31802410Y6646410D01*
X31642450Y6777685D01*
X31595181Y6802951D01*
X31459961Y6875229D01*
X31459956Y6875231D01*
X31459954Y6875232D01*
X31459950Y6875234D01*
X31459948Y6875234D01*
X31409602Y6890507D01*
X31369110Y6920882D01*
X31357091Y6960273D01*
X31356507Y7001601D01*
X31356500Y7002647D01*
X31356500Y7027846D01*
X31356339Y7029578D01*
X31356028Y7035382D01*
X31355675Y7060417D01*
X31348637Y7077847D01*
X31344515Y7091956D01*
X31341061Y7110434D01*
X31328353Y7130957D01*
X31322654Y7142202D01*
X31313614Y7164593D01*
X31300752Y7178308D01*
X31291816Y7189968D01*
X31281919Y7205952D01*
X31281918Y7205953D01*
X31281917Y7205954D01*
X31262655Y7220500D01*
X31253274Y7228931D01*
X31236760Y7246539D01*
X31219813Y7254681D01*
X31207265Y7262328D01*
X31192263Y7273657D01*
X31192264Y7273657D01*
X31169042Y7280265D01*
X31157252Y7284737D01*
X28692455Y8468860D01*
X28657077Y8505063D01*
X28650500Y8535562D01*
X28650500Y14100000D01*
X35869196Y14100000D01*
X35890280Y13966874D01*
X35951471Y13846781D01*
X35951472Y13846780D01*
X36046780Y13751472D01*
X36166873Y13690282D01*
X36166873Y13690281D01*
X36185075Y13687399D01*
X36300000Y13669196D01*
X36433126Y13690281D01*
X36553220Y13751472D01*
X36648528Y13846780D01*
X36709719Y13966874D01*
X36730804Y14100000D01*
X36709719Y14233126D01*
X36709719Y14233127D01*
X36648528Y14353220D01*
X36553219Y14448529D01*
X36433126Y14509719D01*
X36433126Y14509720D01*
X36300000Y14530804D01*
X36166873Y14509720D01*
X36166873Y14509719D01*
X36046780Y14448529D01*
X35951471Y14353220D01*
X35890281Y14233127D01*
X35890280Y14233127D01*
X35869196Y14100000D01*
X28650500Y14100000D01*
X28650500Y15168100D01*
X28667813Y15215666D01*
X28672174Y15220426D01*
X28698528Y15246780D01*
X28759719Y15366874D01*
X28780804Y15500000D01*
X28759719Y15633126D01*
X28759719Y15633127D01*
X28698528Y15753220D01*
X28603219Y15848529D01*
X28483126Y15909719D01*
X28483126Y15909720D01*
X28350000Y15930804D01*
X28216873Y15909720D01*
X28216873Y15909719D01*
X28096780Y15848529D01*
X28001471Y15753220D01*
X27940281Y15633127D01*
X27940280Y15633127D01*
X27919196Y15500000D01*
X27676804Y15500000D01*
X27655719Y15633126D01*
X27655719Y15633127D01*
X27594528Y15753220D01*
X27499219Y15848529D01*
X27379126Y15909719D01*
X27379126Y15909720D01*
X27246000Y15930804D01*
X27112873Y15909720D01*
X27112873Y15909719D01*
X26992780Y15848529D01*
X26897471Y15753220D01*
X26836281Y15633127D01*
X26836280Y15633127D01*
X26815196Y15500000D01*
X26836280Y15366874D01*
X26897471Y15246781D01*
X26923826Y15220426D01*
X26945218Y15174550D01*
X26945500Y15168100D01*
X26945500Y4041390D01*
X26928187Y3993824D01*
X26884350Y3968514D01*
X26834500Y3977304D01*
X26814297Y3994445D01*
X26722410Y4106410D01*
X26722409Y4106411D01*
X26562450Y4237685D01*
X26379956Y4335231D01*
X26379955Y4335232D01*
X26379954Y4335232D01*
X26268158Y4369145D01*
X26181935Y4395300D01*
X25976000Y4415583D01*
X25770064Y4395300D01*
X25572043Y4335231D01*
X25389549Y4237685D01*
X25229590Y4106411D01*
X25229589Y4106410D01*
X25137703Y3994445D01*
X25094144Y3968659D01*
X25044201Y3976904D01*
X25011243Y4015323D01*
X25006500Y4041390D01*
X25006500Y7239729D01*
X25008507Y7252196D01*
X25008033Y7252260D01*
X25008951Y7259054D01*
X25006594Y7305725D01*
X25006500Y7309458D01*
X25006500Y7327843D01*
X25006500Y7327844D01*
X25006012Y7330451D01*
X25004847Y7340307D01*
X25003284Y7371261D01*
X24998421Y7382147D01*
X24993250Y7398722D01*
X24991061Y7410433D01*
X24974753Y7436771D01*
X24970104Y7445544D01*
X24957466Y7473840D01*
X24949004Y7482231D01*
X24938194Y7495818D01*
X24931918Y7505953D01*
X24907195Y7524623D01*
X24899688Y7531127D01*
X24830225Y7600000D01*
X25164196Y7600000D01*
X25185280Y7466874D01*
X25228454Y7382142D01*
X25246472Y7346780D01*
X25341780Y7251472D01*
X25461873Y7190282D01*
X25461873Y7190281D01*
X25480075Y7187399D01*
X25595000Y7169196D01*
X25728126Y7190281D01*
X25848220Y7251472D01*
X25943528Y7346780D01*
X26004719Y7466874D01*
X26025804Y7600000D01*
X26004719Y7733126D01*
X26004719Y7733127D01*
X25943528Y7853220D01*
X25848219Y7948529D01*
X25728126Y8009719D01*
X25728126Y8009720D01*
X25595000Y8030804D01*
X25461873Y8009720D01*
X25461873Y8009719D01*
X25341780Y7948529D01*
X25246471Y7853220D01*
X25185281Y7733127D01*
X25185280Y7733127D01*
X25164196Y7600000D01*
X24830225Y7600000D01*
X24322398Y8103512D01*
X24300810Y8149297D01*
X24300500Y8156061D01*
X24300500Y13200000D01*
X24544196Y13200000D01*
X24565280Y13066874D01*
X24626471Y12946781D01*
X24626472Y12946780D01*
X24721780Y12851472D01*
X24841873Y12790282D01*
X24841873Y12790281D01*
X24860075Y12787399D01*
X24975000Y12769196D01*
X25108126Y12790281D01*
X25228220Y12851472D01*
X25323528Y12946780D01*
X25384719Y13066874D01*
X25405804Y13200000D01*
X25384719Y13333126D01*
X25384719Y13333127D01*
X25323528Y13453220D01*
X25228219Y13548529D01*
X25108126Y13609719D01*
X25108126Y13609720D01*
X24975000Y13630804D01*
X24841873Y13609720D01*
X24841873Y13609719D01*
X24721780Y13548529D01*
X24626471Y13453220D01*
X24565281Y13333127D01*
X24565280Y13333127D01*
X24544196Y13200000D01*
X24300500Y13200000D01*
X24300500Y16568100D01*
X24317813Y16615666D01*
X24322174Y16620426D01*
X24348528Y16646780D01*
X24409719Y16766874D01*
X24430804Y16900000D01*
X24409719Y17033126D01*
X24409719Y17033127D01*
X24348528Y17153220D01*
X24253219Y17248529D01*
X24133126Y17309719D01*
X24133126Y17309720D01*
X24000000Y17330804D01*
X23866873Y17309720D01*
X23866873Y17309719D01*
X23746780Y17248529D01*
X23651471Y17153220D01*
X23590281Y17033127D01*
X23590280Y17033127D01*
X23569196Y16900000D01*
X23590280Y16766874D01*
X23651471Y16646781D01*
X23677826Y16620426D01*
X23699218Y16574550D01*
X23699500Y16568100D01*
X23699500Y8060270D01*
X23697494Y8047799D01*
X23697967Y8047735D01*
X23697048Y8040943D01*
X23699406Y7994277D01*
X23699500Y7990544D01*
X23699500Y7972158D01*
X23699988Y7969544D01*
X23701151Y7959697D01*
X23702715Y7928739D01*
X23707577Y7917854D01*
X23712748Y7901280D01*
X23714937Y7889569D01*
X23731248Y7863226D01*
X23735897Y7854451D01*
X23748532Y7826164D01*
X23748535Y7826159D01*
X23756995Y7817771D01*
X23767807Y7804181D01*
X23774081Y7794048D01*
X23798802Y7775380D01*
X23806310Y7768875D01*
X24355538Y7224314D01*
X24383602Y7196489D01*
X24405190Y7150704D01*
X24405500Y7143940D01*
X24405500Y6581390D01*
X24388187Y6533824D01*
X24344350Y6508514D01*
X24294500Y6517304D01*
X24274297Y6534445D01*
X24182410Y6646410D01*
X24182409Y6646411D01*
X24022450Y6777685D01*
X23839956Y6875231D01*
X23839955Y6875232D01*
X23839954Y6875232D01*
X23728158Y6909145D01*
X23641935Y6935300D01*
X23436000Y6955583D01*
X23230064Y6935300D01*
X23032043Y6875231D01*
X22849549Y6777685D01*
X22689590Y6646411D01*
X22689589Y6646410D01*
X22558315Y6486451D01*
X22460769Y6303957D01*
X22400700Y6105936D01*
X22380417Y5900000D01*
X22388974Y5813115D01*
X22400700Y5694066D01*
X22460768Y5496046D01*
X22558315Y5313550D01*
X22689590Y5153590D01*
X22849550Y5022315D01*
X23032046Y4924768D01*
X23230066Y4864700D01*
X23436000Y4844417D01*
X23641934Y4864700D01*
X23839954Y4924768D01*
X24022450Y5022315D01*
X24182410Y5153590D01*
X24274298Y5265557D01*
X24317855Y5291342D01*
X24367798Y5283097D01*
X24400757Y5244678D01*
X24405500Y5218611D01*
X24405500Y4041390D01*
X24388187Y3993824D01*
X24344350Y3968514D01*
X24294500Y3977304D01*
X24274297Y3994445D01*
X24182410Y4106410D01*
X24182409Y4106411D01*
X24022450Y4237685D01*
X23839956Y4335231D01*
X23839955Y4335232D01*
X23839954Y4335232D01*
X23728158Y4369145D01*
X23641935Y4395300D01*
X23436000Y4415583D01*
X23230064Y4395300D01*
X23032043Y4335231D01*
X22849549Y4237685D01*
X22689590Y4106411D01*
X22689589Y4106410D01*
X22558315Y3946451D01*
X22460769Y3763957D01*
X22400700Y3565936D01*
X22380417Y3360000D01*
X19411583Y3360000D01*
X19391300Y3565934D01*
X19331232Y3763954D01*
X19233685Y3946450D01*
X19102410Y4106410D01*
X18942450Y4237685D01*
X18759956Y4335231D01*
X18759955Y4335232D01*
X18759954Y4335232D01*
X18648158Y4369145D01*
X18561935Y4395300D01*
X18356000Y4415583D01*
X18150064Y4395300D01*
X17952043Y4335231D01*
X17769549Y4237685D01*
X17609590Y4106411D01*
X17609589Y4106410D01*
X17478315Y3946451D01*
X17380769Y3763957D01*
X17320700Y3565936D01*
X17300417Y3360000D01*
X14331583Y3360000D01*
X14311300Y3565934D01*
X14251232Y3763954D01*
X14153685Y3946450D01*
X14022410Y4106410D01*
X13862450Y4237685D01*
X13679956Y4335231D01*
X13679955Y4335232D01*
X13679954Y4335232D01*
X13568158Y4369145D01*
X13481935Y4395300D01*
X13276000Y4415583D01*
X13070064Y4395300D01*
X12872043Y4335231D01*
X12689549Y4237685D01*
X12529590Y4106411D01*
X12529589Y4106410D01*
X12398315Y3946451D01*
X12300769Y3763957D01*
X12240700Y3565936D01*
X12220417Y3360000D01*
X11791583Y3360000D01*
X11771300Y3565934D01*
X11711232Y3763954D01*
X11613685Y3946450D01*
X11482410Y4106410D01*
X11322450Y4237685D01*
X11139956Y4335231D01*
X11139955Y4335232D01*
X11139954Y4335232D01*
X11028158Y4369145D01*
X10941935Y4395300D01*
X10736000Y4415583D01*
X10530064Y4395300D01*
X10332043Y4335231D01*
X10149549Y4237685D01*
X9989590Y4106411D01*
X9989589Y4106410D01*
X9858315Y3946451D01*
X9760769Y3763957D01*
X9700700Y3565936D01*
X9680417Y3360000D01*
X9251583Y3360000D01*
X9231300Y3565934D01*
X9171232Y3763954D01*
X9073685Y3946450D01*
X8942410Y4106410D01*
X8782450Y4237685D01*
X8599956Y4335231D01*
X8599955Y4335232D01*
X8599954Y4335232D01*
X8488158Y4369145D01*
X8401935Y4395300D01*
X8196000Y4415583D01*
X7990064Y4395300D01*
X7792043Y4335231D01*
X7609549Y4237685D01*
X7449590Y4106411D01*
X7449589Y4106410D01*
X7318315Y3946451D01*
X7220769Y3763957D01*
X7160700Y3565936D01*
X7140417Y3360000D01*
X4269457Y3360000D01*
X4279548Y3366381D01*
X4469951Y3535063D01*
X4630829Y3732103D01*
X4758016Y3952398D01*
X4848219Y4190243D01*
X4899100Y4439477D01*
X4909343Y4693645D01*
X4878682Y4946166D01*
X4842881Y5069763D01*
X4807912Y5190492D01*
X4807909Y5190501D01*
X4698864Y5420307D01*
X4698862Y5420310D01*
X4624601Y5527896D01*
X4554360Y5629659D01*
X4378148Y5813115D01*
X4262525Y5900000D01*
X9680417Y5900000D01*
X9688974Y5813115D01*
X9700700Y5694066D01*
X9760768Y5496046D01*
X9858315Y5313550D01*
X9989590Y5153590D01*
X10149550Y5022315D01*
X10332046Y4924768D01*
X10530066Y4864700D01*
X10736000Y4844417D01*
X10941934Y4864700D01*
X11139954Y4924768D01*
X11322450Y5022315D01*
X11482410Y5153590D01*
X11613685Y5313550D01*
X11711232Y5496046D01*
X11771300Y5694066D01*
X11791583Y5900000D01*
X12220417Y5900000D01*
X12228974Y5813115D01*
X12240700Y5694066D01*
X12300768Y5496046D01*
X12398315Y5313550D01*
X12529590Y5153590D01*
X12689550Y5022315D01*
X12872046Y4924768D01*
X13070066Y4864700D01*
X13276000Y4844417D01*
X13481934Y4864700D01*
X13679954Y4924768D01*
X13862450Y5022315D01*
X14022410Y5153590D01*
X14153685Y5313550D01*
X14251232Y5496046D01*
X14311300Y5694066D01*
X14331583Y5900000D01*
X14760417Y5900000D01*
X14768974Y5813115D01*
X14780700Y5694066D01*
X14840768Y5496046D01*
X14938315Y5313550D01*
X15069590Y5153590D01*
X15229550Y5022315D01*
X15412046Y4924768D01*
X15610066Y4864700D01*
X15816000Y4844417D01*
X16021934Y4864700D01*
X16219954Y4924768D01*
X16402450Y5022315D01*
X16562410Y5153590D01*
X16693685Y5313550D01*
X16791232Y5496046D01*
X16851300Y5694066D01*
X16871583Y5900000D01*
X17300417Y5900000D01*
X17308974Y5813115D01*
X17320700Y5694066D01*
X17380768Y5496046D01*
X17478315Y5313550D01*
X17609590Y5153590D01*
X17769550Y5022315D01*
X17952046Y4924768D01*
X18150066Y4864700D01*
X18356000Y4844417D01*
X18561934Y4864700D01*
X18759954Y4924768D01*
X18942450Y5022315D01*
X19102410Y5153590D01*
X19233685Y5313550D01*
X19331232Y5496046D01*
X19391300Y5694066D01*
X19411583Y5900000D01*
X19840417Y5900000D01*
X19848974Y5813115D01*
X19860700Y5694066D01*
X19920768Y5496046D01*
X20018315Y5313550D01*
X20149590Y5153590D01*
X20309550Y5022315D01*
X20492046Y4924768D01*
X20690066Y4864700D01*
X20896000Y4844417D01*
X21101934Y4864700D01*
X21299954Y4924768D01*
X21482450Y5022315D01*
X21642410Y5153590D01*
X21773685Y5313550D01*
X21871232Y5496046D01*
X21931300Y5694066D01*
X21951583Y5900000D01*
X21931300Y6105934D01*
X21871232Y6303954D01*
X21773685Y6486450D01*
X21642410Y6646410D01*
X21482450Y6777685D01*
X21299954Y6875232D01*
X21188158Y6909145D01*
X21101935Y6935300D01*
X20896000Y6955583D01*
X20690064Y6935300D01*
X20492043Y6875231D01*
X20309549Y6777685D01*
X20149590Y6646411D01*
X20149589Y6646410D01*
X20018315Y6486451D01*
X19920769Y6303957D01*
X19860700Y6105936D01*
X19840417Y5900000D01*
X19411583Y5900000D01*
X19391300Y6105934D01*
X19331232Y6303954D01*
X19233685Y6486450D01*
X19102410Y6646410D01*
X18942450Y6777685D01*
X18759954Y6875232D01*
X18648158Y6909145D01*
X18561935Y6935300D01*
X18356000Y6955583D01*
X18150064Y6935300D01*
X17952043Y6875231D01*
X17769549Y6777685D01*
X17609590Y6646411D01*
X17609589Y6646410D01*
X17478315Y6486451D01*
X17380769Y6303957D01*
X17320700Y6105936D01*
X17300417Y5900000D01*
X16871583Y5900000D01*
X16851300Y6105934D01*
X16791232Y6303954D01*
X16693685Y6486450D01*
X16562410Y6646410D01*
X16402450Y6777685D01*
X16219954Y6875232D01*
X16108158Y6909145D01*
X16021935Y6935300D01*
X15816000Y6955583D01*
X15610064Y6935300D01*
X15412043Y6875231D01*
X15229549Y6777685D01*
X15069590Y6646411D01*
X15069589Y6646410D01*
X14938315Y6486451D01*
X14840769Y6303957D01*
X14780700Y6105936D01*
X14760417Y5900000D01*
X14331583Y5900000D01*
X14311300Y6105934D01*
X14251232Y6303954D01*
X14153685Y6486450D01*
X14022410Y6646410D01*
X13862450Y6777685D01*
X13679954Y6875232D01*
X13568158Y6909145D01*
X13481935Y6935300D01*
X13276000Y6955583D01*
X13070064Y6935300D01*
X12872043Y6875231D01*
X12689549Y6777685D01*
X12529590Y6646411D01*
X12529589Y6646410D01*
X12398315Y6486451D01*
X12300769Y6303957D01*
X12240700Y6105936D01*
X12220417Y5900000D01*
X11791583Y5900000D01*
X11771300Y6105934D01*
X11711232Y6303954D01*
X11613685Y6486450D01*
X11482410Y6646410D01*
X11322450Y6777685D01*
X11139954Y6875232D01*
X11028158Y6909145D01*
X10941935Y6935300D01*
X10736000Y6955583D01*
X10530064Y6935300D01*
X10332043Y6875231D01*
X10149549Y6777685D01*
X9989590Y6646411D01*
X9989589Y6646410D01*
X9858315Y6486451D01*
X9760769Y6303957D01*
X9700700Y6105936D01*
X9680417Y5900000D01*
X4262525Y5900000D01*
X4174790Y5965929D01*
X3949552Y6084143D01*
X3708268Y6164695D01*
X3457187Y6205500D01*
X3266517Y6205500D01*
X3076452Y6190157D01*
X2829469Y6129281D01*
X2595448Y6029575D01*
X2380451Y5893619D01*
X2190046Y5724935D01*
X2029169Y5527896D01*
X1901984Y5307604D01*
X1901980Y5307595D01*
X1811782Y5069763D01*
X1811782Y5069761D01*
X1811781Y5069759D01*
X1811781Y5069757D01*
X1803716Y5030252D01*
X1760899Y4820520D01*
X1750657Y4566355D01*
X300500Y4566355D01*
X300500Y15200000D01*
X21644196Y15200000D01*
X21665280Y15066874D01*
X21726471Y14946781D01*
X21726472Y14946780D01*
X21821780Y14851472D01*
X21941873Y14790282D01*
X21941873Y14790281D01*
X21960075Y14787399D01*
X22075000Y14769196D01*
X22208126Y14790281D01*
X22328220Y14851472D01*
X22423528Y14946780D01*
X22484719Y15066874D01*
X22505804Y15200000D01*
X22484719Y15333126D01*
X22484719Y15333127D01*
X22423528Y15453220D01*
X22328219Y15548529D01*
X22208126Y15609719D01*
X22208126Y15609720D01*
X22075000Y15630804D01*
X21941873Y15609720D01*
X21941873Y15609719D01*
X21821780Y15548529D01*
X21726471Y15453220D01*
X21665281Y15333127D01*
X21665280Y15333127D01*
X21644196Y15200000D01*
X300500Y15200000D01*
X300500Y18725000D01*
X19369196Y18725000D01*
X19390280Y18591874D01*
X19451471Y18471781D01*
X19451472Y18471780D01*
X19546780Y18376472D01*
X19666873Y18315282D01*
X19666873Y18315281D01*
X19685075Y18312399D01*
X19800000Y18294196D01*
X19933126Y18315281D01*
X20053220Y18376472D01*
X20148528Y18471780D01*
X20209719Y18591874D01*
X20230804Y18725000D01*
X20209719Y18858126D01*
X20209719Y18858127D01*
X20148528Y18978220D01*
X20053219Y19073529D01*
X19933126Y19134719D01*
X19933126Y19134720D01*
X19800000Y19155804D01*
X19666873Y19134720D01*
X19666873Y19134719D01*
X19546780Y19073529D01*
X19451471Y18978220D01*
X19390281Y18858127D01*
X19390280Y18858127D01*
X19369196Y18725000D01*
X300500Y18725000D01*
X300500Y19300000D01*
X14619196Y19300000D01*
X14640280Y19166874D01*
X14687843Y19073528D01*
X14701472Y19046780D01*
X14796780Y18951472D01*
X14916873Y18890282D01*
X14916873Y18890281D01*
X14935075Y18887399D01*
X15050000Y18869196D01*
X15183126Y18890281D01*
X15303220Y18951472D01*
X15398528Y19046780D01*
X15459719Y19166874D01*
X15480804Y19300000D01*
X15459719Y19433126D01*
X15459719Y19433127D01*
X15398528Y19553220D01*
X15303219Y19648529D01*
X15183126Y19709719D01*
X15183126Y19709720D01*
X15050000Y19730804D01*
X14916873Y19709720D01*
X14916873Y19709719D01*
X14796780Y19648529D01*
X14701471Y19553220D01*
X14640281Y19433127D01*
X14640280Y19433127D01*
X14619196Y19300000D01*
X300500Y19300000D01*
X300500Y23400000D01*
X29319196Y23400000D01*
X29340280Y23266874D01*
X29401471Y23146781D01*
X29401472Y23146780D01*
X29496780Y23051472D01*
X29616873Y22990282D01*
X29616873Y22990281D01*
X29635075Y22987399D01*
X29750000Y22969196D01*
X29883126Y22990281D01*
X30003220Y23051472D01*
X30004574Y23052826D01*
X30005997Y23053490D01*
X30007936Y23054898D01*
X30008209Y23054522D01*
X30050450Y23074218D01*
X30056900Y23074500D01*
X32482559Y23074500D01*
X32489008Y23074219D01*
X32500916Y23073177D01*
X32528805Y23070736D01*
X32528805Y23070737D01*
X32528807Y23070736D01*
X32567413Y23081082D01*
X32573703Y23082476D01*
X32613045Y23089412D01*
X32617194Y23091809D01*
X32635055Y23099206D01*
X32639684Y23100446D01*
X32672410Y23123362D01*
X32677844Y23126825D01*
X32712455Y23146806D01*
X32738150Y23177430D01*
X32742490Y23182166D01*
X33217841Y23657517D01*
X33222565Y23661846D01*
X33253194Y23687545D01*
X33273175Y23722156D01*
X33276639Y23727591D01*
X33287298Y23742813D01*
X33299554Y23760316D01*
X33300794Y23764946D01*
X33308193Y23782808D01*
X33310588Y23786955D01*
X33317524Y23826297D01*
X33318918Y23832587D01*
X33329264Y23871193D01*
X33325782Y23910995D01*
X33325500Y23917445D01*
X33325500Y24593100D01*
X33342813Y24640666D01*
X33347174Y24645426D01*
X33348528Y24646780D01*
X33409719Y24766874D01*
X33430804Y24900000D01*
X33409719Y25033126D01*
X33409719Y25033127D01*
X33348528Y25153220D01*
X33253219Y25248529D01*
X33133126Y25309719D01*
X33133126Y25309720D01*
X33000000Y25330804D01*
X32866873Y25309720D01*
X32866873Y25309719D01*
X32746780Y25248529D01*
X32651471Y25153220D01*
X32590281Y25033127D01*
X32590280Y25033127D01*
X32569196Y24900000D01*
X32590280Y24766874D01*
X32651471Y24646781D01*
X32652826Y24645426D01*
X32653489Y24644003D01*
X32654898Y24642064D01*
X32654521Y24641791D01*
X32674218Y24599550D01*
X32674500Y24593100D01*
X32674500Y24065478D01*
X32657187Y24017912D01*
X32652826Y24013152D01*
X32386848Y23747174D01*
X32340972Y23725782D01*
X32334522Y23725500D01*
X30056900Y23725500D01*
X30009334Y23742813D01*
X30004574Y23747174D01*
X30003219Y23748529D01*
X29883126Y23809719D01*
X29883126Y23809720D01*
X29750000Y23830804D01*
X29616873Y23809720D01*
X29616873Y23809719D01*
X29496780Y23748529D01*
X29401471Y23653220D01*
X29340281Y23533127D01*
X29340280Y23533127D01*
X29319196Y23400000D01*
X300500Y23400000D01*
X300500Y28800000D01*
X26900000Y28800000D01*
X26900000Y24400000D01*
X30100000Y24400000D01*
X30100000Y28800000D01*
X26900000Y28800000D01*
X300500Y28800000D01*
X300500Y31150000D01*
X43569196Y31150000D01*
X43590280Y31016874D01*
X43651471Y30896781D01*
X43651472Y30896780D01*
X43746780Y30801472D01*
X43866873Y30740282D01*
X43866873Y30740281D01*
X43885075Y30737399D01*
X44000000Y30719196D01*
X44133126Y30740281D01*
X44253220Y30801472D01*
X44348528Y30896780D01*
X44409719Y31016874D01*
X44430804Y31150000D01*
X44409719Y31283126D01*
X44409719Y31283127D01*
X44348528Y31403220D01*
X44253219Y31498529D01*
X44133126Y31559719D01*
X44133126Y31559720D01*
X44000000Y31580804D01*
X43866873Y31559720D01*
X43866873Y31559719D01*
X43746780Y31498529D01*
X43651471Y31403220D01*
X43590281Y31283127D01*
X43590280Y31283127D01*
X43569196Y31150000D01*
X300500Y31150000D01*
X300500Y32050000D01*
X32569196Y32050000D01*
X32590280Y31916874D01*
X32651471Y31796781D01*
X32651472Y31796780D01*
X32746780Y31701472D01*
X32866873Y31640282D01*
X32866873Y31640281D01*
X32885075Y31637399D01*
X33000000Y31619196D01*
X33133126Y31640281D01*
X33253220Y31701472D01*
X33348528Y31796780D01*
X33409719Y31916874D01*
X33430804Y32050000D01*
X33409719Y32183126D01*
X33409719Y32183127D01*
X33348528Y32303220D01*
X33253219Y32398529D01*
X33133126Y32459719D01*
X33133126Y32459720D01*
X33000000Y32480804D01*
X32866873Y32459720D01*
X32866873Y32459719D01*
X32746780Y32398529D01*
X32651471Y32303220D01*
X32590281Y32183127D01*
X32590280Y32183127D01*
X32569196Y32050000D01*
X300500Y32050000D01*
X300500Y39697576D01*
X17874500Y39697576D01*
X17889472Y39540780D01*
X17948683Y39339127D01*
X17948685Y39339123D01*
X18044986Y39152322D01*
X18044988Y39152319D01*
X18044989Y39152318D01*
X18128803Y39045741D01*
X18174908Y38987114D01*
X18333740Y38849484D01*
X18333741Y38849484D01*
X18333744Y38849481D01*
X18515756Y38744396D01*
X18714367Y38675656D01*
X18922398Y38645746D01*
X19132330Y38655746D01*
X19336576Y38705296D01*
X19527753Y38792604D01*
X19698952Y38914514D01*
X19843986Y39066622D01*
X19957613Y39243428D01*
X20035725Y39438543D01*
X20075500Y39644915D01*
X20075500Y39697576D01*
X21684500Y39697576D01*
X21699472Y39540780D01*
X21758683Y39339127D01*
X21758685Y39339123D01*
X21854986Y39152322D01*
X21854988Y39152319D01*
X21854989Y39152318D01*
X21938803Y39045741D01*
X21984908Y38987114D01*
X22143740Y38849484D01*
X22143741Y38849484D01*
X22143744Y38849481D01*
X22325756Y38744396D01*
X22524367Y38675656D01*
X22732398Y38645746D01*
X22942330Y38655746D01*
X23146576Y38705296D01*
X23337753Y38792604D01*
X23508952Y38914514D01*
X23653986Y39066622D01*
X23767613Y39243428D01*
X23845725Y39438543D01*
X23885500Y39644915D01*
X23885500Y39697576D01*
X25494500Y39697576D01*
X25509472Y39540780D01*
X25568683Y39339127D01*
X25568685Y39339123D01*
X25664986Y39152322D01*
X25664988Y39152319D01*
X25664989Y39152318D01*
X25748803Y39045741D01*
X25794908Y38987114D01*
X25953740Y38849484D01*
X25953741Y38849484D01*
X25953744Y38849481D01*
X26135756Y38744396D01*
X26334367Y38675656D01*
X26542398Y38645746D01*
X26752330Y38655746D01*
X26956576Y38705296D01*
X27147753Y38792604D01*
X27318952Y38914514D01*
X27444069Y39045734D01*
X29304500Y39045734D01*
X29307354Y39015301D01*
X29307354Y39015299D01*
X29307355Y39015296D01*
X29352206Y38887119D01*
X29352207Y38887117D01*
X29432846Y38777854D01*
X29432853Y38777847D01*
X29542116Y38697208D01*
X29542118Y38697207D01*
X29670295Y38652356D01*
X29670301Y38652354D01*
X29700734Y38649500D01*
X29700741Y38649500D01*
X31109258Y38649500D01*
X31109266Y38649500D01*
X31139699Y38652354D01*
X31267882Y38697207D01*
X31377150Y38777850D01*
X31457793Y38887118D01*
X31502646Y39015301D01*
X31505500Y39045734D01*
X31505500Y42254266D01*
X31502646Y42284699D01*
X31457793Y42412882D01*
X31457792Y42412884D01*
X31377153Y42522147D01*
X31377146Y42522154D01*
X31267883Y42602793D01*
X31267881Y42602794D01*
X31139704Y42647645D01*
X31139705Y42647645D01*
X31139700Y42647646D01*
X31139699Y42647646D01*
X31109266Y42650500D01*
X29700734Y42650500D01*
X29670301Y42647646D01*
X29670299Y42647646D01*
X29670295Y42647645D01*
X29542118Y42602794D01*
X29542116Y42602793D01*
X29432853Y42522154D01*
X29432846Y42522147D01*
X29352207Y42412884D01*
X29352206Y42412882D01*
X29307355Y42284705D01*
X29307354Y42284701D01*
X29307354Y42284699D01*
X29304500Y42254266D01*
X29304500Y39045734D01*
X27444069Y39045734D01*
X27463986Y39066622D01*
X27577613Y39243428D01*
X27655725Y39438543D01*
X27695500Y39644915D01*
X27695500Y41602425D01*
X27680528Y41759218D01*
X27621316Y41960875D01*
X27525011Y42147682D01*
X27395092Y42312886D01*
X27311308Y42385486D01*
X27236259Y42450517D01*
X27236256Y42450519D01*
X27054244Y42555604D01*
X27054240Y42555606D01*
X27054239Y42555606D01*
X26855636Y42624343D01*
X26855633Y42624344D01*
X26647602Y42654254D01*
X26647598Y42654254D01*
X26647596Y42654254D01*
X26437668Y42644254D01*
X26233427Y42594705D01*
X26233425Y42594705D01*
X26233424Y42594704D01*
X26074554Y42522150D01*
X26042245Y42507395D01*
X25871047Y42385486D01*
X25726014Y42233380D01*
X25612385Y42056569D01*
X25534274Y41861456D01*
X25494500Y41655084D01*
X25494500Y39697576D01*
X23885500Y39697576D01*
X23885500Y41602425D01*
X23870528Y41759218D01*
X23811316Y41960875D01*
X23715011Y42147682D01*
X23585092Y42312886D01*
X23501308Y42385486D01*
X23426259Y42450517D01*
X23426256Y42450519D01*
X23244244Y42555604D01*
X23244240Y42555606D01*
X23244239Y42555606D01*
X23045636Y42624343D01*
X23045633Y42624344D01*
X22837602Y42654254D01*
X22837598Y42654254D01*
X22837596Y42654254D01*
X22627668Y42644254D01*
X22423427Y42594705D01*
X22423425Y42594705D01*
X22423424Y42594704D01*
X22264554Y42522150D01*
X22232245Y42507395D01*
X22061047Y42385486D01*
X21916014Y42233380D01*
X21802385Y42056569D01*
X21724274Y41861456D01*
X21684500Y41655084D01*
X21684500Y39697576D01*
X20075500Y39697576D01*
X20075500Y41602425D01*
X20060528Y41759218D01*
X20001316Y41960875D01*
X19905011Y42147682D01*
X19775092Y42312886D01*
X19691308Y42385486D01*
X19616259Y42450517D01*
X19616256Y42450519D01*
X19434244Y42555604D01*
X19434240Y42555606D01*
X19434239Y42555606D01*
X19235636Y42624343D01*
X19235633Y42624344D01*
X19027602Y42654254D01*
X19027598Y42654254D01*
X19027596Y42654254D01*
X18817668Y42644254D01*
X18613427Y42594705D01*
X18613425Y42594705D01*
X18613424Y42594704D01*
X18454554Y42522150D01*
X18422245Y42507395D01*
X18251047Y42385486D01*
X18106014Y42233380D01*
X17992385Y42056569D01*
X17914274Y41861456D01*
X17874500Y41655084D01*
X17874500Y39697576D01*
X300500Y39697576D01*
X300500Y46166355D01*
X1400657Y46166355D01*
X1431316Y45913843D01*
X1431320Y45913826D01*
X1502087Y45669509D01*
X1502090Y45669500D01*
X1611135Y45439694D01*
X1611137Y45439691D01*
X1611138Y45439689D01*
X1611139Y45439688D01*
X1755640Y45230341D01*
X1931852Y45046885D01*
X2135210Y44894071D01*
X2360448Y44775857D01*
X2601732Y44695305D01*
X2852813Y44654500D01*
X2852816Y44654500D01*
X3043483Y44654500D01*
X3233550Y44669844D01*
X3480533Y44730720D01*
X3714553Y44830426D01*
X3929548Y44966381D01*
X4119951Y45135063D01*
X4280829Y45332103D01*
X4408016Y45552398D01*
X4498219Y45790243D01*
X4549100Y46039477D01*
X4553004Y46136355D01*
X61650657Y46136355D01*
X61681316Y45883843D01*
X61681320Y45883826D01*
X61752087Y45639509D01*
X61752090Y45639500D01*
X61861135Y45409694D01*
X61861137Y45409691D01*
X61861138Y45409689D01*
X61861139Y45409688D01*
X62005640Y45200341D01*
X62181852Y45016885D01*
X62385210Y44864071D01*
X62610448Y44745857D01*
X62851732Y44665305D01*
X63102813Y44624500D01*
X63102816Y44624500D01*
X63293483Y44624500D01*
X63483550Y44639844D01*
X63730533Y44700720D01*
X63964553Y44800426D01*
X64179548Y44936381D01*
X64369951Y45105063D01*
X64530829Y45302103D01*
X64658016Y45522398D01*
X64748219Y45760243D01*
X64799100Y46009477D01*
X64809343Y46263645D01*
X64778682Y46516166D01*
X64742881Y46639763D01*
X64707912Y46760492D01*
X64707909Y46760501D01*
X64598864Y46990307D01*
X64598862Y46990310D01*
X64578153Y47020312D01*
X64454360Y47199659D01*
X64278148Y47383115D01*
X64074790Y47535929D01*
X63849552Y47654143D01*
X63608268Y47734695D01*
X63357187Y47775500D01*
X63166517Y47775500D01*
X62976452Y47760157D01*
X62729469Y47699281D01*
X62495448Y47599575D01*
X62280451Y47463619D01*
X62090046Y47294935D01*
X61929169Y47097896D01*
X61801984Y46877604D01*
X61801980Y46877595D01*
X61711782Y46639763D01*
X61711782Y46639761D01*
X61660899Y46390520D01*
X61650657Y46136355D01*
X4553004Y46136355D01*
X4559343Y46293645D01*
X4528682Y46546166D01*
X4482090Y46707020D01*
X4457912Y46790492D01*
X4457909Y46790501D01*
X4348864Y47020307D01*
X4348862Y47020310D01*
X4274601Y47127896D01*
X4204360Y47229659D01*
X4028148Y47413115D01*
X3824790Y47565929D01*
X3599552Y47684143D01*
X3358268Y47764695D01*
X3107187Y47805500D01*
X2916517Y47805500D01*
X2726452Y47790157D01*
X2479469Y47729281D01*
X2245448Y47629575D01*
X2030451Y47493619D01*
X1840046Y47324935D01*
X1679169Y47127896D01*
X1551984Y46907604D01*
X1551980Y46907595D01*
X1461782Y46669763D01*
X1461782Y46669761D01*
X1410899Y46420520D01*
X1400657Y46166355D01*
X300500Y46166355D01*
X300500Y46187917D01*
X300616Y46192066D01*
X304636Y46263651D01*
X317241Y46488115D01*
X318171Y46496353D01*
X321536Y46516158D01*
X367487Y46786608D01*
X369326Y46794668D01*
X450841Y47077611D01*
X453571Y47085414D01*
X566246Y47357436D01*
X569840Y47364898D01*
X712268Y47622603D01*
X716665Y47629601D01*
X887044Y47869727D01*
X892202Y47876196D01*
X1088408Y48095751D01*
X1094249Y48101592D01*
X1313804Y48297798D01*
X1320273Y48302956D01*
X1560399Y48473335D01*
X1567397Y48477732D01*
X1825102Y48620160D01*
X1832564Y48623754D01*
X2104586Y48736429D01*
X2112389Y48739159D01*
X2395332Y48820674D01*
X2403392Y48822513D01*
X2693655Y48871830D01*
X2701885Y48872759D01*
X2997934Y48889385D01*
X3002083Y48889500D01*
X3047595Y48889500D01*
X63172405Y48889500D01*
X63217917Y48889500D01*
X63222065Y48889385D01*
G37*
%TD.AperFunction*%
%TD*%
M02*
