%TF.GenerationSoftware,KiCad,Pcbnew,7.0.11+dfsg-1build4*%
%TF.CreationDate,2026-10-02T16:45:10+09:00*%
%TF.ProjectId,t1s_hat,7431735f-6861-4742-9e6b-696361645f70,rev?*%
%TF.SameCoordinates,Original*%
%TF.FileFunction,Paste,Top*%
%TF.FilePolarity,Positive*%
%FSLAX46Y46*%
G04 Gerber Fmt 4.6, Leading zero omitted, Abs format (unit mm)*
G04 Created by KiCad (PCBNEW 7.0.11+dfsg-1build4) date 2026-10-02 16:45:10*
%MOMM*%
%LPD*%
G01*
G04 APERTURE LIST*
G04 Aperture macros list*
%AMRoundRect*
0 Rectangle with rounded corners*
0 $1 Rounding radius*
0 $2 $3 $4 $5 $6 $7 $8 $9 X,Y pos of 4 corners*
0 Add a 4 corners polygon primitive as box body*
4,1,4,$2,$3,$4,$5,$6,$7,$8,$9,$2,$3,0*
0 Add four circle primitives for the rounded corners*
1,1,$1+$1,$2,$3*
1,1,$1+$1,$4,$5*
1,1,$1+$1,$6,$7*
1,1,$1+$1,$8,$9*
0 Add four rect primitives between the rounded corners*
20,1,$1+$1,$2,$3,$4,$5,0*
20,1,$1+$1,$4,$5,$6,$7,0*
20,1,$1+$1,$6,$7,$8,$9,0*
20,1,$1+$1,$8,$9,$2,$3,0*%
%AMFreePoly0*
4,1,14,0.340806,0.106694,0.394194,0.053306,0.412500,0.009112,0.412500,-0.062500,0.394194,-0.106694,0.350000,-0.125000,-0.350000,-0.125000,-0.394194,-0.106694,-0.412500,-0.062500,-0.412500,0.062500,-0.394194,0.106694,-0.350000,0.125000,0.296612,0.125000,0.340806,0.106694,0.340806,0.106694,$1*%
%AMFreePoly1*
4,1,14,0.394194,0.106694,0.412500,0.062500,0.412500,-0.009112,0.394194,-0.053306,0.340806,-0.106694,0.296612,-0.125000,-0.350000,-0.125000,-0.394194,-0.106694,-0.412500,-0.062500,-0.412500,0.062500,-0.394194,0.106694,-0.350000,0.125000,0.350000,0.125000,0.394194,0.106694,0.394194,0.106694,$1*%
%AMFreePoly2*
4,1,14,0.106694,0.394194,0.125000,0.350000,0.125000,-0.350000,0.106694,-0.394194,0.062500,-0.412500,-0.062500,-0.412500,-0.106694,-0.394194,-0.125000,-0.350000,-0.125000,0.296612,-0.106694,0.340806,-0.053306,0.394194,-0.009112,0.412500,0.062500,0.412500,0.106694,0.394194,0.106694,0.394194,$1*%
%AMFreePoly3*
4,1,14,0.053306,0.394194,0.106694,0.340806,0.125000,0.296612,0.125000,-0.350000,0.106694,-0.394194,0.062500,-0.412500,-0.062500,-0.412500,-0.106694,-0.394194,-0.125000,-0.350000,-0.125000,0.350000,-0.106694,0.394194,-0.062500,0.412500,0.009112,0.412500,0.053306,0.394194,0.053306,0.394194,$1*%
%AMFreePoly4*
4,1,14,0.394194,0.106694,0.412500,0.062500,0.412500,-0.062500,0.394194,-0.106694,0.350000,-0.125000,-0.296612,-0.125000,-0.340806,-0.106694,-0.394194,-0.053306,-0.412500,-0.009112,-0.412500,0.062500,-0.394194,0.106694,-0.350000,0.125000,0.350000,0.125000,0.394194,0.106694,0.394194,0.106694,$1*%
%AMFreePoly5*
4,1,14,0.394194,0.106694,0.412500,0.062500,0.412500,-0.062500,0.394194,-0.106694,0.350000,-0.125000,-0.350000,-0.125000,-0.394194,-0.106694,-0.412500,-0.062500,-0.412500,0.009112,-0.394194,0.053306,-0.340806,0.106694,-0.296612,0.125000,0.350000,0.125000,0.394194,0.106694,0.394194,0.106694,$1*%
%AMFreePoly6*
4,1,14,0.106694,0.394194,0.125000,0.350000,0.125000,-0.296612,0.106694,-0.340806,0.053306,-0.394194,0.009112,-0.412500,-0.062500,-0.412500,-0.106694,-0.394194,-0.125000,-0.350000,-0.125000,0.350000,-0.106694,0.394194,-0.062500,0.412500,0.062500,0.412500,0.106694,0.394194,0.106694,0.394194,$1*%
%AMFreePoly7*
4,1,14,0.106694,0.394194,0.125000,0.350000,0.125000,-0.350000,0.106694,-0.394194,0.062500,-0.412500,-0.009112,-0.412500,-0.053306,-0.394194,-0.106694,-0.340806,-0.125000,-0.296612,-0.125000,0.350000,-0.106694,0.394194,-0.062500,0.412500,0.062500,0.412500,0.106694,0.394194,0.106694,0.394194,$1*%
G04 Aperture macros list end*
%ADD10RoundRect,0.225000X0.250000X-0.225000X0.250000X0.225000X-0.250000X0.225000X-0.250000X-0.225000X0*%
%ADD11RoundRect,0.225000X-0.225000X-0.250000X0.225000X-0.250000X0.225000X0.250000X-0.225000X0.250000X0*%
%ADD12RoundRect,0.080000X-0.120000X-0.170000X0.120000X-0.170000X0.120000X0.170000X-0.120000X0.170000X0*%
%ADD13RoundRect,0.250000X-0.312500X-0.625000X0.312500X-0.625000X0.312500X0.625000X-0.312500X0.625000X0*%
%ADD14RoundRect,0.200000X-0.200000X-0.275000X0.200000X-0.275000X0.200000X0.275000X-0.200000X0.275000X0*%
%ADD15RoundRect,0.250000X-0.250000X-0.475000X0.250000X-0.475000X0.250000X0.475000X-0.250000X0.475000X0*%
%ADD16RoundRect,0.120000X0.180000X-0.405000X0.180000X0.405000X-0.180000X0.405000X-0.180000X-0.405000X0*%
%ADD17R,1.200000X1.400000*%
%ADD18RoundRect,0.218750X0.218750X0.256250X-0.218750X0.256250X-0.218750X-0.256250X0.218750X-0.256250X0*%
%ADD19RoundRect,0.080000X0.120000X0.170000X-0.120000X0.170000X-0.120000X-0.170000X0.120000X-0.170000X0*%
%ADD20RoundRect,0.225000X0.225000X0.250000X-0.225000X0.250000X-0.225000X-0.250000X0.225000X-0.250000X0*%
%ADD21RoundRect,0.218750X-0.218750X-0.256250X0.218750X-0.256250X0.218750X0.256250X-0.218750X0.256250X0*%
%ADD22RoundRect,0.250000X0.475000X-0.250000X0.475000X0.250000X-0.475000X0.250000X-0.475000X-0.250000X0*%
%ADD23RoundRect,0.250000X-0.262500X-0.450000X0.262500X-0.450000X0.262500X0.450000X-0.262500X0.450000X0*%
%ADD24RoundRect,0.225000X-0.250000X0.225000X-0.250000X-0.225000X0.250000X-0.225000X0.250000X0.225000X0*%
%ADD25RoundRect,0.250000X0.312500X0.625000X-0.312500X0.625000X-0.312500X-0.625000X0.312500X-0.625000X0*%
%ADD26RoundRect,0.250000X0.250000X0.475000X-0.250000X0.475000X-0.250000X-0.475000X0.250000X-0.475000X0*%
%ADD27RoundRect,0.200000X0.275000X-0.200000X0.275000X0.200000X-0.275000X0.200000X-0.275000X-0.200000X0*%
%ADD28R,0.550000X0.650000*%
%ADD29R,0.650000X1.200000*%
%ADD30R,0.650000X0.500000*%
%ADD31R,0.500000X0.650000*%
%ADD32FreePoly0,0.000000*%
%ADD33RoundRect,0.062500X-0.350000X-0.062500X0.350000X-0.062500X0.350000X0.062500X-0.350000X0.062500X0*%
%ADD34FreePoly1,0.000000*%
%ADD35FreePoly2,0.000000*%
%ADD36RoundRect,0.062500X-0.062500X-0.350000X0.062500X-0.350000X0.062500X0.350000X-0.062500X0.350000X0*%
%ADD37FreePoly3,0.000000*%
%ADD38FreePoly4,0.000000*%
%ADD39FreePoly5,0.000000*%
%ADD40FreePoly6,0.000000*%
%ADD41FreePoly7,0.000000*%
G04 APERTURE END LIST*
D10*
%TO.C,C15*%
X31750000Y28125000D03*
X31750000Y29675000D03*
%TD*%
D11*
%TO.C,C9*%
X33825000Y15700000D03*
X35375000Y15700000D03*
%TD*%
D12*
%TO.C,MOV1*%
X37100000Y37000000D03*
X37900000Y37000000D03*
%TD*%
D13*
%TO.C,R2*%
X23537500Y34200000D03*
X26462500Y34200000D03*
%TD*%
D14*
%TO.C,R4*%
X22075000Y16200000D03*
X23725000Y16200000D03*
%TD*%
D15*
%TO.C,C6*%
X15050000Y18000000D03*
X16950000Y18000000D03*
%TD*%
D16*
%TO.C,L1*%
X29000000Y25075000D03*
X28000000Y25075000D03*
X28000000Y28125000D03*
X29000000Y28125000D03*
%TD*%
D17*
%TO.C,Y1*%
X33630000Y27900000D03*
X33630000Y25700000D03*
X35330000Y25700000D03*
X35330000Y27900000D03*
%TD*%
D18*
%TO.C,FB2*%
X38787500Y21900000D03*
X37212500Y21900000D03*
%TD*%
D15*
%TO.C,C4*%
X35350000Y20000000D03*
X37250000Y20000000D03*
%TD*%
D10*
%TO.C,C8*%
X25400000Y18725000D03*
X25400000Y20275000D03*
%TD*%
D19*
%TO.C,MOV2*%
X21400000Y37000000D03*
X20600000Y37000000D03*
%TD*%
D20*
%TO.C,C12*%
X25975000Y23950000D03*
X24425000Y23950000D03*
%TD*%
D21*
%TO.C,FB3*%
X20712500Y18725000D03*
X22287500Y18725000D03*
%TD*%
D14*
%TO.C,R5*%
X25595000Y8800000D03*
X27245000Y8800000D03*
%TD*%
D22*
%TO.C,C1*%
X29500000Y29850000D03*
X29500000Y31750000D03*
%TD*%
D11*
%TO.C,C14*%
X33825000Y22437500D03*
X35375000Y22437500D03*
%TD*%
D14*
%TO.C,R6*%
X24975000Y14200000D03*
X26625000Y14200000D03*
%TD*%
D23*
%TO.C,R3*%
X29987500Y37000000D03*
X31812500Y37000000D03*
%TD*%
D11*
%TO.C,C10*%
X33825000Y17300000D03*
X35375000Y17300000D03*
%TD*%
D21*
%TO.C,FB1*%
X24412500Y25450000D03*
X25987500Y25450000D03*
%TD*%
D18*
%TO.C,FB4*%
X35387500Y14100000D03*
X33812500Y14100000D03*
%TD*%
D24*
%TO.C,C16*%
X36950000Y26525000D03*
X36950000Y24975000D03*
%TD*%
D20*
%TO.C,C11*%
X25975000Y22450000D03*
X24425000Y22450000D03*
%TD*%
D11*
%TO.C,C13*%
X33825000Y23940000D03*
X35375000Y23940000D03*
%TD*%
D25*
%TO.C,R1*%
X33462500Y34200000D03*
X30537500Y34200000D03*
%TD*%
D26*
%TO.C,C3*%
X27050000Y37000000D03*
X25150000Y37000000D03*
%TD*%
D27*
%TO.C,R7*%
X32000000Y23795000D03*
X32000000Y25445000D03*
%TD*%
D22*
%TO.C,C2*%
X27500000Y29850000D03*
X27500000Y31750000D03*
%TD*%
D24*
%TO.C,C5*%
X33850000Y20325000D03*
X33850000Y18775000D03*
%TD*%
D28*
%TO.C,U1*%
X28675000Y20725000D03*
X28675000Y19275000D03*
D29*
X29275000Y21000000D03*
D30*
X29275000Y20000000D03*
D29*
X29275000Y19000000D03*
D31*
X30000000Y20725000D03*
X30000000Y19275000D03*
D29*
X30725000Y21000000D03*
D30*
X30725000Y20000000D03*
D29*
X30725000Y19000000D03*
D28*
X31325000Y20725000D03*
X31325000Y19275000D03*
D32*
X27562500Y21750000D03*
D33*
X27562500Y21250000D03*
X27562500Y20750000D03*
X27562500Y20250000D03*
X27562500Y19750000D03*
X27562500Y19250000D03*
X27562500Y18750000D03*
D34*
X27562500Y18250000D03*
D35*
X28250000Y17562500D03*
D36*
X28750000Y17562500D03*
X29250000Y17562500D03*
X29750000Y17562500D03*
X30250000Y17562500D03*
X30750000Y17562500D03*
X31250000Y17562500D03*
D37*
X31750000Y17562500D03*
D38*
X32437500Y18250000D03*
D33*
X32437500Y18750000D03*
X32437500Y19250000D03*
X32437500Y19750000D03*
X32437500Y20250000D03*
X32437500Y20750000D03*
X32437500Y21250000D03*
D39*
X32437500Y21750000D03*
D40*
X31750000Y22437500D03*
D36*
X31250000Y22437500D03*
X30750000Y22437500D03*
X30250000Y22437500D03*
X29750000Y22437500D03*
X29250000Y22437500D03*
X28750000Y22437500D03*
D41*
X28250000Y22437500D03*
%TD*%
D10*
%TO.C,C7*%
X23800000Y18725000D03*
X23800000Y20275000D03*
%TD*%
M02*
