%TF.GenerationSoftware,KiCad,Pcbnew,7.0.11+dfsg-1build4*%
%TF.CreationDate,2026-10-02T16:45:10+09:00*%
%TF.ProjectId,t1s_hat,7431735f-6861-4742-9e6b-696361645f70,rev?*%
%TF.SameCoordinates,Original*%
%TF.FileFunction,Copper,L2,Inr*%
%TF.FilePolarity,Positive*%
%FSLAX46Y46*%
G04 Gerber Fmt 4.6, Leading zero omitted, Abs format (unit mm)*
G04 Created by KiCad (PCBNEW 7.0.11+dfsg-1build4) date 2026-10-02 16:45:10*
%MOMM*%
%LPD*%
G01*
G04 APERTURE LIST*
G04 Aperture macros list*
%AMRoundRect*
0 Rectangle with rounded corners*
0 $1 Rounding radius*
0 $2 $3 $4 $5 $6 $7 $8 $9 X,Y pos of 4 corners*
0 Add a 4 corners polygon primitive as box body*
4,1,4,$2,$3,$4,$5,$6,$7,$8,$9,$2,$3,0*
0 Add four circle primitives for the rounded corners*
1,1,$1+$1,$2,$3*
1,1,$1+$1,$4,$5*
1,1,$1+$1,$6,$7*
1,1,$1+$1,$8,$9*
0 Add four rect primitives between the rounded corners*
20,1,$1+$1,$2,$3,$4,$5,0*
20,1,$1+$1,$4,$5,$6,$7,0*
20,1,$1+$1,$6,$7,$8,$9,0*
20,1,$1+$1,$8,$9,$2,$3,0*%
G04 Aperture macros list end*
%TA.AperFunction,ComponentPad*%
%ADD10R,1.700000X1.700000*%
%TD*%
%TA.AperFunction,ComponentPad*%
%ADD11O,1.700000X1.700000*%
%TD*%
%TA.AperFunction,ComponentPad*%
%ADD12RoundRect,0.250000X0.650000X1.550000X-0.650000X1.550000X-0.650000X-1.550000X0.650000X-1.550000X0*%
%TD*%
%TA.AperFunction,ComponentPad*%
%ADD13O,1.800000X3.600000*%
%TD*%
%TA.AperFunction,HeatsinkPad*%
%ADD14C,0.500000*%
%TD*%
%TA.AperFunction,ViaPad*%
%ADD15C,0.450000*%
%TD*%
%TA.AperFunction,ViaPad*%
%ADD16C,0.600000*%
%TD*%
G04 APERTURE END LIST*
D10*
%TO.N,+3V3*%
%TO.C,J1*%
X56456000Y5900000D03*
D11*
%TO.N,N/C*%
X56456000Y3360000D03*
X53916000Y5900000D03*
X53916000Y3360000D03*
X51376000Y5900000D03*
%TO.N,GND*%
X51376000Y3360000D03*
%TO.N,N/C*%
X48836000Y5900000D03*
X48836000Y3360000D03*
%TO.N,GND*%
X46296000Y5900000D03*
%TO.N,N/C*%
X46296000Y3360000D03*
X43756000Y5900000D03*
X43756000Y3360000D03*
X41216000Y5900000D03*
%TO.N,GND*%
X41216000Y3360000D03*
%TO.N,RESET_N*%
X38676000Y5900000D03*
%TO.N,IRQ_N*%
X38676000Y3360000D03*
%TO.N,+3V3*%
X36136000Y5900000D03*
%TO.N,N/C*%
X36136000Y3360000D03*
%TO.N,SPI_MOSI*%
X33596000Y5900000D03*
%TO.N,GND*%
X33596000Y3360000D03*
%TO.N,SPI_MISO*%
X31056000Y5900000D03*
%TO.N,N/C*%
X31056000Y3360000D03*
%TO.N,SPI_SCLK*%
X28516000Y5900000D03*
%TO.N,SPI_CS_N*%
X28516000Y3360000D03*
%TO.N,GND*%
X25976000Y5900000D03*
%TO.N,N/C*%
X25976000Y3360000D03*
X23436000Y5900000D03*
X23436000Y3360000D03*
X20896000Y5900000D03*
%TO.N,GND*%
X20896000Y3360000D03*
%TO.N,N/C*%
X18356000Y5900000D03*
X18356000Y3360000D03*
X15816000Y5900000D03*
%TO.N,GND*%
X15816000Y3360000D03*
%TO.N,N/C*%
X13276000Y5900000D03*
X13276000Y3360000D03*
X10736000Y5900000D03*
X10736000Y3360000D03*
%TO.N,GND*%
X8196000Y5900000D03*
%TO.N,N/C*%
X8196000Y3360000D03*
%TD*%
D12*
%TO.N,BUS_P*%
%TO.C,CN1*%
X30405000Y40650000D03*
D13*
%TO.N,BUS_N*%
X26595000Y40650000D03*
X22785000Y40650000D03*
%TO.N,BUS_P*%
X18975000Y40650000D03*
%TD*%
D14*
%TO.N,GND*%
%TO.C,U1*%
X28550000Y21450000D03*
X28550000Y20000000D03*
X28550000Y18550000D03*
X30000000Y21450000D03*
X30000000Y20000000D03*
X30000000Y18550000D03*
X31450000Y21450000D03*
X31450000Y20000000D03*
X31450000Y18550000D03*
%TD*%
D15*
%TO.N,+3V3*%
X36300000Y14100000D03*
X22075000Y15200000D03*
X24975000Y13200000D03*
X39700000Y21900000D03*
X15050000Y19300000D03*
X23450000Y25450000D03*
X19800000Y18725000D03*
X25595000Y7600000D03*
D16*
%TO.N,GND*%
X31812000Y35600000D03*
D15*
X25400000Y21250000D03*
X36350000Y23940000D03*
X32720000Y26200000D03*
X31750000Y16700000D03*
X23500000Y23950000D03*
D16*
X17900000Y18000000D03*
D15*
X37850000Y24975000D03*
X36350000Y17300000D03*
D16*
X38250000Y20000000D03*
D15*
X36350000Y15700000D03*
D16*
X27600000Y23200000D03*
X25150000Y35600000D03*
D15*
X23500000Y22450000D03*
D16*
X40100000Y37000000D03*
D15*
X35329999Y29050000D03*
X36350000Y22800000D03*
D16*
X18500000Y37000000D03*
D15*
X31750000Y30600000D03*
X23800000Y21250000D03*
X34850000Y18700000D03*
%TO.N,RESET_N*%
X24000000Y16900000D03*
%TO.N,IRQ_N*%
X27246000Y15500000D03*
%TO.N,SPI_MISO*%
X28350000Y15500000D03*
%TO.N,VDDA*%
X26750000Y23950000D03*
X29750000Y23400000D03*
%TD*%
%TA.AperFunction,Conductor*%
%TO.N,GND*%
G36*
X63222231Y48689366D02*
G01*
X63516821Y48671546D01*
X63525673Y48670472D01*
X63813784Y48617673D01*
X63822435Y48615540D01*
X64102062Y48528405D01*
X64110401Y48525243D01*
X64377497Y48405033D01*
X64385409Y48400880D01*
X64636046Y48249364D01*
X64643400Y48244288D01*
X64873951Y48063664D01*
X64880640Y48057738D01*
X65087737Y47850641D01*
X65093663Y47843952D01*
X65274287Y47613401D01*
X65279363Y47606047D01*
X65430879Y47355410D01*
X65435032Y47347498D01*
X65555239Y47080410D01*
X65558407Y47072054D01*
X65645536Y46792448D01*
X65647675Y46783772D01*
X65700469Y46495683D01*
X65701546Y46486812D01*
X65719365Y46192232D01*
X65719500Y46187764D01*
X65719500Y44074000D01*
X65702187Y44026434D01*
X65658350Y44001124D01*
X65645500Y44000000D01*
X58000000Y44000000D01*
X58000000Y22000000D01*
X65645500Y22000000D01*
X65693066Y21982687D01*
X65718376Y21938850D01*
X65719500Y21926000D01*
X65719500Y3002237D01*
X65719365Y2997769D01*
X65701546Y2703189D01*
X65700469Y2694318D01*
X65647675Y2406229D01*
X65645536Y2397553D01*
X65558407Y2117947D01*
X65555239Y2109591D01*
X65435032Y1842503D01*
X65430879Y1834591D01*
X65279363Y1583954D01*
X65274287Y1576600D01*
X65093663Y1346049D01*
X65087737Y1339360D01*
X64880640Y1132263D01*
X64873951Y1126337D01*
X64643400Y945713D01*
X64636046Y940637D01*
X64385409Y789121D01*
X64377497Y784968D01*
X64110409Y664761D01*
X64102053Y661593D01*
X63822447Y574464D01*
X63813771Y572325D01*
X63525682Y519531D01*
X63516811Y518454D01*
X63222232Y500635D01*
X63217764Y500500D01*
X3002236Y500500D01*
X2997768Y500635D01*
X2703188Y518454D01*
X2694317Y519531D01*
X2406228Y572325D01*
X2397552Y574464D01*
X2117946Y661593D01*
X2109590Y664761D01*
X1842502Y784968D01*
X1834590Y789121D01*
X1583953Y940637D01*
X1576599Y945713D01*
X1346048Y1126337D01*
X1339359Y1132263D01*
X1132262Y1339360D01*
X1126336Y1346049D01*
X945712Y1576600D01*
X940636Y1583954D01*
X789120Y1834591D01*
X784967Y1842503D01*
X664757Y2109599D01*
X661595Y2117938D01*
X574460Y2397565D01*
X572327Y2406216D01*
X519528Y2694327D01*
X518454Y2703179D01*
X500635Y2997769D01*
X500500Y3002237D01*
X500500Y4630000D01*
X1699474Y4630000D01*
X1719548Y4374929D01*
X1779276Y4126145D01*
X1779277Y4126141D01*
X1779278Y4126140D01*
X1787450Y4106410D01*
X1877192Y3889755D01*
X1877196Y3889748D01*
X1954281Y3763957D01*
X2010877Y3671601D01*
X2177044Y3477044D01*
X2371601Y3310877D01*
X2589757Y3177191D01*
X2826140Y3079278D01*
X3074930Y3019548D01*
X3266137Y3004500D01*
X3393863Y3004500D01*
X3585070Y3019548D01*
X3833860Y3079278D01*
X4070243Y3177191D01*
X4288399Y3310877D01*
X4345915Y3360000D01*
X7140417Y3360000D01*
X7160700Y3154066D01*
X7220768Y2956046D01*
X7318315Y2773550D01*
X7449590Y2613590D01*
X7609550Y2482315D01*
X7792046Y2384768D01*
X7990066Y2324700D01*
X8196000Y2304417D01*
X8401934Y2324700D01*
X8599954Y2384768D01*
X8782450Y2482315D01*
X8942410Y2613590D01*
X9073685Y2773550D01*
X9171232Y2956046D01*
X9231300Y3154066D01*
X9251583Y3360000D01*
X9680417Y3360000D01*
X9700700Y3154066D01*
X9760768Y2956046D01*
X9858315Y2773550D01*
X9989590Y2613590D01*
X10149550Y2482315D01*
X10332046Y2384768D01*
X10530066Y2324700D01*
X10736000Y2304417D01*
X10941934Y2324700D01*
X11139954Y2384768D01*
X11322450Y2482315D01*
X11482410Y2613590D01*
X11613685Y2773550D01*
X11711232Y2956046D01*
X11771300Y3154066D01*
X11791583Y3360000D01*
X12220417Y3360000D01*
X12240700Y3154066D01*
X12300768Y2956046D01*
X12398315Y2773550D01*
X12529590Y2613590D01*
X12689550Y2482315D01*
X12872046Y2384768D01*
X13070066Y2324700D01*
X13276000Y2304417D01*
X13481934Y2324700D01*
X13679954Y2384768D01*
X13862450Y2482315D01*
X14022410Y2613590D01*
X14153685Y2773550D01*
X14251232Y2956046D01*
X14311300Y3154066D01*
X14331583Y3360000D01*
X17300417Y3360000D01*
X17320700Y3154066D01*
X17380768Y2956046D01*
X17478315Y2773550D01*
X17609590Y2613590D01*
X17769550Y2482315D01*
X17952046Y2384768D01*
X18150066Y2324700D01*
X18356000Y2304417D01*
X18561934Y2324700D01*
X18759954Y2384768D01*
X18942450Y2482315D01*
X19102410Y2613590D01*
X19233685Y2773550D01*
X19331232Y2956046D01*
X19391300Y3154066D01*
X19411583Y3360000D01*
X22380417Y3360000D01*
X22400700Y3154066D01*
X22460768Y2956046D01*
X22558315Y2773550D01*
X22689590Y2613590D01*
X22849550Y2482315D01*
X23032046Y2384768D01*
X23230066Y2324700D01*
X23436000Y2304417D01*
X23641934Y2324700D01*
X23839954Y2384768D01*
X24022450Y2482315D01*
X24182410Y2613590D01*
X24313685Y2773550D01*
X24411232Y2956046D01*
X24471300Y3154066D01*
X24491583Y3360000D01*
X24920417Y3360000D01*
X24940700Y3154066D01*
X25000768Y2956046D01*
X25098315Y2773550D01*
X25229590Y2613590D01*
X25389550Y2482315D01*
X25572046Y2384768D01*
X25770066Y2324700D01*
X25976000Y2304417D01*
X26181934Y2324700D01*
X26379954Y2384768D01*
X26562450Y2482315D01*
X26722410Y2613590D01*
X26853685Y2773550D01*
X26951232Y2956046D01*
X27011300Y3154066D01*
X27031583Y3360000D01*
X27460417Y3360000D01*
X27480700Y3154066D01*
X27540768Y2956046D01*
X27638315Y2773550D01*
X27769590Y2613590D01*
X27929550Y2482315D01*
X28112046Y2384768D01*
X28310066Y2324700D01*
X28516000Y2304417D01*
X28721934Y2324700D01*
X28919954Y2384768D01*
X29102450Y2482315D01*
X29262410Y2613590D01*
X29393685Y2773550D01*
X29491232Y2956046D01*
X29551300Y3154066D01*
X29571583Y3360000D01*
X30000417Y3360000D01*
X30020700Y3154066D01*
X30080768Y2956046D01*
X30178315Y2773550D01*
X30309590Y2613590D01*
X30469550Y2482315D01*
X30652046Y2384768D01*
X30850066Y2324700D01*
X31056000Y2304417D01*
X31261934Y2324700D01*
X31459954Y2384768D01*
X31642450Y2482315D01*
X31802410Y2613590D01*
X31933685Y2773550D01*
X32031232Y2956046D01*
X32091300Y3154066D01*
X32111583Y3360000D01*
X35080417Y3360000D01*
X35100700Y3154066D01*
X35160768Y2956046D01*
X35258315Y2773550D01*
X35389590Y2613590D01*
X35549550Y2482315D01*
X35732046Y2384768D01*
X35930066Y2324700D01*
X36136000Y2304417D01*
X36341934Y2324700D01*
X36539954Y2384768D01*
X36722450Y2482315D01*
X36882410Y2613590D01*
X37013685Y2773550D01*
X37111232Y2956046D01*
X37171300Y3154066D01*
X37191583Y3360000D01*
X37620417Y3360000D01*
X37640700Y3154066D01*
X37700768Y2956046D01*
X37798315Y2773550D01*
X37929590Y2613590D01*
X38089550Y2482315D01*
X38272046Y2384768D01*
X38470066Y2324700D01*
X38676000Y2304417D01*
X38881934Y2324700D01*
X39079954Y2384768D01*
X39262450Y2482315D01*
X39422410Y2613590D01*
X39553685Y2773550D01*
X39651232Y2956046D01*
X39711300Y3154066D01*
X39731583Y3360000D01*
X42700417Y3360000D01*
X42720700Y3154066D01*
X42780768Y2956046D01*
X42878315Y2773550D01*
X43009590Y2613590D01*
X43169550Y2482315D01*
X43352046Y2384768D01*
X43550066Y2324700D01*
X43756000Y2304417D01*
X43961934Y2324700D01*
X44159954Y2384768D01*
X44342450Y2482315D01*
X44502410Y2613590D01*
X44633685Y2773550D01*
X44731232Y2956046D01*
X44791300Y3154066D01*
X44811583Y3360000D01*
X45240417Y3360000D01*
X45260700Y3154066D01*
X45320768Y2956046D01*
X45418315Y2773550D01*
X45549590Y2613590D01*
X45709550Y2482315D01*
X45892046Y2384768D01*
X46090066Y2324700D01*
X46296000Y2304417D01*
X46501934Y2324700D01*
X46699954Y2384768D01*
X46882450Y2482315D01*
X47042410Y2613590D01*
X47173685Y2773550D01*
X47271232Y2956046D01*
X47331300Y3154066D01*
X47351583Y3360000D01*
X47780417Y3360000D01*
X47800700Y3154066D01*
X47860768Y2956046D01*
X47958315Y2773550D01*
X48089590Y2613590D01*
X48249550Y2482315D01*
X48432046Y2384768D01*
X48630066Y2324700D01*
X48836000Y2304417D01*
X49041934Y2324700D01*
X49239954Y2384768D01*
X49422450Y2482315D01*
X49582410Y2613590D01*
X49713685Y2773550D01*
X49811232Y2956046D01*
X49871300Y3154066D01*
X49891583Y3360000D01*
X52860417Y3360000D01*
X52880700Y3154066D01*
X52940768Y2956046D01*
X53038315Y2773550D01*
X53169590Y2613590D01*
X53329550Y2482315D01*
X53512046Y2384768D01*
X53710066Y2324700D01*
X53916000Y2304417D01*
X54121934Y2324700D01*
X54319954Y2384768D01*
X54502450Y2482315D01*
X54662410Y2613590D01*
X54793685Y2773550D01*
X54891232Y2956046D01*
X54951300Y3154066D01*
X54971583Y3360000D01*
X55400417Y3360000D01*
X55420700Y3154066D01*
X55480768Y2956046D01*
X55578315Y2773550D01*
X55709590Y2613590D01*
X55869550Y2482315D01*
X56052046Y2384768D01*
X56250066Y2324700D01*
X56456000Y2304417D01*
X56661934Y2324700D01*
X56859954Y2384768D01*
X57042450Y2482315D01*
X57202410Y2613590D01*
X57333685Y2773550D01*
X57431232Y2956046D01*
X57491300Y3154066D01*
X57511583Y3360000D01*
X57491300Y3565934D01*
X57431232Y3763954D01*
X57333685Y3946450D01*
X57202410Y4106410D01*
X57042450Y4237685D01*
X56859954Y4335232D01*
X56729086Y4374930D01*
X56661935Y4395300D01*
X56456000Y4415583D01*
X56250064Y4395300D01*
X56052043Y4335231D01*
X55869549Y4237685D01*
X55709590Y4106411D01*
X55709589Y4106410D01*
X55578315Y3946451D01*
X55480769Y3763957D01*
X55420700Y3565936D01*
X55420700Y3565934D01*
X55400417Y3360000D01*
X54971583Y3360000D01*
X54951300Y3565934D01*
X54891232Y3763954D01*
X54793685Y3946450D01*
X54662410Y4106410D01*
X54502450Y4237685D01*
X54319954Y4335232D01*
X54189086Y4374930D01*
X54121935Y4395300D01*
X53916000Y4415583D01*
X53710064Y4395300D01*
X53512043Y4335231D01*
X53329549Y4237685D01*
X53169590Y4106411D01*
X53169589Y4106410D01*
X53038315Y3946451D01*
X52940769Y3763957D01*
X52880700Y3565936D01*
X52880700Y3565934D01*
X52860417Y3360000D01*
X49891583Y3360000D01*
X49871300Y3565934D01*
X49811232Y3763954D01*
X49713685Y3946450D01*
X49582410Y4106410D01*
X49422450Y4237685D01*
X49239954Y4335232D01*
X49109086Y4374930D01*
X49041935Y4395300D01*
X48836000Y4415583D01*
X48630064Y4395300D01*
X48432043Y4335231D01*
X48249549Y4237685D01*
X48089590Y4106411D01*
X48089589Y4106410D01*
X47958315Y3946451D01*
X47860769Y3763957D01*
X47800700Y3565936D01*
X47800700Y3565934D01*
X47780417Y3360000D01*
X47351583Y3360000D01*
X47331300Y3565934D01*
X47271232Y3763954D01*
X47173685Y3946450D01*
X47042410Y4106410D01*
X46882450Y4237685D01*
X46699954Y4335232D01*
X46569086Y4374930D01*
X46501935Y4395300D01*
X46296000Y4415583D01*
X46090064Y4395300D01*
X45892043Y4335231D01*
X45709549Y4237685D01*
X45549590Y4106411D01*
X45549589Y4106410D01*
X45418315Y3946451D01*
X45320769Y3763957D01*
X45260700Y3565936D01*
X45260700Y3565934D01*
X45240417Y3360000D01*
X44811583Y3360000D01*
X44791300Y3565934D01*
X44731232Y3763954D01*
X44633685Y3946450D01*
X44502410Y4106410D01*
X44342450Y4237685D01*
X44159954Y4335232D01*
X44029086Y4374930D01*
X43961935Y4395300D01*
X43756000Y4415583D01*
X43550064Y4395300D01*
X43352043Y4335231D01*
X43169549Y4237685D01*
X43009590Y4106411D01*
X43009589Y4106410D01*
X42878315Y3946451D01*
X42780769Y3763957D01*
X42720700Y3565936D01*
X42720700Y3565934D01*
X42700417Y3360000D01*
X39731583Y3360000D01*
X39711300Y3565934D01*
X39651232Y3763954D01*
X39553685Y3946450D01*
X39422410Y4106410D01*
X39262450Y4237685D01*
X39079954Y4335232D01*
X38949086Y4374930D01*
X38881935Y4395300D01*
X38676000Y4415583D01*
X38470064Y4395300D01*
X38272043Y4335231D01*
X38089549Y4237685D01*
X37929590Y4106411D01*
X37929589Y4106410D01*
X37798315Y3946451D01*
X37700769Y3763957D01*
X37640700Y3565936D01*
X37640700Y3565934D01*
X37620417Y3360000D01*
X37191583Y3360000D01*
X37171300Y3565934D01*
X37111232Y3763954D01*
X37013685Y3946450D01*
X36882410Y4106410D01*
X36722450Y4237685D01*
X36539954Y4335232D01*
X36409086Y4374930D01*
X36341935Y4395300D01*
X36136000Y4415583D01*
X35930064Y4395300D01*
X35732043Y4335231D01*
X35549549Y4237685D01*
X35389590Y4106411D01*
X35389589Y4106410D01*
X35258315Y3946451D01*
X35160769Y3763957D01*
X35100700Y3565936D01*
X35100700Y3565934D01*
X35080417Y3360000D01*
X32111583Y3360000D01*
X32091300Y3565934D01*
X32031232Y3763954D01*
X31933685Y3946450D01*
X31802410Y4106410D01*
X31642450Y4237685D01*
X31459954Y4335232D01*
X31329086Y4374930D01*
X31261935Y4395300D01*
X31056000Y4415583D01*
X30850064Y4395300D01*
X30652043Y4335231D01*
X30469549Y4237685D01*
X30309590Y4106411D01*
X30309589Y4106410D01*
X30178315Y3946451D01*
X30080769Y3763957D01*
X30020700Y3565936D01*
X30020700Y3565934D01*
X30000417Y3360000D01*
X29571583Y3360000D01*
X29551300Y3565934D01*
X29491232Y3763954D01*
X29393685Y3946450D01*
X29262410Y4106410D01*
X29102450Y4237685D01*
X28919954Y4335232D01*
X28789086Y4374930D01*
X28721935Y4395300D01*
X28516000Y4415583D01*
X28310064Y4395300D01*
X28112043Y4335231D01*
X27929549Y4237685D01*
X27769590Y4106411D01*
X27769589Y4106410D01*
X27638315Y3946451D01*
X27540769Y3763957D01*
X27480700Y3565936D01*
X27480700Y3565934D01*
X27460417Y3360000D01*
X27031583Y3360000D01*
X27011300Y3565934D01*
X26951232Y3763954D01*
X26853685Y3946450D01*
X26722410Y4106410D01*
X26562450Y4237685D01*
X26379954Y4335232D01*
X26249086Y4374930D01*
X26181935Y4395300D01*
X25976000Y4415583D01*
X25770064Y4395300D01*
X25572043Y4335231D01*
X25389549Y4237685D01*
X25229590Y4106411D01*
X25229589Y4106410D01*
X25098315Y3946451D01*
X25000769Y3763957D01*
X24940700Y3565936D01*
X24940700Y3565934D01*
X24920417Y3360000D01*
X24491583Y3360000D01*
X24471300Y3565934D01*
X24411232Y3763954D01*
X24313685Y3946450D01*
X24182410Y4106410D01*
X24022450Y4237685D01*
X23839954Y4335232D01*
X23709086Y4374930D01*
X23641935Y4395300D01*
X23436000Y4415583D01*
X23230064Y4395300D01*
X23032043Y4335231D01*
X22849549Y4237685D01*
X22689590Y4106411D01*
X22689589Y4106410D01*
X22558315Y3946451D01*
X22460769Y3763957D01*
X22400700Y3565936D01*
X22400700Y3565934D01*
X22380417Y3360000D01*
X19411583Y3360000D01*
X19391300Y3565934D01*
X19331232Y3763954D01*
X19233685Y3946450D01*
X19102410Y4106410D01*
X18942450Y4237685D01*
X18759954Y4335232D01*
X18629086Y4374930D01*
X18561935Y4395300D01*
X18356000Y4415583D01*
X18150064Y4395300D01*
X17952043Y4335231D01*
X17769549Y4237685D01*
X17609590Y4106411D01*
X17609589Y4106410D01*
X17478315Y3946451D01*
X17380769Y3763957D01*
X17320700Y3565936D01*
X17320700Y3565934D01*
X17300417Y3360000D01*
X14331583Y3360000D01*
X14311300Y3565934D01*
X14251232Y3763954D01*
X14153685Y3946450D01*
X14022410Y4106410D01*
X13862450Y4237685D01*
X13679954Y4335232D01*
X13549086Y4374930D01*
X13481935Y4395300D01*
X13276000Y4415583D01*
X13070064Y4395300D01*
X12872043Y4335231D01*
X12689549Y4237685D01*
X12529590Y4106411D01*
X12529589Y4106410D01*
X12398315Y3946451D01*
X12300769Y3763957D01*
X12240700Y3565936D01*
X12240700Y3565934D01*
X12220417Y3360000D01*
X11791583Y3360000D01*
X11771300Y3565934D01*
X11711232Y3763954D01*
X11613685Y3946450D01*
X11482410Y4106410D01*
X11322450Y4237685D01*
X11139954Y4335232D01*
X11009086Y4374930D01*
X10941935Y4395300D01*
X10736000Y4415583D01*
X10530064Y4395300D01*
X10332043Y4335231D01*
X10149549Y4237685D01*
X9989590Y4106411D01*
X9989589Y4106410D01*
X9858315Y3946451D01*
X9760769Y3763957D01*
X9700700Y3565936D01*
X9700700Y3565934D01*
X9680417Y3360000D01*
X9251583Y3360000D01*
X9231300Y3565934D01*
X9171232Y3763954D01*
X9073685Y3946450D01*
X8942410Y4106410D01*
X8782450Y4237685D01*
X8599954Y4335232D01*
X8469086Y4374930D01*
X8401935Y4395300D01*
X8196000Y4415583D01*
X7990064Y4395300D01*
X7792043Y4335231D01*
X7609549Y4237685D01*
X7449590Y4106411D01*
X7449589Y4106410D01*
X7318315Y3946451D01*
X7220769Y3763957D01*
X7160700Y3565936D01*
X7160700Y3565934D01*
X7140417Y3360000D01*
X4345915Y3360000D01*
X4482956Y3477044D01*
X4649123Y3671601D01*
X4782809Y3889757D01*
X4880722Y4126140D01*
X4940452Y4374930D01*
X4960526Y4630000D01*
X59699473Y4630000D01*
X59719547Y4374929D01*
X59779275Y4126145D01*
X59779276Y4126141D01*
X59779277Y4126140D01*
X59787449Y4106410D01*
X59877191Y3889755D01*
X59877195Y3889748D01*
X59954280Y3763957D01*
X60010876Y3671601D01*
X60177043Y3477044D01*
X60371600Y3310877D01*
X60589756Y3177191D01*
X60826139Y3079278D01*
X61074929Y3019548D01*
X61266136Y3004500D01*
X61393862Y3004500D01*
X61585069Y3019548D01*
X61833859Y3079278D01*
X62070242Y3177191D01*
X62288398Y3310877D01*
X62482955Y3477044D01*
X62649122Y3671601D01*
X62782808Y3889757D01*
X62880721Y4126140D01*
X62940451Y4374930D01*
X62960525Y4630000D01*
X62940451Y4885070D01*
X62880721Y5133860D01*
X62782808Y5370243D01*
X62649122Y5588399D01*
X62482955Y5782956D01*
X62482952Y5782959D01*
X62408627Y5846438D01*
X62288398Y5949123D01*
X62288395Y5949125D01*
X62070251Y6082804D01*
X62070244Y6082808D01*
X61833854Y6180724D01*
X61585070Y6240452D01*
X61393862Y6255500D01*
X61266136Y6255500D01*
X61074927Y6240452D01*
X60826143Y6180724D01*
X60589753Y6082808D01*
X60589746Y6082804D01*
X60371602Y5949125D01*
X60371601Y5949124D01*
X60177045Y5782959D01*
X60177040Y5782954D01*
X60010875Y5588398D01*
X60010874Y5588397D01*
X59877195Y5370253D01*
X59877191Y5370246D01*
X59779275Y5133856D01*
X59719547Y4885072D01*
X59699473Y4630000D01*
X4960526Y4630000D01*
X4940452Y4885070D01*
X4880722Y5133860D01*
X4782809Y5370243D01*
X4649123Y5588399D01*
X4482956Y5782956D01*
X4482953Y5782959D01*
X4408628Y5846438D01*
X4345915Y5900000D01*
X9680417Y5900000D01*
X9700700Y5694066D01*
X9760768Y5496046D01*
X9858315Y5313550D01*
X9989590Y5153590D01*
X10149550Y5022315D01*
X10332046Y4924768D01*
X10530066Y4864700D01*
X10736000Y4844417D01*
X10941934Y4864700D01*
X11139954Y4924768D01*
X11322450Y5022315D01*
X11482410Y5153590D01*
X11613685Y5313550D01*
X11711232Y5496046D01*
X11771300Y5694066D01*
X11791583Y5900000D01*
X12220417Y5900000D01*
X12240700Y5694066D01*
X12300768Y5496046D01*
X12398315Y5313550D01*
X12529590Y5153590D01*
X12689550Y5022315D01*
X12872046Y4924768D01*
X13070066Y4864700D01*
X13276000Y4844417D01*
X13481934Y4864700D01*
X13679954Y4924768D01*
X13862450Y5022315D01*
X14022410Y5153590D01*
X14153685Y5313550D01*
X14251232Y5496046D01*
X14311300Y5694066D01*
X14331583Y5900000D01*
X14760417Y5900000D01*
X14780700Y5694066D01*
X14840768Y5496046D01*
X14938315Y5313550D01*
X15069590Y5153590D01*
X15229550Y5022315D01*
X15412046Y4924768D01*
X15610066Y4864700D01*
X15816000Y4844417D01*
X16021934Y4864700D01*
X16219954Y4924768D01*
X16402450Y5022315D01*
X16562410Y5153590D01*
X16693685Y5313550D01*
X16791232Y5496046D01*
X16851300Y5694066D01*
X16871583Y5900000D01*
X17300417Y5900000D01*
X17320700Y5694066D01*
X17380768Y5496046D01*
X17478315Y5313550D01*
X17609590Y5153590D01*
X17769550Y5022315D01*
X17952046Y4924768D01*
X18150066Y4864700D01*
X18356000Y4844417D01*
X18561934Y4864700D01*
X18759954Y4924768D01*
X18942450Y5022315D01*
X19102410Y5153590D01*
X19233685Y5313550D01*
X19331232Y5496046D01*
X19391300Y5694066D01*
X19411583Y5900000D01*
X19840417Y5900000D01*
X19860700Y5694066D01*
X19920768Y5496046D01*
X20018315Y5313550D01*
X20149590Y5153590D01*
X20309550Y5022315D01*
X20492046Y4924768D01*
X20690066Y4864700D01*
X20896000Y4844417D01*
X21101934Y4864700D01*
X21299954Y4924768D01*
X21482450Y5022315D01*
X21642410Y5153590D01*
X21773685Y5313550D01*
X21871232Y5496046D01*
X21931300Y5694066D01*
X21951583Y5900000D01*
X22380417Y5900000D01*
X22400700Y5694066D01*
X22460768Y5496046D01*
X22558315Y5313550D01*
X22689590Y5153590D01*
X22849550Y5022315D01*
X23032046Y4924768D01*
X23230066Y4864700D01*
X23436000Y4844417D01*
X23641934Y4864700D01*
X23839954Y4924768D01*
X24022450Y5022315D01*
X24182410Y5153590D01*
X24313685Y5313550D01*
X24411232Y5496046D01*
X24471300Y5694066D01*
X24491583Y5900000D01*
X27460417Y5900000D01*
X27480700Y5694066D01*
X27540768Y5496046D01*
X27638315Y5313550D01*
X27769590Y5153590D01*
X27929550Y5022315D01*
X28112046Y4924768D01*
X28310066Y4864700D01*
X28516000Y4844417D01*
X28721934Y4864700D01*
X28919954Y4924768D01*
X29102450Y5022315D01*
X29262410Y5153590D01*
X29393685Y5313550D01*
X29491232Y5496046D01*
X29551300Y5694066D01*
X29571583Y5900000D01*
X30000417Y5900000D01*
X30020700Y5694066D01*
X30080768Y5496046D01*
X30178315Y5313550D01*
X30309590Y5153590D01*
X30469550Y5022315D01*
X30652046Y4924768D01*
X30850066Y4864700D01*
X31056000Y4844417D01*
X31261934Y4864700D01*
X31459954Y4924768D01*
X31642450Y5022315D01*
X31802410Y5153590D01*
X31933685Y5313550D01*
X32031232Y5496046D01*
X32091300Y5694066D01*
X32111583Y5900000D01*
X32540417Y5900000D01*
X32560700Y5694066D01*
X32620768Y5496046D01*
X32718315Y5313550D01*
X32849590Y5153590D01*
X33009550Y5022315D01*
X33192046Y4924768D01*
X33390066Y4864700D01*
X33596000Y4844417D01*
X33801934Y4864700D01*
X33999954Y4924768D01*
X34182450Y5022315D01*
X34342410Y5153590D01*
X34473685Y5313550D01*
X34571232Y5496046D01*
X34631300Y5694066D01*
X34651583Y5900000D01*
X35080417Y5900000D01*
X35100700Y5694066D01*
X35160768Y5496046D01*
X35258315Y5313550D01*
X35389590Y5153590D01*
X35549550Y5022315D01*
X35732046Y4924768D01*
X35930066Y4864700D01*
X36136000Y4844417D01*
X36341934Y4864700D01*
X36539954Y4924768D01*
X36722450Y5022315D01*
X36882410Y5153590D01*
X37013685Y5313550D01*
X37111232Y5496046D01*
X37171300Y5694066D01*
X37191583Y5900000D01*
X37620417Y5900000D01*
X37640700Y5694066D01*
X37700768Y5496046D01*
X37798315Y5313550D01*
X37929590Y5153590D01*
X38089550Y5022315D01*
X38272046Y4924768D01*
X38470066Y4864700D01*
X38676000Y4844417D01*
X38881934Y4864700D01*
X39079954Y4924768D01*
X39262450Y5022315D01*
X39422410Y5153590D01*
X39553685Y5313550D01*
X39651232Y5496046D01*
X39711300Y5694066D01*
X39731583Y5900000D01*
X40160417Y5900000D01*
X40180700Y5694066D01*
X40240768Y5496046D01*
X40338315Y5313550D01*
X40469590Y5153590D01*
X40629550Y5022315D01*
X40812046Y4924768D01*
X41010066Y4864700D01*
X41216000Y4844417D01*
X41421934Y4864700D01*
X41619954Y4924768D01*
X41802450Y5022315D01*
X41962410Y5153590D01*
X42093685Y5313550D01*
X42191232Y5496046D01*
X42251300Y5694066D01*
X42271583Y5900000D01*
X42700417Y5900000D01*
X42720700Y5694066D01*
X42780768Y5496046D01*
X42878315Y5313550D01*
X43009590Y5153590D01*
X43169550Y5022315D01*
X43352046Y4924768D01*
X43550066Y4864700D01*
X43756000Y4844417D01*
X43961934Y4864700D01*
X44159954Y4924768D01*
X44342450Y5022315D01*
X44502410Y5153590D01*
X44633685Y5313550D01*
X44731232Y5496046D01*
X44791300Y5694066D01*
X44811583Y5900000D01*
X47780417Y5900000D01*
X47800700Y5694066D01*
X47860768Y5496046D01*
X47958315Y5313550D01*
X48089590Y5153590D01*
X48249550Y5022315D01*
X48432046Y4924768D01*
X48630066Y4864700D01*
X48836000Y4844417D01*
X49041934Y4864700D01*
X49239954Y4924768D01*
X49422450Y5022315D01*
X49582410Y5153590D01*
X49713685Y5313550D01*
X49811232Y5496046D01*
X49871300Y5694066D01*
X49891583Y5900000D01*
X50320417Y5900000D01*
X50340700Y5694066D01*
X50400768Y5496046D01*
X50498315Y5313550D01*
X50629590Y5153590D01*
X50789550Y5022315D01*
X50972046Y4924768D01*
X51170066Y4864700D01*
X51376000Y4844417D01*
X51581934Y4864700D01*
X51779954Y4924768D01*
X51962450Y5022315D01*
X52122410Y5153590D01*
X52253685Y5313550D01*
X52351232Y5496046D01*
X52411300Y5694066D01*
X52431583Y5900000D01*
X52860417Y5900000D01*
X52880700Y5694066D01*
X52940768Y5496046D01*
X53038315Y5313550D01*
X53169590Y5153590D01*
X53329550Y5022315D01*
X53512046Y4924768D01*
X53710066Y4864700D01*
X53916000Y4844417D01*
X54121934Y4864700D01*
X54319954Y4924768D01*
X54502450Y5022315D01*
X54512124Y5030254D01*
X55405500Y5030254D01*
X55417133Y4971768D01*
X55446608Y4927657D01*
X55461448Y4905448D01*
X55505560Y4875973D01*
X55527767Y4861134D01*
X55527768Y4861134D01*
X55527769Y4861133D01*
X55586252Y4849500D01*
X55586254Y4849500D01*
X57325746Y4849500D01*
X57325748Y4849500D01*
X57384231Y4861133D01*
X57450552Y4905448D01*
X57494867Y4971769D01*
X57506500Y5030252D01*
X57506500Y6769748D01*
X57494867Y6828231D01*
X57450552Y6894552D01*
X57428343Y6909392D01*
X57384232Y6938867D01*
X57384233Y6938867D01*
X57354989Y6944684D01*
X57325748Y6950500D01*
X55586252Y6950500D01*
X55557010Y6944684D01*
X55527767Y6938867D01*
X55461449Y6894553D01*
X55461447Y6894551D01*
X55417133Y6828233D01*
X55405500Y6769747D01*
X55405500Y5030254D01*
X54512124Y5030254D01*
X54662410Y5153590D01*
X54793685Y5313550D01*
X54891232Y5496046D01*
X54951300Y5694066D01*
X54971583Y5900000D01*
X54951300Y6105934D01*
X54891232Y6303954D01*
X54793685Y6486450D01*
X54662410Y6646410D01*
X54502450Y6777685D01*
X54319954Y6875232D01*
X54208158Y6909145D01*
X54121935Y6935300D01*
X53916000Y6955583D01*
X53710064Y6935300D01*
X53512043Y6875231D01*
X53329549Y6777685D01*
X53169590Y6646411D01*
X53169589Y6646410D01*
X53038315Y6486451D01*
X52940769Y6303957D01*
X52880700Y6105936D01*
X52880700Y6105934D01*
X52860417Y5900000D01*
X52431583Y5900000D01*
X52411300Y6105934D01*
X52351232Y6303954D01*
X52253685Y6486450D01*
X52122410Y6646410D01*
X51962450Y6777685D01*
X51779954Y6875232D01*
X51668158Y6909145D01*
X51581935Y6935300D01*
X51376000Y6955583D01*
X51170064Y6935300D01*
X50972043Y6875231D01*
X50789549Y6777685D01*
X50629590Y6646411D01*
X50629589Y6646410D01*
X50498315Y6486451D01*
X50400769Y6303957D01*
X50340700Y6105936D01*
X50340700Y6105934D01*
X50320417Y5900000D01*
X49891583Y5900000D01*
X49871300Y6105934D01*
X49811232Y6303954D01*
X49713685Y6486450D01*
X49582410Y6646410D01*
X49422450Y6777685D01*
X49239954Y6875232D01*
X49128158Y6909145D01*
X49041935Y6935300D01*
X48836000Y6955583D01*
X48630064Y6935300D01*
X48432043Y6875231D01*
X48249549Y6777685D01*
X48089590Y6646411D01*
X48089589Y6646410D01*
X47958315Y6486451D01*
X47860769Y6303957D01*
X47800700Y6105936D01*
X47800700Y6105934D01*
X47780417Y5900000D01*
X44811583Y5900000D01*
X44791300Y6105934D01*
X44731232Y6303954D01*
X44633685Y6486450D01*
X44502410Y6646410D01*
X44342450Y6777685D01*
X44159954Y6875232D01*
X44048158Y6909145D01*
X43961935Y6935300D01*
X43756000Y6955583D01*
X43550064Y6935300D01*
X43352043Y6875231D01*
X43169549Y6777685D01*
X43009590Y6646411D01*
X43009589Y6646410D01*
X42878315Y6486451D01*
X42780769Y6303957D01*
X42720700Y6105936D01*
X42720700Y6105934D01*
X42700417Y5900000D01*
X42271583Y5900000D01*
X42251300Y6105934D01*
X42191232Y6303954D01*
X42093685Y6486450D01*
X41962410Y6646410D01*
X41802450Y6777685D01*
X41619954Y6875232D01*
X41508158Y6909145D01*
X41421935Y6935300D01*
X41216000Y6955583D01*
X41010064Y6935300D01*
X40812043Y6875231D01*
X40629549Y6777685D01*
X40469590Y6646411D01*
X40469589Y6646410D01*
X40338315Y6486451D01*
X40240769Y6303957D01*
X40180700Y6105936D01*
X40180700Y6105934D01*
X40160417Y5900000D01*
X39731583Y5900000D01*
X39711300Y6105934D01*
X39651232Y6303954D01*
X39553685Y6486450D01*
X39422410Y6646410D01*
X39262450Y6777685D01*
X39079954Y6875232D01*
X38968158Y6909145D01*
X38881935Y6935300D01*
X38676000Y6955583D01*
X38470064Y6935300D01*
X38272043Y6875231D01*
X38089549Y6777685D01*
X37929590Y6646411D01*
X37929589Y6646410D01*
X37798315Y6486451D01*
X37700769Y6303957D01*
X37640700Y6105936D01*
X37640700Y6105934D01*
X37620417Y5900000D01*
X37191583Y5900000D01*
X37171300Y6105934D01*
X37111232Y6303954D01*
X37013685Y6486450D01*
X36882410Y6646410D01*
X36722450Y6777685D01*
X36539954Y6875232D01*
X36428158Y6909145D01*
X36341935Y6935300D01*
X36136000Y6955583D01*
X35930064Y6935300D01*
X35732043Y6875231D01*
X35549549Y6777685D01*
X35389590Y6646411D01*
X35389589Y6646410D01*
X35258315Y6486451D01*
X35160769Y6303957D01*
X35100700Y6105936D01*
X35100700Y6105934D01*
X35080417Y5900000D01*
X34651583Y5900000D01*
X34631300Y6105934D01*
X34571232Y6303954D01*
X34473685Y6486450D01*
X34342410Y6646410D01*
X34182450Y6777685D01*
X33999954Y6875232D01*
X33888158Y6909145D01*
X33801935Y6935300D01*
X33596000Y6955583D01*
X33390064Y6935300D01*
X33192043Y6875231D01*
X33009549Y6777685D01*
X32849590Y6646411D01*
X32849589Y6646410D01*
X32718315Y6486451D01*
X32620769Y6303957D01*
X32560700Y6105936D01*
X32560700Y6105934D01*
X32540417Y5900000D01*
X32111583Y5900000D01*
X32091300Y6105934D01*
X32031232Y6303954D01*
X31933685Y6486450D01*
X31802410Y6646410D01*
X31642450Y6777685D01*
X31459954Y6875232D01*
X31348158Y6909145D01*
X31261935Y6935300D01*
X31056000Y6955583D01*
X30850064Y6935300D01*
X30652043Y6875231D01*
X30469549Y6777685D01*
X30309590Y6646411D01*
X30309589Y6646410D01*
X30178315Y6486451D01*
X30080769Y6303957D01*
X30020700Y6105936D01*
X30020700Y6105934D01*
X30000417Y5900000D01*
X29571583Y5900000D01*
X29551300Y6105934D01*
X29491232Y6303954D01*
X29393685Y6486450D01*
X29262410Y6646410D01*
X29102450Y6777685D01*
X28919954Y6875232D01*
X28808158Y6909145D01*
X28721935Y6935300D01*
X28516000Y6955583D01*
X28310064Y6935300D01*
X28112043Y6875231D01*
X27929549Y6777685D01*
X27769590Y6646411D01*
X27769589Y6646410D01*
X27638315Y6486451D01*
X27540769Y6303957D01*
X27480700Y6105936D01*
X27480700Y6105934D01*
X27460417Y5900000D01*
X24491583Y5900000D01*
X24471300Y6105934D01*
X24411232Y6303954D01*
X24313685Y6486450D01*
X24182410Y6646410D01*
X24022450Y6777685D01*
X23839954Y6875232D01*
X23728158Y6909145D01*
X23641935Y6935300D01*
X23436000Y6955583D01*
X23230064Y6935300D01*
X23032043Y6875231D01*
X22849549Y6777685D01*
X22689590Y6646411D01*
X22689589Y6646410D01*
X22558315Y6486451D01*
X22460769Y6303957D01*
X22400700Y6105936D01*
X22400700Y6105934D01*
X22380417Y5900000D01*
X21951583Y5900000D01*
X21931300Y6105934D01*
X21871232Y6303954D01*
X21773685Y6486450D01*
X21642410Y6646410D01*
X21482450Y6777685D01*
X21299954Y6875232D01*
X21188158Y6909145D01*
X21101935Y6935300D01*
X20896000Y6955583D01*
X20690064Y6935300D01*
X20492043Y6875231D01*
X20309549Y6777685D01*
X20149590Y6646411D01*
X20149589Y6646410D01*
X20018315Y6486451D01*
X19920769Y6303957D01*
X19860700Y6105936D01*
X19860700Y6105934D01*
X19840417Y5900000D01*
X19411583Y5900000D01*
X19391300Y6105934D01*
X19331232Y6303954D01*
X19233685Y6486450D01*
X19102410Y6646410D01*
X18942450Y6777685D01*
X18759954Y6875232D01*
X18648158Y6909145D01*
X18561935Y6935300D01*
X18356000Y6955583D01*
X18150064Y6935300D01*
X17952043Y6875231D01*
X17769549Y6777685D01*
X17609590Y6646411D01*
X17609589Y6646410D01*
X17478315Y6486451D01*
X17380769Y6303957D01*
X17320700Y6105936D01*
X17320700Y6105934D01*
X17300417Y5900000D01*
X16871583Y5900000D01*
X16851300Y6105934D01*
X16791232Y6303954D01*
X16693685Y6486450D01*
X16562410Y6646410D01*
X16402450Y6777685D01*
X16219954Y6875232D01*
X16108158Y6909145D01*
X16021935Y6935300D01*
X15816000Y6955583D01*
X15610064Y6935300D01*
X15412043Y6875231D01*
X15229549Y6777685D01*
X15069590Y6646411D01*
X15069589Y6646410D01*
X14938315Y6486451D01*
X14840769Y6303957D01*
X14780700Y6105936D01*
X14780700Y6105934D01*
X14760417Y5900000D01*
X14331583Y5900000D01*
X14311300Y6105934D01*
X14251232Y6303954D01*
X14153685Y6486450D01*
X14022410Y6646410D01*
X13862450Y6777685D01*
X13679954Y6875232D01*
X13568158Y6909145D01*
X13481935Y6935300D01*
X13276000Y6955583D01*
X13070064Y6935300D01*
X12872043Y6875231D01*
X12689549Y6777685D01*
X12529590Y6646411D01*
X12529589Y6646410D01*
X12398315Y6486451D01*
X12300769Y6303957D01*
X12240700Y6105936D01*
X12240700Y6105934D01*
X12220417Y5900000D01*
X11791583Y5900000D01*
X11771300Y6105934D01*
X11711232Y6303954D01*
X11613685Y6486450D01*
X11482410Y6646410D01*
X11322450Y6777685D01*
X11139954Y6875232D01*
X11028158Y6909145D01*
X10941935Y6935300D01*
X10736000Y6955583D01*
X10530064Y6935300D01*
X10332043Y6875231D01*
X10149549Y6777685D01*
X9989590Y6646411D01*
X9989589Y6646410D01*
X9858315Y6486451D01*
X9760769Y6303957D01*
X9700700Y6105936D01*
X9700700Y6105934D01*
X9680417Y5900000D01*
X4345915Y5900000D01*
X4288399Y5949123D01*
X4288396Y5949125D01*
X4070252Y6082804D01*
X4070245Y6082808D01*
X3833855Y6180724D01*
X3585071Y6240452D01*
X3393863Y6255500D01*
X3266137Y6255500D01*
X3074928Y6240452D01*
X2826144Y6180724D01*
X2589754Y6082808D01*
X2589747Y6082804D01*
X2371603Y5949125D01*
X2371602Y5949124D01*
X2177046Y5782959D01*
X2177041Y5782954D01*
X2010876Y5588398D01*
X2010875Y5588397D01*
X1877196Y5370253D01*
X1877192Y5370246D01*
X1779276Y5133856D01*
X1719548Y4885072D01*
X1699474Y4630000D01*
X500500Y4630000D01*
X500500Y7600000D01*
X25164196Y7600000D01*
X25185280Y7466874D01*
X25246471Y7346781D01*
X25246472Y7346780D01*
X25341780Y7251472D01*
X25461873Y7190282D01*
X25461873Y7190281D01*
X25480075Y7187399D01*
X25595000Y7169196D01*
X25728126Y7190281D01*
X25848220Y7251472D01*
X25943528Y7346780D01*
X26004719Y7466874D01*
X26025804Y7600000D01*
X26004719Y7733126D01*
X26004719Y7733127D01*
X25943528Y7853220D01*
X25848219Y7948529D01*
X25728126Y8009719D01*
X25728126Y8009720D01*
X25595000Y8030804D01*
X25461873Y8009720D01*
X25461873Y8009719D01*
X25341780Y7948529D01*
X25246471Y7853220D01*
X25185281Y7733127D01*
X25185280Y7733127D01*
X25164196Y7600000D01*
X500500Y7600000D01*
X500500Y13200000D01*
X24544196Y13200000D01*
X24565280Y13066874D01*
X24626471Y12946781D01*
X24626472Y12946780D01*
X24721780Y12851472D01*
X24841873Y12790282D01*
X24841873Y12790281D01*
X24860075Y12787399D01*
X24975000Y12769196D01*
X25108126Y12790281D01*
X25228220Y12851472D01*
X25323528Y12946780D01*
X25384719Y13066874D01*
X25405804Y13200000D01*
X25384719Y13333126D01*
X25384719Y13333127D01*
X25323528Y13453220D01*
X25228219Y13548529D01*
X25108126Y13609719D01*
X25108126Y13609720D01*
X24975000Y13630804D01*
X24841873Y13609720D01*
X24841873Y13609719D01*
X24721780Y13548529D01*
X24626471Y13453220D01*
X24565281Y13333127D01*
X24565280Y13333127D01*
X24544196Y13200000D01*
X500500Y13200000D01*
X500500Y14100000D01*
X35869196Y14100000D01*
X35890280Y13966874D01*
X35951471Y13846781D01*
X35951472Y13846780D01*
X36046780Y13751472D01*
X36166873Y13690282D01*
X36166873Y13690281D01*
X36185075Y13687399D01*
X36300000Y13669196D01*
X36433126Y13690281D01*
X36553220Y13751472D01*
X36648528Y13846780D01*
X36709719Y13966874D01*
X36730804Y14100000D01*
X36709719Y14233126D01*
X36709719Y14233127D01*
X36648528Y14353220D01*
X36553219Y14448529D01*
X36433126Y14509719D01*
X36433126Y14509720D01*
X36300000Y14530804D01*
X36166873Y14509720D01*
X36166873Y14509719D01*
X36046780Y14448529D01*
X35951471Y14353220D01*
X35890281Y14233127D01*
X35890280Y14233127D01*
X35869196Y14100000D01*
X500500Y14100000D01*
X500500Y15200000D01*
X21644196Y15200000D01*
X21665280Y15066874D01*
X21726471Y14946781D01*
X21726472Y14946780D01*
X21821780Y14851472D01*
X21941873Y14790282D01*
X21941873Y14790281D01*
X21960075Y14787399D01*
X22075000Y14769196D01*
X22208126Y14790281D01*
X22328220Y14851472D01*
X22423528Y14946780D01*
X22484719Y15066874D01*
X22505804Y15200000D01*
X22484719Y15333126D01*
X22484719Y15333127D01*
X22423528Y15453220D01*
X22376748Y15500000D01*
X26815196Y15500000D01*
X26836280Y15366874D01*
X26853476Y15333126D01*
X26897472Y15246780D01*
X26992780Y15151472D01*
X27112873Y15090282D01*
X27112873Y15090281D01*
X27131075Y15087399D01*
X27246000Y15069196D01*
X27379126Y15090281D01*
X27499220Y15151472D01*
X27594528Y15246780D01*
X27655719Y15366874D01*
X27676804Y15500000D01*
X27919196Y15500000D01*
X27940280Y15366874D01*
X27957476Y15333126D01*
X28001472Y15246780D01*
X28096780Y15151472D01*
X28216873Y15090282D01*
X28216873Y15090281D01*
X28235075Y15087399D01*
X28350000Y15069196D01*
X28483126Y15090281D01*
X28603220Y15151472D01*
X28698528Y15246780D01*
X28759719Y15366874D01*
X28780804Y15500000D01*
X28759719Y15633126D01*
X28759719Y15633127D01*
X28698528Y15753220D01*
X28603219Y15848529D01*
X28483126Y15909719D01*
X28483126Y15909720D01*
X28350000Y15930804D01*
X28216873Y15909720D01*
X28216873Y15909719D01*
X28096780Y15848529D01*
X28001471Y15753220D01*
X27940281Y15633127D01*
X27940280Y15633127D01*
X27919196Y15500000D01*
X27676804Y15500000D01*
X27655719Y15633126D01*
X27655719Y15633127D01*
X27594528Y15753220D01*
X27499219Y15848529D01*
X27379126Y15909719D01*
X27379126Y15909720D01*
X27246000Y15930804D01*
X27112873Y15909720D01*
X27112873Y15909719D01*
X26992780Y15848529D01*
X26897471Y15753220D01*
X26836281Y15633127D01*
X26836280Y15633127D01*
X26815196Y15500000D01*
X22376748Y15500000D01*
X22328219Y15548529D01*
X22208126Y15609719D01*
X22208126Y15609720D01*
X22075000Y15630804D01*
X21941873Y15609720D01*
X21941873Y15609719D01*
X21821780Y15548529D01*
X21726471Y15453220D01*
X21665281Y15333127D01*
X21665280Y15333127D01*
X21644196Y15200000D01*
X500500Y15200000D01*
X500500Y16900000D01*
X23569196Y16900000D01*
X23590280Y16766874D01*
X23651471Y16646781D01*
X23651472Y16646780D01*
X23746780Y16551472D01*
X23866873Y16490282D01*
X23866873Y16490281D01*
X23885075Y16487399D01*
X24000000Y16469196D01*
X24133126Y16490281D01*
X24253220Y16551472D01*
X24348528Y16646780D01*
X24409719Y16766874D01*
X24430804Y16900000D01*
X24409719Y17033126D01*
X24409719Y17033127D01*
X24348528Y17153220D01*
X24253219Y17248529D01*
X24133126Y17309719D01*
X24133126Y17309720D01*
X24000000Y17330804D01*
X23866873Y17309720D01*
X23866873Y17309719D01*
X23746780Y17248529D01*
X23651471Y17153220D01*
X23590281Y17033127D01*
X23590280Y17033127D01*
X23569196Y16900000D01*
X500500Y16900000D01*
X500500Y18725000D01*
X19369196Y18725000D01*
X19390280Y18591874D01*
X19451471Y18471781D01*
X19451472Y18471780D01*
X19546780Y18376472D01*
X19666873Y18315282D01*
X19666873Y18315281D01*
X19685075Y18312399D01*
X19800000Y18294196D01*
X19933126Y18315281D01*
X20053220Y18376472D01*
X20148528Y18471780D01*
X20209719Y18591874D01*
X20230804Y18725000D01*
X20209719Y18858126D01*
X20209719Y18858127D01*
X20148528Y18978220D01*
X20053219Y19073529D01*
X19933126Y19134719D01*
X19933126Y19134720D01*
X19800000Y19155804D01*
X19666873Y19134720D01*
X19666873Y19134719D01*
X19546780Y19073529D01*
X19451471Y18978220D01*
X19390281Y18858127D01*
X19390280Y18858127D01*
X19369196Y18725000D01*
X500500Y18725000D01*
X500500Y19300000D01*
X14619196Y19300000D01*
X14640280Y19166874D01*
X14687843Y19073528D01*
X14701472Y19046780D01*
X14796780Y18951472D01*
X14916873Y18890282D01*
X14916873Y18890281D01*
X14935075Y18887399D01*
X15050000Y18869196D01*
X15183126Y18890281D01*
X15303220Y18951472D01*
X15398528Y19046780D01*
X15459719Y19166874D01*
X15480804Y19300000D01*
X15459719Y19433126D01*
X15459719Y19433127D01*
X15398528Y19553220D01*
X15303219Y19648529D01*
X15183126Y19709719D01*
X15183126Y19709720D01*
X15050000Y19730804D01*
X14916873Y19709720D01*
X14916873Y19709719D01*
X14796780Y19648529D01*
X14701471Y19553220D01*
X14640281Y19433127D01*
X14640280Y19433127D01*
X14619196Y19300000D01*
X500500Y19300000D01*
X500500Y21900000D01*
X39269196Y21900000D01*
X39290280Y21766874D01*
X39351471Y21646781D01*
X39351472Y21646780D01*
X39446780Y21551472D01*
X39566873Y21490282D01*
X39566873Y21490281D01*
X39585075Y21487399D01*
X39700000Y21469196D01*
X39833126Y21490281D01*
X39953220Y21551472D01*
X40048528Y21646780D01*
X40109719Y21766874D01*
X40130804Y21900000D01*
X40109719Y22033126D01*
X40109719Y22033127D01*
X40048528Y22153220D01*
X39953219Y22248529D01*
X39833126Y22309719D01*
X39833126Y22309720D01*
X39700000Y22330804D01*
X39566873Y22309720D01*
X39566873Y22309719D01*
X39446780Y22248529D01*
X39351471Y22153220D01*
X39290281Y22033127D01*
X39290280Y22033127D01*
X39269196Y21900000D01*
X500500Y21900000D01*
X500500Y23400000D01*
X29319196Y23400000D01*
X29340280Y23266874D01*
X29401471Y23146781D01*
X29401472Y23146780D01*
X29496780Y23051472D01*
X29616873Y22990282D01*
X29616873Y22990281D01*
X29635075Y22987399D01*
X29750000Y22969196D01*
X29883126Y22990281D01*
X30003220Y23051472D01*
X30098528Y23146780D01*
X30159719Y23266874D01*
X30180804Y23400000D01*
X30159719Y23533126D01*
X30159719Y23533127D01*
X30098528Y23653220D01*
X30003219Y23748529D01*
X29883126Y23809719D01*
X29883126Y23809720D01*
X29750000Y23830804D01*
X29616873Y23809720D01*
X29616873Y23809719D01*
X29496780Y23748529D01*
X29401471Y23653220D01*
X29340281Y23533127D01*
X29340280Y23533127D01*
X29319196Y23400000D01*
X500500Y23400000D01*
X500500Y23950000D01*
X26319196Y23950000D01*
X26340280Y23816874D01*
X26401471Y23696781D01*
X26401472Y23696780D01*
X26496780Y23601472D01*
X26616873Y23540282D01*
X26616873Y23540281D01*
X26635075Y23537399D01*
X26750000Y23519196D01*
X26883126Y23540281D01*
X27003220Y23601472D01*
X27098528Y23696780D01*
X27159719Y23816874D01*
X27180804Y23950000D01*
X27159719Y24083126D01*
X27159719Y24083127D01*
X27098528Y24203220D01*
X27028074Y24273674D01*
X27006682Y24319550D01*
X27019783Y24368445D01*
X27061247Y24397479D01*
X27080400Y24400000D01*
X30100000Y24400000D01*
X30100000Y28800000D01*
X26900000Y28800000D01*
X26900000Y24443690D01*
X26882687Y24396124D01*
X26838850Y24370814D01*
X26814425Y24370601D01*
X26750001Y24380804D01*
X26750000Y24380804D01*
X26616873Y24359720D01*
X26616873Y24359719D01*
X26496780Y24298529D01*
X26401471Y24203220D01*
X26340281Y24083127D01*
X26340280Y24083127D01*
X26319196Y23950000D01*
X500500Y23950000D01*
X500500Y25450000D01*
X23019196Y25450000D01*
X23040280Y25316874D01*
X23101471Y25196781D01*
X23101472Y25196780D01*
X23196780Y25101472D01*
X23316873Y25040282D01*
X23316873Y25040281D01*
X23335075Y25037399D01*
X23450000Y25019196D01*
X23583126Y25040281D01*
X23703220Y25101472D01*
X23798528Y25196780D01*
X23859719Y25316874D01*
X23880804Y25450000D01*
X23859719Y25583126D01*
X23859719Y25583127D01*
X23798528Y25703220D01*
X23703219Y25798529D01*
X23583126Y25859719D01*
X23583126Y25859720D01*
X23450000Y25880804D01*
X23316873Y25859720D01*
X23316873Y25859719D01*
X23196780Y25798529D01*
X23101471Y25703220D01*
X23040281Y25583127D01*
X23040280Y25583127D01*
X23019196Y25450000D01*
X500500Y25450000D01*
X500500Y39691032D01*
X17624500Y39691032D01*
X17639936Y39514597D01*
X17639936Y39514594D01*
X17639937Y39514592D01*
X17701097Y39286337D01*
X17800965Y39072171D01*
X17936505Y38878599D01*
X18103599Y38711505D01*
X18103600Y38711504D01*
X18139878Y38686102D01*
X18297170Y38575965D01*
X18511337Y38476097D01*
X18739592Y38414937D01*
X18857296Y38404639D01*
X18974996Y38394341D01*
X18975000Y38394341D01*
X18975004Y38394341D01*
X19079625Y38403495D01*
X19210408Y38414937D01*
X19438663Y38476097D01*
X19652829Y38575965D01*
X19846401Y38711505D01*
X20013495Y38878599D01*
X20149035Y39072171D01*
X20248903Y39286337D01*
X20310063Y39514592D01*
X20325500Y39691032D01*
X21434500Y39691032D01*
X21449936Y39514597D01*
X21449936Y39514594D01*
X21449937Y39514592D01*
X21511097Y39286337D01*
X21610965Y39072171D01*
X21746505Y38878599D01*
X21913599Y38711505D01*
X21913600Y38711504D01*
X21949878Y38686102D01*
X22107170Y38575965D01*
X22321337Y38476097D01*
X22549592Y38414937D01*
X22667296Y38404639D01*
X22784996Y38394341D01*
X22785000Y38394341D01*
X22785004Y38394341D01*
X22889625Y38403495D01*
X23020408Y38414937D01*
X23248663Y38476097D01*
X23462829Y38575965D01*
X23656401Y38711505D01*
X23823495Y38878599D01*
X23959035Y39072171D01*
X24058903Y39286337D01*
X24120063Y39514592D01*
X24135500Y39691032D01*
X25244500Y39691032D01*
X25259936Y39514597D01*
X25259936Y39514594D01*
X25259937Y39514592D01*
X25321097Y39286337D01*
X25420965Y39072171D01*
X25556505Y38878599D01*
X25723599Y38711505D01*
X25723600Y38711504D01*
X25759878Y38686102D01*
X25917170Y38575965D01*
X26131337Y38476097D01*
X26359592Y38414937D01*
X26477296Y38404639D01*
X26594996Y38394341D01*
X26595000Y38394341D01*
X26595004Y38394341D01*
X26699625Y38403495D01*
X26830408Y38414937D01*
X27058663Y38476097D01*
X27272829Y38575965D01*
X27466401Y38711505D01*
X27633495Y38878599D01*
X27748873Y39043377D01*
X29054500Y39043377D01*
X29060913Y38972810D01*
X29060913Y38972809D01*
X29060913Y38972807D01*
X29060914Y38972804D01*
X29111522Y38810394D01*
X29199528Y38664815D01*
X29319815Y38544528D01*
X29465394Y38456522D01*
X29627804Y38405914D01*
X29698384Y38399500D01*
X29698386Y38399500D01*
X31111614Y38399500D01*
X31111616Y38399500D01*
X31182196Y38405914D01*
X31344606Y38456522D01*
X31490185Y38544528D01*
X31610472Y38664815D01*
X31698478Y38810394D01*
X31749086Y38972804D01*
X31755500Y39043384D01*
X31755500Y42256616D01*
X31749086Y42327196D01*
X31698478Y42489606D01*
X31610472Y42635185D01*
X31490185Y42755472D01*
X31344606Y42843478D01*
X31182196Y42894086D01*
X31182193Y42894087D01*
X31182191Y42894087D01*
X31111623Y42900500D01*
X31111616Y42900500D01*
X29698384Y42900500D01*
X29698376Y42900500D01*
X29627809Y42894087D01*
X29627808Y42894087D01*
X29627805Y42894087D01*
X29627804Y42894086D01*
X29465394Y42843478D01*
X29465392Y42843478D01*
X29465392Y42843477D01*
X29319814Y42755472D01*
X29199528Y42635186D01*
X29111523Y42489608D01*
X29060913Y42327192D01*
X29060913Y42327191D01*
X29054500Y42256624D01*
X29054500Y39043377D01*
X27748873Y39043377D01*
X27769035Y39072171D01*
X27868903Y39286337D01*
X27930063Y39514592D01*
X27945500Y39691034D01*
X27945500Y41608966D01*
X27930063Y41785408D01*
X27868903Y42013663D01*
X27769035Y42227829D01*
X27633495Y42421401D01*
X27466401Y42588495D01*
X27466398Y42588497D01*
X27466399Y42588497D01*
X27393842Y42639302D01*
X27272830Y42724035D01*
X27058663Y42823903D01*
X26830408Y42885063D01*
X26830406Y42885064D01*
X26830403Y42885064D01*
X26595004Y42905659D01*
X26594996Y42905659D01*
X26359596Y42885064D01*
X26359592Y42885064D01*
X26359592Y42885063D01*
X26131337Y42823903D01*
X26131336Y42823903D01*
X26131334Y42823902D01*
X26131333Y42823902D01*
X25984588Y42755472D01*
X25917167Y42724033D01*
X25723602Y42588498D01*
X25723599Y42588496D01*
X25556504Y42421401D01*
X25556502Y42421398D01*
X25420967Y42227833D01*
X25321099Y42013667D01*
X25321098Y42013666D01*
X25259936Y41785404D01*
X25244500Y41608969D01*
X25244500Y39691032D01*
X24135500Y39691032D01*
X24135500Y39691034D01*
X24135500Y41608966D01*
X24120063Y41785408D01*
X24058903Y42013663D01*
X23959035Y42227829D01*
X23823495Y42421401D01*
X23656401Y42588495D01*
X23656398Y42588497D01*
X23656399Y42588497D01*
X23583842Y42639302D01*
X23462830Y42724035D01*
X23248663Y42823903D01*
X23020408Y42885063D01*
X23020406Y42885064D01*
X23020403Y42885064D01*
X22785004Y42905659D01*
X22784996Y42905659D01*
X22549596Y42885064D01*
X22549592Y42885064D01*
X22549592Y42885063D01*
X22321337Y42823903D01*
X22321336Y42823903D01*
X22321334Y42823902D01*
X22321333Y42823902D01*
X22174588Y42755472D01*
X22107167Y42724033D01*
X21913602Y42588498D01*
X21913599Y42588496D01*
X21746504Y42421401D01*
X21746502Y42421398D01*
X21610967Y42227833D01*
X21511099Y42013667D01*
X21511098Y42013666D01*
X21449936Y41785404D01*
X21434500Y41608969D01*
X21434500Y39691032D01*
X20325500Y39691032D01*
X20325500Y39691034D01*
X20325500Y41608966D01*
X20310063Y41785408D01*
X20248903Y42013663D01*
X20149035Y42227829D01*
X20013495Y42421401D01*
X19846401Y42588495D01*
X19846398Y42588497D01*
X19846399Y42588497D01*
X19773842Y42639302D01*
X19652830Y42724035D01*
X19438663Y42823903D01*
X19210408Y42885063D01*
X19210406Y42885064D01*
X19210403Y42885064D01*
X18975004Y42905659D01*
X18974996Y42905659D01*
X18739596Y42885064D01*
X18739592Y42885064D01*
X18739592Y42885063D01*
X18511337Y42823903D01*
X18511336Y42823903D01*
X18511334Y42823902D01*
X18511333Y42823902D01*
X18364588Y42755472D01*
X18297167Y42724033D01*
X18103602Y42588498D01*
X18103599Y42588496D01*
X17936504Y42421401D01*
X17936502Y42421398D01*
X17800967Y42227833D01*
X17701099Y42013667D01*
X17701098Y42013666D01*
X17639936Y41785404D01*
X17624500Y41608969D01*
X17624500Y39691032D01*
X500500Y39691032D01*
X500500Y46187764D01*
X500635Y46192232D01*
X502665Y46225799D01*
X502919Y46230000D01*
X1349474Y46230000D01*
X1369548Y45974929D01*
X1429276Y45726145D01*
X1527192Y45489755D01*
X1527196Y45489748D01*
X1660875Y45271604D01*
X1660877Y45271601D01*
X1763562Y45151372D01*
X1827041Y45077047D01*
X1827046Y45077042D01*
X1862172Y45047042D01*
X2021601Y44910877D01*
X2239757Y44777191D01*
X2476140Y44679278D01*
X2724930Y44619548D01*
X2916137Y44604500D01*
X3043863Y44604500D01*
X3235070Y44619548D01*
X3483860Y44679278D01*
X3720243Y44777191D01*
X3938399Y44910877D01*
X4132956Y45077044D01*
X4299123Y45271601D01*
X4432809Y45489757D01*
X4530722Y45726140D01*
X4590452Y45974930D01*
X4608165Y46200000D01*
X61599474Y46200000D01*
X61619548Y45944929D01*
X61679276Y45696145D01*
X61679277Y45696141D01*
X61679278Y45696140D01*
X61764765Y45489755D01*
X61777192Y45459755D01*
X61777196Y45459748D01*
X61892491Y45271604D01*
X61910877Y45241601D01*
X62013562Y45121372D01*
X62051421Y45077044D01*
X62077044Y45047044D01*
X62271601Y44880877D01*
X62489757Y44747191D01*
X62726140Y44649278D01*
X62974930Y44589548D01*
X63166137Y44574500D01*
X63293863Y44574500D01*
X63485070Y44589548D01*
X63733860Y44649278D01*
X63970243Y44747191D01*
X64188399Y44880877D01*
X64382956Y45047044D01*
X64549123Y45241601D01*
X64682809Y45459757D01*
X64780722Y45696140D01*
X64840452Y45944930D01*
X64860526Y46200000D01*
X64840452Y46455070D01*
X64780722Y46703860D01*
X64682809Y46940243D01*
X64549123Y47158399D01*
X64382956Y47352956D01*
X64382953Y47352959D01*
X64308628Y47416438D01*
X64188399Y47519123D01*
X64188396Y47519125D01*
X63970252Y47652804D01*
X63970245Y47652808D01*
X63897828Y47682804D01*
X63733860Y47750722D01*
X63733859Y47750723D01*
X63733855Y47750724D01*
X63485071Y47810452D01*
X63293863Y47825500D01*
X63166137Y47825500D01*
X62974928Y47810452D01*
X62726144Y47750724D01*
X62489754Y47652808D01*
X62489747Y47652804D01*
X62271603Y47519125D01*
X62271602Y47519124D01*
X62077046Y47352959D01*
X62077041Y47352954D01*
X61910876Y47158398D01*
X61910875Y47158397D01*
X61777196Y46940253D01*
X61777192Y46940246D01*
X61679276Y46703856D01*
X61619548Y46455072D01*
X61599474Y46200000D01*
X4608165Y46200000D01*
X4610526Y46230000D01*
X4590452Y46485070D01*
X4530722Y46733860D01*
X4432809Y46970243D01*
X4299123Y47188399D01*
X4158576Y47352959D01*
X4132958Y47382954D01*
X4132953Y47382959D01*
X4058628Y47446438D01*
X3938399Y47549123D01*
X3938396Y47549125D01*
X3720252Y47682804D01*
X3720245Y47682808D01*
X3556281Y47750724D01*
X3483860Y47780722D01*
X3483859Y47780723D01*
X3483855Y47780724D01*
X3235071Y47840452D01*
X3043863Y47855500D01*
X2916137Y47855500D01*
X2724928Y47840452D01*
X2476144Y47780724D01*
X2239754Y47682808D01*
X2239747Y47682804D01*
X2021603Y47549125D01*
X2021602Y47549124D01*
X1827046Y47382959D01*
X1827041Y47382954D01*
X1660876Y47188398D01*
X1660875Y47188397D01*
X1527196Y46970253D01*
X1527192Y46970246D01*
X1429276Y46733856D01*
X1369548Y46485072D01*
X1349474Y46230000D01*
X502919Y46230000D01*
X518454Y46486824D01*
X519528Y46495672D01*
X572328Y46783789D01*
X574458Y46792432D01*
X661597Y47072069D01*
X664754Y47080396D01*
X784971Y47347507D01*
X789115Y47355401D01*
X940636Y47606048D01*
X945712Y47613401D01*
X976586Y47652809D01*
X1126343Y47843961D01*
X1132254Y47850633D01*
X1339367Y48057746D01*
X1346039Y48063657D01*
X1576599Y48244289D01*
X1583953Y48249364D01*
X1630926Y48277760D01*
X1834599Y48400885D01*
X1842493Y48405029D01*
X2109604Y48525246D01*
X2117931Y48528403D01*
X2397568Y48615542D01*
X2406211Y48617672D01*
X2694328Y48670472D01*
X2703176Y48671546D01*
X2997768Y48689366D01*
X3002236Y48689500D01*
X3065892Y48689500D01*
X63154108Y48689500D01*
X63217764Y48689500D01*
X63222231Y48689366D01*
G37*
%TD.AperFunction*%
%TD*%
M02*
