%TF.GenerationSoftware,KiCad,Pcbnew,7.0.11+dfsg-1build4*%
%TF.CreationDate,2026-10-07T10:07:03+09:00*%
%TF.ProjectId,t1s_hat,7431735f-6861-4742-9e6b-696361645f70,rev?*%
%TF.SameCoordinates,Original*%
%TF.FileFunction,Soldermask,Bot*%
%TF.FilePolarity,Negative*%
%FSLAX46Y46*%
G04 Gerber Fmt 4.6, Leading zero omitted, Abs format (unit mm)*
G04 Created by KiCad (PCBNEW 7.0.11+dfsg-1build4) date 2026-10-07 10:07:03*
%MOMM*%
%LPD*%
G01*
G04 APERTURE LIST*
%ADD10C,2.750000*%
%ADD11C,2.100000*%
%ADD12R,2.100000X2.100000*%
%ADD13R,1.700000X1.700000*%
%ADD14O,1.700000X1.700000*%
G04 APERTURE END LIST*
D10*
%TO.C,H3*%
X2980000Y46230000D03*
%TD*%
%TO.C,H2*%
X61329999Y4630000D03*
%TD*%
D11*
%TO.C,CN1*%
X30270000Y41600000D03*
D12*
X30270000Y46680000D03*
D11*
X27730000Y41600000D03*
X27730000Y46680000D03*
X25190000Y41600000D03*
X25190000Y46680000D03*
X22650000Y41600000D03*
X22650000Y46680000D03*
%TD*%
D13*
%TO.C,J1*%
X56456000Y5900000D03*
D14*
X56456000Y3360000D03*
X53916000Y5900000D03*
X53916000Y3360000D03*
X51376000Y5900000D03*
X51376000Y3360000D03*
X48836000Y5900000D03*
X48836000Y3360000D03*
X46296000Y5900000D03*
X46296000Y3360000D03*
X43756000Y5900000D03*
X43756000Y3360000D03*
X41216000Y5900000D03*
X41216000Y3360000D03*
X38676000Y5900000D03*
X38676000Y3360000D03*
X36136000Y5900000D03*
X36136000Y3360000D03*
X33596000Y5900000D03*
X33596000Y3360000D03*
X31056000Y5900000D03*
X31056000Y3360000D03*
X28516000Y5900000D03*
X28516000Y3360000D03*
X25976000Y5900000D03*
X25976000Y3360000D03*
X23436000Y5900000D03*
X23436000Y3360000D03*
X20896000Y5900000D03*
X20896000Y3360000D03*
X18356000Y5900000D03*
X18356000Y3360000D03*
X15816000Y5900000D03*
X15816000Y3360000D03*
X13276000Y5900000D03*
X13276000Y3360000D03*
X10736000Y5900000D03*
X10736000Y3360000D03*
X8196000Y5900000D03*
X8196000Y3360000D03*
%TD*%
D10*
%TO.C,H1*%
X3330000Y4630000D03*
%TD*%
%TO.C,H4*%
X63230000Y46200000D03*
%TD*%
M02*
