M48
; DRILL file {KiCad 7.0.11+dfsg-1build4} date Wed 07 Oct 2026 09:47:03 AM KST
; FORMAT={-:-/ absolute / metric / decimal}
; #@! TF.CreationDate,2026-10-07T09:47:03+09:00
; #@! TF.GenerationSoftware,Kicad,Pcbnew,7.0.11+dfsg-1build4
; #@! TF.FileFunction,Plated,1,4,PTH
FMAT,2
METRIC
; #@! TA.AperFunction,Plated,PTH,ComponentDrill
T1C0.200
; #@! TA.AperFunction,Plated,PTH,ViaDrill
T2C0.250
; #@! TA.AperFunction,Plated,PTH,ViaDrill
T3C0.300
; #@! TA.AperFunction,Plated,PTH,ComponentDrill
T4C1.000
; #@! TA.AperFunction,Plated,PTH,ComponentDrill
T5C1.400
%
G90
G05
T1
X28.55Y21.45
X28.55Y20.0
X28.55Y18.55
X30.0Y21.45
X30.0Y20.0
X30.0Y18.55
X31.45Y21.45
X31.45Y20.0
X31.45Y18.55
T2
X15.05Y19.3
X19.8Y18.725
X22.075Y15.2
X23.45Y25.45
X23.5Y23.95
X23.5Y22.45
X23.8Y21.25
X24.0Y16.9
X24.975Y13.2
X25.4Y21.25
X25.595Y7.6
X26.75Y23.95
X27.246Y15.5
X28.35Y15.5
X29.75Y23.4
X31.75Y30.6
X31.75Y16.7
X32.72Y26.2
X34.85Y18.7
X35.33Y29.05
X36.3Y14.1
X36.35Y23.94
X36.35Y22.8
X36.35Y17.3
X36.35Y15.7
X37.85Y24.975
X39.7Y21.9
T3
X17.9Y18.0
X18.5Y37.0
X25.15Y35.6
X27.6Y23.2
X31.812Y35.6
X38.25Y20.0
X40.1Y37.0
T4
X8.196Y5.9
X8.196Y3.36
X10.736Y5.9
X10.736Y3.36
X13.276Y5.9
X13.276Y3.36
X15.816Y5.9
X15.816Y3.36
X18.356Y5.9
X18.356Y3.36
X20.896Y5.9
X20.896Y3.36
X23.436Y5.9
X23.436Y3.36
X25.976Y5.9
X25.976Y3.36
X28.516Y5.9
X28.516Y3.36
X31.056Y5.9
X31.056Y3.36
X33.596Y5.9
X33.596Y3.36
X36.136Y5.9
X36.136Y3.36
X38.676Y5.9
X38.676Y3.36
X41.216Y5.9
X41.216Y3.36
X43.756Y5.9
X43.756Y3.36
X46.296Y5.9
X46.296Y3.36
X48.836Y5.9
X48.836Y3.36
X51.376Y5.9
X51.376Y3.36
X53.916Y5.9
X53.916Y3.36
X56.456Y5.9
X56.456Y3.36
T5
X22.65Y46.68
X22.65Y41.6
X25.19Y46.68
X25.19Y41.6
X27.73Y46.68
X27.73Y41.6
X30.27Y46.68
X30.27Y41.6
M30
