%TF.GenerationSoftware,KiCad,Pcbnew,7.0.11+dfsg-1build4*%
%TF.CreationDate,2026-10-02T16:45:10+09:00*%
%TF.ProjectId,t1s_hat,7431735f-6861-4742-9e6b-696361645f70,rev?*%
%TF.SameCoordinates,Original*%
%TF.FileFunction,Legend,Top*%
%TF.FilePolarity,Positive*%
%FSLAX46Y46*%
G04 Gerber Fmt 4.6, Leading zero omitted, Abs format (unit mm)*
G04 Created by KiCad (PCBNEW 7.0.11+dfsg-1build4) date 2026-10-02 16:45:10*
%MOMM*%
%LPD*%
G01*
G04 APERTURE LIST*
%ADD10C,0.150000*%
%ADD11C,0.425000*%
%ADD12C,0.140000*%
%ADD13C,0.130000*%
%ADD14C,0.200000*%
%ADD15C,0.220000*%
%ADD16C,0.120000*%
G04 APERTURE END LIST*
D10*
X58000000Y22000000D02*
X65900000Y22000000D01*
X58000000Y44000000D02*
X65900000Y44000000D01*
D11*
X58868500Y5900000D02*
G75*
G03*
X58443500Y5900000I-212500J0D01*
G01*
X58443500Y5900000D02*
G75*
G03*
X58868500Y5900000I212500J0D01*
G01*
D10*
X58000000Y22000000D02*
X58000000Y44000000D01*
D12*
X3158771Y30990923D02*
X2925438Y31419495D01*
X2758771Y30990923D02*
X2758771Y31890923D01*
X2758771Y31890923D02*
X3025438Y31890923D01*
X3025438Y31890923D02*
X3092105Y31848066D01*
X3092105Y31848066D02*
X3125438Y31805209D01*
X3125438Y31805209D02*
X3158771Y31719495D01*
X3158771Y31719495D02*
X3158771Y31590923D01*
X3158771Y31590923D02*
X3125438Y31505209D01*
X3125438Y31505209D02*
X3092105Y31462352D01*
X3092105Y31462352D02*
X3025438Y31419495D01*
X3025438Y31419495D02*
X2758771Y31419495D01*
X3825438Y30990923D02*
X3425438Y30990923D01*
X3625438Y30990923D02*
X3625438Y31890923D01*
X3625438Y31890923D02*
X3558771Y31762352D01*
X3558771Y31762352D02*
X3492105Y31676638D01*
X3492105Y31676638D02*
X3425438Y31633780D01*
X5058771Y30990923D02*
X4825438Y31419495D01*
X4658771Y30990923D02*
X4658771Y31890923D01*
X4658771Y31890923D02*
X4925438Y31890923D01*
X4925438Y31890923D02*
X4992105Y31848066D01*
X4992105Y31848066D02*
X5025438Y31805209D01*
X5025438Y31805209D02*
X5058771Y31719495D01*
X5058771Y31719495D02*
X5058771Y31590923D01*
X5058771Y31590923D02*
X5025438Y31505209D01*
X5025438Y31505209D02*
X4992105Y31462352D01*
X4992105Y31462352D02*
X4925438Y31419495D01*
X4925438Y31419495D02*
X4658771Y31419495D01*
X5325438Y31805209D02*
X5358771Y31848066D01*
X5358771Y31848066D02*
X5425438Y31890923D01*
X5425438Y31890923D02*
X5592105Y31890923D01*
X5592105Y31890923D02*
X5658771Y31848066D01*
X5658771Y31848066D02*
X5692105Y31805209D01*
X5692105Y31805209D02*
X5725438Y31719495D01*
X5725438Y31719495D02*
X5725438Y31633780D01*
X5725438Y31633780D02*
X5692105Y31505209D01*
X5692105Y31505209D02*
X5292105Y30990923D01*
X5292105Y30990923D02*
X5725438Y30990923D01*
X6558771Y31462352D02*
X7092105Y31462352D01*
X7092105Y31205209D02*
X6558771Y31205209D01*
X7858771Y31890923D02*
X8258771Y31890923D01*
X8058771Y30990923D02*
X8058771Y31890923D01*
X8492104Y31462352D02*
X8725438Y31462352D01*
X8825438Y30990923D02*
X8492104Y30990923D01*
X8492104Y30990923D02*
X8492104Y31890923D01*
X8492104Y31890923D02*
X8825438Y31890923D01*
X9525437Y30990923D02*
X9292104Y31419495D01*
X9125437Y30990923D02*
X9125437Y31890923D01*
X9125437Y31890923D02*
X9392104Y31890923D01*
X9392104Y31890923D02*
X9458771Y31848066D01*
X9458771Y31848066D02*
X9492104Y31805209D01*
X9492104Y31805209D02*
X9525437Y31719495D01*
X9525437Y31719495D02*
X9525437Y31590923D01*
X9525437Y31590923D02*
X9492104Y31505209D01*
X9492104Y31505209D02*
X9458771Y31462352D01*
X9458771Y31462352D02*
X9392104Y31419495D01*
X9392104Y31419495D02*
X9125437Y31419495D01*
X9825437Y30990923D02*
X9825437Y31890923D01*
X9825437Y31890923D02*
X10058771Y31248066D01*
X10058771Y31248066D02*
X10292104Y31890923D01*
X10292104Y31890923D02*
X10292104Y30990923D01*
X10625437Y30990923D02*
X10625437Y31890923D01*
X10958770Y30990923D02*
X10958770Y31890923D01*
X10958770Y31890923D02*
X11358770Y30990923D01*
X11358770Y30990923D02*
X11358770Y31890923D01*
X11658770Y31248066D02*
X11992103Y31248066D01*
X11592103Y30990923D02*
X11825437Y31890923D01*
X11825437Y31890923D02*
X12058770Y30990923D01*
X12192103Y31890923D02*
X12592103Y31890923D01*
X12392103Y30990923D02*
X12392103Y31890923D01*
X12825436Y30990923D02*
X12825436Y31890923D01*
X13292103Y31890923D02*
X13425436Y31890923D01*
X13425436Y31890923D02*
X13492103Y31848066D01*
X13492103Y31848066D02*
X13558769Y31762352D01*
X13558769Y31762352D02*
X13592103Y31590923D01*
X13592103Y31590923D02*
X13592103Y31290923D01*
X13592103Y31290923D02*
X13558769Y31119495D01*
X13558769Y31119495D02*
X13492103Y31033780D01*
X13492103Y31033780D02*
X13425436Y30990923D01*
X13425436Y30990923D02*
X13292103Y30990923D01*
X13292103Y30990923D02*
X13225436Y31033780D01*
X13225436Y31033780D02*
X13158769Y31119495D01*
X13158769Y31119495D02*
X13125436Y31290923D01*
X13125436Y31290923D02*
X13125436Y31590923D01*
X13125436Y31590923D02*
X13158769Y31762352D01*
X13158769Y31762352D02*
X13225436Y31848066D01*
X13225436Y31848066D02*
X13292103Y31890923D01*
X13892102Y30990923D02*
X13892102Y31890923D01*
X13892102Y31890923D02*
X14292102Y30990923D01*
X14292102Y30990923D02*
X14292102Y31890923D01*
X15358768Y30648066D02*
X15325435Y30690923D01*
X15325435Y30690923D02*
X15258768Y30819495D01*
X15258768Y30819495D02*
X15225435Y30905209D01*
X15225435Y30905209D02*
X15192102Y31033780D01*
X15192102Y31033780D02*
X15158768Y31248066D01*
X15158768Y31248066D02*
X15158768Y31419495D01*
X15158768Y31419495D02*
X15192102Y31633780D01*
X15192102Y31633780D02*
X15225435Y31762352D01*
X15225435Y31762352D02*
X15258768Y31848066D01*
X15258768Y31848066D02*
X15325435Y31976638D01*
X15325435Y31976638D02*
X15358768Y32019495D01*
X15625435Y30990923D02*
X15625435Y31890923D01*
X15625435Y31890923D02*
X15792102Y31890923D01*
X15792102Y31890923D02*
X15892102Y31848066D01*
X15892102Y31848066D02*
X15958769Y31762352D01*
X15958769Y31762352D02*
X15992102Y31676638D01*
X15992102Y31676638D02*
X16025435Y31505209D01*
X16025435Y31505209D02*
X16025435Y31376638D01*
X16025435Y31376638D02*
X15992102Y31205209D01*
X15992102Y31205209D02*
X15958769Y31119495D01*
X15958769Y31119495D02*
X15892102Y31033780D01*
X15892102Y31033780D02*
X15792102Y30990923D01*
X15792102Y30990923D02*
X15625435Y30990923D01*
X16325435Y30990923D02*
X16325435Y31890923D01*
X16325435Y31890923D02*
X16725435Y30990923D01*
X16725435Y30990923D02*
X16725435Y31890923D01*
X17058768Y30990923D02*
X17058768Y31890923D01*
X17058768Y31890923D02*
X17325435Y31890923D01*
X17325435Y31890923D02*
X17392102Y31848066D01*
X17392102Y31848066D02*
X17425435Y31805209D01*
X17425435Y31805209D02*
X17458768Y31719495D01*
X17458768Y31719495D02*
X17458768Y31590923D01*
X17458768Y31590923D02*
X17425435Y31505209D01*
X17425435Y31505209D02*
X17392102Y31462352D01*
X17392102Y31462352D02*
X17325435Y31419495D01*
X17325435Y31419495D02*
X17058768Y31419495D01*
X17692102Y30648066D02*
X17725435Y30690923D01*
X17725435Y30690923D02*
X17792102Y30819495D01*
X17792102Y30819495D02*
X17825435Y30905209D01*
X17825435Y30905209D02*
X17858768Y31033780D01*
X17858768Y31033780D02*
X17892102Y31248066D01*
X17892102Y31248066D02*
X17892102Y31419495D01*
X17892102Y31419495D02*
X17858768Y31633780D01*
X17858768Y31633780D02*
X17825435Y31762352D01*
X17825435Y31762352D02*
X17792102Y31848066D01*
X17792102Y31848066D02*
X17725435Y31976638D01*
X17725435Y31976638D02*
X17692102Y32019495D01*
D13*
X38336476Y7636665D02*
X38129810Y8017618D01*
X37982191Y7636665D02*
X37982191Y8436665D01*
X37982191Y8436665D02*
X38218381Y8436665D01*
X38218381Y8436665D02*
X38277429Y8398570D01*
X38277429Y8398570D02*
X38306952Y8360475D01*
X38306952Y8360475D02*
X38336476Y8284284D01*
X38336476Y8284284D02*
X38336476Y8169999D01*
X38336476Y8169999D02*
X38306952Y8093808D01*
X38306952Y8093808D02*
X38277429Y8055713D01*
X38277429Y8055713D02*
X38218381Y8017618D01*
X38218381Y8017618D02*
X37982191Y8017618D01*
X38572667Y7674760D02*
X38661238Y7636665D01*
X38661238Y7636665D02*
X38808857Y7636665D01*
X38808857Y7636665D02*
X38867905Y7674760D01*
X38867905Y7674760D02*
X38897429Y7712856D01*
X38897429Y7712856D02*
X38926952Y7789046D01*
X38926952Y7789046D02*
X38926952Y7865237D01*
X38926952Y7865237D02*
X38897429Y7941427D01*
X38897429Y7941427D02*
X38867905Y7979522D01*
X38867905Y7979522D02*
X38808857Y8017618D01*
X38808857Y8017618D02*
X38690762Y8055713D01*
X38690762Y8055713D02*
X38631714Y8093808D01*
X38631714Y8093808D02*
X38602191Y8131903D01*
X38602191Y8131903D02*
X38572667Y8208094D01*
X38572667Y8208094D02*
X38572667Y8284284D01*
X38572667Y8284284D02*
X38602191Y8360475D01*
X38602191Y8360475D02*
X38631714Y8398570D01*
X38631714Y8398570D02*
X38690762Y8436665D01*
X38690762Y8436665D02*
X38838381Y8436665D01*
X38838381Y8436665D02*
X38926952Y8398570D01*
X39104095Y8436665D02*
X39458381Y8436665D01*
X39281238Y7636665D02*
X39281238Y8436665D01*
D14*
X62201885Y31928572D02*
X62201885Y32404762D01*
X62544742Y31833334D02*
X61344742Y32166667D01*
X61344742Y32166667D02*
X62544742Y32500000D01*
X62544742Y32833334D02*
X61344742Y32833334D01*
X61344742Y32833334D02*
X62544742Y33404762D01*
X62544742Y33404762D02*
X61344742Y33404762D01*
X61344742Y33738096D02*
X61344742Y34309524D01*
X62544742Y34023810D02*
X61344742Y34023810D01*
X61916171Y34642858D02*
X61916171Y34976191D01*
X62544742Y35119048D02*
X62544742Y34642858D01*
X62544742Y34642858D02*
X61344742Y34642858D01*
X61344742Y34642858D02*
X61344742Y35119048D01*
X62544742Y35547620D02*
X61344742Y35547620D01*
X61344742Y35547620D02*
X62544742Y36119048D01*
X62544742Y36119048D02*
X61344742Y36119048D01*
X62544742Y36595239D02*
X61344742Y36595239D01*
X61344742Y36595239D02*
X62544742Y37166667D01*
X62544742Y37166667D02*
X61344742Y37166667D01*
X62201885Y37595239D02*
X62201885Y38071429D01*
X62544742Y37500001D02*
X61344742Y37833334D01*
X61344742Y37833334D02*
X62544742Y38166667D01*
D12*
X2758771Y27890923D02*
X2758771Y28790923D01*
X2758771Y28790923D02*
X2925438Y28790923D01*
X2925438Y28790923D02*
X3025438Y28748066D01*
X3025438Y28748066D02*
X3092105Y28662352D01*
X3092105Y28662352D02*
X3125438Y28576638D01*
X3125438Y28576638D02*
X3158771Y28405209D01*
X3158771Y28405209D02*
X3158771Y28276638D01*
X3158771Y28276638D02*
X3125438Y28105209D01*
X3125438Y28105209D02*
X3092105Y28019495D01*
X3092105Y28019495D02*
X3025438Y27933780D01*
X3025438Y27933780D02*
X2925438Y27890923D01*
X2925438Y27890923D02*
X2758771Y27890923D01*
X3858771Y27890923D02*
X3625438Y28319495D01*
X3458771Y27890923D02*
X3458771Y28790923D01*
X3458771Y28790923D02*
X3725438Y28790923D01*
X3725438Y28790923D02*
X3792105Y28748066D01*
X3792105Y28748066D02*
X3825438Y28705209D01*
X3825438Y28705209D02*
X3858771Y28619495D01*
X3858771Y28619495D02*
X3858771Y28490923D01*
X3858771Y28490923D02*
X3825438Y28405209D01*
X3825438Y28405209D02*
X3792105Y28362352D01*
X3792105Y28362352D02*
X3725438Y28319495D01*
X3725438Y28319495D02*
X3458771Y28319495D01*
X4292105Y28790923D02*
X4425438Y28790923D01*
X4425438Y28790923D02*
X4492105Y28748066D01*
X4492105Y28748066D02*
X4558771Y28662352D01*
X4558771Y28662352D02*
X4592105Y28490923D01*
X4592105Y28490923D02*
X4592105Y28190923D01*
X4592105Y28190923D02*
X4558771Y28019495D01*
X4558771Y28019495D02*
X4492105Y27933780D01*
X4492105Y27933780D02*
X4425438Y27890923D01*
X4425438Y27890923D02*
X4292105Y27890923D01*
X4292105Y27890923D02*
X4225438Y27933780D01*
X4225438Y27933780D02*
X4158771Y28019495D01*
X4158771Y28019495D02*
X4125438Y28190923D01*
X4125438Y28190923D02*
X4125438Y28490923D01*
X4125438Y28490923D02*
X4158771Y28662352D01*
X4158771Y28662352D02*
X4225438Y28748066D01*
X4225438Y28748066D02*
X4292105Y28790923D01*
X4892104Y27890923D02*
X4892104Y28790923D01*
X4892104Y28790923D02*
X5158771Y28790923D01*
X5158771Y28790923D02*
X5225438Y28748066D01*
X5225438Y28748066D02*
X5258771Y28705209D01*
X5258771Y28705209D02*
X5292104Y28619495D01*
X5292104Y28619495D02*
X5292104Y28490923D01*
X5292104Y28490923D02*
X5258771Y28405209D01*
X5258771Y28405209D02*
X5225438Y28362352D01*
X5225438Y28362352D02*
X5158771Y28319495D01*
X5158771Y28319495D02*
X4892104Y28319495D01*
X6125437Y27890923D02*
X6125437Y28790923D01*
X6125437Y28790923D02*
X6525437Y27890923D01*
X6525437Y27890923D02*
X6525437Y28790923D01*
X6992104Y28790923D02*
X7125437Y28790923D01*
X7125437Y28790923D02*
X7192104Y28748066D01*
X7192104Y28748066D02*
X7258770Y28662352D01*
X7258770Y28662352D02*
X7292104Y28490923D01*
X7292104Y28490923D02*
X7292104Y28190923D01*
X7292104Y28190923D02*
X7258770Y28019495D01*
X7258770Y28019495D02*
X7192104Y27933780D01*
X7192104Y27933780D02*
X7125437Y27890923D01*
X7125437Y27890923D02*
X6992104Y27890923D01*
X6992104Y27890923D02*
X6925437Y27933780D01*
X6925437Y27933780D02*
X6858770Y28019495D01*
X6858770Y28019495D02*
X6825437Y28190923D01*
X6825437Y28190923D02*
X6825437Y28490923D01*
X6825437Y28490923D02*
X6858770Y28662352D01*
X6858770Y28662352D02*
X6925437Y28748066D01*
X6925437Y28748066D02*
X6992104Y28790923D01*
X7592103Y27890923D02*
X7592103Y28790923D01*
X7592103Y28790923D02*
X7758770Y28790923D01*
X7758770Y28790923D02*
X7858770Y28748066D01*
X7858770Y28748066D02*
X7925437Y28662352D01*
X7925437Y28662352D02*
X7958770Y28576638D01*
X7958770Y28576638D02*
X7992103Y28405209D01*
X7992103Y28405209D02*
X7992103Y28276638D01*
X7992103Y28276638D02*
X7958770Y28105209D01*
X7958770Y28105209D02*
X7925437Y28019495D01*
X7925437Y28019495D02*
X7858770Y27933780D01*
X7858770Y27933780D02*
X7758770Y27890923D01*
X7758770Y27890923D02*
X7592103Y27890923D01*
X8292103Y28362352D02*
X8525437Y28362352D01*
X8625437Y27890923D02*
X8292103Y27890923D01*
X8292103Y27890923D02*
X8292103Y28790923D01*
X8292103Y28790923D02*
X8625437Y28790923D01*
X9458769Y27976638D02*
X9492103Y27933780D01*
X9492103Y27933780D02*
X9458769Y27890923D01*
X9458769Y27890923D02*
X9425436Y27933780D01*
X9425436Y27933780D02*
X9458769Y27976638D01*
X9458769Y27976638D02*
X9458769Y27890923D01*
X9792102Y27976638D02*
X9825436Y27933780D01*
X9825436Y27933780D02*
X9792102Y27890923D01*
X9792102Y27890923D02*
X9758769Y27933780D01*
X9758769Y27933780D02*
X9792102Y27976638D01*
X9792102Y27976638D02*
X9792102Y27890923D01*
X10125435Y27976638D02*
X10158769Y27933780D01*
X10158769Y27933780D02*
X10125435Y27890923D01*
X10125435Y27890923D02*
X10092102Y27933780D01*
X10092102Y27933780D02*
X10125435Y27976638D01*
X10125435Y27976638D02*
X10125435Y27890923D01*
X10458768Y27976638D02*
X10492102Y27933780D01*
X10492102Y27933780D02*
X10458768Y27890923D01*
X10458768Y27890923D02*
X10425435Y27933780D01*
X10425435Y27933780D02*
X10458768Y27976638D01*
X10458768Y27976638D02*
X10458768Y27890923D01*
X11692101Y27890923D02*
X11292101Y27890923D01*
X11492101Y27890923D02*
X11492101Y28790923D01*
X11492101Y28790923D02*
X11425434Y28662352D01*
X11425434Y28662352D02*
X11358768Y28576638D01*
X11358768Y28576638D02*
X11292101Y28533780D01*
X11992101Y27890923D02*
X11992101Y28790923D01*
X12392101Y27890923D02*
X12092101Y28405209D01*
X12392101Y28790923D02*
X11992101Y28276638D01*
X13025435Y28790923D02*
X12692101Y28790923D01*
X12692101Y28790923D02*
X12658768Y28362352D01*
X12658768Y28362352D02*
X12692101Y28405209D01*
X12692101Y28405209D02*
X12758768Y28448066D01*
X12758768Y28448066D02*
X12925435Y28448066D01*
X12925435Y28448066D02*
X12992101Y28405209D01*
X12992101Y28405209D02*
X13025435Y28362352D01*
X13025435Y28362352D02*
X13058768Y28276638D01*
X13058768Y28276638D02*
X13058768Y28062352D01*
X13058768Y28062352D02*
X13025435Y27976638D01*
X13025435Y27976638D02*
X12992101Y27933780D01*
X12992101Y27933780D02*
X12925435Y27890923D01*
X12925435Y27890923D02*
X12758768Y27890923D01*
X12758768Y27890923D02*
X12692101Y27933780D01*
X12692101Y27933780D02*
X12658768Y27976638D01*
X14792101Y27890923D02*
X14392101Y27890923D01*
X14592101Y27890923D02*
X14592101Y28790923D01*
X14592101Y28790923D02*
X14525434Y28662352D01*
X14525434Y28662352D02*
X14458768Y28576638D01*
X14458768Y28576638D02*
X14392101Y28533780D01*
X15058768Y27890923D02*
X15592101Y28790923D01*
X15158768Y28790923D02*
X15225435Y28748066D01*
X15225435Y28748066D02*
X15258768Y28662352D01*
X15258768Y28662352D02*
X15225435Y28576638D01*
X15225435Y28576638D02*
X15158768Y28533780D01*
X15158768Y28533780D02*
X15092101Y28576638D01*
X15092101Y28576638D02*
X15058768Y28662352D01*
X15058768Y28662352D02*
X15092101Y28748066D01*
X15092101Y28748066D02*
X15158768Y28790923D01*
X15558768Y27933780D02*
X15592101Y28019495D01*
X15592101Y28019495D02*
X15558768Y28105209D01*
X15558768Y28105209D02*
X15492101Y28148066D01*
X15492101Y28148066D02*
X15425435Y28105209D01*
X15425435Y28105209D02*
X15392101Y28019495D01*
X15392101Y28019495D02*
X15425435Y27933780D01*
X15425435Y27933780D02*
X15492101Y27890923D01*
X15492101Y27890923D02*
X15558768Y27933780D01*
X3158771Y36976638D02*
X3125438Y36933780D01*
X3125438Y36933780D02*
X3025438Y36890923D01*
X3025438Y36890923D02*
X2958771Y36890923D01*
X2958771Y36890923D02*
X2858771Y36933780D01*
X2858771Y36933780D02*
X2792105Y37019495D01*
X2792105Y37019495D02*
X2758771Y37105209D01*
X2758771Y37105209D02*
X2725438Y37276638D01*
X2725438Y37276638D02*
X2725438Y37405209D01*
X2725438Y37405209D02*
X2758771Y37576638D01*
X2758771Y37576638D02*
X2792105Y37662352D01*
X2792105Y37662352D02*
X2858771Y37748066D01*
X2858771Y37748066D02*
X2958771Y37790923D01*
X2958771Y37790923D02*
X3025438Y37790923D01*
X3025438Y37790923D02*
X3125438Y37748066D01*
X3125438Y37748066D02*
X3158771Y37705209D01*
X3458771Y36890923D02*
X3458771Y37790923D01*
X3458771Y37790923D02*
X3858771Y36890923D01*
X3858771Y36890923D02*
X3858771Y37790923D01*
X4558771Y36890923D02*
X4158771Y36890923D01*
X4358771Y36890923D02*
X4358771Y37790923D01*
X4358771Y37790923D02*
X4292104Y37662352D01*
X4292104Y37662352D02*
X4225438Y37576638D01*
X4225438Y37576638D02*
X4158771Y37533780D01*
X6292104Y36890923D02*
X5892104Y36890923D01*
X6092104Y36890923D02*
X6092104Y37790923D01*
X6092104Y37790923D02*
X6025437Y37662352D01*
X6025437Y37662352D02*
X5958771Y37576638D01*
X5958771Y37576638D02*
X5892104Y37533780D01*
X6592104Y37362352D02*
X7125438Y37362352D01*
X7125438Y37105209D02*
X6592104Y37105209D01*
X7458771Y36890923D02*
X7458771Y37790923D01*
X7458771Y37790923D02*
X7725438Y37790923D01*
X7725438Y37790923D02*
X7792105Y37748066D01*
X7792105Y37748066D02*
X7825438Y37705209D01*
X7825438Y37705209D02*
X7858771Y37619495D01*
X7858771Y37619495D02*
X7858771Y37490923D01*
X7858771Y37490923D02*
X7825438Y37405209D01*
X7825438Y37405209D02*
X7792105Y37362352D01*
X7792105Y37362352D02*
X7725438Y37319495D01*
X7725438Y37319495D02*
X7458771Y37319495D01*
X8658771Y37705209D02*
X8692104Y37748066D01*
X8692104Y37748066D02*
X8758771Y37790923D01*
X8758771Y37790923D02*
X8925438Y37790923D01*
X8925438Y37790923D02*
X8992104Y37748066D01*
X8992104Y37748066D02*
X9025438Y37705209D01*
X9025438Y37705209D02*
X9058771Y37619495D01*
X9058771Y37619495D02*
X9058771Y37533780D01*
X9058771Y37533780D02*
X9025438Y37405209D01*
X9025438Y37405209D02*
X8625438Y36890923D01*
X8625438Y36890923D02*
X9058771Y36890923D01*
X9358771Y37362352D02*
X9892105Y37362352D01*
X9892105Y37105209D02*
X9358771Y37105209D01*
X10225438Y36890923D02*
X10225438Y37790923D01*
X10225438Y37790923D02*
X10625438Y36890923D01*
X10625438Y36890923D02*
X10625438Y37790923D01*
X11425438Y37790923D02*
X11858771Y37790923D01*
X11858771Y37790923D02*
X11625438Y37448066D01*
X11625438Y37448066D02*
X11725438Y37448066D01*
X11725438Y37448066D02*
X11792104Y37405209D01*
X11792104Y37405209D02*
X11825438Y37362352D01*
X11825438Y37362352D02*
X11858771Y37276638D01*
X11858771Y37276638D02*
X11858771Y37062352D01*
X11858771Y37062352D02*
X11825438Y36976638D01*
X11825438Y36976638D02*
X11792104Y36933780D01*
X11792104Y36933780D02*
X11725438Y36890923D01*
X11725438Y36890923D02*
X11525438Y36890923D01*
X11525438Y36890923D02*
X11458771Y36933780D01*
X11458771Y36933780D02*
X11425438Y36976638D01*
X12158771Y37362352D02*
X12692105Y37362352D01*
X12692105Y37105209D02*
X12158771Y37105209D01*
X13025438Y36890923D02*
X13025438Y37790923D01*
X13025438Y37790923D02*
X13425438Y36890923D01*
X13425438Y36890923D02*
X13425438Y37790923D01*
X14592104Y37490923D02*
X14592104Y36890923D01*
X14425438Y37833780D02*
X14258771Y37190923D01*
X14258771Y37190923D02*
X14692104Y37190923D01*
X14958771Y37362352D02*
X15492105Y37362352D01*
X15492105Y37105209D02*
X14958771Y37105209D01*
X15825438Y36890923D02*
X15825438Y37790923D01*
X15825438Y37790923D02*
X16092105Y37790923D01*
X16092105Y37790923D02*
X16158772Y37748066D01*
X16158772Y37748066D02*
X16192105Y37705209D01*
X16192105Y37705209D02*
X16225438Y37619495D01*
X16225438Y37619495D02*
X16225438Y37490923D01*
X16225438Y37490923D02*
X16192105Y37405209D01*
X16192105Y37405209D02*
X16158772Y37362352D01*
X16158772Y37362352D02*
X16092105Y37319495D01*
X16092105Y37319495D02*
X15825438Y37319495D01*
D13*
X38041238Y896665D02*
X38041238Y1696665D01*
X38690761Y896665D02*
X38484095Y1277618D01*
X38336476Y896665D02*
X38336476Y1696665D01*
X38336476Y1696665D02*
X38572666Y1696665D01*
X38572666Y1696665D02*
X38631714Y1658570D01*
X38631714Y1658570D02*
X38661237Y1620475D01*
X38661237Y1620475D02*
X38690761Y1544284D01*
X38690761Y1544284D02*
X38690761Y1429999D01*
X38690761Y1429999D02*
X38661237Y1353808D01*
X38661237Y1353808D02*
X38631714Y1315713D01*
X38631714Y1315713D02*
X38572666Y1277618D01*
X38572666Y1277618D02*
X38336476Y1277618D01*
X39369809Y820475D02*
X39310761Y858570D01*
X39310761Y858570D02*
X39251714Y934760D01*
X39251714Y934760D02*
X39163142Y1049046D01*
X39163142Y1049046D02*
X39104095Y1087141D01*
X39104095Y1087141D02*
X39045047Y1087141D01*
X39074571Y896665D02*
X39015523Y934760D01*
X39015523Y934760D02*
X38956476Y1010951D01*
X38956476Y1010951D02*
X38926952Y1163332D01*
X38926952Y1163332D02*
X38926952Y1429999D01*
X38926952Y1429999D02*
X38956476Y1582380D01*
X38956476Y1582380D02*
X39015523Y1658570D01*
X39015523Y1658570D02*
X39074571Y1696665D01*
X39074571Y1696665D02*
X39192666Y1696665D01*
X39192666Y1696665D02*
X39251714Y1658570D01*
X39251714Y1658570D02*
X39310761Y1582380D01*
X39310761Y1582380D02*
X39340285Y1429999D01*
X39340285Y1429999D02*
X39340285Y1163332D01*
X39340285Y1163332D02*
X39310761Y1010951D01*
X39310761Y1010951D02*
X39251714Y934760D01*
X39251714Y934760D02*
X39192666Y896665D01*
X39192666Y896665D02*
X39074571Y896665D01*
D12*
X60609077Y26339287D02*
X59709077Y26339287D01*
X60609077Y26767858D02*
X60094791Y26446430D01*
X59709077Y26767858D02*
X60223362Y26339287D01*
X60137648Y27089287D02*
X60137648Y27339287D01*
X60609077Y27446430D02*
X60609077Y27089287D01*
X60609077Y27089287D02*
X59709077Y27089287D01*
X59709077Y27089287D02*
X59709077Y27446430D01*
X60137648Y27767858D02*
X60137648Y28017858D01*
X60609077Y28125001D02*
X60609077Y27767858D01*
X60609077Y27767858D02*
X59709077Y27767858D01*
X59709077Y27767858D02*
X59709077Y28125001D01*
X60609077Y28446429D02*
X59709077Y28446429D01*
X59709077Y28446429D02*
X59709077Y28732143D01*
X59709077Y28732143D02*
X59751934Y28803572D01*
X59751934Y28803572D02*
X59794791Y28839286D01*
X59794791Y28839286D02*
X59880505Y28875000D01*
X59880505Y28875000D02*
X60009077Y28875000D01*
X60009077Y28875000D02*
X60094791Y28839286D01*
X60094791Y28839286D02*
X60137648Y28803572D01*
X60137648Y28803572D02*
X60180505Y28732143D01*
X60180505Y28732143D02*
X60180505Y28446429D01*
X59709077Y29339286D02*
X59709077Y29482143D01*
X59709077Y29482143D02*
X59751934Y29553572D01*
X59751934Y29553572D02*
X59837648Y29625000D01*
X59837648Y29625000D02*
X60009077Y29660715D01*
X60009077Y29660715D02*
X60309077Y29660715D01*
X60309077Y29660715D02*
X60480505Y29625000D01*
X60480505Y29625000D02*
X60566220Y29553572D01*
X60566220Y29553572D02*
X60609077Y29482143D01*
X60609077Y29482143D02*
X60609077Y29339286D01*
X60609077Y29339286D02*
X60566220Y29267857D01*
X60566220Y29267857D02*
X60480505Y29196429D01*
X60480505Y29196429D02*
X60309077Y29160715D01*
X60309077Y29160715D02*
X60009077Y29160715D01*
X60009077Y29160715D02*
X59837648Y29196429D01*
X59837648Y29196429D02*
X59751934Y29267857D01*
X59751934Y29267857D02*
X59709077Y29339286D01*
X59709077Y29982143D02*
X60437648Y29982143D01*
X60437648Y29982143D02*
X60523362Y30017857D01*
X60523362Y30017857D02*
X60566220Y30053571D01*
X60566220Y30053571D02*
X60609077Y30125000D01*
X60609077Y30125000D02*
X60609077Y30267857D01*
X60609077Y30267857D02*
X60566220Y30339286D01*
X60566220Y30339286D02*
X60523362Y30375000D01*
X60523362Y30375000D02*
X60437648Y30410714D01*
X60437648Y30410714D02*
X59709077Y30410714D01*
X59709077Y30660714D02*
X59709077Y31089285D01*
X60609077Y30875000D02*
X59709077Y30875000D01*
X60266220Y31910715D02*
X60266220Y32482143D01*
X60609077Y33410715D02*
X59709077Y33410715D01*
X59709077Y33410715D02*
X60609077Y33839286D01*
X60609077Y33839286D02*
X59709077Y33839286D01*
X59709077Y34339286D02*
X59709077Y34482143D01*
X59709077Y34482143D02*
X59751934Y34553572D01*
X59751934Y34553572D02*
X59837648Y34625000D01*
X59837648Y34625000D02*
X60009077Y34660715D01*
X60009077Y34660715D02*
X60309077Y34660715D01*
X60309077Y34660715D02*
X60480505Y34625000D01*
X60480505Y34625000D02*
X60566220Y34553572D01*
X60566220Y34553572D02*
X60609077Y34482143D01*
X60609077Y34482143D02*
X60609077Y34339286D01*
X60609077Y34339286D02*
X60566220Y34267857D01*
X60566220Y34267857D02*
X60480505Y34196429D01*
X60480505Y34196429D02*
X60309077Y34160715D01*
X60309077Y34160715D02*
X60009077Y34160715D01*
X60009077Y34160715D02*
X59837648Y34196429D01*
X59837648Y34196429D02*
X59751934Y34267857D01*
X59751934Y34267857D02*
X59709077Y34339286D01*
X60523362Y35982143D02*
X60566220Y35946429D01*
X60566220Y35946429D02*
X60609077Y35839286D01*
X60609077Y35839286D02*
X60609077Y35767858D01*
X60609077Y35767858D02*
X60566220Y35660715D01*
X60566220Y35660715D02*
X60480505Y35589286D01*
X60480505Y35589286D02*
X60394791Y35553572D01*
X60394791Y35553572D02*
X60223362Y35517858D01*
X60223362Y35517858D02*
X60094791Y35517858D01*
X60094791Y35517858D02*
X59923362Y35553572D01*
X59923362Y35553572D02*
X59837648Y35589286D01*
X59837648Y35589286D02*
X59751934Y35660715D01*
X59751934Y35660715D02*
X59709077Y35767858D01*
X59709077Y35767858D02*
X59709077Y35839286D01*
X59709077Y35839286D02*
X59751934Y35946429D01*
X59751934Y35946429D02*
X59794791Y35982143D01*
X59709077Y36446429D02*
X59709077Y36589286D01*
X59709077Y36589286D02*
X59751934Y36660715D01*
X59751934Y36660715D02*
X59837648Y36732143D01*
X59837648Y36732143D02*
X60009077Y36767858D01*
X60009077Y36767858D02*
X60309077Y36767858D01*
X60309077Y36767858D02*
X60480505Y36732143D01*
X60480505Y36732143D02*
X60566220Y36660715D01*
X60566220Y36660715D02*
X60609077Y36589286D01*
X60609077Y36589286D02*
X60609077Y36446429D01*
X60609077Y36446429D02*
X60566220Y36375000D01*
X60566220Y36375000D02*
X60480505Y36303572D01*
X60480505Y36303572D02*
X60309077Y36267858D01*
X60309077Y36267858D02*
X60009077Y36267858D01*
X60009077Y36267858D02*
X59837648Y36303572D01*
X59837648Y36303572D02*
X59751934Y36375000D01*
X59751934Y36375000D02*
X59709077Y36446429D01*
X60609077Y37089286D02*
X59709077Y37089286D01*
X59709077Y37089286D02*
X59709077Y37375000D01*
X59709077Y37375000D02*
X59751934Y37446429D01*
X59751934Y37446429D02*
X59794791Y37482143D01*
X59794791Y37482143D02*
X59880505Y37517857D01*
X59880505Y37517857D02*
X60009077Y37517857D01*
X60009077Y37517857D02*
X60094791Y37482143D01*
X60094791Y37482143D02*
X60137648Y37446429D01*
X60137648Y37446429D02*
X60180505Y37375000D01*
X60180505Y37375000D02*
X60180505Y37089286D01*
X60609077Y37839286D02*
X59709077Y37839286D01*
X59709077Y37839286D02*
X59709077Y38125000D01*
X59709077Y38125000D02*
X59751934Y38196429D01*
X59751934Y38196429D02*
X59794791Y38232143D01*
X59794791Y38232143D02*
X59880505Y38267857D01*
X59880505Y38267857D02*
X60009077Y38267857D01*
X60009077Y38267857D02*
X60094791Y38232143D01*
X60094791Y38232143D02*
X60137648Y38196429D01*
X60137648Y38196429D02*
X60180505Y38125000D01*
X60180505Y38125000D02*
X60180505Y37839286D01*
X60137648Y38589286D02*
X60137648Y38839286D01*
X60609077Y38946429D02*
X60609077Y38589286D01*
X60609077Y38589286D02*
X59709077Y38589286D01*
X59709077Y38589286D02*
X59709077Y38946429D01*
X60609077Y39696428D02*
X60180505Y39446428D01*
X60609077Y39267857D02*
X59709077Y39267857D01*
X59709077Y39267857D02*
X59709077Y39553571D01*
X59709077Y39553571D02*
X59751934Y39625000D01*
X59751934Y39625000D02*
X59794791Y39660714D01*
X59794791Y39660714D02*
X59880505Y39696428D01*
X59880505Y39696428D02*
X60009077Y39696428D01*
X60009077Y39696428D02*
X60094791Y39660714D01*
X60094791Y39660714D02*
X60137648Y39625000D01*
X60137648Y39625000D02*
X60180505Y39553571D01*
X60180505Y39553571D02*
X60180505Y39267857D01*
D15*
X39907143Y48363774D02*
X40535715Y48363774D01*
X40221429Y46963774D02*
X40221429Y48363774D01*
X41478572Y46963774D02*
X40850000Y46963774D01*
X41164286Y46963774D02*
X41164286Y48363774D01*
X41164286Y48363774D02*
X41059524Y48163774D01*
X41059524Y48163774D02*
X40954762Y48030440D01*
X40954762Y48030440D02*
X40850000Y47963774D01*
X41897619Y47030440D02*
X42054762Y46963774D01*
X42054762Y46963774D02*
X42316667Y46963774D01*
X42316667Y46963774D02*
X42421429Y47030440D01*
X42421429Y47030440D02*
X42473810Y47097107D01*
X42473810Y47097107D02*
X42526191Y47230440D01*
X42526191Y47230440D02*
X42526191Y47363774D01*
X42526191Y47363774D02*
X42473810Y47497107D01*
X42473810Y47497107D02*
X42421429Y47563774D01*
X42421429Y47563774D02*
X42316667Y47630440D01*
X42316667Y47630440D02*
X42107143Y47697107D01*
X42107143Y47697107D02*
X42002381Y47763774D01*
X42002381Y47763774D02*
X41950000Y47830440D01*
X41950000Y47830440D02*
X41897619Y47963774D01*
X41897619Y47963774D02*
X41897619Y48097107D01*
X41897619Y48097107D02*
X41950000Y48230440D01*
X41950000Y48230440D02*
X42002381Y48297107D01*
X42002381Y48297107D02*
X42107143Y48363774D01*
X42107143Y48363774D02*
X42369048Y48363774D01*
X42369048Y48363774D02*
X42526191Y48297107D01*
X43835714Y46963774D02*
X43835714Y48363774D01*
X43835714Y47697107D02*
X44464286Y47697107D01*
X44464286Y46963774D02*
X44464286Y48363774D01*
X44935714Y47363774D02*
X45459524Y47363774D01*
X44830952Y46963774D02*
X45197619Y48363774D01*
X45197619Y48363774D02*
X45564286Y46963774D01*
X45773809Y48363774D02*
X46402381Y48363774D01*
X46088095Y46963774D02*
X46088095Y48363774D01*
X49807142Y46963774D02*
X49283332Y46963774D01*
X49283332Y46963774D02*
X49283332Y48363774D01*
X50121427Y47363774D02*
X50645237Y47363774D01*
X50016665Y46963774D02*
X50383332Y48363774D01*
X50383332Y48363774D02*
X50749999Y46963774D01*
X51116665Y46963774D02*
X51116665Y48363774D01*
X51116665Y48363774D02*
X51745237Y46963774D01*
X51745237Y46963774D02*
X51745237Y48363774D01*
X52426189Y47763774D02*
X52321427Y47830440D01*
X52321427Y47830440D02*
X52269046Y47897107D01*
X52269046Y47897107D02*
X52216665Y48030440D01*
X52216665Y48030440D02*
X52216665Y48097107D01*
X52216665Y48097107D02*
X52269046Y48230440D01*
X52269046Y48230440D02*
X52321427Y48297107D01*
X52321427Y48297107D02*
X52426189Y48363774D01*
X52426189Y48363774D02*
X52635713Y48363774D01*
X52635713Y48363774D02*
X52740475Y48297107D01*
X52740475Y48297107D02*
X52792856Y48230440D01*
X52792856Y48230440D02*
X52845237Y48097107D01*
X52845237Y48097107D02*
X52845237Y48030440D01*
X52845237Y48030440D02*
X52792856Y47897107D01*
X52792856Y47897107D02*
X52740475Y47830440D01*
X52740475Y47830440D02*
X52635713Y47763774D01*
X52635713Y47763774D02*
X52426189Y47763774D01*
X52426189Y47763774D02*
X52321427Y47697107D01*
X52321427Y47697107D02*
X52269046Y47630440D01*
X52269046Y47630440D02*
X52216665Y47497107D01*
X52216665Y47497107D02*
X52216665Y47230440D01*
X52216665Y47230440D02*
X52269046Y47097107D01*
X52269046Y47097107D02*
X52321427Y47030440D01*
X52321427Y47030440D02*
X52426189Y46963774D01*
X52426189Y46963774D02*
X52635713Y46963774D01*
X52635713Y46963774D02*
X52740475Y47030440D01*
X52740475Y47030440D02*
X52792856Y47097107D01*
X52792856Y47097107D02*
X52845237Y47230440D01*
X52845237Y47230440D02*
X52845237Y47497107D01*
X52845237Y47497107D02*
X52792856Y47630440D01*
X52792856Y47630440D02*
X52740475Y47697107D01*
X52740475Y47697107D02*
X52635713Y47763774D01*
X53788094Y48363774D02*
X53578570Y48363774D01*
X53578570Y48363774D02*
X53473808Y48297107D01*
X53473808Y48297107D02*
X53421427Y48230440D01*
X53421427Y48230440D02*
X53316665Y48030440D01*
X53316665Y48030440D02*
X53264284Y47763774D01*
X53264284Y47763774D02*
X53264284Y47230440D01*
X53264284Y47230440D02*
X53316665Y47097107D01*
X53316665Y47097107D02*
X53369046Y47030440D01*
X53369046Y47030440D02*
X53473808Y46963774D01*
X53473808Y46963774D02*
X53683332Y46963774D01*
X53683332Y46963774D02*
X53788094Y47030440D01*
X53788094Y47030440D02*
X53840475Y47097107D01*
X53840475Y47097107D02*
X53892856Y47230440D01*
X53892856Y47230440D02*
X53892856Y47563774D01*
X53892856Y47563774D02*
X53840475Y47697107D01*
X53840475Y47697107D02*
X53788094Y47763774D01*
X53788094Y47763774D02*
X53683332Y47830440D01*
X53683332Y47830440D02*
X53473808Y47830440D01*
X53473808Y47830440D02*
X53369046Y47763774D01*
X53369046Y47763774D02*
X53316665Y47697107D01*
X53316665Y47697107D02*
X53264284Y47563774D01*
X54888094Y48363774D02*
X54364284Y48363774D01*
X54364284Y48363774D02*
X54311903Y47697107D01*
X54311903Y47697107D02*
X54364284Y47763774D01*
X54364284Y47763774D02*
X54469046Y47830440D01*
X54469046Y47830440D02*
X54730951Y47830440D01*
X54730951Y47830440D02*
X54835713Y47763774D01*
X54835713Y47763774D02*
X54888094Y47697107D01*
X54888094Y47697107D02*
X54940475Y47563774D01*
X54940475Y47563774D02*
X54940475Y47230440D01*
X54940475Y47230440D02*
X54888094Y47097107D01*
X54888094Y47097107D02*
X54835713Y47030440D01*
X54835713Y47030440D02*
X54730951Y46963774D01*
X54730951Y46963774D02*
X54469046Y46963774D01*
X54469046Y46963774D02*
X54364284Y47030440D01*
X54364284Y47030440D02*
X54311903Y47097107D01*
X55988094Y46963774D02*
X55359522Y46963774D01*
X55673808Y46963774D02*
X55673808Y48363774D01*
X55673808Y48363774D02*
X55569046Y48163774D01*
X55569046Y48163774D02*
X55464284Y48030440D01*
X55464284Y48030440D02*
X55359522Y47963774D01*
D13*
X39457143Y45536665D02*
X39085714Y45536665D01*
X39271428Y45536665D02*
X39271428Y46336665D01*
X39271428Y46336665D02*
X39209524Y46222380D01*
X39209524Y46222380D02*
X39147619Y46146189D01*
X39147619Y46146189D02*
X39085714Y46108094D01*
X39859524Y46336665D02*
X39921429Y46336665D01*
X39921429Y46336665D02*
X39983333Y46298570D01*
X39983333Y46298570D02*
X40014286Y46260475D01*
X40014286Y46260475D02*
X40045238Y46184284D01*
X40045238Y46184284D02*
X40076191Y46031903D01*
X40076191Y46031903D02*
X40076191Y45841427D01*
X40076191Y45841427D02*
X40045238Y45689046D01*
X40045238Y45689046D02*
X40014286Y45612856D01*
X40014286Y45612856D02*
X39983333Y45574760D01*
X39983333Y45574760D02*
X39921429Y45536665D01*
X39921429Y45536665D02*
X39859524Y45536665D01*
X39859524Y45536665D02*
X39797619Y45574760D01*
X39797619Y45574760D02*
X39766667Y45612856D01*
X39766667Y45612856D02*
X39735714Y45689046D01*
X39735714Y45689046D02*
X39704762Y45841427D01*
X39704762Y45841427D02*
X39704762Y46031903D01*
X39704762Y46031903D02*
X39735714Y46184284D01*
X39735714Y46184284D02*
X39766667Y46260475D01*
X39766667Y46260475D02*
X39797619Y46298570D01*
X39797619Y46298570D02*
X39859524Y46336665D01*
X40571429Y45955713D02*
X40664286Y45917618D01*
X40664286Y45917618D02*
X40695239Y45879522D01*
X40695239Y45879522D02*
X40726191Y45803332D01*
X40726191Y45803332D02*
X40726191Y45689046D01*
X40726191Y45689046D02*
X40695239Y45612856D01*
X40695239Y45612856D02*
X40664286Y45574760D01*
X40664286Y45574760D02*
X40602381Y45536665D01*
X40602381Y45536665D02*
X40354762Y45536665D01*
X40354762Y45536665D02*
X40354762Y46336665D01*
X40354762Y46336665D02*
X40571429Y46336665D01*
X40571429Y46336665D02*
X40633334Y46298570D01*
X40633334Y46298570D02*
X40664286Y46260475D01*
X40664286Y46260475D02*
X40695239Y46184284D01*
X40695239Y46184284D02*
X40695239Y46108094D01*
X40695239Y46108094D02*
X40664286Y46031903D01*
X40664286Y46031903D02*
X40633334Y45993808D01*
X40633334Y45993808D02*
X40571429Y45955713D01*
X40571429Y45955713D02*
X40354762Y45955713D01*
X40973810Y45765237D02*
X41283334Y45765237D01*
X40911905Y45536665D02*
X41128572Y46336665D01*
X41128572Y46336665D02*
X41345239Y45536665D01*
X41530953Y45574760D02*
X41623810Y45536665D01*
X41623810Y45536665D02*
X41778572Y45536665D01*
X41778572Y45536665D02*
X41840477Y45574760D01*
X41840477Y45574760D02*
X41871429Y45612856D01*
X41871429Y45612856D02*
X41902382Y45689046D01*
X41902382Y45689046D02*
X41902382Y45765237D01*
X41902382Y45765237D02*
X41871429Y45841427D01*
X41871429Y45841427D02*
X41840477Y45879522D01*
X41840477Y45879522D02*
X41778572Y45917618D01*
X41778572Y45917618D02*
X41654763Y45955713D01*
X41654763Y45955713D02*
X41592858Y45993808D01*
X41592858Y45993808D02*
X41561905Y46031903D01*
X41561905Y46031903D02*
X41530953Y46108094D01*
X41530953Y46108094D02*
X41530953Y46184284D01*
X41530953Y46184284D02*
X41561905Y46260475D01*
X41561905Y46260475D02*
X41592858Y46298570D01*
X41592858Y46298570D02*
X41654763Y46336665D01*
X41654763Y46336665D02*
X41809524Y46336665D01*
X41809524Y46336665D02*
X41902382Y46298570D01*
X42180953Y45955713D02*
X42397620Y45955713D01*
X42490477Y45536665D02*
X42180953Y45536665D01*
X42180953Y45536665D02*
X42180953Y46336665D01*
X42180953Y46336665D02*
X42490477Y46336665D01*
X42769048Y45841427D02*
X43264287Y45841427D01*
X43480953Y46336665D02*
X43852382Y46336665D01*
X43666668Y45536665D02*
X43666668Y46336665D01*
X44409525Y45536665D02*
X44038096Y45536665D01*
X44223810Y45536665D02*
X44223810Y46336665D01*
X44223810Y46336665D02*
X44161906Y46222380D01*
X44161906Y46222380D02*
X44100001Y46146189D01*
X44100001Y46146189D02*
X44038096Y46108094D01*
X44657144Y45574760D02*
X44750001Y45536665D01*
X44750001Y45536665D02*
X44904763Y45536665D01*
X44904763Y45536665D02*
X44966668Y45574760D01*
X44966668Y45574760D02*
X44997620Y45612856D01*
X44997620Y45612856D02*
X45028573Y45689046D01*
X45028573Y45689046D02*
X45028573Y45765237D01*
X45028573Y45765237D02*
X44997620Y45841427D01*
X44997620Y45841427D02*
X44966668Y45879522D01*
X44966668Y45879522D02*
X44904763Y45917618D01*
X44904763Y45917618D02*
X44780954Y45955713D01*
X44780954Y45955713D02*
X44719049Y45993808D01*
X44719049Y45993808D02*
X44688096Y46031903D01*
X44688096Y46031903D02*
X44657144Y46108094D01*
X44657144Y46108094D02*
X44657144Y46184284D01*
X44657144Y46184284D02*
X44688096Y46260475D01*
X44688096Y46260475D02*
X44719049Y46298570D01*
X44719049Y46298570D02*
X44780954Y46336665D01*
X44780954Y46336665D02*
X44935715Y46336665D01*
X44935715Y46336665D02*
X45028573Y46298570D01*
X45709525Y46069999D02*
X45957144Y46069999D01*
X45802382Y45536665D02*
X45802382Y46222380D01*
X45802382Y46222380D02*
X45833335Y46298570D01*
X45833335Y46298570D02*
X45895240Y46336665D01*
X45895240Y46336665D02*
X45957144Y46336665D01*
X46266669Y45536665D02*
X46204764Y45574760D01*
X46204764Y45574760D02*
X46173811Y45612856D01*
X46173811Y45612856D02*
X46142859Y45689046D01*
X46142859Y45689046D02*
X46142859Y45917618D01*
X46142859Y45917618D02*
X46173811Y45993808D01*
X46173811Y45993808D02*
X46204764Y46031903D01*
X46204764Y46031903D02*
X46266669Y46069999D01*
X46266669Y46069999D02*
X46359526Y46069999D01*
X46359526Y46069999D02*
X46421430Y46031903D01*
X46421430Y46031903D02*
X46452383Y45993808D01*
X46452383Y45993808D02*
X46483335Y45917618D01*
X46483335Y45917618D02*
X46483335Y45689046D01*
X46483335Y45689046D02*
X46452383Y45612856D01*
X46452383Y45612856D02*
X46421430Y45574760D01*
X46421430Y45574760D02*
X46359526Y45536665D01*
X46359526Y45536665D02*
X46266669Y45536665D01*
X46761906Y45536665D02*
X46761906Y46069999D01*
X46761906Y45917618D02*
X46792859Y45993808D01*
X46792859Y45993808D02*
X46823811Y46031903D01*
X46823811Y46031903D02*
X46885716Y46069999D01*
X46885716Y46069999D02*
X46947621Y46069999D01*
X47969049Y45536665D02*
X47659525Y45536665D01*
X47659525Y45536665D02*
X47659525Y46336665D01*
X48185715Y45536665D02*
X48185715Y46069999D01*
X48185715Y46336665D02*
X48154763Y46298570D01*
X48154763Y46298570D02*
X48185715Y46260475D01*
X48185715Y46260475D02*
X48216668Y46298570D01*
X48216668Y46298570D02*
X48185715Y46336665D01*
X48185715Y46336665D02*
X48185715Y46260475D01*
X48588097Y45536665D02*
X48526192Y45574760D01*
X48526192Y45574760D02*
X48495239Y45650951D01*
X48495239Y45650951D02*
X48495239Y46336665D01*
X48773811Y46069999D02*
X48928573Y45536665D01*
X49083334Y46069999D02*
X48928573Y45536665D01*
X48928573Y45536665D02*
X48866668Y45346189D01*
X48866668Y45346189D02*
X48835715Y45308094D01*
X48835715Y45308094D02*
X48773811Y45269999D01*
X49671430Y46298570D02*
X49609525Y46336665D01*
X49609525Y46336665D02*
X49516668Y46336665D01*
X49516668Y46336665D02*
X49423811Y46298570D01*
X49423811Y46298570D02*
X49361906Y46222380D01*
X49361906Y46222380D02*
X49330953Y46146189D01*
X49330953Y46146189D02*
X49300001Y45993808D01*
X49300001Y45993808D02*
X49300001Y45879522D01*
X49300001Y45879522D02*
X49330953Y45727141D01*
X49330953Y45727141D02*
X49361906Y45650951D01*
X49361906Y45650951D02*
X49423811Y45574760D01*
X49423811Y45574760D02*
X49516668Y45536665D01*
X49516668Y45536665D02*
X49578572Y45536665D01*
X49578572Y45536665D02*
X49671430Y45574760D01*
X49671430Y45574760D02*
X49702382Y45612856D01*
X49702382Y45612856D02*
X49702382Y45879522D01*
X49702382Y45879522D02*
X49578572Y45879522D01*
X50104763Y46336665D02*
X50228572Y46336665D01*
X50228572Y46336665D02*
X50290477Y46298570D01*
X50290477Y46298570D02*
X50352382Y46222380D01*
X50352382Y46222380D02*
X50383334Y46069999D01*
X50383334Y46069999D02*
X50383334Y45803332D01*
X50383334Y45803332D02*
X50352382Y45650951D01*
X50352382Y45650951D02*
X50290477Y45574760D01*
X50290477Y45574760D02*
X50228572Y45536665D01*
X50228572Y45536665D02*
X50104763Y45536665D01*
X50104763Y45536665D02*
X50042858Y45574760D01*
X50042858Y45574760D02*
X49980953Y45650951D01*
X49980953Y45650951D02*
X49950001Y45803332D01*
X49950001Y45803332D02*
X49950001Y46069999D01*
X49950001Y46069999D02*
X49980953Y46222380D01*
X49980953Y46222380D02*
X50042858Y46298570D01*
X50042858Y46298570D02*
X50104763Y46336665D01*
X51064286Y46336665D02*
X51435715Y46336665D01*
X51250001Y45536665D02*
X51250001Y46336665D01*
X51652381Y45841427D02*
X52147620Y45841427D01*
X52457143Y45955713D02*
X52673810Y45955713D01*
X52766667Y45536665D02*
X52457143Y45536665D01*
X52457143Y45536665D02*
X52457143Y46336665D01*
X52457143Y46336665D02*
X52766667Y46336665D01*
X52952381Y46336665D02*
X53323810Y46336665D01*
X53138096Y45536665D02*
X53138096Y46336665D01*
X53540476Y45536665D02*
X53540476Y46336665D01*
X53540476Y45955713D02*
X53911905Y45955713D01*
X53911905Y45536665D02*
X53911905Y46336665D01*
X54221428Y45841427D02*
X54716667Y45841427D01*
X55026190Y45955713D02*
X55242857Y45955713D01*
X55335714Y45536665D02*
X55026190Y45536665D01*
X55026190Y45536665D02*
X55026190Y46336665D01*
X55026190Y46336665D02*
X55335714Y46336665D01*
X55707143Y45536665D02*
X55645238Y45574760D01*
X55645238Y45574760D02*
X55614285Y45650951D01*
X55614285Y45650951D02*
X55614285Y46336665D01*
X55954761Y45536665D02*
X55954761Y46069999D01*
X55954761Y46336665D02*
X55923809Y46298570D01*
X55923809Y46298570D02*
X55954761Y46260475D01*
X55954761Y46260475D02*
X55985714Y46298570D01*
X55985714Y46298570D02*
X55954761Y46336665D01*
X55954761Y46336665D02*
X55954761Y46260475D01*
X56171428Y46069999D02*
X56419047Y46069999D01*
X56264285Y46336665D02*
X56264285Y45650951D01*
X56264285Y45650951D02*
X56295238Y45574760D01*
X56295238Y45574760D02*
X56357143Y45536665D01*
X56357143Y45536665D02*
X56419047Y45536665D01*
X56883333Y45574760D02*
X56821429Y45536665D01*
X56821429Y45536665D02*
X56697619Y45536665D01*
X56697619Y45536665D02*
X56635714Y45574760D01*
X56635714Y45574760D02*
X56604762Y45650951D01*
X56604762Y45650951D02*
X56604762Y45955713D01*
X56604762Y45955713D02*
X56635714Y46031903D01*
X56635714Y46031903D02*
X56697619Y46069999D01*
X56697619Y46069999D02*
X56821429Y46069999D01*
X56821429Y46069999D02*
X56883333Y46031903D01*
X56883333Y46031903D02*
X56914286Y45955713D01*
X56914286Y45955713D02*
X56914286Y45879522D01*
X56914286Y45879522D02*
X56604762Y45803332D01*
X30081715Y7636665D02*
X30081715Y8436665D01*
X30081715Y8436665D02*
X30288381Y7865237D01*
X30288381Y7865237D02*
X30495048Y8436665D01*
X30495048Y8436665D02*
X30495048Y7636665D01*
X30790286Y7636665D02*
X30790286Y8436665D01*
X31056000Y7674760D02*
X31144571Y7636665D01*
X31144571Y7636665D02*
X31292190Y7636665D01*
X31292190Y7636665D02*
X31351238Y7674760D01*
X31351238Y7674760D02*
X31380762Y7712856D01*
X31380762Y7712856D02*
X31410285Y7789046D01*
X31410285Y7789046D02*
X31410285Y7865237D01*
X31410285Y7865237D02*
X31380762Y7941427D01*
X31380762Y7941427D02*
X31351238Y7979522D01*
X31351238Y7979522D02*
X31292190Y8017618D01*
X31292190Y8017618D02*
X31174095Y8055713D01*
X31174095Y8055713D02*
X31115047Y8093808D01*
X31115047Y8093808D02*
X31085524Y8131903D01*
X31085524Y8131903D02*
X31056000Y8208094D01*
X31056000Y8208094D02*
X31056000Y8284284D01*
X31056000Y8284284D02*
X31085524Y8360475D01*
X31085524Y8360475D02*
X31115047Y8398570D01*
X31115047Y8398570D02*
X31174095Y8436665D01*
X31174095Y8436665D02*
X31321714Y8436665D01*
X31321714Y8436665D02*
X31410285Y8398570D01*
X31794095Y8436665D02*
X31912190Y8436665D01*
X31912190Y8436665D02*
X31971238Y8398570D01*
X31971238Y8398570D02*
X32030285Y8322380D01*
X32030285Y8322380D02*
X32059809Y8169999D01*
X32059809Y8169999D02*
X32059809Y7903332D01*
X32059809Y7903332D02*
X32030285Y7750951D01*
X32030285Y7750951D02*
X31971238Y7674760D01*
X31971238Y7674760D02*
X31912190Y7636665D01*
X31912190Y7636665D02*
X31794095Y7636665D01*
X31794095Y7636665D02*
X31735047Y7674760D01*
X31735047Y7674760D02*
X31676000Y7750951D01*
X31676000Y7750951D02*
X31646476Y7903332D01*
X31646476Y7903332D02*
X31646476Y8169999D01*
X31646476Y8169999D02*
X31676000Y8322380D01*
X31676000Y8322380D02*
X31735047Y8398570D01*
X31735047Y8398570D02*
X31794095Y8436665D01*
X28412665Y972856D02*
X28383141Y934760D01*
X28383141Y934760D02*
X28294570Y896665D01*
X28294570Y896665D02*
X28235522Y896665D01*
X28235522Y896665D02*
X28146951Y934760D01*
X28146951Y934760D02*
X28087903Y1010951D01*
X28087903Y1010951D02*
X28058380Y1087141D01*
X28058380Y1087141D02*
X28028856Y1239522D01*
X28028856Y1239522D02*
X28028856Y1353808D01*
X28028856Y1353808D02*
X28058380Y1506189D01*
X28058380Y1506189D02*
X28087903Y1582380D01*
X28087903Y1582380D02*
X28146951Y1658570D01*
X28146951Y1658570D02*
X28235522Y1696665D01*
X28235522Y1696665D02*
X28294570Y1696665D01*
X28294570Y1696665D02*
X28383141Y1658570D01*
X28383141Y1658570D02*
X28412665Y1620475D01*
X28648856Y934760D02*
X28737427Y896665D01*
X28737427Y896665D02*
X28885046Y896665D01*
X28885046Y896665D02*
X28944094Y934760D01*
X28944094Y934760D02*
X28973618Y972856D01*
X28973618Y972856D02*
X29003141Y1049046D01*
X29003141Y1049046D02*
X29003141Y1125237D01*
X29003141Y1125237D02*
X28973618Y1201427D01*
X28973618Y1201427D02*
X28944094Y1239522D01*
X28944094Y1239522D02*
X28885046Y1277618D01*
X28885046Y1277618D02*
X28766951Y1315713D01*
X28766951Y1315713D02*
X28707903Y1353808D01*
X28707903Y1353808D02*
X28678380Y1391903D01*
X28678380Y1391903D02*
X28648856Y1468094D01*
X28648856Y1468094D02*
X28648856Y1544284D01*
X28648856Y1544284D02*
X28678380Y1620475D01*
X28678380Y1620475D02*
X28707903Y1658570D01*
X28707903Y1658570D02*
X28766951Y1696665D01*
X28766951Y1696665D02*
X28914570Y1696665D01*
X28914570Y1696665D02*
X29003141Y1658570D01*
D12*
X3140676Y41290923D02*
X2729247Y41290923D01*
X2934962Y41290923D02*
X2934962Y42190923D01*
X2934962Y42190923D02*
X2866390Y42062352D01*
X2866390Y42062352D02*
X2797819Y41976638D01*
X2797819Y41976638D02*
X2729247Y41933780D01*
X3449247Y41633780D02*
X3997819Y41633780D01*
X4306390Y42105209D02*
X4340676Y42148066D01*
X4340676Y42148066D02*
X4409248Y42190923D01*
X4409248Y42190923D02*
X4580676Y42190923D01*
X4580676Y42190923D02*
X4649248Y42148066D01*
X4649248Y42148066D02*
X4683533Y42105209D01*
X4683533Y42105209D02*
X4717819Y42019495D01*
X4717819Y42019495D02*
X4717819Y41933780D01*
X4717819Y41933780D02*
X4683533Y41805209D01*
X4683533Y41805209D02*
X4272105Y41290923D01*
X4272105Y41290923D02*
X4717819Y41290923D01*
X5574961Y41762352D02*
X6123533Y41762352D01*
X6123533Y41505209D02*
X5574961Y41505209D01*
X6946390Y42190923D02*
X7392104Y42190923D01*
X7392104Y42190923D02*
X7152104Y41848066D01*
X7152104Y41848066D02*
X7254961Y41848066D01*
X7254961Y41848066D02*
X7323533Y41805209D01*
X7323533Y41805209D02*
X7357818Y41762352D01*
X7357818Y41762352D02*
X7392104Y41676638D01*
X7392104Y41676638D02*
X7392104Y41462352D01*
X7392104Y41462352D02*
X7357818Y41376638D01*
X7357818Y41376638D02*
X7323533Y41333780D01*
X7323533Y41333780D02*
X7254961Y41290923D01*
X7254961Y41290923D02*
X7049247Y41290923D01*
X7049247Y41290923D02*
X6980675Y41333780D01*
X6980675Y41333780D02*
X6946390Y41376638D01*
X7700675Y41633780D02*
X8249247Y41633780D01*
X8900676Y41890923D02*
X8900676Y41290923D01*
X8729247Y42233780D02*
X8557818Y41590923D01*
X8557818Y41590923D02*
X9003533Y41590923D01*
D13*
X27718856Y7674760D02*
X27807427Y7636665D01*
X27807427Y7636665D02*
X27955046Y7636665D01*
X27955046Y7636665D02*
X28014094Y7674760D01*
X28014094Y7674760D02*
X28043618Y7712856D01*
X28043618Y7712856D02*
X28073141Y7789046D01*
X28073141Y7789046D02*
X28073141Y7865237D01*
X28073141Y7865237D02*
X28043618Y7941427D01*
X28043618Y7941427D02*
X28014094Y7979522D01*
X28014094Y7979522D02*
X27955046Y8017618D01*
X27955046Y8017618D02*
X27836951Y8055713D01*
X27836951Y8055713D02*
X27777903Y8093808D01*
X27777903Y8093808D02*
X27748380Y8131903D01*
X27748380Y8131903D02*
X27718856Y8208094D01*
X27718856Y8208094D02*
X27718856Y8284284D01*
X27718856Y8284284D02*
X27748380Y8360475D01*
X27748380Y8360475D02*
X27777903Y8398570D01*
X27777903Y8398570D02*
X27836951Y8436665D01*
X27836951Y8436665D02*
X27984570Y8436665D01*
X27984570Y8436665D02*
X28073141Y8398570D01*
X28693141Y7712856D02*
X28663617Y7674760D01*
X28663617Y7674760D02*
X28575046Y7636665D01*
X28575046Y7636665D02*
X28515998Y7636665D01*
X28515998Y7636665D02*
X28427427Y7674760D01*
X28427427Y7674760D02*
X28368379Y7750951D01*
X28368379Y7750951D02*
X28338856Y7827141D01*
X28338856Y7827141D02*
X28309332Y7979522D01*
X28309332Y7979522D02*
X28309332Y8093808D01*
X28309332Y8093808D02*
X28338856Y8246189D01*
X28338856Y8246189D02*
X28368379Y8322380D01*
X28368379Y8322380D02*
X28427427Y8398570D01*
X28427427Y8398570D02*
X28515998Y8436665D01*
X28515998Y8436665D02*
X28575046Y8436665D01*
X28575046Y8436665D02*
X28663617Y8398570D01*
X28663617Y8398570D02*
X28693141Y8360475D01*
X28958856Y7636665D02*
X28958856Y8436665D01*
X29313141Y7636665D02*
X29047427Y8093808D01*
X29313141Y8436665D02*
X28958856Y7979522D01*
D12*
X2758771Y29912352D02*
X2992105Y29912352D01*
X3092105Y29440923D02*
X2758771Y29440923D01*
X2758771Y29440923D02*
X2758771Y30340923D01*
X2758771Y30340923D02*
X3092105Y30340923D01*
X3392104Y29440923D02*
X3392104Y30340923D01*
X3392104Y30340923D02*
X3792104Y29440923D01*
X3792104Y29440923D02*
X3792104Y30340923D01*
X4125437Y29440923D02*
X4125437Y30340923D01*
X4125437Y30340923D02*
X4292104Y30340923D01*
X4292104Y30340923D02*
X4392104Y30298066D01*
X4392104Y30298066D02*
X4458771Y30212352D01*
X4458771Y30212352D02*
X4492104Y30126638D01*
X4492104Y30126638D02*
X4525437Y29955209D01*
X4525437Y29955209D02*
X4525437Y29826638D01*
X4525437Y29826638D02*
X4492104Y29655209D01*
X4492104Y29655209D02*
X4458771Y29569495D01*
X4458771Y29569495D02*
X4392104Y29483780D01*
X4392104Y29483780D02*
X4292104Y29440923D01*
X4292104Y29440923D02*
X4125437Y29440923D01*
X5492104Y30340923D02*
X5625437Y30340923D01*
X5625437Y30340923D02*
X5692104Y30298066D01*
X5692104Y30298066D02*
X5758770Y30212352D01*
X5758770Y30212352D02*
X5792104Y30040923D01*
X5792104Y30040923D02*
X5792104Y29740923D01*
X5792104Y29740923D02*
X5758770Y29569495D01*
X5758770Y29569495D02*
X5692104Y29483780D01*
X5692104Y29483780D02*
X5625437Y29440923D01*
X5625437Y29440923D02*
X5492104Y29440923D01*
X5492104Y29440923D02*
X5425437Y29483780D01*
X5425437Y29483780D02*
X5358770Y29569495D01*
X5358770Y29569495D02*
X5325437Y29740923D01*
X5325437Y29740923D02*
X5325437Y30040923D01*
X5325437Y30040923D02*
X5358770Y30212352D01*
X5358770Y30212352D02*
X5425437Y30298066D01*
X5425437Y30298066D02*
X5492104Y30340923D01*
X6325437Y29912352D02*
X6092103Y29912352D01*
X6092103Y29440923D02*
X6092103Y30340923D01*
X6092103Y30340923D02*
X6425437Y30340923D01*
X7458770Y29912352D02*
X7558770Y29869495D01*
X7558770Y29869495D02*
X7592103Y29826638D01*
X7592103Y29826638D02*
X7625436Y29740923D01*
X7625436Y29740923D02*
X7625436Y29612352D01*
X7625436Y29612352D02*
X7592103Y29526638D01*
X7592103Y29526638D02*
X7558770Y29483780D01*
X7558770Y29483780D02*
X7492103Y29440923D01*
X7492103Y29440923D02*
X7225436Y29440923D01*
X7225436Y29440923D02*
X7225436Y30340923D01*
X7225436Y30340923D02*
X7458770Y30340923D01*
X7458770Y30340923D02*
X7525436Y30298066D01*
X7525436Y30298066D02*
X7558770Y30255209D01*
X7558770Y30255209D02*
X7592103Y30169495D01*
X7592103Y30169495D02*
X7592103Y30083780D01*
X7592103Y30083780D02*
X7558770Y29998066D01*
X7558770Y29998066D02*
X7525436Y29955209D01*
X7525436Y29955209D02*
X7458770Y29912352D01*
X7458770Y29912352D02*
X7225436Y29912352D01*
X7925436Y30340923D02*
X7925436Y29612352D01*
X7925436Y29612352D02*
X7958770Y29526638D01*
X7958770Y29526638D02*
X7992103Y29483780D01*
X7992103Y29483780D02*
X8058770Y29440923D01*
X8058770Y29440923D02*
X8192103Y29440923D01*
X8192103Y29440923D02*
X8258770Y29483780D01*
X8258770Y29483780D02*
X8292103Y29526638D01*
X8292103Y29526638D02*
X8325436Y29612352D01*
X8325436Y29612352D02*
X8325436Y30340923D01*
X8625436Y29483780D02*
X8725436Y29440923D01*
X8725436Y29440923D02*
X8892103Y29440923D01*
X8892103Y29440923D02*
X8958769Y29483780D01*
X8958769Y29483780D02*
X8992103Y29526638D01*
X8992103Y29526638D02*
X9025436Y29612352D01*
X9025436Y29612352D02*
X9025436Y29698066D01*
X9025436Y29698066D02*
X8992103Y29783780D01*
X8992103Y29783780D02*
X8958769Y29826638D01*
X8958769Y29826638D02*
X8892103Y29869495D01*
X8892103Y29869495D02*
X8758769Y29912352D01*
X8758769Y29912352D02*
X8692103Y29955209D01*
X8692103Y29955209D02*
X8658769Y29998066D01*
X8658769Y29998066D02*
X8625436Y30083780D01*
X8625436Y30083780D02*
X8625436Y30169495D01*
X8625436Y30169495D02*
X8658769Y30255209D01*
X8658769Y30255209D02*
X8692103Y30298066D01*
X8692103Y30298066D02*
X8758769Y30340923D01*
X8758769Y30340923D02*
X8925436Y30340923D01*
X8925436Y30340923D02*
X9025436Y30298066D01*
X9858769Y29526638D02*
X9892103Y29483780D01*
X9892103Y29483780D02*
X9858769Y29440923D01*
X9858769Y29440923D02*
X9825436Y29483780D01*
X9825436Y29483780D02*
X9858769Y29526638D01*
X9858769Y29526638D02*
X9858769Y29440923D01*
X10192102Y29526638D02*
X10225436Y29483780D01*
X10225436Y29483780D02*
X10192102Y29440923D01*
X10192102Y29440923D02*
X10158769Y29483780D01*
X10158769Y29483780D02*
X10192102Y29526638D01*
X10192102Y29526638D02*
X10192102Y29440923D01*
X10525435Y29526638D02*
X10558769Y29483780D01*
X10558769Y29483780D02*
X10525435Y29440923D01*
X10525435Y29440923D02*
X10492102Y29483780D01*
X10492102Y29483780D02*
X10525435Y29526638D01*
X10525435Y29526638D02*
X10525435Y29440923D01*
X11692101Y30040923D02*
X11692101Y29440923D01*
X11525435Y30383780D02*
X11358768Y29740923D01*
X11358768Y29740923D02*
X11792101Y29740923D01*
X12092102Y29440923D02*
X12225435Y29440923D01*
X12225435Y29440923D02*
X12292102Y29483780D01*
X12292102Y29483780D02*
X12325435Y29526638D01*
X12325435Y29526638D02*
X12392102Y29655209D01*
X12392102Y29655209D02*
X12425435Y29826638D01*
X12425435Y29826638D02*
X12425435Y30169495D01*
X12425435Y30169495D02*
X12392102Y30255209D01*
X12392102Y30255209D02*
X12358768Y30298066D01*
X12358768Y30298066D02*
X12292102Y30340923D01*
X12292102Y30340923D02*
X12158768Y30340923D01*
X12158768Y30340923D02*
X12092102Y30298066D01*
X12092102Y30298066D02*
X12058768Y30255209D01*
X12058768Y30255209D02*
X12025435Y30169495D01*
X12025435Y30169495D02*
X12025435Y29955209D01*
X12025435Y29955209D02*
X12058768Y29869495D01*
X12058768Y29869495D02*
X12092102Y29826638D01*
X12092102Y29826638D02*
X12158768Y29783780D01*
X12158768Y29783780D02*
X12292102Y29783780D01*
X12292102Y29783780D02*
X12358768Y29826638D01*
X12358768Y29826638D02*
X12392102Y29869495D01*
X12392102Y29869495D02*
X12425435Y29955209D01*
X13125435Y29440923D02*
X12892102Y29869495D01*
X12725435Y29440923D02*
X12725435Y30340923D01*
X12725435Y30340923D02*
X12992102Y30340923D01*
X12992102Y30340923D02*
X13058769Y30298066D01*
X13058769Y30298066D02*
X13092102Y30255209D01*
X13092102Y30255209D02*
X13125435Y30169495D01*
X13125435Y30169495D02*
X13125435Y30040923D01*
X13125435Y30040923D02*
X13092102Y29955209D01*
X13092102Y29955209D02*
X13058769Y29912352D01*
X13058769Y29912352D02*
X12992102Y29869495D01*
X12992102Y29869495D02*
X12725435Y29869495D01*
X13458769Y29440923D02*
X13592102Y29440923D01*
X13592102Y29440923D02*
X13658769Y29483780D01*
X13658769Y29483780D02*
X13692102Y29526638D01*
X13692102Y29526638D02*
X13758769Y29655209D01*
X13758769Y29655209D02*
X13792102Y29826638D01*
X13792102Y29826638D02*
X13792102Y30169495D01*
X13792102Y30169495D02*
X13758769Y30255209D01*
X13758769Y30255209D02*
X13725435Y30298066D01*
X13725435Y30298066D02*
X13658769Y30340923D01*
X13658769Y30340923D02*
X13525435Y30340923D01*
X13525435Y30340923D02*
X13458769Y30298066D01*
X13458769Y30298066D02*
X13425435Y30255209D01*
X13425435Y30255209D02*
X13392102Y30169495D01*
X13392102Y30169495D02*
X13392102Y29955209D01*
X13392102Y29955209D02*
X13425435Y29869495D01*
X13425435Y29869495D02*
X13458769Y29826638D01*
X13458769Y29826638D02*
X13525435Y29783780D01*
X13525435Y29783780D02*
X13658769Y29783780D01*
X13658769Y29783780D02*
X13725435Y29826638D01*
X13725435Y29826638D02*
X13758769Y29869495D01*
X13758769Y29869495D02*
X13792102Y29955209D01*
X14992102Y29440923D02*
X14592102Y29440923D01*
X14792102Y29440923D02*
X14792102Y30340923D01*
X14792102Y30340923D02*
X14725435Y30212352D01*
X14725435Y30212352D02*
X14658769Y30126638D01*
X14658769Y30126638D02*
X14592102Y30083780D01*
X15258769Y29440923D02*
X15792102Y30340923D01*
X15358769Y30340923D02*
X15425436Y30298066D01*
X15425436Y30298066D02*
X15458769Y30212352D01*
X15458769Y30212352D02*
X15425436Y30126638D01*
X15425436Y30126638D02*
X15358769Y30083780D01*
X15358769Y30083780D02*
X15292102Y30126638D01*
X15292102Y30126638D02*
X15258769Y30212352D01*
X15258769Y30212352D02*
X15292102Y30298066D01*
X15292102Y30298066D02*
X15358769Y30340923D01*
X15758769Y29483780D02*
X15792102Y29569495D01*
X15792102Y29569495D02*
X15758769Y29655209D01*
X15758769Y29655209D02*
X15692102Y29698066D01*
X15692102Y29698066D02*
X15625436Y29655209D01*
X15625436Y29655209D02*
X15592102Y29569495D01*
X15592102Y29569495D02*
X15625436Y29483780D01*
X15625436Y29483780D02*
X15692102Y29440923D01*
X15692102Y29440923D02*
X15758769Y29483780D01*
D13*
X32621715Y7636665D02*
X32621715Y8436665D01*
X32621715Y8436665D02*
X32828381Y7865237D01*
X32828381Y7865237D02*
X33035048Y8436665D01*
X33035048Y8436665D02*
X33035048Y7636665D01*
X33448381Y8436665D02*
X33566476Y8436665D01*
X33566476Y8436665D02*
X33625524Y8398570D01*
X33625524Y8398570D02*
X33684571Y8322380D01*
X33684571Y8322380D02*
X33714095Y8169999D01*
X33714095Y8169999D02*
X33714095Y7903332D01*
X33714095Y7903332D02*
X33684571Y7750951D01*
X33684571Y7750951D02*
X33625524Y7674760D01*
X33625524Y7674760D02*
X33566476Y7636665D01*
X33566476Y7636665D02*
X33448381Y7636665D01*
X33448381Y7636665D02*
X33389333Y7674760D01*
X33389333Y7674760D02*
X33330286Y7750951D01*
X33330286Y7750951D02*
X33300762Y7903332D01*
X33300762Y7903332D02*
X33300762Y8169999D01*
X33300762Y8169999D02*
X33330286Y8322380D01*
X33330286Y8322380D02*
X33389333Y8398570D01*
X33389333Y8398570D02*
X33448381Y8436665D01*
X33950286Y7674760D02*
X34038857Y7636665D01*
X34038857Y7636665D02*
X34186476Y7636665D01*
X34186476Y7636665D02*
X34245524Y7674760D01*
X34245524Y7674760D02*
X34275048Y7712856D01*
X34275048Y7712856D02*
X34304571Y7789046D01*
X34304571Y7789046D02*
X34304571Y7865237D01*
X34304571Y7865237D02*
X34275048Y7941427D01*
X34275048Y7941427D02*
X34245524Y7979522D01*
X34245524Y7979522D02*
X34186476Y8017618D01*
X34186476Y8017618D02*
X34068381Y8055713D01*
X34068381Y8055713D02*
X34009333Y8093808D01*
X34009333Y8093808D02*
X33979810Y8131903D01*
X33979810Y8131903D02*
X33950286Y8208094D01*
X33950286Y8208094D02*
X33950286Y8284284D01*
X33950286Y8284284D02*
X33979810Y8360475D01*
X33979810Y8360475D02*
X34009333Y8398570D01*
X34009333Y8398570D02*
X34068381Y8436665D01*
X34068381Y8436665D02*
X34216000Y8436665D01*
X34216000Y8436665D02*
X34304571Y8398570D01*
X34570286Y7636665D02*
X34570286Y8436665D01*
D12*
X2729247Y40133780D02*
X2797819Y40090923D01*
X2797819Y40090923D02*
X2934962Y40090923D01*
X2934962Y40090923D02*
X3003533Y40133780D01*
X3003533Y40133780D02*
X3037819Y40219495D01*
X3037819Y40219495D02*
X3037819Y40262352D01*
X3037819Y40262352D02*
X3003533Y40348066D01*
X3003533Y40348066D02*
X2934962Y40390923D01*
X2934962Y40390923D02*
X2832105Y40390923D01*
X2832105Y40390923D02*
X2763533Y40433780D01*
X2763533Y40433780D02*
X2729247Y40519495D01*
X2729247Y40519495D02*
X2729247Y40562352D01*
X2729247Y40562352D02*
X2763533Y40648066D01*
X2763533Y40648066D02*
X2832105Y40690923D01*
X2832105Y40690923D02*
X2934962Y40690923D01*
X2934962Y40690923D02*
X3003533Y40648066D01*
X3654962Y40090923D02*
X3654962Y40562352D01*
X3654962Y40562352D02*
X3620676Y40648066D01*
X3620676Y40648066D02*
X3552104Y40690923D01*
X3552104Y40690923D02*
X3414962Y40690923D01*
X3414962Y40690923D02*
X3346390Y40648066D01*
X3654962Y40133780D02*
X3586390Y40090923D01*
X3586390Y40090923D02*
X3414962Y40090923D01*
X3414962Y40090923D02*
X3346390Y40133780D01*
X3346390Y40133780D02*
X3312104Y40219495D01*
X3312104Y40219495D02*
X3312104Y40305209D01*
X3312104Y40305209D02*
X3346390Y40390923D01*
X3346390Y40390923D02*
X3414962Y40433780D01*
X3414962Y40433780D02*
X3586390Y40433780D01*
X3586390Y40433780D02*
X3654962Y40476638D01*
X3997819Y40090923D02*
X3997819Y40690923D01*
X3997819Y40605209D02*
X4032105Y40648066D01*
X4032105Y40648066D02*
X4100676Y40690923D01*
X4100676Y40690923D02*
X4203533Y40690923D01*
X4203533Y40690923D02*
X4272105Y40648066D01*
X4272105Y40648066D02*
X4306391Y40562352D01*
X4306391Y40562352D02*
X4306391Y40090923D01*
X4306391Y40562352D02*
X4340676Y40648066D01*
X4340676Y40648066D02*
X4409248Y40690923D01*
X4409248Y40690923D02*
X4512105Y40690923D01*
X4512105Y40690923D02*
X4580676Y40648066D01*
X4580676Y40648066D02*
X4614962Y40562352D01*
X4614962Y40562352D02*
X4614962Y40090923D01*
X5232105Y40133780D02*
X5163533Y40090923D01*
X5163533Y40090923D02*
X5026391Y40090923D01*
X5026391Y40090923D02*
X4957819Y40133780D01*
X4957819Y40133780D02*
X4923533Y40219495D01*
X4923533Y40219495D02*
X4923533Y40562352D01*
X4923533Y40562352D02*
X4957819Y40648066D01*
X4957819Y40648066D02*
X5026391Y40690923D01*
X5026391Y40690923D02*
X5163533Y40690923D01*
X5163533Y40690923D02*
X5232105Y40648066D01*
X5232105Y40648066D02*
X5266391Y40562352D01*
X5266391Y40562352D02*
X5266391Y40476638D01*
X5266391Y40476638D02*
X4923533Y40390923D01*
X6123533Y40690923D02*
X6123533Y39790923D01*
X6123533Y40648066D02*
X6192105Y40690923D01*
X6192105Y40690923D02*
X6329247Y40690923D01*
X6329247Y40690923D02*
X6397819Y40648066D01*
X6397819Y40648066D02*
X6432105Y40605209D01*
X6432105Y40605209D02*
X6466390Y40519495D01*
X6466390Y40519495D02*
X6466390Y40262352D01*
X6466390Y40262352D02*
X6432105Y40176638D01*
X6432105Y40176638D02*
X6397819Y40133780D01*
X6397819Y40133780D02*
X6329247Y40090923D01*
X6329247Y40090923D02*
X6192105Y40090923D01*
X6192105Y40090923D02*
X6123533Y40133780D01*
X7083534Y40090923D02*
X7083534Y40562352D01*
X7083534Y40562352D02*
X7049248Y40648066D01*
X7049248Y40648066D02*
X6980676Y40690923D01*
X6980676Y40690923D02*
X6843534Y40690923D01*
X6843534Y40690923D02*
X6774962Y40648066D01*
X7083534Y40133780D02*
X7014962Y40090923D01*
X7014962Y40090923D02*
X6843534Y40090923D01*
X6843534Y40090923D02*
X6774962Y40133780D01*
X6774962Y40133780D02*
X6740676Y40219495D01*
X6740676Y40219495D02*
X6740676Y40305209D01*
X6740676Y40305209D02*
X6774962Y40390923D01*
X6774962Y40390923D02*
X6843534Y40433780D01*
X6843534Y40433780D02*
X7014962Y40433780D01*
X7014962Y40433780D02*
X7083534Y40476638D01*
X7426391Y40090923D02*
X7426391Y40690923D01*
X7426391Y40990923D02*
X7392105Y40948066D01*
X7392105Y40948066D02*
X7426391Y40905209D01*
X7426391Y40905209D02*
X7460677Y40948066D01*
X7460677Y40948066D02*
X7426391Y40990923D01*
X7426391Y40990923D02*
X7426391Y40905209D01*
X7769248Y40090923D02*
X7769248Y40690923D01*
X7769248Y40519495D02*
X7803534Y40605209D01*
X7803534Y40605209D02*
X7837820Y40648066D01*
X7837820Y40648066D02*
X7906391Y40690923D01*
X7906391Y40690923D02*
X7974962Y40690923D01*
D13*
X35368381Y8436665D02*
X35752190Y8436665D01*
X35752190Y8436665D02*
X35545524Y8131903D01*
X35545524Y8131903D02*
X35634095Y8131903D01*
X35634095Y8131903D02*
X35693143Y8093808D01*
X35693143Y8093808D02*
X35722667Y8055713D01*
X35722667Y8055713D02*
X35752190Y7979522D01*
X35752190Y7979522D02*
X35752190Y7789046D01*
X35752190Y7789046D02*
X35722667Y7712856D01*
X35722667Y7712856D02*
X35693143Y7674760D01*
X35693143Y7674760D02*
X35634095Y7636665D01*
X35634095Y7636665D02*
X35456952Y7636665D01*
X35456952Y7636665D02*
X35397905Y7674760D01*
X35397905Y7674760D02*
X35368381Y7712856D01*
X35929333Y8436665D02*
X36136000Y7636665D01*
X36136000Y7636665D02*
X36342666Y8436665D01*
X36490286Y8436665D02*
X36874095Y8436665D01*
X36874095Y8436665D02*
X36667429Y8131903D01*
X36667429Y8131903D02*
X36756000Y8131903D01*
X36756000Y8131903D02*
X36815048Y8093808D01*
X36815048Y8093808D02*
X36844572Y8055713D01*
X36844572Y8055713D02*
X36874095Y7979522D01*
X36874095Y7979522D02*
X36874095Y7789046D01*
X36874095Y7789046D02*
X36844572Y7712856D01*
X36844572Y7712856D02*
X36815048Y7674760D01*
X36815048Y7674760D02*
X36756000Y7636665D01*
X36756000Y7636665D02*
X36578857Y7636665D01*
X36578857Y7636665D02*
X36519810Y7674760D01*
X36519810Y7674760D02*
X36490286Y7712856D01*
D15*
X2744736Y44310036D02*
X3344736Y44310036D01*
X3044736Y43010036D02*
X3044736Y44310036D01*
X4244736Y43010036D02*
X3644736Y43010036D01*
X3944736Y43010036D02*
X3944736Y44310036D01*
X3944736Y44310036D02*
X3844736Y44124321D01*
X3844736Y44124321D02*
X3744736Y44000512D01*
X3744736Y44000512D02*
X3644736Y43938607D01*
X4644736Y43071940D02*
X4794736Y43010036D01*
X4794736Y43010036D02*
X5044736Y43010036D01*
X5044736Y43010036D02*
X5144736Y43071940D01*
X5144736Y43071940D02*
X5194736Y43133845D01*
X5194736Y43133845D02*
X5244736Y43257655D01*
X5244736Y43257655D02*
X5244736Y43381464D01*
X5244736Y43381464D02*
X5194736Y43505274D01*
X5194736Y43505274D02*
X5144736Y43567179D01*
X5144736Y43567179D02*
X5044736Y43629083D01*
X5044736Y43629083D02*
X4844736Y43690988D01*
X4844736Y43690988D02*
X4744736Y43752893D01*
X4744736Y43752893D02*
X4694736Y43814798D01*
X4694736Y43814798D02*
X4644736Y43938607D01*
X4644736Y43938607D02*
X4644736Y44062417D01*
X4644736Y44062417D02*
X4694736Y44186226D01*
X4694736Y44186226D02*
X4744736Y44248131D01*
X4744736Y44248131D02*
X4844736Y44310036D01*
X4844736Y44310036D02*
X5094736Y44310036D01*
X5094736Y44310036D02*
X5244736Y44248131D01*
X6844736Y43690988D02*
X6994736Y43629083D01*
X6994736Y43629083D02*
X7044736Y43567179D01*
X7044736Y43567179D02*
X7094736Y43443369D01*
X7094736Y43443369D02*
X7094736Y43257655D01*
X7094736Y43257655D02*
X7044736Y43133845D01*
X7044736Y43133845D02*
X6994736Y43071940D01*
X6994736Y43071940D02*
X6894736Y43010036D01*
X6894736Y43010036D02*
X6494736Y43010036D01*
X6494736Y43010036D02*
X6494736Y44310036D01*
X6494736Y44310036D02*
X6844736Y44310036D01*
X6844736Y44310036D02*
X6944736Y44248131D01*
X6944736Y44248131D02*
X6994736Y44186226D01*
X6994736Y44186226D02*
X7044736Y44062417D01*
X7044736Y44062417D02*
X7044736Y43938607D01*
X7044736Y43938607D02*
X6994736Y43814798D01*
X6994736Y43814798D02*
X6944736Y43752893D01*
X6944736Y43752893D02*
X6844736Y43690988D01*
X6844736Y43690988D02*
X6494736Y43690988D01*
X7544736Y44310036D02*
X7544736Y43257655D01*
X7544736Y43257655D02*
X7594736Y43133845D01*
X7594736Y43133845D02*
X7644736Y43071940D01*
X7644736Y43071940D02*
X7744736Y43010036D01*
X7744736Y43010036D02*
X7944736Y43010036D01*
X7944736Y43010036D02*
X8044736Y43071940D01*
X8044736Y43071940D02*
X8094736Y43133845D01*
X8094736Y43133845D02*
X8144736Y43257655D01*
X8144736Y43257655D02*
X8144736Y44310036D01*
X8594736Y43071940D02*
X8744736Y43010036D01*
X8744736Y43010036D02*
X8994736Y43010036D01*
X8994736Y43010036D02*
X9094736Y43071940D01*
X9094736Y43071940D02*
X9144736Y43133845D01*
X9144736Y43133845D02*
X9194736Y43257655D01*
X9194736Y43257655D02*
X9194736Y43381464D01*
X9194736Y43381464D02*
X9144736Y43505274D01*
X9144736Y43505274D02*
X9094736Y43567179D01*
X9094736Y43567179D02*
X8994736Y43629083D01*
X8994736Y43629083D02*
X8794736Y43690988D01*
X8794736Y43690988D02*
X8694736Y43752893D01*
X8694736Y43752893D02*
X8644736Y43814798D01*
X8644736Y43814798D02*
X8594736Y43938607D01*
X8594736Y43938607D02*
X8594736Y44062417D01*
X8594736Y44062417D02*
X8644736Y44186226D01*
X8644736Y44186226D02*
X8694736Y44248131D01*
X8694736Y44248131D02*
X8794736Y44310036D01*
X8794736Y44310036D02*
X9044736Y44310036D01*
X9044736Y44310036D02*
X9194736Y44248131D01*
D12*
X3158771Y26340923D02*
X2925438Y26769495D01*
X2758771Y26340923D02*
X2758771Y27240923D01*
X2758771Y27240923D02*
X3025438Y27240923D01*
X3025438Y27240923D02*
X3092105Y27198066D01*
X3092105Y27198066D02*
X3125438Y27155209D01*
X3125438Y27155209D02*
X3158771Y27069495D01*
X3158771Y27069495D02*
X3158771Y26940923D01*
X3158771Y26940923D02*
X3125438Y26855209D01*
X3125438Y26855209D02*
X3092105Y26812352D01*
X3092105Y26812352D02*
X3025438Y26769495D01*
X3025438Y26769495D02*
X2758771Y26769495D01*
X3392105Y27240923D02*
X3825438Y27240923D01*
X3825438Y27240923D02*
X3592105Y26898066D01*
X3592105Y26898066D02*
X3692105Y26898066D01*
X3692105Y26898066D02*
X3758771Y26855209D01*
X3758771Y26855209D02*
X3792105Y26812352D01*
X3792105Y26812352D02*
X3825438Y26726638D01*
X3825438Y26726638D02*
X3825438Y26512352D01*
X3825438Y26512352D02*
X3792105Y26426638D01*
X3792105Y26426638D02*
X3758771Y26383780D01*
X3758771Y26383780D02*
X3692105Y26340923D01*
X3692105Y26340923D02*
X3492105Y26340923D01*
X3492105Y26340923D02*
X3425438Y26383780D01*
X3425438Y26383780D02*
X3392105Y26426638D01*
X5058771Y26426638D02*
X5025438Y26383780D01*
X5025438Y26383780D02*
X4925438Y26340923D01*
X4925438Y26340923D02*
X4858771Y26340923D01*
X4858771Y26340923D02*
X4758771Y26383780D01*
X4758771Y26383780D02*
X4692105Y26469495D01*
X4692105Y26469495D02*
X4658771Y26555209D01*
X4658771Y26555209D02*
X4625438Y26726638D01*
X4625438Y26726638D02*
X4625438Y26855209D01*
X4625438Y26855209D02*
X4658771Y27026638D01*
X4658771Y27026638D02*
X4692105Y27112352D01*
X4692105Y27112352D02*
X4758771Y27198066D01*
X4758771Y27198066D02*
X4858771Y27240923D01*
X4858771Y27240923D02*
X4925438Y27240923D01*
X4925438Y27240923D02*
X5025438Y27198066D01*
X5025438Y27198066D02*
X5058771Y27155209D01*
X5292105Y27240923D02*
X5725438Y27240923D01*
X5725438Y27240923D02*
X5492105Y26898066D01*
X5492105Y26898066D02*
X5592105Y26898066D01*
X5592105Y26898066D02*
X5658771Y26855209D01*
X5658771Y26855209D02*
X5692105Y26812352D01*
X5692105Y26812352D02*
X5725438Y26726638D01*
X5725438Y26726638D02*
X5725438Y26512352D01*
X5725438Y26512352D02*
X5692105Y26426638D01*
X5692105Y26426638D02*
X5658771Y26383780D01*
X5658771Y26383780D02*
X5592105Y26340923D01*
X5592105Y26340923D02*
X5392105Y26340923D01*
X5392105Y26340923D02*
X5325438Y26383780D01*
X5325438Y26383780D02*
X5292105Y26426638D01*
X6458771Y26940923D02*
X6725438Y26940923D01*
X6558771Y26340923D02*
X6558771Y27112352D01*
X6558771Y27112352D02*
X6592105Y27198066D01*
X6592105Y27198066D02*
X6658771Y27240923D01*
X6658771Y27240923D02*
X6725438Y27240923D01*
X6958771Y26340923D02*
X6958771Y26940923D01*
X6958771Y27240923D02*
X6925438Y27198066D01*
X6925438Y27198066D02*
X6958771Y27155209D01*
X6958771Y27155209D02*
X6992105Y27198066D01*
X6992105Y27198066D02*
X6958771Y27240923D01*
X6958771Y27240923D02*
X6958771Y27155209D01*
X7192104Y26940923D02*
X7458771Y26940923D01*
X7292104Y27240923D02*
X7292104Y26469495D01*
X7292104Y26469495D02*
X7325438Y26383780D01*
X7325438Y26383780D02*
X7392104Y26340923D01*
X7392104Y26340923D02*
X7458771Y26340923D01*
X7592104Y26940923D02*
X7858771Y26940923D01*
X7692104Y27240923D02*
X7692104Y26469495D01*
X7692104Y26469495D02*
X7725438Y26383780D01*
X7725438Y26383780D02*
X7792104Y26340923D01*
X7792104Y26340923D02*
X7858771Y26340923D01*
X8358771Y26383780D02*
X8292104Y26340923D01*
X8292104Y26340923D02*
X8158771Y26340923D01*
X8158771Y26340923D02*
X8092104Y26383780D01*
X8092104Y26383780D02*
X8058771Y26469495D01*
X8058771Y26469495D02*
X8058771Y26812352D01*
X8058771Y26812352D02*
X8092104Y26898066D01*
X8092104Y26898066D02*
X8158771Y26940923D01*
X8158771Y26940923D02*
X8292104Y26940923D01*
X8292104Y26940923D02*
X8358771Y26898066D01*
X8358771Y26898066D02*
X8392104Y26812352D01*
X8392104Y26812352D02*
X8392104Y26726638D01*
X8392104Y26726638D02*
X8058771Y26640923D01*
X8992104Y26340923D02*
X8992104Y27240923D01*
X8992104Y26383780D02*
X8925438Y26340923D01*
X8925438Y26340923D02*
X8792104Y26340923D01*
X8792104Y26340923D02*
X8725438Y26383780D01*
X8725438Y26383780D02*
X8692104Y26426638D01*
X8692104Y26426638D02*
X8658771Y26512352D01*
X8658771Y26512352D02*
X8658771Y26769495D01*
X8658771Y26769495D02*
X8692104Y26855209D01*
X8692104Y26855209D02*
X8725438Y26898066D01*
X8725438Y26898066D02*
X8792104Y26940923D01*
X8792104Y26940923D02*
X8925438Y26940923D01*
X8925438Y26940923D02*
X8992104Y26898066D01*
D13*
X33123618Y1658570D02*
X33064571Y1696665D01*
X33064571Y1696665D02*
X32975999Y1696665D01*
X32975999Y1696665D02*
X32887428Y1658570D01*
X32887428Y1658570D02*
X32828380Y1582380D01*
X32828380Y1582380D02*
X32798857Y1506189D01*
X32798857Y1506189D02*
X32769333Y1353808D01*
X32769333Y1353808D02*
X32769333Y1239522D01*
X32769333Y1239522D02*
X32798857Y1087141D01*
X32798857Y1087141D02*
X32828380Y1010951D01*
X32828380Y1010951D02*
X32887428Y934760D01*
X32887428Y934760D02*
X32975999Y896665D01*
X32975999Y896665D02*
X33035047Y896665D01*
X33035047Y896665D02*
X33123618Y934760D01*
X33123618Y934760D02*
X33153142Y972856D01*
X33153142Y972856D02*
X33153142Y1239522D01*
X33153142Y1239522D02*
X33035047Y1239522D01*
X33418857Y896665D02*
X33418857Y1696665D01*
X33418857Y1696665D02*
X33773142Y896665D01*
X33773142Y896665D02*
X33773142Y1696665D01*
X34068381Y896665D02*
X34068381Y1696665D01*
X34068381Y1696665D02*
X34216000Y1696665D01*
X34216000Y1696665D02*
X34304571Y1658570D01*
X34304571Y1658570D02*
X34363619Y1582380D01*
X34363619Y1582380D02*
X34393142Y1506189D01*
X34393142Y1506189D02*
X34422666Y1353808D01*
X34422666Y1353808D02*
X34422666Y1239522D01*
X34422666Y1239522D02*
X34393142Y1087141D01*
X34393142Y1087141D02*
X34363619Y1010951D01*
X34363619Y1010951D02*
X34304571Y934760D01*
X34304571Y934760D02*
X34216000Y896665D01*
X34216000Y896665D02*
X34068381Y896665D01*
D10*
X52246303Y24045181D02*
X51979636Y24521372D01*
X51789160Y24045181D02*
X51789160Y25045181D01*
X51789160Y25045181D02*
X52093922Y25045181D01*
X52093922Y25045181D02*
X52170112Y24997562D01*
X52170112Y24997562D02*
X52208207Y24949943D01*
X52208207Y24949943D02*
X52246303Y24854705D01*
X52246303Y24854705D02*
X52246303Y24711848D01*
X52246303Y24711848D02*
X52208207Y24616610D01*
X52208207Y24616610D02*
X52170112Y24568991D01*
X52170112Y24568991D02*
X52093922Y24521372D01*
X52093922Y24521372D02*
X51789160Y24521372D01*
X52589160Y24568991D02*
X52855826Y24568991D01*
X52970112Y24045181D02*
X52589160Y24045181D01*
X52589160Y24045181D02*
X52589160Y25045181D01*
X52589160Y25045181D02*
X52970112Y25045181D01*
X53198684Y25045181D02*
X53465351Y24045181D01*
X53465351Y24045181D02*
X53732017Y25045181D01*
X55065351Y24140420D02*
X55027255Y24092800D01*
X55027255Y24092800D02*
X54912970Y24045181D01*
X54912970Y24045181D02*
X54836779Y24045181D01*
X54836779Y24045181D02*
X54722493Y24092800D01*
X54722493Y24092800D02*
X54646303Y24188039D01*
X54646303Y24188039D02*
X54608208Y24283277D01*
X54608208Y24283277D02*
X54570112Y24473753D01*
X54570112Y24473753D02*
X54570112Y24616610D01*
X54570112Y24616610D02*
X54608208Y24807086D01*
X54608208Y24807086D02*
X54646303Y24902324D01*
X54646303Y24902324D02*
X54722493Y24997562D01*
X54722493Y24997562D02*
X54836779Y25045181D01*
X54836779Y25045181D02*
X54912970Y25045181D01*
X54912970Y25045181D02*
X55027255Y24997562D01*
X55027255Y24997562D02*
X55065351Y24949943D01*
D12*
X46110751Y8190923D02*
X46110751Y9090923D01*
X46110751Y9090923D02*
X46391894Y9090923D01*
X46391894Y9090923D02*
X46462179Y9048066D01*
X46462179Y9048066D02*
X46497322Y9005209D01*
X46497322Y9005209D02*
X46532465Y8919495D01*
X46532465Y8919495D02*
X46532465Y8790923D01*
X46532465Y8790923D02*
X46497322Y8705209D01*
X46497322Y8705209D02*
X46462179Y8662352D01*
X46462179Y8662352D02*
X46391894Y8619495D01*
X46391894Y8619495D02*
X46110751Y8619495D01*
X46848751Y8190923D02*
X46848751Y9090923D01*
X47200180Y8190923D02*
X47200180Y9090923D01*
X47200180Y9090923D02*
X47621894Y8190923D01*
X47621894Y8190923D02*
X47621894Y9090923D01*
X48922180Y8190923D02*
X48500466Y8190923D01*
X48711323Y8190923D02*
X48711323Y9090923D01*
X48711323Y9090923D02*
X48641037Y8962352D01*
X48641037Y8962352D02*
X48570752Y8876638D01*
X48570752Y8876638D02*
X48500466Y8833780D01*
X49800752Y8662352D02*
X50363038Y8662352D01*
X50363038Y8405209D02*
X49800752Y8405209D01*
X51276752Y9090923D02*
X51276752Y8362352D01*
X51276752Y8362352D02*
X51311895Y8276638D01*
X51311895Y8276638D02*
X51347038Y8233780D01*
X51347038Y8233780D02*
X51417323Y8190923D01*
X51417323Y8190923D02*
X51557895Y8190923D01*
X51557895Y8190923D02*
X51628180Y8233780D01*
X51628180Y8233780D02*
X51663323Y8276638D01*
X51663323Y8276638D02*
X51698466Y8362352D01*
X51698466Y8362352D02*
X51698466Y9090923D01*
X52014752Y8233780D02*
X52120181Y8190923D01*
X52120181Y8190923D02*
X52295895Y8190923D01*
X52295895Y8190923D02*
X52366181Y8233780D01*
X52366181Y8233780D02*
X52401323Y8276638D01*
X52401323Y8276638D02*
X52436466Y8362352D01*
X52436466Y8362352D02*
X52436466Y8448066D01*
X52436466Y8448066D02*
X52401323Y8533780D01*
X52401323Y8533780D02*
X52366181Y8576638D01*
X52366181Y8576638D02*
X52295895Y8619495D01*
X52295895Y8619495D02*
X52155323Y8662352D01*
X52155323Y8662352D02*
X52085038Y8705209D01*
X52085038Y8705209D02*
X52049895Y8748066D01*
X52049895Y8748066D02*
X52014752Y8833780D01*
X52014752Y8833780D02*
X52014752Y8919495D01*
X52014752Y8919495D02*
X52049895Y9005209D01*
X52049895Y9005209D02*
X52085038Y9048066D01*
X52085038Y9048066D02*
X52155323Y9090923D01*
X52155323Y9090923D02*
X52331038Y9090923D01*
X52331038Y9090923D02*
X52436466Y9048066D01*
X52998752Y8662352D02*
X53104180Y8619495D01*
X53104180Y8619495D02*
X53139323Y8576638D01*
X53139323Y8576638D02*
X53174466Y8490923D01*
X53174466Y8490923D02*
X53174466Y8362352D01*
X53174466Y8362352D02*
X53139323Y8276638D01*
X53139323Y8276638D02*
X53104180Y8233780D01*
X53104180Y8233780D02*
X53033895Y8190923D01*
X53033895Y8190923D02*
X52752752Y8190923D01*
X52752752Y8190923D02*
X52752752Y9090923D01*
X52752752Y9090923D02*
X52998752Y9090923D01*
X52998752Y9090923D02*
X53069038Y9048066D01*
X53069038Y9048066D02*
X53104180Y9005209D01*
X53104180Y9005209D02*
X53139323Y8919495D01*
X53139323Y8919495D02*
X53139323Y8833780D01*
X53139323Y8833780D02*
X53104180Y8748066D01*
X53104180Y8748066D02*
X53069038Y8705209D01*
X53069038Y8705209D02*
X52998752Y8662352D01*
X52998752Y8662352D02*
X52752752Y8662352D01*
X53490752Y8533780D02*
X54053038Y8533780D01*
X54826180Y8276638D02*
X54791037Y8233780D01*
X54791037Y8233780D02*
X54685609Y8190923D01*
X54685609Y8190923D02*
X54615323Y8190923D01*
X54615323Y8190923D02*
X54509894Y8233780D01*
X54509894Y8233780D02*
X54439609Y8319495D01*
X54439609Y8319495D02*
X54404466Y8405209D01*
X54404466Y8405209D02*
X54369323Y8576638D01*
X54369323Y8576638D02*
X54369323Y8705209D01*
X54369323Y8705209D02*
X54404466Y8876638D01*
X54404466Y8876638D02*
X54439609Y8962352D01*
X54439609Y8962352D02*
X54509894Y9048066D01*
X54509894Y9048066D02*
X54615323Y9090923D01*
X54615323Y9090923D02*
X54685609Y9090923D01*
X54685609Y9090923D02*
X54791037Y9048066D01*
X54791037Y9048066D02*
X54826180Y9005209D01*
X55704752Y8662352D02*
X55950752Y8662352D01*
X56056180Y8190923D02*
X55704752Y8190923D01*
X55704752Y8190923D02*
X55704752Y9090923D01*
X55704752Y9090923D02*
X56056180Y9090923D01*
X56372466Y8190923D02*
X56372466Y9090923D01*
X56372466Y9090923D02*
X56794180Y8190923D01*
X56794180Y8190923D02*
X56794180Y9090923D01*
X57145609Y8190923D02*
X57145609Y9090923D01*
X57145609Y9090923D02*
X57321323Y9090923D01*
X57321323Y9090923D02*
X57426752Y9048066D01*
X57426752Y9048066D02*
X57497037Y8962352D01*
X57497037Y8962352D02*
X57532180Y8876638D01*
X57532180Y8876638D02*
X57567323Y8705209D01*
X57567323Y8705209D02*
X57567323Y8576638D01*
X57567323Y8576638D02*
X57532180Y8405209D01*
X57532180Y8405209D02*
X57497037Y8319495D01*
X57497037Y8319495D02*
X57426752Y8233780D01*
X57426752Y8233780D02*
X57321323Y8190923D01*
X57321323Y8190923D02*
X57145609Y8190923D01*
D13*
X44579236Y10336665D02*
X44944950Y10336665D01*
X44762093Y9536665D02*
X44762093Y10336665D01*
X45158283Y10336665D02*
X45158283Y9689046D01*
X45158283Y9689046D02*
X45188760Y9612856D01*
X45188760Y9612856D02*
X45219236Y9574760D01*
X45219236Y9574760D02*
X45280188Y9536665D01*
X45280188Y9536665D02*
X45402093Y9536665D01*
X45402093Y9536665D02*
X45463045Y9574760D01*
X45463045Y9574760D02*
X45493522Y9612856D01*
X45493522Y9612856D02*
X45523998Y9689046D01*
X45523998Y9689046D02*
X45523998Y10336665D01*
X46194474Y9536665D02*
X45981140Y9917618D01*
X45828759Y9536665D02*
X45828759Y10336665D01*
X45828759Y10336665D02*
X46072569Y10336665D01*
X46072569Y10336665D02*
X46133521Y10298570D01*
X46133521Y10298570D02*
X46163998Y10260475D01*
X46163998Y10260475D02*
X46194474Y10184284D01*
X46194474Y10184284D02*
X46194474Y10069999D01*
X46194474Y10069999D02*
X46163998Y9993808D01*
X46163998Y9993808D02*
X46133521Y9955713D01*
X46133521Y9955713D02*
X46072569Y9917618D01*
X46072569Y9917618D02*
X45828759Y9917618D01*
X46468759Y9536665D02*
X46468759Y10336665D01*
X46468759Y10336665D02*
X46834474Y9536665D01*
X46834474Y9536665D02*
X46834474Y10336665D01*
X47139235Y9955713D02*
X47352569Y9955713D01*
X47443997Y9536665D02*
X47139235Y9536665D01*
X47139235Y9536665D02*
X47139235Y10336665D01*
X47139235Y10336665D02*
X47443997Y10336665D01*
X47718283Y9536665D02*
X47718283Y10336665D01*
X47718283Y10336665D02*
X47870664Y10336665D01*
X47870664Y10336665D02*
X47962093Y10298570D01*
X47962093Y10298570D02*
X48023045Y10222380D01*
X48023045Y10222380D02*
X48053522Y10146189D01*
X48053522Y10146189D02*
X48083998Y9993808D01*
X48083998Y9993808D02*
X48083998Y9879522D01*
X48083998Y9879522D02*
X48053522Y9727141D01*
X48053522Y9727141D02*
X48023045Y9650951D01*
X48023045Y9650951D02*
X47962093Y9574760D01*
X47962093Y9574760D02*
X47870664Y9536665D01*
X47870664Y9536665D02*
X47718283Y9536665D01*
X49181141Y9536665D02*
X48815426Y9536665D01*
X48998283Y9536665D02*
X48998283Y10336665D01*
X48998283Y10336665D02*
X48937331Y10222380D01*
X48937331Y10222380D02*
X48876379Y10146189D01*
X48876379Y10146189D02*
X48815426Y10108094D01*
X49546855Y9993808D02*
X49485903Y10031903D01*
X49485903Y10031903D02*
X49455426Y10069999D01*
X49455426Y10069999D02*
X49424950Y10146189D01*
X49424950Y10146189D02*
X49424950Y10184284D01*
X49424950Y10184284D02*
X49455426Y10260475D01*
X49455426Y10260475D02*
X49485903Y10298570D01*
X49485903Y10298570D02*
X49546855Y10336665D01*
X49546855Y10336665D02*
X49668760Y10336665D01*
X49668760Y10336665D02*
X49729712Y10298570D01*
X49729712Y10298570D02*
X49760188Y10260475D01*
X49760188Y10260475D02*
X49790665Y10184284D01*
X49790665Y10184284D02*
X49790665Y10146189D01*
X49790665Y10146189D02*
X49760188Y10069999D01*
X49760188Y10069999D02*
X49729712Y10031903D01*
X49729712Y10031903D02*
X49668760Y9993808D01*
X49668760Y9993808D02*
X49546855Y9993808D01*
X49546855Y9993808D02*
X49485903Y9955713D01*
X49485903Y9955713D02*
X49455426Y9917618D01*
X49455426Y9917618D02*
X49424950Y9841427D01*
X49424950Y9841427D02*
X49424950Y9689046D01*
X49424950Y9689046D02*
X49455426Y9612856D01*
X49455426Y9612856D02*
X49485903Y9574760D01*
X49485903Y9574760D02*
X49546855Y9536665D01*
X49546855Y9536665D02*
X49668760Y9536665D01*
X49668760Y9536665D02*
X49729712Y9574760D01*
X49729712Y9574760D02*
X49760188Y9612856D01*
X49760188Y9612856D02*
X49790665Y9689046D01*
X49790665Y9689046D02*
X49790665Y9841427D01*
X49790665Y9841427D02*
X49760188Y9917618D01*
X49760188Y9917618D02*
X49729712Y9955713D01*
X49729712Y9955713D02*
X49668760Y9993808D01*
X50186855Y10336665D02*
X50247808Y10336665D01*
X50247808Y10336665D02*
X50308760Y10298570D01*
X50308760Y10298570D02*
X50339236Y10260475D01*
X50339236Y10260475D02*
X50369712Y10184284D01*
X50369712Y10184284D02*
X50400189Y10031903D01*
X50400189Y10031903D02*
X50400189Y9841427D01*
X50400189Y9841427D02*
X50369712Y9689046D01*
X50369712Y9689046D02*
X50339236Y9612856D01*
X50339236Y9612856D02*
X50308760Y9574760D01*
X50308760Y9574760D02*
X50247808Y9536665D01*
X50247808Y9536665D02*
X50186855Y9536665D01*
X50186855Y9536665D02*
X50125903Y9574760D01*
X50125903Y9574760D02*
X50095427Y9612856D01*
X50095427Y9612856D02*
X50064950Y9689046D01*
X50064950Y9689046D02*
X50034474Y9841427D01*
X50034474Y9841427D02*
X50034474Y10031903D01*
X50034474Y10031903D02*
X50064950Y10184284D01*
X50064950Y10184284D02*
X50095427Y10260475D01*
X50095427Y10260475D02*
X50125903Y10298570D01*
X50125903Y10298570D02*
X50186855Y10336665D01*
X51162093Y9955713D02*
X51649713Y9955713D01*
X51649713Y9727141D02*
X51162093Y9727141D01*
X52777332Y10298570D02*
X52716379Y10336665D01*
X52716379Y10336665D02*
X52624951Y10336665D01*
X52624951Y10336665D02*
X52533522Y10298570D01*
X52533522Y10298570D02*
X52472570Y10222380D01*
X52472570Y10222380D02*
X52442093Y10146189D01*
X52442093Y10146189D02*
X52411617Y9993808D01*
X52411617Y9993808D02*
X52411617Y9879522D01*
X52411617Y9879522D02*
X52442093Y9727141D01*
X52442093Y9727141D02*
X52472570Y9650951D01*
X52472570Y9650951D02*
X52533522Y9574760D01*
X52533522Y9574760D02*
X52624951Y9536665D01*
X52624951Y9536665D02*
X52685903Y9536665D01*
X52685903Y9536665D02*
X52777332Y9574760D01*
X52777332Y9574760D02*
X52807808Y9612856D01*
X52807808Y9612856D02*
X52807808Y9879522D01*
X52807808Y9879522D02*
X52685903Y9879522D01*
X53082093Y9536665D02*
X53082093Y10336665D01*
X53082093Y10336665D02*
X53447808Y9536665D01*
X53447808Y9536665D02*
X53447808Y10336665D01*
X53752569Y9536665D02*
X53752569Y10336665D01*
X53752569Y10336665D02*
X53904950Y10336665D01*
X53904950Y10336665D02*
X53996379Y10298570D01*
X53996379Y10298570D02*
X54057331Y10222380D01*
X54057331Y10222380D02*
X54087808Y10146189D01*
X54087808Y10146189D02*
X54118284Y9993808D01*
X54118284Y9993808D02*
X54118284Y9879522D01*
X54118284Y9879522D02*
X54087808Y9727141D01*
X54087808Y9727141D02*
X54057331Y9650951D01*
X54057331Y9650951D02*
X53996379Y9574760D01*
X53996379Y9574760D02*
X53904950Y9536665D01*
X53904950Y9536665D02*
X53752569Y9536665D01*
X55002093Y10336665D02*
X55123998Y10336665D01*
X55123998Y10336665D02*
X55184950Y10298570D01*
X55184950Y10298570D02*
X55245903Y10222380D01*
X55245903Y10222380D02*
X55276379Y10069999D01*
X55276379Y10069999D02*
X55276379Y9803332D01*
X55276379Y9803332D02*
X55245903Y9650951D01*
X55245903Y9650951D02*
X55184950Y9574760D01*
X55184950Y9574760D02*
X55123998Y9536665D01*
X55123998Y9536665D02*
X55002093Y9536665D01*
X55002093Y9536665D02*
X54941141Y9574760D01*
X54941141Y9574760D02*
X54880188Y9650951D01*
X54880188Y9650951D02*
X54849712Y9803332D01*
X54849712Y9803332D02*
X54849712Y10069999D01*
X54849712Y10069999D02*
X54880188Y10222380D01*
X54880188Y10222380D02*
X54941141Y10298570D01*
X54941141Y10298570D02*
X55002093Y10336665D01*
X55550664Y9536665D02*
X55550664Y10336665D01*
X55550664Y10336665D02*
X55916379Y9536665D01*
X55916379Y9536665D02*
X55916379Y10336665D01*
X57013521Y10336665D02*
X56708759Y10336665D01*
X56708759Y10336665D02*
X56678283Y9955713D01*
X56678283Y9955713D02*
X56708759Y9993808D01*
X56708759Y9993808D02*
X56769712Y10031903D01*
X56769712Y10031903D02*
X56922093Y10031903D01*
X56922093Y10031903D02*
X56983045Y9993808D01*
X56983045Y9993808D02*
X57013521Y9955713D01*
X57013521Y9955713D02*
X57043998Y9879522D01*
X57043998Y9879522D02*
X57043998Y9689046D01*
X57043998Y9689046D02*
X57013521Y9612856D01*
X57013521Y9612856D02*
X56983045Y9574760D01*
X56983045Y9574760D02*
X56922093Y9536665D01*
X56922093Y9536665D02*
X56769712Y9536665D01*
X56769712Y9536665D02*
X56708759Y9574760D01*
X56708759Y9574760D02*
X56678283Y9612856D01*
X57226855Y10336665D02*
X57440188Y9536665D01*
X57440188Y9536665D02*
X57653522Y10336665D01*
D12*
X2694962Y39490923D02*
X2832105Y38890923D01*
X2832105Y38890923D02*
X2969247Y39319495D01*
X2969247Y39319495D02*
X3106390Y38890923D01*
X3106390Y38890923D02*
X3243533Y39490923D01*
X3517819Y38890923D02*
X3517819Y39490923D01*
X3517819Y39790923D02*
X3483533Y39748066D01*
X3483533Y39748066D02*
X3517819Y39705209D01*
X3517819Y39705209D02*
X3552105Y39748066D01*
X3552105Y39748066D02*
X3517819Y39790923D01*
X3517819Y39790923D02*
X3517819Y39705209D01*
X3860676Y38890923D02*
X3860676Y39490923D01*
X3860676Y39319495D02*
X3894962Y39405209D01*
X3894962Y39405209D02*
X3929248Y39448066D01*
X3929248Y39448066D02*
X3997819Y39490923D01*
X3997819Y39490923D02*
X4066390Y39490923D01*
X4580676Y38933780D02*
X4512104Y38890923D01*
X4512104Y38890923D02*
X4374962Y38890923D01*
X4374962Y38890923D02*
X4306390Y38933780D01*
X4306390Y38933780D02*
X4272104Y39019495D01*
X4272104Y39019495D02*
X4272104Y39362352D01*
X4272104Y39362352D02*
X4306390Y39448066D01*
X4306390Y39448066D02*
X4374962Y39490923D01*
X4374962Y39490923D02*
X4512104Y39490923D01*
X4512104Y39490923D02*
X4580676Y39448066D01*
X4580676Y39448066D02*
X4614962Y39362352D01*
X4614962Y39362352D02*
X4614962Y39276638D01*
X4614962Y39276638D02*
X4272104Y39190923D01*
X5472104Y38890923D02*
X5472104Y39790923D01*
X5472104Y39790923D02*
X5746390Y39790923D01*
X5746390Y39790923D02*
X5814961Y39748066D01*
X5814961Y39748066D02*
X5849247Y39705209D01*
X5849247Y39705209D02*
X5883533Y39619495D01*
X5883533Y39619495D02*
X5883533Y39490923D01*
X5883533Y39490923D02*
X5849247Y39405209D01*
X5849247Y39405209D02*
X5814961Y39362352D01*
X5814961Y39362352D02*
X5746390Y39319495D01*
X5746390Y39319495D02*
X5472104Y39319495D01*
X6192104Y39233780D02*
X6740676Y39233780D01*
X7083533Y38890923D02*
X7083533Y39790923D01*
X7083533Y39790923D02*
X7357819Y39790923D01*
X7357819Y39790923D02*
X7426390Y39748066D01*
X7426390Y39748066D02*
X7460676Y39705209D01*
X7460676Y39705209D02*
X7494962Y39619495D01*
X7494962Y39619495D02*
X7494962Y39490923D01*
X7494962Y39490923D02*
X7460676Y39405209D01*
X7460676Y39405209D02*
X7426390Y39362352D01*
X7426390Y39362352D02*
X7357819Y39319495D01*
X7357819Y39319495D02*
X7083533Y39319495D01*
X7837819Y38933780D02*
X7837819Y38890923D01*
X7837819Y38890923D02*
X7803533Y38805209D01*
X7803533Y38805209D02*
X7769247Y38762352D01*
X8694961Y38890923D02*
X8694961Y39790923D01*
X8694961Y39790923D02*
X9106390Y38890923D01*
X9106390Y38890923D02*
X9106390Y39790923D01*
X9449247Y39233780D02*
X9997819Y39233780D01*
X10340676Y38890923D02*
X10340676Y39790923D01*
X10340676Y39790923D02*
X10752105Y38890923D01*
X10752105Y38890923D02*
X10752105Y39790923D01*
D16*
X31449999Y31662336D02*
X31416666Y31624240D01*
X31416666Y31624240D02*
X31316666Y31586145D01*
X31316666Y31586145D02*
X31249999Y31586145D01*
X31249999Y31586145D02*
X31149999Y31624240D01*
X31149999Y31624240D02*
X31083333Y31700431D01*
X31083333Y31700431D02*
X31049999Y31776621D01*
X31049999Y31776621D02*
X31016666Y31929002D01*
X31016666Y31929002D02*
X31016666Y32043288D01*
X31016666Y32043288D02*
X31049999Y32195669D01*
X31049999Y32195669D02*
X31083333Y32271860D01*
X31083333Y32271860D02*
X31149999Y32348050D01*
X31149999Y32348050D02*
X31249999Y32386145D01*
X31249999Y32386145D02*
X31316666Y32386145D01*
X31316666Y32386145D02*
X31416666Y32348050D01*
X31416666Y32348050D02*
X31449999Y32309955D01*
X32116666Y31586145D02*
X31716666Y31586145D01*
X31916666Y31586145D02*
X31916666Y32386145D01*
X31916666Y32386145D02*
X31849999Y32271860D01*
X31849999Y32271860D02*
X31783333Y32195669D01*
X31783333Y32195669D02*
X31716666Y32157574D01*
X32750000Y32386145D02*
X32416666Y32386145D01*
X32416666Y32386145D02*
X32383333Y32005193D01*
X32383333Y32005193D02*
X32416666Y32043288D01*
X32416666Y32043288D02*
X32483333Y32081383D01*
X32483333Y32081383D02*
X32650000Y32081383D01*
X32650000Y32081383D02*
X32716666Y32043288D01*
X32716666Y32043288D02*
X32750000Y32005193D01*
X32750000Y32005193D02*
X32783333Y31929002D01*
X32783333Y31929002D02*
X32783333Y31738526D01*
X32783333Y31738526D02*
X32750000Y31662336D01*
X32750000Y31662336D02*
X32716666Y31624240D01*
X32716666Y31624240D02*
X32650000Y31586145D01*
X32650000Y31586145D02*
X32483333Y31586145D01*
X32483333Y31586145D02*
X32416666Y31624240D01*
X32416666Y31624240D02*
X32383333Y31662336D01*
X31915000Y13708736D02*
X31881667Y13670640D01*
X31881667Y13670640D02*
X31781667Y13632545D01*
X31781667Y13632545D02*
X31715000Y13632545D01*
X31715000Y13632545D02*
X31615000Y13670640D01*
X31615000Y13670640D02*
X31548334Y13746831D01*
X31548334Y13746831D02*
X31515000Y13823021D01*
X31515000Y13823021D02*
X31481667Y13975402D01*
X31481667Y13975402D02*
X31481667Y14089688D01*
X31481667Y14089688D02*
X31515000Y14242069D01*
X31515000Y14242069D02*
X31548334Y14318260D01*
X31548334Y14318260D02*
X31615000Y14394450D01*
X31615000Y14394450D02*
X31715000Y14432545D01*
X31715000Y14432545D02*
X31781667Y14432545D01*
X31781667Y14432545D02*
X31881667Y14394450D01*
X31881667Y14394450D02*
X31915000Y14356355D01*
X32248334Y13632545D02*
X32381667Y13632545D01*
X32381667Y13632545D02*
X32448334Y13670640D01*
X32448334Y13670640D02*
X32481667Y13708736D01*
X32481667Y13708736D02*
X32548334Y13823021D01*
X32548334Y13823021D02*
X32581667Y13975402D01*
X32581667Y13975402D02*
X32581667Y14280164D01*
X32581667Y14280164D02*
X32548334Y14356355D01*
X32548334Y14356355D02*
X32515000Y14394450D01*
X32515000Y14394450D02*
X32448334Y14432545D01*
X32448334Y14432545D02*
X32315000Y14432545D01*
X32315000Y14432545D02*
X32248334Y14394450D01*
X32248334Y14394450D02*
X32215000Y14356355D01*
X32215000Y14356355D02*
X32181667Y14280164D01*
X32181667Y14280164D02*
X32181667Y14089688D01*
X32181667Y14089688D02*
X32215000Y14013498D01*
X32215000Y14013498D02*
X32248334Y13975402D01*
X32248334Y13975402D02*
X32315000Y13937307D01*
X32315000Y13937307D02*
X32448334Y13937307D01*
X32448334Y13937307D02*
X32515000Y13975402D01*
X32515000Y13975402D02*
X32548334Y14013498D01*
X32548334Y14013498D02*
X32581667Y14089688D01*
X36266666Y35407545D02*
X36266666Y36207545D01*
X36266666Y36207545D02*
X36500000Y35636117D01*
X36500000Y35636117D02*
X36733333Y36207545D01*
X36733333Y36207545D02*
X36733333Y35407545D01*
X37200000Y36207545D02*
X37333333Y36207545D01*
X37333333Y36207545D02*
X37400000Y36169450D01*
X37400000Y36169450D02*
X37466666Y36093260D01*
X37466666Y36093260D02*
X37500000Y35940879D01*
X37500000Y35940879D02*
X37500000Y35674212D01*
X37500000Y35674212D02*
X37466666Y35521831D01*
X37466666Y35521831D02*
X37400000Y35445640D01*
X37400000Y35445640D02*
X37333333Y35407545D01*
X37333333Y35407545D02*
X37200000Y35407545D01*
X37200000Y35407545D02*
X37133333Y35445640D01*
X37133333Y35445640D02*
X37066666Y35521831D01*
X37066666Y35521831D02*
X37033333Y35674212D01*
X37033333Y35674212D02*
X37033333Y35940879D01*
X37033333Y35940879D02*
X37066666Y36093260D01*
X37066666Y36093260D02*
X37133333Y36169450D01*
X37133333Y36169450D02*
X37200000Y36207545D01*
X37699999Y36207545D02*
X37933333Y35407545D01*
X37933333Y35407545D02*
X38166666Y36207545D01*
X38766666Y35407545D02*
X38366666Y35407545D01*
X38566666Y35407545D02*
X38566666Y36207545D01*
X38566666Y36207545D02*
X38499999Y36093260D01*
X38499999Y36093260D02*
X38433333Y36017069D01*
X38433333Y36017069D02*
X38366666Y35978974D01*
X21765000Y31982545D02*
X21531667Y32363498D01*
X21365000Y31982545D02*
X21365000Y32782545D01*
X21365000Y32782545D02*
X21631667Y32782545D01*
X21631667Y32782545D02*
X21698334Y32744450D01*
X21698334Y32744450D02*
X21731667Y32706355D01*
X21731667Y32706355D02*
X21765000Y32630164D01*
X21765000Y32630164D02*
X21765000Y32515879D01*
X21765000Y32515879D02*
X21731667Y32439688D01*
X21731667Y32439688D02*
X21698334Y32401593D01*
X21698334Y32401593D02*
X21631667Y32363498D01*
X21631667Y32363498D02*
X21365000Y32363498D01*
X22031667Y32706355D02*
X22065000Y32744450D01*
X22065000Y32744450D02*
X22131667Y32782545D01*
X22131667Y32782545D02*
X22298334Y32782545D01*
X22298334Y32782545D02*
X22365000Y32744450D01*
X22365000Y32744450D02*
X22398334Y32706355D01*
X22398334Y32706355D02*
X22431667Y32630164D01*
X22431667Y32630164D02*
X22431667Y32553974D01*
X22431667Y32553974D02*
X22398334Y32439688D01*
X22398334Y32439688D02*
X21998334Y31982545D01*
X21998334Y31982545D02*
X22431667Y31982545D01*
X20465000Y14382545D02*
X20231667Y14763498D01*
X20065000Y14382545D02*
X20065000Y15182545D01*
X20065000Y15182545D02*
X20331667Y15182545D01*
X20331667Y15182545D02*
X20398334Y15144450D01*
X20398334Y15144450D02*
X20431667Y15106355D01*
X20431667Y15106355D02*
X20465000Y15030164D01*
X20465000Y15030164D02*
X20465000Y14915879D01*
X20465000Y14915879D02*
X20431667Y14839688D01*
X20431667Y14839688D02*
X20398334Y14801593D01*
X20398334Y14801593D02*
X20331667Y14763498D01*
X20331667Y14763498D02*
X20065000Y14763498D01*
X21065000Y14915879D02*
X21065000Y14382545D01*
X20898334Y15220640D02*
X20731667Y14649212D01*
X20731667Y14649212D02*
X21165000Y14649212D01*
X18426666Y16008736D02*
X18393333Y15970640D01*
X18393333Y15970640D02*
X18293333Y15932545D01*
X18293333Y15932545D02*
X18226666Y15932545D01*
X18226666Y15932545D02*
X18126666Y15970640D01*
X18126666Y15970640D02*
X18060000Y16046831D01*
X18060000Y16046831D02*
X18026666Y16123021D01*
X18026666Y16123021D02*
X17993333Y16275402D01*
X17993333Y16275402D02*
X17993333Y16389688D01*
X17993333Y16389688D02*
X18026666Y16542069D01*
X18026666Y16542069D02*
X18060000Y16618260D01*
X18060000Y16618260D02*
X18126666Y16694450D01*
X18126666Y16694450D02*
X18226666Y16732545D01*
X18226666Y16732545D02*
X18293333Y16732545D01*
X18293333Y16732545D02*
X18393333Y16694450D01*
X18393333Y16694450D02*
X18426666Y16656355D01*
X19026666Y16732545D02*
X18893333Y16732545D01*
X18893333Y16732545D02*
X18826666Y16694450D01*
X18826666Y16694450D02*
X18793333Y16656355D01*
X18793333Y16656355D02*
X18726666Y16542069D01*
X18726666Y16542069D02*
X18693333Y16389688D01*
X18693333Y16389688D02*
X18693333Y16084926D01*
X18693333Y16084926D02*
X18726666Y16008736D01*
X18726666Y16008736D02*
X18760000Y15970640D01*
X18760000Y15970640D02*
X18826666Y15932545D01*
X18826666Y15932545D02*
X18960000Y15932545D01*
X18960000Y15932545D02*
X19026666Y15970640D01*
X19026666Y15970640D02*
X19060000Y16008736D01*
X19060000Y16008736D02*
X19093333Y16084926D01*
X19093333Y16084926D02*
X19093333Y16275402D01*
X19093333Y16275402D02*
X19060000Y16351593D01*
X19060000Y16351593D02*
X19026666Y16389688D01*
X19026666Y16389688D02*
X18960000Y16427783D01*
X18960000Y16427783D02*
X18826666Y16427783D01*
X18826666Y16427783D02*
X18760000Y16389688D01*
X18760000Y16389688D02*
X18726666Y16351593D01*
X18726666Y16351593D02*
X18693333Y16275402D01*
X28383333Y26236145D02*
X28049999Y26236145D01*
X28049999Y26236145D02*
X28049999Y27036145D01*
X28983333Y26236145D02*
X28583333Y26236145D01*
X28783333Y26236145D02*
X28783333Y27036145D01*
X28783333Y27036145D02*
X28716666Y26921860D01*
X28716666Y26921860D02*
X28650000Y26845669D01*
X28650000Y26845669D02*
X28583333Y26807574D01*
X36966667Y28517098D02*
X36966667Y28136145D01*
X36733333Y28936145D02*
X36966667Y28517098D01*
X36966667Y28517098D02*
X37200000Y28936145D01*
X37800000Y28136145D02*
X37400000Y28136145D01*
X37600000Y28136145D02*
X37600000Y28936145D01*
X37600000Y28936145D02*
X37533333Y28821860D01*
X37533333Y28821860D02*
X37466667Y28745669D01*
X37466667Y28745669D02*
X37400000Y28707574D01*
X40985000Y21955193D02*
X40751666Y21955193D01*
X40751666Y21536145D02*
X40751666Y22336145D01*
X40751666Y22336145D02*
X41085000Y22336145D01*
X41585000Y21955193D02*
X41685000Y21917098D01*
X41685000Y21917098D02*
X41718333Y21879002D01*
X41718333Y21879002D02*
X41751666Y21802812D01*
X41751666Y21802812D02*
X41751666Y21688526D01*
X41751666Y21688526D02*
X41718333Y21612336D01*
X41718333Y21612336D02*
X41685000Y21574240D01*
X41685000Y21574240D02*
X41618333Y21536145D01*
X41618333Y21536145D02*
X41351666Y21536145D01*
X41351666Y21536145D02*
X41351666Y22336145D01*
X41351666Y22336145D02*
X41585000Y22336145D01*
X41585000Y22336145D02*
X41651666Y22298050D01*
X41651666Y22298050D02*
X41685000Y22259955D01*
X41685000Y22259955D02*
X41718333Y22183764D01*
X41718333Y22183764D02*
X41718333Y22107574D01*
X41718333Y22107574D02*
X41685000Y22031383D01*
X41685000Y22031383D02*
X41651666Y21993288D01*
X41651666Y21993288D02*
X41585000Y21955193D01*
X41585000Y21955193D02*
X41351666Y21955193D01*
X42018333Y22259955D02*
X42051666Y22298050D01*
X42051666Y22298050D02*
X42118333Y22336145D01*
X42118333Y22336145D02*
X42285000Y22336145D01*
X42285000Y22336145D02*
X42351666Y22298050D01*
X42351666Y22298050D02*
X42385000Y22259955D01*
X42385000Y22259955D02*
X42418333Y22183764D01*
X42418333Y22183764D02*
X42418333Y22107574D01*
X42418333Y22107574D02*
X42385000Y21993288D01*
X42385000Y21993288D02*
X41985000Y21536145D01*
X41985000Y21536145D02*
X42418333Y21536145D01*
X39676666Y19712336D02*
X39643333Y19674240D01*
X39643333Y19674240D02*
X39543333Y19636145D01*
X39543333Y19636145D02*
X39476666Y19636145D01*
X39476666Y19636145D02*
X39376666Y19674240D01*
X39376666Y19674240D02*
X39310000Y19750431D01*
X39310000Y19750431D02*
X39276666Y19826621D01*
X39276666Y19826621D02*
X39243333Y19979002D01*
X39243333Y19979002D02*
X39243333Y20093288D01*
X39243333Y20093288D02*
X39276666Y20245669D01*
X39276666Y20245669D02*
X39310000Y20321860D01*
X39310000Y20321860D02*
X39376666Y20398050D01*
X39376666Y20398050D02*
X39476666Y20436145D01*
X39476666Y20436145D02*
X39543333Y20436145D01*
X39543333Y20436145D02*
X39643333Y20398050D01*
X39643333Y20398050D02*
X39676666Y20359955D01*
X40276666Y20169479D02*
X40276666Y19636145D01*
X40110000Y20474240D02*
X39943333Y19902812D01*
X39943333Y19902812D02*
X40376666Y19902812D01*
X25283333Y16912336D02*
X25250000Y16874240D01*
X25250000Y16874240D02*
X25150000Y16836145D01*
X25150000Y16836145D02*
X25083333Y16836145D01*
X25083333Y16836145D02*
X24983333Y16874240D01*
X24983333Y16874240D02*
X24916667Y16950431D01*
X24916667Y16950431D02*
X24883333Y17026621D01*
X24883333Y17026621D02*
X24850000Y17179002D01*
X24850000Y17179002D02*
X24850000Y17293288D01*
X24850000Y17293288D02*
X24883333Y17445669D01*
X24883333Y17445669D02*
X24916667Y17521860D01*
X24916667Y17521860D02*
X24983333Y17598050D01*
X24983333Y17598050D02*
X25083333Y17636145D01*
X25083333Y17636145D02*
X25150000Y17636145D01*
X25150000Y17636145D02*
X25250000Y17598050D01*
X25250000Y17598050D02*
X25283333Y17559955D01*
X25683333Y17293288D02*
X25616667Y17331383D01*
X25616667Y17331383D02*
X25583333Y17369479D01*
X25583333Y17369479D02*
X25550000Y17445669D01*
X25550000Y17445669D02*
X25550000Y17483764D01*
X25550000Y17483764D02*
X25583333Y17559955D01*
X25583333Y17559955D02*
X25616667Y17598050D01*
X25616667Y17598050D02*
X25683333Y17636145D01*
X25683333Y17636145D02*
X25816667Y17636145D01*
X25816667Y17636145D02*
X25883333Y17598050D01*
X25883333Y17598050D02*
X25916667Y17559955D01*
X25916667Y17559955D02*
X25950000Y17483764D01*
X25950000Y17483764D02*
X25950000Y17445669D01*
X25950000Y17445669D02*
X25916667Y17369479D01*
X25916667Y17369479D02*
X25883333Y17331383D01*
X25883333Y17331383D02*
X25816667Y17293288D01*
X25816667Y17293288D02*
X25683333Y17293288D01*
X25683333Y17293288D02*
X25616667Y17255193D01*
X25616667Y17255193D02*
X25583333Y17217098D01*
X25583333Y17217098D02*
X25550000Y17140907D01*
X25550000Y17140907D02*
X25550000Y16988526D01*
X25550000Y16988526D02*
X25583333Y16912336D01*
X25583333Y16912336D02*
X25616667Y16874240D01*
X25616667Y16874240D02*
X25683333Y16836145D01*
X25683333Y16836145D02*
X25816667Y16836145D01*
X25816667Y16836145D02*
X25883333Y16874240D01*
X25883333Y16874240D02*
X25916667Y16912336D01*
X25916667Y16912336D02*
X25950000Y16988526D01*
X25950000Y16988526D02*
X25950000Y17140907D01*
X25950000Y17140907D02*
X25916667Y17217098D01*
X25916667Y17217098D02*
X25883333Y17255193D01*
X25883333Y17255193D02*
X25816667Y17293288D01*
X19766666Y35407545D02*
X19766666Y36207545D01*
X19766666Y36207545D02*
X20000000Y35636117D01*
X20000000Y35636117D02*
X20233333Y36207545D01*
X20233333Y36207545D02*
X20233333Y35407545D01*
X20700000Y36207545D02*
X20833333Y36207545D01*
X20833333Y36207545D02*
X20900000Y36169450D01*
X20900000Y36169450D02*
X20966666Y36093260D01*
X20966666Y36093260D02*
X21000000Y35940879D01*
X21000000Y35940879D02*
X21000000Y35674212D01*
X21000000Y35674212D02*
X20966666Y35521831D01*
X20966666Y35521831D02*
X20900000Y35445640D01*
X20900000Y35445640D02*
X20833333Y35407545D01*
X20833333Y35407545D02*
X20700000Y35407545D01*
X20700000Y35407545D02*
X20633333Y35445640D01*
X20633333Y35445640D02*
X20566666Y35521831D01*
X20566666Y35521831D02*
X20533333Y35674212D01*
X20533333Y35674212D02*
X20533333Y35940879D01*
X20533333Y35940879D02*
X20566666Y36093260D01*
X20566666Y36093260D02*
X20633333Y36169450D01*
X20633333Y36169450D02*
X20700000Y36207545D01*
X21199999Y36207545D02*
X21433333Y35407545D01*
X21433333Y35407545D02*
X21666666Y36207545D01*
X21866666Y36131355D02*
X21899999Y36169450D01*
X21899999Y36169450D02*
X21966666Y36207545D01*
X21966666Y36207545D02*
X22133333Y36207545D01*
X22133333Y36207545D02*
X22199999Y36169450D01*
X22199999Y36169450D02*
X22233333Y36131355D01*
X22233333Y36131355D02*
X22266666Y36055164D01*
X22266666Y36055164D02*
X22266666Y35978974D01*
X22266666Y35978974D02*
X22233333Y35864688D01*
X22233333Y35864688D02*
X21833333Y35407545D01*
X21833333Y35407545D02*
X22266666Y35407545D01*
X8766666Y9036145D02*
X8766666Y8464717D01*
X8766666Y8464717D02*
X8733333Y8350431D01*
X8733333Y8350431D02*
X8666666Y8274240D01*
X8666666Y8274240D02*
X8566666Y8236145D01*
X8566666Y8236145D02*
X8500000Y8236145D01*
X9466666Y8236145D02*
X9066666Y8236145D01*
X9266666Y8236145D02*
X9266666Y9036145D01*
X9266666Y9036145D02*
X9199999Y8921860D01*
X9199999Y8921860D02*
X9133333Y8845669D01*
X9133333Y8845669D02*
X9066666Y8807574D01*
X21149999Y23912336D02*
X21116666Y23874240D01*
X21116666Y23874240D02*
X21016666Y23836145D01*
X21016666Y23836145D02*
X20949999Y23836145D01*
X20949999Y23836145D02*
X20849999Y23874240D01*
X20849999Y23874240D02*
X20783333Y23950431D01*
X20783333Y23950431D02*
X20749999Y24026621D01*
X20749999Y24026621D02*
X20716666Y24179002D01*
X20716666Y24179002D02*
X20716666Y24293288D01*
X20716666Y24293288D02*
X20749999Y24445669D01*
X20749999Y24445669D02*
X20783333Y24521860D01*
X20783333Y24521860D02*
X20849999Y24598050D01*
X20849999Y24598050D02*
X20949999Y24636145D01*
X20949999Y24636145D02*
X21016666Y24636145D01*
X21016666Y24636145D02*
X21116666Y24598050D01*
X21116666Y24598050D02*
X21149999Y24559955D01*
X21816666Y23836145D02*
X21416666Y23836145D01*
X21616666Y23836145D02*
X21616666Y24636145D01*
X21616666Y24636145D02*
X21549999Y24521860D01*
X21549999Y24521860D02*
X21483333Y24445669D01*
X21483333Y24445669D02*
X21416666Y24407574D01*
X22083333Y24559955D02*
X22116666Y24598050D01*
X22116666Y24598050D02*
X22183333Y24636145D01*
X22183333Y24636145D02*
X22350000Y24636145D01*
X22350000Y24636145D02*
X22416666Y24598050D01*
X22416666Y24598050D02*
X22450000Y24559955D01*
X22450000Y24559955D02*
X22483333Y24483764D01*
X22483333Y24483764D02*
X22483333Y24407574D01*
X22483333Y24407574D02*
X22450000Y24293288D01*
X22450000Y24293288D02*
X22050000Y23836145D01*
X22050000Y23836145D02*
X22483333Y23836145D01*
X18298334Y20233793D02*
X18065000Y20233793D01*
X18065000Y19814745D02*
X18065000Y20614745D01*
X18065000Y20614745D02*
X18398334Y20614745D01*
X18898334Y20233793D02*
X18998334Y20195698D01*
X18998334Y20195698D02*
X19031667Y20157602D01*
X19031667Y20157602D02*
X19065000Y20081412D01*
X19065000Y20081412D02*
X19065000Y19967126D01*
X19065000Y19967126D02*
X19031667Y19890936D01*
X19031667Y19890936D02*
X18998334Y19852840D01*
X18998334Y19852840D02*
X18931667Y19814745D01*
X18931667Y19814745D02*
X18665000Y19814745D01*
X18665000Y19814745D02*
X18665000Y20614745D01*
X18665000Y20614745D02*
X18898334Y20614745D01*
X18898334Y20614745D02*
X18965000Y20576650D01*
X18965000Y20576650D02*
X18998334Y20538555D01*
X18998334Y20538555D02*
X19031667Y20462364D01*
X19031667Y20462364D02*
X19031667Y20386174D01*
X19031667Y20386174D02*
X18998334Y20309983D01*
X18998334Y20309983D02*
X18965000Y20271888D01*
X18965000Y20271888D02*
X18898334Y20233793D01*
X18898334Y20233793D02*
X18665000Y20233793D01*
X19298334Y20614745D02*
X19731667Y20614745D01*
X19731667Y20614745D02*
X19498334Y20309983D01*
X19498334Y20309983D02*
X19598334Y20309983D01*
X19598334Y20309983D02*
X19665000Y20271888D01*
X19665000Y20271888D02*
X19698334Y20233793D01*
X19698334Y20233793D02*
X19731667Y20157602D01*
X19731667Y20157602D02*
X19731667Y19967126D01*
X19731667Y19967126D02*
X19698334Y19890936D01*
X19698334Y19890936D02*
X19665000Y19852840D01*
X19665000Y19852840D02*
X19598334Y19814745D01*
X19598334Y19814745D02*
X19398334Y19814745D01*
X19398334Y19814745D02*
X19331667Y19852840D01*
X19331667Y19852840D02*
X19298334Y19890936D01*
X28621666Y9889745D02*
X28388333Y10270698D01*
X28221666Y9889745D02*
X28221666Y10689745D01*
X28221666Y10689745D02*
X28488333Y10689745D01*
X28488333Y10689745D02*
X28555000Y10651650D01*
X28555000Y10651650D02*
X28588333Y10613555D01*
X28588333Y10613555D02*
X28621666Y10537364D01*
X28621666Y10537364D02*
X28621666Y10423079D01*
X28621666Y10423079D02*
X28588333Y10346888D01*
X28588333Y10346888D02*
X28555000Y10308793D01*
X28555000Y10308793D02*
X28488333Y10270698D01*
X28488333Y10270698D02*
X28221666Y10270698D01*
X29255000Y10689745D02*
X28921666Y10689745D01*
X28921666Y10689745D02*
X28888333Y10308793D01*
X28888333Y10308793D02*
X28921666Y10346888D01*
X28921666Y10346888D02*
X28988333Y10384983D01*
X28988333Y10384983D02*
X29155000Y10384983D01*
X29155000Y10384983D02*
X29221666Y10346888D01*
X29221666Y10346888D02*
X29255000Y10308793D01*
X29255000Y10308793D02*
X29288333Y10232602D01*
X29288333Y10232602D02*
X29288333Y10042126D01*
X29288333Y10042126D02*
X29255000Y9965936D01*
X29255000Y9965936D02*
X29221666Y9927840D01*
X29221666Y9927840D02*
X29155000Y9889745D01*
X29155000Y9889745D02*
X28988333Y9889745D01*
X28988333Y9889745D02*
X28921666Y9927840D01*
X28921666Y9927840D02*
X28888333Y9965936D01*
X25465000Y30512336D02*
X25431667Y30474240D01*
X25431667Y30474240D02*
X25331667Y30436145D01*
X25331667Y30436145D02*
X25265000Y30436145D01*
X25265000Y30436145D02*
X25165000Y30474240D01*
X25165000Y30474240D02*
X25098334Y30550431D01*
X25098334Y30550431D02*
X25065000Y30626621D01*
X25065000Y30626621D02*
X25031667Y30779002D01*
X25031667Y30779002D02*
X25031667Y30893288D01*
X25031667Y30893288D02*
X25065000Y31045669D01*
X25065000Y31045669D02*
X25098334Y31121860D01*
X25098334Y31121860D02*
X25165000Y31198050D01*
X25165000Y31198050D02*
X25265000Y31236145D01*
X25265000Y31236145D02*
X25331667Y31236145D01*
X25331667Y31236145D02*
X25431667Y31198050D01*
X25431667Y31198050D02*
X25465000Y31159955D01*
X26131667Y30436145D02*
X25731667Y30436145D01*
X25931667Y30436145D02*
X25931667Y31236145D01*
X25931667Y31236145D02*
X25865000Y31121860D01*
X25865000Y31121860D02*
X25798334Y31045669D01*
X25798334Y31045669D02*
X25731667Y31007574D01*
X28001666Y13836145D02*
X27768333Y14217098D01*
X27601666Y13836145D02*
X27601666Y14636145D01*
X27601666Y14636145D02*
X27868333Y14636145D01*
X27868333Y14636145D02*
X27935000Y14598050D01*
X27935000Y14598050D02*
X27968333Y14559955D01*
X27968333Y14559955D02*
X28001666Y14483764D01*
X28001666Y14483764D02*
X28001666Y14369479D01*
X28001666Y14369479D02*
X27968333Y14293288D01*
X27968333Y14293288D02*
X27935000Y14255193D01*
X27935000Y14255193D02*
X27868333Y14217098D01*
X27868333Y14217098D02*
X27601666Y14217098D01*
X28601666Y14636145D02*
X28468333Y14636145D01*
X28468333Y14636145D02*
X28401666Y14598050D01*
X28401666Y14598050D02*
X28368333Y14559955D01*
X28368333Y14559955D02*
X28301666Y14445669D01*
X28301666Y14445669D02*
X28268333Y14293288D01*
X28268333Y14293288D02*
X28268333Y13988526D01*
X28268333Y13988526D02*
X28301666Y13912336D01*
X28301666Y13912336D02*
X28335000Y13874240D01*
X28335000Y13874240D02*
X28401666Y13836145D01*
X28401666Y13836145D02*
X28535000Y13836145D01*
X28535000Y13836145D02*
X28601666Y13874240D01*
X28601666Y13874240D02*
X28635000Y13912336D01*
X28635000Y13912336D02*
X28668333Y13988526D01*
X28668333Y13988526D02*
X28668333Y14179002D01*
X28668333Y14179002D02*
X28635000Y14255193D01*
X28635000Y14255193D02*
X28601666Y14293288D01*
X28601666Y14293288D02*
X28535000Y14331383D01*
X28535000Y14331383D02*
X28401666Y14331383D01*
X28401666Y14331383D02*
X28335000Y14293288D01*
X28335000Y14293288D02*
X28301666Y14255193D01*
X28301666Y14255193D02*
X28268333Y14179002D01*
X33301666Y36636145D02*
X33068333Y37017098D01*
X32901666Y36636145D02*
X32901666Y37436145D01*
X32901666Y37436145D02*
X33168333Y37436145D01*
X33168333Y37436145D02*
X33235000Y37398050D01*
X33235000Y37398050D02*
X33268333Y37359955D01*
X33268333Y37359955D02*
X33301666Y37283764D01*
X33301666Y37283764D02*
X33301666Y37169479D01*
X33301666Y37169479D02*
X33268333Y37093288D01*
X33268333Y37093288D02*
X33235000Y37055193D01*
X33235000Y37055193D02*
X33168333Y37017098D01*
X33168333Y37017098D02*
X32901666Y37017098D01*
X33535000Y37436145D02*
X33968333Y37436145D01*
X33968333Y37436145D02*
X33735000Y37131383D01*
X33735000Y37131383D02*
X33835000Y37131383D01*
X33835000Y37131383D02*
X33901666Y37093288D01*
X33901666Y37093288D02*
X33935000Y37055193D01*
X33935000Y37055193D02*
X33968333Y36979002D01*
X33968333Y36979002D02*
X33968333Y36788526D01*
X33968333Y36788526D02*
X33935000Y36712336D01*
X33935000Y36712336D02*
X33901666Y36674240D01*
X33901666Y36674240D02*
X33835000Y36636145D01*
X33835000Y36636145D02*
X33635000Y36636145D01*
X33635000Y36636145D02*
X33568333Y36674240D01*
X33568333Y36674240D02*
X33535000Y36712336D01*
X37751666Y17012336D02*
X37718333Y16974240D01*
X37718333Y16974240D02*
X37618333Y16936145D01*
X37618333Y16936145D02*
X37551666Y16936145D01*
X37551666Y16936145D02*
X37451666Y16974240D01*
X37451666Y16974240D02*
X37385000Y17050431D01*
X37385000Y17050431D02*
X37351666Y17126621D01*
X37351666Y17126621D02*
X37318333Y17279002D01*
X37318333Y17279002D02*
X37318333Y17393288D01*
X37318333Y17393288D02*
X37351666Y17545669D01*
X37351666Y17545669D02*
X37385000Y17621860D01*
X37385000Y17621860D02*
X37451666Y17698050D01*
X37451666Y17698050D02*
X37551666Y17736145D01*
X37551666Y17736145D02*
X37618333Y17736145D01*
X37618333Y17736145D02*
X37718333Y17698050D01*
X37718333Y17698050D02*
X37751666Y17659955D01*
X38418333Y16936145D02*
X38018333Y16936145D01*
X38218333Y16936145D02*
X38218333Y17736145D01*
X38218333Y17736145D02*
X38151666Y17621860D01*
X38151666Y17621860D02*
X38085000Y17545669D01*
X38085000Y17545669D02*
X38018333Y17507574D01*
X38851667Y17736145D02*
X38918333Y17736145D01*
X38918333Y17736145D02*
X38985000Y17698050D01*
X38985000Y17698050D02*
X39018333Y17659955D01*
X39018333Y17659955D02*
X39051667Y17583764D01*
X39051667Y17583764D02*
X39085000Y17431383D01*
X39085000Y17431383D02*
X39085000Y17240907D01*
X39085000Y17240907D02*
X39051667Y17088526D01*
X39051667Y17088526D02*
X39018333Y17012336D01*
X39018333Y17012336D02*
X38985000Y16974240D01*
X38985000Y16974240D02*
X38918333Y16936145D01*
X38918333Y16936145D02*
X38851667Y16936145D01*
X38851667Y16936145D02*
X38785000Y16974240D01*
X38785000Y16974240D02*
X38751667Y17012336D01*
X38751667Y17012336D02*
X38718333Y17088526D01*
X38718333Y17088526D02*
X38685000Y17240907D01*
X38685000Y17240907D02*
X38685000Y17431383D01*
X38685000Y17431383D02*
X38718333Y17583764D01*
X38718333Y17583764D02*
X38751667Y17659955D01*
X38751667Y17659955D02*
X38785000Y17698050D01*
X38785000Y17698050D02*
X38851667Y17736145D01*
X21016667Y26005193D02*
X20783333Y26005193D01*
X20783333Y25586145D02*
X20783333Y26386145D01*
X20783333Y26386145D02*
X21116667Y26386145D01*
X21616667Y26005193D02*
X21716667Y25967098D01*
X21716667Y25967098D02*
X21750000Y25929002D01*
X21750000Y25929002D02*
X21783333Y25852812D01*
X21783333Y25852812D02*
X21783333Y25738526D01*
X21783333Y25738526D02*
X21750000Y25662336D01*
X21750000Y25662336D02*
X21716667Y25624240D01*
X21716667Y25624240D02*
X21650000Y25586145D01*
X21650000Y25586145D02*
X21383333Y25586145D01*
X21383333Y25586145D02*
X21383333Y26386145D01*
X21383333Y26386145D02*
X21616667Y26386145D01*
X21616667Y26386145D02*
X21683333Y26348050D01*
X21683333Y26348050D02*
X21716667Y26309955D01*
X21716667Y26309955D02*
X21750000Y26233764D01*
X21750000Y26233764D02*
X21750000Y26157574D01*
X21750000Y26157574D02*
X21716667Y26081383D01*
X21716667Y26081383D02*
X21683333Y26043288D01*
X21683333Y26043288D02*
X21616667Y26005193D01*
X21616667Y26005193D02*
X21383333Y26005193D01*
X22450000Y25586145D02*
X22050000Y25586145D01*
X22250000Y25586145D02*
X22250000Y26386145D01*
X22250000Y26386145D02*
X22183333Y26271860D01*
X22183333Y26271860D02*
X22116667Y26195669D01*
X22116667Y26195669D02*
X22050000Y26157574D01*
X36635000Y12701593D02*
X36401666Y12701593D01*
X36401666Y12282545D02*
X36401666Y13082545D01*
X36401666Y13082545D02*
X36735000Y13082545D01*
X37235000Y12701593D02*
X37335000Y12663498D01*
X37335000Y12663498D02*
X37368333Y12625402D01*
X37368333Y12625402D02*
X37401666Y12549212D01*
X37401666Y12549212D02*
X37401666Y12434926D01*
X37401666Y12434926D02*
X37368333Y12358736D01*
X37368333Y12358736D02*
X37335000Y12320640D01*
X37335000Y12320640D02*
X37268333Y12282545D01*
X37268333Y12282545D02*
X37001666Y12282545D01*
X37001666Y12282545D02*
X37001666Y13082545D01*
X37001666Y13082545D02*
X37235000Y13082545D01*
X37235000Y13082545D02*
X37301666Y13044450D01*
X37301666Y13044450D02*
X37335000Y13006355D01*
X37335000Y13006355D02*
X37368333Y12930164D01*
X37368333Y12930164D02*
X37368333Y12853974D01*
X37368333Y12853974D02*
X37335000Y12777783D01*
X37335000Y12777783D02*
X37301666Y12739688D01*
X37301666Y12739688D02*
X37235000Y12701593D01*
X37235000Y12701593D02*
X37001666Y12701593D01*
X38001666Y12815879D02*
X38001666Y12282545D01*
X37835000Y13120640D02*
X37668333Y12549212D01*
X37668333Y12549212D02*
X38101666Y12549212D01*
X39387664Y25550000D02*
X39425760Y25516667D01*
X39425760Y25516667D02*
X39463855Y25416667D01*
X39463855Y25416667D02*
X39463855Y25350000D01*
X39463855Y25350000D02*
X39425760Y25250000D01*
X39425760Y25250000D02*
X39349569Y25183333D01*
X39349569Y25183333D02*
X39273379Y25150000D01*
X39273379Y25150000D02*
X39120998Y25116667D01*
X39120998Y25116667D02*
X39006712Y25116667D01*
X39006712Y25116667D02*
X38854331Y25150000D01*
X38854331Y25150000D02*
X38778140Y25183333D01*
X38778140Y25183333D02*
X38701950Y25250000D01*
X38701950Y25250000D02*
X38663855Y25350000D01*
X38663855Y25350000D02*
X38663855Y25416667D01*
X38663855Y25416667D02*
X38701950Y25516667D01*
X38701950Y25516667D02*
X38740045Y25550000D01*
X39463855Y26216667D02*
X39463855Y25816667D01*
X39463855Y26016667D02*
X38663855Y26016667D01*
X38663855Y26016667D02*
X38778140Y25950000D01*
X38778140Y25950000D02*
X38854331Y25883333D01*
X38854331Y25883333D02*
X38892426Y25816667D01*
X38663855Y26816667D02*
X38663855Y26683334D01*
X38663855Y26683334D02*
X38701950Y26616667D01*
X38701950Y26616667D02*
X38740045Y26583334D01*
X38740045Y26583334D02*
X38854331Y26516667D01*
X38854331Y26516667D02*
X39006712Y26483334D01*
X39006712Y26483334D02*
X39311474Y26483334D01*
X39311474Y26483334D02*
X39387664Y26516667D01*
X39387664Y26516667D02*
X39425760Y26550000D01*
X39425760Y26550000D02*
X39463855Y26616667D01*
X39463855Y26616667D02*
X39463855Y26750000D01*
X39463855Y26750000D02*
X39425760Y26816667D01*
X39425760Y26816667D02*
X39387664Y26850000D01*
X39387664Y26850000D02*
X39311474Y26883334D01*
X39311474Y26883334D02*
X39120998Y26883334D01*
X39120998Y26883334D02*
X39044807Y26850000D01*
X39044807Y26850000D02*
X39006712Y26816667D01*
X39006712Y26816667D02*
X38968617Y26750000D01*
X38968617Y26750000D02*
X38968617Y26616667D01*
X38968617Y26616667D02*
X39006712Y26550000D01*
X39006712Y26550000D02*
X39044807Y26516667D01*
X39044807Y26516667D02*
X39120998Y26483334D01*
X21149999Y22162336D02*
X21116666Y22124240D01*
X21116666Y22124240D02*
X21016666Y22086145D01*
X21016666Y22086145D02*
X20949999Y22086145D01*
X20949999Y22086145D02*
X20849999Y22124240D01*
X20849999Y22124240D02*
X20783333Y22200431D01*
X20783333Y22200431D02*
X20749999Y22276621D01*
X20749999Y22276621D02*
X20716666Y22429002D01*
X20716666Y22429002D02*
X20716666Y22543288D01*
X20716666Y22543288D02*
X20749999Y22695669D01*
X20749999Y22695669D02*
X20783333Y22771860D01*
X20783333Y22771860D02*
X20849999Y22848050D01*
X20849999Y22848050D02*
X20949999Y22886145D01*
X20949999Y22886145D02*
X21016666Y22886145D01*
X21016666Y22886145D02*
X21116666Y22848050D01*
X21116666Y22848050D02*
X21149999Y22809955D01*
X21816666Y22086145D02*
X21416666Y22086145D01*
X21616666Y22086145D02*
X21616666Y22886145D01*
X21616666Y22886145D02*
X21549999Y22771860D01*
X21549999Y22771860D02*
X21483333Y22695669D01*
X21483333Y22695669D02*
X21416666Y22657574D01*
X22483333Y22086145D02*
X22083333Y22086145D01*
X22283333Y22086145D02*
X22283333Y22886145D01*
X22283333Y22886145D02*
X22216666Y22771860D01*
X22216666Y22771860D02*
X22150000Y22695669D01*
X22150000Y22695669D02*
X22083333Y22657574D01*
X38449999Y23162336D02*
X38416666Y23124240D01*
X38416666Y23124240D02*
X38316666Y23086145D01*
X38316666Y23086145D02*
X38249999Y23086145D01*
X38249999Y23086145D02*
X38149999Y23124240D01*
X38149999Y23124240D02*
X38083333Y23200431D01*
X38083333Y23200431D02*
X38049999Y23276621D01*
X38049999Y23276621D02*
X38016666Y23429002D01*
X38016666Y23429002D02*
X38016666Y23543288D01*
X38016666Y23543288D02*
X38049999Y23695669D01*
X38049999Y23695669D02*
X38083333Y23771860D01*
X38083333Y23771860D02*
X38149999Y23848050D01*
X38149999Y23848050D02*
X38249999Y23886145D01*
X38249999Y23886145D02*
X38316666Y23886145D01*
X38316666Y23886145D02*
X38416666Y23848050D01*
X38416666Y23848050D02*
X38449999Y23809955D01*
X39116666Y23086145D02*
X38716666Y23086145D01*
X38916666Y23086145D02*
X38916666Y23886145D01*
X38916666Y23886145D02*
X38849999Y23771860D01*
X38849999Y23771860D02*
X38783333Y23695669D01*
X38783333Y23695669D02*
X38716666Y23657574D01*
X39350000Y23886145D02*
X39783333Y23886145D01*
X39783333Y23886145D02*
X39550000Y23581383D01*
X39550000Y23581383D02*
X39650000Y23581383D01*
X39650000Y23581383D02*
X39716666Y23543288D01*
X39716666Y23543288D02*
X39750000Y23505193D01*
X39750000Y23505193D02*
X39783333Y23429002D01*
X39783333Y23429002D02*
X39783333Y23238526D01*
X39783333Y23238526D02*
X39750000Y23162336D01*
X39750000Y23162336D02*
X39716666Y23124240D01*
X39716666Y23124240D02*
X39650000Y23086145D01*
X39650000Y23086145D02*
X39450000Y23086145D01*
X39450000Y23086145D02*
X39383333Y23124240D01*
X39383333Y23124240D02*
X39350000Y23162336D01*
X24206666Y43140936D02*
X24173333Y43102840D01*
X24173333Y43102840D02*
X24073333Y43064745D01*
X24073333Y43064745D02*
X24006666Y43064745D01*
X24006666Y43064745D02*
X23906666Y43102840D01*
X23906666Y43102840D02*
X23840000Y43179031D01*
X23840000Y43179031D02*
X23806666Y43255221D01*
X23806666Y43255221D02*
X23773333Y43407602D01*
X23773333Y43407602D02*
X23773333Y43521888D01*
X23773333Y43521888D02*
X23806666Y43674269D01*
X23806666Y43674269D02*
X23840000Y43750460D01*
X23840000Y43750460D02*
X23906666Y43826650D01*
X23906666Y43826650D02*
X24006666Y43864745D01*
X24006666Y43864745D02*
X24073333Y43864745D01*
X24073333Y43864745D02*
X24173333Y43826650D01*
X24173333Y43826650D02*
X24206666Y43788555D01*
X24506666Y43064745D02*
X24506666Y43864745D01*
X24506666Y43864745D02*
X24906666Y43064745D01*
X24906666Y43064745D02*
X24906666Y43864745D01*
X25606666Y43064745D02*
X25206666Y43064745D01*
X25406666Y43064745D02*
X25406666Y43864745D01*
X25406666Y43864745D02*
X25339999Y43750460D01*
X25339999Y43750460D02*
X25273333Y43674269D01*
X25273333Y43674269D02*
X25206666Y43636174D01*
X28083332Y32936145D02*
X27849999Y33317098D01*
X27683332Y32936145D02*
X27683332Y33736145D01*
X27683332Y33736145D02*
X27949999Y33736145D01*
X27949999Y33736145D02*
X28016666Y33698050D01*
X28016666Y33698050D02*
X28049999Y33659955D01*
X28049999Y33659955D02*
X28083332Y33583764D01*
X28083332Y33583764D02*
X28083332Y33469479D01*
X28083332Y33469479D02*
X28049999Y33393288D01*
X28049999Y33393288D02*
X28016666Y33355193D01*
X28016666Y33355193D02*
X27949999Y33317098D01*
X27949999Y33317098D02*
X27683332Y33317098D01*
X28749999Y32936145D02*
X28349999Y32936145D01*
X28549999Y32936145D02*
X28549999Y33736145D01*
X28549999Y33736145D02*
X28483332Y33621860D01*
X28483332Y33621860D02*
X28416666Y33545669D01*
X28416666Y33545669D02*
X28349999Y33507574D01*
X28526666Y35008736D02*
X28493333Y34970640D01*
X28493333Y34970640D02*
X28393333Y34932545D01*
X28393333Y34932545D02*
X28326666Y34932545D01*
X28326666Y34932545D02*
X28226666Y34970640D01*
X28226666Y34970640D02*
X28160000Y35046831D01*
X28160000Y35046831D02*
X28126666Y35123021D01*
X28126666Y35123021D02*
X28093333Y35275402D01*
X28093333Y35275402D02*
X28093333Y35389688D01*
X28093333Y35389688D02*
X28126666Y35542069D01*
X28126666Y35542069D02*
X28160000Y35618260D01*
X28160000Y35618260D02*
X28226666Y35694450D01*
X28226666Y35694450D02*
X28326666Y35732545D01*
X28326666Y35732545D02*
X28393333Y35732545D01*
X28393333Y35732545D02*
X28493333Y35694450D01*
X28493333Y35694450D02*
X28526666Y35656355D01*
X28760000Y35732545D02*
X29193333Y35732545D01*
X29193333Y35732545D02*
X28960000Y35427783D01*
X28960000Y35427783D02*
X29060000Y35427783D01*
X29060000Y35427783D02*
X29126666Y35389688D01*
X29126666Y35389688D02*
X29160000Y35351593D01*
X29160000Y35351593D02*
X29193333Y35275402D01*
X29193333Y35275402D02*
X29193333Y35084926D01*
X29193333Y35084926D02*
X29160000Y35008736D01*
X29160000Y35008736D02*
X29126666Y34970640D01*
X29126666Y34970640D02*
X29060000Y34932545D01*
X29060000Y34932545D02*
X28860000Y34932545D01*
X28860000Y34932545D02*
X28793333Y34970640D01*
X28793333Y34970640D02*
X28760000Y35008736D01*
X25565000Y28083736D02*
X25531667Y28045640D01*
X25531667Y28045640D02*
X25431667Y28007545D01*
X25431667Y28007545D02*
X25365000Y28007545D01*
X25365000Y28007545D02*
X25265000Y28045640D01*
X25265000Y28045640D02*
X25198334Y28121831D01*
X25198334Y28121831D02*
X25165000Y28198021D01*
X25165000Y28198021D02*
X25131667Y28350402D01*
X25131667Y28350402D02*
X25131667Y28464688D01*
X25131667Y28464688D02*
X25165000Y28617069D01*
X25165000Y28617069D02*
X25198334Y28693260D01*
X25198334Y28693260D02*
X25265000Y28769450D01*
X25265000Y28769450D02*
X25365000Y28807545D01*
X25365000Y28807545D02*
X25431667Y28807545D01*
X25431667Y28807545D02*
X25531667Y28769450D01*
X25531667Y28769450D02*
X25565000Y28731355D01*
X25831667Y28731355D02*
X25865000Y28769450D01*
X25865000Y28769450D02*
X25931667Y28807545D01*
X25931667Y28807545D02*
X26098334Y28807545D01*
X26098334Y28807545D02*
X26165000Y28769450D01*
X26165000Y28769450D02*
X26198334Y28731355D01*
X26198334Y28731355D02*
X26231667Y28655164D01*
X26231667Y28655164D02*
X26231667Y28578974D01*
X26231667Y28578974D02*
X26198334Y28464688D01*
X26198334Y28464688D02*
X25798334Y28007545D01*
X25798334Y28007545D02*
X26231667Y28007545D01*
X29466666Y16607545D02*
X29466666Y15959926D01*
X29466666Y15959926D02*
X29500000Y15883736D01*
X29500000Y15883736D02*
X29533333Y15845640D01*
X29533333Y15845640D02*
X29600000Y15807545D01*
X29600000Y15807545D02*
X29733333Y15807545D01*
X29733333Y15807545D02*
X29800000Y15845640D01*
X29800000Y15845640D02*
X29833333Y15883736D01*
X29833333Y15883736D02*
X29866666Y15959926D01*
X29866666Y15959926D02*
X29866666Y16607545D01*
X30566666Y15807545D02*
X30166666Y15807545D01*
X30366666Y15807545D02*
X30366666Y16607545D01*
X30366666Y16607545D02*
X30299999Y16493260D01*
X30299999Y16493260D02*
X30233333Y16417069D01*
X30233333Y16417069D02*
X30166666Y16378974D01*
X22487664Y20283334D02*
X22525760Y20250001D01*
X22525760Y20250001D02*
X22563855Y20150001D01*
X22563855Y20150001D02*
X22563855Y20083334D01*
X22563855Y20083334D02*
X22525760Y19983334D01*
X22525760Y19983334D02*
X22449569Y19916667D01*
X22449569Y19916667D02*
X22373379Y19883334D01*
X22373379Y19883334D02*
X22220998Y19850001D01*
X22220998Y19850001D02*
X22106712Y19850001D01*
X22106712Y19850001D02*
X21954331Y19883334D01*
X21954331Y19883334D02*
X21878140Y19916667D01*
X21878140Y19916667D02*
X21801950Y19983334D01*
X21801950Y19983334D02*
X21763855Y20083334D01*
X21763855Y20083334D02*
X21763855Y20150001D01*
X21763855Y20150001D02*
X21801950Y20250001D01*
X21801950Y20250001D02*
X21840045Y20283334D01*
X21763855Y20516667D02*
X21763855Y20983334D01*
X21763855Y20983334D02*
X22563855Y20683334D01*
%TO.C,C15*%
X31240000Y28759420D02*
X31240000Y29040580D01*
X32260000Y28759420D02*
X32260000Y29040580D01*
%TO.C,C9*%
X34459420Y16210000D02*
X34740580Y16210000D01*
X34459420Y15190000D02*
X34740580Y15190000D01*
%TO.C,R2*%
X24272936Y35110000D02*
X25727064Y35110000D01*
X24272936Y33290000D02*
X25727064Y33290000D01*
%TO.C,R4*%
X22662742Y16722500D02*
X23137258Y16722500D01*
X22662742Y15677500D02*
X23137258Y15677500D01*
%TO.C,C6*%
X15738748Y18735000D02*
X16261252Y18735000D01*
X15738748Y17265000D02*
X16261252Y17265000D01*
%TO.C,L1*%
X27050000Y24650000D02*
X27050000Y28550000D01*
X29950000Y24650000D02*
X29950000Y28550000D01*
%TO.C,Y1*%
X36130000Y28800000D02*
X32830000Y28800000D01*
X32830000Y28800000D02*
X32830000Y24800000D01*
%TO.C,FB2*%
X38162779Y21390000D02*
X37837221Y21390000D01*
X38162779Y22410000D02*
X37837221Y22410000D01*
%TO.C,C4*%
X36038748Y20735000D02*
X36561252Y20735000D01*
X36038748Y19265000D02*
X36561252Y19265000D01*
%TO.C,C8*%
X24890000Y19359420D02*
X24890000Y19640580D01*
X25910000Y19359420D02*
X25910000Y19640580D01*
%TO.C,J1*%
X57786000Y7230000D02*
X57786000Y5900000D01*
X56456000Y7230000D02*
X57786000Y7230000D01*
X55186000Y7230000D02*
X6866000Y7230000D01*
X55186000Y7230000D02*
X55186000Y4630000D01*
X6866000Y7230000D02*
X6866000Y2030000D01*
X57786000Y4630000D02*
X57786000Y2030000D01*
X55186000Y4630000D02*
X57786000Y4630000D01*
X57786000Y2030000D02*
X6866000Y2030000D01*
%TO.C,C12*%
X25340580Y23440000D02*
X25059420Y23440000D01*
X25340580Y24460000D02*
X25059420Y24460000D01*
%TO.C,FB3*%
X21337221Y19235000D02*
X21662779Y19235000D01*
X21337221Y18215000D02*
X21662779Y18215000D01*
%TO.C,R5*%
X26182742Y9322500D02*
X26657258Y9322500D01*
X26182742Y8277500D02*
X26657258Y8277500D01*
%TO.C,C1*%
X28765000Y30538748D02*
X28765000Y31061252D01*
X30235000Y30538748D02*
X30235000Y31061252D01*
%TO.C,C14*%
X34459420Y22947500D02*
X34740580Y22947500D01*
X34459420Y21927500D02*
X34740580Y21927500D01*
%TO.C,R6*%
X25562742Y14722500D02*
X26037258Y14722500D01*
X25562742Y13677500D02*
X26037258Y13677500D01*
%TO.C,R3*%
X30672936Y37735000D02*
X31127064Y37735000D01*
X30672936Y36265000D02*
X31127064Y36265000D01*
%TO.C,C10*%
X34459420Y17810000D02*
X34740580Y17810000D01*
X34459420Y16790000D02*
X34740580Y16790000D01*
%TO.C,FB1*%
X25037221Y25960000D02*
X25362779Y25960000D01*
X25037221Y24940000D02*
X25362779Y24940000D01*
%TO.C,FB4*%
X34762779Y13590000D02*
X34437221Y13590000D01*
X34762779Y14610000D02*
X34437221Y14610000D01*
%TO.C,C16*%
X37460000Y25890580D02*
X37460000Y25609420D01*
X36440000Y25890580D02*
X36440000Y25609420D01*
%TO.C,C11*%
X25340580Y21940000D02*
X25059420Y21940000D01*
X25340580Y22960000D02*
X25059420Y22960000D01*
%TO.C,C13*%
X34459420Y24450000D02*
X34740580Y24450000D01*
X34459420Y23430000D02*
X34740580Y23430000D01*
%TO.C,CN1*%
X33115000Y39340000D02*
X33115000Y48760000D01*
X33115000Y39340000D02*
X31455000Y39340000D01*
X33115000Y45450000D02*
X16265000Y45450000D01*
X33115000Y48760000D02*
X16265000Y48760000D01*
X30705000Y38050000D02*
X30105000Y38050000D01*
X30405000Y38650000D02*
X30705000Y38050000D01*
X30105000Y38050000D02*
X30405000Y38650000D01*
X29355000Y39340000D02*
X27645000Y39340000D01*
X25545000Y39340000D02*
X23835000Y39340000D01*
X21735000Y39340000D02*
X20025000Y39340000D01*
X16265000Y39340000D02*
X17925000Y39340000D01*
X16265000Y48760000D02*
X16265000Y39340000D01*
%TO.C,R1*%
X32727064Y33290000D02*
X31272936Y33290000D01*
X32727064Y35110000D02*
X31272936Y35110000D01*
%TO.C,C3*%
X26361252Y36265000D02*
X25838748Y36265000D01*
X26361252Y37735000D02*
X25838748Y37735000D01*
%TO.C,R7*%
X31477500Y24382742D02*
X31477500Y24857258D01*
X32522500Y24382742D02*
X32522500Y24857258D01*
%TO.C,C2*%
X26765000Y30538748D02*
X26765000Y31061252D01*
X28235000Y30538748D02*
X28235000Y31061252D01*
%TO.C,C5*%
X34360000Y19690580D02*
X34360000Y19409420D01*
X33340000Y19690580D02*
X33340000Y19409420D01*
%TO.C,U1*%
X27390000Y22135000D02*
X27390000Y22370000D01*
X27390000Y17390000D02*
X27390000Y17865000D01*
X27865000Y22610000D02*
X27690000Y22610000D01*
X27865000Y17390000D02*
X27390000Y17390000D01*
X32135000Y22610000D02*
X32610000Y22610000D01*
X32135000Y17390000D02*
X32610000Y17390000D01*
X32610000Y22610000D02*
X32610000Y22135000D01*
X32610000Y17390000D02*
X32610000Y17865000D01*
X27390000Y22610000D02*
X27150000Y22940000D01*
X27630000Y22940000D01*
X27390000Y22610000D01*
G36*
X27390000Y22610000D02*
G01*
X27150000Y22940000D01*
X27630000Y22940000D01*
X27390000Y22610000D01*
G37*
%TO.C,C7*%
X23290000Y19359420D02*
X23290000Y19640580D01*
X24310000Y19359420D02*
X24310000Y19640580D01*
%TD*%
M02*
