%TF.GenerationSoftware,KiCad,Pcbnew,7.0.11+dfsg-1build4*%
%TF.CreationDate,2026-10-07T10:07:03+09:00*%
%TF.ProjectId,t1s_hat,7431735f-6861-4742-9e6b-696361645f70,rev?*%
%TF.SameCoordinates,Original*%
%TF.FileFunction,Copper,L3,Inr*%
%TF.FilePolarity,Positive*%
%FSLAX46Y46*%
G04 Gerber Fmt 4.6, Leading zero omitted, Abs format (unit mm)*
G04 Created by KiCad (PCBNEW 7.0.11+dfsg-1build4) date 2026-10-07 10:07:03*
%MOMM*%
%LPD*%
G01*
G04 APERTURE LIST*
%TA.AperFunction,ComponentPad*%
%ADD10C,2.100000*%
%TD*%
%TA.AperFunction,ComponentPad*%
%ADD11R,2.100000X2.100000*%
%TD*%
%TA.AperFunction,ComponentPad*%
%ADD12R,1.700000X1.700000*%
%TD*%
%TA.AperFunction,ComponentPad*%
%ADD13O,1.700000X1.700000*%
%TD*%
%TA.AperFunction,HeatsinkPad*%
%ADD14C,0.500000*%
%TD*%
%TA.AperFunction,ViaPad*%
%ADD15C,0.450000*%
%TD*%
%TA.AperFunction,ViaPad*%
%ADD16C,0.600000*%
%TD*%
G04 APERTURE END LIST*
D10*
%TO.N,BUS_P*%
%TO.C,CN1*%
X30270000Y41600000D03*
D11*
X30270000Y46680000D03*
D10*
%TO.N,BUS_N*%
X27730000Y41600000D03*
X27730000Y46680000D03*
X25190000Y41600000D03*
X25190000Y46680000D03*
%TO.N,BUS_P*%
X22650000Y41600000D03*
X22650000Y46680000D03*
%TD*%
D12*
%TO.N,+3V3*%
%TO.C,J1*%
X56456000Y5900000D03*
D13*
%TO.N,N/C*%
X56456000Y3360000D03*
X53916000Y5900000D03*
X53916000Y3360000D03*
X51376000Y5900000D03*
%TO.N,GND*%
X51376000Y3360000D03*
%TO.N,N/C*%
X48836000Y5900000D03*
X48836000Y3360000D03*
%TO.N,GND*%
X46296000Y5900000D03*
%TO.N,N/C*%
X46296000Y3360000D03*
X43756000Y5900000D03*
X43756000Y3360000D03*
%TO.N,PPS*%
X41216000Y5900000D03*
%TO.N,GND*%
X41216000Y3360000D03*
%TO.N,RESET_N*%
X38676000Y5900000D03*
%TO.N,IRQ_N*%
X38676000Y3360000D03*
%TO.N,+3V3*%
X36136000Y5900000D03*
%TO.N,N/C*%
X36136000Y3360000D03*
%TO.N,SPI_MOSI*%
X33596000Y5900000D03*
%TO.N,GND*%
X33596000Y3360000D03*
%TO.N,SPI_MISO*%
X31056000Y5900000D03*
%TO.N,N/C*%
X31056000Y3360000D03*
%TO.N,SPI_SCLK*%
X28516000Y5900000D03*
%TO.N,N/C*%
X28516000Y3360000D03*
%TO.N,GND*%
X25976000Y5900000D03*
%TO.N,N/C*%
X25976000Y3360000D03*
%TO.N,SPI_CS_N*%
X23436000Y5900000D03*
%TO.N,N/C*%
X23436000Y3360000D03*
X20896000Y5900000D03*
%TO.N,GND*%
X20896000Y3360000D03*
%TO.N,N/C*%
X18356000Y5900000D03*
X18356000Y3360000D03*
X15816000Y5900000D03*
%TO.N,GND*%
X15816000Y3360000D03*
%TO.N,N/C*%
X13276000Y5900000D03*
X13276000Y3360000D03*
X10736000Y5900000D03*
X10736000Y3360000D03*
%TO.N,GND*%
X8196000Y5900000D03*
%TO.N,N/C*%
X8196000Y3360000D03*
%TD*%
D14*
%TO.N,GND*%
%TO.C,U1*%
X28550000Y21450000D03*
X28550000Y20000000D03*
X28550000Y18550000D03*
X30000000Y21450000D03*
X30000000Y20000000D03*
X30000000Y18550000D03*
X31450000Y21450000D03*
X31450000Y20000000D03*
X31450000Y18550000D03*
%TD*%
D15*
%TO.N,+3V3*%
X36300000Y14100000D03*
X24975000Y13200000D03*
X23450000Y25450000D03*
X39700000Y21900000D03*
X22075000Y15200000D03*
X24700000Y8800000D03*
X19800000Y18725000D03*
X15050000Y19300000D03*
%TO.N,GND*%
X31750000Y16700000D03*
X23800000Y21250000D03*
X23500000Y22450000D03*
D16*
X40100000Y37000000D03*
X17900000Y18000000D03*
X25150000Y35600000D03*
D15*
X32720000Y26200000D03*
X36350000Y15700000D03*
D16*
X31812000Y35600000D03*
X38250000Y20000000D03*
D15*
X23500000Y23950000D03*
D16*
X18500000Y37000000D03*
D15*
X36350000Y17300000D03*
X35329999Y29050000D03*
D16*
X27600000Y23200000D03*
D15*
X36350000Y22800000D03*
X25400000Y21250000D03*
X36350000Y23940000D03*
X37850000Y24975000D03*
X31750000Y30600000D03*
X34850000Y18700000D03*
%TO.N,PPS*%
X40000000Y12000000D03*
X33100000Y21250000D03*
%TO.N,RESET_N*%
X24000000Y16900000D03*
%TO.N,IRQ_N*%
X27246000Y15500000D03*
%TO.N,SPI_MISO*%
X28350000Y15500000D03*
%TO.N,VDDA*%
X26750000Y23950000D03*
X29750000Y23400000D03*
%TD*%
%TA.AperFunction,Conductor*%
%TO.N,+3V3*%
G36*
X63222231Y48689366D02*
G01*
X63516821Y48671546D01*
X63525673Y48670472D01*
X63813784Y48617673D01*
X63822435Y48615540D01*
X64102062Y48528405D01*
X64110401Y48525243D01*
X64377497Y48405033D01*
X64385409Y48400880D01*
X64636046Y48249364D01*
X64643400Y48244288D01*
X64873951Y48063664D01*
X64880640Y48057738D01*
X65087737Y47850641D01*
X65093663Y47843952D01*
X65274287Y47613401D01*
X65279363Y47606047D01*
X65430879Y47355410D01*
X65435032Y47347498D01*
X65555239Y47080410D01*
X65558407Y47072054D01*
X65645536Y46792448D01*
X65647675Y46783772D01*
X65700469Y46495683D01*
X65701546Y46486812D01*
X65719365Y46192232D01*
X65719500Y46187764D01*
X65719500Y44074000D01*
X65702187Y44026434D01*
X65658350Y44001124D01*
X65645500Y44000000D01*
X58000000Y44000000D01*
X58000000Y22000000D01*
X65645500Y22000000D01*
X65693066Y21982687D01*
X65718376Y21938850D01*
X65719500Y21926000D01*
X65719500Y3002237D01*
X65719365Y2997769D01*
X65701546Y2703189D01*
X65700469Y2694318D01*
X65647675Y2406229D01*
X65645536Y2397553D01*
X65558407Y2117947D01*
X65555239Y2109591D01*
X65435032Y1842503D01*
X65430879Y1834591D01*
X65279363Y1583954D01*
X65274287Y1576600D01*
X65093663Y1346049D01*
X65087737Y1339360D01*
X64880640Y1132263D01*
X64873951Y1126337D01*
X64643400Y945713D01*
X64636046Y940637D01*
X64385409Y789121D01*
X64377497Y784968D01*
X64110409Y664761D01*
X64102053Y661593D01*
X63822447Y574464D01*
X63813771Y572325D01*
X63525682Y519531D01*
X63516811Y518454D01*
X63222232Y500635D01*
X63217764Y500500D01*
X3002236Y500500D01*
X2997768Y500635D01*
X2703188Y518454D01*
X2694317Y519531D01*
X2406228Y572325D01*
X2397552Y574464D01*
X2117946Y661593D01*
X2109590Y664761D01*
X1842502Y784968D01*
X1834590Y789121D01*
X1583953Y940637D01*
X1576599Y945713D01*
X1346048Y1126337D01*
X1339359Y1132263D01*
X1132262Y1339360D01*
X1126336Y1346049D01*
X945712Y1576600D01*
X940636Y1583954D01*
X789120Y1834591D01*
X784967Y1842503D01*
X664757Y2109599D01*
X661595Y2117938D01*
X574460Y2397565D01*
X572327Y2406216D01*
X519528Y2694327D01*
X518454Y2703179D01*
X500635Y2997769D01*
X500500Y3002237D01*
X500500Y4630000D01*
X1699474Y4630000D01*
X1719548Y4374929D01*
X1779276Y4126145D01*
X1779277Y4126141D01*
X1779278Y4126140D01*
X1787450Y4106410D01*
X1877192Y3889755D01*
X1877196Y3889748D01*
X1954281Y3763957D01*
X2010877Y3671601D01*
X2177044Y3477044D01*
X2371601Y3310877D01*
X2589757Y3177191D01*
X2826140Y3079278D01*
X3074930Y3019548D01*
X3266137Y3004500D01*
X3393863Y3004500D01*
X3585070Y3019548D01*
X3833860Y3079278D01*
X4070243Y3177191D01*
X4288399Y3310877D01*
X4345915Y3360000D01*
X7140417Y3360000D01*
X7160700Y3154066D01*
X7220768Y2956046D01*
X7318315Y2773550D01*
X7449590Y2613590D01*
X7609550Y2482315D01*
X7792046Y2384768D01*
X7990066Y2324700D01*
X8196000Y2304417D01*
X8401934Y2324700D01*
X8599954Y2384768D01*
X8782450Y2482315D01*
X8942410Y2613590D01*
X9073685Y2773550D01*
X9171232Y2956046D01*
X9231300Y3154066D01*
X9251583Y3360000D01*
X9680417Y3360000D01*
X9700700Y3154066D01*
X9760768Y2956046D01*
X9858315Y2773550D01*
X9989590Y2613590D01*
X10149550Y2482315D01*
X10332046Y2384768D01*
X10530066Y2324700D01*
X10736000Y2304417D01*
X10941934Y2324700D01*
X11139954Y2384768D01*
X11322450Y2482315D01*
X11482410Y2613590D01*
X11613685Y2773550D01*
X11711232Y2956046D01*
X11771300Y3154066D01*
X11791583Y3360000D01*
X12220417Y3360000D01*
X12240700Y3154066D01*
X12300768Y2956046D01*
X12398315Y2773550D01*
X12529590Y2613590D01*
X12689550Y2482315D01*
X12872046Y2384768D01*
X13070066Y2324700D01*
X13276000Y2304417D01*
X13481934Y2324700D01*
X13679954Y2384768D01*
X13862450Y2482315D01*
X14022410Y2613590D01*
X14153685Y2773550D01*
X14251232Y2956046D01*
X14311300Y3154066D01*
X14331583Y3360000D01*
X14760417Y3360000D01*
X14780700Y3154066D01*
X14840768Y2956046D01*
X14938315Y2773550D01*
X15069590Y2613590D01*
X15229550Y2482315D01*
X15412046Y2384768D01*
X15610066Y2324700D01*
X15816000Y2304417D01*
X16021934Y2324700D01*
X16219954Y2384768D01*
X16402450Y2482315D01*
X16562410Y2613590D01*
X16693685Y2773550D01*
X16791232Y2956046D01*
X16851300Y3154066D01*
X16871583Y3360000D01*
X17300417Y3360000D01*
X17320700Y3154066D01*
X17380768Y2956046D01*
X17478315Y2773550D01*
X17609590Y2613590D01*
X17769550Y2482315D01*
X17952046Y2384768D01*
X18150066Y2324700D01*
X18356000Y2304417D01*
X18561934Y2324700D01*
X18759954Y2384768D01*
X18942450Y2482315D01*
X19102410Y2613590D01*
X19233685Y2773550D01*
X19331232Y2956046D01*
X19391300Y3154066D01*
X19411583Y3360000D01*
X19840417Y3360000D01*
X19860700Y3154066D01*
X19920768Y2956046D01*
X20018315Y2773550D01*
X20149590Y2613590D01*
X20309550Y2482315D01*
X20492046Y2384768D01*
X20690066Y2324700D01*
X20896000Y2304417D01*
X21101934Y2324700D01*
X21299954Y2384768D01*
X21482450Y2482315D01*
X21642410Y2613590D01*
X21773685Y2773550D01*
X21871232Y2956046D01*
X21931300Y3154066D01*
X21951583Y3360000D01*
X22380417Y3360000D01*
X22400700Y3154066D01*
X22460768Y2956046D01*
X22558315Y2773550D01*
X22689590Y2613590D01*
X22849550Y2482315D01*
X23032046Y2384768D01*
X23230066Y2324700D01*
X23436000Y2304417D01*
X23641934Y2324700D01*
X23839954Y2384768D01*
X24022450Y2482315D01*
X24182410Y2613590D01*
X24313685Y2773550D01*
X24411232Y2956046D01*
X24471300Y3154066D01*
X24491583Y3360000D01*
X24920417Y3360000D01*
X24940700Y3154066D01*
X25000768Y2956046D01*
X25098315Y2773550D01*
X25229590Y2613590D01*
X25389550Y2482315D01*
X25572046Y2384768D01*
X25770066Y2324700D01*
X25976000Y2304417D01*
X26181934Y2324700D01*
X26379954Y2384768D01*
X26562450Y2482315D01*
X26722410Y2613590D01*
X26853685Y2773550D01*
X26951232Y2956046D01*
X27011300Y3154066D01*
X27031583Y3360000D01*
X27460417Y3360000D01*
X27480700Y3154066D01*
X27540768Y2956046D01*
X27638315Y2773550D01*
X27769590Y2613590D01*
X27929550Y2482315D01*
X28112046Y2384768D01*
X28310066Y2324700D01*
X28516000Y2304417D01*
X28721934Y2324700D01*
X28919954Y2384768D01*
X29102450Y2482315D01*
X29262410Y2613590D01*
X29393685Y2773550D01*
X29491232Y2956046D01*
X29551300Y3154066D01*
X29571583Y3360000D01*
X30000417Y3360000D01*
X30020700Y3154066D01*
X30080768Y2956046D01*
X30178315Y2773550D01*
X30309590Y2613590D01*
X30469550Y2482315D01*
X30652046Y2384768D01*
X30850066Y2324700D01*
X31056000Y2304417D01*
X31261934Y2324700D01*
X31459954Y2384768D01*
X31642450Y2482315D01*
X31802410Y2613590D01*
X31933685Y2773550D01*
X32031232Y2956046D01*
X32091300Y3154066D01*
X32111583Y3360000D01*
X32540417Y3360000D01*
X32560700Y3154066D01*
X32620768Y2956046D01*
X32718315Y2773550D01*
X32849590Y2613590D01*
X33009550Y2482315D01*
X33192046Y2384768D01*
X33390066Y2324700D01*
X33596000Y2304417D01*
X33801934Y2324700D01*
X33999954Y2384768D01*
X34182450Y2482315D01*
X34342410Y2613590D01*
X34473685Y2773550D01*
X34571232Y2956046D01*
X34631300Y3154066D01*
X34651583Y3360000D01*
X35080417Y3360000D01*
X35100700Y3154066D01*
X35160768Y2956046D01*
X35258315Y2773550D01*
X35389590Y2613590D01*
X35549550Y2482315D01*
X35732046Y2384768D01*
X35930066Y2324700D01*
X36136000Y2304417D01*
X36341934Y2324700D01*
X36539954Y2384768D01*
X36722450Y2482315D01*
X36882410Y2613590D01*
X37013685Y2773550D01*
X37111232Y2956046D01*
X37171300Y3154066D01*
X37191583Y3360000D01*
X37620417Y3360000D01*
X37640700Y3154066D01*
X37700768Y2956046D01*
X37798315Y2773550D01*
X37929590Y2613590D01*
X38089550Y2482315D01*
X38272046Y2384768D01*
X38470066Y2324700D01*
X38676000Y2304417D01*
X38881934Y2324700D01*
X39079954Y2384768D01*
X39262450Y2482315D01*
X39422410Y2613590D01*
X39553685Y2773550D01*
X39651232Y2956046D01*
X39711300Y3154066D01*
X39731583Y3360000D01*
X40160417Y3360000D01*
X40180700Y3154066D01*
X40240768Y2956046D01*
X40338315Y2773550D01*
X40469590Y2613590D01*
X40629550Y2482315D01*
X40812046Y2384768D01*
X41010066Y2324700D01*
X41216000Y2304417D01*
X41421934Y2324700D01*
X41619954Y2384768D01*
X41802450Y2482315D01*
X41962410Y2613590D01*
X42093685Y2773550D01*
X42191232Y2956046D01*
X42251300Y3154066D01*
X42271583Y3360000D01*
X42700417Y3360000D01*
X42720700Y3154066D01*
X42780768Y2956046D01*
X42878315Y2773550D01*
X43009590Y2613590D01*
X43169550Y2482315D01*
X43352046Y2384768D01*
X43550066Y2324700D01*
X43756000Y2304417D01*
X43961934Y2324700D01*
X44159954Y2384768D01*
X44342450Y2482315D01*
X44502410Y2613590D01*
X44633685Y2773550D01*
X44731232Y2956046D01*
X44791300Y3154066D01*
X44811583Y3360000D01*
X45240417Y3360000D01*
X45260700Y3154066D01*
X45320768Y2956046D01*
X45418315Y2773550D01*
X45549590Y2613590D01*
X45709550Y2482315D01*
X45892046Y2384768D01*
X46090066Y2324700D01*
X46296000Y2304417D01*
X46501934Y2324700D01*
X46699954Y2384768D01*
X46882450Y2482315D01*
X47042410Y2613590D01*
X47173685Y2773550D01*
X47271232Y2956046D01*
X47331300Y3154066D01*
X47351583Y3360000D01*
X47780417Y3360000D01*
X47800700Y3154066D01*
X47860768Y2956046D01*
X47958315Y2773550D01*
X48089590Y2613590D01*
X48249550Y2482315D01*
X48432046Y2384768D01*
X48630066Y2324700D01*
X48836000Y2304417D01*
X49041934Y2324700D01*
X49239954Y2384768D01*
X49422450Y2482315D01*
X49582410Y2613590D01*
X49713685Y2773550D01*
X49811232Y2956046D01*
X49871300Y3154066D01*
X49891583Y3360000D01*
X50320417Y3360000D01*
X50340700Y3154066D01*
X50400768Y2956046D01*
X50498315Y2773550D01*
X50629590Y2613590D01*
X50789550Y2482315D01*
X50972046Y2384768D01*
X51170066Y2324700D01*
X51376000Y2304417D01*
X51581934Y2324700D01*
X51779954Y2384768D01*
X51962450Y2482315D01*
X52122410Y2613590D01*
X52253685Y2773550D01*
X52351232Y2956046D01*
X52411300Y3154066D01*
X52431583Y3360000D01*
X52860417Y3360000D01*
X52880700Y3154066D01*
X52940768Y2956046D01*
X53038315Y2773550D01*
X53169590Y2613590D01*
X53329550Y2482315D01*
X53512046Y2384768D01*
X53710066Y2324700D01*
X53916000Y2304417D01*
X54121934Y2324700D01*
X54319954Y2384768D01*
X54502450Y2482315D01*
X54662410Y2613590D01*
X54793685Y2773550D01*
X54891232Y2956046D01*
X54951300Y3154066D01*
X54971583Y3360000D01*
X55400417Y3360000D01*
X55420700Y3154066D01*
X55480768Y2956046D01*
X55578315Y2773550D01*
X55709590Y2613590D01*
X55869550Y2482315D01*
X56052046Y2384768D01*
X56250066Y2324700D01*
X56456000Y2304417D01*
X56661934Y2324700D01*
X56859954Y2384768D01*
X57042450Y2482315D01*
X57202410Y2613590D01*
X57333685Y2773550D01*
X57431232Y2956046D01*
X57491300Y3154066D01*
X57511583Y3360000D01*
X57491300Y3565934D01*
X57431232Y3763954D01*
X57333685Y3946450D01*
X57202410Y4106410D01*
X57042450Y4237685D01*
X56859954Y4335232D01*
X56729086Y4374930D01*
X56661935Y4395300D01*
X56456000Y4415583D01*
X56250064Y4395300D01*
X56052043Y4335231D01*
X55869549Y4237685D01*
X55709590Y4106411D01*
X55709589Y4106410D01*
X55578315Y3946451D01*
X55480769Y3763957D01*
X55420700Y3565936D01*
X55420700Y3565934D01*
X55400417Y3360000D01*
X54971583Y3360000D01*
X54951300Y3565934D01*
X54891232Y3763954D01*
X54793685Y3946450D01*
X54662410Y4106410D01*
X54502450Y4237685D01*
X54319954Y4335232D01*
X54189086Y4374930D01*
X54121935Y4395300D01*
X53916000Y4415583D01*
X53710064Y4395300D01*
X53512043Y4335231D01*
X53329549Y4237685D01*
X53169590Y4106411D01*
X53169589Y4106410D01*
X53038315Y3946451D01*
X52940769Y3763957D01*
X52880700Y3565936D01*
X52880700Y3565934D01*
X52860417Y3360000D01*
X52431583Y3360000D01*
X52411300Y3565934D01*
X52351232Y3763954D01*
X52253685Y3946450D01*
X52122410Y4106410D01*
X51962450Y4237685D01*
X51779954Y4335232D01*
X51649086Y4374930D01*
X51581935Y4395300D01*
X51376000Y4415583D01*
X51170064Y4395300D01*
X50972043Y4335231D01*
X50789549Y4237685D01*
X50629590Y4106411D01*
X50629589Y4106410D01*
X50498315Y3946451D01*
X50400769Y3763957D01*
X50340700Y3565936D01*
X50340700Y3565934D01*
X50320417Y3360000D01*
X49891583Y3360000D01*
X49871300Y3565934D01*
X49811232Y3763954D01*
X49713685Y3946450D01*
X49582410Y4106410D01*
X49422450Y4237685D01*
X49239954Y4335232D01*
X49109086Y4374930D01*
X49041935Y4395300D01*
X48836000Y4415583D01*
X48630064Y4395300D01*
X48432043Y4335231D01*
X48249549Y4237685D01*
X48089590Y4106411D01*
X48089589Y4106410D01*
X47958315Y3946451D01*
X47860769Y3763957D01*
X47800700Y3565936D01*
X47800700Y3565934D01*
X47780417Y3360000D01*
X47351583Y3360000D01*
X47331300Y3565934D01*
X47271232Y3763954D01*
X47173685Y3946450D01*
X47042410Y4106410D01*
X46882450Y4237685D01*
X46699954Y4335232D01*
X46569086Y4374930D01*
X46501935Y4395300D01*
X46296000Y4415583D01*
X46090064Y4395300D01*
X45892043Y4335231D01*
X45709549Y4237685D01*
X45549590Y4106411D01*
X45549589Y4106410D01*
X45418315Y3946451D01*
X45320769Y3763957D01*
X45260700Y3565936D01*
X45260700Y3565934D01*
X45240417Y3360000D01*
X44811583Y3360000D01*
X44791300Y3565934D01*
X44731232Y3763954D01*
X44633685Y3946450D01*
X44502410Y4106410D01*
X44342450Y4237685D01*
X44159954Y4335232D01*
X44029086Y4374930D01*
X43961935Y4395300D01*
X43756000Y4415583D01*
X43550064Y4395300D01*
X43352043Y4335231D01*
X43169549Y4237685D01*
X43009590Y4106411D01*
X43009589Y4106410D01*
X42878315Y3946451D01*
X42780769Y3763957D01*
X42720700Y3565936D01*
X42720700Y3565934D01*
X42700417Y3360000D01*
X42271583Y3360000D01*
X42251300Y3565934D01*
X42191232Y3763954D01*
X42093685Y3946450D01*
X41962410Y4106410D01*
X41802450Y4237685D01*
X41619954Y4335232D01*
X41489086Y4374930D01*
X41421935Y4395300D01*
X41216000Y4415583D01*
X41010064Y4395300D01*
X40812043Y4335231D01*
X40629549Y4237685D01*
X40469590Y4106411D01*
X40469589Y4106410D01*
X40338315Y3946451D01*
X40240769Y3763957D01*
X40180700Y3565936D01*
X40180700Y3565934D01*
X40160417Y3360000D01*
X39731583Y3360000D01*
X39711300Y3565934D01*
X39651232Y3763954D01*
X39553685Y3946450D01*
X39422410Y4106410D01*
X39262450Y4237685D01*
X39079954Y4335232D01*
X38949086Y4374930D01*
X38881935Y4395300D01*
X38676000Y4415583D01*
X38470064Y4395300D01*
X38272043Y4335231D01*
X38089549Y4237685D01*
X37929590Y4106411D01*
X37929589Y4106410D01*
X37798315Y3946451D01*
X37700769Y3763957D01*
X37640700Y3565936D01*
X37640700Y3565934D01*
X37620417Y3360000D01*
X37191583Y3360000D01*
X37171300Y3565934D01*
X37111232Y3763954D01*
X37013685Y3946450D01*
X36882410Y4106410D01*
X36722450Y4237685D01*
X36539954Y4335232D01*
X36409086Y4374930D01*
X36341935Y4395300D01*
X36136000Y4415583D01*
X35930064Y4395300D01*
X35732043Y4335231D01*
X35549549Y4237685D01*
X35389590Y4106411D01*
X35389589Y4106410D01*
X35258315Y3946451D01*
X35160769Y3763957D01*
X35100700Y3565936D01*
X35100700Y3565934D01*
X35080417Y3360000D01*
X34651583Y3360000D01*
X34631300Y3565934D01*
X34571232Y3763954D01*
X34473685Y3946450D01*
X34342410Y4106410D01*
X34182450Y4237685D01*
X33999954Y4335232D01*
X33869086Y4374930D01*
X33801935Y4395300D01*
X33596000Y4415583D01*
X33390064Y4395300D01*
X33192043Y4335231D01*
X33009549Y4237685D01*
X32849590Y4106411D01*
X32849589Y4106410D01*
X32718315Y3946451D01*
X32620769Y3763957D01*
X32560700Y3565936D01*
X32560700Y3565934D01*
X32540417Y3360000D01*
X32111583Y3360000D01*
X32091300Y3565934D01*
X32031232Y3763954D01*
X31933685Y3946450D01*
X31802410Y4106410D01*
X31642450Y4237685D01*
X31459954Y4335232D01*
X31329086Y4374930D01*
X31261935Y4395300D01*
X31056000Y4415583D01*
X30850064Y4395300D01*
X30652043Y4335231D01*
X30469549Y4237685D01*
X30309590Y4106411D01*
X30309589Y4106410D01*
X30178315Y3946451D01*
X30080769Y3763957D01*
X30020700Y3565936D01*
X30020700Y3565934D01*
X30000417Y3360000D01*
X29571583Y3360000D01*
X29551300Y3565934D01*
X29491232Y3763954D01*
X29393685Y3946450D01*
X29262410Y4106410D01*
X29102450Y4237685D01*
X28919954Y4335232D01*
X28789086Y4374930D01*
X28721935Y4395300D01*
X28516000Y4415583D01*
X28310064Y4395300D01*
X28112043Y4335231D01*
X27929549Y4237685D01*
X27769590Y4106411D01*
X27769589Y4106410D01*
X27638315Y3946451D01*
X27540769Y3763957D01*
X27480700Y3565936D01*
X27480700Y3565934D01*
X27460417Y3360000D01*
X27031583Y3360000D01*
X27011300Y3565934D01*
X26951232Y3763954D01*
X26853685Y3946450D01*
X26722410Y4106410D01*
X26562450Y4237685D01*
X26379954Y4335232D01*
X26249086Y4374930D01*
X26181935Y4395300D01*
X25976000Y4415583D01*
X25770064Y4395300D01*
X25572043Y4335231D01*
X25389549Y4237685D01*
X25229590Y4106411D01*
X25229589Y4106410D01*
X25098315Y3946451D01*
X25000769Y3763957D01*
X24940700Y3565936D01*
X24940700Y3565934D01*
X24920417Y3360000D01*
X24491583Y3360000D01*
X24471300Y3565934D01*
X24411232Y3763954D01*
X24313685Y3946450D01*
X24182410Y4106410D01*
X24022450Y4237685D01*
X23839954Y4335232D01*
X23709086Y4374930D01*
X23641935Y4395300D01*
X23436000Y4415583D01*
X23230064Y4395300D01*
X23032043Y4335231D01*
X22849549Y4237685D01*
X22689590Y4106411D01*
X22689589Y4106410D01*
X22558315Y3946451D01*
X22460769Y3763957D01*
X22400700Y3565936D01*
X22400700Y3565934D01*
X22380417Y3360000D01*
X21951583Y3360000D01*
X21931300Y3565934D01*
X21871232Y3763954D01*
X21773685Y3946450D01*
X21642410Y4106410D01*
X21482450Y4237685D01*
X21299954Y4335232D01*
X21169086Y4374930D01*
X21101935Y4395300D01*
X20896000Y4415583D01*
X20690064Y4395300D01*
X20492043Y4335231D01*
X20309549Y4237685D01*
X20149590Y4106411D01*
X20149589Y4106410D01*
X20018315Y3946451D01*
X19920769Y3763957D01*
X19860700Y3565936D01*
X19860700Y3565934D01*
X19840417Y3360000D01*
X19411583Y3360000D01*
X19391300Y3565934D01*
X19331232Y3763954D01*
X19233685Y3946450D01*
X19102410Y4106410D01*
X18942450Y4237685D01*
X18759954Y4335232D01*
X18629086Y4374930D01*
X18561935Y4395300D01*
X18356000Y4415583D01*
X18150064Y4395300D01*
X17952043Y4335231D01*
X17769549Y4237685D01*
X17609590Y4106411D01*
X17609589Y4106410D01*
X17478315Y3946451D01*
X17380769Y3763957D01*
X17320700Y3565936D01*
X17320700Y3565934D01*
X17300417Y3360000D01*
X16871583Y3360000D01*
X16851300Y3565934D01*
X16791232Y3763954D01*
X16693685Y3946450D01*
X16562410Y4106410D01*
X16402450Y4237685D01*
X16219954Y4335232D01*
X16089086Y4374930D01*
X16021935Y4395300D01*
X15816000Y4415583D01*
X15610064Y4395300D01*
X15412043Y4335231D01*
X15229549Y4237685D01*
X15069590Y4106411D01*
X15069589Y4106410D01*
X14938315Y3946451D01*
X14840769Y3763957D01*
X14780700Y3565936D01*
X14780700Y3565934D01*
X14760417Y3360000D01*
X14331583Y3360000D01*
X14311300Y3565934D01*
X14251232Y3763954D01*
X14153685Y3946450D01*
X14022410Y4106410D01*
X13862450Y4237685D01*
X13679954Y4335232D01*
X13549086Y4374930D01*
X13481935Y4395300D01*
X13276000Y4415583D01*
X13070064Y4395300D01*
X12872043Y4335231D01*
X12689549Y4237685D01*
X12529590Y4106411D01*
X12529589Y4106410D01*
X12398315Y3946451D01*
X12300769Y3763957D01*
X12240700Y3565936D01*
X12240700Y3565934D01*
X12220417Y3360000D01*
X11791583Y3360000D01*
X11771300Y3565934D01*
X11711232Y3763954D01*
X11613685Y3946450D01*
X11482410Y4106410D01*
X11322450Y4237685D01*
X11139954Y4335232D01*
X11009086Y4374930D01*
X10941935Y4395300D01*
X10736000Y4415583D01*
X10530064Y4395300D01*
X10332043Y4335231D01*
X10149549Y4237685D01*
X9989590Y4106411D01*
X9989589Y4106410D01*
X9858315Y3946451D01*
X9760769Y3763957D01*
X9700700Y3565936D01*
X9700700Y3565934D01*
X9680417Y3360000D01*
X9251583Y3360000D01*
X9231300Y3565934D01*
X9171232Y3763954D01*
X9073685Y3946450D01*
X8942410Y4106410D01*
X8782450Y4237685D01*
X8599954Y4335232D01*
X8469086Y4374930D01*
X8401935Y4395300D01*
X8196000Y4415583D01*
X7990064Y4395300D01*
X7792043Y4335231D01*
X7609549Y4237685D01*
X7449590Y4106411D01*
X7449589Y4106410D01*
X7318315Y3946451D01*
X7220769Y3763957D01*
X7160700Y3565936D01*
X7160700Y3565934D01*
X7140417Y3360000D01*
X4345915Y3360000D01*
X4482956Y3477044D01*
X4649123Y3671601D01*
X4782809Y3889757D01*
X4880722Y4126140D01*
X4940452Y4374930D01*
X4960526Y4630000D01*
X59699473Y4630000D01*
X59719547Y4374929D01*
X59779275Y4126145D01*
X59779276Y4126141D01*
X59779277Y4126140D01*
X59787449Y4106410D01*
X59877191Y3889755D01*
X59877195Y3889748D01*
X59954280Y3763957D01*
X60010876Y3671601D01*
X60177043Y3477044D01*
X60371600Y3310877D01*
X60589756Y3177191D01*
X60826139Y3079278D01*
X61074929Y3019548D01*
X61266136Y3004500D01*
X61393862Y3004500D01*
X61585069Y3019548D01*
X61833859Y3079278D01*
X62070242Y3177191D01*
X62288398Y3310877D01*
X62482955Y3477044D01*
X62649122Y3671601D01*
X62782808Y3889757D01*
X62880721Y4126140D01*
X62940451Y4374930D01*
X62960525Y4630000D01*
X62940451Y4885070D01*
X62880721Y5133860D01*
X62782808Y5370243D01*
X62649122Y5588399D01*
X62482955Y5782956D01*
X62482952Y5782959D01*
X62408627Y5846438D01*
X62288398Y5949123D01*
X62288395Y5949125D01*
X62070251Y6082804D01*
X62070244Y6082808D01*
X62004973Y6109844D01*
X61833859Y6180722D01*
X61833858Y6180723D01*
X61833854Y6180724D01*
X61585070Y6240452D01*
X61393862Y6255500D01*
X61266136Y6255500D01*
X61074927Y6240452D01*
X60826143Y6180724D01*
X60589753Y6082808D01*
X60589746Y6082804D01*
X60371602Y5949125D01*
X60371601Y5949124D01*
X60177045Y5782959D01*
X60177040Y5782954D01*
X60010875Y5588398D01*
X60010874Y5588397D01*
X59877195Y5370253D01*
X59877191Y5370246D01*
X59779275Y5133856D01*
X59719547Y4885072D01*
X59699473Y4630000D01*
X4960526Y4630000D01*
X4940452Y4885070D01*
X4880722Y5133860D01*
X4782809Y5370243D01*
X4649123Y5588399D01*
X4482956Y5782956D01*
X4482953Y5782959D01*
X4408628Y5846438D01*
X4345915Y5900000D01*
X7140417Y5900000D01*
X7160700Y5694066D01*
X7220768Y5496046D01*
X7318315Y5313550D01*
X7449590Y5153590D01*
X7609550Y5022315D01*
X7792046Y4924768D01*
X7990066Y4864700D01*
X8196000Y4844417D01*
X8401934Y4864700D01*
X8599954Y4924768D01*
X8782450Y5022315D01*
X8942410Y5153590D01*
X9073685Y5313550D01*
X9171232Y5496046D01*
X9231300Y5694066D01*
X9251583Y5900000D01*
X9680417Y5900000D01*
X9700700Y5694066D01*
X9760768Y5496046D01*
X9858315Y5313550D01*
X9989590Y5153590D01*
X10149550Y5022315D01*
X10332046Y4924768D01*
X10530066Y4864700D01*
X10736000Y4844417D01*
X10941934Y4864700D01*
X11139954Y4924768D01*
X11322450Y5022315D01*
X11482410Y5153590D01*
X11613685Y5313550D01*
X11711232Y5496046D01*
X11771300Y5694066D01*
X11791583Y5900000D01*
X12220417Y5900000D01*
X12240700Y5694066D01*
X12300768Y5496046D01*
X12398315Y5313550D01*
X12529590Y5153590D01*
X12689550Y5022315D01*
X12872046Y4924768D01*
X13070066Y4864700D01*
X13276000Y4844417D01*
X13481934Y4864700D01*
X13679954Y4924768D01*
X13862450Y5022315D01*
X14022410Y5153590D01*
X14153685Y5313550D01*
X14251232Y5496046D01*
X14311300Y5694066D01*
X14331583Y5900000D01*
X14760417Y5900000D01*
X14780700Y5694066D01*
X14840768Y5496046D01*
X14938315Y5313550D01*
X15069590Y5153590D01*
X15229550Y5022315D01*
X15412046Y4924768D01*
X15610066Y4864700D01*
X15816000Y4844417D01*
X16021934Y4864700D01*
X16219954Y4924768D01*
X16402450Y5022315D01*
X16562410Y5153590D01*
X16693685Y5313550D01*
X16791232Y5496046D01*
X16851300Y5694066D01*
X16871583Y5900000D01*
X17300417Y5900000D01*
X17320700Y5694066D01*
X17380768Y5496046D01*
X17478315Y5313550D01*
X17609590Y5153590D01*
X17769550Y5022315D01*
X17952046Y4924768D01*
X18150066Y4864700D01*
X18356000Y4844417D01*
X18561934Y4864700D01*
X18759954Y4924768D01*
X18942450Y5022315D01*
X19102410Y5153590D01*
X19233685Y5313550D01*
X19331232Y5496046D01*
X19391300Y5694066D01*
X19411583Y5900000D01*
X19840417Y5900000D01*
X19860700Y5694066D01*
X19920768Y5496046D01*
X20018315Y5313550D01*
X20149590Y5153590D01*
X20309550Y5022315D01*
X20492046Y4924768D01*
X20690066Y4864700D01*
X20896000Y4844417D01*
X21101934Y4864700D01*
X21299954Y4924768D01*
X21482450Y5022315D01*
X21642410Y5153590D01*
X21773685Y5313550D01*
X21871232Y5496046D01*
X21931300Y5694066D01*
X21951583Y5900000D01*
X22380417Y5900000D01*
X22400700Y5694066D01*
X22460768Y5496046D01*
X22558315Y5313550D01*
X22689590Y5153590D01*
X22849550Y5022315D01*
X23032046Y4924768D01*
X23230066Y4864700D01*
X23436000Y4844417D01*
X23641934Y4864700D01*
X23839954Y4924768D01*
X24022450Y5022315D01*
X24182410Y5153590D01*
X24313685Y5313550D01*
X24411232Y5496046D01*
X24471300Y5694066D01*
X24491583Y5900000D01*
X24920417Y5900000D01*
X24940700Y5694066D01*
X25000768Y5496046D01*
X25098315Y5313550D01*
X25229590Y5153590D01*
X25389550Y5022315D01*
X25572046Y4924768D01*
X25770066Y4864700D01*
X25976000Y4844417D01*
X26181934Y4864700D01*
X26379954Y4924768D01*
X26562450Y5022315D01*
X26722410Y5153590D01*
X26853685Y5313550D01*
X26951232Y5496046D01*
X27011300Y5694066D01*
X27031583Y5900000D01*
X27460417Y5900000D01*
X27480700Y5694066D01*
X27540768Y5496046D01*
X27638315Y5313550D01*
X27769590Y5153590D01*
X27929550Y5022315D01*
X28112046Y4924768D01*
X28310066Y4864700D01*
X28516000Y4844417D01*
X28721934Y4864700D01*
X28919954Y4924768D01*
X29102450Y5022315D01*
X29262410Y5153590D01*
X29393685Y5313550D01*
X29491232Y5496046D01*
X29551300Y5694066D01*
X29571583Y5900000D01*
X30000417Y5900000D01*
X30020700Y5694066D01*
X30080768Y5496046D01*
X30178315Y5313550D01*
X30309590Y5153590D01*
X30469550Y5022315D01*
X30652046Y4924768D01*
X30850066Y4864700D01*
X31056000Y4844417D01*
X31261934Y4864700D01*
X31459954Y4924768D01*
X31642450Y5022315D01*
X31802410Y5153590D01*
X31933685Y5313550D01*
X32031232Y5496046D01*
X32091300Y5694066D01*
X32111583Y5900000D01*
X32540417Y5900000D01*
X32560700Y5694066D01*
X32620768Y5496046D01*
X32718315Y5313550D01*
X32849590Y5153590D01*
X33009550Y5022315D01*
X33192046Y4924768D01*
X33390066Y4864700D01*
X33596000Y4844417D01*
X33801934Y4864700D01*
X33999954Y4924768D01*
X34182450Y5022315D01*
X34342410Y5153590D01*
X34473685Y5313550D01*
X34571232Y5496046D01*
X34617933Y5650000D01*
X35011488Y5650000D01*
X35059061Y5482798D01*
X35059064Y5482788D01*
X35154059Y5292012D01*
X35154063Y5292006D01*
X35282501Y5121929D01*
X35440003Y4978347D01*
X35621200Y4866156D01*
X35621210Y4866151D01*
X35819937Y4789163D01*
X35819950Y4789160D01*
X35885999Y4776814D01*
X35886000Y4776814D01*
X35886000Y5464499D01*
X35993685Y5415320D01*
X36100237Y5400000D01*
X36171763Y5400000D01*
X36278315Y5415320D01*
X36386000Y5464499D01*
X36386000Y4776814D01*
X36452049Y4789160D01*
X36452062Y4789163D01*
X36650789Y4866151D01*
X36650799Y4866156D01*
X36831996Y4978347D01*
X36989498Y5121929D01*
X37117936Y5292006D01*
X37117940Y5292012D01*
X37212935Y5482788D01*
X37212938Y5482798D01*
X37260512Y5650000D01*
X36569686Y5650000D01*
X36595493Y5690156D01*
X36636000Y5828111D01*
X36636000Y5900000D01*
X37620417Y5900000D01*
X37640700Y5694066D01*
X37700768Y5496046D01*
X37798315Y5313550D01*
X37929590Y5153590D01*
X38089550Y5022315D01*
X38272046Y4924768D01*
X38470066Y4864700D01*
X38676000Y4844417D01*
X38881934Y4864700D01*
X39079954Y4924768D01*
X39262450Y5022315D01*
X39422410Y5153590D01*
X39553685Y5313550D01*
X39651232Y5496046D01*
X39711300Y5694066D01*
X39731583Y5900000D01*
X40160417Y5900000D01*
X40180700Y5694066D01*
X40240768Y5496046D01*
X40338315Y5313550D01*
X40469590Y5153590D01*
X40629550Y5022315D01*
X40812046Y4924768D01*
X41010066Y4864700D01*
X41216000Y4844417D01*
X41421934Y4864700D01*
X41619954Y4924768D01*
X41802450Y5022315D01*
X41962410Y5153590D01*
X42093685Y5313550D01*
X42191232Y5496046D01*
X42251300Y5694066D01*
X42271583Y5900000D01*
X42700417Y5900000D01*
X42720700Y5694066D01*
X42780768Y5496046D01*
X42878315Y5313550D01*
X43009590Y5153590D01*
X43169550Y5022315D01*
X43352046Y4924768D01*
X43550066Y4864700D01*
X43756000Y4844417D01*
X43961934Y4864700D01*
X44159954Y4924768D01*
X44342450Y5022315D01*
X44502410Y5153590D01*
X44633685Y5313550D01*
X44731232Y5496046D01*
X44791300Y5694066D01*
X44811583Y5900000D01*
X45240417Y5900000D01*
X45260700Y5694066D01*
X45320768Y5496046D01*
X45418315Y5313550D01*
X45549590Y5153590D01*
X45709550Y5022315D01*
X45892046Y4924768D01*
X46090066Y4864700D01*
X46296000Y4844417D01*
X46501934Y4864700D01*
X46699954Y4924768D01*
X46882450Y5022315D01*
X47042410Y5153590D01*
X47173685Y5313550D01*
X47271232Y5496046D01*
X47331300Y5694066D01*
X47351583Y5900000D01*
X47780417Y5900000D01*
X47800700Y5694066D01*
X47860768Y5496046D01*
X47958315Y5313550D01*
X48089590Y5153590D01*
X48249550Y5022315D01*
X48432046Y4924768D01*
X48630066Y4864700D01*
X48836000Y4844417D01*
X49041934Y4864700D01*
X49239954Y4924768D01*
X49422450Y5022315D01*
X49582410Y5153590D01*
X49713685Y5313550D01*
X49811232Y5496046D01*
X49871300Y5694066D01*
X49891583Y5900000D01*
X50320417Y5900000D01*
X50340700Y5694066D01*
X50400768Y5496046D01*
X50498315Y5313550D01*
X50629590Y5153590D01*
X50789550Y5022315D01*
X50972046Y4924768D01*
X51170066Y4864700D01*
X51376000Y4844417D01*
X51581934Y4864700D01*
X51779954Y4924768D01*
X51962450Y5022315D01*
X52122410Y5153590D01*
X52253685Y5313550D01*
X52351232Y5496046D01*
X52411300Y5694066D01*
X52431583Y5900000D01*
X52860417Y5900000D01*
X52880700Y5694066D01*
X52940768Y5496046D01*
X53038315Y5313550D01*
X53169590Y5153590D01*
X53329550Y5022315D01*
X53512046Y4924768D01*
X53710066Y4864700D01*
X53916000Y4844417D01*
X54121934Y4864700D01*
X54319954Y4924768D01*
X54502450Y5022315D01*
X54662410Y5153590D01*
X54793685Y5313550D01*
X54891232Y5496046D01*
X54951300Y5694066D01*
X54971583Y5900000D01*
X54951300Y6105934D01*
X54937933Y6150000D01*
X55306000Y6150000D01*
X56022314Y6150000D01*
X55996507Y6109844D01*
X55956000Y5971889D01*
X55956000Y5828111D01*
X55996507Y5690156D01*
X56022314Y5650000D01*
X55306001Y5650000D01*
X55306001Y5005208D01*
X55308908Y4980132D01*
X55308910Y4980126D01*
X55354213Y4877522D01*
X55433521Y4798214D01*
X55536124Y4752911D01*
X55536123Y4752911D01*
X55561210Y4750001D01*
X56206000Y4750001D01*
X56206000Y5464499D01*
X56313685Y5415320D01*
X56420237Y5400000D01*
X56491763Y5400000D01*
X56598315Y5415320D01*
X56706000Y5464499D01*
X56706000Y4750001D01*
X57350792Y4750001D01*
X57375868Y4752909D01*
X57375874Y4752911D01*
X57478478Y4798214D01*
X57557786Y4877522D01*
X57603089Y4980125D01*
X57606000Y5005211D01*
X57606000Y5650000D01*
X56889686Y5650000D01*
X56915493Y5690156D01*
X56956000Y5828111D01*
X56956000Y5971889D01*
X56915493Y6109844D01*
X56889686Y6150000D01*
X57605999Y6150000D01*
X57605999Y6794793D01*
X57603091Y6819869D01*
X57603089Y6819875D01*
X57557786Y6922479D01*
X57478478Y7001787D01*
X57375875Y7047090D01*
X57375876Y7047090D01*
X57350789Y7050000D01*
X56706000Y7050000D01*
X56706000Y6335502D01*
X56598315Y6384680D01*
X56491763Y6400000D01*
X56420237Y6400000D01*
X56313685Y6384680D01*
X56206000Y6335502D01*
X56206000Y7050000D01*
X55561207Y7050000D01*
X55536131Y7047092D01*
X55536125Y7047090D01*
X55433521Y7001787D01*
X55354213Y6922479D01*
X55308910Y6819876D01*
X55306000Y6794790D01*
X55306000Y6150000D01*
X54937933Y6150000D01*
X54891232Y6303954D01*
X54793685Y6486450D01*
X54662410Y6646410D01*
X54502450Y6777685D01*
X54319954Y6875232D01*
X54126731Y6933845D01*
X54121935Y6935300D01*
X53916000Y6955583D01*
X53710064Y6935300D01*
X53512043Y6875231D01*
X53329549Y6777685D01*
X53169590Y6646411D01*
X53169589Y6646410D01*
X53038315Y6486451D01*
X52940769Y6303957D01*
X52880700Y6105936D01*
X52865255Y5949125D01*
X52860417Y5900000D01*
X52431583Y5900000D01*
X52411300Y6105934D01*
X52351232Y6303954D01*
X52253685Y6486450D01*
X52122410Y6646410D01*
X51962450Y6777685D01*
X51779954Y6875232D01*
X51586731Y6933845D01*
X51581935Y6935300D01*
X51376000Y6955583D01*
X51170064Y6935300D01*
X50972043Y6875231D01*
X50789549Y6777685D01*
X50629590Y6646411D01*
X50629589Y6646410D01*
X50498315Y6486451D01*
X50400769Y6303957D01*
X50340700Y6105936D01*
X50325255Y5949125D01*
X50320417Y5900000D01*
X49891583Y5900000D01*
X49871300Y6105934D01*
X49811232Y6303954D01*
X49713685Y6486450D01*
X49582410Y6646410D01*
X49422450Y6777685D01*
X49239954Y6875232D01*
X49046731Y6933845D01*
X49041935Y6935300D01*
X48836000Y6955583D01*
X48630064Y6935300D01*
X48432043Y6875231D01*
X48249549Y6777685D01*
X48089590Y6646411D01*
X48089589Y6646410D01*
X47958315Y6486451D01*
X47860769Y6303957D01*
X47800700Y6105936D01*
X47785255Y5949125D01*
X47780417Y5900000D01*
X47351583Y5900000D01*
X47331300Y6105934D01*
X47271232Y6303954D01*
X47173685Y6486450D01*
X47042410Y6646410D01*
X46882450Y6777685D01*
X46699954Y6875232D01*
X46506731Y6933845D01*
X46501935Y6935300D01*
X46296000Y6955583D01*
X46090064Y6935300D01*
X45892043Y6875231D01*
X45709549Y6777685D01*
X45549590Y6646411D01*
X45549589Y6646410D01*
X45418315Y6486451D01*
X45320769Y6303957D01*
X45260700Y6105936D01*
X45245255Y5949125D01*
X45240417Y5900000D01*
X44811583Y5900000D01*
X44791300Y6105934D01*
X44731232Y6303954D01*
X44633685Y6486450D01*
X44502410Y6646410D01*
X44342450Y6777685D01*
X44159954Y6875232D01*
X43966731Y6933845D01*
X43961935Y6935300D01*
X43756000Y6955583D01*
X43550064Y6935300D01*
X43352043Y6875231D01*
X43169549Y6777685D01*
X43009590Y6646411D01*
X43009589Y6646410D01*
X42878315Y6486451D01*
X42780769Y6303957D01*
X42720700Y6105936D01*
X42705255Y5949125D01*
X42700417Y5900000D01*
X42271583Y5900000D01*
X42251300Y6105934D01*
X42191232Y6303954D01*
X42093685Y6486450D01*
X41962410Y6646410D01*
X41802450Y6777685D01*
X41619954Y6875232D01*
X41426731Y6933845D01*
X41421935Y6935300D01*
X41216000Y6955583D01*
X41010064Y6935300D01*
X40812043Y6875231D01*
X40629549Y6777685D01*
X40469590Y6646411D01*
X40469589Y6646410D01*
X40338315Y6486451D01*
X40240769Y6303957D01*
X40180700Y6105936D01*
X40165255Y5949125D01*
X40160417Y5900000D01*
X39731583Y5900000D01*
X39711300Y6105934D01*
X39651232Y6303954D01*
X39553685Y6486450D01*
X39422410Y6646410D01*
X39262450Y6777685D01*
X39079954Y6875232D01*
X38886731Y6933845D01*
X38881935Y6935300D01*
X38676000Y6955583D01*
X38470064Y6935300D01*
X38272043Y6875231D01*
X38089549Y6777685D01*
X37929590Y6646411D01*
X37929589Y6646410D01*
X37798315Y6486451D01*
X37700769Y6303957D01*
X37640700Y6105936D01*
X37625255Y5949125D01*
X37620417Y5900000D01*
X36636000Y5900000D01*
X36636000Y5971889D01*
X36595493Y6109844D01*
X36569686Y6150000D01*
X37260512Y6150000D01*
X37212938Y6317203D01*
X37212935Y6317213D01*
X37117940Y6507989D01*
X37117936Y6507995D01*
X36989498Y6678072D01*
X36831996Y6821654D01*
X36650799Y6933845D01*
X36650789Y6933850D01*
X36452064Y7010837D01*
X36386000Y7023187D01*
X36386000Y6335502D01*
X36278315Y6384680D01*
X36171763Y6400000D01*
X36100237Y6400000D01*
X35993685Y6384680D01*
X35886000Y6335502D01*
X35886000Y7023187D01*
X35885999Y7023187D01*
X35819935Y7010837D01*
X35621210Y6933850D01*
X35621200Y6933845D01*
X35440003Y6821654D01*
X35282501Y6678072D01*
X35154063Y6507995D01*
X35154059Y6507989D01*
X35059064Y6317213D01*
X35059061Y6317203D01*
X35011488Y6150000D01*
X35702314Y6150000D01*
X35676507Y6109844D01*
X35636000Y5971889D01*
X35636000Y5828111D01*
X35676507Y5690156D01*
X35702314Y5650000D01*
X35011488Y5650000D01*
X34617933Y5650000D01*
X34631300Y5694066D01*
X34651583Y5900000D01*
X34631300Y6105934D01*
X34571232Y6303954D01*
X34473685Y6486450D01*
X34342410Y6646410D01*
X34182450Y6777685D01*
X33999954Y6875232D01*
X33806731Y6933845D01*
X33801935Y6935300D01*
X33596000Y6955583D01*
X33390064Y6935300D01*
X33192043Y6875231D01*
X33009549Y6777685D01*
X32849590Y6646411D01*
X32849589Y6646410D01*
X32718315Y6486451D01*
X32620769Y6303957D01*
X32560700Y6105936D01*
X32545255Y5949125D01*
X32540417Y5900000D01*
X32111583Y5900000D01*
X32091300Y6105934D01*
X32031232Y6303954D01*
X31933685Y6486450D01*
X31802410Y6646410D01*
X31642450Y6777685D01*
X31459954Y6875232D01*
X31266731Y6933845D01*
X31261935Y6935300D01*
X31056000Y6955583D01*
X30850064Y6935300D01*
X30652043Y6875231D01*
X30469549Y6777685D01*
X30309590Y6646411D01*
X30309589Y6646410D01*
X30178315Y6486451D01*
X30080769Y6303957D01*
X30020700Y6105936D01*
X30005255Y5949125D01*
X30000417Y5900000D01*
X29571583Y5900000D01*
X29551300Y6105934D01*
X29491232Y6303954D01*
X29393685Y6486450D01*
X29262410Y6646410D01*
X29102450Y6777685D01*
X28919954Y6875232D01*
X28726731Y6933845D01*
X28721935Y6935300D01*
X28516000Y6955583D01*
X28310064Y6935300D01*
X28112043Y6875231D01*
X27929549Y6777685D01*
X27769590Y6646411D01*
X27769589Y6646410D01*
X27638315Y6486451D01*
X27540769Y6303957D01*
X27480700Y6105936D01*
X27465255Y5949125D01*
X27460417Y5900000D01*
X27031583Y5900000D01*
X27011300Y6105934D01*
X26951232Y6303954D01*
X26853685Y6486450D01*
X26722410Y6646410D01*
X26562450Y6777685D01*
X26379954Y6875232D01*
X26186731Y6933845D01*
X26181935Y6935300D01*
X25976000Y6955583D01*
X25770064Y6935300D01*
X25572043Y6875231D01*
X25389549Y6777685D01*
X25229590Y6646411D01*
X25229589Y6646410D01*
X25098315Y6486451D01*
X25000769Y6303957D01*
X24940700Y6105936D01*
X24925255Y5949125D01*
X24920417Y5900000D01*
X24491583Y5900000D01*
X24471300Y6105934D01*
X24411232Y6303954D01*
X24313685Y6486450D01*
X24182410Y6646410D01*
X24022450Y6777685D01*
X23839954Y6875232D01*
X23646731Y6933845D01*
X23641935Y6935300D01*
X23436000Y6955583D01*
X23230064Y6935300D01*
X23032043Y6875231D01*
X22849549Y6777685D01*
X22689590Y6646411D01*
X22689589Y6646410D01*
X22558315Y6486451D01*
X22460769Y6303957D01*
X22400700Y6105936D01*
X22385255Y5949125D01*
X22380417Y5900000D01*
X21951583Y5900000D01*
X21931300Y6105934D01*
X21871232Y6303954D01*
X21773685Y6486450D01*
X21642410Y6646410D01*
X21482450Y6777685D01*
X21299954Y6875232D01*
X21106731Y6933845D01*
X21101935Y6935300D01*
X20896000Y6955583D01*
X20690064Y6935300D01*
X20492043Y6875231D01*
X20309549Y6777685D01*
X20149590Y6646411D01*
X20149589Y6646410D01*
X20018315Y6486451D01*
X19920769Y6303957D01*
X19860700Y6105936D01*
X19845255Y5949125D01*
X19840417Y5900000D01*
X19411583Y5900000D01*
X19391300Y6105934D01*
X19331232Y6303954D01*
X19233685Y6486450D01*
X19102410Y6646410D01*
X18942450Y6777685D01*
X18759954Y6875232D01*
X18566731Y6933845D01*
X18561935Y6935300D01*
X18356000Y6955583D01*
X18150064Y6935300D01*
X17952043Y6875231D01*
X17769549Y6777685D01*
X17609590Y6646411D01*
X17609589Y6646410D01*
X17478315Y6486451D01*
X17380769Y6303957D01*
X17320700Y6105936D01*
X17305255Y5949125D01*
X17300417Y5900000D01*
X16871583Y5900000D01*
X16851300Y6105934D01*
X16791232Y6303954D01*
X16693685Y6486450D01*
X16562410Y6646410D01*
X16402450Y6777685D01*
X16219954Y6875232D01*
X16026731Y6933845D01*
X16021935Y6935300D01*
X15816000Y6955583D01*
X15610064Y6935300D01*
X15412043Y6875231D01*
X15229549Y6777685D01*
X15069590Y6646411D01*
X15069589Y6646410D01*
X14938315Y6486451D01*
X14840769Y6303957D01*
X14780700Y6105936D01*
X14765255Y5949125D01*
X14760417Y5900000D01*
X14331583Y5900000D01*
X14311300Y6105934D01*
X14251232Y6303954D01*
X14153685Y6486450D01*
X14022410Y6646410D01*
X13862450Y6777685D01*
X13679954Y6875232D01*
X13486731Y6933845D01*
X13481935Y6935300D01*
X13276000Y6955583D01*
X13070064Y6935300D01*
X12872043Y6875231D01*
X12689549Y6777685D01*
X12529590Y6646411D01*
X12529589Y6646410D01*
X12398315Y6486451D01*
X12300769Y6303957D01*
X12240700Y6105936D01*
X12225255Y5949125D01*
X12220417Y5900000D01*
X11791583Y5900000D01*
X11771300Y6105934D01*
X11711232Y6303954D01*
X11613685Y6486450D01*
X11482410Y6646410D01*
X11322450Y6777685D01*
X11139954Y6875232D01*
X10946731Y6933845D01*
X10941935Y6935300D01*
X10736000Y6955583D01*
X10530064Y6935300D01*
X10332043Y6875231D01*
X10149549Y6777685D01*
X9989590Y6646411D01*
X9989589Y6646410D01*
X9858315Y6486451D01*
X9760769Y6303957D01*
X9700700Y6105936D01*
X9685255Y5949125D01*
X9680417Y5900000D01*
X9251583Y5900000D01*
X9231300Y6105934D01*
X9171232Y6303954D01*
X9073685Y6486450D01*
X8942410Y6646410D01*
X8782450Y6777685D01*
X8599954Y6875232D01*
X8406731Y6933845D01*
X8401935Y6935300D01*
X8196000Y6955583D01*
X7990064Y6935300D01*
X7792043Y6875231D01*
X7609549Y6777685D01*
X7449590Y6646411D01*
X7449589Y6646410D01*
X7318315Y6486451D01*
X7220769Y6303957D01*
X7160700Y6105936D01*
X7145255Y5949125D01*
X7140417Y5900000D01*
X4345915Y5900000D01*
X4288399Y5949123D01*
X4288396Y5949125D01*
X4070252Y6082804D01*
X4070245Y6082808D01*
X4004974Y6109844D01*
X3833860Y6180722D01*
X3833859Y6180723D01*
X3833855Y6180724D01*
X3585071Y6240452D01*
X3393863Y6255500D01*
X3266137Y6255500D01*
X3074928Y6240452D01*
X2826144Y6180724D01*
X2589754Y6082808D01*
X2589747Y6082804D01*
X2371603Y5949125D01*
X2371602Y5949124D01*
X2177046Y5782959D01*
X2177041Y5782954D01*
X2010876Y5588398D01*
X2010875Y5588397D01*
X1877196Y5370253D01*
X1877192Y5370246D01*
X1779276Y5133856D01*
X1719548Y4885072D01*
X1699474Y4630000D01*
X500500Y4630000D01*
X500500Y12000000D01*
X39569196Y12000000D01*
X39590280Y11866874D01*
X39651471Y11746781D01*
X39651472Y11746780D01*
X39746780Y11651472D01*
X39866873Y11590282D01*
X39866873Y11590281D01*
X39885075Y11587399D01*
X40000000Y11569196D01*
X40133126Y11590281D01*
X40253220Y11651472D01*
X40348528Y11746780D01*
X40409719Y11866874D01*
X40430804Y12000000D01*
X40409719Y12133126D01*
X40409719Y12133127D01*
X40348528Y12253220D01*
X40253219Y12348529D01*
X40133126Y12409719D01*
X40133126Y12409720D01*
X40000000Y12430804D01*
X39866873Y12409720D01*
X39866873Y12409719D01*
X39746780Y12348529D01*
X39651471Y12253220D01*
X39590281Y12133127D01*
X39590280Y12133127D01*
X39569196Y12000000D01*
X500500Y12000000D01*
X500500Y15500000D01*
X26815196Y15500000D01*
X26836280Y15366874D01*
X26886050Y15269196D01*
X26897472Y15246780D01*
X26992780Y15151472D01*
X27112873Y15090282D01*
X27112873Y15090281D01*
X27131075Y15087399D01*
X27246000Y15069196D01*
X27379126Y15090281D01*
X27499220Y15151472D01*
X27594528Y15246780D01*
X27655719Y15366874D01*
X27676804Y15500000D01*
X27919196Y15500000D01*
X27940280Y15366874D01*
X27990050Y15269196D01*
X28001472Y15246780D01*
X28096780Y15151472D01*
X28216873Y15090282D01*
X28216873Y15090281D01*
X28235075Y15087399D01*
X28350000Y15069196D01*
X28483126Y15090281D01*
X28603220Y15151472D01*
X28698528Y15246780D01*
X28759719Y15366874D01*
X28780804Y15500000D01*
X28759719Y15633126D01*
X28759719Y15633127D01*
X28725645Y15700000D01*
X35919196Y15700000D01*
X35940280Y15566874D01*
X36001471Y15446781D01*
X36001472Y15446780D01*
X36096780Y15351472D01*
X36216873Y15290282D01*
X36216873Y15290281D01*
X36235075Y15287399D01*
X36350000Y15269196D01*
X36483126Y15290281D01*
X36603220Y15351472D01*
X36698528Y15446780D01*
X36759719Y15566874D01*
X36780804Y15700000D01*
X36759719Y15833126D01*
X36759719Y15833127D01*
X36698528Y15953220D01*
X36603219Y16048529D01*
X36483126Y16109719D01*
X36483126Y16109720D01*
X36350000Y16130804D01*
X36216873Y16109720D01*
X36216873Y16109719D01*
X36096780Y16048529D01*
X36001471Y15953220D01*
X35940281Y15833127D01*
X35940280Y15833127D01*
X35919196Y15700000D01*
X28725645Y15700000D01*
X28698528Y15753220D01*
X28603219Y15848529D01*
X28483126Y15909719D01*
X28483126Y15909720D01*
X28350000Y15930804D01*
X28216873Y15909720D01*
X28216873Y15909719D01*
X28096780Y15848529D01*
X28001471Y15753220D01*
X27940281Y15633127D01*
X27940280Y15633127D01*
X27919196Y15500000D01*
X27676804Y15500000D01*
X27655719Y15633126D01*
X27655719Y15633127D01*
X27594528Y15753220D01*
X27499219Y15848529D01*
X27379126Y15909719D01*
X27379126Y15909720D01*
X27246000Y15930804D01*
X27112873Y15909720D01*
X27112873Y15909719D01*
X26992780Y15848529D01*
X26897471Y15753220D01*
X26836281Y15633127D01*
X26836280Y15633127D01*
X26815196Y15500000D01*
X500500Y15500000D01*
X500500Y16900000D01*
X23569196Y16900000D01*
X23590280Y16766874D01*
X23651471Y16646781D01*
X23651472Y16646780D01*
X23746780Y16551472D01*
X23866873Y16490282D01*
X23866873Y16490281D01*
X23885075Y16487399D01*
X24000000Y16469196D01*
X24133126Y16490281D01*
X24253220Y16551472D01*
X24348528Y16646780D01*
X24375645Y16700000D01*
X31319196Y16700000D01*
X31340280Y16566874D01*
X31390050Y16469196D01*
X31401472Y16446780D01*
X31496780Y16351472D01*
X31616873Y16290282D01*
X31616873Y16290281D01*
X31635075Y16287399D01*
X31750000Y16269196D01*
X31883126Y16290281D01*
X32003220Y16351472D01*
X32098528Y16446780D01*
X32159719Y16566874D01*
X32180804Y16700000D01*
X32159719Y16833126D01*
X32159719Y16833127D01*
X32098528Y16953220D01*
X32003219Y17048529D01*
X31883126Y17109719D01*
X31883126Y17109720D01*
X31750000Y17130804D01*
X31616873Y17109720D01*
X31616873Y17109719D01*
X31496780Y17048529D01*
X31401471Y16953220D01*
X31340281Y16833127D01*
X31340280Y16833127D01*
X31319196Y16700000D01*
X24375645Y16700000D01*
X24409719Y16766874D01*
X24430804Y16900000D01*
X24409719Y17033126D01*
X24409719Y17033127D01*
X24348528Y17153220D01*
X24253219Y17248529D01*
X24152201Y17300000D01*
X35919196Y17300000D01*
X35940280Y17166874D01*
X36000581Y17048528D01*
X36001472Y17046780D01*
X36096780Y16951472D01*
X36216873Y16890282D01*
X36216873Y16890281D01*
X36235075Y16887399D01*
X36350000Y16869196D01*
X36483126Y16890281D01*
X36603220Y16951472D01*
X36698528Y17046780D01*
X36759719Y17166874D01*
X36780804Y17300000D01*
X36759719Y17433126D01*
X36759719Y17433127D01*
X36698528Y17553220D01*
X36603219Y17648529D01*
X36483126Y17709719D01*
X36483126Y17709720D01*
X36350000Y17730804D01*
X36216873Y17709720D01*
X36216873Y17709719D01*
X36096780Y17648529D01*
X36001471Y17553220D01*
X35940281Y17433127D01*
X35940280Y17433127D01*
X35919196Y17300000D01*
X24152201Y17300000D01*
X24133126Y17309719D01*
X24133126Y17309720D01*
X24000000Y17330804D01*
X23866873Y17309720D01*
X23866873Y17309719D01*
X23746780Y17248529D01*
X23651471Y17153220D01*
X23590281Y17033127D01*
X23590280Y17033127D01*
X23569196Y16900000D01*
X500500Y16900000D01*
X500500Y18000000D01*
X17394353Y18000000D01*
X17414834Y17857546D01*
X17474623Y17726627D01*
X17568868Y17617861D01*
X17568869Y17617860D01*
X17568872Y17617857D01*
X17689947Y17540047D01*
X17796403Y17508789D01*
X17828035Y17499501D01*
X17828037Y17499500D01*
X17828039Y17499500D01*
X17971963Y17499500D01*
X17971964Y17499501D01*
X18110053Y17540047D01*
X18231128Y17617857D01*
X18325377Y17726627D01*
X18385165Y17857543D01*
X18405647Y18000000D01*
X18385165Y18142457D01*
X18325377Y18273373D01*
X18298893Y18303937D01*
X18231131Y18382140D01*
X18231129Y18382141D01*
X18231128Y18382143D01*
X18130551Y18446780D01*
X18110054Y18459953D01*
X18110050Y18459954D01*
X17971964Y18500500D01*
X17971961Y18500500D01*
X17828039Y18500500D01*
X17828036Y18500500D01*
X17689949Y18459954D01*
X17689945Y18459953D01*
X17568875Y18382145D01*
X17568868Y18382140D01*
X17474623Y18273374D01*
X17414834Y18142455D01*
X17394353Y18000000D01*
X500500Y18000000D01*
X500500Y18550000D01*
X28094867Y18550000D01*
X28113302Y18421777D01*
X28113302Y18421776D01*
X28113303Y18421774D01*
X28167118Y18303937D01*
X28251951Y18206033D01*
X28360931Y18135996D01*
X28485228Y18099500D01*
X28614772Y18099500D01*
X28739069Y18135996D01*
X28848049Y18206033D01*
X28932882Y18303937D01*
X28986697Y18421774D01*
X29005133Y18550000D01*
X29544867Y18550000D01*
X29563302Y18421777D01*
X29563302Y18421776D01*
X29563303Y18421774D01*
X29617118Y18303937D01*
X29701951Y18206033D01*
X29810931Y18135996D01*
X29935228Y18099500D01*
X30064772Y18099500D01*
X30189069Y18135996D01*
X30298049Y18206033D01*
X30382882Y18303937D01*
X30436697Y18421774D01*
X30455133Y18550000D01*
X30994867Y18550000D01*
X31013302Y18421777D01*
X31013302Y18421776D01*
X31013303Y18421774D01*
X31067118Y18303937D01*
X31151951Y18206033D01*
X31260931Y18135996D01*
X31385228Y18099500D01*
X31514772Y18099500D01*
X31639069Y18135996D01*
X31748049Y18206033D01*
X31832882Y18303937D01*
X31886697Y18421774D01*
X31905133Y18550000D01*
X31886697Y18678226D01*
X31876753Y18700000D01*
X34419196Y18700000D01*
X34440280Y18566874D01*
X34501471Y18446781D01*
X34501472Y18446780D01*
X34596780Y18351472D01*
X34716873Y18290282D01*
X34716873Y18290281D01*
X34735075Y18287399D01*
X34850000Y18269196D01*
X34983126Y18290281D01*
X35103220Y18351472D01*
X35198528Y18446780D01*
X35259719Y18566874D01*
X35280804Y18700000D01*
X35259719Y18833126D01*
X35259719Y18833127D01*
X35198528Y18953220D01*
X35103219Y19048529D01*
X34983126Y19109719D01*
X34983126Y19109720D01*
X34850000Y19130804D01*
X34716873Y19109720D01*
X34716873Y19109719D01*
X34596780Y19048529D01*
X34501471Y18953220D01*
X34440281Y18833127D01*
X34440280Y18833127D01*
X34419196Y18700000D01*
X31876753Y18700000D01*
X31832882Y18796063D01*
X31748049Y18893967D01*
X31681032Y18937036D01*
X31639068Y18964005D01*
X31514772Y19000500D01*
X31385228Y19000500D01*
X31260931Y18964005D01*
X31151954Y18893969D01*
X31151950Y18893966D01*
X31067119Y18796065D01*
X31013302Y18678224D01*
X30994867Y18550000D01*
X30455133Y18550000D01*
X30436697Y18678226D01*
X30382882Y18796063D01*
X30298049Y18893967D01*
X30231032Y18937036D01*
X30189068Y18964005D01*
X30064772Y19000500D01*
X29935228Y19000500D01*
X29810931Y18964005D01*
X29701954Y18893969D01*
X29701950Y18893966D01*
X29617119Y18796065D01*
X29563302Y18678224D01*
X29544867Y18550000D01*
X29005133Y18550000D01*
X28986697Y18678226D01*
X28932882Y18796063D01*
X28848049Y18893967D01*
X28781032Y18937036D01*
X28739068Y18964005D01*
X28614772Y19000500D01*
X28485228Y19000500D01*
X28360931Y18964005D01*
X28251954Y18893969D01*
X28251950Y18893966D01*
X28167119Y18796065D01*
X28113302Y18678224D01*
X28094867Y18550000D01*
X500500Y18550000D01*
X500500Y20000000D01*
X28094867Y20000000D01*
X28113302Y19871777D01*
X28113302Y19871776D01*
X28113303Y19871774D01*
X28167118Y19753937D01*
X28251951Y19656033D01*
X28360931Y19585996D01*
X28485228Y19549500D01*
X28614772Y19549500D01*
X28739069Y19585996D01*
X28848049Y19656033D01*
X28932882Y19753937D01*
X28986697Y19871774D01*
X29005133Y20000000D01*
X29544867Y20000000D01*
X29563302Y19871777D01*
X29563302Y19871776D01*
X29563303Y19871774D01*
X29617118Y19753937D01*
X29701951Y19656033D01*
X29810931Y19585996D01*
X29935228Y19549500D01*
X30064772Y19549500D01*
X30189069Y19585996D01*
X30298049Y19656033D01*
X30382882Y19753937D01*
X30436697Y19871774D01*
X30455133Y20000000D01*
X30994867Y20000000D01*
X31013302Y19871777D01*
X31013302Y19871776D01*
X31013303Y19871774D01*
X31067118Y19753937D01*
X31151951Y19656033D01*
X31260931Y19585996D01*
X31385228Y19549500D01*
X31514772Y19549500D01*
X31639069Y19585996D01*
X31748049Y19656033D01*
X31832882Y19753937D01*
X31886697Y19871774D01*
X31905133Y20000000D01*
X37744353Y20000000D01*
X37764834Y19857546D01*
X37824623Y19726627D01*
X37918868Y19617861D01*
X37918869Y19617860D01*
X37918872Y19617857D01*
X38039947Y19540047D01*
X38146403Y19508789D01*
X38178035Y19499501D01*
X38178037Y19499500D01*
X38178039Y19499500D01*
X38321963Y19499500D01*
X38321964Y19499501D01*
X38460053Y19540047D01*
X38581128Y19617857D01*
X38675377Y19726627D01*
X38735165Y19857543D01*
X38755647Y20000000D01*
X38735165Y20142457D01*
X38675377Y20273373D01*
X38651814Y20300566D01*
X38581131Y20382140D01*
X38581129Y20382141D01*
X38581128Y20382143D01*
X38524182Y20418740D01*
X38460054Y20459953D01*
X38460050Y20459954D01*
X38321964Y20500500D01*
X38321961Y20500500D01*
X38178039Y20500500D01*
X38178036Y20500500D01*
X38039949Y20459954D01*
X38039945Y20459953D01*
X37918875Y20382145D01*
X37918868Y20382140D01*
X37824623Y20273374D01*
X37764834Y20142455D01*
X37744353Y20000000D01*
X31905133Y20000000D01*
X31886697Y20128226D01*
X31832882Y20246063D01*
X31748049Y20343967D01*
X31681032Y20387036D01*
X31639068Y20414005D01*
X31514772Y20450500D01*
X31385228Y20450500D01*
X31260931Y20414005D01*
X31151954Y20343969D01*
X31151950Y20343966D01*
X31067119Y20246065D01*
X31013302Y20128224D01*
X30994867Y20000000D01*
X30455133Y20000000D01*
X30436697Y20128226D01*
X30382882Y20246063D01*
X30298049Y20343967D01*
X30231032Y20387036D01*
X30189068Y20414005D01*
X30064772Y20450500D01*
X29935228Y20450500D01*
X29810931Y20414005D01*
X29701954Y20343969D01*
X29701950Y20343966D01*
X29617119Y20246065D01*
X29563302Y20128224D01*
X29544867Y20000000D01*
X29005133Y20000000D01*
X28986697Y20128226D01*
X28932882Y20246063D01*
X28848049Y20343967D01*
X28781032Y20387036D01*
X28739068Y20414005D01*
X28614772Y20450500D01*
X28485228Y20450500D01*
X28360931Y20414005D01*
X28251954Y20343969D01*
X28251950Y20343966D01*
X28167119Y20246065D01*
X28113302Y20128224D01*
X28094867Y20000000D01*
X500500Y20000000D01*
X500500Y21250000D01*
X23369196Y21250000D01*
X23390280Y21116874D01*
X23431490Y21035996D01*
X23451472Y20996780D01*
X23546780Y20901472D01*
X23666873Y20840282D01*
X23666873Y20840281D01*
X23685075Y20837399D01*
X23800000Y20819196D01*
X23933126Y20840281D01*
X24053220Y20901472D01*
X24148528Y20996780D01*
X24209719Y21116874D01*
X24230804Y21250000D01*
X24969196Y21250000D01*
X24990280Y21116874D01*
X25031490Y21035996D01*
X25051472Y20996780D01*
X25146780Y20901472D01*
X25266873Y20840282D01*
X25266873Y20840281D01*
X25285075Y20837399D01*
X25400000Y20819196D01*
X25533126Y20840281D01*
X25653220Y20901472D01*
X25748528Y20996780D01*
X25809719Y21116874D01*
X25830804Y21250000D01*
X25809719Y21383126D01*
X25809719Y21383127D01*
X25775645Y21450000D01*
X28094867Y21450000D01*
X28113302Y21321777D01*
X28113302Y21321776D01*
X28113303Y21321774D01*
X28167118Y21203937D01*
X28251951Y21106033D01*
X28360931Y21035996D01*
X28485228Y20999500D01*
X28614772Y20999500D01*
X28739069Y21035996D01*
X28848049Y21106033D01*
X28932882Y21203937D01*
X28986697Y21321774D01*
X29005133Y21450000D01*
X29544867Y21450000D01*
X29563302Y21321777D01*
X29563302Y21321776D01*
X29563303Y21321774D01*
X29617118Y21203937D01*
X29701951Y21106033D01*
X29810931Y21035996D01*
X29935228Y20999500D01*
X30064772Y20999500D01*
X30189069Y21035996D01*
X30298049Y21106033D01*
X30382882Y21203937D01*
X30436697Y21321774D01*
X30455133Y21450000D01*
X30994867Y21450000D01*
X31013302Y21321777D01*
X31013302Y21321776D01*
X31013303Y21321774D01*
X31067118Y21203937D01*
X31151951Y21106033D01*
X31260931Y21035996D01*
X31385228Y20999500D01*
X31514772Y20999500D01*
X31639069Y21035996D01*
X31748049Y21106033D01*
X31832882Y21203937D01*
X31853919Y21250000D01*
X32669196Y21250000D01*
X32690280Y21116874D01*
X32731490Y21035996D01*
X32751472Y20996780D01*
X32846780Y20901472D01*
X32966873Y20840282D01*
X32966873Y20840281D01*
X32985075Y20837399D01*
X33100000Y20819196D01*
X33233126Y20840281D01*
X33353220Y20901472D01*
X33448528Y20996780D01*
X33509719Y21116874D01*
X33530804Y21250000D01*
X33509719Y21383126D01*
X33509719Y21383127D01*
X33448528Y21503220D01*
X33353219Y21598529D01*
X33233126Y21659719D01*
X33233126Y21659720D01*
X33100000Y21680804D01*
X32966873Y21659720D01*
X32966873Y21659719D01*
X32846780Y21598529D01*
X32751471Y21503220D01*
X32690281Y21383127D01*
X32690280Y21383127D01*
X32669196Y21250000D01*
X31853919Y21250000D01*
X31886697Y21321774D01*
X31905133Y21450000D01*
X31886697Y21578226D01*
X31832882Y21696063D01*
X31748049Y21793967D01*
X31681032Y21837036D01*
X31639068Y21864005D01*
X31514772Y21900500D01*
X31385228Y21900500D01*
X31260931Y21864005D01*
X31151954Y21793969D01*
X31151950Y21793966D01*
X31067119Y21696065D01*
X31013302Y21578224D01*
X30994867Y21450000D01*
X30455133Y21450000D01*
X30436697Y21578226D01*
X30382882Y21696063D01*
X30298049Y21793967D01*
X30231032Y21837036D01*
X30189068Y21864005D01*
X30064772Y21900500D01*
X29935228Y21900500D01*
X29810931Y21864005D01*
X29701954Y21793969D01*
X29701950Y21793966D01*
X29617119Y21696065D01*
X29563302Y21578224D01*
X29544867Y21450000D01*
X29005133Y21450000D01*
X28986697Y21578226D01*
X28932882Y21696063D01*
X28848049Y21793967D01*
X28781032Y21837036D01*
X28739068Y21864005D01*
X28614772Y21900500D01*
X28485228Y21900500D01*
X28360931Y21864005D01*
X28251954Y21793969D01*
X28251950Y21793966D01*
X28167119Y21696065D01*
X28113302Y21578224D01*
X28094867Y21450000D01*
X25775645Y21450000D01*
X25748528Y21503220D01*
X25653219Y21598529D01*
X25533126Y21659719D01*
X25533126Y21659720D01*
X25400000Y21680804D01*
X25266873Y21659720D01*
X25266873Y21659719D01*
X25146780Y21598529D01*
X25051471Y21503220D01*
X24990281Y21383127D01*
X24990280Y21383127D01*
X24969196Y21250000D01*
X24230804Y21250000D01*
X24209719Y21383126D01*
X24209719Y21383127D01*
X24148528Y21503220D01*
X24053219Y21598529D01*
X23933126Y21659719D01*
X23933126Y21659720D01*
X23800000Y21680804D01*
X23666873Y21659720D01*
X23666873Y21659719D01*
X23546780Y21598529D01*
X23451471Y21503220D01*
X23390281Y21383127D01*
X23390280Y21383127D01*
X23369196Y21250000D01*
X500500Y21250000D01*
X500500Y22450000D01*
X23069196Y22450000D01*
X23090280Y22316874D01*
X23151471Y22196781D01*
X23151472Y22196780D01*
X23246780Y22101472D01*
X23366873Y22040282D01*
X23366873Y22040281D01*
X23385075Y22037399D01*
X23500000Y22019196D01*
X23633126Y22040281D01*
X23753220Y22101472D01*
X23848528Y22196780D01*
X23909719Y22316874D01*
X23930804Y22450000D01*
X23909719Y22583126D01*
X23909719Y22583127D01*
X23848528Y22703220D01*
X23753219Y22798529D01*
X23633126Y22859719D01*
X23633126Y22859720D01*
X23500000Y22880804D01*
X23366873Y22859720D01*
X23366873Y22859719D01*
X23246780Y22798529D01*
X23151471Y22703220D01*
X23090281Y22583127D01*
X23090280Y22583127D01*
X23069196Y22450000D01*
X500500Y22450000D01*
X500500Y23200000D01*
X27094353Y23200000D01*
X27114834Y23057546D01*
X27114834Y23057545D01*
X27114835Y23057543D01*
X27145553Y22990281D01*
X27174623Y22926627D01*
X27268868Y22817861D01*
X27268869Y22817860D01*
X27268872Y22817857D01*
X27389947Y22740047D01*
X27496403Y22708789D01*
X27528035Y22699501D01*
X27528037Y22699500D01*
X27528039Y22699500D01*
X27671963Y22699500D01*
X27671964Y22699501D01*
X27684630Y22703220D01*
X27810053Y22740047D01*
X27903342Y22800000D01*
X35919196Y22800000D01*
X35940280Y22666874D01*
X36001471Y22546781D01*
X36001472Y22546780D01*
X36096780Y22451472D01*
X36216873Y22390282D01*
X36216873Y22390281D01*
X36235075Y22387399D01*
X36350000Y22369196D01*
X36483126Y22390281D01*
X36603220Y22451472D01*
X36698528Y22546780D01*
X36759719Y22666874D01*
X36780804Y22800000D01*
X36759719Y22933126D01*
X36759719Y22933127D01*
X36698528Y23053220D01*
X36603219Y23148529D01*
X36483126Y23209719D01*
X36483126Y23209720D01*
X36350000Y23230804D01*
X36216873Y23209720D01*
X36216873Y23209719D01*
X36096780Y23148529D01*
X36001471Y23053220D01*
X35940281Y22933127D01*
X35940280Y22933127D01*
X35919196Y22800000D01*
X27903342Y22800000D01*
X27931128Y22817857D01*
X28025377Y22926627D01*
X28085165Y23057543D01*
X28105647Y23200000D01*
X28085165Y23342457D01*
X28058886Y23400000D01*
X29319196Y23400000D01*
X29340280Y23266874D01*
X29400581Y23148528D01*
X29401472Y23146780D01*
X29496780Y23051472D01*
X29616873Y22990282D01*
X29616873Y22990281D01*
X29635075Y22987399D01*
X29750000Y22969196D01*
X29883126Y22990281D01*
X30003220Y23051472D01*
X30098528Y23146780D01*
X30159719Y23266874D01*
X30180804Y23400000D01*
X30160170Y23530281D01*
X30159719Y23533127D01*
X30098528Y23653220D01*
X30003219Y23748529D01*
X29883126Y23809719D01*
X29883126Y23809720D01*
X29750000Y23830804D01*
X29616873Y23809720D01*
X29616873Y23809719D01*
X29496780Y23748529D01*
X29401471Y23653220D01*
X29340281Y23533127D01*
X29340280Y23533127D01*
X29319196Y23400000D01*
X28058886Y23400000D01*
X28025377Y23473373D01*
X27994336Y23509197D01*
X27931131Y23582140D01*
X27931129Y23582141D01*
X27931128Y23582143D01*
X27874182Y23618740D01*
X27810054Y23659953D01*
X27810050Y23659954D01*
X27671964Y23700500D01*
X27671961Y23700500D01*
X27528039Y23700500D01*
X27528036Y23700500D01*
X27389949Y23659954D01*
X27389945Y23659953D01*
X27268875Y23582145D01*
X27268868Y23582140D01*
X27174623Y23473374D01*
X27114834Y23342455D01*
X27094353Y23200000D01*
X500500Y23200000D01*
X500500Y23950000D01*
X23069196Y23950000D01*
X23090280Y23816874D01*
X23151471Y23696781D01*
X23151472Y23696780D01*
X23246780Y23601472D01*
X23366873Y23540282D01*
X23366873Y23540281D01*
X23385075Y23537399D01*
X23500000Y23519196D01*
X23633126Y23540281D01*
X23753220Y23601472D01*
X23848528Y23696780D01*
X23909719Y23816874D01*
X23930804Y23950000D01*
X26319196Y23950000D01*
X26340280Y23816874D01*
X26401471Y23696781D01*
X26401472Y23696780D01*
X26496780Y23601472D01*
X26616873Y23540282D01*
X26616873Y23540281D01*
X26635075Y23537399D01*
X26750000Y23519196D01*
X26883126Y23540281D01*
X27003220Y23601472D01*
X27098528Y23696780D01*
X27159719Y23816874D01*
X27179220Y23940000D01*
X35919196Y23940000D01*
X35940280Y23806874D01*
X36001471Y23686781D01*
X36001472Y23686780D01*
X36096780Y23591472D01*
X36216873Y23530282D01*
X36216873Y23530281D01*
X36235075Y23527399D01*
X36350000Y23509196D01*
X36483126Y23530281D01*
X36603220Y23591472D01*
X36698528Y23686780D01*
X36759719Y23806874D01*
X36780804Y23940000D01*
X36759719Y24073126D01*
X36759719Y24073127D01*
X36698528Y24193220D01*
X36603219Y24288529D01*
X36483126Y24349719D01*
X36483126Y24349720D01*
X36350000Y24370804D01*
X36216873Y24349720D01*
X36216873Y24349719D01*
X36096780Y24288529D01*
X36001471Y24193220D01*
X35940281Y24073127D01*
X35940280Y24073127D01*
X35919196Y23940000D01*
X27179220Y23940000D01*
X27180804Y23950000D01*
X27159719Y24083126D01*
X27159719Y24083127D01*
X27098528Y24203220D01*
X27028074Y24273674D01*
X27006682Y24319550D01*
X27019783Y24368445D01*
X27061247Y24397479D01*
X27080400Y24400000D01*
X30100000Y24400000D01*
X30100000Y24975000D01*
X37419196Y24975000D01*
X37440280Y24841874D01*
X37501471Y24721781D01*
X37501472Y24721780D01*
X37596780Y24626472D01*
X37716873Y24565282D01*
X37716873Y24565281D01*
X37735075Y24562399D01*
X37850000Y24544196D01*
X37983126Y24565281D01*
X38103220Y24626472D01*
X38198528Y24721780D01*
X38259719Y24841874D01*
X38280804Y24975000D01*
X38259719Y25108126D01*
X38259719Y25108127D01*
X38198528Y25228220D01*
X38103219Y25323529D01*
X37983126Y25384719D01*
X37983126Y25384720D01*
X37850000Y25405804D01*
X37716873Y25384720D01*
X37716873Y25384719D01*
X37596780Y25323529D01*
X37501471Y25228220D01*
X37440281Y25108127D01*
X37440280Y25108127D01*
X37419196Y24975000D01*
X30100000Y24975000D01*
X30100000Y26200000D01*
X32289196Y26200000D01*
X32310280Y26066874D01*
X32371471Y25946781D01*
X32371472Y25946780D01*
X32466780Y25851472D01*
X32586873Y25790282D01*
X32586873Y25790281D01*
X32605075Y25787399D01*
X32720000Y25769196D01*
X32853126Y25790281D01*
X32973220Y25851472D01*
X33068528Y25946780D01*
X33129719Y26066874D01*
X33150804Y26200000D01*
X33129719Y26333126D01*
X33129719Y26333127D01*
X33068528Y26453220D01*
X32973219Y26548529D01*
X32853126Y26609719D01*
X32853126Y26609720D01*
X32720000Y26630804D01*
X32586873Y26609720D01*
X32586873Y26609719D01*
X32466780Y26548529D01*
X32371471Y26453220D01*
X32310281Y26333127D01*
X32310280Y26333127D01*
X32289196Y26200000D01*
X30100000Y26200000D01*
X30100000Y28800000D01*
X26900000Y28800000D01*
X26900000Y24443690D01*
X26882687Y24396124D01*
X26838850Y24370814D01*
X26814425Y24370601D01*
X26750001Y24380804D01*
X26750000Y24380804D01*
X26616873Y24359720D01*
X26616873Y24359719D01*
X26496780Y24298529D01*
X26401471Y24203220D01*
X26340281Y24083127D01*
X26340280Y24083127D01*
X26319196Y23950000D01*
X23930804Y23950000D01*
X23909719Y24083126D01*
X23909719Y24083127D01*
X23848528Y24203220D01*
X23753219Y24298529D01*
X23633126Y24359719D01*
X23633126Y24359720D01*
X23500000Y24380804D01*
X23366873Y24359720D01*
X23366873Y24359719D01*
X23246780Y24298529D01*
X23151471Y24203220D01*
X23090281Y24083127D01*
X23090280Y24083127D01*
X23069196Y23950000D01*
X500500Y23950000D01*
X500500Y29050000D01*
X34899195Y29050000D01*
X34920279Y28916874D01*
X34979830Y28800000D01*
X34981471Y28796780D01*
X35076779Y28701472D01*
X35196872Y28640282D01*
X35196872Y28640281D01*
X35215074Y28637399D01*
X35329999Y28619196D01*
X35463125Y28640281D01*
X35583219Y28701472D01*
X35678527Y28796780D01*
X35739718Y28916874D01*
X35760803Y29050000D01*
X35739718Y29183126D01*
X35739718Y29183127D01*
X35678527Y29303220D01*
X35583218Y29398529D01*
X35463125Y29459719D01*
X35463125Y29459720D01*
X35329999Y29480804D01*
X35196872Y29459720D01*
X35196872Y29459719D01*
X35076779Y29398529D01*
X34981470Y29303220D01*
X34920280Y29183127D01*
X34920279Y29183127D01*
X34899195Y29050000D01*
X500500Y29050000D01*
X500500Y30600000D01*
X31319196Y30600000D01*
X31340280Y30466874D01*
X31401471Y30346781D01*
X31401472Y30346780D01*
X31496780Y30251472D01*
X31616873Y30190282D01*
X31616873Y30190281D01*
X31635075Y30187399D01*
X31750000Y30169196D01*
X31883126Y30190281D01*
X32003220Y30251472D01*
X32098528Y30346780D01*
X32159719Y30466874D01*
X32180804Y30600000D01*
X32159719Y30733126D01*
X32159719Y30733127D01*
X32098528Y30853220D01*
X32003219Y30948529D01*
X31883126Y31009719D01*
X31883126Y31009720D01*
X31750000Y31030804D01*
X31616873Y31009720D01*
X31616873Y31009719D01*
X31496780Y30948529D01*
X31401471Y30853220D01*
X31340281Y30733127D01*
X31340280Y30733127D01*
X31319196Y30600000D01*
X500500Y30600000D01*
X500500Y35600000D01*
X24644353Y35600000D01*
X24664834Y35457546D01*
X24724623Y35326627D01*
X24818868Y35217861D01*
X24818869Y35217860D01*
X24818872Y35217857D01*
X24939947Y35140047D01*
X25046403Y35108789D01*
X25078035Y35099501D01*
X25078037Y35099500D01*
X25078039Y35099500D01*
X25221963Y35099500D01*
X25221964Y35099501D01*
X25360053Y35140047D01*
X25481128Y35217857D01*
X25575377Y35326627D01*
X25635165Y35457543D01*
X25655647Y35600000D01*
X31306353Y35600000D01*
X31326834Y35457546D01*
X31386623Y35326627D01*
X31480868Y35217861D01*
X31480869Y35217860D01*
X31480872Y35217857D01*
X31601947Y35140047D01*
X31708403Y35108789D01*
X31740035Y35099501D01*
X31740037Y35099500D01*
X31740039Y35099500D01*
X31883963Y35099500D01*
X31883964Y35099501D01*
X32022053Y35140047D01*
X32143128Y35217857D01*
X32237377Y35326627D01*
X32297165Y35457543D01*
X32317647Y35600000D01*
X32297165Y35742457D01*
X32237377Y35873373D01*
X32143128Y35982143D01*
X32086182Y36018740D01*
X32022054Y36059953D01*
X32022050Y36059954D01*
X31883964Y36100500D01*
X31883961Y36100500D01*
X31740039Y36100500D01*
X31740036Y36100500D01*
X31601949Y36059954D01*
X31601945Y36059953D01*
X31480875Y35982145D01*
X31480868Y35982140D01*
X31386623Y35873374D01*
X31326834Y35742455D01*
X31306353Y35600000D01*
X25655647Y35600000D01*
X25635165Y35742457D01*
X25575377Y35873373D01*
X25481128Y35982143D01*
X25424182Y36018740D01*
X25360054Y36059953D01*
X25360050Y36059954D01*
X25221964Y36100500D01*
X25221961Y36100500D01*
X25078039Y36100500D01*
X25078036Y36100500D01*
X24939949Y36059954D01*
X24939945Y36059953D01*
X24818875Y35982145D01*
X24818868Y35982140D01*
X24724623Y35873374D01*
X24664834Y35742455D01*
X24644353Y35600000D01*
X500500Y35600000D01*
X500500Y37000000D01*
X17994353Y37000000D01*
X18014834Y36857546D01*
X18074623Y36726627D01*
X18168868Y36617861D01*
X18168869Y36617860D01*
X18168872Y36617857D01*
X18289947Y36540047D01*
X18396403Y36508789D01*
X18428035Y36499501D01*
X18428037Y36499500D01*
X18428039Y36499500D01*
X18571963Y36499500D01*
X18571964Y36499501D01*
X18710053Y36540047D01*
X18831128Y36617857D01*
X18925377Y36726627D01*
X18985165Y36857543D01*
X19005647Y37000000D01*
X39594353Y37000000D01*
X39614834Y36857546D01*
X39674623Y36726627D01*
X39768868Y36617861D01*
X39768869Y36617860D01*
X39768872Y36617857D01*
X39889947Y36540047D01*
X39996403Y36508789D01*
X40028035Y36499501D01*
X40028037Y36499500D01*
X40028039Y36499500D01*
X40171963Y36499500D01*
X40171964Y36499501D01*
X40310053Y36540047D01*
X40431128Y36617857D01*
X40525377Y36726627D01*
X40585165Y36857543D01*
X40605647Y37000000D01*
X40585165Y37142457D01*
X40525377Y37273373D01*
X40431128Y37382143D01*
X40374182Y37418740D01*
X40310054Y37459953D01*
X40310050Y37459954D01*
X40171964Y37500500D01*
X40171961Y37500500D01*
X40028039Y37500500D01*
X40028036Y37500500D01*
X39889949Y37459954D01*
X39889945Y37459953D01*
X39768875Y37382145D01*
X39768868Y37382140D01*
X39674623Y37273374D01*
X39614834Y37142455D01*
X39594353Y37000000D01*
X19005647Y37000000D01*
X18985165Y37142457D01*
X18925377Y37273373D01*
X18831128Y37382143D01*
X18774182Y37418740D01*
X18710054Y37459953D01*
X18710050Y37459954D01*
X18571964Y37500500D01*
X18571961Y37500500D01*
X18428039Y37500500D01*
X18428036Y37500500D01*
X18289949Y37459954D01*
X18289945Y37459953D01*
X18168875Y37382145D01*
X18168868Y37382140D01*
X18074623Y37273374D01*
X18014834Y37142455D01*
X17994353Y37000000D01*
X500500Y37000000D01*
X500500Y41599997D01*
X21144357Y41599997D01*
X21164890Y41352186D01*
X21225939Y41111113D01*
X21325827Y40883393D01*
X21461836Y40675215D01*
X21630256Y40492262D01*
X21826491Y40339526D01*
X22045190Y40221172D01*
X22280386Y40140429D01*
X22525665Y40099500D01*
X22774335Y40099500D01*
X23019614Y40140429D01*
X23254810Y40221172D01*
X23473509Y40339526D01*
X23669744Y40492262D01*
X23838164Y40675215D01*
X23858051Y40705655D01*
X23898559Y40736006D01*
X23949101Y40733218D01*
X23981948Y40705655D01*
X24001836Y40675215D01*
X24170256Y40492262D01*
X24366491Y40339526D01*
X24585190Y40221172D01*
X24820386Y40140429D01*
X25065665Y40099500D01*
X25314335Y40099500D01*
X25559614Y40140429D01*
X25794810Y40221172D01*
X26013509Y40339526D01*
X26209744Y40492262D01*
X26378164Y40675215D01*
X26398051Y40705655D01*
X26438559Y40736006D01*
X26489101Y40733218D01*
X26521948Y40705655D01*
X26541836Y40675215D01*
X26710256Y40492262D01*
X26906491Y40339526D01*
X27125190Y40221172D01*
X27360386Y40140429D01*
X27605665Y40099500D01*
X27854335Y40099500D01*
X28099614Y40140429D01*
X28334810Y40221172D01*
X28553509Y40339526D01*
X28749744Y40492262D01*
X28918164Y40675215D01*
X28938051Y40705655D01*
X28978559Y40736006D01*
X29029101Y40733218D01*
X29061948Y40705655D01*
X29081836Y40675215D01*
X29250256Y40492262D01*
X29446491Y40339526D01*
X29665190Y40221172D01*
X29900386Y40140429D01*
X30145665Y40099500D01*
X30394335Y40099500D01*
X30639614Y40140429D01*
X30874810Y40221172D01*
X31093509Y40339526D01*
X31289744Y40492262D01*
X31458164Y40675215D01*
X31594173Y40883393D01*
X31694063Y41111119D01*
X31755108Y41352179D01*
X31775643Y41600000D01*
X31775643Y41600004D01*
X31755109Y41847815D01*
X31755108Y41847818D01*
X31755108Y41847821D01*
X31694063Y42088881D01*
X31594173Y42316607D01*
X31458164Y42524785D01*
X31289744Y42707738D01*
X31093509Y42860474D01*
X31010757Y42905257D01*
X30874811Y42978828D01*
X30762118Y43017516D01*
X30639614Y43059571D01*
X30639611Y43059572D01*
X30639610Y43059572D01*
X30394337Y43100500D01*
X30394335Y43100500D01*
X30145665Y43100500D01*
X30145662Y43100500D01*
X29900389Y43059572D01*
X29665188Y42978828D01*
X29446498Y42860478D01*
X29446486Y42860471D01*
X29250254Y42707737D01*
X29081835Y42524784D01*
X29061950Y42494347D01*
X29021439Y42463996D01*
X28970897Y42466785D01*
X28938050Y42494347D01*
X28918164Y42524785D01*
X28749744Y42707738D01*
X28553509Y42860474D01*
X28470757Y42905257D01*
X28334811Y42978828D01*
X28222118Y43017516D01*
X28099614Y43059571D01*
X28099611Y43059572D01*
X28099610Y43059572D01*
X27854337Y43100500D01*
X27854335Y43100500D01*
X27605665Y43100500D01*
X27605662Y43100500D01*
X27360389Y43059572D01*
X27125188Y42978828D01*
X26906498Y42860478D01*
X26906486Y42860471D01*
X26710254Y42707737D01*
X26541835Y42524784D01*
X26521950Y42494347D01*
X26481439Y42463996D01*
X26430897Y42466785D01*
X26398050Y42494347D01*
X26378164Y42524785D01*
X26209744Y42707738D01*
X26013509Y42860474D01*
X25930757Y42905257D01*
X25794811Y42978828D01*
X25682118Y43017516D01*
X25559614Y43059571D01*
X25559611Y43059572D01*
X25559610Y43059572D01*
X25314337Y43100500D01*
X25314335Y43100500D01*
X25065665Y43100500D01*
X25065662Y43100500D01*
X24820389Y43059572D01*
X24585188Y42978828D01*
X24366498Y42860478D01*
X24366486Y42860471D01*
X24170254Y42707737D01*
X24001835Y42524784D01*
X23981950Y42494347D01*
X23941439Y42463996D01*
X23890897Y42466785D01*
X23858050Y42494347D01*
X23838164Y42524785D01*
X23669744Y42707738D01*
X23473509Y42860474D01*
X23390757Y42905257D01*
X23254811Y42978828D01*
X23142118Y43017516D01*
X23019614Y43059571D01*
X23019611Y43059572D01*
X23019610Y43059572D01*
X22774337Y43100500D01*
X22774335Y43100500D01*
X22525665Y43100500D01*
X22525662Y43100500D01*
X22280389Y43059572D01*
X22045188Y42978828D01*
X21826498Y42860478D01*
X21826486Y42860471D01*
X21630254Y42707737D01*
X21461836Y42524786D01*
X21325827Y42316608D01*
X21225939Y42088888D01*
X21164890Y41847815D01*
X21144357Y41600004D01*
X21144357Y41599997D01*
X500500Y41599997D01*
X500500Y46187764D01*
X500635Y46192232D01*
X502665Y46225799D01*
X502919Y46230000D01*
X1349474Y46230000D01*
X1369548Y45974929D01*
X1429276Y45726145D01*
X1429277Y45726141D01*
X1429278Y45726140D01*
X1517329Y45513565D01*
X1527192Y45489755D01*
X1527196Y45489748D01*
X1638665Y45307847D01*
X1660877Y45271601D01*
X1698793Y45227207D01*
X1827041Y45077047D01*
X1827046Y45077042D01*
X1862172Y45047042D01*
X2021601Y44910877D01*
X2239757Y44777191D01*
X2476140Y44679278D01*
X2724930Y44619548D01*
X2916137Y44604500D01*
X3043863Y44604500D01*
X3235070Y44619548D01*
X3483860Y44679278D01*
X3720243Y44777191D01*
X3938399Y44910877D01*
X4132956Y45077044D01*
X4299123Y45271601D01*
X4432809Y45489757D01*
X4530722Y45726140D01*
X4590452Y45974930D01*
X4610526Y46230000D01*
X4590452Y46485070D01*
X4543654Y46679997D01*
X21144357Y46679997D01*
X21164890Y46432186D01*
X21164892Y46432179D01*
X21225655Y46192232D01*
X21225939Y46191113D01*
X21320766Y45974930D01*
X21325827Y45963393D01*
X21461836Y45755215D01*
X21630256Y45572262D01*
X21826491Y45419526D01*
X22045190Y45301172D01*
X22280386Y45220429D01*
X22525665Y45179500D01*
X22774335Y45179500D01*
X23019614Y45220429D01*
X23254810Y45301172D01*
X23473509Y45419526D01*
X23669744Y45572262D01*
X23838164Y45755215D01*
X23858051Y45785655D01*
X23898559Y45816006D01*
X23949101Y45813218D01*
X23981948Y45785655D01*
X24001836Y45755215D01*
X24170256Y45572262D01*
X24366491Y45419526D01*
X24585190Y45301172D01*
X24820386Y45220429D01*
X25065665Y45179500D01*
X25314335Y45179500D01*
X25559614Y45220429D01*
X25794810Y45301172D01*
X26013509Y45419526D01*
X26209744Y45572262D01*
X26378164Y45755215D01*
X26398051Y45785655D01*
X26438559Y45816006D01*
X26489101Y45813218D01*
X26521948Y45785655D01*
X26541836Y45755215D01*
X26710256Y45572262D01*
X26906491Y45419526D01*
X27125190Y45301172D01*
X27360386Y45220429D01*
X27605665Y45179500D01*
X27854335Y45179500D01*
X28099614Y45220429D01*
X28334810Y45301172D01*
X28553509Y45419526D01*
X28678820Y45517060D01*
X28726988Y45532613D01*
X28773886Y45513565D01*
X28794117Y45483104D01*
X28817206Y45417119D01*
X28817207Y45417117D01*
X28897846Y45307854D01*
X28897853Y45307847D01*
X29007116Y45227208D01*
X29007118Y45227207D01*
X29135295Y45182356D01*
X29135301Y45182354D01*
X29165734Y45179500D01*
X29165741Y45179500D01*
X31374258Y45179500D01*
X31374266Y45179500D01*
X31404699Y45182354D01*
X31532882Y45227207D01*
X31642150Y45307850D01*
X31722793Y45417118D01*
X31767646Y45545301D01*
X31770500Y45575734D01*
X31770500Y46200000D01*
X61599474Y46200000D01*
X61619548Y45944929D01*
X61679276Y45696145D01*
X61679277Y45696141D01*
X61679278Y45696140D01*
X61767520Y45483104D01*
X61777192Y45459755D01*
X61777196Y45459748D01*
X61870281Y45307847D01*
X61910877Y45241601D01*
X61963916Y45179500D01*
X62051421Y45077044D01*
X62077044Y45047044D01*
X62271601Y44880877D01*
X62489757Y44747191D01*
X62726140Y44649278D01*
X62974930Y44589548D01*
X63166137Y44574500D01*
X63293863Y44574500D01*
X63485070Y44589548D01*
X63733860Y44649278D01*
X63970243Y44747191D01*
X64188399Y44880877D01*
X64382956Y45047044D01*
X64549123Y45241601D01*
X64682809Y45459757D01*
X64780722Y45696140D01*
X64840452Y45944930D01*
X64860526Y46200000D01*
X64840452Y46455070D01*
X64780722Y46703860D01*
X64682809Y46940243D01*
X64549123Y47158399D01*
X64382956Y47352956D01*
X64382953Y47352959D01*
X64234761Y47479526D01*
X64188399Y47519123D01*
X64143259Y47546785D01*
X63970252Y47652804D01*
X63970245Y47652808D01*
X63897828Y47682804D01*
X63733860Y47750722D01*
X63733859Y47750723D01*
X63733855Y47750724D01*
X63485071Y47810452D01*
X63293863Y47825500D01*
X63166137Y47825500D01*
X62974928Y47810452D01*
X62726144Y47750724D01*
X62489754Y47652808D01*
X62489747Y47652804D01*
X62271603Y47519125D01*
X62271602Y47519124D01*
X62077046Y47352959D01*
X62077041Y47352954D01*
X61910876Y47158398D01*
X61910875Y47158397D01*
X61777196Y46940253D01*
X61777192Y46940246D01*
X61679276Y46703856D01*
X61619548Y46455072D01*
X61599474Y46200000D01*
X31770500Y46200000D01*
X31770500Y47784266D01*
X31767646Y47814699D01*
X31722793Y47942882D01*
X31686700Y47991787D01*
X31642153Y48052147D01*
X31642146Y48052154D01*
X31532883Y48132793D01*
X31532881Y48132794D01*
X31404704Y48177645D01*
X31404705Y48177645D01*
X31404700Y48177646D01*
X31404699Y48177646D01*
X31374266Y48180500D01*
X29165734Y48180500D01*
X29135301Y48177646D01*
X29135299Y48177646D01*
X29135295Y48177645D01*
X29007118Y48132794D01*
X29007116Y48132793D01*
X28897853Y48052154D01*
X28897846Y48052147D01*
X28817207Y47942884D01*
X28817206Y47942882D01*
X28794117Y47876898D01*
X28762065Y47837719D01*
X28712329Y47828309D01*
X28678819Y47842942D01*
X28598347Y47905575D01*
X28553509Y47940474D01*
X28458691Y47991787D01*
X28334811Y48058828D01*
X28222118Y48097516D01*
X28099614Y48139571D01*
X28099611Y48139572D01*
X28099610Y48139572D01*
X27854337Y48180500D01*
X27854335Y48180500D01*
X27605665Y48180500D01*
X27605662Y48180500D01*
X27360389Y48139572D01*
X27125188Y48058828D01*
X26906498Y47940478D01*
X26906486Y47940471D01*
X26710254Y47787737D01*
X26541835Y47604784D01*
X26521950Y47574347D01*
X26481439Y47543996D01*
X26430897Y47546785D01*
X26398050Y47574347D01*
X26378164Y47604785D01*
X26209744Y47787738D01*
X26013509Y47940474D01*
X25918691Y47991787D01*
X25794811Y48058828D01*
X25682118Y48097516D01*
X25559614Y48139571D01*
X25559611Y48139572D01*
X25559610Y48139572D01*
X25314337Y48180500D01*
X25314335Y48180500D01*
X25065665Y48180500D01*
X25065662Y48180500D01*
X24820389Y48139572D01*
X24585188Y48058828D01*
X24366498Y47940478D01*
X24366486Y47940471D01*
X24170254Y47787737D01*
X24001835Y47604784D01*
X23981950Y47574347D01*
X23941439Y47543996D01*
X23890897Y47546785D01*
X23858050Y47574347D01*
X23838164Y47604785D01*
X23669744Y47787738D01*
X23473509Y47940474D01*
X23378691Y47991787D01*
X23254811Y48058828D01*
X23142118Y48097516D01*
X23019614Y48139571D01*
X23019611Y48139572D01*
X23019610Y48139572D01*
X22774337Y48180500D01*
X22774335Y48180500D01*
X22525665Y48180500D01*
X22525662Y48180500D01*
X22280389Y48139572D01*
X22045188Y48058828D01*
X21826498Y47940478D01*
X21826486Y47940471D01*
X21630254Y47787737D01*
X21461836Y47604786D01*
X21325827Y47396608D01*
X21225939Y47168888D01*
X21225937Y47168883D01*
X21225937Y47168881D01*
X21223282Y47158397D01*
X21164890Y46927815D01*
X21144357Y46680004D01*
X21144357Y46679997D01*
X4543654Y46679997D01*
X4530722Y46733860D01*
X4432809Y46970243D01*
X4299123Y47188399D01*
X4158576Y47352959D01*
X4132958Y47382954D01*
X4132953Y47382959D01*
X4019887Y47479526D01*
X3938399Y47549123D01*
X3897237Y47574347D01*
X3720252Y47682804D01*
X3720245Y47682808D01*
X3556281Y47750724D01*
X3483860Y47780722D01*
X3483859Y47780723D01*
X3483855Y47780724D01*
X3235071Y47840452D01*
X3043863Y47855500D01*
X2916137Y47855500D01*
X2724928Y47840452D01*
X2476144Y47780724D01*
X2239754Y47682808D01*
X2239747Y47682804D01*
X2021603Y47549125D01*
X2021602Y47549124D01*
X1827046Y47382959D01*
X1827041Y47382954D01*
X1660876Y47188398D01*
X1660875Y47188397D01*
X1527196Y46970253D01*
X1527192Y46970246D01*
X1429276Y46733856D01*
X1369548Y46485072D01*
X1349474Y46230000D01*
X502919Y46230000D01*
X518454Y46486824D01*
X519528Y46495672D01*
X572328Y46783789D01*
X574458Y46792432D01*
X661597Y47072069D01*
X664754Y47080396D01*
X784971Y47347507D01*
X789115Y47355401D01*
X940636Y47606048D01*
X945712Y47613401D01*
X976586Y47652809D01*
X1126343Y47843961D01*
X1132254Y47850633D01*
X1339367Y48057746D01*
X1346039Y48063657D01*
X1576599Y48244289D01*
X1583953Y48249364D01*
X1630926Y48277760D01*
X1834599Y48400885D01*
X1842493Y48405029D01*
X2109604Y48525246D01*
X2117931Y48528403D01*
X2397568Y48615542D01*
X2406211Y48617672D01*
X2694328Y48670472D01*
X2703176Y48671546D01*
X2997768Y48689366D01*
X3002236Y48689500D01*
X3065892Y48689500D01*
X63154108Y48689500D01*
X63217764Y48689500D01*
X63222231Y48689366D01*
G37*
%TD.AperFunction*%
%TD*%
M02*
