%TF.GenerationSoftware,KiCad,Pcbnew,7.0.11+dfsg-1build4*%
%TF.CreationDate,2026-09-28T13:56:04+09:00*%
%TF.ProjectId,t1s_hat,7431735f-6861-4742-9e6b-696361645f70,rev?*%
%TF.SameCoordinates,Original*%
%TF.FileFunction,Copper,L3,Inr*%
%TF.FilePolarity,Positive*%
%FSLAX46Y46*%
G04 Gerber Fmt 4.6, Leading zero omitted, Abs format (unit mm)*
G04 Created by KiCad (PCBNEW 7.0.11+dfsg-1build4) date 2026-09-28 13:56:04*
%MOMM*%
%LPD*%
G01*
G04 APERTURE LIST*
G04 Aperture macros list*
%AMRoundRect*
0 Rectangle with rounded corners*
0 $1 Rounding radius*
0 $2 $3 $4 $5 $6 $7 $8 $9 X,Y pos of 4 corners*
0 Add a 4 corners polygon primitive as box body*
4,1,4,$2,$3,$4,$5,$6,$7,$8,$9,$2,$3,0*
0 Add four circle primitives for the rounded corners*
1,1,$1+$1,$2,$3*
1,1,$1+$1,$4,$5*
1,1,$1+$1,$6,$7*
1,1,$1+$1,$8,$9*
0 Add four rect primitives between the rounded corners*
20,1,$1+$1,$2,$3,$4,$5,0*
20,1,$1+$1,$4,$5,$6,$7,0*
20,1,$1+$1,$6,$7,$8,$9,0*
20,1,$1+$1,$8,$9,$2,$3,0*%
G04 Aperture macros list end*
%TA.AperFunction,HeatsinkPad*%
%ADD10C,0.500000*%
%TD*%
%TA.AperFunction,ComponentPad*%
%ADD11R,1.700000X1.700000*%
%TD*%
%TA.AperFunction,ComponentPad*%
%ADD12O,1.700000X1.700000*%
%TD*%
%TA.AperFunction,ComponentPad*%
%ADD13RoundRect,0.250000X0.650000X1.550000X-0.650000X1.550000X-0.650000X-1.550000X0.650000X-1.550000X0*%
%TD*%
%TA.AperFunction,ComponentPad*%
%ADD14O,1.800000X3.600000*%
%TD*%
%TA.AperFunction,ViaPad*%
%ADD15C,0.450000*%
%TD*%
%TA.AperFunction,ViaPad*%
%ADD16C,0.600000*%
%TD*%
G04 APERTURE END LIST*
D10*
%TO.N,GND*%
%TO.C,U1*%
X28550000Y21450000D03*
X28550000Y20000000D03*
X28550000Y18550000D03*
X30000000Y21450000D03*
X30000000Y20000000D03*
X30000000Y18550000D03*
X31450000Y21450000D03*
X31450000Y20000000D03*
X31450000Y18550000D03*
%TD*%
D11*
%TO.N,+3V3*%
%TO.C,J1*%
X56456000Y5900000D03*
D12*
%TO.N,N/C*%
X56456000Y3360000D03*
X53916000Y5900000D03*
X53916000Y3360000D03*
X51376000Y5900000D03*
%TO.N,GND*%
X51376000Y3360000D03*
%TO.N,N/C*%
X48836000Y5900000D03*
X48836000Y3360000D03*
%TO.N,GND*%
X46296000Y5900000D03*
%TO.N,N/C*%
X46296000Y3360000D03*
X43756000Y5900000D03*
X43756000Y3360000D03*
X41216000Y5900000D03*
%TO.N,GND*%
X41216000Y3360000D03*
%TO.N,RESET_N*%
X38676000Y5900000D03*
%TO.N,IRQ_N*%
X38676000Y3360000D03*
%TO.N,+3V3*%
X36136000Y5900000D03*
%TO.N,N/C*%
X36136000Y3360000D03*
%TO.N,SPI_MOSI*%
X33596000Y5900000D03*
%TO.N,GND*%
X33596000Y3360000D03*
%TO.N,SPI_MISO*%
X31056000Y5900000D03*
%TO.N,N/C*%
X31056000Y3360000D03*
%TO.N,SPI_SCLK*%
X28516000Y5900000D03*
%TO.N,SPI_CS_N*%
X28516000Y3360000D03*
%TO.N,GND*%
X25976000Y5900000D03*
%TO.N,N/C*%
X25976000Y3360000D03*
X23436000Y5900000D03*
X23436000Y3360000D03*
X20896000Y5900000D03*
%TO.N,GND*%
X20896000Y3360000D03*
%TO.N,N/C*%
X18356000Y5900000D03*
X18356000Y3360000D03*
X15816000Y5900000D03*
%TO.N,GND*%
X15816000Y3360000D03*
%TO.N,N/C*%
X13276000Y5900000D03*
X13276000Y3360000D03*
X10736000Y5900000D03*
X10736000Y3360000D03*
%TO.N,GND*%
X8196000Y5900000D03*
%TO.N,N/C*%
X8196000Y3360000D03*
%TD*%
D13*
%TO.N,BUS_P*%
%TO.C,CN1*%
X30405000Y40650000D03*
D14*
%TO.N,BUS_N*%
X26595000Y40650000D03*
X22785000Y40650000D03*
%TO.N,BUS_P*%
X18975000Y40650000D03*
%TD*%
D15*
%TO.N,+3V3*%
X19800000Y18725000D03*
X36300000Y14100000D03*
X49400000Y19000000D03*
X44000000Y31150000D03*
X15050000Y19300000D03*
X33000000Y32050000D03*
X25595000Y7600000D03*
X24975000Y13200000D03*
X22075000Y15200000D03*
X49400000Y21500000D03*
%TO.N,GND*%
X39150000Y25350000D03*
D16*
X49100000Y27600000D03*
X25150000Y35600000D03*
X27600000Y23200000D03*
X17900000Y18000000D03*
D15*
X36350000Y15700000D03*
D16*
X30699999Y26400000D03*
X38150000Y30900000D03*
D15*
X36350000Y17300000D03*
D16*
X18500000Y37000000D03*
X36900000Y20200000D03*
D15*
X31750000Y16700000D03*
D16*
X41000000Y28700000D03*
X30699999Y28000000D03*
D15*
X25400000Y21250000D03*
X23800000Y21250000D03*
D16*
X49100000Y26000000D03*
X35650000Y30900000D03*
D15*
X33300000Y21750000D03*
X41400000Y20550000D03*
D16*
X40100000Y37000000D03*
X31812000Y35600000D03*
D15*
X33300000Y20750000D03*
%TO.N,RESET_N*%
X24000000Y16900000D03*
%TO.N,IRQ_N*%
X27246000Y15500000D03*
%TO.N,SPI_MISO*%
X28350000Y15500000D03*
%TD*%
%TA.AperFunction,Conductor*%
%TO.N,+3V3*%
G36*
X63222065Y48889385D02*
G01*
X63518112Y48872759D01*
X63526346Y48871830D01*
X63816603Y48822514D01*
X63824671Y48820673D01*
X64107605Y48739161D01*
X64115418Y48736427D01*
X64387428Y48623756D01*
X64394904Y48620156D01*
X64652594Y48477737D01*
X64659608Y48473329D01*
X64899716Y48302963D01*
X64906203Y48297791D01*
X65125741Y48101600D01*
X65131604Y48095737D01*
X65327789Y47876205D01*
X65332962Y47869717D01*
X65503324Y47629615D01*
X65507740Y47622588D01*
X65650155Y47364905D01*
X65653755Y47357429D01*
X65766422Y47085429D01*
X65769163Y47077596D01*
X65850669Y46794683D01*
X65852515Y46786592D01*
X65901828Y46496353D01*
X65902758Y46488107D01*
X65919384Y46192066D01*
X65919500Y46187917D01*
X65919500Y44074000D01*
X65902187Y44026434D01*
X65858350Y44001124D01*
X65845500Y44000000D01*
X58000000Y44000000D01*
X58000000Y22000000D01*
X65845500Y22000000D01*
X65893066Y21982687D01*
X65918376Y21938850D01*
X65919500Y21926000D01*
X65919500Y3002084D01*
X65919384Y2997935D01*
X65902758Y2701894D01*
X65901828Y2693648D01*
X65852515Y2403409D01*
X65850669Y2395318D01*
X65769163Y2112405D01*
X65766422Y2104572D01*
X65653755Y1832572D01*
X65650155Y1825096D01*
X65507740Y1567413D01*
X65503324Y1560386D01*
X65332962Y1320284D01*
X65327789Y1313796D01*
X65131604Y1094264D01*
X65125736Y1088396D01*
X64906204Y892211D01*
X64899716Y887038D01*
X64659614Y716676D01*
X64652587Y712260D01*
X64394904Y569845D01*
X64387428Y566245D01*
X64115428Y453578D01*
X64107595Y450837D01*
X63824682Y369331D01*
X63816591Y367485D01*
X63526352Y318172D01*
X63518106Y317242D01*
X63222066Y300616D01*
X63217917Y300500D01*
X3002083Y300500D01*
X2997934Y300616D01*
X2701893Y317242D01*
X2693647Y318172D01*
X2403408Y367485D01*
X2395317Y369331D01*
X2112404Y450837D01*
X2104571Y453578D01*
X1832571Y566245D01*
X1825095Y569845D01*
X1567412Y712260D01*
X1560385Y716676D01*
X1320283Y887038D01*
X1313795Y892211D01*
X1282612Y920078D01*
X1094258Y1088401D01*
X1088400Y1094259D01*
X892209Y1313797D01*
X887037Y1320284D01*
X716675Y1560386D01*
X712263Y1567406D01*
X569844Y1825096D01*
X566244Y1832572D01*
X453573Y2104582D01*
X450839Y2112395D01*
X369327Y2395329D01*
X367486Y2403397D01*
X318170Y2693654D01*
X317241Y2701894D01*
X300616Y2997935D01*
X300500Y3002084D01*
X300500Y4566355D01*
X1750657Y4566355D01*
X1781316Y4313843D01*
X1781320Y4313826D01*
X1852087Y4069509D01*
X1852090Y4069500D01*
X1961135Y3839694D01*
X1961137Y3839691D01*
X1961138Y3839689D01*
X1961139Y3839688D01*
X2105640Y3630341D01*
X2281852Y3446885D01*
X2485210Y3294071D01*
X2710448Y3175857D01*
X2951732Y3095305D01*
X3202813Y3054500D01*
X3202816Y3054500D01*
X3393483Y3054500D01*
X3583550Y3069844D01*
X3830533Y3130720D01*
X4064553Y3230426D01*
X4269457Y3360000D01*
X7140417Y3360000D01*
X7158553Y3175859D01*
X7160700Y3154066D01*
X7220768Y2956046D01*
X7318315Y2773550D01*
X7449590Y2613590D01*
X7609550Y2482315D01*
X7792046Y2384768D01*
X7990066Y2324700D01*
X8196000Y2304417D01*
X8401934Y2324700D01*
X8599954Y2384768D01*
X8782450Y2482315D01*
X8942410Y2613590D01*
X9073685Y2773550D01*
X9171232Y2956046D01*
X9231300Y3154066D01*
X9251583Y3360000D01*
X9680417Y3360000D01*
X9698553Y3175859D01*
X9700700Y3154066D01*
X9760768Y2956046D01*
X9858315Y2773550D01*
X9989590Y2613590D01*
X10149550Y2482315D01*
X10332046Y2384768D01*
X10530066Y2324700D01*
X10736000Y2304417D01*
X10941934Y2324700D01*
X11139954Y2384768D01*
X11322450Y2482315D01*
X11482410Y2613590D01*
X11613685Y2773550D01*
X11711232Y2956046D01*
X11771300Y3154066D01*
X11791583Y3360000D01*
X12220417Y3360000D01*
X12238553Y3175859D01*
X12240700Y3154066D01*
X12300768Y2956046D01*
X12398315Y2773550D01*
X12529590Y2613590D01*
X12689550Y2482315D01*
X12872046Y2384768D01*
X13070066Y2324700D01*
X13276000Y2304417D01*
X13481934Y2324700D01*
X13679954Y2384768D01*
X13862450Y2482315D01*
X14022410Y2613590D01*
X14153685Y2773550D01*
X14251232Y2956046D01*
X14311300Y3154066D01*
X14331583Y3360000D01*
X14760417Y3360000D01*
X14778553Y3175859D01*
X14780700Y3154066D01*
X14840768Y2956046D01*
X14938315Y2773550D01*
X15069590Y2613590D01*
X15229550Y2482315D01*
X15412046Y2384768D01*
X15610066Y2324700D01*
X15816000Y2304417D01*
X16021934Y2324700D01*
X16219954Y2384768D01*
X16402450Y2482315D01*
X16562410Y2613590D01*
X16693685Y2773550D01*
X16791232Y2956046D01*
X16851300Y3154066D01*
X16871583Y3360000D01*
X17300417Y3360000D01*
X17318553Y3175859D01*
X17320700Y3154066D01*
X17380768Y2956046D01*
X17478315Y2773550D01*
X17609590Y2613590D01*
X17769550Y2482315D01*
X17952046Y2384768D01*
X18150066Y2324700D01*
X18356000Y2304417D01*
X18561934Y2324700D01*
X18759954Y2384768D01*
X18942450Y2482315D01*
X19102410Y2613590D01*
X19233685Y2773550D01*
X19331232Y2956046D01*
X19391300Y3154066D01*
X19411583Y3360000D01*
X19840417Y3360000D01*
X19858553Y3175859D01*
X19860700Y3154066D01*
X19920768Y2956046D01*
X20018315Y2773550D01*
X20149590Y2613590D01*
X20309550Y2482315D01*
X20492046Y2384768D01*
X20690066Y2324700D01*
X20896000Y2304417D01*
X21101934Y2324700D01*
X21299954Y2384768D01*
X21482450Y2482315D01*
X21642410Y2613590D01*
X21773685Y2773550D01*
X21871232Y2956046D01*
X21931300Y3154066D01*
X21951583Y3360000D01*
X22380417Y3360000D01*
X22398553Y3175859D01*
X22400700Y3154066D01*
X22460768Y2956046D01*
X22558315Y2773550D01*
X22689590Y2613590D01*
X22849550Y2482315D01*
X23032046Y2384768D01*
X23230066Y2324700D01*
X23436000Y2304417D01*
X23641934Y2324700D01*
X23839954Y2384768D01*
X24022450Y2482315D01*
X24182410Y2613590D01*
X24313685Y2773550D01*
X24411232Y2956046D01*
X24471300Y3154066D01*
X24491583Y3360000D01*
X24920417Y3360000D01*
X24938553Y3175859D01*
X24940700Y3154066D01*
X25000768Y2956046D01*
X25098315Y2773550D01*
X25229590Y2613590D01*
X25389550Y2482315D01*
X25572046Y2384768D01*
X25770066Y2324700D01*
X25976000Y2304417D01*
X26181934Y2324700D01*
X26379954Y2384768D01*
X26562450Y2482315D01*
X26722410Y2613590D01*
X26853685Y2773550D01*
X26951232Y2956046D01*
X27011300Y3154066D01*
X27031583Y3360000D01*
X27460417Y3360000D01*
X27478553Y3175859D01*
X27480700Y3154066D01*
X27540768Y2956046D01*
X27638315Y2773550D01*
X27769590Y2613590D01*
X27929550Y2482315D01*
X28112046Y2384768D01*
X28310066Y2324700D01*
X28516000Y2304417D01*
X28721934Y2324700D01*
X28919954Y2384768D01*
X29102450Y2482315D01*
X29262410Y2613590D01*
X29393685Y2773550D01*
X29491232Y2956046D01*
X29551300Y3154066D01*
X29571583Y3360000D01*
X30000417Y3360000D01*
X30018553Y3175859D01*
X30020700Y3154066D01*
X30080768Y2956046D01*
X30178315Y2773550D01*
X30309590Y2613590D01*
X30469550Y2482315D01*
X30652046Y2384768D01*
X30850066Y2324700D01*
X31056000Y2304417D01*
X31261934Y2324700D01*
X31459954Y2384768D01*
X31642450Y2482315D01*
X31802410Y2613590D01*
X31933685Y2773550D01*
X32031232Y2956046D01*
X32091300Y3154066D01*
X32111583Y3360000D01*
X32540417Y3360000D01*
X32558553Y3175859D01*
X32560700Y3154066D01*
X32620768Y2956046D01*
X32718315Y2773550D01*
X32849590Y2613590D01*
X33009550Y2482315D01*
X33192046Y2384768D01*
X33390066Y2324700D01*
X33596000Y2304417D01*
X33801934Y2324700D01*
X33999954Y2384768D01*
X34182450Y2482315D01*
X34342410Y2613590D01*
X34473685Y2773550D01*
X34571232Y2956046D01*
X34631300Y3154066D01*
X34651583Y3360000D01*
X35080417Y3360000D01*
X35098553Y3175859D01*
X35100700Y3154066D01*
X35160768Y2956046D01*
X35258315Y2773550D01*
X35389590Y2613590D01*
X35549550Y2482315D01*
X35732046Y2384768D01*
X35930066Y2324700D01*
X36136000Y2304417D01*
X36341934Y2324700D01*
X36539954Y2384768D01*
X36722450Y2482315D01*
X36882410Y2613590D01*
X37013685Y2773550D01*
X37111232Y2956046D01*
X37171300Y3154066D01*
X37191583Y3360000D01*
X37620417Y3360000D01*
X37638553Y3175859D01*
X37640700Y3154066D01*
X37700768Y2956046D01*
X37798315Y2773550D01*
X37929590Y2613590D01*
X38089550Y2482315D01*
X38272046Y2384768D01*
X38470066Y2324700D01*
X38676000Y2304417D01*
X38881934Y2324700D01*
X39079954Y2384768D01*
X39262450Y2482315D01*
X39422410Y2613590D01*
X39553685Y2773550D01*
X39651232Y2956046D01*
X39711300Y3154066D01*
X39731583Y3360000D01*
X40160417Y3360000D01*
X40178553Y3175859D01*
X40180700Y3154066D01*
X40240768Y2956046D01*
X40338315Y2773550D01*
X40469590Y2613590D01*
X40629550Y2482315D01*
X40812046Y2384768D01*
X41010066Y2324700D01*
X41216000Y2304417D01*
X41421934Y2324700D01*
X41619954Y2384768D01*
X41802450Y2482315D01*
X41962410Y2613590D01*
X42093685Y2773550D01*
X42191232Y2956046D01*
X42251300Y3154066D01*
X42271583Y3360000D01*
X42700417Y3360000D01*
X42718553Y3175859D01*
X42720700Y3154066D01*
X42780768Y2956046D01*
X42878315Y2773550D01*
X43009590Y2613590D01*
X43169550Y2482315D01*
X43352046Y2384768D01*
X43550066Y2324700D01*
X43756000Y2304417D01*
X43961934Y2324700D01*
X44159954Y2384768D01*
X44342450Y2482315D01*
X44502410Y2613590D01*
X44633685Y2773550D01*
X44731232Y2956046D01*
X44791300Y3154066D01*
X44811583Y3360000D01*
X45240417Y3360000D01*
X45258553Y3175859D01*
X45260700Y3154066D01*
X45320768Y2956046D01*
X45418315Y2773550D01*
X45549590Y2613590D01*
X45709550Y2482315D01*
X45892046Y2384768D01*
X46090066Y2324700D01*
X46296000Y2304417D01*
X46501934Y2324700D01*
X46699954Y2384768D01*
X46882450Y2482315D01*
X47042410Y2613590D01*
X47173685Y2773550D01*
X47271232Y2956046D01*
X47331300Y3154066D01*
X47351583Y3360000D01*
X47780417Y3360000D01*
X47798553Y3175859D01*
X47800700Y3154066D01*
X47860768Y2956046D01*
X47958315Y2773550D01*
X48089590Y2613590D01*
X48249550Y2482315D01*
X48432046Y2384768D01*
X48630066Y2324700D01*
X48836000Y2304417D01*
X49041934Y2324700D01*
X49239954Y2384768D01*
X49422450Y2482315D01*
X49582410Y2613590D01*
X49713685Y2773550D01*
X49811232Y2956046D01*
X49871300Y3154066D01*
X49891583Y3360000D01*
X50320417Y3360000D01*
X50338553Y3175859D01*
X50340700Y3154066D01*
X50400768Y2956046D01*
X50498315Y2773550D01*
X50629590Y2613590D01*
X50789550Y2482315D01*
X50972046Y2384768D01*
X51170066Y2324700D01*
X51376000Y2304417D01*
X51581934Y2324700D01*
X51779954Y2384768D01*
X51962450Y2482315D01*
X52122410Y2613590D01*
X52253685Y2773550D01*
X52351232Y2956046D01*
X52411300Y3154066D01*
X52431583Y3360000D01*
X52860417Y3360000D01*
X52878553Y3175859D01*
X52880700Y3154066D01*
X52940768Y2956046D01*
X53038315Y2773550D01*
X53169590Y2613590D01*
X53329550Y2482315D01*
X53512046Y2384768D01*
X53710066Y2324700D01*
X53916000Y2304417D01*
X54121934Y2324700D01*
X54319954Y2384768D01*
X54502450Y2482315D01*
X54662410Y2613590D01*
X54793685Y2773550D01*
X54891232Y2956046D01*
X54951300Y3154066D01*
X54971583Y3360000D01*
X55400417Y3360000D01*
X55418553Y3175859D01*
X55420700Y3154066D01*
X55480768Y2956046D01*
X55578315Y2773550D01*
X55709590Y2613590D01*
X55869550Y2482315D01*
X56052046Y2384768D01*
X56250066Y2324700D01*
X56456000Y2304417D01*
X56661934Y2324700D01*
X56859954Y2384768D01*
X57042450Y2482315D01*
X57202410Y2613590D01*
X57333685Y2773550D01*
X57431232Y2956046D01*
X57491300Y3154066D01*
X57511583Y3360000D01*
X57491300Y3565934D01*
X57431232Y3763954D01*
X57333685Y3946450D01*
X57202410Y4106410D01*
X57042450Y4237685D01*
X56859956Y4335231D01*
X56859955Y4335232D01*
X56859954Y4335232D01*
X56748158Y4369145D01*
X56661935Y4395300D01*
X56456000Y4415583D01*
X56250064Y4395300D01*
X56052043Y4335231D01*
X55869549Y4237685D01*
X55709590Y4106411D01*
X55709589Y4106410D01*
X55578315Y3946451D01*
X55480769Y3763957D01*
X55420700Y3565936D01*
X55400417Y3360000D01*
X54971583Y3360000D01*
X54951300Y3565934D01*
X54891232Y3763954D01*
X54793685Y3946450D01*
X54662410Y4106410D01*
X54502450Y4237685D01*
X54319956Y4335231D01*
X54319955Y4335232D01*
X54319954Y4335232D01*
X54208158Y4369145D01*
X54121935Y4395300D01*
X53916000Y4415583D01*
X53710064Y4395300D01*
X53512043Y4335231D01*
X53329549Y4237685D01*
X53169590Y4106411D01*
X53169589Y4106410D01*
X53038315Y3946451D01*
X52940769Y3763957D01*
X52880700Y3565936D01*
X52860417Y3360000D01*
X52431583Y3360000D01*
X52411300Y3565934D01*
X52351232Y3763954D01*
X52253685Y3946450D01*
X52122410Y4106410D01*
X51962450Y4237685D01*
X51779956Y4335231D01*
X51779955Y4335232D01*
X51779954Y4335232D01*
X51668158Y4369145D01*
X51581935Y4395300D01*
X51376000Y4415583D01*
X51170064Y4395300D01*
X50972043Y4335231D01*
X50789549Y4237685D01*
X50629590Y4106411D01*
X50629589Y4106410D01*
X50498315Y3946451D01*
X50400769Y3763957D01*
X50340700Y3565936D01*
X50320417Y3360000D01*
X49891583Y3360000D01*
X49871300Y3565934D01*
X49811232Y3763954D01*
X49713685Y3946450D01*
X49582410Y4106410D01*
X49422450Y4237685D01*
X49239956Y4335231D01*
X49239955Y4335232D01*
X49239954Y4335232D01*
X49128158Y4369145D01*
X49041935Y4395300D01*
X48836000Y4415583D01*
X48630064Y4395300D01*
X48432043Y4335231D01*
X48249549Y4237685D01*
X48089590Y4106411D01*
X48089589Y4106410D01*
X47958315Y3946451D01*
X47860769Y3763957D01*
X47800700Y3565936D01*
X47780417Y3360000D01*
X47351583Y3360000D01*
X47331300Y3565934D01*
X47271232Y3763954D01*
X47173685Y3946450D01*
X47042410Y4106410D01*
X46882450Y4237685D01*
X46699956Y4335231D01*
X46699955Y4335232D01*
X46699954Y4335232D01*
X46588158Y4369145D01*
X46501935Y4395300D01*
X46296000Y4415583D01*
X46090064Y4395300D01*
X45892043Y4335231D01*
X45709549Y4237685D01*
X45549590Y4106411D01*
X45549589Y4106410D01*
X45418315Y3946451D01*
X45320769Y3763957D01*
X45260700Y3565936D01*
X45240417Y3360000D01*
X44811583Y3360000D01*
X44791300Y3565934D01*
X44731232Y3763954D01*
X44633685Y3946450D01*
X44502410Y4106410D01*
X44342450Y4237685D01*
X44159956Y4335231D01*
X44159955Y4335232D01*
X44159954Y4335232D01*
X44048158Y4369145D01*
X43961935Y4395300D01*
X43756000Y4415583D01*
X43550064Y4395300D01*
X43352043Y4335231D01*
X43169549Y4237685D01*
X43009590Y4106411D01*
X43009589Y4106410D01*
X42878315Y3946451D01*
X42780769Y3763957D01*
X42720700Y3565936D01*
X42700417Y3360000D01*
X42271583Y3360000D01*
X42251300Y3565934D01*
X42191232Y3763954D01*
X42093685Y3946450D01*
X41962410Y4106410D01*
X41802450Y4237685D01*
X41619956Y4335231D01*
X41619955Y4335232D01*
X41619954Y4335232D01*
X41508158Y4369145D01*
X41421935Y4395300D01*
X41216000Y4415583D01*
X41010064Y4395300D01*
X40812043Y4335231D01*
X40629549Y4237685D01*
X40469590Y4106411D01*
X40469589Y4106410D01*
X40338315Y3946451D01*
X40240769Y3763957D01*
X40180700Y3565936D01*
X40160417Y3360000D01*
X39731583Y3360000D01*
X39711300Y3565934D01*
X39651232Y3763954D01*
X39553685Y3946450D01*
X39422410Y4106410D01*
X39262450Y4237685D01*
X39079956Y4335231D01*
X39079955Y4335232D01*
X39079954Y4335232D01*
X38968158Y4369145D01*
X38881935Y4395300D01*
X38676000Y4415583D01*
X38470064Y4395300D01*
X38272043Y4335231D01*
X38089549Y4237685D01*
X37929590Y4106411D01*
X37929589Y4106410D01*
X37798315Y3946451D01*
X37700769Y3763957D01*
X37640700Y3565936D01*
X37620417Y3360000D01*
X37191583Y3360000D01*
X37171300Y3565934D01*
X37111232Y3763954D01*
X37013685Y3946450D01*
X36882410Y4106410D01*
X36722450Y4237685D01*
X36539956Y4335231D01*
X36539955Y4335232D01*
X36539954Y4335232D01*
X36428158Y4369145D01*
X36341935Y4395300D01*
X36136000Y4415583D01*
X35930064Y4395300D01*
X35732043Y4335231D01*
X35549549Y4237685D01*
X35389590Y4106411D01*
X35389589Y4106410D01*
X35258315Y3946451D01*
X35160769Y3763957D01*
X35100700Y3565936D01*
X35080417Y3360000D01*
X34651583Y3360000D01*
X34631300Y3565934D01*
X34571232Y3763954D01*
X34473685Y3946450D01*
X34342410Y4106410D01*
X34182450Y4237685D01*
X33999956Y4335231D01*
X33999955Y4335232D01*
X33999954Y4335232D01*
X33888158Y4369145D01*
X33801935Y4395300D01*
X33596000Y4415583D01*
X33390064Y4395300D01*
X33192043Y4335231D01*
X33009549Y4237685D01*
X32849590Y4106411D01*
X32849589Y4106410D01*
X32718315Y3946451D01*
X32620769Y3763957D01*
X32560700Y3565936D01*
X32540417Y3360000D01*
X32111583Y3360000D01*
X32091300Y3565934D01*
X32031232Y3763954D01*
X31933685Y3946450D01*
X31802410Y4106410D01*
X31642450Y4237685D01*
X31459956Y4335231D01*
X31459955Y4335232D01*
X31459954Y4335232D01*
X31348158Y4369145D01*
X31261935Y4395300D01*
X31056000Y4415583D01*
X30850064Y4395300D01*
X30652043Y4335231D01*
X30469549Y4237685D01*
X30309590Y4106411D01*
X30309589Y4106410D01*
X30178315Y3946451D01*
X30080769Y3763957D01*
X30020700Y3565936D01*
X30000417Y3360000D01*
X29571583Y3360000D01*
X29551300Y3565934D01*
X29491232Y3763954D01*
X29393685Y3946450D01*
X29262410Y4106410D01*
X29102450Y4237685D01*
X28919956Y4335231D01*
X28919955Y4335232D01*
X28919954Y4335232D01*
X28808158Y4369145D01*
X28721935Y4395300D01*
X28516000Y4415583D01*
X28310064Y4395300D01*
X28112043Y4335231D01*
X27929549Y4237685D01*
X27769590Y4106411D01*
X27769589Y4106410D01*
X27638315Y3946451D01*
X27540769Y3763957D01*
X27480700Y3565936D01*
X27460417Y3360000D01*
X27031583Y3360000D01*
X27011300Y3565934D01*
X26951232Y3763954D01*
X26853685Y3946450D01*
X26722410Y4106410D01*
X26562450Y4237685D01*
X26379956Y4335231D01*
X26379955Y4335232D01*
X26379954Y4335232D01*
X26268158Y4369145D01*
X26181935Y4395300D01*
X25976000Y4415583D01*
X25770064Y4395300D01*
X25572043Y4335231D01*
X25389549Y4237685D01*
X25229590Y4106411D01*
X25229589Y4106410D01*
X25098315Y3946451D01*
X25000769Y3763957D01*
X24940700Y3565936D01*
X24920417Y3360000D01*
X24491583Y3360000D01*
X24471300Y3565934D01*
X24411232Y3763954D01*
X24313685Y3946450D01*
X24182410Y4106410D01*
X24022450Y4237685D01*
X23839956Y4335231D01*
X23839955Y4335232D01*
X23839954Y4335232D01*
X23728158Y4369145D01*
X23641935Y4395300D01*
X23436000Y4415583D01*
X23230064Y4395300D01*
X23032043Y4335231D01*
X22849549Y4237685D01*
X22689590Y4106411D01*
X22689589Y4106410D01*
X22558315Y3946451D01*
X22460769Y3763957D01*
X22400700Y3565936D01*
X22380417Y3360000D01*
X21951583Y3360000D01*
X21931300Y3565934D01*
X21871232Y3763954D01*
X21773685Y3946450D01*
X21642410Y4106410D01*
X21482450Y4237685D01*
X21299956Y4335231D01*
X21299955Y4335232D01*
X21299954Y4335232D01*
X21188158Y4369145D01*
X21101935Y4395300D01*
X20896000Y4415583D01*
X20690064Y4395300D01*
X20492043Y4335231D01*
X20309549Y4237685D01*
X20149590Y4106411D01*
X20149589Y4106410D01*
X20018315Y3946451D01*
X19920769Y3763957D01*
X19860700Y3565936D01*
X19840417Y3360000D01*
X19411583Y3360000D01*
X19391300Y3565934D01*
X19331232Y3763954D01*
X19233685Y3946450D01*
X19102410Y4106410D01*
X18942450Y4237685D01*
X18759956Y4335231D01*
X18759955Y4335232D01*
X18759954Y4335232D01*
X18648158Y4369145D01*
X18561935Y4395300D01*
X18356000Y4415583D01*
X18150064Y4395300D01*
X17952043Y4335231D01*
X17769549Y4237685D01*
X17609590Y4106411D01*
X17609589Y4106410D01*
X17478315Y3946451D01*
X17380769Y3763957D01*
X17320700Y3565936D01*
X17300417Y3360000D01*
X16871583Y3360000D01*
X16851300Y3565934D01*
X16791232Y3763954D01*
X16693685Y3946450D01*
X16562410Y4106410D01*
X16402450Y4237685D01*
X16219956Y4335231D01*
X16219955Y4335232D01*
X16219954Y4335232D01*
X16108158Y4369145D01*
X16021935Y4395300D01*
X15816000Y4415583D01*
X15610064Y4395300D01*
X15412043Y4335231D01*
X15229549Y4237685D01*
X15069590Y4106411D01*
X15069589Y4106410D01*
X14938315Y3946451D01*
X14840769Y3763957D01*
X14780700Y3565936D01*
X14760417Y3360000D01*
X14331583Y3360000D01*
X14311300Y3565934D01*
X14251232Y3763954D01*
X14153685Y3946450D01*
X14022410Y4106410D01*
X13862450Y4237685D01*
X13679956Y4335231D01*
X13679955Y4335232D01*
X13679954Y4335232D01*
X13568158Y4369145D01*
X13481935Y4395300D01*
X13276000Y4415583D01*
X13070064Y4395300D01*
X12872043Y4335231D01*
X12689549Y4237685D01*
X12529590Y4106411D01*
X12529589Y4106410D01*
X12398315Y3946451D01*
X12300769Y3763957D01*
X12240700Y3565936D01*
X12220417Y3360000D01*
X11791583Y3360000D01*
X11771300Y3565934D01*
X11711232Y3763954D01*
X11613685Y3946450D01*
X11482410Y4106410D01*
X11322450Y4237685D01*
X11139956Y4335231D01*
X11139955Y4335232D01*
X11139954Y4335232D01*
X11028158Y4369145D01*
X10941935Y4395300D01*
X10736000Y4415583D01*
X10530064Y4395300D01*
X10332043Y4335231D01*
X10149549Y4237685D01*
X9989590Y4106411D01*
X9989589Y4106410D01*
X9858315Y3946451D01*
X9760769Y3763957D01*
X9700700Y3565936D01*
X9680417Y3360000D01*
X9251583Y3360000D01*
X9231300Y3565934D01*
X9171232Y3763954D01*
X9073685Y3946450D01*
X8942410Y4106410D01*
X8782450Y4237685D01*
X8599956Y4335231D01*
X8599955Y4335232D01*
X8599954Y4335232D01*
X8488158Y4369145D01*
X8401935Y4395300D01*
X8196000Y4415583D01*
X7990064Y4395300D01*
X7792043Y4335231D01*
X7609549Y4237685D01*
X7449590Y4106411D01*
X7449589Y4106410D01*
X7318315Y3946451D01*
X7220769Y3763957D01*
X7160700Y3565936D01*
X7140417Y3360000D01*
X4269457Y3360000D01*
X4279548Y3366381D01*
X4469951Y3535063D01*
X4630829Y3732103D01*
X4758016Y3952398D01*
X4848219Y4190243D01*
X4899100Y4439477D01*
X4904213Y4566355D01*
X59750656Y4566355D01*
X59781315Y4313843D01*
X59781319Y4313826D01*
X59852086Y4069509D01*
X59852089Y4069500D01*
X59961134Y3839694D01*
X59961136Y3839691D01*
X59961137Y3839689D01*
X59961138Y3839688D01*
X60105639Y3630341D01*
X60281851Y3446885D01*
X60485209Y3294071D01*
X60710447Y3175857D01*
X60951731Y3095305D01*
X61202812Y3054500D01*
X61202815Y3054500D01*
X61393482Y3054500D01*
X61583549Y3069844D01*
X61830532Y3130720D01*
X62064552Y3230426D01*
X62279547Y3366381D01*
X62469950Y3535063D01*
X62630828Y3732103D01*
X62758015Y3952398D01*
X62848218Y4190243D01*
X62899099Y4439477D01*
X62909342Y4693645D01*
X62878681Y4946166D01*
X62827770Y5121929D01*
X62807911Y5190492D01*
X62807908Y5190501D01*
X62698863Y5420307D01*
X62698861Y5420310D01*
X62661078Y5475048D01*
X62554359Y5629659D01*
X62378147Y5813115D01*
X62174789Y5965929D01*
X61949551Y6084143D01*
X61708267Y6164695D01*
X61457186Y6205500D01*
X61266516Y6205500D01*
X61076451Y6190157D01*
X60829468Y6129281D01*
X60595447Y6029575D01*
X60380450Y5893619D01*
X60190045Y5724935D01*
X60029168Y5527896D01*
X59901983Y5307604D01*
X59901979Y5307595D01*
X59811781Y5069763D01*
X59811781Y5069761D01*
X59760898Y4820520D01*
X59750656Y4566355D01*
X4904213Y4566355D01*
X4909343Y4693645D01*
X4878682Y4946166D01*
X4827771Y5121929D01*
X4807912Y5190492D01*
X4807909Y5190501D01*
X4698864Y5420307D01*
X4698862Y5420310D01*
X4661079Y5475048D01*
X4554360Y5629659D01*
X4378148Y5813115D01*
X4262525Y5900000D01*
X7140417Y5900000D01*
X7148974Y5813115D01*
X7160700Y5694066D01*
X7220768Y5496046D01*
X7318315Y5313550D01*
X7449590Y5153590D01*
X7609550Y5022315D01*
X7792046Y4924768D01*
X7990066Y4864700D01*
X8196000Y4844417D01*
X8401934Y4864700D01*
X8599954Y4924768D01*
X8782450Y5022315D01*
X8942410Y5153590D01*
X9073685Y5313550D01*
X9171232Y5496046D01*
X9231300Y5694066D01*
X9251583Y5900000D01*
X9680417Y5900000D01*
X9688974Y5813115D01*
X9700700Y5694066D01*
X9760768Y5496046D01*
X9858315Y5313550D01*
X9989590Y5153590D01*
X10149550Y5022315D01*
X10332046Y4924768D01*
X10530066Y4864700D01*
X10736000Y4844417D01*
X10941934Y4864700D01*
X11139954Y4924768D01*
X11322450Y5022315D01*
X11482410Y5153590D01*
X11613685Y5313550D01*
X11711232Y5496046D01*
X11771300Y5694066D01*
X11791583Y5900000D01*
X12220417Y5900000D01*
X12228974Y5813115D01*
X12240700Y5694066D01*
X12300768Y5496046D01*
X12398315Y5313550D01*
X12529590Y5153590D01*
X12689550Y5022315D01*
X12872046Y4924768D01*
X13070066Y4864700D01*
X13276000Y4844417D01*
X13481934Y4864700D01*
X13679954Y4924768D01*
X13862450Y5022315D01*
X14022410Y5153590D01*
X14153685Y5313550D01*
X14251232Y5496046D01*
X14311300Y5694066D01*
X14331583Y5900000D01*
X14760417Y5900000D01*
X14768974Y5813115D01*
X14780700Y5694066D01*
X14840768Y5496046D01*
X14938315Y5313550D01*
X15069590Y5153590D01*
X15229550Y5022315D01*
X15412046Y4924768D01*
X15610066Y4864700D01*
X15816000Y4844417D01*
X16021934Y4864700D01*
X16219954Y4924768D01*
X16402450Y5022315D01*
X16562410Y5153590D01*
X16693685Y5313550D01*
X16791232Y5496046D01*
X16851300Y5694066D01*
X16871583Y5900000D01*
X17300417Y5900000D01*
X17308974Y5813115D01*
X17320700Y5694066D01*
X17380768Y5496046D01*
X17478315Y5313550D01*
X17609590Y5153590D01*
X17769550Y5022315D01*
X17952046Y4924768D01*
X18150066Y4864700D01*
X18356000Y4844417D01*
X18561934Y4864700D01*
X18759954Y4924768D01*
X18942450Y5022315D01*
X19102410Y5153590D01*
X19233685Y5313550D01*
X19331232Y5496046D01*
X19391300Y5694066D01*
X19411583Y5900000D01*
X19840417Y5900000D01*
X19848974Y5813115D01*
X19860700Y5694066D01*
X19920768Y5496046D01*
X20018315Y5313550D01*
X20149590Y5153590D01*
X20309550Y5022315D01*
X20492046Y4924768D01*
X20690066Y4864700D01*
X20896000Y4844417D01*
X21101934Y4864700D01*
X21299954Y4924768D01*
X21482450Y5022315D01*
X21642410Y5153590D01*
X21773685Y5313550D01*
X21871232Y5496046D01*
X21931300Y5694066D01*
X21951583Y5900000D01*
X22380417Y5900000D01*
X22388974Y5813115D01*
X22400700Y5694066D01*
X22460768Y5496046D01*
X22558315Y5313550D01*
X22689590Y5153590D01*
X22849550Y5022315D01*
X23032046Y4924768D01*
X23230066Y4864700D01*
X23436000Y4844417D01*
X23641934Y4864700D01*
X23839954Y4924768D01*
X24022450Y5022315D01*
X24182410Y5153590D01*
X24313685Y5313550D01*
X24411232Y5496046D01*
X24471300Y5694066D01*
X24491583Y5900000D01*
X24920417Y5900000D01*
X24928974Y5813115D01*
X24940700Y5694066D01*
X25000768Y5496046D01*
X25098315Y5313550D01*
X25229590Y5153590D01*
X25389550Y5022315D01*
X25572046Y4924768D01*
X25770066Y4864700D01*
X25976000Y4844417D01*
X26181934Y4864700D01*
X26379954Y4924768D01*
X26562450Y5022315D01*
X26722410Y5153590D01*
X26853685Y5313550D01*
X26951232Y5496046D01*
X27011300Y5694066D01*
X27031583Y5900000D01*
X27460417Y5900000D01*
X27468974Y5813115D01*
X27480700Y5694066D01*
X27540768Y5496046D01*
X27638315Y5313550D01*
X27769590Y5153590D01*
X27929550Y5022315D01*
X28112046Y4924768D01*
X28310066Y4864700D01*
X28516000Y4844417D01*
X28721934Y4864700D01*
X28919954Y4924768D01*
X29102450Y5022315D01*
X29262410Y5153590D01*
X29393685Y5313550D01*
X29491232Y5496046D01*
X29551300Y5694066D01*
X29571583Y5900000D01*
X30000417Y5900000D01*
X30008974Y5813115D01*
X30020700Y5694066D01*
X30080768Y5496046D01*
X30178315Y5313550D01*
X30309590Y5153590D01*
X30469550Y5022315D01*
X30652046Y4924768D01*
X30850066Y4864700D01*
X31056000Y4844417D01*
X31261934Y4864700D01*
X31459954Y4924768D01*
X31642450Y5022315D01*
X31802410Y5153590D01*
X31933685Y5313550D01*
X32031232Y5496046D01*
X32091300Y5694066D01*
X32111583Y5900000D01*
X32540417Y5900000D01*
X32548974Y5813115D01*
X32560700Y5694066D01*
X32620768Y5496046D01*
X32718315Y5313550D01*
X32849590Y5153590D01*
X33009550Y5022315D01*
X33192046Y4924768D01*
X33390066Y4864700D01*
X33596000Y4844417D01*
X33801934Y4864700D01*
X33999954Y4924768D01*
X34182450Y5022315D01*
X34342410Y5153590D01*
X34473685Y5313550D01*
X34571232Y5496046D01*
X34617933Y5650000D01*
X35011488Y5650000D01*
X35059061Y5482798D01*
X35059064Y5482788D01*
X35154059Y5292012D01*
X35154063Y5292006D01*
X35282501Y5121929D01*
X35440003Y4978347D01*
X35621200Y4866156D01*
X35621210Y4866151D01*
X35819937Y4789163D01*
X35819950Y4789160D01*
X35885999Y4776814D01*
X35886000Y4776814D01*
X35886000Y5464499D01*
X35993685Y5415320D01*
X36100237Y5400000D01*
X36171763Y5400000D01*
X36278315Y5415320D01*
X36386000Y5464499D01*
X36386000Y4776814D01*
X36452049Y4789160D01*
X36452062Y4789163D01*
X36650789Y4866151D01*
X36650799Y4866156D01*
X36831996Y4978347D01*
X36989498Y5121929D01*
X37117936Y5292006D01*
X37117940Y5292012D01*
X37212935Y5482788D01*
X37212938Y5482798D01*
X37260512Y5650000D01*
X36569686Y5650000D01*
X36595493Y5690156D01*
X36636000Y5828111D01*
X36636000Y5900000D01*
X37620417Y5900000D01*
X37628974Y5813115D01*
X37640700Y5694066D01*
X37700768Y5496046D01*
X37798315Y5313550D01*
X37929590Y5153590D01*
X38089550Y5022315D01*
X38272046Y4924768D01*
X38470066Y4864700D01*
X38676000Y4844417D01*
X38881934Y4864700D01*
X39079954Y4924768D01*
X39262450Y5022315D01*
X39422410Y5153590D01*
X39553685Y5313550D01*
X39651232Y5496046D01*
X39711300Y5694066D01*
X39731583Y5900000D01*
X40160417Y5900000D01*
X40168974Y5813115D01*
X40180700Y5694066D01*
X40240768Y5496046D01*
X40338315Y5313550D01*
X40469590Y5153590D01*
X40629550Y5022315D01*
X40812046Y4924768D01*
X41010066Y4864700D01*
X41216000Y4844417D01*
X41421934Y4864700D01*
X41619954Y4924768D01*
X41802450Y5022315D01*
X41962410Y5153590D01*
X42093685Y5313550D01*
X42191232Y5496046D01*
X42251300Y5694066D01*
X42271583Y5900000D01*
X42700417Y5900000D01*
X42708974Y5813115D01*
X42720700Y5694066D01*
X42780768Y5496046D01*
X42878315Y5313550D01*
X43009590Y5153590D01*
X43169550Y5022315D01*
X43352046Y4924768D01*
X43550066Y4864700D01*
X43756000Y4844417D01*
X43961934Y4864700D01*
X44159954Y4924768D01*
X44342450Y5022315D01*
X44502410Y5153590D01*
X44633685Y5313550D01*
X44731232Y5496046D01*
X44791300Y5694066D01*
X44811583Y5900000D01*
X45240417Y5900000D01*
X45248974Y5813115D01*
X45260700Y5694066D01*
X45320768Y5496046D01*
X45418315Y5313550D01*
X45549590Y5153590D01*
X45709550Y5022315D01*
X45892046Y4924768D01*
X46090066Y4864700D01*
X46296000Y4844417D01*
X46501934Y4864700D01*
X46699954Y4924768D01*
X46882450Y5022315D01*
X47042410Y5153590D01*
X47173685Y5313550D01*
X47271232Y5496046D01*
X47331300Y5694066D01*
X47351583Y5900000D01*
X47780417Y5900000D01*
X47788974Y5813115D01*
X47800700Y5694066D01*
X47860768Y5496046D01*
X47958315Y5313550D01*
X48089590Y5153590D01*
X48249550Y5022315D01*
X48432046Y4924768D01*
X48630066Y4864700D01*
X48836000Y4844417D01*
X49041934Y4864700D01*
X49239954Y4924768D01*
X49422450Y5022315D01*
X49582410Y5153590D01*
X49713685Y5313550D01*
X49811232Y5496046D01*
X49871300Y5694066D01*
X49891583Y5900000D01*
X50320417Y5900000D01*
X50328974Y5813115D01*
X50340700Y5694066D01*
X50400768Y5496046D01*
X50498315Y5313550D01*
X50629590Y5153590D01*
X50789550Y5022315D01*
X50972046Y4924768D01*
X51170066Y4864700D01*
X51376000Y4844417D01*
X51581934Y4864700D01*
X51779954Y4924768D01*
X51962450Y5022315D01*
X52122410Y5153590D01*
X52253685Y5313550D01*
X52351232Y5496046D01*
X52411300Y5694066D01*
X52431583Y5900000D01*
X52860417Y5900000D01*
X52868974Y5813115D01*
X52880700Y5694066D01*
X52940768Y5496046D01*
X53038315Y5313550D01*
X53169590Y5153590D01*
X53329550Y5022315D01*
X53512046Y4924768D01*
X53710066Y4864700D01*
X53916000Y4844417D01*
X54121934Y4864700D01*
X54319954Y4924768D01*
X54502450Y5022315D01*
X54662410Y5153590D01*
X54793685Y5313550D01*
X54891232Y5496046D01*
X54951300Y5694066D01*
X54971583Y5900000D01*
X54951300Y6105934D01*
X54937933Y6150000D01*
X55306000Y6150000D01*
X56022314Y6150000D01*
X55996507Y6109844D01*
X55956000Y5971889D01*
X55956000Y5828111D01*
X55996507Y5690156D01*
X56022314Y5650000D01*
X55306001Y5650000D01*
X55306001Y5005208D01*
X55308908Y4980132D01*
X55308910Y4980126D01*
X55354213Y4877522D01*
X55433521Y4798214D01*
X55536124Y4752911D01*
X55536123Y4752911D01*
X55561210Y4750001D01*
X56206000Y4750001D01*
X56206000Y5464499D01*
X56313685Y5415320D01*
X56420237Y5400000D01*
X56491763Y5400000D01*
X56598315Y5415320D01*
X56706000Y5464499D01*
X56706000Y4750001D01*
X57350792Y4750001D01*
X57375868Y4752909D01*
X57375874Y4752911D01*
X57478478Y4798214D01*
X57557786Y4877522D01*
X57603089Y4980125D01*
X57606000Y5005211D01*
X57606000Y5650000D01*
X56889686Y5650000D01*
X56915493Y5690156D01*
X56956000Y5828111D01*
X56956000Y5971889D01*
X56915493Y6109844D01*
X56889686Y6150000D01*
X57605999Y6150000D01*
X57605999Y6794793D01*
X57603091Y6819869D01*
X57603089Y6819875D01*
X57557786Y6922479D01*
X57478478Y7001787D01*
X57375875Y7047090D01*
X57375876Y7047090D01*
X57350789Y7050000D01*
X56706000Y7050000D01*
X56706000Y6335502D01*
X56598315Y6384680D01*
X56491763Y6400000D01*
X56420237Y6400000D01*
X56313685Y6384680D01*
X56206000Y6335502D01*
X56206000Y7050000D01*
X55561207Y7050000D01*
X55536131Y7047092D01*
X55536125Y7047090D01*
X55433521Y7001787D01*
X55354213Y6922479D01*
X55308910Y6819876D01*
X55306000Y6794790D01*
X55306000Y6150000D01*
X54937933Y6150000D01*
X54891232Y6303954D01*
X54793685Y6486450D01*
X54662410Y6646410D01*
X54502450Y6777685D01*
X54319954Y6875232D01*
X54126731Y6933845D01*
X54121935Y6935300D01*
X53916000Y6955583D01*
X53710064Y6935300D01*
X53512043Y6875231D01*
X53329549Y6777685D01*
X53169590Y6646411D01*
X53169589Y6646410D01*
X53038315Y6486451D01*
X52940769Y6303957D01*
X52880700Y6105936D01*
X52860417Y5900000D01*
X52431583Y5900000D01*
X52411300Y6105934D01*
X52351232Y6303954D01*
X52253685Y6486450D01*
X52122410Y6646410D01*
X51962450Y6777685D01*
X51779954Y6875232D01*
X51586731Y6933845D01*
X51581935Y6935300D01*
X51376000Y6955583D01*
X51170064Y6935300D01*
X50972043Y6875231D01*
X50789549Y6777685D01*
X50629590Y6646411D01*
X50629589Y6646410D01*
X50498315Y6486451D01*
X50400769Y6303957D01*
X50340700Y6105936D01*
X50320417Y5900000D01*
X49891583Y5900000D01*
X49871300Y6105934D01*
X49811232Y6303954D01*
X49713685Y6486450D01*
X49582410Y6646410D01*
X49422450Y6777685D01*
X49239954Y6875232D01*
X49046731Y6933845D01*
X49041935Y6935300D01*
X48836000Y6955583D01*
X48630064Y6935300D01*
X48432043Y6875231D01*
X48249549Y6777685D01*
X48089590Y6646411D01*
X48089589Y6646410D01*
X47958315Y6486451D01*
X47860769Y6303957D01*
X47800700Y6105936D01*
X47780417Y5900000D01*
X47351583Y5900000D01*
X47331300Y6105934D01*
X47271232Y6303954D01*
X47173685Y6486450D01*
X47042410Y6646410D01*
X46882450Y6777685D01*
X46699954Y6875232D01*
X46506731Y6933845D01*
X46501935Y6935300D01*
X46296000Y6955583D01*
X46090064Y6935300D01*
X45892043Y6875231D01*
X45709549Y6777685D01*
X45549590Y6646411D01*
X45549589Y6646410D01*
X45418315Y6486451D01*
X45320769Y6303957D01*
X45260700Y6105936D01*
X45240417Y5900000D01*
X44811583Y5900000D01*
X44791300Y6105934D01*
X44731232Y6303954D01*
X44633685Y6486450D01*
X44502410Y6646410D01*
X44342450Y6777685D01*
X44159954Y6875232D01*
X43966731Y6933845D01*
X43961935Y6935300D01*
X43756000Y6955583D01*
X43550064Y6935300D01*
X43352043Y6875231D01*
X43169549Y6777685D01*
X43009590Y6646411D01*
X43009589Y6646410D01*
X42878315Y6486451D01*
X42780769Y6303957D01*
X42720700Y6105936D01*
X42700417Y5900000D01*
X42271583Y5900000D01*
X42251300Y6105934D01*
X42191232Y6303954D01*
X42093685Y6486450D01*
X41962410Y6646410D01*
X41802450Y6777685D01*
X41619954Y6875232D01*
X41426731Y6933845D01*
X41421935Y6935300D01*
X41216000Y6955583D01*
X41010064Y6935300D01*
X40812043Y6875231D01*
X40629549Y6777685D01*
X40469590Y6646411D01*
X40469589Y6646410D01*
X40338315Y6486451D01*
X40240769Y6303957D01*
X40180700Y6105936D01*
X40160417Y5900000D01*
X39731583Y5900000D01*
X39711300Y6105934D01*
X39651232Y6303954D01*
X39553685Y6486450D01*
X39422410Y6646410D01*
X39262450Y6777685D01*
X39079954Y6875232D01*
X38886731Y6933845D01*
X38881935Y6935300D01*
X38676000Y6955583D01*
X38470064Y6935300D01*
X38272043Y6875231D01*
X38089549Y6777685D01*
X37929590Y6646411D01*
X37929589Y6646410D01*
X37798315Y6486451D01*
X37700769Y6303957D01*
X37640700Y6105936D01*
X37620417Y5900000D01*
X36636000Y5900000D01*
X36636000Y5971889D01*
X36595493Y6109844D01*
X36569686Y6150000D01*
X37260512Y6150000D01*
X37212938Y6317203D01*
X37212935Y6317213D01*
X37117940Y6507989D01*
X37117936Y6507995D01*
X36989498Y6678072D01*
X36831996Y6821654D01*
X36650799Y6933845D01*
X36650789Y6933850D01*
X36452064Y7010837D01*
X36386000Y7023187D01*
X36386000Y6335502D01*
X36278315Y6384680D01*
X36171763Y6400000D01*
X36100237Y6400000D01*
X35993685Y6384680D01*
X35886000Y6335502D01*
X35886000Y7023187D01*
X35885999Y7023187D01*
X35819935Y7010837D01*
X35621210Y6933850D01*
X35621200Y6933845D01*
X35440003Y6821654D01*
X35282501Y6678072D01*
X35154063Y6507995D01*
X35154059Y6507989D01*
X35059064Y6317213D01*
X35059061Y6317203D01*
X35011488Y6150000D01*
X35702314Y6150000D01*
X35676507Y6109844D01*
X35636000Y5971889D01*
X35636000Y5828111D01*
X35676507Y5690156D01*
X35702314Y5650000D01*
X35011488Y5650000D01*
X34617933Y5650000D01*
X34631300Y5694066D01*
X34651583Y5900000D01*
X34631300Y6105934D01*
X34571232Y6303954D01*
X34473685Y6486450D01*
X34342410Y6646410D01*
X34182450Y6777685D01*
X33999954Y6875232D01*
X33806731Y6933845D01*
X33801935Y6935300D01*
X33596000Y6955583D01*
X33390064Y6935300D01*
X33192043Y6875231D01*
X33009549Y6777685D01*
X32849590Y6646411D01*
X32849589Y6646410D01*
X32718315Y6486451D01*
X32620769Y6303957D01*
X32560700Y6105936D01*
X32540417Y5900000D01*
X32111583Y5900000D01*
X32091300Y6105934D01*
X32031232Y6303954D01*
X31933685Y6486450D01*
X31802410Y6646410D01*
X31642450Y6777685D01*
X31459954Y6875232D01*
X31266731Y6933845D01*
X31261935Y6935300D01*
X31056000Y6955583D01*
X30850064Y6935300D01*
X30652043Y6875231D01*
X30469549Y6777685D01*
X30309590Y6646411D01*
X30309589Y6646410D01*
X30178315Y6486451D01*
X30080769Y6303957D01*
X30020700Y6105936D01*
X30000417Y5900000D01*
X29571583Y5900000D01*
X29551300Y6105934D01*
X29491232Y6303954D01*
X29393685Y6486450D01*
X29262410Y6646410D01*
X29102450Y6777685D01*
X28919954Y6875232D01*
X28726731Y6933845D01*
X28721935Y6935300D01*
X28516000Y6955583D01*
X28310064Y6935300D01*
X28112043Y6875231D01*
X27929549Y6777685D01*
X27769590Y6646411D01*
X27769589Y6646410D01*
X27638315Y6486451D01*
X27540769Y6303957D01*
X27480700Y6105936D01*
X27460417Y5900000D01*
X27031583Y5900000D01*
X27011300Y6105934D01*
X26951232Y6303954D01*
X26853685Y6486450D01*
X26722410Y6646410D01*
X26562450Y6777685D01*
X26379954Y6875232D01*
X26186731Y6933845D01*
X26181935Y6935300D01*
X25976000Y6955583D01*
X25770064Y6935300D01*
X25572043Y6875231D01*
X25389549Y6777685D01*
X25229590Y6646411D01*
X25229589Y6646410D01*
X25098315Y6486451D01*
X25000769Y6303957D01*
X24940700Y6105936D01*
X24920417Y5900000D01*
X24491583Y5900000D01*
X24471300Y6105934D01*
X24411232Y6303954D01*
X24313685Y6486450D01*
X24182410Y6646410D01*
X24022450Y6777685D01*
X23839954Y6875232D01*
X23646731Y6933845D01*
X23641935Y6935300D01*
X23436000Y6955583D01*
X23230064Y6935300D01*
X23032043Y6875231D01*
X22849549Y6777685D01*
X22689590Y6646411D01*
X22689589Y6646410D01*
X22558315Y6486451D01*
X22460769Y6303957D01*
X22400700Y6105936D01*
X22380417Y5900000D01*
X21951583Y5900000D01*
X21931300Y6105934D01*
X21871232Y6303954D01*
X21773685Y6486450D01*
X21642410Y6646410D01*
X21482450Y6777685D01*
X21299954Y6875232D01*
X21106731Y6933845D01*
X21101935Y6935300D01*
X20896000Y6955583D01*
X20690064Y6935300D01*
X20492043Y6875231D01*
X20309549Y6777685D01*
X20149590Y6646411D01*
X20149589Y6646410D01*
X20018315Y6486451D01*
X19920769Y6303957D01*
X19860700Y6105936D01*
X19840417Y5900000D01*
X19411583Y5900000D01*
X19391300Y6105934D01*
X19331232Y6303954D01*
X19233685Y6486450D01*
X19102410Y6646410D01*
X18942450Y6777685D01*
X18759954Y6875232D01*
X18566731Y6933845D01*
X18561935Y6935300D01*
X18356000Y6955583D01*
X18150064Y6935300D01*
X17952043Y6875231D01*
X17769549Y6777685D01*
X17609590Y6646411D01*
X17609589Y6646410D01*
X17478315Y6486451D01*
X17380769Y6303957D01*
X17320700Y6105936D01*
X17300417Y5900000D01*
X16871583Y5900000D01*
X16851300Y6105934D01*
X16791232Y6303954D01*
X16693685Y6486450D01*
X16562410Y6646410D01*
X16402450Y6777685D01*
X16219954Y6875232D01*
X16026731Y6933845D01*
X16021935Y6935300D01*
X15816000Y6955583D01*
X15610064Y6935300D01*
X15412043Y6875231D01*
X15229549Y6777685D01*
X15069590Y6646411D01*
X15069589Y6646410D01*
X14938315Y6486451D01*
X14840769Y6303957D01*
X14780700Y6105936D01*
X14760417Y5900000D01*
X14331583Y5900000D01*
X14311300Y6105934D01*
X14251232Y6303954D01*
X14153685Y6486450D01*
X14022410Y6646410D01*
X13862450Y6777685D01*
X13679954Y6875232D01*
X13486731Y6933845D01*
X13481935Y6935300D01*
X13276000Y6955583D01*
X13070064Y6935300D01*
X12872043Y6875231D01*
X12689549Y6777685D01*
X12529590Y6646411D01*
X12529589Y6646410D01*
X12398315Y6486451D01*
X12300769Y6303957D01*
X12240700Y6105936D01*
X12220417Y5900000D01*
X11791583Y5900000D01*
X11771300Y6105934D01*
X11711232Y6303954D01*
X11613685Y6486450D01*
X11482410Y6646410D01*
X11322450Y6777685D01*
X11139954Y6875232D01*
X10946731Y6933845D01*
X10941935Y6935300D01*
X10736000Y6955583D01*
X10530064Y6935300D01*
X10332043Y6875231D01*
X10149549Y6777685D01*
X9989590Y6646411D01*
X9989589Y6646410D01*
X9858315Y6486451D01*
X9760769Y6303957D01*
X9700700Y6105936D01*
X9680417Y5900000D01*
X9251583Y5900000D01*
X9231300Y6105934D01*
X9171232Y6303954D01*
X9073685Y6486450D01*
X8942410Y6646410D01*
X8782450Y6777685D01*
X8599954Y6875232D01*
X8406731Y6933845D01*
X8401935Y6935300D01*
X8196000Y6955583D01*
X7990064Y6935300D01*
X7792043Y6875231D01*
X7609549Y6777685D01*
X7449590Y6646411D01*
X7449589Y6646410D01*
X7318315Y6486451D01*
X7220769Y6303957D01*
X7160700Y6105936D01*
X7140417Y5900000D01*
X4262525Y5900000D01*
X4174790Y5965929D01*
X3949552Y6084143D01*
X3708268Y6164695D01*
X3457187Y6205500D01*
X3266517Y6205500D01*
X3076452Y6190157D01*
X2829469Y6129281D01*
X2595448Y6029575D01*
X2380451Y5893619D01*
X2190046Y5724935D01*
X2029169Y5527896D01*
X1901984Y5307604D01*
X1901980Y5307595D01*
X1811782Y5069763D01*
X1811782Y5069761D01*
X1760899Y4820520D01*
X1750657Y4566355D01*
X300500Y4566355D01*
X300500Y15500000D01*
X26815196Y15500000D01*
X26836280Y15366874D01*
X26886050Y15269196D01*
X26897472Y15246780D01*
X26992780Y15151472D01*
X27112873Y15090282D01*
X27112873Y15090281D01*
X27131075Y15087399D01*
X27246000Y15069196D01*
X27379126Y15090281D01*
X27499220Y15151472D01*
X27594528Y15246780D01*
X27655719Y15366874D01*
X27676804Y15500000D01*
X27919196Y15500000D01*
X27940280Y15366874D01*
X27990050Y15269196D01*
X28001472Y15246780D01*
X28096780Y15151472D01*
X28216873Y15090282D01*
X28216873Y15090281D01*
X28235075Y15087399D01*
X28350000Y15069196D01*
X28483126Y15090281D01*
X28603220Y15151472D01*
X28698528Y15246780D01*
X28759719Y15366874D01*
X28780804Y15500000D01*
X28759719Y15633126D01*
X28759719Y15633127D01*
X28725645Y15700000D01*
X35919196Y15700000D01*
X35940280Y15566874D01*
X36001471Y15446781D01*
X36001472Y15446780D01*
X36096780Y15351472D01*
X36216873Y15290282D01*
X36216873Y15290281D01*
X36235075Y15287399D01*
X36350000Y15269196D01*
X36483126Y15290281D01*
X36603220Y15351472D01*
X36698528Y15446780D01*
X36759719Y15566874D01*
X36780804Y15700000D01*
X36759719Y15833126D01*
X36759719Y15833127D01*
X36698528Y15953220D01*
X36603219Y16048529D01*
X36483126Y16109719D01*
X36483126Y16109720D01*
X36350000Y16130804D01*
X36216873Y16109720D01*
X36216873Y16109719D01*
X36096780Y16048529D01*
X36001471Y15953220D01*
X35940281Y15833127D01*
X35940280Y15833127D01*
X35919196Y15700000D01*
X28725645Y15700000D01*
X28698528Y15753220D01*
X28603219Y15848529D01*
X28483126Y15909719D01*
X28483126Y15909720D01*
X28350000Y15930804D01*
X28216873Y15909720D01*
X28216873Y15909719D01*
X28096780Y15848529D01*
X28001471Y15753220D01*
X27940281Y15633127D01*
X27940280Y15633127D01*
X27919196Y15500000D01*
X27676804Y15500000D01*
X27655719Y15633126D01*
X27655719Y15633127D01*
X27594528Y15753220D01*
X27499219Y15848529D01*
X27379126Y15909719D01*
X27379126Y15909720D01*
X27246000Y15930804D01*
X27112873Y15909720D01*
X27112873Y15909719D01*
X26992780Y15848529D01*
X26897471Y15753220D01*
X26836281Y15633127D01*
X26836280Y15633127D01*
X26815196Y15500000D01*
X300500Y15500000D01*
X300500Y16900000D01*
X23569196Y16900000D01*
X23590280Y16766874D01*
X23651471Y16646781D01*
X23651472Y16646780D01*
X23746780Y16551472D01*
X23866873Y16490282D01*
X23866873Y16490281D01*
X23885075Y16487399D01*
X24000000Y16469196D01*
X24133126Y16490281D01*
X24253220Y16551472D01*
X24348528Y16646780D01*
X24375645Y16700000D01*
X31319196Y16700000D01*
X31340280Y16566874D01*
X31390050Y16469196D01*
X31401472Y16446780D01*
X31496780Y16351472D01*
X31616873Y16290282D01*
X31616873Y16290281D01*
X31635075Y16287399D01*
X31750000Y16269196D01*
X31883126Y16290281D01*
X32003220Y16351472D01*
X32098528Y16446780D01*
X32159719Y16566874D01*
X32180804Y16700000D01*
X32159719Y16833126D01*
X32159719Y16833127D01*
X32098528Y16953220D01*
X32003219Y17048529D01*
X31883126Y17109719D01*
X31883126Y17109720D01*
X31750000Y17130804D01*
X31616873Y17109720D01*
X31616873Y17109719D01*
X31496780Y17048529D01*
X31401471Y16953220D01*
X31340281Y16833127D01*
X31340280Y16833127D01*
X31319196Y16700000D01*
X24375645Y16700000D01*
X24409719Y16766874D01*
X24430804Y16900000D01*
X24409719Y17033126D01*
X24409719Y17033127D01*
X24348528Y17153220D01*
X24253219Y17248529D01*
X24152201Y17300000D01*
X35919196Y17300000D01*
X35940280Y17166874D01*
X36000581Y17048528D01*
X36001472Y17046780D01*
X36096780Y16951472D01*
X36216873Y16890282D01*
X36216873Y16890281D01*
X36235075Y16887399D01*
X36350000Y16869196D01*
X36483126Y16890281D01*
X36603220Y16951472D01*
X36698528Y17046780D01*
X36759719Y17166874D01*
X36780804Y17300000D01*
X36759719Y17433126D01*
X36759719Y17433127D01*
X36698528Y17553220D01*
X36603219Y17648529D01*
X36483126Y17709719D01*
X36483126Y17709720D01*
X36350000Y17730804D01*
X36216873Y17709720D01*
X36216873Y17709719D01*
X36096780Y17648529D01*
X36001471Y17553220D01*
X35940281Y17433127D01*
X35940280Y17433127D01*
X35919196Y17300000D01*
X24152201Y17300000D01*
X24133126Y17309719D01*
X24133126Y17309720D01*
X24000000Y17330804D01*
X23866873Y17309720D01*
X23866873Y17309719D01*
X23746780Y17248529D01*
X23651471Y17153220D01*
X23590281Y17033127D01*
X23590280Y17033127D01*
X23569196Y16900000D01*
X300500Y16900000D01*
X300500Y18000000D01*
X17394353Y18000000D01*
X17414834Y17857546D01*
X17474623Y17726627D01*
X17568868Y17617861D01*
X17568869Y17617860D01*
X17568872Y17617857D01*
X17689947Y17540047D01*
X17796403Y17508789D01*
X17828035Y17499501D01*
X17828037Y17499500D01*
X17828039Y17499500D01*
X17971963Y17499500D01*
X17971964Y17499501D01*
X18110053Y17540047D01*
X18231128Y17617857D01*
X18325377Y17726627D01*
X18385165Y17857543D01*
X18405647Y18000000D01*
X18385165Y18142457D01*
X18325377Y18273373D01*
X18231128Y18382143D01*
X18169456Y18421777D01*
X18110054Y18459953D01*
X18110050Y18459954D01*
X17971964Y18500500D01*
X17971961Y18500500D01*
X17828039Y18500500D01*
X17828036Y18500500D01*
X17689949Y18459954D01*
X17689945Y18459953D01*
X17568875Y18382145D01*
X17568868Y18382140D01*
X17474623Y18273374D01*
X17414834Y18142455D01*
X17394353Y18000000D01*
X300500Y18000000D01*
X300500Y18550000D01*
X28094867Y18550000D01*
X28113302Y18421777D01*
X28113302Y18421776D01*
X28113303Y18421774D01*
X28167118Y18303937D01*
X28251951Y18206033D01*
X28360931Y18135996D01*
X28485228Y18099500D01*
X28614772Y18099500D01*
X28739069Y18135996D01*
X28848049Y18206033D01*
X28932882Y18303937D01*
X28986697Y18421774D01*
X29005133Y18550000D01*
X29544867Y18550000D01*
X29563302Y18421777D01*
X29563302Y18421776D01*
X29563303Y18421774D01*
X29617118Y18303937D01*
X29701951Y18206033D01*
X29810931Y18135996D01*
X29935228Y18099500D01*
X30064772Y18099500D01*
X30189069Y18135996D01*
X30298049Y18206033D01*
X30382882Y18303937D01*
X30436697Y18421774D01*
X30455133Y18550000D01*
X30994867Y18550000D01*
X31013302Y18421777D01*
X31013302Y18421776D01*
X31013303Y18421774D01*
X31067118Y18303937D01*
X31151951Y18206033D01*
X31260931Y18135996D01*
X31385228Y18099500D01*
X31514772Y18099500D01*
X31639069Y18135996D01*
X31748049Y18206033D01*
X31832882Y18303937D01*
X31886697Y18421774D01*
X31905133Y18550000D01*
X31886697Y18678226D01*
X31832882Y18796063D01*
X31748049Y18893967D01*
X31681032Y18937036D01*
X31639068Y18964005D01*
X31514772Y19000500D01*
X31385228Y19000500D01*
X31260931Y18964005D01*
X31151954Y18893969D01*
X31151950Y18893966D01*
X31067119Y18796065D01*
X31013302Y18678224D01*
X30994867Y18550000D01*
X30455133Y18550000D01*
X30436697Y18678226D01*
X30382882Y18796063D01*
X30298049Y18893967D01*
X30231032Y18937036D01*
X30189068Y18964005D01*
X30064772Y19000500D01*
X29935228Y19000500D01*
X29810931Y18964005D01*
X29701954Y18893969D01*
X29701950Y18893966D01*
X29617119Y18796065D01*
X29563302Y18678224D01*
X29544867Y18550000D01*
X29005133Y18550000D01*
X28986697Y18678226D01*
X28932882Y18796063D01*
X28848049Y18893967D01*
X28781032Y18937036D01*
X28739068Y18964005D01*
X28614772Y19000500D01*
X28485228Y19000500D01*
X28360931Y18964005D01*
X28251954Y18893969D01*
X28251950Y18893966D01*
X28167119Y18796065D01*
X28113302Y18678224D01*
X28094867Y18550000D01*
X300500Y18550000D01*
X300500Y20000000D01*
X28094867Y20000000D01*
X28113302Y19871777D01*
X28113302Y19871776D01*
X28113303Y19871774D01*
X28167118Y19753937D01*
X28251951Y19656033D01*
X28360931Y19585996D01*
X28485228Y19549500D01*
X28614772Y19549500D01*
X28739069Y19585996D01*
X28848049Y19656033D01*
X28932882Y19753937D01*
X28986697Y19871774D01*
X29005133Y20000000D01*
X29544867Y20000000D01*
X29563302Y19871777D01*
X29563302Y19871776D01*
X29563303Y19871774D01*
X29617118Y19753937D01*
X29701951Y19656033D01*
X29810931Y19585996D01*
X29935228Y19549500D01*
X30064772Y19549500D01*
X30189069Y19585996D01*
X30298049Y19656033D01*
X30382882Y19753937D01*
X30436697Y19871774D01*
X30455133Y20000000D01*
X30994867Y20000000D01*
X31013302Y19871777D01*
X31013302Y19871776D01*
X31013303Y19871774D01*
X31067118Y19753937D01*
X31151951Y19656033D01*
X31260931Y19585996D01*
X31385228Y19549500D01*
X31514772Y19549500D01*
X31639069Y19585996D01*
X31748049Y19656033D01*
X31832882Y19753937D01*
X31886697Y19871774D01*
X31905133Y20000000D01*
X31886697Y20128226D01*
X31853919Y20200000D01*
X36394353Y20200000D01*
X36414834Y20057546D01*
X36414834Y20057545D01*
X36414835Y20057543D01*
X36474623Y19926627D01*
X36568868Y19817861D01*
X36568869Y19817860D01*
X36568872Y19817857D01*
X36689947Y19740047D01*
X36796403Y19708789D01*
X36828035Y19699501D01*
X36828037Y19699500D01*
X36828039Y19699500D01*
X36971963Y19699500D01*
X36971964Y19699501D01*
X37110053Y19740047D01*
X37231128Y19817857D01*
X37325377Y19926627D01*
X37385165Y20057543D01*
X37405647Y20200000D01*
X37385165Y20342457D01*
X37325377Y20473373D01*
X37258980Y20550000D01*
X40969196Y20550000D01*
X40990280Y20416874D01*
X41040050Y20319196D01*
X41051472Y20296780D01*
X41146780Y20201472D01*
X41266873Y20140282D01*
X41266873Y20140281D01*
X41285075Y20137399D01*
X41400000Y20119196D01*
X41533126Y20140281D01*
X41653220Y20201472D01*
X41748528Y20296780D01*
X41809719Y20416874D01*
X41830804Y20550000D01*
X41809719Y20683126D01*
X41809719Y20683127D01*
X41748528Y20803220D01*
X41653219Y20898529D01*
X41533126Y20959719D01*
X41533126Y20959720D01*
X41400000Y20980804D01*
X41266873Y20959720D01*
X41266873Y20959719D01*
X41146780Y20898529D01*
X41051471Y20803220D01*
X40990281Y20683127D01*
X40990280Y20683127D01*
X40969196Y20550000D01*
X37258980Y20550000D01*
X37231128Y20582143D01*
X37174182Y20618740D01*
X37110054Y20659953D01*
X37110050Y20659954D01*
X36971964Y20700500D01*
X36971961Y20700500D01*
X36828039Y20700500D01*
X36828036Y20700500D01*
X36689949Y20659954D01*
X36689945Y20659953D01*
X36568875Y20582145D01*
X36568868Y20582140D01*
X36474623Y20473374D01*
X36414834Y20342455D01*
X36394353Y20200000D01*
X31853919Y20200000D01*
X31832882Y20246063D01*
X31748049Y20343967D01*
X31681032Y20387036D01*
X31639068Y20414005D01*
X31514772Y20450500D01*
X31385228Y20450500D01*
X31260931Y20414005D01*
X31151954Y20343969D01*
X31151950Y20343966D01*
X31067119Y20246065D01*
X31013302Y20128224D01*
X30994867Y20000000D01*
X30455133Y20000000D01*
X30436697Y20128226D01*
X30382882Y20246063D01*
X30298049Y20343967D01*
X30231032Y20387036D01*
X30189068Y20414005D01*
X30064772Y20450500D01*
X29935228Y20450500D01*
X29810931Y20414005D01*
X29701954Y20343969D01*
X29701950Y20343966D01*
X29617119Y20246065D01*
X29563302Y20128224D01*
X29544867Y20000000D01*
X29005133Y20000000D01*
X28986697Y20128226D01*
X28932882Y20246063D01*
X28848049Y20343967D01*
X28781032Y20387036D01*
X28739068Y20414005D01*
X28614772Y20450500D01*
X28485228Y20450500D01*
X28360931Y20414005D01*
X28251954Y20343969D01*
X28251950Y20343966D01*
X28167119Y20246065D01*
X28113302Y20128224D01*
X28094867Y20000000D01*
X300500Y20000000D01*
X300500Y20750000D01*
X32869196Y20750000D01*
X32890280Y20616874D01*
X32951471Y20496781D01*
X32951472Y20496780D01*
X33046780Y20401472D01*
X33166873Y20340282D01*
X33166873Y20340281D01*
X33185075Y20337399D01*
X33300000Y20319196D01*
X33433126Y20340281D01*
X33553220Y20401472D01*
X33648528Y20496780D01*
X33709719Y20616874D01*
X33730804Y20750000D01*
X33709719Y20883126D01*
X33709719Y20883127D01*
X33648528Y21003220D01*
X33553219Y21098529D01*
X33433126Y21159719D01*
X33433126Y21159720D01*
X33333073Y21175566D01*
X33324578Y21176912D01*
X33299944Y21190567D01*
X33277964Y21177360D01*
X33275420Y21176911D01*
X33166874Y21159720D01*
X33166873Y21159719D01*
X33046780Y21098529D01*
X32951471Y21003220D01*
X32890281Y20883127D01*
X32890280Y20883127D01*
X32869196Y20750000D01*
X300500Y20750000D01*
X300500Y21250000D01*
X23369196Y21250000D01*
X23390280Y21116874D01*
X23450086Y20999500D01*
X23451472Y20996780D01*
X23546780Y20901472D01*
X23666873Y20840282D01*
X23666873Y20840281D01*
X23685075Y20837399D01*
X23800000Y20819196D01*
X23933126Y20840281D01*
X24053220Y20901472D01*
X24148528Y20996780D01*
X24209719Y21116874D01*
X24230804Y21250000D01*
X24969196Y21250000D01*
X24990280Y21116874D01*
X25050086Y20999500D01*
X25051472Y20996780D01*
X25146780Y20901472D01*
X25266873Y20840282D01*
X25266873Y20840281D01*
X25285075Y20837399D01*
X25400000Y20819196D01*
X25533126Y20840281D01*
X25653220Y20901472D01*
X25748528Y20996780D01*
X25809719Y21116874D01*
X25830804Y21250000D01*
X25809719Y21383126D01*
X25809719Y21383127D01*
X25775645Y21450000D01*
X28094867Y21450000D01*
X28113302Y21321777D01*
X28113302Y21321776D01*
X28113303Y21321774D01*
X28167118Y21203937D01*
X28251951Y21106033D01*
X28360931Y21035996D01*
X28485228Y20999500D01*
X28614772Y20999500D01*
X28739069Y21035996D01*
X28848049Y21106033D01*
X28932882Y21203937D01*
X28986697Y21321774D01*
X29005133Y21450000D01*
X29544867Y21450000D01*
X29563302Y21321777D01*
X29563302Y21321776D01*
X29563303Y21321774D01*
X29617118Y21203937D01*
X29701951Y21106033D01*
X29810931Y21035996D01*
X29935228Y20999500D01*
X30064772Y20999500D01*
X30189069Y21035996D01*
X30298049Y21106033D01*
X30382882Y21203937D01*
X30436697Y21321774D01*
X30455133Y21450000D01*
X30994867Y21450000D01*
X31013302Y21321777D01*
X31013302Y21321776D01*
X31013303Y21321774D01*
X31067118Y21203937D01*
X31151951Y21106033D01*
X31260931Y21035996D01*
X31385228Y20999500D01*
X31514772Y20999500D01*
X31639069Y21035996D01*
X31748049Y21106033D01*
X31832882Y21203937D01*
X31886697Y21321774D01*
X31905133Y21450000D01*
X31886697Y21578226D01*
X31832882Y21696063D01*
X31786146Y21750000D01*
X32869196Y21750000D01*
X32890280Y21616874D01*
X32951471Y21496781D01*
X32951472Y21496780D01*
X33046780Y21401472D01*
X33166874Y21340281D01*
X33275420Y21323089D01*
X33300054Y21309434D01*
X33322035Y21322640D01*
X33324574Y21323089D01*
X33433126Y21340281D01*
X33553220Y21401472D01*
X33648528Y21496780D01*
X33709719Y21616874D01*
X33730804Y21750000D01*
X33709719Y21883126D01*
X33709719Y21883127D01*
X33648528Y22003220D01*
X33553219Y22098529D01*
X33433126Y22159719D01*
X33433126Y22159720D01*
X33300000Y22180804D01*
X33166873Y22159720D01*
X33166873Y22159719D01*
X33046780Y22098529D01*
X32951471Y22003220D01*
X32890281Y21883127D01*
X32890280Y21883127D01*
X32869196Y21750000D01*
X31786146Y21750000D01*
X31748049Y21793967D01*
X31681032Y21837036D01*
X31639068Y21864005D01*
X31514772Y21900500D01*
X31385228Y21900500D01*
X31260931Y21864005D01*
X31151954Y21793969D01*
X31151950Y21793966D01*
X31067119Y21696065D01*
X31013302Y21578224D01*
X30994867Y21450000D01*
X30455133Y21450000D01*
X30436697Y21578226D01*
X30382882Y21696063D01*
X30298049Y21793967D01*
X30231032Y21837036D01*
X30189068Y21864005D01*
X30064772Y21900500D01*
X29935228Y21900500D01*
X29810931Y21864005D01*
X29701954Y21793969D01*
X29701950Y21793966D01*
X29617119Y21696065D01*
X29563302Y21578224D01*
X29544867Y21450000D01*
X29005133Y21450000D01*
X28986697Y21578226D01*
X28932882Y21696063D01*
X28848049Y21793967D01*
X28781032Y21837036D01*
X28739068Y21864005D01*
X28614772Y21900500D01*
X28485228Y21900500D01*
X28360931Y21864005D01*
X28251954Y21793969D01*
X28251950Y21793966D01*
X28167119Y21696065D01*
X28113302Y21578224D01*
X28094867Y21450000D01*
X25775645Y21450000D01*
X25748528Y21503220D01*
X25653219Y21598529D01*
X25533126Y21659719D01*
X25533126Y21659720D01*
X25400000Y21680804D01*
X25266873Y21659720D01*
X25266873Y21659719D01*
X25146780Y21598529D01*
X25051471Y21503220D01*
X24990281Y21383127D01*
X24990280Y21383127D01*
X24969196Y21250000D01*
X24230804Y21250000D01*
X24209719Y21383126D01*
X24209719Y21383127D01*
X24148528Y21503220D01*
X24053219Y21598529D01*
X23933126Y21659719D01*
X23933126Y21659720D01*
X23800000Y21680804D01*
X23666873Y21659720D01*
X23666873Y21659719D01*
X23546780Y21598529D01*
X23451471Y21503220D01*
X23390281Y21383127D01*
X23390280Y21383127D01*
X23369196Y21250000D01*
X300500Y21250000D01*
X300500Y23200000D01*
X27094353Y23200000D01*
X27114834Y23057546D01*
X27174623Y22926627D01*
X27268868Y22817861D01*
X27268869Y22817860D01*
X27268872Y22817857D01*
X27389947Y22740047D01*
X27496403Y22708789D01*
X27528035Y22699501D01*
X27528037Y22699500D01*
X27528039Y22699500D01*
X27671963Y22699500D01*
X27671964Y22699501D01*
X27810053Y22740047D01*
X27931128Y22817857D01*
X28025377Y22926627D01*
X28085165Y23057543D01*
X28105647Y23200000D01*
X28085165Y23342457D01*
X28025377Y23473373D01*
X27931128Y23582143D01*
X27874182Y23618740D01*
X27810054Y23659953D01*
X27810050Y23659954D01*
X27671964Y23700500D01*
X27671961Y23700500D01*
X27528039Y23700500D01*
X27528036Y23700500D01*
X27389949Y23659954D01*
X27389945Y23659953D01*
X27268875Y23582145D01*
X27268868Y23582140D01*
X27174623Y23473374D01*
X27114834Y23342455D01*
X27094353Y23200000D01*
X300500Y23200000D01*
X300500Y28800000D01*
X26900000Y28800000D01*
X26900000Y24400000D01*
X30100000Y24400000D01*
X30100000Y25350000D01*
X38719196Y25350000D01*
X38740280Y25216874D01*
X38801471Y25096781D01*
X38801472Y25096780D01*
X38896780Y25001472D01*
X39016873Y24940282D01*
X39016873Y24940281D01*
X39035075Y24937399D01*
X39150000Y24919196D01*
X39283126Y24940281D01*
X39403220Y25001472D01*
X39498528Y25096780D01*
X39559719Y25216874D01*
X39580804Y25350000D01*
X39559719Y25483126D01*
X39559719Y25483127D01*
X39498528Y25603220D01*
X39403219Y25698529D01*
X39283126Y25759719D01*
X39283126Y25759720D01*
X39150000Y25780804D01*
X39016873Y25759720D01*
X39016873Y25759719D01*
X38896780Y25698529D01*
X38801471Y25603220D01*
X38740281Y25483127D01*
X38740280Y25483127D01*
X38719196Y25350000D01*
X30100000Y25350000D01*
X30100000Y26168823D01*
X30117313Y26216389D01*
X30161150Y26241699D01*
X30211000Y26232909D01*
X30241311Y26199566D01*
X30255352Y26168823D01*
X30274622Y26126627D01*
X30368867Y26017861D01*
X30368868Y26017860D01*
X30368871Y26017857D01*
X30489946Y25940047D01*
X30596402Y25908789D01*
X30628034Y25899501D01*
X30628036Y25899500D01*
X30628038Y25899500D01*
X30771962Y25899500D01*
X30771963Y25899501D01*
X30910052Y25940047D01*
X31003341Y26000000D01*
X48594353Y26000000D01*
X48614834Y25857546D01*
X48674623Y25726627D01*
X48768868Y25617861D01*
X48768869Y25617860D01*
X48768872Y25617857D01*
X48889947Y25540047D01*
X48996403Y25508789D01*
X49028035Y25499501D01*
X49028037Y25499500D01*
X49028039Y25499500D01*
X49171963Y25499500D01*
X49171964Y25499501D01*
X49310053Y25540047D01*
X49431128Y25617857D01*
X49525377Y25726627D01*
X49585165Y25857543D01*
X49605647Y26000000D01*
X49585165Y26142457D01*
X49525377Y26273373D01*
X49431128Y26382143D01*
X49374182Y26418740D01*
X49310054Y26459953D01*
X49310050Y26459954D01*
X49171964Y26500500D01*
X49171961Y26500500D01*
X49028039Y26500500D01*
X49028036Y26500500D01*
X48889949Y26459954D01*
X48889945Y26459953D01*
X48768875Y26382145D01*
X48768868Y26382140D01*
X48674623Y26273374D01*
X48614834Y26142455D01*
X48594353Y26000000D01*
X31003341Y26000000D01*
X31031127Y26017857D01*
X31125376Y26126627D01*
X31185164Y26257543D01*
X31205646Y26400000D01*
X31185164Y26542457D01*
X31125376Y26673373D01*
X31031127Y26782143D01*
X30974181Y26818740D01*
X30910053Y26859953D01*
X30910049Y26859954D01*
X30771963Y26900500D01*
X30771960Y26900500D01*
X30628038Y26900500D01*
X30628035Y26900500D01*
X30489948Y26859954D01*
X30489944Y26859953D01*
X30368874Y26782145D01*
X30368867Y26782140D01*
X30274622Y26673374D01*
X30241313Y26600437D01*
X30205804Y26564361D01*
X30155414Y26559550D01*
X30113721Y26588254D01*
X30100000Y26631178D01*
X30100000Y27768823D01*
X30117313Y27816389D01*
X30161150Y27841699D01*
X30211000Y27832909D01*
X30241311Y27799566D01*
X30255352Y27768823D01*
X30274622Y27726627D01*
X30368867Y27617861D01*
X30368868Y27617860D01*
X30368871Y27617857D01*
X30489946Y27540047D01*
X30596402Y27508789D01*
X30628034Y27499501D01*
X30628036Y27499500D01*
X30628038Y27499500D01*
X30771962Y27499500D01*
X30771963Y27499501D01*
X30910052Y27540047D01*
X31003341Y27600000D01*
X48594353Y27600000D01*
X48614834Y27457546D01*
X48674623Y27326627D01*
X48768868Y27217861D01*
X48768869Y27217860D01*
X48768872Y27217857D01*
X48889947Y27140047D01*
X48996403Y27108789D01*
X49028035Y27099501D01*
X49028037Y27099500D01*
X49028039Y27099500D01*
X49171963Y27099500D01*
X49171964Y27099501D01*
X49310053Y27140047D01*
X49431128Y27217857D01*
X49525377Y27326627D01*
X49585165Y27457543D01*
X49605647Y27600000D01*
X49585165Y27742457D01*
X49525377Y27873373D01*
X49431128Y27982143D01*
X49374182Y28018740D01*
X49310054Y28059953D01*
X49310050Y28059954D01*
X49171964Y28100500D01*
X49171961Y28100500D01*
X49028039Y28100500D01*
X49028036Y28100500D01*
X48889949Y28059954D01*
X48889945Y28059953D01*
X48768875Y27982145D01*
X48768868Y27982140D01*
X48674623Y27873374D01*
X48614834Y27742455D01*
X48594353Y27600000D01*
X31003341Y27600000D01*
X31031127Y27617857D01*
X31125376Y27726627D01*
X31185164Y27857543D01*
X31205646Y28000000D01*
X31185164Y28142457D01*
X31125376Y28273373D01*
X31031127Y28382143D01*
X30974181Y28418740D01*
X30910053Y28459953D01*
X30910049Y28459954D01*
X30771963Y28500500D01*
X30771960Y28500500D01*
X30628038Y28500500D01*
X30628035Y28500500D01*
X30489948Y28459954D01*
X30489944Y28459953D01*
X30368874Y28382145D01*
X30368867Y28382140D01*
X30274622Y28273374D01*
X30241313Y28200437D01*
X30205804Y28164361D01*
X30155414Y28159550D01*
X30113721Y28188254D01*
X30100000Y28231178D01*
X30100000Y28700000D01*
X40494353Y28700000D01*
X40514834Y28557546D01*
X40574623Y28426627D01*
X40668868Y28317861D01*
X40668869Y28317860D01*
X40668872Y28317857D01*
X40789947Y28240047D01*
X40896403Y28208789D01*
X40928035Y28199501D01*
X40928037Y28199500D01*
X40928039Y28199500D01*
X41071963Y28199500D01*
X41071964Y28199501D01*
X41075152Y28200437D01*
X41210053Y28240047D01*
X41331128Y28317857D01*
X41425377Y28426627D01*
X41485165Y28557543D01*
X41505647Y28700000D01*
X41485165Y28842457D01*
X41425377Y28973373D01*
X41331128Y29082143D01*
X41274182Y29118740D01*
X41210054Y29159953D01*
X41210050Y29159954D01*
X41071964Y29200500D01*
X41071961Y29200500D01*
X40928039Y29200500D01*
X40928036Y29200500D01*
X40789949Y29159954D01*
X40789945Y29159953D01*
X40668875Y29082145D01*
X40668868Y29082140D01*
X40574623Y28973374D01*
X40514834Y28842455D01*
X40494353Y28700000D01*
X30100000Y28700000D01*
X30100000Y28800000D01*
X26900000Y28800000D01*
X300500Y28800000D01*
X300500Y30900000D01*
X35144353Y30900000D01*
X35164834Y30757546D01*
X35224623Y30626627D01*
X35318868Y30517861D01*
X35318869Y30517860D01*
X35318872Y30517857D01*
X35439947Y30440047D01*
X35546403Y30408789D01*
X35578035Y30399501D01*
X35578037Y30399500D01*
X35578039Y30399500D01*
X35721963Y30399500D01*
X35721964Y30399501D01*
X35860053Y30440047D01*
X35981128Y30517857D01*
X36075377Y30626627D01*
X36135165Y30757543D01*
X36155647Y30900000D01*
X37644353Y30900000D01*
X37664834Y30757546D01*
X37724623Y30626627D01*
X37818868Y30517861D01*
X37818869Y30517860D01*
X37818872Y30517857D01*
X37939947Y30440047D01*
X38046403Y30408789D01*
X38078035Y30399501D01*
X38078037Y30399500D01*
X38078039Y30399500D01*
X38221963Y30399500D01*
X38221964Y30399501D01*
X38360053Y30440047D01*
X38481128Y30517857D01*
X38575377Y30626627D01*
X38635165Y30757543D01*
X38655647Y30900000D01*
X38635165Y31042457D01*
X38575377Y31173373D01*
X38481128Y31282143D01*
X38424182Y31318740D01*
X38360054Y31359953D01*
X38360050Y31359954D01*
X38221964Y31400500D01*
X38221961Y31400500D01*
X38078039Y31400500D01*
X38078036Y31400500D01*
X37939949Y31359954D01*
X37939945Y31359953D01*
X37818875Y31282145D01*
X37818868Y31282140D01*
X37724623Y31173374D01*
X37664834Y31042455D01*
X37644353Y30900000D01*
X36155647Y30900000D01*
X36135165Y31042457D01*
X36075377Y31173373D01*
X35981128Y31282143D01*
X35924182Y31318740D01*
X35860054Y31359953D01*
X35860050Y31359954D01*
X35721964Y31400500D01*
X35721961Y31400500D01*
X35578039Y31400500D01*
X35578036Y31400500D01*
X35439949Y31359954D01*
X35439945Y31359953D01*
X35318875Y31282145D01*
X35318868Y31282140D01*
X35224623Y31173374D01*
X35164834Y31042455D01*
X35144353Y30900000D01*
X300500Y30900000D01*
X300500Y35600000D01*
X24644353Y35600000D01*
X24664834Y35457546D01*
X24724623Y35326627D01*
X24818868Y35217861D01*
X24818869Y35217860D01*
X24818872Y35217857D01*
X24939947Y35140047D01*
X25046403Y35108789D01*
X25078035Y35099501D01*
X25078037Y35099500D01*
X25078039Y35099500D01*
X25221963Y35099500D01*
X25221964Y35099501D01*
X25360053Y35140047D01*
X25481128Y35217857D01*
X25575377Y35326627D01*
X25635165Y35457543D01*
X25655647Y35600000D01*
X31306353Y35600000D01*
X31326834Y35457546D01*
X31386623Y35326627D01*
X31480868Y35217861D01*
X31480869Y35217860D01*
X31480872Y35217857D01*
X31601947Y35140047D01*
X31708403Y35108789D01*
X31740035Y35099501D01*
X31740037Y35099500D01*
X31740039Y35099500D01*
X31883963Y35099500D01*
X31883964Y35099501D01*
X32022053Y35140047D01*
X32143128Y35217857D01*
X32237377Y35326627D01*
X32297165Y35457543D01*
X32317647Y35600000D01*
X32297165Y35742457D01*
X32237377Y35873373D01*
X32143128Y35982143D01*
X32086182Y36018740D01*
X32022054Y36059953D01*
X32022050Y36059954D01*
X31883964Y36100500D01*
X31883961Y36100500D01*
X31740039Y36100500D01*
X31740036Y36100500D01*
X31601949Y36059954D01*
X31601945Y36059953D01*
X31480875Y35982145D01*
X31480868Y35982140D01*
X31386623Y35873374D01*
X31326834Y35742455D01*
X31306353Y35600000D01*
X25655647Y35600000D01*
X25635165Y35742457D01*
X25575377Y35873373D01*
X25481128Y35982143D01*
X25424182Y36018740D01*
X25360054Y36059953D01*
X25360050Y36059954D01*
X25221964Y36100500D01*
X25221961Y36100500D01*
X25078039Y36100500D01*
X25078036Y36100500D01*
X24939949Y36059954D01*
X24939945Y36059953D01*
X24818875Y35982145D01*
X24818868Y35982140D01*
X24724623Y35873374D01*
X24664834Y35742455D01*
X24644353Y35600000D01*
X300500Y35600000D01*
X300500Y37000000D01*
X17994353Y37000000D01*
X18014834Y36857546D01*
X18074623Y36726627D01*
X18168868Y36617861D01*
X18168869Y36617860D01*
X18168872Y36617857D01*
X18289947Y36540047D01*
X18396403Y36508789D01*
X18428035Y36499501D01*
X18428037Y36499500D01*
X18428039Y36499500D01*
X18571963Y36499500D01*
X18571964Y36499501D01*
X18710053Y36540047D01*
X18831128Y36617857D01*
X18925377Y36726627D01*
X18985165Y36857543D01*
X19005647Y37000000D01*
X39594353Y37000000D01*
X39614834Y36857546D01*
X39674623Y36726627D01*
X39768868Y36617861D01*
X39768869Y36617860D01*
X39768872Y36617857D01*
X39889947Y36540047D01*
X39996403Y36508789D01*
X40028035Y36499501D01*
X40028037Y36499500D01*
X40028039Y36499500D01*
X40171963Y36499500D01*
X40171964Y36499501D01*
X40310053Y36540047D01*
X40431128Y36617857D01*
X40525377Y36726627D01*
X40585165Y36857543D01*
X40605647Y37000000D01*
X40585165Y37142457D01*
X40525377Y37273373D01*
X40431128Y37382143D01*
X40374182Y37418740D01*
X40310054Y37459953D01*
X40310050Y37459954D01*
X40171964Y37500500D01*
X40171961Y37500500D01*
X40028039Y37500500D01*
X40028036Y37500500D01*
X39889949Y37459954D01*
X39889945Y37459953D01*
X39768875Y37382145D01*
X39768868Y37382140D01*
X39674623Y37273374D01*
X39614834Y37142455D01*
X39594353Y37000000D01*
X19005647Y37000000D01*
X18985165Y37142457D01*
X18925377Y37273373D01*
X18831128Y37382143D01*
X18774182Y37418740D01*
X18710054Y37459953D01*
X18710050Y37459954D01*
X18571964Y37500500D01*
X18571961Y37500500D01*
X18428039Y37500500D01*
X18428036Y37500500D01*
X18289949Y37459954D01*
X18289945Y37459953D01*
X18168875Y37382145D01*
X18168868Y37382140D01*
X18074623Y37273374D01*
X18014834Y37142455D01*
X17994353Y37000000D01*
X300500Y37000000D01*
X300500Y39697576D01*
X17874500Y39697576D01*
X17889472Y39540780D01*
X17948683Y39339127D01*
X17948685Y39339123D01*
X18044986Y39152322D01*
X18044988Y39152319D01*
X18044989Y39152318D01*
X18128803Y39045741D01*
X18174908Y38987114D01*
X18333740Y38849484D01*
X18333741Y38849484D01*
X18333744Y38849481D01*
X18515756Y38744396D01*
X18714367Y38675656D01*
X18922398Y38645746D01*
X19132330Y38655746D01*
X19336576Y38705296D01*
X19527753Y38792604D01*
X19698952Y38914514D01*
X19843986Y39066622D01*
X19957613Y39243428D01*
X20035725Y39438543D01*
X20075500Y39644915D01*
X20075500Y39697576D01*
X21684500Y39697576D01*
X21699472Y39540780D01*
X21758683Y39339127D01*
X21758685Y39339123D01*
X21854986Y39152322D01*
X21854988Y39152319D01*
X21854989Y39152318D01*
X21938803Y39045741D01*
X21984908Y38987114D01*
X22143740Y38849484D01*
X22143741Y38849484D01*
X22143744Y38849481D01*
X22325756Y38744396D01*
X22524367Y38675656D01*
X22732398Y38645746D01*
X22942330Y38655746D01*
X23146576Y38705296D01*
X23337753Y38792604D01*
X23508952Y38914514D01*
X23653986Y39066622D01*
X23767613Y39243428D01*
X23845725Y39438543D01*
X23885500Y39644915D01*
X23885500Y39697576D01*
X25494500Y39697576D01*
X25509472Y39540780D01*
X25568683Y39339127D01*
X25568685Y39339123D01*
X25664986Y39152322D01*
X25664988Y39152319D01*
X25664989Y39152318D01*
X25748803Y39045741D01*
X25794908Y38987114D01*
X25953740Y38849484D01*
X25953741Y38849484D01*
X25953744Y38849481D01*
X26135756Y38744396D01*
X26334367Y38675656D01*
X26542398Y38645746D01*
X26752330Y38655746D01*
X26956576Y38705296D01*
X27147753Y38792604D01*
X27318952Y38914514D01*
X27444069Y39045734D01*
X29304500Y39045734D01*
X29307354Y39015301D01*
X29307354Y39015299D01*
X29307355Y39015296D01*
X29352206Y38887119D01*
X29352207Y38887117D01*
X29432846Y38777854D01*
X29432853Y38777847D01*
X29542116Y38697208D01*
X29542118Y38697207D01*
X29670295Y38652356D01*
X29670301Y38652354D01*
X29700734Y38649500D01*
X29700741Y38649500D01*
X31109258Y38649500D01*
X31109266Y38649500D01*
X31139699Y38652354D01*
X31267882Y38697207D01*
X31377150Y38777850D01*
X31457793Y38887118D01*
X31502646Y39015301D01*
X31505500Y39045734D01*
X31505500Y42254266D01*
X31502646Y42284699D01*
X31457793Y42412882D01*
X31457792Y42412884D01*
X31377153Y42522147D01*
X31377146Y42522154D01*
X31267883Y42602793D01*
X31267881Y42602794D01*
X31139704Y42647645D01*
X31139705Y42647645D01*
X31139700Y42647646D01*
X31139699Y42647646D01*
X31109266Y42650500D01*
X29700734Y42650500D01*
X29670301Y42647646D01*
X29670299Y42647646D01*
X29670295Y42647645D01*
X29542118Y42602794D01*
X29542116Y42602793D01*
X29432853Y42522154D01*
X29432846Y42522147D01*
X29352207Y42412884D01*
X29352206Y42412882D01*
X29307355Y42284705D01*
X29307354Y42284701D01*
X29307354Y42284699D01*
X29304500Y42254266D01*
X29304500Y39045734D01*
X27444069Y39045734D01*
X27463986Y39066622D01*
X27577613Y39243428D01*
X27655725Y39438543D01*
X27695500Y39644915D01*
X27695500Y41602425D01*
X27680528Y41759218D01*
X27621316Y41960875D01*
X27525011Y42147682D01*
X27395092Y42312886D01*
X27311308Y42385486D01*
X27236259Y42450517D01*
X27236256Y42450519D01*
X27054244Y42555604D01*
X27054240Y42555606D01*
X27054239Y42555606D01*
X26855636Y42624343D01*
X26855633Y42624344D01*
X26647602Y42654254D01*
X26647598Y42654254D01*
X26647596Y42654254D01*
X26437668Y42644254D01*
X26233427Y42594705D01*
X26233425Y42594705D01*
X26233424Y42594704D01*
X26074554Y42522150D01*
X26042245Y42507395D01*
X25871047Y42385486D01*
X25726014Y42233380D01*
X25612385Y42056569D01*
X25534274Y41861456D01*
X25494500Y41655084D01*
X25494500Y39697576D01*
X23885500Y39697576D01*
X23885500Y41602425D01*
X23870528Y41759218D01*
X23811316Y41960875D01*
X23715011Y42147682D01*
X23585092Y42312886D01*
X23501308Y42385486D01*
X23426259Y42450517D01*
X23426256Y42450519D01*
X23244244Y42555604D01*
X23244240Y42555606D01*
X23244239Y42555606D01*
X23045636Y42624343D01*
X23045633Y42624344D01*
X22837602Y42654254D01*
X22837598Y42654254D01*
X22837596Y42654254D01*
X22627668Y42644254D01*
X22423427Y42594705D01*
X22423425Y42594705D01*
X22423424Y42594704D01*
X22264554Y42522150D01*
X22232245Y42507395D01*
X22061047Y42385486D01*
X21916014Y42233380D01*
X21802385Y42056569D01*
X21724274Y41861456D01*
X21684500Y41655084D01*
X21684500Y39697576D01*
X20075500Y39697576D01*
X20075500Y41602425D01*
X20060528Y41759218D01*
X20001316Y41960875D01*
X19905011Y42147682D01*
X19775092Y42312886D01*
X19691308Y42385486D01*
X19616259Y42450517D01*
X19616256Y42450519D01*
X19434244Y42555604D01*
X19434240Y42555606D01*
X19434239Y42555606D01*
X19235636Y42624343D01*
X19235633Y42624344D01*
X19027602Y42654254D01*
X19027598Y42654254D01*
X19027596Y42654254D01*
X18817668Y42644254D01*
X18613427Y42594705D01*
X18613425Y42594705D01*
X18613424Y42594704D01*
X18454554Y42522150D01*
X18422245Y42507395D01*
X18251047Y42385486D01*
X18106014Y42233380D01*
X17992385Y42056569D01*
X17914274Y41861456D01*
X17874500Y41655084D01*
X17874500Y39697576D01*
X300500Y39697576D01*
X300500Y46166355D01*
X1400657Y46166355D01*
X1431316Y45913843D01*
X1431320Y45913826D01*
X1502087Y45669509D01*
X1502090Y45669500D01*
X1611135Y45439694D01*
X1611137Y45439691D01*
X1611138Y45439689D01*
X1611139Y45439688D01*
X1755640Y45230341D01*
X1931852Y45046885D01*
X2135210Y44894071D01*
X2360448Y44775857D01*
X2601732Y44695305D01*
X2852813Y44654500D01*
X2852816Y44654500D01*
X3043483Y44654500D01*
X3233550Y44669844D01*
X3480533Y44730720D01*
X3714553Y44830426D01*
X3929548Y44966381D01*
X4119951Y45135063D01*
X4280829Y45332103D01*
X4408016Y45552398D01*
X4498219Y45790243D01*
X4549100Y46039477D01*
X4553004Y46136355D01*
X61650657Y46136355D01*
X61681316Y45883843D01*
X61681320Y45883826D01*
X61752087Y45639509D01*
X61752090Y45639500D01*
X61861135Y45409694D01*
X61861137Y45409691D01*
X61861138Y45409689D01*
X61861139Y45409688D01*
X62005640Y45200341D01*
X62181852Y45016885D01*
X62385210Y44864071D01*
X62610448Y44745857D01*
X62851732Y44665305D01*
X63102813Y44624500D01*
X63102816Y44624500D01*
X63293483Y44624500D01*
X63483550Y44639844D01*
X63730533Y44700720D01*
X63964553Y44800426D01*
X64179548Y44936381D01*
X64369951Y45105063D01*
X64530829Y45302103D01*
X64658016Y45522398D01*
X64748219Y45760243D01*
X64799100Y46009477D01*
X64809343Y46263645D01*
X64778682Y46516166D01*
X64742881Y46639763D01*
X64707912Y46760492D01*
X64707909Y46760501D01*
X64598864Y46990307D01*
X64598862Y46990310D01*
X64578153Y47020312D01*
X64454360Y47199659D01*
X64278148Y47383115D01*
X64074790Y47535929D01*
X63849552Y47654143D01*
X63608268Y47734695D01*
X63357187Y47775500D01*
X63166517Y47775500D01*
X62976452Y47760157D01*
X62729469Y47699281D01*
X62495448Y47599575D01*
X62280451Y47463619D01*
X62090046Y47294935D01*
X61929169Y47097896D01*
X61801984Y46877604D01*
X61801980Y46877595D01*
X61711782Y46639763D01*
X61711782Y46639761D01*
X61660899Y46390520D01*
X61650657Y46136355D01*
X4553004Y46136355D01*
X4559343Y46293645D01*
X4528682Y46546166D01*
X4482090Y46707020D01*
X4457912Y46790492D01*
X4457909Y46790501D01*
X4348864Y47020307D01*
X4348862Y47020310D01*
X4274601Y47127896D01*
X4204360Y47229659D01*
X4028148Y47413115D01*
X3824790Y47565929D01*
X3599552Y47684143D01*
X3358268Y47764695D01*
X3107187Y47805500D01*
X2916517Y47805500D01*
X2726452Y47790157D01*
X2479469Y47729281D01*
X2245448Y47629575D01*
X2030451Y47493619D01*
X1840046Y47324935D01*
X1679169Y47127896D01*
X1551984Y46907604D01*
X1551980Y46907595D01*
X1461782Y46669763D01*
X1461782Y46669761D01*
X1410899Y46420520D01*
X1400657Y46166355D01*
X300500Y46166355D01*
X300500Y46187917D01*
X300616Y46192066D01*
X304636Y46263651D01*
X317241Y46488115D01*
X318171Y46496353D01*
X321536Y46516158D01*
X367487Y46786608D01*
X369326Y46794668D01*
X450841Y47077611D01*
X453571Y47085414D01*
X566246Y47357436D01*
X569840Y47364898D01*
X712268Y47622603D01*
X716665Y47629601D01*
X887044Y47869727D01*
X892202Y47876196D01*
X1088408Y48095751D01*
X1094249Y48101592D01*
X1313804Y48297798D01*
X1320273Y48302956D01*
X1560399Y48473335D01*
X1567397Y48477732D01*
X1825102Y48620160D01*
X1832564Y48623754D01*
X2104586Y48736429D01*
X2112389Y48739159D01*
X2395332Y48820674D01*
X2403392Y48822513D01*
X2693655Y48871830D01*
X2701885Y48872759D01*
X2997934Y48889385D01*
X3002083Y48889500D01*
X3047595Y48889500D01*
X63172405Y48889500D01*
X63217917Y48889500D01*
X63222065Y48889385D01*
G37*
%TD.AperFunction*%
%TD*%
M02*
